<svg xmlns="http://www.w3.org/2000/svg" width="63.977" height="63.977" viewBox="0 0 63.977 63.977">
  <g id="Group_2367" data-name="Group 2367" transform="translate(-4.008 -7.003)">
    <g id="Group_2366" data-name="Group 2366" transform="translate(4.008 7.003)">
      <path id="Path_9530" data-name="Path 9530" d="M45.238,7.423l3.081,2,2.119-1.344Q59.2,24.611,67.985,41.166c-6.58,3.585-13.209,7.118-19.838,10.65a6.951,6.951,0,0,1-3.056,4.455,6.649,6.649,0,0,1-4.929.58c-6.087,4.692-12.125,9.437-18.212,14.13Q12.966,54.1,4.008,37.211l2.267-1.423L6,31.754a1.841,1.841,0,0,1,.468-1.239,64.457,64.457,0,0,1,10.548-8.462,15.318,15.318,0,0,1,5.865-2.32A6.362,6.362,0,0,1,25.794,20a7.822,7.822,0,0,1,1.257-2.873,16.686,16.686,0,0,1,4.781-4.376,61.31,61.31,0,0,1,12-5.668C44.351,6.9,44.7,7.054,45.238,7.423Zm1.528,2.715C50.29,17.73,57.117,29.909,60.444,36.315l2.785,1.819L49.182,11.694Zm-3.08.185a56.08,56.08,0,0,0-10.425,4.982,14.475,14.475,0,0,0-3.992,3.612,3.547,3.547,0,0,0-.764,3.189L41.985,47.492a14.774,14.774,0,0,1,4.584-6.142,41.349,41.349,0,0,1,10.523-5.8ZM23.206,22.686a14.019,14.019,0,0,0-4.88,2,58.82,58.82,0,0,0-9.168,7.3L22.565,57.22a41.918,41.918,0,0,1,9.883-7.012,14.061,14.061,0,0,1,7.147-1.265L26.064,23.5A3.39,3.39,0,0,0,23.206,22.686ZM7.606,35.05l.222,3.4L21.653,64.469l-.3-3.823C16.6,52.369,12.141,43.564,7.606,35.05Zm52.123,2.557c-4.017,1.951-8.33,3.611-11.509,6.142a11.811,11.811,0,0,0-3.425,4.139,7.761,7.761,0,0,0-.049,4.9,4.011,4.011,0,0,0,.764-2.873c6.038-3.269,12.1-6.511,18.139-9.753ZM33.507,52.975a56.462,56.462,0,0,0-10.745,7.83l.444,5.536C28.628,62.1,34.1,57.9,39.521,53.661a8.01,8.01,0,0,0,2.884.449,6.444,6.444,0,0,0-3.869-2.294,11.478,11.478,0,0,0-5.028,1.16Z" transform="translate(-4.008 -7.003)" fill="#707070"/>
    </g>
  </g>
</svg>
