<svg xmlns="http://www.w3.org/2000/svg" width="75.575" height="75.575" viewBox="0 0 75.575 75.575">
  <g id="Group_3420" data-name="Group 3420" transform="translate(-298.646 -260.141)">
    <path id="Rectangle_743" data-name="Rectangle 743" d="M37.787,0h0A37.787,37.787,0,0,1,75.575,37.787v0A37.788,37.788,0,0,1,37.788,75.575h0A37.788,37.788,0,0,1,0,37.788v0A37.787,37.787,0,0,1,37.787,0Z" transform="translate(298.646 260.141)" fill="#6dbec2"/>
    <path id="Path_22795" data-name="Path 22795" d="M386.215,316.239q-.331-.349-.679-.683c-.221-.233-.449-.461-.68-.684s-.449-.46-.68-.684-.446-.458-.677-.68-.447-.46-.679-.682-.449-.461-.681-.685-.448-.46-.679-.683-.447-.458-.677-.68-.448-.46-.679-.683-.448-.46-.679-.683-.447-.459-.678-.682-.448-.46-.679-.683-.447-.459-.679-.682-.449-.461-.681-.684-.447-.458-.677-.68-.449-.461-.681-.685-.446-.458-.677-.68-.449-.461-.681-.685-.447-.459-.678-.681-.448-.46-.679-.683-.447-.459-.679-.682-.447-.459-.679-.682-.447-.46-.679-.682-.449-.461-.681-.684-.447-.459-.677-.681a22.178,22.178,0,0,0-16.13-6.849c-12,0-21.765,9.336-21.765,20.813a20.294,20.294,0,0,0,6.322,14.649c.22.232.447.459.678.682s.448.459.679.682.447.459.678.681.449.462.682.686.445.457.675.679.449.461.681.685.448.46.679.683.447.459.678.682.447.46.679.683.448.46.68.683.447.459.679.682.448.46.679.683.447.458.677.681.449.46.68.684.449.461.68.685.447.458.677.68.448.461.68.684.447.46.679.683.448.46.68.683.447.458.677.681.447.459.679.682.448.46.679.683.449.461.681.685.446.457.676.68.448.46.679.683.448.46.68.684c.211.222.428.439.648.652h14.927c9.192,0,16.643-7.123,16.643-15.911V317.568q-.316-.331-.646-.65C386.672,316.687,386.445,316.461,386.215,316.239Z" transform="translate(-18.518 -18.224)" fill="#231f20" opacity="0.2"/>
    <g id="Group_3419" data-name="Group 3419" transform="translate(312.709 274.203)">
      <g id="Group_3418" data-name="Group 3418" transform="translate(0 0)">
        <path id="Path_22796" data-name="Path 22796" d="M354.79,292.562a23.726,23.726,0,1,0,23.729,23.726A23.75,23.75,0,0,0,354.79,292.562Z" transform="translate(-331.069 -292.562)" fill="#58595b"/>
        <path id="Path_22797" data-name="Path 22797" d="M357.632,340.678a21.549,21.549,0,1,1,21.552-21.549A21.57,21.57,0,0,1,357.632,340.678Z" transform="translate(-333.911 -295.404)" fill="#fff"/>
      </g>
      <path id="Path_22798" data-name="Path 22798" d="M363.638,312.188l9.286,15.128-9.286,15.613,26.624-15.374Z" transform="translate(-349.511 -303.675)" fill="#58595b"/>
    </g>
  </g>
</svg>
