<svg xmlns="http://www.w3.org/2000/svg" width="75.857" height="75.857" viewBox="0 0 75.857 75.857">
  <g id="Group_3417" data-name="Group 3417" transform="translate(-57.795 -260.141)">
    <rect id="Rectangle_742" data-name="Rectangle 742" width="75.857" height="75.857" rx="37.928" transform="translate(57.795 260.141)" fill="#e46a5d"/>
    <path id="Path_22791" data-name="Path 22791" d="M136.747,314.478q-.28-.308-.574-.6c-.187-.206-.379-.408-.575-.605s-.379-.407-.575-.6-.377-.405-.572-.6-.378-.407-.574-.6-.38-.408-.576-.606-.379-.407-.574-.6-.378-.405-.572-.6-.379-.407-.575-.6-.379-.407-.575-.6-.378-.406-.573-.6-.379-.407-.574-.6-.378-.406-.574-.6-.38-.408-.576-.605-.378-.405-.572-.6-.38-.408-.576-.605-.377-.405-.572-.6-.38-.408-.576-.606-.378-.406-.573-.6-.379-.407-.575-.6-.378-.406-.574-.6-.378-.406-.574-.6-.378-.407-.574-.6-.379-.408-.576-.605-.378-.406-.573-.6a18.4,18.4,0,1,0-26.7,25.309c.186.206.378.406.573.6s.379.406.574.6.378.406.573.6.38.409.577.607.377.4.571.6.379.408.576.605.379.407.574.6.378.406.574.6.378.407.574.6.379.407.575.6.378.406.574.6.379.407.574.6.378.405.572.6.379.407.575.6.379.408.575.605.378.405.572.6.379.408.575.6.378.407.574.6.379.407.575.6.378.406.573.6.378.406.574.6.379.407.575.6.38.408.576.606.377.4.571.6.379.407.574.6.379.407.575.6c.178.2.362.388.548.577h12.623a14.074,14.074,0,0,0,14.074-14.074V315.654q-.268-.293-.547-.575C137.134,314.874,136.942,314.674,136.747,314.478Z" transform="translate(-11.406 -11.743)" fill="#231f20" opacity="0.2"/>
    <g id="Group_3416" data-name="Group 3416" transform="translate(71.91 274.256)">
      <g id="Group_3415" data-name="Group 3415" transform="translate(0 0)">
        <path id="Path_22792" data-name="Path 22792" d="M114.026,292.563a23.813,23.813,0,1,0,23.818,23.814A23.838,23.838,0,0,0,114.026,292.563Z" transform="translate(-90.217 -292.563)" fill="#58595b"/>
        <path id="Path_22793" data-name="Path 22793" d="M116.861,340.839a21.63,21.63,0,1,1,21.632-21.629A21.65,21.65,0,0,1,116.861,340.839Z" transform="translate(-93.052 -295.395)" fill="#fff"/>
      </g>
      <path id="Path_22794" data-name="Path 22794" d="M108.412,327.254l26.722,15.426L125.809,327.5l9.324-15.672Z" transform="translate(-100.49 -303.439)" fill="#58595b"/>
    </g>
  </g>
</svg>
