<svg xmlns="http://www.w3.org/2000/svg" width="73" height="43" viewBox="0 0 73 43">
  <g id="Group_2746" data-name="Group 2746" transform="translate(76 65.5) rotate(180)">
    <g id="Group_2744" data-name="Group 2744" transform="translate(3 22.5)">
      <path id="Path_11054" data-name="Path 11054" d="M36.79,44,29.6,65.5,79.845,44,29.6,22.5Z" transform="translate(-6.845 -22.5)" fill="#707070"/>
      <path id="Path_11055" data-name="Path 11055" d="M20.109,47.711A1.716,1.716,0,0,0,18.4,46H4.711a1.711,1.711,0,1,0,0,3.422H18.4A1.716,1.716,0,0,0,20.109,47.711Z" transform="translate(-3 -26.211)" fill="#707070"/>
      <path id="Path_11056" data-name="Path 11056" d="M23.4,29H9.711a1.711,1.711,0,1,0,0,3.422H23.4A1.711,1.711,0,1,0,23.4,29Z" transform="translate(-3.723 -23.44)" fill="#707070"/>
      <path id="Path_11057" data-name="Path 11057" d="M23.4,64H9.711a1.711,1.711,0,0,0,0,3.422H23.4A1.711,1.711,0,1,0,23.4,64Z" transform="translate(-3.723 -29.127)" fill="#707070"/>
    </g>
  </g>
</svg>
