<?xml version="1.0" encoding="UTF-8"?><svg xmlns="http://www.w3.org/2000/svg" viewBox="0 0 284.82 296.06"><defs><style>.c{fill:#fff;}.d{fill:#bfd3df;}.e{fill:#a4d9f1;}.f{fill:#f29c82;}.g{fill:#fcecee;}.h{fill:#f6b8a7;}.i{fill:#d1455f;}.j{fill:#ddeef7;}.k{fill:#4a376b;}.l{fill:#e9627a;}.m{fill:#2a2254;}.n{fill:#ec7877;}.o{fill:#263238;}</style></defs><g id="a"><g><path class="o" d="M195.73,296.06l-100.59-.06c-12.1,0-21.9-9.82-21.9-21.92l.05-252.18C73.29,9.8,83.11,0,95.21,0l100.59,.06c12.1,0,21.9,9.82,21.9,21.92l-.05,252.18c0,12.1-9.82,21.91-21.92,21.91Z"/><path class="c" d="M195.7,8.98h-19.5c-2.62-.01-4.74,2.2-4.74,4.94v3.54c0,2.73-2.12,4.95-4.74,4.95l-38.01-.02c-2.62,0-4.74-2.22-4.73-4.95v-3.54c0-2.73-2.12-4.95-4.73-4.95h-23.93c-8.48-.02-15.35,6.85-15.35,15.33l-.05,246.15c0,8.47,6.86,15.34,15.34,15.35l100.39,.06c8.48,0,15.35-6.86,15.35-15.34l.05-246.15c0-8.47-6.86-15.34-15.34-15.35Z"/></g></g><g id="b"><g><rect class="c" x="79.82" y="22.8" width="131" height="263" rx="22.53" ry="22.53"/><g><path class="g" d="M171.64,22.8c-1.43,2.51-2.56,5.19-3.28,8.07-5.81,23.18,4.26,45.72,20.9,60.72,6.45,5.82,13.91,9.73,21.57,13.36V39.15c0-9.03-7.02-16.35-15.68-16.35h-23.51Z"/><path class="j" d="M89.53,177.11c-2.76-4.74-5.95-9.23-9.71-12.9v59.8c11.36-13.3,19.67-29.8,9.71-46.9Z"/><path class="j" d="M202.59,221.76c2.13,4.84,4.88,8.78,8.24,12.19v-62.34c-1.62,.88-3.08,1.83-4.34,2.87-13.32,11.01-10.16,33.07-3.9,47.28Z"/><path class="j" d="M152.14,22.8h-56.64c-.95,0-1.88,.09-2.78,.26,.89,.86,1.69,1.61,2.34,2.21,6.96,6.46,16.23,9.87,25.44,11.21,11.5,1.68,22.9-6.34,31.65-13.68Z"/><path class="g" d="M103.48,106.22c7.61-8.65,9.31-22.91,3.02-32.94-5.32-8.48-16.18-14.16-26.67-17.6V121.85c8.65-3.09,16.71-7.74,23.65-15.63Z"/><path class="g" d="M206.7,280.5c-15.27-17.9-44.18-26.88-64.65-25.08-14.1,1.24-26.17,5.54-35.63,16.82-2.4,2.87-4.7,8.3-7.2,13.56h95.92c4.57,0,8.68-2.04,11.55-5.3Z"/></g><g><path class="l" d="M150.91,90c-9.22-2.24-19.29-.37-26.66,6.41-7.49,6.89-5.84,17.85-12.32,25.79-7.88,9.64-15.04,16.9-16.87,30.28-1.9,13.91,1.52,26.29,9.94,37.35,8.32,10.93,24.64,14.7,37.38,14.45,15.54-.31,32.21-8.03,41.29-21.57,5.49-8.18,8.23-18.55,5.13-28.12-3.15-9.7-12.12-16.22-13.51-26.61-1.41-10.52-.7-19.59-7.95-28.01-4.35-5.04-10.19-8.45-16.42-9.96Z"/><g><polygon class="e" points="183.25 126.99 183.25 126.99 183.25 126.99 183.25 126.99"/><path class="e" d="M184.3,125.6c-.05-.22-.14-.43-.22-.63-.11-.28-.22-.56-.34-.83-.1-.24-.21-.47-.38-.67v-6.34c0-1.08-.85-1.96-1.88-1.96h-16.93c-1.03,0-1.88,.88-1.88,1.96v7.19c0,1.08,.85,1.96,1.88,1.96h16.84c.24,.19,.59,.26,.86,.34,.28,.09,.55,.17,.83,.26l.02,.02s.09,.07,.15,.09h.02c.12,.06,.12,.06,.01,.02,.31,.16,.73,.07,.92-.28,.1-.18,.14-.36,.14-.57,0-.19,0-.38-.04-.56Z"/></g><path class="i" d="M157.05,172.59c.71,3.64,1.73,7.61,3.33,8.97,3.09,2.62,8.79,1.51,9.04-4.59,.12-2.94-1.55-6.65-3.32-9.7l4.39-18.3c.32-1.32-.61-2.61-1.91-2.66l-8.67-.35c-.19,0-.38,.02-.56,.07-2.44-2.69-6.23-6-10.69-6.86,0-.13-.01-.26-.04-.4-.05-.25-.29-.43-.54-.46,6.18-1.62,9.22-4.28,9.78-8.93,.94-7.83-2.19-8.79-1.88-19.49,.24-8.16-1.89-16.49-7.98-20.42-8.38-1.23-17.14,.9-23.74,6.96-4.65,4.28-5.78,10.12-7.51,15.83-.45,8.48-4.24,12.23-1.53,17.44,1.36,2.63,3.72,5.4,7.26,7.42-5.75,1.81-11.63,8.73-14.16,15.88-2.34,6.59-1.11,14.82-.73,16.96-.52,.2-.49,1.09,.15,1.08,.59-.01,1.19-.04,1.78-.07,.38,2.84,1.18,7.61,2.56,9.82,0,0,1.74,5.05,7.66,6.49-.68,4.35-1.65,8.62-3.04,11.79,8.02,3.91,17.58,5.38,25.68,5.22,5.81-.12,11.78-1.27,17.44-3.37-1.15-5.96-3.27-18.57-2.78-28.31Zm-9.67-33.91c-.08-.04-.17-.09-.25-.15,.2-.05,.39-.09,.58-.14-.12,.09-.22,.18-.33,.29Z"/><ellipse class="m" cx="136.48" cy="88.4" rx="8.94" ry="9.32"/><path class="m" d="M144.64,87.18c-17.19-1.44-24.14,14.7-24.3,23.96-.16,9.27-4.39,13.1-1.57,18.53s9.88,11.5,22.89,10.22c13.01-1.28,18.95-3.85,19.75-10.54,.94-7.83-2.19-8.79-1.88-19.49,.31-10.7-3.45-21.73-14.89-22.69Z"/><path class="h" d="M165.76,161.47s7.45,9.39,7.21,15.49c-.24,6.11-5.94,7.22-9.04,4.59-3.09-2.62-4.04-15.01-4.7-15.93-.66-.92,6.53-4.16,6.53-4.16Z"/><path class="h" d="M112.81,168.68s.78,8.83,2.82,12.1c2.04,3.27,11.44-1.14,11.44-1.14,0,0,1.57-8.34,1.1-10.14-.47-1.8-2.51-5.4-3.76-5.23-1.25,.16-11.6,4.41-11.6,4.41Z"/><path class="c" d="M127.24,136.8c-6.11,1.14-12.65,8.54-15.36,16.19s-.63,17.49-.63,17.49c0,0,9.41,.82,13.64-2.13,0,0-.31,23.87-5.64,32.7,0,0,26.81,11.93,44.84,3.27,0,0-5.49-24.52-2.82-37.28l4.55-17.33s-5.96-9.32-13.95-10.63l-15.99-.16-8.62-2.13Z"/><path class="m" d="M161.37,147.66l-4.16,21.11c-.27,1.37,.76,2.63,2.1,2.57l7.93-.34c.91-.04,1.69-.7,1.91-1.62l4.89-20.42c.32-1.32-.61-2.61-1.91-2.66l-8.67-.35c-1.01-.04-1.89,.68-2.09,1.71Z"/><path class="h" d="M135.39,129.11s0,2.94-1.72,5.07-6.43,2.62-6.43,2.62c0,0,4.95,9.29,13.8,8.99,9.56-.33,10.82-6.7,10.82-6.7,0,0-5.49-1.63-5.64-9.32l-7.37-.82-3.45,.16Z"/><path class="h" d="M152.32,165.73s-33.24,13.57-36.68,15.04c0,0,2.98,8.66,14.42,6.54,11.44-2.13,24.3-14.06,26.65-15.86s11.91-6.54,12.39-8.01c.47-1.47,.31-2.45,.31-2.45,0,0,1.25-1.63-.78-2.62,0,0,.78-2.62-2.19-2.29-2.98,.33-6.9,4.74-6.9,4.74,0,0,1.88-4.9,.31-5.07-1.57-.16-2.35,3.6-3.76,5.56-1.41,1.96-2.19,3.11-3.76,4.41Z"/><path class="f" d="M146.74,133.31c-.25-.82-.41-1.76-.49-2.81l-2.07-.96-5.34-.59-3.45,.16s0,2.94-1.72,5.07c-.5,.61-1.24,1.08-2.05,1.45,2.36,1.57,5.78,2.11,8.16,1.8,1.93-.25,5.36-2.04,6.96-4.12Z"/><path class="h" d="M129.48,112.93s-3.63-.36-3.76,2.94c-.16,3.92,3.14,4.09,3.14,4.09,0,0,1.88,13.57,13.43,13.57s12.39-20.76,12.39-20.76c0,0-7.68-5.56-10.5-10.95,0,0-7.47,10.14-14.68,11.12Z"/><path class="f" d="M129.1,116.44c0-.16-.05-.32-.16-.44h0c-.12-.24-.26-.46-.43-.65-.19-.21-.42-.4-.67-.52-.3-.14-.66-.25-.97-.1-.21,.11-.2,.46,0,.56,.15,.08,.31,.1,.46,.16l.04,.02s.07,.04,.11,.06c.03,.02,.05,.03,.08,.05l.03,.03h0c.05,.06,.11,.11,.16,.16,.03,.03,.06,.07,.08,.1h0v.02s.04,.07,.06,.1c-.1,.07-.18,.16-.26,.26-.13,.18-.27,.35-.34,.57-.13,.43,.05,.88,.42,1.1,.19,.12,.42,.11,.63,.05,.08-.02,.16-.06,.23-.1l.02-.02s.07-.02,.09-.04c.3-.19,.46-.57,.45-.93,0-.15-.03-.3-.07-.45Z"/><path class="f" d="M135.92,172.61c-1.51,0-2.94,.58-4.35,1.09-1.38,.5-2.75,1.05-4.1,1.63-1.31,.57-2.59,1.2-3.85,1.86-1.25,.65-2.81,1.36-3.78,2.44-.16,.18,0,.44,.22,.39,1.32-.28,2.63-1.13,3.84-1.73,1.37-.67,2.76-1.3,4.16-1.9,1.35-.58,2.72-1.12,4.11-1.62,1.32-.47,2.71-.82,3.91-1.6,.25-.16,.15-.58-.15-.58Z"/><path class="f" d="M167.83,157.85c-.51,.15-.95,.57-1.4,.87-.49,.32-.98,.64-1.47,.95-.48,.3-.96,.59-1.46,.87-.25,.14-.49,.28-.72,.44-.11,.07-.24,.14-.34,.23-.11,.09-.19,.23-.28,.35-.07,.09-.03,.23,.09,.23,.3,0,.51-.04,.8-.15,.26-.11,.51-.22,.75-.35,.53-.29,1.04-.59,1.55-.91,.5-.31,.98-.64,1.45-.99,.45-.33,1.01-.66,1.31-1.15,.11-.18-.07-.42-.27-.36Z"/><path class="f" d="M168.77,160.33c-.27,0-.49,.14-.7,.3-.23,.18-.47,.35-.71,.52-.5,.35-1.01,.68-1.52,1-.99,.63-2.09,1.08-3,1.83-.11,.09-.02,.3,.11,.29,1.19-.12,2.26-.78,3.28-1.4,.52-.32,1.01-.67,1.49-1.05,.23-.18,.46-.37,.68-.55,.23-.19,.47-.39,.52-.71,.02-.11-.05-.22-.16-.22Z"/><path class="k" d="M157.94,114.22c-.53-.57-1.02-.85-1.71-1.19-.66-.33-1.31-.69-1.94-1.08-1.29-.81-2.48-1.76-3.57-2.83-1.08-1.06-2.09-2.2-3.06-3.37-.51-.61-1-1.24-1.48-1.89-.46-.63-.87-1.35-1.39-1.92-.1-.11-.2-.15-.31-.17-.1-.13-.26-.2-.42-.07-.76,.59-1.19,1.34-1.77,2.11-.59,.78-1.22,1.52-1.91,2.21-1.4,1.42-2.98,2.62-4.69,3.59-1.67,.95-3.46,1.68-5.31,2.14-.94,.24-1.9,.43-2.85,.55-.97,.13-1.96,.07-2.91,.28-.39,.08-.35,.67,0,.77,1.78,.54,4.07,.13,5.84-.28,2-.47,3.95-1.24,5.76-2.25,1.77-.99,3.42-2.23,4.89-3.67,.74-.73,1.44-1.51,2.07-2.35,.37-.49,.74-.96,1.01-1.49,.3,.5,.67,.98,1,1.44,.46,.65,.93,1.29,1.42,1.92,1.01,1.3,2.09,2.55,3.27,3.69,1.1,1.07,2.3,2.03,3.58,2.85,.66,.42,1.34,.81,2.03,1.16,.76,.38,1.34,.59,2.19,.52,.32-.03,.51-.41,.27-.67Z"/><path class="k" d="M124.17,115.38c.03-.43-.51-.61-.78-.34-.44,.45-.44,1.09-.53,1.69-.12,.82-.32,1.63-.55,2.43-.44,1.59-.97,3.15-1.28,4.77-.27,1.4-.41,2.84-.24,4.26,.08,.72,.21,1.43,.48,2.09,.31,.75,.75,1.02,1.34,1.48,.32,.24,.7-.16,.62-.5-.07-.33-.02-.65-.09-.99-.07-.33-.17-.64-.25-.97-.15-.58-.26-1.15-.29-1.75-.07-1.32,.08-2.62,.35-3.91,.31-1.45,.69-2.88,.95-4.33,.12-.65,.21-1.3,.28-1.95,.07-.67-.05-1.33,0-1.98Z"/><path class="k" d="M127.64,130.01c-.02-.79-.03-1.58-.07-2.36-.03-.72-.07-1.42-.05-2.14,.01-.34,.07-.67,.09-1.01,.01-.2,0-.52-.23-.59-.61-.16-.96,.84-1.11,1.29-.23,.72-.26,1.54-.32,2.29-.07,.84-.08,1.68-.07,2.52,0,.84,.06,1.71,.71,2.29,.13,.12,.33,.14,.46,0,.59-.63,.6-1.46,.58-2.29Z"/><path class="k" d="M130.43,131.27c-.02-.38,0-.77-.12-1.14-.09-.3-.41-.36-.63-.17-.17,.14-.27,.32-.36,.53-.11,.25-.2,.58-.19,.85,0,.24,.03,.51,.09,.74,.04,.15,.13,.28,.22,.4,.03,.05,.08,.1,.13,.13h0s.09,.09,.1,.11c.18,.2,.55,.11,.61-.17,0-.05,.02-.09,.03-.14,.03-.06,.06-.13,.08-.21,.03-.12,.05-.25,.04-.38,0-.18,.01-.37,0-.55Z"/><path class="k" d="M158.62,125.83c-.13-1.54-.32-3.08-.57-4.61-.24-1.42-.43-3.22-1.2-4.44-.05-.07-.17-.07-.19,.03-.28,1.26,0,2.66,.02,3.95,.02,1.43,.09,2.85,.08,4.28-.02,2.3-.02,4.88-1.02,6.99-.33,.7-1.17,2.08-.14,2.6,1.06,.53,1.87-1.01,2.2-1.8,.93-2.21,1.03-4.62,.83-6.99Z"/><path class="k" d="M154.39,131.68c-.04-.59-.09-1.19-.26-1.75-.1-.34-.46-1.51-.98-1.05-.17,.15-.18,.42-.22,.64-.04,.24-.03,.48-.06,.72-.04,.49-.04,.99-.1,1.48-.03,.24-.05,.48-.07,.71-.01,.11-.01,.13,0,.05,0,.04-.01,.09-.02,.13-.01,.08-.03,.15-.05,.23-.03,.16-.06,.32-.09,.49-.02,.09-.03,.18-.03,.27,.02-.11,.01-.12,0-.03-.02,.09-.03,.19-.02,.28-.03,.39,.32,.67,.68,.61,.03,0,.06,.01,.09,0,.1-.02,.19-.05,.28-.1,.11-.06,.22-.15,.31-.24,.19-.19,.34-.52,.41-.78,.14-.51,.16-1.15,.12-1.68Z"/><path class="k" d="M151.24,132.82c-.08-.2-.24-.38-.47-.37-.21,0-.42,.15-.47,.37-.02,.08-.04,.15-.06,.23-.04,.12-.06,.24-.07,.37l.02-.17c-.02,.16-.06,.33-.1,.48-.02,.08-.03,.16-.05,.24-.02,.08-.03,.17-.03,.25,0,.07,.02,.15,.03,.23l-.02-.14c.01,.11,.02,.21,.07,.31,.03,.06,.08,.12,.13,.16,.16,.13,.38,.11,.55,0,.13-.08,.25-.19,.33-.33,.06-.11,.13-.23,.16-.36,.05-.21,.08-.43,.09-.64,.02-.23-.05-.44-.12-.65Z"/><path class="k" d="M144.38,87.25c-.46-.2-.93-.45-1.41-.59-.6-.17-1.23-.03-1.84,.06-1.4,.21-2.77,.53-4.12,.98-1.28,.42-2.54,.93-3.73,1.57-1.18,.63-2.51,1.32-3.36,2.41-.2,.26-.02,.73,.34,.61,1.21-.4,2.29-1.2,3.44-1.76,1.26-.62,2.56-1.16,3.9-1.58,1.28-.4,2.59-.71,3.92-.9,.35-.05,.71-.12,1.06-.05,.28,.06,.53,.21,.8,.28,.49,.12,.86,.02,1.16-.4,.13-.18,.04-.54-.16-.63Z"/><path class="k" d="M138.54,81.44c-.33-.46-.91-.51-1.43-.53-.56-.02-1.14,.08-1.68,.19-.52,.1-1.03,.25-1.53,.44-.51,.19-1.29,.43-1.35,1.08-.01,.14,.09,.29,.2,.36,.45,.28,1.06-.14,1.5-.3,.47-.18,.95-.31,1.44-.41,.47-.1,.94-.12,1.42-.17,.48-.05,1.02-.04,1.4-.4,.06-.06,.09-.19,.03-.26Z"/><path class="k" d="M141.61,85.02c-.61-.73-1.98-.55-2.81-.5-1.11,.07-2.21,.25-3.28,.52-1.04,.27-2.05,.65-3.03,1.12-.9,.44-2.05,.93-2.66,1.78-.2,.28,.13,.64,.42,.56,.48-.13,.87-.42,1.3-.66,.45-.26,.91-.5,1.38-.71,.96-.43,1.96-.77,2.98-1.03,1.02-.26,2.05-.42,3.09-.47,.8-.04,1.94,.17,2.61-.39,.07-.06,.05-.17,0-.24Z"/><path class="k" d="M143.64,96.73c-.37,.29-.75,.48-1.1,.8-.39,.35-.76,.7-1.1,1.11-.65,.78-1.28,1.57-1.96,2.33-1.4,1.54-2.97,2.89-4.68,4.04-1.66,1.11-3.47,2.12-5.32,2.85-.97,.38-1.96,.71-2.95,1.04-.98,.33-2,.52-2.95,.94-.14,.06-.18,.29,0,.34,1.94,.47,4.21-.01,6.08-.58,2.12-.64,4.13-1.53,6.02-2.73,1.84-1.17,3.56-2.57,5.09-4.15,.76-.79,1.49-1.65,2.12-2.56,.3-.43,.56-.89,.74-1.38,.22-.62,.25-1.14,.35-1.77,.03-.18-.16-.42-.34-.27Z"/><path class="k" d="M140.34,93.1c-.02-.18-.24-.18-.35-.1-.64,.53-1.01,1.13-1.46,1.83-.47,.74-1.03,1.43-1.61,2.08-1.18,1.31-2.49,2.51-3.9,3.55-1.36,1-2.8,1.85-4.29,2.6-1.52,.77-3.16,1.23-4.54,2.23-.13,.09-.07,.28,.08,.3,1.76,.19,3.41-.56,5.01-1.28,1.71-.78,3.34-1.8,4.85-2.95,1.45-1.11,2.81-2.35,4.03-3.74,1.08-1.23,2.44-2.73,2.19-4.51Z"/><path class="k" d="M135.33,93.11c-1,.46-1.75,1.28-2.51,2.08-.79,.83-1.6,1.65-2.44,2.43-.82,.76-1.66,1.48-2.53,2.18-.42,.34-.85,.67-1.26,1.02-.4,.33-.83,.64-1.12,1.08-.04,.06,.01,.15,.08,.15,1.01-.04,2.07-.78,2.89-1.34,.92-.64,1.79-1.36,2.64-2.11,.86-.76,1.69-1.55,2.51-2.36,.82-.82,1.66-1.64,2.11-2.75,.11-.26-.11-.49-.36-.38Z"/><path class="k" d="M158.54,106.32c-1.21-.74-2.75-.63-4.09-.94-1.24-.29-2.36-.88-3.31-1.77-.88-.82-1.61-1.82-2.26-2.84-.64-1-1.12-2.31-1.96-3.14-.16-.16-.5-.06-.48,.21,.09,1.28,.87,2.63,1.46,3.74,.64,1.21,1.43,2.33,2.42,3.25,1.07,.99,2.33,1.69,3.72,2.05,1.4,.36,3.16,.6,4.48-.13,.16-.09,.15-.33,0-.42Z"/><path class="k" d="M155.89,101.58c-.19-.31-.52-.52-.82-.7-.17-.1-.33-.19-.5-.3-.2-.13-.27-.21-.44-.37-.29-.27-.71-.44-1.05-.66-.32-.21-.63-.44-.93-.69-.61-.52-1.21-1.05-1.73-1.67-.25-.3-.49-.61-.73-.91-.21-.27-.67-.8-.59-1.18,.01-.07-.06-.15-.13-.1-.78,.57-.11,1.7,.27,2.33,.48,.8,1.07,1.58,1.72,2.24,.66,.66,1.44,1.26,2.25,1.72,.25,.14,.5,.15,.76,.25,.2,.07,.39,.14,.59,.2,.42,.13,.88,.23,1.29,.05,.07-.03,.09-.14,.05-.21Z"/><path class="k" d="M155.07,97.71c-.16-.22-.32-.39-.52-.57-.1-.16-.26-.28-.4-.41-.18-.17-.37-.32-.55-.49-.35-.34-.73-.64-1.06-.99-.66-.69-1.28-1.42-1.9-2.15-.07-.08-.18,0-.16,.1,.24,1.17,.84,2.16,1.61,3.04,.74,.83,1.74,1.66,2.87,1.7,.1,0,.18-.13,.12-.21Z"/><path class="m" d="M139.88,111.69c-.47-.13-.97-.16-1.46-.1-.52,.07-1.02,.23-1.48,.5-.45,.27-1.1,.75-.9,1.37,.06,.2,.21,.3,.4,.32,.3,.03,.49-.12,.71-.31,.03-.02,.05-.05,.08-.07,0,0,.08-.06,.09-.07,.08-.05,.16-.11,.24-.15,.07-.04,.15-.08,.23-.12,.02,0,.09-.03,.09-.04,.04-.02,.09-.03,.13-.05,.09-.03,.18-.05,.27-.07,.05-.01,.09-.02,.14-.03h.06c.19-.02,.38-.03,.57-.02,.05,0,.09,0,.14,.01,.01,0,.04,0,.06,.01,.09,.02,.18,.04,.27,.07,.09,.03,.19,.06,.28,.1,.01,0,.03,.01,.04,.02,.04,.02,.08,.04,.12,.07,.08,.04,.17,.09,.25,.13,.12,.06,.23,.11,.36,.11l.16-.02c-.09,.01-.09,.01-.03,0,.34-.02,.54-.31,.48-.65-.11-.61-.79-.88-1.3-1.02Z"/><path class="m" d="M150.92,112.47c-.55-.63-1.43-.92-2.22-.98-.39-.03-.78,0-1.16,.1-.36,.09-.88,.28-1,.68l-.03,.04c-.15,.24,.05,.59,.32,.57h0c.3,.11,.69-.09,.98-.15,.04,0,.07-.01,.11-.02h.03c.08-.01,.16-.02,.24-.03,.16,0,.32,0,.48,.01h.03s.06,.01,.09,.02c.07,.01,.15,.03,.22,.05,.16,.04,.31,.1,.46,.16,.01,0,.08,.04,.08,.03,.02,.01,.04,.02,.07,.03,.07,.03,.13,.07,.2,.11,.15,.09,.28,.2,.42,.29,.23,.16,.58,.07,.74-.15,.17-.24,.15-.56-.04-.78Z"/><path class="m" d="M139.79,117.24c0-.13,0-.26,0-.39-.01-.46-.12-.93-.52-1.18-1.59-.99-2.15,1.72-1.47,2.74,.09,.14,.21,.25,.37,.33,.16,.08,.33,.12,.52,.12,.83,0,1.12-.87,1.11-1.62Z"/><path class="m" d="M149.79,117.6c0-.13,0-.26,0-.39-.01-.46-.12-.93-.52-1.18-1.59-.99-2.15,1.72-1.47,2.74,.09,.14,.21,.25,.37,.33,.16,.08,.33,.12,.52,.12,.83,0,1.12-.87,1.11-1.62Z"/><g><path class="f" d="M145.15,120.15c-.11,0-.22,.03-.32,.08-.04,.02-.07,.05-.11,.08l-.03,.02s-.08,.06-.13,.08c-.02,.01-.04,.02-.07,.04-.01,0-.05,.02-.05,.02-.03,.01-.05,.02-.08,.03-.05,.02-.09,.04-.14,.05-.05,.01-.1,.03-.14,.04h-.04s-.02,0-.03,.01h0s-.1,0-.15,0c-.02,0-.05,0-.07,0h-.06s-.05-.02-.07-.03c-.05-.01-.11-.03-.16-.05h-.03s-.07-.04-.11-.06c-.02,0-.05-.02-.07-.02h-.03c-.12-.06-.22-.13-.36-.14-.15,0-.27,.13-.27,.28,0,.19,.1,.32,.21,.45,.09,.12,.2,.22,.33,.3,.26,.16,.55,.25,.84,.29,.27,.03,.56,0,.81-.11,.15-.06,.29-.13,.42-.23,.09-.06,.17-.13,.24-.22,.1-.13,.13-.25,.15-.42,.02-.27-.24-.51-.48-.51Z"/><path class="f" d="M144.06,120.59s-.01,0-.03,0h.03Z"/></g><path class="n" d="M136.58,119.62c-.18-.45-.61-.78-1.06-.88-.42-.09-.81-.09-1.23-.02-.41,.07-.78,.28-1.08,.56-.36,.33-.46,.89-.23,1.33,.13,.24,.36,.43,.59,.56,.37,.21,.78,.31,1.2,.29,.33-.01,.69-.07,1-.2,.5-.21,.93-.66,.9-1.27,0-.13-.04-.26-.08-.37Z"/><path class="n" d="M152.64,120.14c-.15-.37-.51-.66-.89-.74-.35-.07-.68-.08-1.03-.02-.34,.06-.65,.24-.91,.47-.3,.27-.39,.75-.19,1.12,.11,.2,.3,.36,.49,.47,.31,.18,.66,.26,1.01,.24,.28-.01,.58-.06,.84-.17,.42-.17,.78-.55,.75-1.07,0-.11-.03-.22-.07-.31Z"/><path class="c" d="M145.22,124.5c-.4-.09-.79,.03-1.18,.1-.2,.02-.4,.02-.6,0-.23-.04-.47-.09-.69-.17-.03-.01-.06-.03-.09-.04l.11,.05-.19-.09c-.09-.03-.18-.04-.28-.05,0,0,0,0-.02,0-.06-.01-.14-.02-.2-.03-.22,0-.42,.12-.54,.31-.18,.29-.09,.6,.04,.89,.11,.25,.32,.41,.53,.56,.31,.23,.66,.4,1.03,.48,.86,.18,2.08,.19,2.61-.67,.29-.48,.02-1.22-.52-1.34Z"/><path class="d" d="M126.08,171.58c-.03-1.55-.37-3.07-.73-4.57-.39-1.62-.83-3.25-.93-4.93-.04-.74-.03-1.48,.03-2.22,.07-.82,.35-1.65,.26-2.48-.02-.16-.22-.3-.34-.15-.8,.99-.89,2.63-.97,3.89-.11,1.57,.06,3.11,.38,4.64,.14,.69,.31,1.37,.46,2.06-.02,0-.04,0-.06,0-.45,.1-.83,.45-1.27,.61-.41,.15-.85,.27-1.28,.31-1.15,.12-2.29,.3-3.43,.45-2.29,.31-4.59,.48-6.89,.69-.68,.06-.7,1.14,0,1.12,2.52-.04,5.04-.32,7.53-.65,1.13-.15,2.23-.35,3.34-.6,.65-.15,1.74-.38,2.26-.97,.12,.61,.22,1.23,.27,1.85,.11,1.44-.36,2.9-.12,4.31,.03,.16,.25,.25,.38,.16,1.08-.78,1.16-2.27,1.13-3.54Z"/><path class="d" d="M152.17,138.76c-.08-.38-.58-.61-.89-.38-.87,.63-1.25,1.74-1.88,2.6-.73,.99-1.41,1.72-2.46,2.36-2.04,1.23-4.32,1.74-6.66,1.57-2.59-.19-5.09-1.16-7.32-2.54-1.09-.67-2.11-1.46-2.99-2.42-.48-.53-.92-1.1-1.29-1.72-.32-.53-.53-1.17-.97-1.59-.29-.28-.8-.09-.79,.34,.01,1.29,1.19,2.75,1.96,3.7,.89,1.11,1.98,2.02,3.13,2.82,2.46,1.69,5.33,2.82,8.28,3.05,2.65,.2,5.43-.39,7.68-1.91,.96-.65,2.08-1.48,2.83-2.38,.77-.94,1.67-2.19,1.39-3.49Z"/><path class="k" d="M164.91,148.61c-.04-.14-.11-.27-.21-.38l-.17-.13c-.13-.08-.26-.12-.41-.12-.11,0-.22,.02-.31,.07-.1,.03-.19,.09-.26,.18-.08,.08-.14,.17-.17,.27-.05,.1-.07,.21-.07,.33l.03,.23c.04,.14,.11,.27,.21,.38l.17,.13c.13,.08,.26,.12,.41,.12,.11,0,.22-.02,.31-.07,.1-.03,.19-.09,.26-.18,.08-.08,.14-.17,.17-.27,.05-.1,.07-.21,.07-.33l-.03-.23Z"/><path class="k" d="M164.77,151.49c-.03-.13-.08-.23-.16-.33-.06-.1-.15-.19-.26-.25l-.22-.1c-.16-.05-.33-.05-.49,0l-.22,.1c-.14,.09-.25,.2-.33,.34l-.09,.23c-.04,.12-.04,.24-.02,.36,0,.06,0,.12,.03,.19h0s.03,.08,.05,.12l.03,.08h0c.04,.07,.08,.13,.14,.19h0s.17,.14,.18,.15h0c.09,.06,.17,.09,.25,.11h-.02s.01,0,.02,0c.06,.01,.13,.02,.21,.03,0,0,.01,0,.02,0l.25-.03c.12-.03,.22-.09,.31-.17,.1-.07,.18-.16,.24-.27,.07-.11,.1-.23,.11-.36,.03-.13,.02-.26-.02-.38Z"/><path class="k" d="M166.48,150.17c-.03-.12-.09-.23-.18-.32l-.14-.12c-.11-.07-.23-.1-.36-.1-.1,0-.19,.02-.27,.06-.09,.03-.16,.08-.23,.15-.07,.07-.12,.15-.15,.24-.04,.09-.06,.18-.06,.28l.03,.2c.03,.12,.09,.23,.18,.32l.14,.11c.11,.07,.23,.1,.36,.1,.1,0,.19-.02,.27-.06,.09-.03,.16-.08,.23-.15,.07-.07,.12-.15,.15-.24,.04-.09,.06-.18,.06-.28l-.03-.2Z"/><path class="m" d="M179.16,130.86h15.19c1.52,0,2.75,1.23,2.75,2.75v5.61c0,1.52-1.23,2.75-2.75,2.75h-15.19c-1.52,0-2.75-1.23-2.75-2.75v-5.61c0-1.52,1.23-2.75,2.75-2.75Z"/><g><path class="c" d="M167.75,122.07c-.06-.22-.17-.41-.32-.57l-.25-.2c-.19-.12-.4-.18-.63-.18-.17,0-.33,.03-.48,.11-.15,.05-.29,.14-.4,.27-.12,.12-.21,.26-.26,.42-.08,.16-.11,.32-.11,.5l.04,.35c.06,.22,.17,.41,.32,.57l.25,.2c.19,.12,.4,.18,.63,.18,.17,0,.33-.03,.48-.11,.15-.05,.29-.14,.4-.27,.12-.12,.21-.26,.26-.42,.08-.16,.11-.32,.11-.5l-.04-.35Z"/><path class="c" d="M174.07,122.07c-.06-.22-.17-.41-.32-.57l-.25-.2c-.19-.12-.4-.18-.63-.18-.17,0-.33,.03-.48,.11-.15,.05-.29,.14-.4,.27-.12,.12-.21,.26-.26,.42-.08,.16-.11,.32-.11,.5l.04,.35c.06,.22,.17,.41,.32,.57l.25,.2c.19,.12,.4,.18,.63,.18,.17,0,.33-.03,.48-.11,.15-.05,.29-.14,.4-.27,.12-.12,.21-.26,.26-.42,.08-.16,.11-.32,.11-.5-.01-.12-.03-.23-.04-.35Z"/><path class="c" d="M180.39,122.07c-.06-.22-.17-.41-.32-.57l-.25-.2c-.19-.12-.4-.18-.63-.18-.17,0-.33,.03-.48,.11-.15,.05-.29,.14-.4,.27-.12,.12-.21,.26-.26,.42-.08,.16-.11,.32-.11,.5l.04,.35c.06,.22,.17,.41,.32,.57l.25,.2c.19,.12,.4,.18,.63,.18,.17,0,.33-.03,.48-.11,.15-.05,.29-.14,.4-.27,.12-.12,.21-.26,.26-.42,.08-.16,.11-.32,.11-.5l-.04-.35Z"/></g><g><path class="c" d="M181.75,137.66c-.06-.22-.17-.41-.32-.57l-.25-.2c-.19-.12-.4-.18-.63-.18-.17,0-.33,.03-.48,.11-.15,.05-.29,.14-.4,.27-.12,.12-.21,.26-.26,.42-.08,.16-.11,.32-.11,.5l.04,.35c.06,.22,.17,.41,.32,.57l.25,.2c.19,.12,.4,.18,.63,.18,.17,0,.33-.03,.48-.11,.15-.05,.29-.14,.4-.27,.12-.12,.21-.26,.26-.42,.08-.16,.11-.32,.11-.5l-.04-.35Z"/><path class="c" d="M188.07,137.66c-.06-.22-.17-.41-.32-.57l-.25-.2c-.19-.12-.4-.18-.63-.18-.17,0-.33,.03-.48,.11-.15,.05-.29,.14-.4,.27-.12,.12-.21,.26-.26,.42-.08,.16-.11,.32-.11,.5l.04,.35c.06,.22,.17,.41,.32,.57l.25,.2c.19,.12,.4,.18,.63,.18,.17,0,.33-.03,.48-.11,.15-.05,.29-.14,.4-.27,.12-.12,.21-.26,.26-.42,.08-.16,.11-.32,.11-.5-.01-.12-.03-.23-.04-.35Z"/><path class="c" d="M194.39,137.66c-.06-.22-.17-.41-.32-.57l-.25-.2c-.19-.12-.4-.18-.63-.18-.17,0-.33,.03-.48,.11-.15,.05-.29,.14-.4,.27-.12,.12-.21,.26-.26,.42-.08,.16-.11,.32-.11,.5l.04,.35c.06,.22,.17,.41,.32,.57l.25,.2c.19,.12,.4,.18,.63,.18,.17,0,.33-.03,.48-.11,.15-.05,.29-.14,.4-.27,.12-.12,.21-.26,.26-.42,.08-.16,.11-.32,.11-.5l-.04-.35Z"/></g><path class="m" d="M179.43,140.55c-.32-.09-.59-.08-.89,.06-.16,.07-.32,.15-.48,.23-.23,.11-.45,.24-.67,.37,0-.01,.02-.03,.03-.04,.18-.28,.06-.72-.22-.88-.32-.18-.63-.06-.84,.23-.51,.71-.95,1.46-1.43,2.19-.27,.41,.01,.98,.43,1.1,.25,.08,.54,.12,.8,.05,.23-.06,.44-.18,.65-.29,.34-.17,.68-.33,1.02-.5,.34-.17,.69-.32,1.01-.52,.17-.11,.34-.21,.51-.32,.17-.11,.32-.23,.42-.42,.06-.11,.1-.24,.13-.36,.12-.37-.14-.79-.48-.89Z"/></g><path class="e" d="M177.11,225.53l-2.17-1.31c-.53-.32-1.21,.06-1.21,.68v2.61c0,.62,.68,1,1.21,.68l2.17-1.31c.51-.31,.51-1.06,0-1.37Z"/><path class="e" d="M113.7,226.9l2.17,1.31c.53,.32,1.21-.06,1.21-.68v-2.61c0-.62-.68-1-1.21-.68l-2.17,1.31c-.51,.31-.51,1.06,0,1.37Z"/><ellipse class="l" cx="93.25" cy="46.89" rx="6.28" ry="6.55"/></g></g></svg>