<?xml version="1.0" encoding="UTF-8"?><svg xmlns="http://www.w3.org/2000/svg" viewBox="0 0 284.82 296.06"><defs><style>.c,.d{fill:#fff;}.e{fill:#bfd3df;}.f{fill:#f6bca9;}.g{fill:#a4d9f1;}.h{fill:#fcecee;}.i{fill:#f29c85;}.j{fill:#f8bd6d;}.k{letter-spacing:0em;}.l{fill:#d1455f;}.m{fill:#ddeef7;}.n{fill:#fbd7a4;}.o{fill:#c3dce7;}.p{letter-spacing:-.01em;}.q{fill:#4a376b;}.r{fill:#e9627a;}.s{letter-spacing:0em;}.t{fill:#2a2254;}.u{fill:#ef8789;}.v{letter-spacing:-.05em;}.w{fill:#263238;}.d{font-family:Quicksand-Bold, Quicksand;font-size:3.98px;}</style></defs><g id="a"><g><path class="w" d="M195.73,296.06l-100.59-.06c-12.1,0-21.9-9.82-21.9-21.92l.05-252.18C73.29,9.8,83.11,0,95.21,0l100.59,.06c12.1,0,21.9,9.82,21.9,21.92l-.05,252.18c0,12.1-9.82,21.91-21.92,21.91Z"/><path class="c" d="M195.7,8.98h-19.5c-2.62-.01-4.74,2.2-4.74,4.94v3.54c0,2.73-2.12,4.95-4.74,4.95l-38.01-.02c-2.62,0-4.74-2.22-4.73-4.95v-3.54c0-2.73-2.12-4.95-4.73-4.95h-23.93c-8.48-.02-15.35,6.85-15.35,15.33l-.05,246.15c0,8.47,6.86,15.34,15.34,15.35l100.39,.06c8.48,0,15.35-6.86,15.35-15.34l.05-246.15c0-8.47-6.86-15.34-15.34-15.35Z"/></g></g><g id="b"><g><rect class="c" x="79.82" y="27.68" width="131" height="258.12" rx="22.53" ry="22.53"/><g><path class="h" d="M95.5,285.8h7.87c-.6-1.89-1.03-3.77-1.21-5.55-.79-7.56-2.33-13.73-6.15-20.37-4.28-7.43-9.38-10.06-16.18-12.43v22.3c0,8.86,7.02,16.05,15.68,16.05Z"/><path class="h" d="M210.82,108.87V61.85c-.25,.22-.49,.43-.75,.63-3.99,3.2-9.13,4.1-13.08,7.4-7.33,6.12-10.2,15.85-3.19,23.27,5.27,5.58,11.13,10.66,17.03,15.71Z"/><path class="m" d="M91.19,160.54c1.2-9.38-1.8-23.04-7.86-30.04-1.1-1.27-2.28-2.48-3.51-3.61v61.35c2.29-3.76,4.1-7.79,5.8-11.99,2.02-5,4.88-10.27,5.57-15.71Z"/><path class="m" d="M210.82,269.75v-59.2c-2.66,1.35-4.99,3.11-6.92,5.86-4.1,5.86-2.56,8.76-1.18,15.68,1.74,8.75,4.63,17.51,2.42,26.4-2.52,10.13-9.06,16.21-18.63,19.25-5.55,1.76-11.39,2.21-16.85,4.26-2.84,1.07-5.55,2.36-8.18,3.79h33.67c8.66,0,15.68-7.18,15.68-16.05Z"/><path class="h" d="M95.5,27.68c-8.66,0-15.68,7.18-15.68,16.05v33c7.87-2.62,14.56-7.17,20.57-13.08,11.84-11.65,20.64-26.26,34.81-35.4,.3-.19,.59-.38,.89-.56h-40.6Z"/></g><rect class="r" x="124.35" y="218.16" width="42.44" height="9.47" rx="3.78" ry="3.78"/><g><path class="n" d="M147.98,76.05c-7.89-.97-16.14,1.51-21.69,7.76-5.65,6.35-3.3,15.18-8.02,22.29-5.73,8.64-11.07,15.26-11.42,26.4-.36,11.58,3.59,21.4,11.59,29.67,7.91,8.17,21.87,9.73,32.49,8.33,12.95-1.72,26.19-9.61,32.57-21.56,3.86-7.22,5.24-15.98,1.8-23.53-3.49-7.66-11.55-12.15-13.63-20.53-2.11-8.49-2.31-15.99-9.1-22.21-4.07-3.73-9.25-5.96-14.59-6.62Z"/><path class="j" d="M150.93,170.51c9.64-1.28,19.44-5.99,26.46-13.24-.14-1.64-.69-3.25-1.73-4.79-3.54-5.26-7.18-5.64-13.11-4.07,2.73-3.53,5.48-8.28,5.55-13.09,.08-5.25-1.42-10.75-3.53-15.36,2.84-3.33,4.76-7.5,2.16-11.48-3.99-6.1-.17-10.48-4.65-15.32-4.49-4.85-1.5-10.32-4.98-12.66-1.08-.73-1.93-1.77-2.81-2.87-2.04-.77-4.16-1.3-6.31-1.56-7.89-.97-16.14,1.51-21.69,7.76-2.78,3.13-3.62,6.86-4.33,10.68-.02,.98-.2,1.85-.48,2.64-.59,3.08-1.35,6.16-3.21,8.97-.15,.22-.29,.43-.43,.65,.1,.3,.22,.61,.39,.94,2.05,4.08-2.53,7.42-.1,11.68-2.1,4.77-4.12,10.56-4.62,13.46-.53,3.05,2.79,10.37,6.68,15.6-4.43-1.18-7.59-1.29-10.37,.86,1.94,4.66,4.82,8.95,8.63,12.89,7.91,8.17,21.87,9.73,32.49,8.33Z"/><ellipse class="o" cx="147.27" cy="173.57" rx="38.95" ry="16.85"/><path class="r" d="M132.89,149.78c-.28,.22-5.83,4.44-5.83,4.88s3.2,10.41,3.63,10.55,16.07,3.71,16.07,3.71c0,0,17.42-10.77,17.56-10.91,.14-.15-2.77-8.66-3.13-8.73-.36-.07-28.3,.51-28.3,.51Z"/><path class="t" d="M131.78,174.38c-.92-.65-2.7-.51-3.98,.73-1.28,1.24-4.76,10.04-1.71,10.99,3.06,.95,5.19-2.98,6.19-6.84s-.5-4.88-.5-4.88Z"/><path class="f" d="M142.8,178.16s-7.96,1.24-10.52,1.09c-2.56-.15-2.63-4.66-1.56-5.24,.9-.49,9.1-4.07,10.81-4.07s2.7,7.79,1.28,8.22Z"/><path class="r" d="M161.78,149.85c8.96-2.91,13.51-3.93,17.92,2.62,4.41,6.55,.28,14.41-9.1,20.23-9.38,5.82-26.87,6.11-28.3,5.97-1.42-.15-2.84-7.71-2.27-8.88,.57-1.16,11.94-6.26,15.78-8,3.84-1.75,3.27-5.82,3.27-5.82"/><path class="t" d="M158.91,174.38c.92-.65,2.7-.51,3.98,.73,1.28,1.24,4.76,10.04,1.71,10.99-3.06,.95-5.19-2.98-6.19-6.84s.5-4.88,.5-4.88Z"/><path class="f" d="M147.89,178.16s7.96,1.24,10.52,1.09c2.56-.15,2.63-4.66,1.56-5.24-.9-.49-9.1-4.07-10.81-4.07s-2.7,7.79-1.28,8.22Z"/><path class="r" d="M128.91,149.85c-8.96-2.91-13.51-3.93-17.92,2.62-4.41,6.55-.28,14.41,9.1,20.23,9.38,5.82,26.87,6.11,28.3,5.97,1.42-.15,2.84-7.71,2.27-8.88-.57-1.16-11.94-6.26-15.78-8-3.84-1.75-3.27-5.82-3.27-5.82"/><path class="t" d="M148.84,72.36c-13.96-.28-15.78,5.32-17.78,9.85-1.99,4.53-6.15,3.6-5.15,10.79,1,7.19-6.48,9.07-3.66,14.7,2.82,5.63-6.98,9.85,6.48,17.04,13.46,7.19,30.74,2.97,35.06-.31,4.32-3.28,10.97-9.85,6.98-15.95-3.99-6.1-.17-10.48-4.65-15.32-4.49-4.85-1.5-10.32-4.98-12.66-3.49-2.35-4.49-7.97-12.29-8.13Z"/><path class="c" d="M144.55,104.89c-11.4,.39-14.79,3.93-18.34,7.28-2.55,2.41-7.82,15.72-8.67,20.67-.85,4.95,8.39,21.1,13.79,21.39h29.86s10.81-9.31,10.95-18.92c.14-9.6-4.98-20.08-9.53-24.3-4.55-4.22-13.79-6.26-18.06-6.11Z"/><path class="t" d="M126.31,135.21l2.57,20.25c.12,.97,.93,1.7,1.88,1.7h31.26c.98,0,1.8-.78,1.89-1.8l1.68-20.82c.09-1.15-.8-2.14-1.91-2.12l-35.51,.57c-1.13,.02-1.99,1.05-1.85,2.21Z"/><path class="q" d="M127.23,102.34c.77-1.01,1.23-2.24,1.22-3.53,0-.28-.02-.56-.07-.83-.04-.22-.08-.6-.26-.74-.15-.11-.51-.04-.33,.17,0,0,.01,0,.02,0-.01,.06-.03,.14-.03,.15,0,.12,.02,.25,.02,.37,.01,.29,.01,.59-.01,.88-.05,.56-.18,1.12-.4,1.63-.43,1.02-1.25,1.71-1.85,2.61-.29,.43-.5,.91-.56,1.44-.06,.55,.09,1.09,.23,1.62,.15,.58,.2,1.05,.01,1.63-.14,.45-.4,1.12,0,1.5,.07,.07,.17,.06,.24,0,.23-.18,.33-.5,.44-.76,.13-.32,.26-.64,.33-.99,.12-.65-.05-1.26-.21-1.88-.17-.66-.21-1.24,.14-1.85,.29-.52,.7-.96,1.06-1.43Z"/><path class="q" d="M131.9,101.08c0-.13-.05-1.63-.42-1.4-.18,.11-.1,.39-.09,.57,0,.16,.06,.32,.05,.47,0,.17-.05,.35-.09,.52-.15,.7-.47,1.28-.83,1.88-.32,.54-.6,1.11-.57,1.76,.02,.35,.11,.7,.15,1.05,.04,.31,.02,.62,.07,.92,.02,.12,.17,.17,.26,.11,.6-.38,.33-1.26,.25-1.82-.1-.8,.28-1.38,.66-2.05,.35-.61,.57-1.28,.56-2Z"/><path class="q" d="M167.59,110.41c-.18-.72-.15-1.43-.04-2.16,.1-.74,.22-1.5,0-2.23-.17-.58-.5-1.09-.86-1.57-.38-.5-.81-.95-1.18-1.46-.38-.54-.66-1.14-.82-1.79-.34-1.33-.12-2.64,.25-3.93,.05-.2-.19-.27-.3-.13-.17,.23-.29,.39-.4,.65-.1,.24-.18,.48-.24,.73-.13,.53-.18,1.07-.16,1.61,.03,1.05,.32,2.09,.85,2.98,.53,.9,1.36,1.62,1.81,2.58,.53,1.15,.01,2.34,0,3.54,0,.64,.11,1.3,.33,1.9,.2,.53,.47,1.18,1.06,1.34,.15,.04,.29-.07,.29-.23,.02-.64-.44-1.25-.59-1.86Z"/><path class="q" d="M162.8,105.59c-.51-.71-1.03-1.3-1.28-2.16-.24-.84-.17-1.64-.11-2.5,.02-.24-.33-.33-.44-.12-.61,1.22-.31,2.84,.32,3.98,.36,.64,.99,1.15,1.19,1.87,.11,.37,.11,.79-.02,1.15-.09,.25-.28,.66-.55,.71-.1,.02-.12,.18-.03,.22,.26,.12,.48,.17,.76,.05,.31-.14,.53-.44,.64-.76,.29-.82,0-1.77-.49-2.45Z"/><path class="q" d="M159.13,104.46c-.13-.26-.25-.56-.29-.85-.02-.13,0-.25,.01-.37,.01-.06,.02-.14,.05-.19,0-.02,.02-.02,.03-.03,.02,0,.04,0,.05,0,.06-.07,.02-.14-.05-.19-.1-.07-.24-.05-.33,.04-.28,.27-.29,.71-.24,1.07,.06,.39,.24,.72,.39,1.07,.04,.09,.08,.26,.09,.34,.01,.09,.01,.12,.01,.19,0,.03,0,.07,0,.1,0,.01,0,.03,0,.04-.02,.07,.03,.12,.1,.13,.12,.01,.24-.02,.32-.12,.09-.11,.13-.25,.13-.4,0-.29-.16-.55-.28-.8Z"/><path class="q" d="M149.27,79.86c-.02-.59-.08-1.19-.22-1.76-.04-.17-.26-.11-.27,.04-.12,1.07-.03,2.15-.5,3.14-.19,.41-.39,.77-.7,1.1-.34,.36-.73,.67-1.07,1.03-.32,.34-.58,.71-.75,1.15-.19,.48-.23,1.04-.52,1.47-.49,.74-1.47,.98-2.29,1.08-1.11,.13-2.24,.11-3.27,.61-.73,.35-1.33,.94-1.9,1.51-.55,.55-1.1,1.16-1.78,1.55-.81,.46-1.65,.31-2.5,.03-1.02-.34-2.03-.78-3.1-.4-.52,.19-.97,.5-1.4,.85-.47,.39-.98,.81-1.24,1.38-.02,.05,.01,.11,.07,.1,.53-.14,.93-.52,1.36-.86,.42-.33,.87-.66,1.37-.83,1.04-.36,2.02,.19,2.97,.55,.87,.33,1.75,.43,2.62,.05,.76-.33,1.37-.9,1.96-1.48,.59-.59,1.18-1.22,1.92-1.6,1.02-.52,2.23-.41,3.32-.58,.88-.13,1.83-.47,2.42-1.17,.68-.8,.61-1.93,1.32-2.7,.73-.8,1.69-1.42,1.99-2.54,.14-.52,.18-1.17,.17-1.71Z"/><path class="q" d="M146.2,75.05c0-.16-.25-.21-.28-.04-.16,.94-.39,1.89-.66,2.8-.24,.79-.54,1.56-1.02,2.24-.43,.61-1.01,1.13-1.69,1.42-.76,.33-1.61,.41-2.29,.91-1.14,.85-1.49,2.6-2.97,2.97-1.43,.36-2.92-.27-4.37-.04-1.7,.26-2.86,1.75-3.55,3.26-.06,.13,.09,.27,.2,.16,1.13-1.11,1.93-2.65,3.66-2.79,1.47-.11,2.96,.51,4.42,.13,.73-.19,1.29-.64,1.75-1.24,.44-.58,.79-1.3,1.4-1.73,.66-.47,1.53-.53,2.26-.87,.68-.32,1.28-.84,1.74-1.44,.56-.72,.99-1.57,1.21-2.46,.27-1.09,.25-2.15,.21-3.26Z"/><path class="q" d="M142.92,75.31c-.2,.19-.42,.34-.61,.55-.2,.21-.41,.4-.64,.58-.44,.34-.91,.64-1.31,1.04-.93,.94-1.38,2.26-2.3,3.2-.54,.55-1.28,.37-1.96,.32-.61-.04-1.22,.03-1.8,.25-.51,.19-.99,.47-1.4,.84-.38,.33-.83,.81-.82,1.36,0,.07,.07,.11,.13,.08,.5-.28,.84-.83,1.32-1.16,.48-.33,1.02-.56,1.59-.66,.69-.11,1.36,.07,2.05,.05,.64-.02,1.22-.23,1.68-.7,.91-.94,1.37-2.23,2.35-3.12,.75-.68,2.06-1.32,1.98-2.51-.01-.14-.17-.21-.27-.11Z"/><path class="q" d="M162.66,91.95c-.46,.15-1.04,.11-1.52,.09-.52-.02-1.03-.12-1.49-.37-.94-.5-1.3-1.5-2.07-2.18-.4-.35-.87-.55-1.4-.55-.6,0-1.17,.2-1.78,.11-1.07-.16-2.01-.92-2.51-1.89-.33-.64-.45-1.37-.44-2.09,0-.37,.05-.73,.13-1.09,.04-.17,.08-.34,.13-.51,0-.03,.11-.32,.12-.48,0,0,0,.01,.01,.01,.32,0,.2-.51-.16-.41-.24,.07-.36,.39-.45,.6-.16,.37-.28,.75-.35,1.14-.27,1.48,.04,3.04,1.04,4.18,.44,.51,1.01,.9,1.63,1.15,.71,.28,1.4,.27,2.15,.18,.36-.05,.72-.08,1.05,.1,.28,.15,.49,.41,.68,.66,.4,.54,.73,1.12,1.26,1.54,.58,.47,1.29,.76,2.03,.84,.37,.04,.73,.01,1.09-.09,.42-.12,.67-.34,1.01-.59,.16-.12,.07-.43-.15-.36Z"/><path class="q" d="M161.99,88.16c-.05-.07-.11-.13-.17-.19-.02-.03-.05-.03-.08-.03-.31-.26-.67-.47-1-.72-.41-.32-.78-.69-1.11-1.1-.65-.8-1.23-1.48-2.29-1.61-.51-.06-1.04-.01-1.53-.18-.45-.16-.81-.5-1.08-.88-.3-.43-.48-.92-.59-1.43-.14-.63-.23-1.31-.29-1.95,0-.07-.1-.07-.11,0-.07,.69-.16,1.32-.07,2.02,.06,.51,.19,1.02,.42,1.48,.46,.93,1.29,1.52,2.3,1.63,.57,.07,1.18,.02,1.68,.37,.43,.3,.73,.77,1.05,1.18,.65,.81,1.63,1.79,2.7,1.87,.24,.02,.31-.29,.18-.45Z"/><path class="q" d="M159.37,82.48c-.57-.54-1.24-.81-1.95-1.1-.67-.27-1.23-.66-1.52-1.35-.27-.63-.26-1.41-.06-2.06,.02-.07-.07-.09-.1-.04-.84,1.13-.38,2.8,.7,3.59,.67,.49,1.5,.65,2.16,1.16,.33,.26,.61,.58,.86,.91,.25,.33,.47,.66,.85,.84,.07,.03,.16,0,.16-.09-.02-.72-.61-1.38-1.1-1.85Z"/><path class="e" d="M131.26,119.59c-.02-.26-.41-.35-.47-.06-.22,1.16-.28,2.34-.49,3.5-.22,1.17-.56,2.28-.98,3.38-.4,1.05-.78,2.11-.85,3.25-.03,.51,0,1.06,.14,1.55,.1,.35,.34,.9,.76,.91,.05,0,.1-.03,.12-.07,.18-.35-.05-.88-.13-1.24-.1-.5-.1-1.02-.04-1.52,.14-1.08,.56-2.1,.93-3.11,.38-1.05,.65-2.12,.81-3.22,.16-1.11,.29-2.24,.21-3.36Z"/><path class="e" d="M162.94,129.02c-.14-.97-.55-1.87-.92-2.77-.38-.93-.69-1.87-.84-2.87-.09-.55-.13-1.1-.16-1.66-.03-.51-.01-1.05-.14-1.54-.05-.19-.33-.19-.38,0-.13,.5-.1,1.03-.1,1.54,0,.54,.02,1.08,.08,1.62,.11,1.05,.37,2.02,.75,3,.36,.92,.77,1.86,.89,2.85,.06,.49,0,.95-.06,1.43-.06,.39-.08,1.01,.35,1.2,.1,.04,.19,.03,.25-.07,.23-.35,.22-.94,.28-1.34,.07-.47,.07-.93,0-1.39Z"/><path class="e" d="M154.8,106.75s0-.08,0-.12c0-.22-.26-.27-.39-.11l.04,.04c-.09,0-.17,.02-.24,.07-.07,.04-.12,.11-.17,.18-.11,.15-.16,.34-.23,.51-.15,.34-.32,.67-.52,.99-.38,.63-.85,1.21-1.38,1.72-1.03,1-2.3,1.75-3.67,2.15-2.82,.84-5.85,0-8.04-1.98-1.26-1.14-2.12-2.56-2.87-4.08-.17-.35-.63-.09-.58,.25,.28,1.61,1.24,3.08,2.37,4.21,1.15,1.15,2.57,2.04,4.11,2.54,3.12,1.01,6.5,.17,8.98-1.97,.68-.59,1.27-1.27,1.77-2.03,.25-.37,.46-.77,.65-1.17,.18-.41,.4-.81,.17-1.19Z"/><path class="f" d="M135.18,95.28c-.19,0-2.69-.15-2.83,2.47s2.83,3.19,2.83,3.19c0,0,2.13,11.75,11.19,11.89,7.93,.13,10.34-11.6,10.34-11.6,0,0,2.83-.44,2.69-2.9-.14-2.47-2.55-2.76-2.55-2.76,0,0-1.28-2.18-3.83-3.19-2.55-1.02-4.11-2.03-4.68-4.06,0,0-3.4,4.35-6.23,3.48-2.83-.87-3.68,3.48-6.94,3.48Z"/><path class="i" d="M135.04,97.23c-.31-.35-.81-.67-1.29-.64-.25,.02-.37,.36-.13,.5,.12,.07,.25,.13,.37,.21,.05,.03,.11,.07,.16,.11l.04,.03s.06,.06,.09,.09c.05,.05,.1,.1,.14,.15l.02,.02h0s.05,.07,.07,.11c0,.01,.02,.03,.02,.05-.32,.07-.62,.31-.69,.64-.14,.64,.44,1.24,1.07,1.07,.48-.13,.68-.67,.66-1.13-.02-.46-.24-.88-.54-1.21Z"/><path class="i" d="M158.21,98.61c-.13-.03-.26-.02-.38,.02,0-.05,.01-.12,0-.06,0-.04,.01-.08,.02-.12,.02-.14,.05-.27,.1-.4,0-.02,.06-.13,.02-.05,.02-.03,.03-.07,.05-.1,.01-.02,.03-.05,.04-.07h0l.02-.04s.04-.04,.06-.06l.03-.02c.07-.05,.14-.1,.2-.16,.16-.14,.07-.42-.12-.48-.39-.11-.73,.24-.89,.57-.16,.34-.24,.71-.28,1.08-.05,.44,.09,.94,.5,1.15,.23,.12,.5,.12,.72-.03,.21-.14,.38-.37,.37-.64-.01-.29-.21-.54-.49-.6Z"/><path class="q" d="M163.05,95.34c-.67,0-1.34,.04-2,.16-.66,.12-1.3,.21-1.97,.16-.56-.04-1.14-.19-1.64-.46-.54-.29-.94-.73-1.3-1.22-.36-.48-.7-.99-1.16-1.39-.41-.35-.87-.62-1.36-.83-.96-.42-2.03-.62-2.96-1.1-.58-.3-1.08-.69-1.41-1.26-.17-.3-.29-.62-.36-.96,0-.02,0-.05-.01-.07,.23-.42,.39-.87,.39-1.38,0-.23-.29-.36-.45-.19-.53,.57-.87,1.27-1.37,1.86-.5,.6-1.1,1.12-1.76,1.54-.66,.42-1.38,.71-2.15,.87-.88,.18-1.81,.03-2.67,.28-1.32,.38-2.23,1.56-3.23,2.44-.54,.48-1.14,.82-1.87,.81-.94-.02-1.84-.39-2.78-.1-.94,.28-1.7,.9-2.7,1-.98,.1-1.97-.2-2.81-.7-.14-.09-.3,.11-.18,.24,1.28,1.29,3.22,1.41,4.79,.67,.4-.19,.79-.41,1.22-.51,.56-.12,1.13,.02,1.68,.11,.84,.13,1.6,.09,2.37-.3,1.3-.66,2.1-2.08,3.45-2.66,.86-.37,1.86-.19,2.76-.34,.8-.14,1.59-.43,2.31-.81,.83-.43,1.58-1.03,2.2-1.74,.11-.13,.22-.26,.33-.4,.02,.07,.04,.14,.06,.2,.19,.58,.51,1.12,.96,1.53,.88,.81,1.98,1.15,3.07,1.54,.55,.2,1.09,.42,1.58,.75,.52,.36,.88,.88,1.25,1.38,.81,1.1,1.79,1.87,3.15,2.1,1.62,.28,3.28-.04,4.66-.96,.12-.08,.08-.28-.07-.28Z"/><path class="t" d="M143.35,95.86c-.17-.22-.49-.36-.75-.45-.26-.09-.54-.13-.81-.12-.28,.01-.55,.07-.81,.18-.27,.11-.57,.29-.67,.58-.08,.22,.15,.39,.35,.35,.11-.02,.22-.1,.32-.15,.05-.03,.1-.05,.15-.08h.02s.05-.03,.08-.04c.1-.03,.2-.06,.31-.08h.03s.05,0,.07,0c.06,0,.12,0,.18,0,.05,0,.11,0,.16,0h.09c.1,.04,.2,.07,.31,.1h.02s0,0,0,0c.03,.01,.05,.03,.08,.04,.05,.02,.09,.05,.14,.08,.02,.01,.14,.1,.08,.05,.04,.03,.07,.06,.11,.09-.07-.05,.07,.05,.09,.06,.17,.1,.39,.05,.51-.1,.13-.17,.09-.37-.03-.53Z"/><path class="t" d="M152.08,95.86c-.17-.22-.49-.36-.75-.45-.26-.09-.54-.13-.81-.12-.28,.01-.55,.07-.81,.18-.27,.11-.57,.29-.67,.58-.08,.22,.15,.39,.35,.35,.11-.02,.22-.1,.32-.15,.05-.03,.1-.05,.15-.08h.02s.05-.03,.08-.04c.1-.03,.2-.06,.31-.08h.03s.05,0,.07,0c.06,0,.12,0,.18,0,.05,0,.11,0,.16,0h.09c.1,.04,.2,.07,.31,.1h.02s0,0,0,0c.03,.01,.05,.03,.08,.04,.05,.02,.09,.05,.14,.08,.02,.01,.14,.1,.08,.05,.04,.03,.07,.06,.11,.09-.07-.05,.07,.05,.09,.06,.17,.1,.39,.05,.51-.1,.13-.17,.09-.37-.03-.53Z"/><path class="t" d="M142.76,99.41c0-.12-.02-.23-.07-.33-.03-.11-.09-.2-.17-.28-.08-.08-.17-.14-.27-.18-.1-.05-.21-.08-.32-.07l-.22,.03c-.14,.04-.27,.12-.37,.22l-.13,.17c-.08,.13-.11,.28-.12,.44,0,.15,0,.3-.01,.45,0,.08,0,.15,0,.22,.01,.14,0,.3,.05,.43l.08,.2c.05,.1,.12,.18,.21,.24,.05,.05,.11,.09,.18,.11,.1,.05,.21,.08,.32,.07l.22-.03,.2-.09c.1-.05,.17-.13,.23-.22,.07-.08,.12-.18,.15-.29,.04-.13,.04-.29,.05-.43,0-.08,0-.15,0-.22,0-.15,0-.3-.01-.45Z"/><path class="t" d="M151.23,99.41c0-.12-.02-.23-.07-.33-.03-.11-.09-.2-.17-.28-.08-.08-.17-.14-.27-.18-.1-.05-.21-.08-.32-.07l-.22,.03c-.14,.04-.27,.12-.37,.22l-.13,.17c-.08,.13-.11,.28-.12,.44v.45c-.01,.08-.01,.15,0,.22,.01,.14,0,.3,.05,.43l.08,.2c.05,.1,.12,.18,.21,.24,.05,.05,.11,.09,.18,.11,.1,.05,.21,.08,.32,.07l.22-.03,.2-.09c.1-.05,.17-.13,.23-.22,.07-.08,.12-.18,.15-.29,.04-.13,.04-.29,.05-.43,0-.08,0-.15,0-.22,0-.15,0-.3-.01-.45Z"/><g><path class="i" d="M146.14,103.16s0,0,0,0h0Z"/><path class="i" d="M147.39,102.93c-.03-.08-.08-.12-.16-.12h-.03s-.06,0-.06,0c-.06,0-.12,.02-.17,.04-.12,.04-.23,.1-.34,.15-.05,.02-.09,.04-.14,.07-.02,.01-.05,.02-.07,.03h0s-.09,.03-.14,.05c-.03,0-.05,.01-.08,.02,0,0-.03,0-.04,0h.03c-.05,0-.1,0-.15,0-.02,0-.05,0-.07,0h-.03c-.1-.02-.19-.05-.28-.08-.02,0-.08-.03-.09-.04-.03,0-.05-.02-.08-.02-.04-.01-.1-.03-.12-.04-.04-.02-.12-.06-.19-.07-.04,0-.07,0-.11,0-.08-.01-.16,.03-.16,.13,0,.14,.01,.26,.1,.37,.09,.13,.19,.26,.33,.33,.26,.14,.56,.22,.85,.22,.28,0,.61-.07,.84-.24,.15-.11,.27-.21,.34-.38,.06-.14,.09-.27,.03-.42Z"/></g><path class="c" d="M147.74,106.38c-.16-.27-.41-.38-.7-.41-.29-.03-.57,.06-.85,.12-.15,.01-.3,.02-.44,0-.1-.02-.19-.03-.29-.03-.06,0-.12,0-.18-.01-.08-.02-.16-.03-.23-.03-.1,0-.2,.02-.29,.05-.23,.07-.48,.33-.45,.6,.03,.25,.08,.45,.27,.64,.11,.12,.25,.22,.37,.32,.29,.22,.63,.26,.98,.3,.67,.08,1.45-.09,1.81-.72,.15-.25,.15-.58,0-.84Z"/><path class="u" d="M140.36,102.14c-.19-.32-.52-.52-.87-.62-.55-.15-1.16-.06-1.69,.15-.21,.09-.38,.18-.53,.37-.21,.27-.25,.67-.06,.97,.5,.82,2.34,1.13,3.02,.39,.31-.35,.36-.86,.13-1.26Z"/><path class="u" d="M154.89,102.14c-.19-.32-.52-.52-.87-.62-.55-.15-1.16-.06-1.69,.15-.21,.09-.38,.18-.53,.37-.21,.27-.25,.67-.06,.97,.5,.82,2.34,1.13,3.02,.39,.31-.35,.36-.86,.13-1.26Z"/><path class="l" d="M165.94,157.03c-.64,.34-1.11,.85-1.63,1.34-.52,.49-1.05,.97-1.59,1.44-1.08,.94-2.21,1.82-3.38,2.63-2.32,1.61-4.83,2.95-7.49,3.89-.73,.26-1.47,.5-2.22,.7-.39,.11-.79,.21-1.19,.3-.38,.09-.77,.15-1.12,.32-.07,.03-.1,.11-.1,.19-.76-.32-1.51-.65-2.26-1-2.58-1.21-5.07-2.59-7.58-3.95-1.36-.74-2.7-1.45-3.88-2.46-.6-.51-1.17-1.06-1.75-1.6-.51-.48-1.06-1.17-1.72-1.43-.17-.07-.28,.18-.17,.3,.2,.22,.35,.48,.56,.69,.24,.25,.49,.5,.74,.74,.47,.47,.93,.94,1.4,1.4,.93,.91,1.94,1.67,3.06,2.33,2.27,1.34,4.57,2.63,6.91,3.83,1.2,.61,2.4,1.19,3.63,1.73,.6,.26,1.2,.52,1.81,.76,.53,.21,1.09,.38,1.59,.65,.47,.26,.78,.61,.83,1.17,.05,.62-.06,1.27-.15,1.88-.18,1.25-.4,2.59-.87,3.76-.23,.58-.59,1.01-1.19,1.18-.71,.19-1.48,.21-2.21,.25-.75,.04-1.51,.05-2.26,.04-.78-.02-1.56-.08-2.34,.03-.33,.05-.25,.52,0,.61,.67,.26,1.41,.3,2.12,.34,.73,.04,1.46,.03,2.19,0,.74-.03,1.48-.09,2.21-.19,.6-.09,1.17-.27,1.62-.69,.89-.84,1.13-2.31,1.37-3.46,.15-.71,.26-1.43,.35-2.15,.08-.64,.17-1.3,.05-1.95-.22-1.28-1.38-1.73-2.44-2.13-.32-.12-.64-.26-.95-.38,.53,0,1.09-.14,1.59-.23,.69-.12,1.37-.3,2.04-.49,1.38-.4,2.73-.95,4.02-1.59,2.62-1.29,5.05-2.96,7.3-4.84,.64-.54,1.27-1.09,1.88-1.66,.61-.57,1.24-1.11,1.62-1.86,.14-.28-.14-.57-.42-.43Z"/><path class="q" d="M130.22,134.78c0-.09-.09-.13-.16-.1-.21-.12-.44-.1-.68-.11-.26,0-.51,.04-.74,.18-.44,.27-.68,.76-.75,1.27-.07,.55,.04,1.1,.11,1.64,.04,.29,.06,.6,.12,.89,.05,.27,.15,.57,.41,.7,.09,.04,.17,.03,.25-.03,.39-.32,.21-1.03,.16-1.47-.06-.5-.15-1.01-.13-1.51,.01-.27,.13-.65,.41-.71,.22-.05,.45,.03,.67-.04,.14-.05,.24-.12,.31-.26,.08-.16,.03-.29,.02-.46Z"/><path class="q" d="M136.61,134.92c-.08-.06-.15-.06-.24-.11-.09-.04-.15-.11-.26-.14-.25-.07-.51-.02-.76,0-.49,.03-.98,.05-1.47,.05-.49,0-.98,0-1.47-.03-.44-.02-1.04-.13-1.43,.13-.14,.09-.18,.3-.05,.42,.34,.33,.93,.33,1.38,.36,.51,.03,1.01,.05,1.52,.05,.51,0,1.01-.01,1.52-.04,.49-.03,.94-.08,1.29-.47,.06-.07,.04-.16-.03-.22Z"/><path class="q" d="M139.51,135.06s-.04-.03-.06-.04c-.02-.02-.05-.04-.08-.05-.05-.05-.09-.09-.17-.12-.05-.02-.1-.03-.14-.04-.12-.02-.26-.03-.39-.02-.12,.01-.25,.02-.36,.05-.06,.01-.11,.03-.16,.05-.04,.02-.07,.03-.1,.05-.03,.02-.05,.04-.06,.07,.02-.02,.02-.03,0,0-.07,.06-.07,.21,0,.27,.02,.02,.02,.02,0,0l.04,.05s.06,.04,.09,.06c.06,.03,.12,.05,.18,.06,.12,.03,.25,.04,.38,.05,.11,.01,.23,0,.34-.01,.06,0,.12-.02,.18-.04,.08-.02,.13-.07,.18-.12,.03-.01,.06-.03,.08-.05,.02-.01,.04-.02,.06-.04,.04-.05,.04-.11,0-.16Z"/><path class="r" d="M189.48,89.14h-10.01c-2.46,0-4.48,2.06-4.48,4.58v10.24c0,.75,.18,1.45,.49,2.07-.17,.3-.32,.61-.46,.91-.29,.63-.54,1.29-.73,1.96-.08,.29,.03,.63,.27,.81,.26,.2,.55,.2,.84,.06,.92-.43,1.81-.93,2.67-1.47,.44,.15,.9,.23,1.39,.23h10.01c2.46,0,4.48-2.06,4.48-4.58v-10.24c0-2.52-2.01-4.58-4.48-4.58Z"/><path class="g" d="M116.25,109.16c-.04-.12-.06-.23-.08-.35-.03-.23-.08-.4-.17-.61-.1-.25-.2-.49-.3-.74-.2-.48-.39-.95-.59-1.43-.05-.13-.1-.25-.15-.38,.2-.52,.32-1.09,.32-1.68v-10.24c0-2.52-2.02-4.58-4.48-4.58h-10.01c-2.46,0-4.48,2.06-4.48,4.58v10.24c0,2.52,2.02,4.58,4.48,4.58h10.01c.64,0,1.26-.14,1.81-.4,.03,.05,.06,.1,.1,.14,.11,.11,.23,.21,.35,.31,.24,.2,.48,.38,.74,.55,.53,.34,1.1,.55,1.68,.79,.44,.18,.89-.35,.76-.78Z"/><path class="c" d="M189.25,93.87h-.98c-1.36-.03-2.72,0-4.08,0h-4.4c-1.41,0-1.41,1.6,0,1.6h4.4c1.35,0,2.72,.03,4.08,0h.98c1.41,0,1.41-1.6,0-1.6Z"/><path class="c" d="M189.25,98.22h-.98c-1.36-.03-2.72,0-4.08,0h-4.4c-1.41,0-1.41,1.6,0,1.6h4.4c1.35,0,2.72,.03,4.08,0h.98c1.41,0,1.41-1.6,0-1.6Z"/><path class="c" d="M189.25,102.58h-.98c-1.36-.03-2.72,0-4.08,0h-4.4c-1.41,0-1.41,1.6,0,1.6h4.4c1.35,0,2.72,.03,4.08,0h.98c1.41,0,1.41-1.6,0-1.6Z"/><path class="c" d="M110.76,93.87h-.98c-1.36-.03-2.72,0-4.08,0h-4.4c-1.41,0-1.41,1.6,0,1.6h4.4c1.35,0,2.72,.03,4.08,0h.98c1.41,0,1.41-1.6,0-1.6Z"/><path class="c" d="M110.76,98.22h-.98c-1.36-.03-2.72,0-4.08,0h-4.4c-1.41,0-1.41,1.6,0,1.6h4.4c1.35,0,2.72,.03,4.08,0h.98c1.41,0,1.41-1.6,0-1.6Z"/><path class="c" d="M110.76,102.58h-.98c-1.36-.03-2.72,0-4.08,0h-4.4c-1.41,0-1.41,1.6,0,1.6h4.4c1.35,0,2.72,.03,4.08,0h.98c1.41,0,1.41-1.6,0-1.6Z"/></g><text class="d" transform="translate(134.46 224.26) scale(.98 1)"><tspan x="0" y="0">S</tspan><tspan class="v" x="2.38" y="0">T</tspan><tspan x="4.67" y="0">A</tspan><tspan class="p" x="7.21" y="0">R</tspan><tspan class="k" x="9.89" y="0">T N</tspan><tspan class="s" x="16.42" y="0">O</tspan><tspan x="19.42" y="0">W</tspan></text><path class="g" d="M89.73,50.05l2.81,1.66c.53,.31,1.2-.07,1.2-.69v-3.32c0-.62-.67-1-1.2-.69l-2.81,1.66c-.52,.31-.52,1.06,0,1.37Z"/><path class="g" d="M198.49,48.68l-2.81-1.66c-.53-.31-1.2,.07-1.2,.69v3.32c0,.62,.67,1,1.2,.69l2.81-1.66c.52-.31,.52-1.06,0-1.37Z"/></g></g></svg>