<?xml version="1.0" encoding="UTF-8"?><svg xmlns="http://www.w3.org/2000/svg" viewBox="0 0 284.82 296.06"><defs><style>.c{fill:#fff;}.d{fill:#bfd3df;}.e{fill:#a4d9f1;}.f{fill:#fcecee;}.g{fill:#eb6a64;}.h{fill:#78b7e1;}.i{fill:#ddeef7;}.j{fill:#4a376b;}.k{fill:#e9627a;}.l{fill:#f08e86;}.m{fill:#2a2254;}.n{fill:#263238;}</style></defs><g id="a"><g><path class="n" d="M195.73,296.06l-100.59-.06c-12.1,0-21.9-9.82-21.9-21.92l.05-252.18C73.29,9.8,83.11,0,95.21,0l100.59,.06c12.1,0,21.9,9.82,21.9,21.92l-.05,252.18c0,12.1-9.82,21.91-21.92,21.91Z"/><path class="c" d="M195.7,8.98h-19.5c-2.62-.01-4.74,2.2-4.74,4.94v3.54c0,2.73-2.12,4.95-4.74,4.95l-38.01-.02c-2.62,0-4.74-2.22-4.73-4.95v-3.54c0-2.73-2.12-4.95-4.73-4.95h-23.93c-8.48-.02-15.35,6.85-15.35,15.33l-.05,246.15c0,8.47,6.86,15.34,15.34,15.35l100.39,.06c8.48,0,15.35-6.86,15.35-15.34l.05-246.15c0-8.47-6.86-15.34-15.34-15.35Z"/></g></g><g id="b"><g><rect class="c" x="79.82" y="22.8" width="131" height="266" rx="22.53" ry="22.53"/><g><path class="f" d="M197.23,103.89c4.59-.88,9.13-2.47,13.59-4.35v-25.12c-5.24,3.86-10.45,7.65-15.27,11.58-3.46,2.82-15.21,9.71-11.4,15.66,2.5,3.9,9.62,2.9,13.08,2.23Z"/><path class="i" d="M210.82,201.27v-14.44c-1.61,1.68-3.22,3.36-4.84,5.04-2.42,2.5-12.87,10.6-12.2,14.84,.62,3.96,8.59-.07,17.04-5.44Z"/><path class="i" d="M79.82,63.45c12.35-11.11,24.89-21.88,37.55-32.71,1.9-1.62,5.29-4.52,8.46-7.94h-30.33c-8.66,0-15.68,7.4-15.68,16.54v24.11Z"/><path class="f" d="M139.78,63.47c1.76-1.87,8.9-7.87,8.62-10.74-.9-9.18-21.64,4.64-23.96,6.02-15.88,9.45-29.21,23.81-43.89,35.12-.2,.15-.44,.34-.73,.57v17.89c12.27-9.75,24.5-19.6,36.77-29.37,7.86-6.26,16.24-12.12,23.19-19.49Z"/><path class="f" d="M210.82,267.69v-19.08c-16.6,5.74-33.23,11.35-49.64,17.72-17.71,6.87-34.51,15.94-52.31,22.46h72.47c8.52-8.85,18.64-16.09,29.47-21.1Z"/><path class="i" d="M169.98,22.8h-24.08c-3.11,4.21-4.31,7.83-1.72,9.81,3.05,2.33,11.35-.83,14.33-2.24,4.07-1.92,7.8-4.71,11.47-7.57Z"/><path class="i" d="M98.67,202.58c-3.67-.67-11.8,5.62-15.08,7.46-1.27,.71-2.52,1.45-3.76,2.21v24.75c7.6-6.94,15.21-14.05,20.19-22.82,1.97-3.46,4.26-10.57-1.35-11.6Z"/></g><path class="k" d="M96.26,43.63c0,2.11-1.62,3.83-3.63,3.83s-3.63-1.71-3.63-3.83,1.62-3.83,3.63-3.83,3.63,1.71,3.63,3.83Z"/><g><path class="e" d="M150.94,92.88c-9.35-.76-18.95,2.7-25.18,10.59-6.34,8.02-3.14,18.61-8.34,27.5-6.32,10.81-12.29,19.13-12.14,32.68,.15,14.08,5.29,25.8,15.13,35.42,9.73,9.5,26.26,10.65,38.7,8.37,15.18-2.78,30.38-13.08,37.32-27.93,4.19-8.98,5.38-19.69,.95-28.68-4.49-9.11-14.21-14.14-17.08-24.21-2.91-10.2-3.52-19.3-11.83-26.48-4.99-4.31-11.2-6.75-17.53-7.26Z"/><path class="h" d="M184.37,154.33c-1.96-7.59-4.25-11.84-7.96-16.1-1.52-1.75-12.37-5.62-14.86-6.49,.05-.16,.1-.32,.13-.48,.06-.41-.29-.73-.66-.54-.12,.06-.22,.14-.33,.21-.14-.27-.33-.63-.55-1.07-.1-.2-.2-.41-.3-.64l-.03-.07c-.1-.22-.21-.46-.32-.71l-.04-.08c-.24-.55-.5-1.16-.76-1.85-.04-.1-.08-.2-.11-.3-.09-.24-.19-.49-.28-.75-.05-.12-.09-.25-.14-.38,.28-.33,.53-.66,.77-1,10.4-3.98,11.43-15.14,10.79-22.8-.4-.39-.81-.77-1.24-1.15-4.99-4.31-11.2-6.75-17.53-7.26-8.06-.65-16.3,1.84-22.42,7.59-.13,2.16-.04,4.53,.34,7.15,1.56,10.64,6.71,13.91,9.82,14.92,1.54,2.54,3.55,4.71,6.13,5.81,0,.14-.01,.27-.02,.41h0c-.11,1.44-.41,3.07-1.07,4.61-.44-.03-.66,.41-.62,.81-9.18,2.52-13.06,5.95-16.41,10.85-.93,1.36-2.2,4.41-3.54,8.18-.58,0-1.12,0-1.58,0-1.11,0-1.91,1.12-1.6,2.25l1.08,4.05c-2.28,7.22-4.4,15.16-5.17,19.4-.2,.83-.32,1.65-.3,2.44,.11,7.01,7.2,7.63,10.47,5.98,1.12-.57,2.57-2.17,4.02-4.05-.24,5.74-.83,17.55-1.73,21.07,0,0,1.14,.6,3.17,1.43,8.81,3.16,19.15,3.2,27.6,1.65,6.93-1.27,13.86-4.11,20.02-8.23-.13-1.62-.28-3.33-.41-4.91,9.5-1.03,8.93-12.59,8.93-12.59,1.96-9.54-1.31-19.78-3.27-27.37Z"/><path class="c" d="M139.34,134.1c-9.38,2.53-13.3,5.98-16.68,10.92-3.38,4.94-11.12,31.85-11.12,36.33l14.61-1.26s-.65,19.55-1.85,24.26c0,0,25.73,13.57,51.35,1.61,0,0-1.42-17.48-1.53-17.71-.11-.23,9.48-6.55,9.48-6.55,1.96-9.54-1.31-19.78-3.27-27.37-1.96-7.59-4.25-11.84-7.96-16.1-1.72-1.98-15.37-6.67-15.37-6.67l-10.57-.46-7.09,2.99Z"/><path class="c" d="M120.7,165.6s-9.27,8.74-9.16,15.75c.11,7.01,7.2,7.63,10.47,5.98,3.26-1.65,9.38-12.07,9.81-12.88,.44-.8-11.12-8.85-11.12-8.85Z"/><path class="m" d="M147.23,154.44l3.32,22.63c.17,1.13-.72,2.13-1.8,2.03l-25.99-2.35c-.7-.06-1.28-.57-1.47-1.28l-5.35-20.01c-.3-1.12,.5-2.24,1.6-2.25,6.07-.03,22.91-.12,28-.27,.84-.02,1.57,.62,1.7,1.5Z"/><path class="l" d="M148.5,173.19s-3.71-2.3-5.23-3.91c-1.53-1.61-1.56-5.95-3.71-6.9-2.15-.95-1.09,4.83-1.09,4.83,0,0-3.92-2.53-5.67-3.68-1.74-1.15-2.4,.69-2.18,1.49,0,0-2.62,.34-1.85,2.41,0,0-.87,1.84,.11,2.99,0,0-.87,1.61,.44,2.64,1.31,1.03,5.89,3.68,9.05,4.83s6.21,3.45,7.74,3.45,2.83-4.25,2.73-4.6c-.11-.34-.33-3.56-.33-3.56Z"/><path class="l" d="M140.65,124.67s.87,5.29-1.31,9.43c0,0,8.5,6.9,17.66-2.53,0,0-2.18-3.56-4.14-10.35-1.73-5.98-12.21,3.45-12.21,3.45Z"/><path class="m" d="M137.11,122.97s-9.99,.22-12.28-15.36c-2.29-15.58,5.62-23.05,11.44-22.61,0,0,11.12-7.76,15.29-4.69,4.16,3.07,2.19,6.01,2.19,6.01,0,0,5.1-3.51,9.05,.44,3.95,3.95,1.56,6.8,1.56,6.8,0,0,7.49,26.12-11.44,31.17-15.4,4.11-15.81-1.76-15.81-1.76Z"/><path class="c" d="M148.28,170.66s24.42,9.89,35.32,11.04c0,0,.65,13.11-10.9,12.65-11.56-.46-29.65-13.34-29.65-13.34,0,0,.44-7.36,5.23-10.35Z"/><path class="g" d="M152.86,121.22c-.65-2.25-2.53-2.32-4.63-1.53l-7.41,7.37c0,.51-.01,1.09-.06,1.7,.35,.36,.72,.78,1.06,.99,1.15,.72,2.84,1.13,4.15,1.34,2.99,.49,6.4,.54,9.21-.74,.31-.14,.62-.3,.92-.48-.82-1.68-2.07-4.58-3.25-8.65Z"/><path class="l" d="M156.88,105.85s3.12-.22,3.95,3.29-2.08,4.61-3.12,5.05c0,0,.44,14.69-12.9,14.92-12.49,.22-14.98-21.51-14.98-21.51,0,0,4.79-3.95,8.32-11.41,0,0,9.57,9,18.73,9.66Z"/><path class="g" d="M160.21,109.64c-.13-.21-.3-.34-.52-.42-.36-.14-.76-.09-1.09,.1-.02-.19-.03-.38,0-.54,.08-.46,.28-.86,.38-1.3,.05-.2-.15-.36-.33-.26-.53,.28-.8,.95-1.01,1.47-.12,.28-.23,.57-.27,.88-.06,.4-.08,.78-.03,1.18,.05,.38,.16,.77,.42,1.05,.32,.35,.78,.48,1.23,.37,.81-.19,1.18-1,1.29-1.8,.03-.24,.05-.49-.09-.71Z"/><path class="j" d="M164.19,103.17c-.28,0-.54-.08-.82-.05-.3,.03-.59,.2-.87,.32-.51,.2-1.02,.41-1.54,.56-1.12,.32-2.27,.44-3.43,.44-2.34-.01-4.68-.5-6.91-1.26-2.21-.75-4.28-1.71-6.23-3.04-1.02-.69-1.99-1.46-2.91-2.29-.63-.57-1.24-1.45-2.04-1.73,.01-.4-.13-.72-.56-.85-.15-.05-.37,0-.47,.13-.39,.5-.64,1.16-.94,1.72-.37,.69-.76,1.37-1.18,2.03-.82,1.3-1.74,2.52-2.75,3.67-2.02,2.31-4.41,4.3-6.92,6-.55,.37-.07,1.2,.5,.91,3.03-1.49,5.64-3.67,7.87-6.29,1.1-1.29,2.09-2.67,2.96-4.13,.19-.33,.72-1.1,1.09-1.88,.42,.65,1.13,1.21,1.63,1.67,.93,.87,1.93,1.67,2.96,2.39,2.09,1.47,4.39,2.72,6.78,3.55,2.41,.84,4.98,1.38,7.53,1.37,1.27,0,2.57-.15,3.79-.51,.56-.16,1.11-.37,1.62-.66,.68-.39,.85-.73,1.16-1.44,.12-.27-.02-.63-.34-.62Z"/><path class="j" d="M136.18,91.94c-.33,.54-.67,1.05-.94,1.62-.27,.58-.52,1.16-.81,1.73-.57,1.11-1.24,2.16-2.01,3.13-.77,.96-1.6,1.87-2.52,2.67-.91,.8-1.99,1.48-2.74,2.44-.03,.04-.01,.12,.04,.11,.62-.04,1.1-.25,1.66-.55,.58-.31,1.1-.65,1.62-1.06,1.03-.83,2-1.75,2.83-2.79,.82-1.03,1.55-2.13,2.16-3.31,.32-.61,.61-1.24,.83-1.9,.21-.65,.25-1.3,.26-1.98,0-.22-.28-.29-.38-.11Z"/><path class="j" d="M134.63,89.33c-.56,.93-1.08,1.87-1.6,2.82-.5,.93-1.06,1.84-1.66,2.7-.61,.88-1.29,1.7-2.01,2.47-.37,.39-.72,.79-1.1,1.17-.35,.36-.71,.67-.98,1.11-.06,.1,.04,.23,.14,.2,.5-.14,.89-.46,1.31-.79,.42-.33,.84-.67,1.23-1.05,.78-.77,1.5-1.61,2.17-2.49,.66-.88,1.25-1.8,1.76-2.79,.54-1.03,.88-2.05,1.07-3.2,.03-.21-.22-.34-.33-.15Z"/><path class="j" d="M162.69,98.66c-2.15,.42-4.15,.73-6.34,.28-2.07-.42-4.13-1.05-6.15-1.71-4.01-1.31-7.99-2.87-10.93-6.18-.07-.08-.21,.03-.15,.12,2.45,4.04,6.7,6.29,10.92,7.71,2.27,.76,4.6,1.54,6.95,1.89,1.11,.17,2.23,.22,3.35,.04,1.17-.19,2-.71,2.66-1.73,.15-.23-.09-.47-.31-.43Z"/><path class="j" d="M161.55,93.91c-.42,.11-.87,.11-1.3,.23-.4,.11-.79,.21-1.2,.26-.82,.1-1.66,.06-2.48-.04-1.78-.21-3.54-.65-5.24-1.25-3.38-1.19-6.39-3.03-9.4-5.02-.07-.04-.12,.05-.08,.11,2.39,3.12,5.91,5.28,9.48,6.55,1.78,.63,3.63,1.08,5.5,1.29,.93,.11,1.87,.13,2.8-.03,1.05-.18,1.64-.54,2.32-1.37,.26-.32,.02-.84-.4-.73Z"/><path class="j" d="M131.16,117.24c-.5-1.08-1.12-2.09-1.67-3.14-.27-.52-.51-1.05-.71-1.6-.19-.51-.38-1.15-.76-1.54-.08-.08-.21-.04-.24,.07-.17,.54,0,1.24,.17,1.77,.2,.62,.43,1.23,.71,1.81,.53,1.15,1.24,2.18,2.27,2.87,.15,.1,.3-.09,.23-.24Z"/><path class="j" d="M164.08,108.84c-.02-.43-.02-.88-.24-1.26-.02-.04-.08-.04-.1,0-.18,.36-.18,.77-.23,1.17-.05,.47-.13,.93-.2,1.4-.16,.96-.39,1.91-.63,2.85-.47,1.84-1.4,3.55-1.74,5.42-.03,.18,.15,.28,.28,.17,1.46-1.26,2.09-3.42,2.52-5.28,.22-.96,.32-1.96,.37-2.95,.02-.5,.01-1.01-.02-1.51Z"/><path class="j" d="M160.71,113.98c-.03-.09-.13-.09-.17-.02-.08,.11-.15,.19-.2,.32-.04,.11-.08,.22-.13,.33-.1,.23-.16,.48-.24,.72-.08,.23-.2,.44-.27,.67-.07,.24-.14,.48-.2,.73-.04,.15,.13,.24,.24,.15,.09-.08,.19-.16,.27-.25,.08-.1,.16-.22,.24-.33,.15-.23,.24-.5,.33-.76,.09-.26,.17-.52,.2-.79,.01-.13,.02-.25,.03-.38,0-.14-.04-.26-.09-.39Z"/><path class="d" d="M156.98,130.73c-.74,.38-1.13,.96-1.77,1.48-.58,.47-1.18,.95-1.8,1.37-1.33,.91-2.81,1.55-4.36,1.87-1.6,.33-3.29,.24-4.87-.17-.78-.21-1.54-.48-2.26-.85-.72-.37-1.41-.97-2.21-1.06-.56-.06-.77,.64-.58,1.07,.35,.78,1.34,1.26,2.05,1.62,.85,.44,1.75,.8,2.67,1.05,1.82,.49,3.71,.57,5.56,.26,1.72-.29,3.39-.97,4.85-1.96,1.36-.92,3.1-2.38,3.37-4.13,.06-.41-.29-.73-.66-.54Z"/><path class="d" d="M174.16,194.07c-.33-.08-.62-.39-.94-.52-.26-.11-.52-.15-.79-.21-.7-.14-1.4-.25-2.11-.35-1.38-.18-2.75-.47-4.1-.83-2.8-.75-5.46-1.93-8.08-3.21-2.7-1.32-5.43-2.59-8.12-3.94-1.15-.57-2.3-1.15-3.41-1.8-.98-.57-1.9-1.42-2.91-1.96,.46-1.33,.71-2.74,1.21-4.06,.54-1.43,1.23-2.8,2.05-4.08,.34-.53,.78-1.49,1.45-1.53,.68-.05,1.5,.41,2.15,.63,1.62,.54,3.21,1.14,4.82,1.71,3.1,1.11,6.22,2.16,9.34,3.21,1.61,.54,3.23,1.09,4.83,1.65,1.4,.49,3.07,1.3,4.55,.79,.19-.07,.36-.35,.21-.55-.67-.91-1.68-1.33-2.7-1.67,.29-.57,.21-1.27,.24-1.99,.04-1.09,.04-2.17,.02-3.26-.04-2.24-.14-4.47-.36-6.7-.21-2.11-.44-4.23-.77-6.32-.32-2.01-.53-4.37-1.48-6.17-.08-.16-.28-.07-.3,.08-.1,1.03,.08,2.02,.21,3.04,.13,1.07,.26,2.15,.36,3.23,.21,2.1,.39,4.21,.45,6.32,.06,2.06,.1,4.12,.06,6.18-.02,1.09-.07,2.18-.11,3.26-.02,.55-.14,1.2-.08,1.77-.96-.3-1.92-.6-2.88-.91-2.8-.91-5.6-1.86-8.42-2.73-2.77-.84-5.54-1.65-8.29-2.55-1.04-.34-2.14-.77-3.1,0-.81,.65-1.4,1.77-1.91,2.68-.69,1.21-1.28,2.49-1.73,3.82-.46,1.34-.93,2.81-.87,4.25,0,.03,.01,.05,.02,.08-.04,.13-.03,.28,.04,.4,.63,1.06,1.98,1.81,2.98,2.43,1.18,.73,2.41,1.37,3.63,2.01,2.81,1.46,5.57,3,8.38,4.48,2.64,1.39,5.31,2.6,8.18,3.38,1.41,.38,2.84,.66,4.29,.86,.74,.1,1.46,.13,2.2,.09,.33-.02,.64-.05,.96-.17,.29-.11,.53-.35,.83-.41,.2-.04,.19-.37,0-.42Z"/><path class="d" d="M128.6,177.5c-.38,.35-.59,.84-.85,1.28-.24,.41-.49,.81-.75,1.21-.26,.4-.51,.8-.78,1.19-.31,.47-.71,.89-.65,1.51,.04,.36,.28,.55,.61,.49,.6-.1,.91-.67,1.24-1.15,.28-.4,.55-.81,.81-1.22,.26-.42,.5-.84,.74-1.27,.25-.45,.55-.9,.64-1.42,.11-.63-.54-1.06-1.01-.62Z"/><path class="d" d="M119.45,171.8c-.62-.07-1.15,.25-1.69,.55-.55,.31-1.04,.79-1.5,1.23-.45,.44-.86,.9-1.24,1.41-.2,.26-.39,.53-.54,.83-.09,.16-.15,.34-.18,.53-.03,.18,.03,.34,.06,.48,.03,.14,.18,.21,.3,.18-.07-.02-.07-.02,0,0,.06,.01,.12,.01,.17,0,.07-.02,.14-.06,.2-.1,.14-.09,.27-.19,.38-.32,.2-.22,.38-.46,.57-.69,.37-.47,.77-.92,1.18-1.35,.41-.43,.88-.8,1.29-1.23,.4-.42,.84-.78,1.08-1.33,.04-.09,0-.17-.1-.18Z"/><path class="j" d="M120.3,156.23c-.05-.2-.15-.37-.29-.52l-.23-.18c-.17-.11-.36-.16-.57-.16-.15,0-.3,.03-.43,.1-.14,.05-.26,.13-.36,.24-.11,.11-.19,.23-.23,.38-.07,.14-.1,.29-.1,.45l.04,.31c.05,.2,.15,.37,.29,.52l.23,.18c.17,.11,.36,.16,.57,.16,.15,0,.3-.03,.43-.1,.14-.05,.26-.13,.36-.24,.11-.11,.19-.23,.23-.38,.07-.14,.1-.29,.1-.45l-.04-.31Z"/><path class="g" d="M137.58,168.83c-.4-.49-1.04-.71-1.59-.96-.6-.28-1.18-.59-1.76-.9-.56-.31-1.11-.64-1.64-1.01-.54-.37-1.04-.8-1.61-1.13-.13-.07-.31,.08-.22,.23,.38,.56,.87,.99,1.37,1.43,.53,.46,1.08,.89,1.65,1.28,.56,.39,1.15,.72,1.75,1.03,.59,.3,1.26,.61,1.93,.5,.21-.04,.23-.32,.12-.46Z"/><path class="g" d="M136.36,171.59c-.24-.22-.45-.4-.74-.53-.32-.15-.66-.24-.99-.37-.6-.25-1.19-.53-1.76-.85-.56-.33-1.08-.71-1.61-1.09-.55-.39-1.03-.88-1.58-1.26-.21-.15-.43,.13-.33,.34,.31,.63,.83,1.16,1.3,1.65,.5,.51,1.09,.94,1.68,1.32,.59,.38,1.2,.71,1.84,.98,.32,.13,.67,.28,1.01,.36,.37,.08,.69,.04,1.04-.06,.19-.05,.27-.33,.12-.48Z"/><path class="g" d="M135.34,174.2c-1.01-.58-2.11-.95-3.12-1.53-.49-.28-.97-.61-1.44-.93-.47-.32-.88-.73-1.42-.93-.03-.01-.07,.03-.06,.06,.16,.59,.6,1,1.01,1.41,.45,.44,.95,.81,1.48,1.15,1.05,.66,2.2,1.2,3.45,1.12,.17-.01,.26-.26,.09-.36Z"/><g><path class="m" d="M135.5,108.17s.03,0,.04,0c-.01,0-.02,0-.03,0h-.01Z"/><path class="m" d="M137.41,107.5c-.16-.14-.32-.26-.51-.35-.38-.18-.8-.26-1.21-.22-.41,.04-.81,.15-1.16,.37-.17,.11-.33,.24-.46,.39-.16,.18-.26,.38-.33,.63-.12,.47,.45,.84,.78,.48,.02-.03,.05-.05,.07-.08,.05-.05,.06-.06,0,0,.09-.07,.15-.14,.23-.22,0,0,.04-.04,.06-.06h.02c.06-.05,.12-.09,.18-.13,0,0,.07-.03,.08-.04h0c.07-.03,.13-.05,.2-.07,.03,0,.07-.02,.1-.02h0s-.01,0-.02,0c0,0,.02,0,.03,0,.03,0,.04,0,.03,0,.06,0,.12-.01,.17-.01,.07,0,.14,0,.21,0h0s.06,.01,.08,.02c.07,.02,.14,.03,.2,.06,.03,0,.05,.02,.08,.03h0c.06,.03,.13,.06,.19,.1,.03,.02,.06,.04,.09,.06h.02c.15,.16,.33,.24,.53,.29,.3,.08,.59-.15,.59-.48,0-.3-.08-.56-.3-.75Z"/></g><g><path class="m" d="M148.1,106.65c-.45-.25-.96-.4-1.47-.39-.5,.01-1.01,.15-1.42,.45-.21,.16-.41,.33-.57,.54-.08,.11-.18,.24-.22,.38-.04,.14-.01,.29,.02,.43,.03,.15,.19,.27,.33,.26,.09,0,.19,0,.28-.03,.11-.03,.19-.11,.28-.17,.07-.05,.15-.09,.22-.14,.04-.02,.08-.05,.13-.07,0,0,.04-.02,.06-.03l.08-.03s.09-.03,.14-.04c.08-.03,.17-.05,.25-.07l.08-.02h.06c.1-.01,.19-.02,.29,0h.03s.08,.01,.09,.02c.08,.02,.16,.04,.24,.07,.03,.01,.07,.02,.1,.04h0c.08,.05,.17,.1,.24,.15,.03,.02,.06,.04,.09,.06h0s.08,.07,.13,.11c0,0,.02,.01,.03,.03h0l.04,.04c.07,.07,.13,.14,.2,.21,.13,.14,.27,.21,.44,.27,.42,.15,.82-.24,.83-.67,.03-.6-.55-1.13-1.02-1.4Z"/><path class="m" d="M147.57,108.17h-.02l.05,.03h0l-.03-.03Z"/></g><path class="m" d="M137.65,113.41c-.02-.15-.03-.3-.07-.44l-.09-.34c-.06-.23-.12-.47-.18-.7-.03-.14-.09-.26-.18-.36-.07-.12-.17-.21-.28-.28l-.24-.11c-.13-.04-.27-.05-.4-.02-.09,0-.18,.02-.26,.07-.13,.04-.23,.12-.33,.22l-.16,.22c-.09,.17-.14,.35-.14,.54l.15,1.3c0,.1,0,.19,.03,.29v.03c.04,.14,.1,.25,.18,.36,.07,.11,.16,.2,.28,.27l.24,.11c.13,.04,.26,.05,.4,.02,.04,0,.08-.02,.11-.03,.06,0,.12,0,.19-.03,.17-.05,.31-.14,.43-.27,.13-.16,.22-.29,.27-.5,.04-.17,.04-.22,.03-.34Z"/><path class="m" d="M147.75,113.25c-.02-.15-.03-.3-.07-.44-.03-.11-.06-.23-.09-.34-.06-.23-.12-.47-.18-.7-.03-.14-.09-.26-.18-.36-.07-.12-.17-.21-.28-.28l-.24-.11c-.13-.04-.27-.05-.4-.02-.09,0-.18,.02-.26,.07-.13,.04-.23,.12-.33,.22l-.16,.22c-.09,.17-.14,.35-.14,.54l.15,1.3c0,.1,0,.19,.03,.29v.03c.04,.14,.1,.26,.18,.36,.07,.11,.16,.2,.28,.27l.24,.11c.13,.04,.26,.05,.4,.02,.04,0,.08-.02,.11-.03,.06,0,.12,0,.19-.03,.17-.05,.31-.14,.43-.27,.13-.16,.22-.29,.27-.5,.04-.17,.04-.22,.03-.34Z"/><path class="g" d="M143.05,116.32c-.06-.14-.2-.15-.32-.13-.12,.02-.23,.04-.34,.11-.09,.05-.21,.12-.27,.15-.06,.03-.17,.06-.25,.09-.05,.02-.1,.03-.15,.05-.01,0-.08,.02-.1,.02-.09,.01-.19,.01-.28,0h-.02s-.05-.02-.08-.02c-.05-.01-.09-.03-.14-.05h-.02s-.04-.03-.06-.04c-.03-.02-.07-.05-.09-.06-.1-.08-.19-.1-.29-.15-.11-.05-.2,.01-.22,.13-.03,.23,.05,.4,.21,.54,.15,.13,.33,.23,.52,.29,.43,.14,.87,.07,1.27-.13,.21-.11,.44-.24,.56-.46,.06-.11,.11-.22,.06-.34Z"/><g><polygon class="c" points="141.08 120.37 141.09 120.37 141.08 120.37 141.08 120.37 141.08 120.37"/><path class="c" d="M143.36,119.78c-.37,0-.7,.2-1.03,.35l.22-.1c-.11,.05-.23,.1-.34,.15-.12,.05-.23,.09-.35,.13-.06,.02-.12,.04-.19,.06-.02,0-.05,.01-.07,.02-.06,0-.11,0-.17,0-.03,0-.06,0-.09,0h-.02c-.08-.01-.15-.01-.23-.01,0,0,.02,0,.02,0h-.03c-.07,0-.03,0,0,0-.03,0-.07-.02-.07-.02-.31-.08-.65,.23-.54,.57,.11,.33,.29,.61,.59,.78,.29,.16,.59,.25,.91,.29,.82,.12,1.91-.18,2.2-1.1,.18-.56-.29-1.12-.82-1.13Z"/></g><path class="k" d="M117.83,145.95c-.07-.74-.15-1.48-.28-2.22-.11-.64-.24-1.28-.38-1.91l-.03-.12c.12-.47,.19-.97,.19-1.48v-13.11c0-3.12-2.42-5.68-5.39-5.68h-12.43c-2.96,0-5.39,2.56-5.39,5.68v13.11c0,3.12,2.42,5.68,5.39,5.68h12.28c.14,.14,.31,.26,.46,.38,.35,.28,.71,.54,1.07,.8,.36,.26,.74,.5,1.1,.74,.19,.13,.39,.26,.58,.39,.08,.05,.15,.11,.23,.16l.09,.06s.07,.09,.1,.14c.26,.31,.64,.5,1.03,.5,.53,0,.89-.29,1.19-.72,.45-.64,.24-1.66,.17-2.4Z"/><path class="c" d="M112.12,129.69c-.53-2.22-2.63-3.53-4.72-2.83-1.09,.36-1.99,1.16-2.66,2.14-.66-1.14-2.31-1.71-3.46-1.53-1.89,.3-3.05,2.15-2.78,4.1,.26,1.9,1.31,3.73,2.39,5.24,1.17,1.63,2.52,3.01,4.1,4.21,.33,.25,.96,.26,1.29,0,1.73-1.37,3.06-3.11,4.19-5.05,1.08-1.87,2.2-4.01,1.66-6.27Z"/></g><path class="c" d="M90.87,44.31l1.99,1.21c.53,.32,1.21-.06,1.21-.68v-2.42c0-.62-.68-1-1.21-.68l-1.99,1.21c-.51,.31-.51,1.05,0,1.36Z"/><ellipse class="k" cx="150.78" cy="214.62" rx="5.88" ry="6.2"/><path class="c" d="M152.11,217.1l1.46-2.68c.56-1.02-.18-2.26-1.34-2.26h-2.93c-1.16,0-1.89,1.24-1.34,2.26l1.46,2.68c.58,1.06,2.1,1.06,2.67,0Z"/></g></g></svg>