<svg id="Group_2330" data-name="Group 2330" xmlns="http://www.w3.org/2000/svg" width="133.97" height="134.003" viewBox="0 0 133.97 134.003">
  <path id="Path_9499" data-name="Path 9499" d="M103.6,74.3H88.735c.147-.736.441-1.472.589-2.06a10.307,10.307,0,0,0,.147-6.328,10.942,10.942,0,0,0-7.947-7.8,11.266,11.266,0,0,0-9.418,2.06,10.667,10.667,0,0,0-4.12,8.535,8.634,8.634,0,0,0,.589,3.385,12.26,12.26,0,0,1,.589,2.207H56.949V58.111a2.905,2.905,0,0,0-.883-2.06,2.815,2.815,0,0,0-2.207-.589,42.839,42.839,0,0,0-5.886,1.472,5.451,5.451,0,0,1-6.181-1.913A5.81,5.81,0,0,1,44.735,45.9a6.019,6.019,0,0,1,3.237,0,45.383,45.383,0,0,0,6.034,1.472,2.637,2.637,0,0,0,2.06-.589,2.469,2.469,0,0,0,.883-2.06V27.649A2.638,2.638,0,0,0,54.3,25H5.149A2.638,2.638,0,0,0,2.5,27.649V126.1a2.638,2.638,0,0,0,2.649,2.649H103.6a2.638,2.638,0,0,0,2.649-2.649V76.947A2.638,2.638,0,0,0,103.6,74.3Zm-51.8-44V41.923c-.736-.147-1.472-.441-2.06-.589a10.307,10.307,0,0,0-6.328-.147,10.928,10.928,0,0,0-5.739,17.365,10.785,10.785,0,0,0,11.92,3.532A9.683,9.683,0,0,1,51.8,61.5v12.95H36.2a2.905,2.905,0,0,0-2.06.883,2.815,2.815,0,0,0-.589,2.207,49.051,49.051,0,0,0,1.472,5.886,7.386,7.386,0,0,1,.294,1.766A5.244,5.244,0,0,1,33.109,89.6a5.417,5.417,0,0,1-5,1.03,5.89,5.89,0,0,1-4.12-3.973,5.342,5.342,0,0,1,.147-3.385A57.29,57.29,0,0,0,25.6,77.389a2.637,2.637,0,0,0-.589-2.06,2.469,2.469,0,0,0-2.06-.883H7.8V30.3ZM7.8,79.449H20.012c-.147.736-.441,1.472-.589,2.06a10.307,10.307,0,0,0-.147,6.328,10.942,10.942,0,0,0,7.947,7.8,16.218,16.218,0,0,0,2.649.294,11.111,11.111,0,0,0,6.769-2.355,10.667,10.667,0,0,0,4.12-8.535,8.634,8.634,0,0,0-.589-3.385,12.259,12.259,0,0,1-.589-2.207H51.8V94.9a2.905,2.905,0,0,0,.883,2.06,2.815,2.815,0,0,0,2.207.589,42.847,42.847,0,0,0,5.886-1.472,5.593,5.593,0,0,1,6.181,1.913,5.81,5.81,0,0,1-2.943,9.124,5.342,5.342,0,0,1-3.385-.147c-1.913-.589-3.826-1.03-5.886-1.472a2.637,2.637,0,0,0-2.06.589,2.469,2.469,0,0,0-.883,2.06V123.6H7.8ZM100.949,123.6h-44V111.382c.736.147,1.472.441,2.06.589a10.307,10.307,0,0,0,6.328.147,10.942,10.942,0,0,0,7.8-7.947,11.266,11.266,0,0,0-2.06-9.418,10.667,10.667,0,0,0-8.535-4.12,8.634,8.634,0,0,0-3.385.589,12.256,12.256,0,0,1-2.207.589V79.449H72.4a2.905,2.905,0,0,0,2.06-.883,2.815,2.815,0,0,0,.589-2.207,42.844,42.844,0,0,0-1.472-5.886,7.387,7.387,0,0,1-.294-1.766,5.244,5.244,0,0,1,2.207-4.415,5.81,5.81,0,0,1,9.124,2.943,5.342,5.342,0,0,1-.147,3.385A57.287,57.287,0,0,0,83,76.506a2.637,2.637,0,0,0,.589,2.06,2.469,2.469,0,0,0,2.06.883H101.1V123.6Z" transform="translate(-2.5 5.256)" fill="#453d5d"/>
  <path id="Path_9500" data-name="Path 9500" d="M121.355,18.655a2.279,2.279,0,0,0-1.619-1.177L72.2,4.528a2.179,2.179,0,0,0-1.913.294,2.279,2.279,0,0,0-1.177,1.619L65.14,20.863c-.589-.441-1.324-.736-1.913-1.177A10.27,10.27,0,0,0,57.34,17.92,10.825,10.825,0,0,0,47.187,33.077,10.84,10.84,0,0,0,54.4,39.258a8.83,8.83,0,0,0,3.385.294h2.207L56.163,53.974a2.667,2.667,0,0,0,1.766,3.238L75.294,61.92a2.9,2.9,0,0,0,2.207-.441,3.271,3.271,0,0,0,1.177-1.913,38.749,38.749,0,0,0,.147-5.739,7.162,7.162,0,0,1,.147-1.766,5.411,5.411,0,0,1,3.237-3.679,5.484,5.484,0,0,1,5,.294,5.7,5.7,0,0,1,2.943,5,5.44,5.44,0,0,1-.883,3.09,31.862,31.862,0,0,0-2.8,5,2.87,2.87,0,0,0,0,2.207A2.675,2.675,0,0,0,88.1,65.452l17.365,4.562c.294,0,.441.147.736.147a2.523,2.523,0,0,0,2.5-1.913l12.95-47.532A3.237,3.237,0,0,0,121.355,18.655Zm-17.07,45.619L92.511,61.037a9.9,9.9,0,0,1,1.03-1.619,10.612,10.612,0,0,0,1.766-5.886A10.825,10.825,0,0,0,80.15,43.378a10.841,10.841,0,0,0-6.181,7.211,8.83,8.83,0,0,0-.294,3.385v1.913L61.9,52.649l4.12-15.01a3.031,3.031,0,0,0-.442-2.207c-.442-.736-1.177-.736-2.06-.883A44.354,44.354,0,0,0,57.34,34.4a7.165,7.165,0,0,1-1.766-.147A5.411,5.411,0,0,1,51.9,31.017a5.484,5.484,0,0,1,.294-5,5.641,5.641,0,0,1,4.856-2.943h.147a5.44,5.44,0,0,1,3.09.883A37.633,37.633,0,0,0,65.729,26.9a2.87,2.87,0,0,0,2.207,0,2.675,2.675,0,0,0,1.472-1.619l4.12-15.01,42.529,11.478Z" transform="translate(12.264 -4.44)" fill="#453d5d"/>
</svg>
