<svg xmlns="http://www.w3.org/2000/svg" xmlns:xlink="http://www.w3.org/1999/xlink" width="278.843" height="920.072" viewBox="0 0 278.843 920.072">
  <defs>
    <linearGradient id="linear-gradient" x1="0.5" x2="0.5" y2="1" gradientUnits="objectBoundingBox">
      <stop offset="0" stop-color="#ca513e"/>
      <stop offset="0.505" stop-color="#125181"/>
      <stop offset="1" stop-color="#2a4095"/>
    </linearGradient>
  </defs>
  <g id="Group_6169" data-name="Group 6169" transform="translate(-335.611 -9.535)">
    <path id="Path_32550" data-name="Path 32550" d="M831.25,760.4Z" transform="translate(-224.261 -298.873)" fill="#413770" opacity="0.3"/>
    <path id="Path_32551" data-name="Path 32551" d="M590.437,617.92s33.6,1.974,31.081,59.434c0,0-2.462,20.255,7.634,26.054s25.507,19.383,18.357,49.263,31.892,28.423,37.415,50.486-48.755,17.481-61.143,29.279-51.172,5.134-52.7-12.541,14.419-9.723,2.927-45.607c-7.489-23.379,15.49-36.216,6.12-51.7s-19.708-41.475-13.576-64.552S575.116,616.937,590.437,617.92Z" transform="translate(-119.422 -242.819)" fill="#2e3351"/>
    <path id="Path_32552" data-name="Path 32552" d="M573.937,695.97s75.695,66.654,105.9,46.3-12.86-62.352-20.892-67.062l19.406-24.056s72.813,57.26,36.844,111.256-142.312-11.037-142.312-11.037l-16.588-8.9Z" transform="translate(-116.114 -255.906)" fill="#7effdb"/>
    <g id="Group_6168" data-name="Group 6168" transform="translate(498.175 394.471)">
      <path id="Path_32553" data-name="Path 32553" d="M702.176,654.778a5.056,5.056,0,0,1-4.691,5.395l-20.779,1.448a5.055,5.055,0,0,1-5.4-4.691l-.014-.2a5.056,5.056,0,0,1,4.691-5.4l20.779-1.448a5.055,5.055,0,0,1,5.4,4.692Z" transform="translate(-659.517 -649.872)" fill="#b693fe"/>
      <path id="Path_32554" data-name="Path 32554" d="M686.771,656.927c-6.926-.126-15.5,2.271-15.5,2.271l.015.2A5.588,5.588,0,0,0,677,664.373l15.443-1.076C692.436,660.256,691.079,657.005,686.771,656.927Z" transform="translate(-659.511 -652.645)" fill="#2e3351"/>
      <path id="Path_32555" data-name="Path 32555" d="M716.079,655.036c-.172-2.465-1.877-4.354-3.809-4.219s-3.36,2.243-3.189,4.707,1.878,4.355,3.811,4.219S716.251,657.5,716.079,655.036Z" transform="translate(-674.378 -650.241)" fill="#2e3351"/>
      <path id="Path_32556" data-name="Path 32556" d="M682.781,664.149a5.056,5.056,0,0,1-4.693,5.4l-20.779,1.448a5.054,5.054,0,0,1-5.395-4.691l-.014-.2a5.056,5.056,0,0,1,4.692-5.4l20.779-1.448a5.055,5.055,0,0,1,5.395,4.692Z" transform="translate(-651.889 -653.558)" fill="#b693fe"/>
      <path id="Path_32557" data-name="Path 32557" d="M696.99,664.418c-.173-2.487-1.947-4.388-3.963-4.247s-3.51,2.269-3.337,4.755,1.948,4.387,3.964,4.247S697.164,666.9,696.99,664.418Z" transform="translate(-666.752 -653.92)" fill="#2e3351"/>
    </g>
    <path id="Path_32558" data-name="Path 32558" d="M714.532,668.129s-15.657-10.413-11.723-14.183c0,0,1.475-1.6,8.094,4.3a1.365,1.365,0,0,0,2.32-.162c.966-1.366,3.391-15.338.224-17.145s-6.61,4.059-8.163,2.494c0,0-1.974,1.126-2.774,0,0,0-2.039,1.283-2.635.374,0,0-2,1.241-2.231.155s1.187-4.226,2.347-5.029,13.144-15.43,33.946,5.135C733.938,644.073,732.4,659.788,714.532,668.129Z" transform="translate(-171.7 -248.823)" fill="#ff9de2"/>
    <path id="Path_32559" data-name="Path 32559" d="M598.152,794.68s-6.24-38.222-9.734-51.232l.341,46.125Z" transform="translate(-128.749 -292.207)" fill="#2e3351"/>
    <path id="Path_32560" data-name="Path 32560" d="M684.664,147.917s-34.378-3.625-41.254,5.475c0,0-1.415,2.123,1.113,1.921,0,0-.505,2.427,1.416,2.326a2.2,2.2,0,0,0,2.629,2.022s.3,1.719,1.719,1.719c0,0,19.717,2.528,18,6.067s-9.707.457-9.808,2.6,13.145,6.821,18.908,8.731C677.384,178.782,686.08,162.664,684.664,147.917Z" transform="translate(-150.223 -57.689)" fill="#ffb7a9"/>
    <path id="Path_32561" data-name="Path 32561" d="M706.947,148.379l-7.28,30.865s59.049,25.369,45.3,49.231c-2.862,4.964-8.082,8.735-14.751,11.417,3.642,8.149,8.658,21.973,12.161,42.015,22.381-9.995,40.513-25.261,43.844-48.578C795.926,165.381,706.947,148.379,706.947,148.379Z" transform="translate(-172.506 -58.151)" fill="#ffb7a9"/>
    <path id="Path_32562" data-name="Path 32562" d="M524.949,715.864a401.91,401.91,0,0,1,6.19,63.334s-45.6,32.741-69.858,68.82c0,0-11.874-8.943-29.534-28.187,0,0,1.249-76.807,15.443-112.883,0,0,21.839-7.329,59.745-4.612C506.937,702.336,515.3,704.718,524.949,715.864Z" transform="translate(-67.126 -275.799)" fill="#7effdb"/>
    <path id="Path_32563" data-name="Path 32563" d="M555.081,682.839s-3.841,4.485,4.1,11.209,13.917,2.318,13.917,2.318l23.751-35.709-10.61-8.495Z" transform="translate(-115.271 -256.302)" fill="#ff9de2"/>
    <path id="Path_32564" data-name="Path 32564" d="M595.6,694.424s-4.992-10.341-2.774-18.783l7.491,11.689Z" transform="translate(-130.26 -265.537)" fill="#413770"/>
    <path id="Path_32565" data-name="Path 32565" d="M615.373,660.033c-.251,7.054-1.871,12.969-8.924,12.718,0,0-13.359.632-16.3-13.492l-2.309-18.835c.251-7.054,8.727-12.51,15.781-12.258h0a12.838,12.838,0,0,1,12.416,13.2Z" transform="translate(-128.521 -246.86)" fill="#ff9de2"/>
    <path id="Path_32566" data-name="Path 32566" d="M613.828,629.926s-5.157,18.083-25.149,21.846c0,0-7.808-19.191,4-24.234A21.743,21.743,0,0,1,613.828,629.926Z" transform="translate(-127.855 -245.926)" fill="#2e3351"/>
    <path id="Path_32567" data-name="Path 32567" d="M481.211,240.661s-27.727-6.08-58.007-2.553c0,0-33.74,129.243-39.277,158.3,0,0,22.765,16.6,56.455,25.1,0,0,105.571-90.245,89.492-137.432,0,0-3.857-11.5-23.9-32.294Z" transform="translate(-48.317 -93.011)" fill="#b693fe"/>
    <path id="Path_32568" data-name="Path 32568" d="M569.047,230.108s-2.051,5.458-13.724.877-11.043-12-11.043-12L564.9,181.9l15.113,6.331Z" transform="translate(-111.385 -71.336)" fill="#ffb7a9"/>
    <path id="Path_32569" data-name="Path 32569" d="M585.072,222.071s-9.932-5.075-11.81-14.55l14.343,4.446Z" transform="translate(-122.787 -81.413)" fill="#413770"/>
    <path id="Path_32570" data-name="Path 32570" d="M592.558,179.133c.358,7.05-.746,13.082-7.8,13.44,0,0-13.255,1.781-17.4-12.038l-3.924-18.567c-.357-7.05,7.617-13.215,14.666-13.573h0a12.839,12.839,0,0,1,13.508,12.081Z" transform="translate(-118.919 -58.151)" fill="#ffb7a9"/>
    <path id="Path_32571" data-name="Path 32571" d="M570.744,151.085s30.593,6.322,28.161-12.5-21.048-12.221-24.219-1.97c0,0-16.113-2.3-19.1,11.552-3.792,17.577,8.152,22.3,8.152,22.3s.273-1.8.912-4.431c0,0-2.7-.377-2.078-4.655.533-3.66,2.975-3.032,2.927-1.77-.055,1.43.889,3,1.293,1.239A31.352,31.352,0,0,1,570.744,151.085Z" transform="translate(-115.541 -49.594)" fill="#413770"/>
    <path id="Path_32572" data-name="Path 32572" d="M602.168,280.4l.616,72.381S665.6,360.4,708.437,341.273c-3.5-20.041-11.12-45.237-14.763-53.387C668.286,298.1,620.025,296.419,602.168,280.4Z" transform="translate(-134.157 -110.08)" fill="#b693fe"/>
    <path id="Rectangle_1503" data-name="Rectangle 1503" d="M27.893,0h0A30.881,30.881,0,0,1,58.774,30.881V920.072a0,0,0,0,1,0,0H0a0,0,0,0,1,0,0V27.893A27.893,27.893,0,0,1,27.893,0Z" transform="translate(335.728 9.535)" fill="url(#linear-gradient)"/>
    <path id="Path_32573" data-name="Path 32573" d="M479.677,328.947s-8.615,9.243-10.458,5.222,8.491-14.647,8.491-14.647-8.271,2.821-8.457-2.292a5.44,5.44,0,0,1,4.413-5.848,4.749,4.749,0,0,1-2.023-5.1c.622-3.647,3.138-4.432,4.036-4.262a5.576,5.576,0,0,1-.516-5.055c1.12-2.779,3.328-4.161,6.362-2.018s1.245,7.969,1.245,7.969,2.4,3.949.025,7.637a7.8,7.8,0,0,1,.109,6.487S486.431,320.961,479.677,328.947Z" transform="translate(-81.778 -115.389)" fill="#ffb7a9"/>
    <path id="Path_32574" data-name="Path 32574" d="M479.677,822.948s-8.615,9.243-10.458,5.222,8.491-14.647,8.491-14.647-8.271,2.821-8.457-2.293a5.439,5.439,0,0,1,4.413-5.847,4.749,4.749,0,0,1-2.023-5.1c.622-3.647,3.138-4.432,4.036-4.263a5.575,5.575,0,0,1-.516-5.055c1.12-2.779,3.328-4.161,6.362-2.018s1.245,7.969,1.245,7.969,2.4,3.949.025,7.637a7.8,7.8,0,0,1,.109,6.487S486.431,814.961,479.677,822.948Z" transform="translate(-81.778 -309.692)" fill="#ff9de2"/>
  </g>
</svg>
