<svg xmlns="http://www.w3.org/2000/svg" xmlns:xlink="http://www.w3.org/1999/xlink" width="88" height="88" viewBox="0 0 88 88">
  <defs>
    <linearGradient id="linear-gradient" x1="0.552" y1="0.607" x2="0.801" y2="-1.951" gradientUnits="objectBoundingBox">
      <stop offset="0" stop-color="#fff"/>
      <stop offset="1" stop-color="gray"/>
      <stop offset="1"/>
    </linearGradient>
    <filter id="Ellipse_480" x="0" y="0" width="88" height="88" filterUnits="userSpaceOnUse">
      <feOffset dy="3" input="SourceAlpha"/>
      <feGaussianBlur stdDeviation="3" result="blur"/>
      <feFlood flood-opacity="0.231"/>
      <feComposite operator="in" in2="blur"/>
      <feComposite in="SourceGraphic"/>
    </filter>
  </defs>
  <g id="Component_60_2" data-name="Component 60 – 2" transform="translate(9 6)">
    <g transform="matrix(1, 0, 0, 1, -9, -6)" filter="url(#Ellipse_480)">
      <circle id="Ellipse_480-2" data-name="Ellipse 480" cx="35" cy="35" r="35" transform="translate(9 6)" fill="url(#linear-gradient)"/>
    </g>
    <g id="Group_7074" data-name="Group 7074" transform="translate(11.175 8.156)">
      <path id="Path_53053" data-name="Path 53053" d="M47.383,28.023l-3.124-6.438a19.209,19.209,0,0,0-2.565-4.376,5.261,5.261,0,0,0-3.853-1.851,5.357,5.357,0,0,0,1.409-1.8,4.742,4.742,0,0,0,1.338.01l-.089-.739a4.305,4.305,0,0,1-.969.012,5.322,5.322,0,1,0-10.382-1.088,13.954,13.954,0,0,1-1.638.094v.745a14.647,14.647,0,0,0,1.757-.1,5.331,5.331,0,0,0,1.786,2.871c-3.881.15-5.184,3.688-7.224,7.889-2.322-4.765-3.385-7.63-7.234-7.9a5.324,5.324,0,1,0-6.787,0c-3.909.017-5.567,4.469-6.417,6.227L.266,28.008a2.643,2.643,0,0,0,4.75,2.318l2.871-5.547V45.109a2.8,2.8,0,0,0,5.318,1.234,2.8,2.8,0,0,0,5.326-1.218V24.787l2.874,5.566a2.766,2.766,0,0,0,4.844,0l1.856-3.579L25.841,38.025h3.292v7.1a2.8,2.8,0,0,0,5.315,1.241,2.8,2.8,0,0,0,5.314-1.241v-7.1h3.292L40.791,26.784l1.842,3.558a2.643,2.643,0,0,0,4.75-2.319ZM37.014,7.617a.234.234,0,0,0-.025-.09l.03-.059a4.611,4.611,0,0,1,1.368,1.449.209.209,0,1,0,.1.18c.057.106.109.214.158.324a.215.215,0,0,0-.083.164.206.206,0,0,0,.228.21,4.588,4.588,0,0,1,.179.714.208.208,0,1,0,.01.066,4.55,4.55,0,0,1-.09,1.794.208.208,0,0,0-.327.167.219.219,0,0,0,.008.051,3.637,3.637,0,0,1-1.755-1.809.2.2,0,0,0,.2-.212.21.21,0,0,0-.355-.144,6.465,6.465,0,0,1-.328-1.12.2.2,0,0,0,.192-.212.207.207,0,0,0-.262-.2c-.008-.054-.015-.108-.021-.162a8.078,8.078,0,0,0,.592-.906A.2.2,0,0,0,37.014,7.617ZM29.87,11.356a4.722,4.722,0,0,1,.021-.578.2.2,0,0,0,.235-.21.2.2,0,0,0-.176-.2,4.451,4.451,0,0,1,.36-1.087.208.208,0,1,0,.2-.366c.059-.1.121-.193.187-.286a.208.208,0,1,0,.173-.229,4.715,4.715,0,0,1,.334-.369.247.247,0,0,0-.019.079.209.209,0,1,0,.137-.192,4.491,4.491,0,0,1,.355-.3.209.209,0,1,0,.417,0,.205.205,0,0,0-.14-.191c.087-.056.175-.109.265-.16a.208.208,0,0,0,.367-.141.252.252,0,0,0-.009-.04,4.631,4.631,0,0,1,1.1-.339.207.207,0,0,0,.376-.05,4.54,4.54,0,0,1,.581-.015.208.208,0,0,0,.4.032,4.542,4.542,0,0,1,1.115.292.229.229,0,0,0-.041.121.2.2,0,0,0,.149.2,8.119,8.119,0,0,1-3.183,3.189.209.209,0,0,0-.409.052.219.219,0,0,0,.052.141c-.1.051-.2.1-.308.149a.2.2,0,0,0-.2.087c-.209.091-.427.176-.655.256a.216.216,0,0,0,.051-.143.209.209,0,0,0-.418,0,.2.2,0,0,0,.173.209q-.172.056-.35.108a.208.208,0,0,0-.289.08c-.192.05-.392.095-.6.136a.235.235,0,0,0,0-.042A.209.209,0,0,0,29.87,11.356Zm.135,1.02a9.669,9.669,0,0,0,5.6-2.887,4.854,4.854,0,0,0,2.908,3.881,4.58,4.58,0,0,1-8.507-.994Zm7,3.714a2.7,2.7,0,0,1-5.174,0h.378a5.321,5.321,0,0,0,4.485,0ZM15.936,7.57a.292.292,0,0,0-.009.049.21.21,0,0,0,.3.191c.074.066.147.132.216.2a.24.24,0,0,0-.028.1.209.209,0,0,0,.294.195c.071.084.139.171.2.261a.221.221,0,0,0,0,.036.2.2,0,0,0,.168.207,4.542,4.542,0,0,1,.494,1.07.2.2,0,0,0-.17.2.209.209,0,0,0,.275.2c.009.04.018.079.025.119a2.123,2.123,0,0,1-.87-.3c0-.009,0-.017,0-.026a.207.207,0,0,0-.282-.188,1.931,1.931,0,0,1-.219-.243.244.244,0,0,0,.01-.061.2.2,0,0,0-.18-.2,3.229,3.229,0,0,1-.351-1.148.227.227,0,0,0,.039-.128.213.213,0,0,0-.066-.147c-.012-.167-.017-.337-.015-.509C15.828,7.491,15.882,7.53,15.936,7.57ZM9.326,8.8a.2.2,0,0,0,.133-.2h0q.105-.149.221-.288a.205.205,0,0,0,.272-.2.238.238,0,0,0-.019-.078c.073-.075.151-.146.229-.215a.2.2,0,0,0,.282-.2.249.249,0,0,0-.005-.027,4.59,4.59,0,0,1,1.148-.628.213.213,0,0,0-.085.164.209.209,0,1,0,.2-.2q.189-.065.383-.114a.209.209,0,0,0,.3-.065,4.674,4.674,0,0,1,.6-.07.207.207,0,0,0,.409,0,4.609,4.609,0,0,1,.593.061.212.212,0,0,0,.32.068c.106.026.212.054.316.089,0,.013,0,.026,0,.039a.207.207,0,0,0-.064.381A2.86,2.86,0,0,1,12.9,9.063a.208.208,0,0,0-.413.031.217.217,0,0,0,.043.131,7.12,7.12,0,0,1-1.106.33.208.208,0,0,0-.413.031.271.271,0,0,0,.006.049q-.294.051-.619.089a.222.222,0,0,0,.047-.139.209.209,0,1,0-.336.17c-.386.036-.8.059-1.257.064A4.624,4.624,0,0,1,9.326,8.8Zm-.653,1.763c2.578.01,5.363-.527,6.375-2.51.151,1.78,1.036,2.964,2.735,3.1a4.658,4.658,0,0,1-4.58,4.67A4.576,4.576,0,0,1,8.673,10.565Zm5.846,5.817-1.312,1.313-1.317-1.317A5.33,5.33,0,0,0,14.518,16.382ZM4.352,29.991A1.9,1.9,0,0,1,.935,28.333l2.619-5.4,3.423,1.986Zm8.4,14.327a.206.206,0,0,0-.264.2.208.208,0,0,0,.264.2v.391c0,.064,0,.128-.009.191a.207.207,0,1,0-.079.406,2.064,2.064,0,0,1-1.244,1.329.253.253,0,0,0,.01-.063.209.209,0,0,0-.418,0,.212.212,0,0,0,.067.157,2.057,2.057,0,0,1-.385.037,2.092,2.092,0,0,1-.325-.026.212.212,0,0,0,.078-.17.209.209,0,0,0-.418,0,.234.234,0,0,0,.019.09A2.062,2.062,0,0,1,8.719,45.7a.2.2,0,0,0,.248-.208.209.209,0,0,0-.324-.169,2.084,2.084,0,0,1-.011-.219v-.426a.209.209,0,1,0,0-.331V43.7a.208.208,0,0,0,.336-.17A.221.221,0,0,0,8.92,43.4h.66a.227.227,0,0,0-.047.129.209.209,0,1,0,.418,0A.221.221,0,0,0,9.9,43.4h.66a.223.223,0,0,0-.047.129.209.209,0,1,0,.417,0,.221.221,0,0,0-.047-.127h.66a.227.227,0,0,0-.047.129.209.209,0,1,0,.418,0,.221.221,0,0,0-.047-.127h.659a.223.223,0,0,0-.046.129.208.208,0,0,0,.264.2v.585Zm5.04.088a.209.209,0,1,0,0,.225v.493a2.057,2.057,0,0,1-.015.244.209.209,0,1,0-.063.318,2.062,2.062,0,0,1-1.4,1.413.227.227,0,0,0,.039-.128.209.209,0,1,0-.308.188,2.118,2.118,0,0,1-.308.023,2.041,2.041,0,0,1-.438-.047.213.213,0,0,0,.07-.164.209.209,0,0,0-.417,0,.267.267,0,0,0,.008.057,2.063,2.063,0,0,1-1.2-1.335.2.2,0,0,0,.134-.2.205.205,0,0,0-.208-.2c0-.056-.008-.113-.008-.17v-.4a.2.2,0,0,0,.215-.212.206.206,0,0,0-.215-.2v-.57a.2.2,0,0,0,.215-.212.219.219,0,0,0-.049-.127H14.5a.223.223,0,0,0-.047.129.209.209,0,1,0,.417,0,.221.221,0,0,0-.047-.127h.66a.223.223,0,0,0-.047.129.209.209,0,1,0,.418,0,.221.221,0,0,0-.047-.127h.66a.227.227,0,0,0-.047.129.209.209,0,1,0,.418,0,.221.221,0,0,0-.047-.127h.66a.226.226,0,0,0-.047.129.21.21,0,0,0,.385.117Zm0-.983a.232.232,0,0,0-.014-.021h.014Zm0-.765H13.67V33.123h-.922v9.534H8.631v-12.3h9.157v12.3Zm1.249-18.511-.575-1.113a.209.209,0,1,0-.076-.164c0,.008,0,.015,0,.022l-.172-.334a.209.209,0,0,0-.191-.37l-.238-.462v.052a.209.209,0,1,0,0,.225v.759a.209.209,0,1,0,0,.225v.76a.209.209,0,1,0,0,.224v.76a.209.209,0,1,0,0,.224v.76a.209.209,0,1,0,0,.225v.76a.209.209,0,1,0,0,.225v.759a.209.209,0,1,0,0,.225v.76a.209.209,0,1,0,0,.224v.725h-.026a.213.213,0,0,0-.3,0h-.683a.213.213,0,0,0-.3,0h-.683a.213.213,0,0,0-.3,0h-.683a.213.213,0,0,0-.3,0h-.683a.213.213,0,0,0-.3,0h-.683a.213.213,0,0,0-.3,0h-.683a.212.212,0,0,0-.3,0h-.683a.213.213,0,0,0-.3,0H9.892a.213.213,0,0,0-.3,0H8.908a.214.214,0,0,0-.277-.021v-.652a.209.209,0,1,0,0-.331v-.653a.209.209,0,1,0,0-.331v-.652a.209.209,0,1,0,0-.332v-.652a.209.209,0,1,0,0-.331v-.652a.209.209,0,1,0,0-.331v-.655a.209.209,0,1,0,0-.331v-.653a.209.209,0,1,0,0-.331v-.653a.209.209,0,1,0-.082-.169l-.167.323a.209.209,0,0,0-.325.169.2.2,0,0,0,.135.2L7.371,24.16a.214.214,0,0,0-.2.012l-.255-.148a.208.208,0,1,0-.331-.192l-1.561-.906a.252.252,0,0,0,.009-.06.209.209,0,0,0-.356-.142l-.263-.152a.2.2,0,0,0,.127-.2.209.209,0,0,0-.418,0,.207.207,0,0,0,0,.03l-.245-.142q.171-.353.334-.695a.207.207,0,0,0,.325-.178.2.2,0,0,0-.146-.192c.272-.563.538-1.1.813-1.593a.208.208,0,1,0,.206-.361c.061-.1.123-.206.186-.306a.209.209,0,1,0,.123-.194A5.708,5.708,0,0,1,8.075,16.56a.209.209,0,0,0,.4-.089A.246.246,0,0,0,8.46,16.4a5.393,5.393,0,0,1,1.136-.27.209.209,0,0,0,.319-.034c.2-.016.4-.026.617-.026l2.673,2.673,2.673-2.673c.2,0,.39.01.575.024a.211.211,0,0,0,.324.033,5.334,5.334,0,0,1,1.133.271.243.243,0,0,0-.015.07.209.209,0,0,0,.4.087,5.854,5.854,0,0,1,2.374,2.2.209.209,0,1,0,.1.175c0-.008,0-.015,0-.022.069.107.137.216.2.328a.206.206,0,0,0-.126.187.21.21,0,0,0,.335.172c.054.1.108.193.161.291,0,.01,0,.019,0,.03a.2.2,0,0,0,.123.193c.183.346.364.708.546,1.082a.2.2,0,0,0-.178.2.21.21,0,0,0,.352.157l.152.314c0,.007,0,.013,0,.02a.206.206,0,0,0,.1.182l.1.212-.3.172a.244.244,0,0,0,.013-.075.209.209,0,0,0-.418,0,.2.2,0,0,0,.172.209l-.287.165a.208.208,0,0,0-.376.119.237.237,0,0,0,.019.087l-1.569.9V23.85a.209.209,0,0,0-.418,0,.2.2,0,0,0,.107.184l-.259.149A.213.213,0,0,0,19.037,24.146Zm2.477,3.863a2.548,2.548,0,0,0-.2.556l-1.882-3.646,3.423-1.969.558,1.15ZM25.6,29.991a1.888,1.888,0,0,1-2.622.852,1.912,1.912,0,0,1-.792-2.509L24.5,23.56l3.406,1.973Zm1.153,7.287.017-.086a.2.2,0,0,0,.047.086Zm7.245,6.592a.209.209,0,1,0,0,.312v.672a.209.209,0,1,0,0,.312,2.083,2.083,0,0,1-.109.622.2.2,0,0,0-.239.2.21.21,0,0,0,.074.163,2.024,2.024,0,0,1-.168.247.209.209,0,0,0-.4.082.2.2,0,0,0,.132.2,2.036,2.036,0,0,1-.244.183.208.208,0,0,0-.381.112.258.258,0,0,0,.013.072,2.052,2.052,0,0,1-.739.137h-.013a.2.2,0,0,0,.172-.211.209.209,0,0,0-.418,0,.206.206,0,0,0,.167.207,2.044,2.044,0,0,1-.738-.172.2.2,0,0,0,.006-.036.209.209,0,0,0-.344-.153,2.14,2.14,0,0,1-.219-.174.213.213,0,0,0,.071-.164.209.209,0,0,0-.35-.148,2.037,2.037,0,0,1-.159-.258.248.248,0,0,0,.018-.087.2.2,0,0,0-.137-.189,2.048,2.048,0,0,1-.111-.587A.2.2,0,0,0,30.126,45a.207.207,0,0,0-.25-.2v-.578a.2.2,0,0,0,.25-.208.207.207,0,0,0-.25-.2V43.8h4.117v.074Zm0-.819H29.877V38.025h4.117Zm5.025,2.072a2.051,2.051,0,0,1-.123.7.208.208,0,0,0-.333.163.2.2,0,0,0,.156.2,2.085,2.085,0,0,1-.233.312c0-.009,0-.016,0-.025a.209.209,0,0,0-.418,0,.206.206,0,0,0,.222.211,2.057,2.057,0,0,1-.309.217.208.208,0,0,0-.405.064.225.225,0,0,0,.027.105,2.047,2.047,0,0,1-.646.1l-.109,0a.2.2,0,0,0,.162-.208.209.209,0,0,0-.418,0,.2.2,0,0,0,.129.2,2.034,2.034,0,0,1-.7-.209.207.207,0,0,0-.285-.175,2.13,2.13,0,0,1-.231-.2.237.237,0,0,0,.026-.107.206.206,0,0,0-.274-.191,2.044,2.044,0,0,1-.36-1.082.207.207,0,0,0,0-.395v-.589a.207.207,0,0,0,0-.395V43.8H39.02v1.328Zm0-2.072H34.9V38.025h4.118Zm1.044-19.292-.14-.27a.223.223,0,0,0,.041-.13.205.205,0,0,0-.213-.2L39.2,22.085a.205.205,0,0,0,.276-.2.208.208,0,0,0-.408-.053l-.046-.089.188.932a.207.207,0,0,0,.081.405l.128.635a.208.208,0,1,0,.043.216l.242,1.2a.207.207,0,0,0,.081.405l.129.64a.209.209,0,1,0,.041.2L40.2,27.59a.2.2,0,0,0-.157.2.206.206,0,0,0,.238.209l.13.645a.208.208,0,1,0,.04.195l.244,1.214a.207.207,0,0,0,.082.406l.13.649a.208.208,0,1,0,.037.185l.246,1.219a.2.2,0,0,0-.163.2.206.206,0,0,0,.245.208l.132.656a.209.209,0,1,0,.035.173l.247,1.225a.2.2,0,0,0-.166.2.207.207,0,0,0,.248.207l.133.664a.208.208,0,1,0,.031.157l.219,1.086h-.268a.216.216,0,0,0,.054-.148.209.209,0,0,0-.417,0,.217.217,0,0,0,.056.146h-.677a.216.216,0,0,0,.054-.148.209.209,0,0,0-.418,0,.22.22,0,0,0,.057.146H39.91a.221.221,0,0,0,.054-.148.209.209,0,0,0-.418,0,.216.216,0,0,0,.057.146h-.677a.223.223,0,0,0,.054-.148.209.209,0,0,0-.418,0,.214.214,0,0,0,.056.146h-.677A.221.221,0,0,0,38,37.133a.209.209,0,0,0-.418,0,.214.214,0,0,0,.056.146h-.676a.223.223,0,0,0,.054-.147.209.209,0,0,0-.418,0,.214.214,0,0,0,.056.146h-.676a.223.223,0,0,0,.054-.147.209.209,0,0,0-.417,0,.214.214,0,0,0,.056.146h-.676a.221.221,0,0,0,.054-.147.209.209,0,0,0-.418,0,.215.215,0,0,0,.056.145h-.676a.219.219,0,0,0,.053-.147.209.209,0,0,0-.417,0,.217.217,0,0,0,.055.145h-.675a.22.22,0,0,0,.053-.147.209.209,0,0,0-.418,0,.218.218,0,0,0,.056.145h-.675a.221.221,0,0,0,.053-.147.209.209,0,0,0-.418,0,.216.216,0,0,0,.056.145h-.675a.223.223,0,0,0,.053-.147.209.209,0,0,0-.418,0,.216.216,0,0,0,.056.145h-.675a.223.223,0,0,0,.053-.147.209.209,0,0,0-.418,0,.217.217,0,0,0,.055.145H29.09a.221.221,0,0,0,.053-.146.209.209,0,0,0-.418,0,.214.214,0,0,0,.055.145h-.674a.222.222,0,0,0,.053-.146.209.209,0,0,0-.417,0,.214.214,0,0,0,.055.145h-.674a.222.222,0,0,0,.053-.146.21.21,0,0,0-.372-.126l.131-.649a.206.206,0,0,0,.081-.4l.244-1.214a.208.208,0,1,0,.04-.2l.13-.644a.2.2,0,0,0,.238-.209.205.205,0,0,0-.156-.2l.243-1.208a.208.208,0,1,0,.042-.207l.129-.639a.2.2,0,0,0,.235-.21.206.206,0,0,0-.153-.195l.242-1.2a.208.208,0,1,0,.044-.217l.128-.634a.207.207,0,0,0,.081-.4l.241-1.2a.209.209,0,1,0,.046-.228l.127-.629a.207.207,0,0,0,.081-.4l.24-1.193a.209.209,0,1,0,.049-.239l.126-.625a.207.207,0,0,0,.081-.4l.239-1.189a.209.209,0,1,0,.05-.247l.1-.482-.48.926a.2.2,0,0,0-.179.2.224.224,0,0,0,.024.1l-.141.271a.209.209,0,0,0-.375.123.2.2,0,0,0,.2.21l-.557,1.074a.208.208,0,0,0-.137.191c0,.01,0,.017,0,.026l-1.575-.912a.249.249,0,0,0,.022-.1.208.208,0,0,0-.382-.109l-.295-.171a.2.2,0,0,0,.184-.211.209.209,0,0,0-.417,0,.236.236,0,0,0,.017.085l-.962-.557.144-.3a.2.2,0,0,0,.234-.21.212.212,0,0,0-.065-.146l.144-.3A.209.209,0,1,0,25.4,21.7c.185-.382.364-.745.54-1.09a.2.2,0,0,0,.255-.206.21.21,0,0,0-.07-.151c.051-.1.1-.192.152-.285a.208.208,0,1,0,.137-.248,13.11,13.11,0,0,1,1.006-1.568.2.2,0,0,0,.251-.207.232.232,0,0,0-.02-.08q.1-.117.2-.227a.207.207,0,0,0,.313-.185.227.227,0,0,0-.03-.1c.072-.069.147-.134.222-.2a.207.207,0,0,0,.3-.192.247.247,0,0,0-.006-.04,4.238,4.238,0,0,1,1.105-.573.226.226,0,0,0-.042.122.209.209,0,1,0,.418,0,.2.2,0,0,0-.145-.193,5.1,5.1,0,0,1,1.084-.177,3.413,3.413,0,0,0,.237.679.207.207,0,0,0-.118.184.21.21,0,0,0,.318.182c.056.09.118.177.182.262a.24.24,0,0,0-.009.048.207.207,0,0,0,.228.211,3.53,3.53,0,0,0,.268.259.121.121,0,0,0,0,.023.209.209,0,0,0,.288.2c.083.058.169.112.256.162a.219.219,0,0,0-.052.132.209.209,0,0,0,.413.047,3.406,3.406,0,0,0,1.165.269.21.21,0,1,0,.221,0,3.425,3.425,0,0,0,1.177-.222.208.208,0,0,0,.394-.1.233.233,0,0,0-.015-.07,3.468,3.468,0,0,0,1.3-1.194.2.2,0,0,0,.188-.212.244.244,0,0,0-.02-.081q.071-.14.131-.288a.209.209,0,1,0,.11-.316c.018-.06.033-.12.048-.181a5,5,0,0,1,1.776.405.209.209,0,0,0,.309.156c.085.048.169.1.25.153a.215.215,0,0,0-.07.152.209.209,0,0,0,.4.089c.081.065.162.135.241.208a.206.206,0,0,0-.149.194.208.208,0,0,0,.408.061c.073.077.146.156.218.24a.206.206,0,0,0-.134.191.21.21,0,0,0,.385.116q.085.11.171.228a.217.217,0,0,0-.065.147.21.21,0,0,0,.3.192,18.253,18.253,0,0,1,.933,1.576.206.206,0,0,0-.251.2.209.209,0,0,0,.4.084c.047.09.094.182.142.276a.216.216,0,0,0-.052.132.207.207,0,0,0,.225.211q.251.5.518,1.065a.206.206,0,0,0-.251.2.209.209,0,0,0,.393.1c.043.092.087.186.131.281a.236.236,0,0,0-.033.109.217.217,0,0,0,.057.146l-.268.155a.205.205,0,0,0-.276.16L42.4,23.96a.25.25,0,0,0,.026-.107.209.209,0,0,0-.418,0,.206.206,0,0,0,.207.212l-.31.179a.208.208,0,0,0-.388.1.223.223,0,0,0,.028.108l-.863.5-.459-.887a.2.2,0,0,0,.237-.211A.21.21,0,0,0,40.063,23.759Zm5.775,7.12a1.9,1.9,0,0,1-2.541-.872l-2.276-4.4,3.409-1.968,2.283,4.7A1.891,1.891,0,0,1,45.839,30.879ZM37.088,8.111a.209.209,0,0,1,.417,0A.209.209,0,1,1,37.088,8.111ZM36.6,8.6a.209.209,0,0,1,.418,0A.209.209,0,1,1,36.6,8.6Zm.983,0A.209.209,0,0,1,38,8.6.209.209,0,1,1,37.579,8.6Zm-.492.492a.209.209,0,0,1,.417,0A.209.209,0,1,1,37.088,9.094Zm-.492.492a.209.209,0,0,1,.418,0A.209.209,0,1,1,36.6,9.587Zm.983,0a.209.209,0,0,1,.418,0A.209.209,0,1,1,37.579,9.587Zm-.492.492a.209.209,0,0,1,.417,0A.209.209,0,1,1,37.088,10.078Zm.983,0a.209.209,0,0,1,.418,0A.209.209,0,1,1,38.071,10.078Zm-.492.492a.209.209,0,0,1,.418,0A.209.209,0,1,1,37.579,10.571Zm-.492.492a.209.209,0,0,1,.417,0A.209.209,0,1,1,37.088,11.062Zm.983,0a.209.209,0,0,1,.418,0A.209.209,0,1,1,38.071,11.062Zm-.492.492a.209.209,0,0,1,.418,0A.209.209,0,1,1,37.579,11.554Zm.984,0a.209.209,0,0,1,.418,0A.209.209,0,1,1,38.563,11.554Zm-.492.492a.209.209,0,0,1,.418,0A.209.209,0,1,1,38.071,12.046ZM33.152,7.127a.209.209,0,0,1,.418,0A.209.209,0,1,1,33.152,7.127Zm.984,0a.209.209,0,0,1,.418,0A.209.209,0,1,1,34.136,7.127Zm.983,0a.209.209,0,0,1,.418,0A.209.209,0,1,1,35.12,7.127Zm-2.46.492a.209.209,0,0,1,.418,0A.209.209,0,1,1,32.66,7.619Zm.984,0a.209.209,0,0,1,.417,0A.209.209,0,1,1,33.644,7.619Zm.984,0a.209.209,0,0,1,.418,0A.209.209,0,1,1,34.628,7.619Zm.984,0a.209.209,0,0,1,.417,0A.209.209,0,1,1,35.612,7.619Zm-3.443.492a.209.209,0,0,1,.418,0A.209.209,0,1,1,32.169,8.111Zm.983,0a.209.209,0,0,1,.418,0A.209.209,0,1,1,33.152,8.111Zm.984,0a.209.209,0,0,1,.418,0A.209.209,0,1,1,34.136,8.111Zm.983,0a.209.209,0,0,1,.418,0A.209.209,0,1,1,35.12,8.111ZM31.677,8.6a.209.209,0,0,1,.418,0A.209.209,0,1,1,31.677,8.6Zm.983,0a.209.209,0,0,1,.418,0A.209.209,0,1,1,32.66,8.6Zm.984,0a.209.209,0,0,1,.417,0A.209.209,0,1,1,33.644,8.6Zm.984,0a.209.209,0,0,1,.418,0A.209.209,0,1,1,34.628,8.6Zm-3.444.492a.209.209,0,0,1,.418,0A.209.209,0,1,1,31.185,9.094Zm.984,0a.209.209,0,0,1,.418,0A.209.209,0,1,1,32.169,9.094Zm.983,0a.209.209,0,0,1,.418,0A.209.209,0,1,1,33.152,9.094Zm.984,0a.209.209,0,0,1,.418,0A.209.209,0,1,1,34.136,9.094Zm-3.444.492a.209.209,0,0,1,.418,0A.209.209,0,1,1,30.693,9.587Zm.984,0a.209.209,0,0,1,.418,0A.209.209,0,1,1,31.677,9.587Zm.983,0a.209.209,0,0,1,.418,0A.209.209,0,1,1,32.66,9.587Zm.984,0a.209.209,0,0,1,.417,0A.209.209,0,1,1,33.644,9.587Zm-3.443.492a.209.209,0,0,1,.418,0A.209.209,0,1,1,30.2,10.078Zm.983,0a.209.209,0,0,1,.418,0A.209.209,0,1,1,31.185,10.078Zm.984,0a.209.209,0,0,1,.418,0A.209.209,0,1,1,32.169,10.078Zm.983,0a.209.209,0,0,1,.418,0A.209.209,0,1,1,33.152,10.078Zm-2.46.492a.209.209,0,0,1,.418,0A.209.209,0,1,1,30.693,10.571Zm.984,0a.209.209,0,0,1,.418,0A.209.209,0,1,1,31.677,10.571Zm-1.476.492a.209.209,0,0,1,.418,0A.209.209,0,1,1,30.2,11.062ZM15.927,8.6a.209.209,0,0,1,.418,0A.209.209,0,1,1,15.927,8.6Zm.492.492a.209.209,0,0,1,.418,0A.209.209,0,1,1,16.419,9.094Zm.492.492a.209.209,0,0,1,.417,0A.209.209,0,1,1,16.911,9.587Zm-4.427-2.46a.209.209,0,0,1,.417,0A.209.209,0,1,1,12.484,7.127Zm.983,0a.209.209,0,0,1,.418,0A.209.209,0,1,1,13.468,7.127Zm-2.459.492a.209.209,0,0,1,.418,0A.209.209,0,1,1,11.009,7.619Zm.983,0a.209.209,0,0,1,.418,0A.209.209,0,1,1,11.992,7.619Zm.984,0a.209.209,0,0,1,.417,0A.209.209,0,1,1,12.976,7.619Zm.983,0a.209.209,0,0,1,.418,0A.209.209,0,1,1,13.96,7.619Zm-3.443.492a.209.209,0,0,1,.417,0A.209.209,0,1,1,10.516,8.111Zm.984,0a.209.209,0,0,1,.418,0A.209.209,0,1,1,11.5,8.111Zm.984,0a.209.209,0,0,1,.417,0A.209.209,0,1,1,12.484,8.111Zm.983,0a.209.209,0,0,1,.418,0A.209.209,0,1,1,13.468,8.111ZM10.025,8.6a.209.209,0,0,1,.418,0A.209.209,0,1,1,10.025,8.6Zm.984,0a.209.209,0,0,1,.418,0A.209.209,0,1,1,11.009,8.6Zm.983,0a.209.209,0,0,1,.418,0A.209.209,0,1,1,11.992,8.6Zm.984,0a.209.209,0,0,1,.417,0A.209.209,0,1,1,12.976,8.6ZM9.95,9.093a.209.209,0,1,1-.418,0A.209.209,0,0,1,9.95,9.093Zm.566,0a.209.209,0,0,1,.417,0A.209.209,0,1,1,10.516,9.094Zm.984,0a.209.209,0,0,1,.418,0A.209.209,0,1,1,11.5,9.094Zm-2.042.491a.209.209,0,1,1-.418,0A.209.209,0,0,1,9.459,9.585Zm0,34.435a.209.209,0,1,1-.418,0A.209.209,0,0,1,9.459,44.02Zm.984,0a.209.209,0,1,1-.418,0A.209.209,0,0,1,10.443,44.02Zm.983,0a.209.209,0,1,1-.418,0A.209.209,0,0,1,11.426,44.02Zm.984,0a.209.209,0,1,1-.418,0A.209.209,0,0,1,12.41,44.02Zm-2.46.492a.209.209,0,1,1-.418,0A.209.209,0,0,1,9.95,44.512Zm.984,0a.209.209,0,1,1-.417,0A.209.209,0,0,1,10.934,44.512Zm.984,0a.209.209,0,1,1-.418,0A.209.209,0,0,1,11.918,44.512ZM9.459,45a.209.209,0,1,1-.418,0A.209.209,0,0,1,9.459,45Zm.984,0a.209.209,0,1,1-.418,0A.209.209,0,0,1,10.443,45Zm.983,0a.209.209,0,1,1-.418,0A.209.209,0,0,1,11.426,45Zm.984,0a.209.209,0,1,1-.418,0A.209.209,0,0,1,12.41,45ZM9.95,45.5a.209.209,0,1,1-.418,0A.209.209,0,0,1,9.95,45.5Zm.984,0a.209.209,0,1,1-.417,0A.209.209,0,0,1,10.934,45.5Zm.984,0a.209.209,0,1,1-.418,0A.209.209,0,0,1,11.918,45.5Zm-2.46.491a.209.209,0,1,1-.418,0A.209.209,0,0,1,9.459,45.988Zm.984,0a.209.209,0,1,1-.418,0A.209.209,0,0,1,10.443,45.988Zm.983,0a.209.209,0,1,1-.418,0A.209.209,0,0,1,11.426,45.988Zm.984,0a.209.209,0,1,1-.418,0A.209.209,0,0,1,12.41,45.988Zm-2.46.492a.209.209,0,1,1-.418,0A.209.209,0,0,1,9.95,46.48Zm.984,0a.209.209,0,1,1-.417,0A.209.209,0,0,1,10.934,46.48Zm.984,0a.209.209,0,1,1-.418,0A.209.209,0,0,1,11.918,46.48Zm2.459-2.46a.209.209,0,1,1-.418,0A.209.209,0,0,1,14.377,44.02Zm.984,0a.209.209,0,1,1-.417,0A.209.209,0,0,1,15.361,44.02Zm.984,0a.209.209,0,1,1-.418,0A.209.209,0,0,1,16.345,44.02Zm.983,0a.209.209,0,1,1-.417,0A.209.209,0,0,1,17.329,44.02Zm-2.459.492a.209.209,0,1,1-.417,0A.209.209,0,0,1,14.87,44.512Zm.984,0a.209.209,0,1,1-.418,0A.209.209,0,0,1,15.854,44.512Zm.983,0a.209.209,0,1,1-.418,0A.209.209,0,0,1,16.837,44.512ZM14.377,45a.209.209,0,1,1-.418,0A.209.209,0,0,1,14.377,45Zm.984,0a.209.209,0,1,1-.417,0A.209.209,0,0,1,15.361,45Zm.984,0a.209.209,0,1,1-.418,0A.209.209,0,0,1,16.345,45Zm.983,0a.209.209,0,1,1-.417,0A.209.209,0,0,1,17.329,45ZM14.87,45.5a.209.209,0,1,1-.417,0A.209.209,0,0,1,14.87,45.5Zm.984,0a.209.209,0,1,1-.418,0A.209.209,0,0,1,15.854,45.5Zm.983,0a.209.209,0,1,1-.418,0A.209.209,0,0,1,16.837,45.5Zm-2.46.491a.209.209,0,1,1-.418,0A.209.209,0,0,1,14.377,45.988Zm.984,0a.209.209,0,1,1-.417,0A.209.209,0,0,1,15.361,45.988Zm.984,0a.209.209,0,1,1-.418,0A.209.209,0,0,1,16.345,45.988Zm.983,0a.209.209,0,1,1-.417,0A.209.209,0,0,1,17.329,45.988Zm-2.459.492a.209.209,0,1,1-.417,0A.209.209,0,0,1,14.87,46.48Zm.984,0a.209.209,0,1,1-.418,0A.209.209,0,0,1,15.854,46.48Zm.983,0a.209.209,0,1,1-.418,0A.209.209,0,0,1,16.837,46.48ZM9.459,16.472a.209.209,0,1,1-.418,0A.209.209,0,0,1,9.459,16.472Zm.984,0a.209.209,0,1,1-.418,0A.209.209,0,0,1,10.443,16.472Zm5.9,0a.209.209,0,1,1-.418,0A.209.209,0,0,1,16.345,16.472Zm.983,0a.209.209,0,1,1-.417,0A.209.209,0,0,1,17.329,16.472Zm-9.346.492a.209.209,0,1,1-.418,0A.209.209,0,0,1,7.983,16.964Zm.984,0a.209.209,0,1,1-.418,0A.209.209,0,0,1,8.967,16.964Zm.983,0a.209.209,0,1,1-.418,0A.209.209,0,0,1,9.95,16.964Zm.984,0a.209.209,0,1,1-.417,0A.209.209,0,0,1,10.934,16.964Zm4.919,0a.209.209,0,1,1-.418,0A.209.209,0,0,1,15.854,16.964Zm.983,0a.209.209,0,1,1-.418,0A.209.209,0,0,1,16.837,16.964Zm.984,0a.209.209,0,1,1-.418,0A.209.209,0,0,1,17.821,16.964Zm.983,0a.209.209,0,1,1-.417,0A.209.209,0,0,1,18.8,16.964Zm-11.313.492a.209.209,0,1,1-.418,0A.209.209,0,0,1,7.491,17.456Zm.983,0a.209.209,0,1,1-.418,0A.209.209,0,0,1,8.475,17.456Zm.984,0a.209.209,0,1,1-.418,0A.209.209,0,0,1,9.459,17.456Zm.984,0a.209.209,0,1,1-.418,0A.209.209,0,0,1,10.443,17.456Zm.983,0a.209.209,0,1,1-.418,0A.209.209,0,0,1,11.426,17.456Zm3.935,0a.209.209,0,1,1-.417,0A.209.209,0,0,1,15.361,17.456Zm.984,0a.209.209,0,1,1-.418,0A.209.209,0,0,1,16.345,17.456Zm.983,0a.209.209,0,1,1-.417,0A.209.209,0,0,1,17.329,17.456Zm.984,0a.209.209,0,1,1-.417,0A.209.209,0,0,1,18.313,17.456Zm.984,0a.209.209,0,1,1-.417,0A.209.209,0,0,1,19.3,17.456ZM7,17.948a.209.209,0,1,1-.418,0A.209.209,0,0,1,7,17.948Zm.984,0a.209.209,0,1,1-.418,0A.209.209,0,0,1,7.983,17.948Zm.984,0a.209.209,0,1,1-.418,0A.209.209,0,0,1,8.967,17.948Zm.983,0a.209.209,0,1,1-.418,0A.209.209,0,0,1,9.95,17.948Zm.984,0a.209.209,0,1,1-.417,0A.209.209,0,0,1,10.934,17.948Zm.984,0a.209.209,0,1,1-.418,0A.209.209,0,0,1,11.918,17.948Zm2.951,0a.209.209,0,1,1-.417,0A.209.209,0,0,1,14.87,17.948Zm.984,0a.209.209,0,1,1-.418,0A.209.209,0,0,1,15.854,17.948Zm.983,0a.209.209,0,1,1-.418,0A.209.209,0,0,1,16.837,17.948Zm.984,0a.209.209,0,1,1-.418,0A.209.209,0,0,1,17.821,17.948Zm.983,0a.209.209,0,1,1-.417,0A.209.209,0,0,1,18.8,17.948Zm.566,0a.209.209,0,0,1,.418,0A.209.209,0,1,1,19.371,17.949Zm-12.863.49a.209.209,0,1,1-.418,0A.209.209,0,0,1,6.507,18.44Zm.984,0a.209.209,0,1,1-.418,0A.209.209,0,0,1,7.491,18.44Zm.983,0a.209.209,0,1,1-.418,0A.209.209,0,0,1,8.475,18.44Zm.984,0a.209.209,0,1,1-.418,0A.209.209,0,0,1,9.459,18.44Zm.984,0a.209.209,0,1,1-.418,0A.209.209,0,0,1,10.443,18.44Zm.983,0a.209.209,0,1,1-.418,0A.209.209,0,0,1,11.426,18.44Zm.984,0a.209.209,0,1,1-.418,0A.209.209,0,0,1,12.41,18.44Zm1.967,0a.209.209,0,1,1-.418,0A.209.209,0,0,1,14.377,18.44Zm.984,0a.209.209,0,1,1-.417,0A.209.209,0,0,1,15.361,18.44Zm.984,0a.209.209,0,1,1-.418,0A.209.209,0,0,1,16.345,18.44Zm.983,0a.209.209,0,1,1-.417,0A.209.209,0,0,1,17.329,18.44Zm.984,0a.209.209,0,1,1-.417,0A.209.209,0,0,1,18.313,18.44Zm.984,0a.209.209,0,1,1-.417,0A.209.209,0,0,1,19.3,18.44Zm.566,0a.209.209,0,0,1,.418,0A.209.209,0,1,1,19.863,18.441ZM7,18.932a.209.209,0,1,1-.418,0A.209.209,0,0,1,7,18.932Zm.984,0a.209.209,0,1,1-.418,0A.209.209,0,0,1,7.983,18.932Zm.984,0a.209.209,0,1,1-.418,0A.209.209,0,0,1,8.967,18.932Zm.983,0a.209.209,0,1,1-.418,0A.209.209,0,0,1,9.95,18.932Zm.984,0a.209.209,0,1,1-.417,0A.209.209,0,0,1,10.934,18.932Zm.984,0a.209.209,0,1,1-.418,0A.209.209,0,0,1,11.918,18.932Zm.983,0a.209.209,0,1,1-.417,0A.209.209,0,0,1,12.9,18.932Zm.984,0a.209.209,0,1,1-.418,0A.209.209,0,0,1,13.886,18.932Zm.984,0a.209.209,0,1,1-.417,0A.209.209,0,0,1,14.87,18.932Zm.984,0a.209.209,0,1,1-.418,0A.209.209,0,0,1,15.854,18.932Zm.983,0a.209.209,0,1,1-.418,0A.209.209,0,0,1,16.837,18.932Zm.984,0a.209.209,0,1,1-.418,0A.209.209,0,0,1,17.821,18.932Zm.983,0a.209.209,0,1,1-.417,0A.209.209,0,0,1,18.8,18.932Zm.566,0a.209.209,0,0,1,.418,0A.209.209,0,1,1,19.371,18.933Zm-12.863.491a.209.209,0,1,1-.418,0A.209.209,0,0,1,6.507,19.424Zm.984,0a.209.209,0,1,1-.418,0A.209.209,0,0,1,7.491,19.424Zm.983,0a.209.209,0,1,1-.418,0A.209.209,0,0,1,8.475,19.424Zm.984,0a.209.209,0,1,1-.418,0A.209.209,0,0,1,9.459,19.424Zm.984,0a.209.209,0,1,1-.418,0A.209.209,0,0,1,10.443,19.424Zm.983,0a.209.209,0,1,1-.418,0A.209.209,0,0,1,11.426,19.424Zm.984,0a.209.209,0,1,1-.418,0A.209.209,0,0,1,12.41,19.424Zm.983,0a.209.209,0,1,1-.417,0A.209.209,0,0,1,13.393,19.424Zm.984,0a.209.209,0,1,1-.418,0A.209.209,0,0,1,14.377,19.424Zm.984,0a.209.209,0,1,1-.417,0A.209.209,0,0,1,15.361,19.424Zm.984,0a.209.209,0,1,1-.418,0A.209.209,0,0,1,16.345,19.424Zm.983,0a.209.209,0,1,1-.417,0A.209.209,0,0,1,17.329,19.424Zm.984,0a.209.209,0,1,1-.417,0A.209.209,0,0,1,18.313,19.424Zm.984,0a.209.209,0,1,1-.417,0A.209.209,0,0,1,19.3,19.424Zm.566,0a.209.209,0,0,1,.418,0A.209.209,0,1,1,19.863,19.425Zm-13.847.491a.209.209,0,1,1-.418,0A.209.209,0,0,1,6.016,19.916Zm.983,0a.209.209,0,1,1-.418,0A.209.209,0,0,1,7,19.916Zm.984,0a.209.209,0,1,1-.418,0A.209.209,0,0,1,7.983,19.916Zm.984,0a.209.209,0,1,1-.418,0A.209.209,0,0,1,8.967,19.916Zm.983,0a.209.209,0,1,1-.418,0A.209.209,0,0,1,9.95,19.916Zm.984,0a.209.209,0,1,1-.417,0A.209.209,0,0,1,10.934,19.916Zm.984,0a.209.209,0,1,1-.418,0A.209.209,0,0,1,11.918,19.916Zm.983,0a.209.209,0,1,1-.417,0A.209.209,0,0,1,12.9,19.916Zm.984,0a.209.209,0,1,1-.418,0A.209.209,0,0,1,13.886,19.916Zm.984,0a.209.209,0,1,1-.417,0A.209.209,0,0,1,14.87,19.916Zm.984,0a.209.209,0,1,1-.418,0A.209.209,0,0,1,15.854,19.916Zm.983,0a.209.209,0,1,1-.418,0A.209.209,0,0,1,16.837,19.916Zm.984,0a.209.209,0,1,1-.418,0A.209.209,0,0,1,17.821,19.916Zm.983,0a.209.209,0,1,1-.417,0A.209.209,0,0,1,18.8,19.916Zm.566,0a.209.209,0,0,1,.418,0A.209.209,0,1,1,19.371,19.917Zm.984,0a.209.209,0,0,1,.417,0A.209.209,0,1,1,20.354,19.917Zm-14.831.491a.209.209,0,1,1-.418,0A.209.209,0,0,1,5.523,20.408Zm.984,0a.209.209,0,1,1-.418,0A.209.209,0,0,1,6.507,20.408Zm.984,0a.209.209,0,1,1-.418,0A.209.209,0,0,1,7.491,20.408Zm.983,0a.209.209,0,1,1-.418,0A.209.209,0,0,1,8.475,20.408Zm.984,0a.209.209,0,1,1-.418,0A.209.209,0,0,1,9.459,20.408Zm.984,0a.209.209,0,1,1-.418,0A.209.209,0,0,1,10.443,20.408Zm.983,0a.209.209,0,1,1-.418,0A.209.209,0,0,1,11.426,20.408Zm.984,0a.209.209,0,1,1-.418,0A.209.209,0,0,1,12.41,20.408Zm.983,0a.209.209,0,1,1-.417,0A.209.209,0,0,1,13.393,20.408Zm.984,0a.209.209,0,1,1-.418,0A.209.209,0,0,1,14.377,20.408Zm.984,0a.209.209,0,1,1-.417,0A.209.209,0,0,1,15.361,20.408Zm.984,0a.209.209,0,1,1-.418,0A.209.209,0,0,1,16.345,20.408Zm.983,0a.209.209,0,1,1-.417,0A.209.209,0,0,1,17.329,20.408Zm.984,0a.209.209,0,1,1-.417,0A.209.209,0,0,1,18.313,20.408Zm.984,0a.209.209,0,1,1-.417,0A.209.209,0,0,1,19.3,20.408Zm.566,0a.209.209,0,0,1,.418,0A.209.209,0,1,1,19.863,20.409Zm.984,0a.209.209,0,0,1,.417,0A.209.209,0,1,1,20.847,20.409ZM5.032,20.9a.209.209,0,1,1-.418,0A.209.209,0,0,1,5.032,20.9Zm.984,0a.209.209,0,1,1-.418,0A.209.209,0,0,1,6.016,20.9ZM7,20.9a.209.209,0,1,1-.418,0A.209.209,0,0,1,7,20.9Zm.984,0a.209.209,0,1,1-.418,0A.209.209,0,0,1,7.983,20.9Zm.984,0a.209.209,0,1,1-.418,0A.209.209,0,0,1,8.967,20.9Zm.983,0a.209.209,0,1,1-.418,0A.209.209,0,0,1,9.95,20.9Zm.984,0a.209.209,0,1,1-.417,0A.209.209,0,0,1,10.934,20.9Zm.984,0a.209.209,0,1,1-.418,0A.209.209,0,0,1,11.918,20.9Zm.983,0a.209.209,0,1,1-.417,0A.209.209,0,0,1,12.9,20.9Zm.984,0a.209.209,0,1,1-.418,0A.209.209,0,0,1,13.886,20.9Zm.984,0a.209.209,0,1,1-.417,0A.209.209,0,0,1,14.87,20.9Zm.984,0a.209.209,0,1,1-.418,0A.209.209,0,0,1,15.854,20.9Zm.983,0a.209.209,0,1,1-.418,0A.209.209,0,0,1,16.837,20.9Zm.984,0a.209.209,0,1,1-.418,0A.209.209,0,0,1,17.821,20.9Zm.983,0a.209.209,0,1,1-.417,0A.209.209,0,0,1,18.8,20.9Zm.566,0a.209.209,0,0,1,.418,0A.209.209,0,1,1,19.371,20.9Zm.984,0a.209.209,0,0,1,.417,0A.209.209,0,1,1,20.354,20.9Zm.984,0a.209.209,0,0,1,.417,0A.209.209,0,1,1,21.338,20.9Zm-15.815.491a.209.209,0,1,1-.418,0A.209.209,0,0,1,5.523,21.392Zm.984,0a.209.209,0,1,1-.418,0A.209.209,0,0,1,6.507,21.392Zm.984,0a.209.209,0,1,1-.418,0A.209.209,0,0,1,7.491,21.392Zm.983,0a.209.209,0,1,1-.418,0A.209.209,0,0,1,8.475,21.392Zm.984,0a.209.209,0,1,1-.418,0A.209.209,0,0,1,9.459,21.392Zm.984,0a.209.209,0,1,1-.418,0A.209.209,0,0,1,10.443,21.392Zm.983,0a.209.209,0,1,1-.418,0A.209.209,0,0,1,11.426,21.392Zm.984,0a.209.209,0,1,1-.418,0A.209.209,0,0,1,12.41,21.392Zm.983,0a.209.209,0,1,1-.417,0A.209.209,0,0,1,13.393,21.392Zm.984,0a.209.209,0,1,1-.418,0A.209.209,0,0,1,14.377,21.392Zm.984,0a.209.209,0,1,1-.417,0A.209.209,0,0,1,15.361,21.392Zm.984,0a.209.209,0,1,1-.418,0A.209.209,0,0,1,16.345,21.392Zm.983,0a.209.209,0,1,1-.417,0A.209.209,0,0,1,17.329,21.392Zm.984,0a.209.209,0,1,1-.417,0A.209.209,0,0,1,18.313,21.392Zm.984,0a.209.209,0,1,1-.417,0A.209.209,0,0,1,19.3,21.392Zm.566,0a.209.209,0,0,1,.418,0A.209.209,0,1,1,19.863,21.393Zm.984,0a.209.209,0,0,1,.417,0A.209.209,0,1,1,20.847,21.393Zm-15.815.49a.209.209,0,1,1-.418,0A.209.209,0,0,1,5.032,21.883Zm.984,0a.209.209,0,1,1-.418,0A.209.209,0,0,1,6.016,21.883Zm.983,0a.209.209,0,1,1-.418,0A.209.209,0,0,1,7,21.883Zm.984,0a.209.209,0,1,1-.418,0A.209.209,0,0,1,7.983,21.883Zm1.967,0a.209.209,0,1,1-.418,0A.209.209,0,0,1,9.95,21.883Zm.984,0a.209.209,0,1,1-.417,0A.209.209,0,0,1,10.934,21.883Zm.984,0a.209.209,0,1,1-.418,0A.209.209,0,0,1,11.918,21.883Zm.983,0a.209.209,0,1,1-.417,0A.209.209,0,0,1,12.9,21.883Zm.984,0a.209.209,0,1,1-.418,0A.209.209,0,0,1,13.886,21.883Zm.984,0a.209.209,0,1,1-.417,0A.209.209,0,0,1,14.87,21.883Zm.984,0a.209.209,0,1,1-.418,0A.209.209,0,0,1,15.854,21.883Zm.983,0a.209.209,0,1,1-.418,0A.209.209,0,0,1,16.837,21.883Zm1.967,0a.209.209,0,1,1-.417,0A.209.209,0,0,1,18.8,21.883Zm.566,0a.209.209,0,0,1,.418,0A.209.209,0,1,1,19.371,21.885Zm.984,0a.209.209,0,0,1,.417,0A.209.209,0,1,1,20.354,21.885Zm.984,0a.209.209,0,0,1,.417,0A.209.209,0,1,1,21.338,21.885Zm-15.815.491a.209.209,0,1,1-.418,0A.209.209,0,0,1,5.523,22.375Zm.984,0a.209.209,0,1,1-.418,0A.209.209,0,0,1,6.507,22.375Zm.984,0a.209.209,0,1,1-.418,0A.209.209,0,0,1,7.491,22.375Zm1.967,0a.209.209,0,1,1-.418,0A.209.209,0,0,1,9.459,22.375Zm.984,0a.209.209,0,1,1-.418,0A.209.209,0,0,1,10.443,22.375Zm.983,0a.209.209,0,1,1-.418,0A.209.209,0,0,1,11.426,22.375Zm.984,0a.209.209,0,1,1-.418,0A.209.209,0,0,1,12.41,22.375Zm.983,0a.209.209,0,1,1-.417,0A.209.209,0,0,1,13.393,22.375Zm.984,0a.209.209,0,1,1-.418,0A.209.209,0,0,1,14.377,22.375Zm.984,0a.209.209,0,1,1-.417,0A.209.209,0,0,1,15.361,22.375Zm.984,0a.209.209,0,1,1-.418,0A.209.209,0,0,1,16.345,22.375Zm.983,0a.209.209,0,1,1-.417,0A.209.209,0,0,1,17.329,22.375Zm1.968,0a.209.209,0,1,1-.417,0A.209.209,0,0,1,19.3,22.375Zm.566,0a.209.209,0,0,1,.418,0A.209.209,0,1,1,19.863,22.376Zm.984,0a.209.209,0,0,1,.417,0A.209.209,0,1,1,20.847,22.376Zm-14.831.491a.209.209,0,1,1-.418,0A.209.209,0,0,1,6.016,22.867Zm.983,0a.209.209,0,1,1-.418,0A.209.209,0,0,1,7,22.867Zm.984,0a.209.209,0,1,1-.418,0A.209.209,0,0,1,7.983,22.867Zm1.967,0a.209.209,0,1,1-.418,0A.209.209,0,0,1,9.95,22.867Zm.984,0a.209.209,0,1,1-.417,0A.209.209,0,0,1,10.934,22.867Zm.984,0a.209.209,0,1,1-.418,0A.209.209,0,0,1,11.918,22.867Zm.983,0a.209.209,0,1,1-.417,0A.209.209,0,0,1,12.9,22.867Zm.984,0a.209.209,0,1,1-.418,0A.209.209,0,0,1,13.886,22.867Zm.984,0a.209.209,0,1,1-.417,0A.209.209,0,0,1,14.87,22.867Zm.984,0a.209.209,0,1,1-.418,0A.209.209,0,0,1,15.854,22.867Zm.983,0a.209.209,0,1,1-.418,0A.209.209,0,0,1,16.837,22.867Zm2.533,0a.209.209,0,0,1,.418,0A.209.209,0,1,1,19.371,22.869Zm.984,0a.209.209,0,0,1,.417,0A.209.209,0,1,1,20.354,22.869Zm-13.847.491a.209.209,0,1,1-.418,0A.209.209,0,0,1,6.507,23.359Zm.984,0a.209.209,0,1,1-.418,0A.209.209,0,0,1,7.491,23.359Zm1.967,0a.209.209,0,1,1-.418,0A.209.209,0,0,1,9.459,23.359Zm.984,0a.209.209,0,1,1-.418,0A.209.209,0,0,1,10.443,23.359Zm.983,0a.209.209,0,1,1-.418,0A.209.209,0,0,1,11.426,23.359Zm.984,0a.209.209,0,1,1-.418,0A.209.209,0,0,1,12.41,23.359Zm.983,0a.209.209,0,1,1-.417,0A.209.209,0,0,1,13.393,23.359Zm.984,0a.209.209,0,1,1-.418,0A.209.209,0,0,1,14.377,23.359Zm.984,0a.209.209,0,1,1-.417,0A.209.209,0,0,1,15.361,23.359Zm.984,0a.209.209,0,1,1-.418,0A.209.209,0,0,1,16.345,23.359Zm.983,0a.209.209,0,1,1-.417,0A.209.209,0,0,1,17.329,23.359Zm1.968,0a.209.209,0,1,1-.417,0A.209.209,0,0,1,19.3,23.359Zm.566,0a.209.209,0,0,1,.418,0A.209.209,0,1,1,19.863,23.36Zm-9.912.491a.209.209,0,1,1-.418,0A.209.209,0,0,1,9.95,23.851Zm.984,0a.209.209,0,1,1-.417,0A.209.209,0,0,1,10.934,23.851Zm.984,0a.209.209,0,1,1-.418,0A.209.209,0,0,1,11.918,23.851Zm.983,0a.209.209,0,1,1-.417,0A.209.209,0,0,1,12.9,23.851Zm.984,0a.209.209,0,1,1-.418,0A.209.209,0,0,1,13.886,23.851Zm.984,0a.209.209,0,1,1-.417,0A.209.209,0,0,1,14.87,23.851Zm.984,0a.209.209,0,1,1-.418,0A.209.209,0,0,1,15.854,23.851Zm.983,0a.209.209,0,1,1-.418,0A.209.209,0,0,1,16.837,23.851Zm-7.378.492a.209.209,0,1,1-.418,0A.209.209,0,0,1,9.459,24.343Zm.984,0a.209.209,0,1,1-.418,0A.209.209,0,0,1,10.443,24.343Zm.983,0a.209.209,0,1,1-.418,0A.209.209,0,0,1,11.426,24.343Zm.984,0a.209.209,0,1,1-.418,0A.209.209,0,0,1,12.41,24.343Zm.983,0a.209.209,0,1,1-.417,0A.209.209,0,0,1,13.393,24.343Zm.984,0a.209.209,0,1,1-.418,0A.209.209,0,0,1,14.377,24.343Zm.984,0a.209.209,0,1,1-.417,0A.209.209,0,0,1,15.361,24.343Zm.984,0a.209.209,0,1,1-.418,0A.209.209,0,0,1,16.345,24.343Zm.983,0a.209.209,0,1,1-.417,0A.209.209,0,0,1,17.329,24.343Zm-7.378.492a.209.209,0,1,1-.418,0A.209.209,0,0,1,9.95,24.835Zm.984,0a.209.209,0,1,1-.417,0A.209.209,0,0,1,10.934,24.835Zm.984,0a.209.209,0,1,1-.418,0A.209.209,0,0,1,11.918,24.835Zm.983,0a.209.209,0,1,1-.417,0A.209.209,0,0,1,12.9,24.835Zm.984,0a.209.209,0,1,1-.418,0A.209.209,0,0,1,13.886,24.835Zm.984,0a.209.209,0,1,1-.417,0A.209.209,0,0,1,14.87,24.835Zm.984,0a.209.209,0,1,1-.418,0A.209.209,0,0,1,15.854,24.835Zm.983,0a.209.209,0,1,1-.418,0A.209.209,0,0,1,16.837,24.835Zm-7.378.492a.209.209,0,1,1-.418,0A.209.209,0,0,1,9.459,25.327Zm.984,0a.209.209,0,1,1-.418,0A.209.209,0,0,1,10.443,25.327Zm.983,0a.209.209,0,1,1-.418,0A.209.209,0,0,1,11.426,25.327Zm.984,0a.209.209,0,1,1-.418,0A.209.209,0,0,1,12.41,25.327Zm.983,0a.209.209,0,1,1-.417,0A.209.209,0,0,1,13.393,25.327Zm.984,0a.209.209,0,1,1-.418,0A.209.209,0,0,1,14.377,25.327Zm.984,0a.209.209,0,1,1-.417,0A.209.209,0,0,1,15.361,25.327Zm.984,0a.209.209,0,1,1-.418,0A.209.209,0,0,1,16.345,25.327Zm.983,0a.209.209,0,1,1-.417,0A.209.209,0,0,1,17.329,25.327Zm-7.378.492a.209.209,0,1,1-.418,0A.209.209,0,0,1,9.95,25.819Zm.984,0a.209.209,0,1,1-.417,0A.209.209,0,0,1,10.934,25.819Zm.984,0a.209.209,0,1,1-.418,0A.209.209,0,0,1,11.918,25.819Zm.983,0a.209.209,0,1,1-.417,0A.209.209,0,0,1,12.9,25.819Zm.984,0a.209.209,0,1,1-.418,0A.209.209,0,0,1,13.886,25.819Zm.984,0a.209.209,0,1,1-.417,0A.209.209,0,0,1,14.87,25.819Zm.984,0a.209.209,0,1,1-.418,0A.209.209,0,0,1,15.854,25.819Zm.983,0a.209.209,0,1,1-.418,0A.209.209,0,0,1,16.837,25.819Zm-7.378.492a.209.209,0,1,1-.418,0A.209.209,0,0,1,9.459,26.311Zm.984,0a.209.209,0,1,1-.418,0A.209.209,0,0,1,10.443,26.311Zm.983,0a.209.209,0,1,1-.418,0A.209.209,0,0,1,11.426,26.311Zm.984,0a.209.209,0,1,1-.418,0A.209.209,0,0,1,12.41,26.311Zm.983,0a.209.209,0,1,1-.417,0A.209.209,0,0,1,13.393,26.311Zm.984,0a.209.209,0,1,1-.418,0A.209.209,0,0,1,14.377,26.311Zm.984,0a.209.209,0,1,1-.417,0A.209.209,0,0,1,15.361,26.311Zm.984,0a.209.209,0,1,1-.418,0A.209.209,0,0,1,16.345,26.311Zm.983,0a.209.209,0,1,1-.417,0A.209.209,0,0,1,17.329,26.311ZM9.95,26.8a.209.209,0,1,1-.418,0A.209.209,0,0,1,9.95,26.8Zm.984,0a.209.209,0,1,1-.417,0A.209.209,0,0,1,10.934,26.8Zm.984,0a.209.209,0,1,1-.418,0A.209.209,0,0,1,11.918,26.8Zm.983,0a.209.209,0,1,1-.417,0A.209.209,0,0,1,12.9,26.8Zm.984,0a.209.209,0,1,1-.418,0A.209.209,0,0,1,13.886,26.8Zm.984,0a.209.209,0,1,1-.417,0A.209.209,0,0,1,14.87,26.8Zm.984,0a.209.209,0,1,1-.418,0A.209.209,0,0,1,15.854,26.8Zm.983,0a.209.209,0,1,1-.418,0A.209.209,0,0,1,16.837,26.8Zm-7.378.492a.209.209,0,1,1-.418,0A.209.209,0,0,1,9.459,27.295Zm.984,0a.209.209,0,1,1-.418,0A.209.209,0,0,1,10.443,27.295Zm.983,0a.209.209,0,1,1-.418,0A.209.209,0,0,1,11.426,27.295Zm.984,0a.209.209,0,1,1-.418,0A.209.209,0,0,1,12.41,27.295Zm.983,0a.209.209,0,1,1-.417,0A.209.209,0,0,1,13.393,27.295Zm.984,0a.209.209,0,1,1-.418,0A.209.209,0,0,1,14.377,27.295Zm.984,0a.209.209,0,1,1-.417,0A.209.209,0,0,1,15.361,27.295Zm.984,0a.209.209,0,1,1-.418,0A.209.209,0,0,1,16.345,27.295Zm.983,0a.209.209,0,1,1-.417,0A.209.209,0,0,1,17.329,27.295Zm-7.378.492a.209.209,0,1,1-.418,0A.209.209,0,0,1,9.95,27.787Zm.984,0a.209.209,0,1,1-.417,0A.209.209,0,0,1,10.934,27.787Zm.984,0a.209.209,0,1,1-.418,0A.209.209,0,0,1,11.918,27.787Zm.983,0a.209.209,0,1,1-.417,0A.209.209,0,0,1,12.9,27.787Zm.984,0a.209.209,0,1,1-.418,0A.209.209,0,0,1,13.886,27.787Zm.984,0a.209.209,0,1,1-.417,0A.209.209,0,0,1,14.87,27.787Zm.984,0a.209.209,0,1,1-.418,0A.209.209,0,0,1,15.854,27.787Zm.983,0a.209.209,0,1,1-.418,0A.209.209,0,0,1,16.837,27.787Zm-7.378.492a.209.209,0,1,1-.418,0A.209.209,0,0,1,9.459,28.279Zm.984,0a.209.209,0,1,1-.418,0A.209.209,0,0,1,10.443,28.279Zm.983,0a.209.209,0,1,1-.418,0A.209.209,0,0,1,11.426,28.279Zm.984,0a.209.209,0,1,1-.418,0A.209.209,0,0,1,12.41,28.279Zm.983,0a.209.209,0,1,1-.417,0A.209.209,0,0,1,13.393,28.279Zm.984,0a.209.209,0,1,1-.418,0A.209.209,0,0,1,14.377,28.279Zm.984,0a.209.209,0,1,1-.417,0A.209.209,0,0,1,15.361,28.279Zm.984,0a.209.209,0,1,1-.418,0A.209.209,0,0,1,16.345,28.279Zm.983,0a.209.209,0,1,1-.417,0A.209.209,0,0,1,17.329,28.279ZM9.95,28.77a.209.209,0,1,1-.418,0A.209.209,0,0,1,9.95,28.77Zm.984,0a.209.209,0,1,1-.417,0A.209.209,0,0,1,10.934,28.77Zm.984,0a.209.209,0,1,1-.418,0A.209.209,0,0,1,11.918,28.77Zm.983,0a.209.209,0,1,1-.417,0A.209.209,0,0,1,12.9,28.77Zm.984,0a.209.209,0,1,1-.418,0A.209.209,0,0,1,13.886,28.77Zm.984,0a.209.209,0,1,1-.417,0A.209.209,0,0,1,14.87,28.77Zm.984,0a.209.209,0,1,1-.418,0A.209.209,0,0,1,15.854,28.77Zm.983,0a.209.209,0,1,1-.418,0A.209.209,0,0,1,16.837,28.77Zm-7.378.492a.209.209,0,1,1-.418,0A.209.209,0,0,1,9.459,29.262Zm.984,0a.209.209,0,1,1-.418,0A.209.209,0,0,1,10.443,29.262Zm.983,0a.209.209,0,1,1-.418,0A.209.209,0,0,1,11.426,29.262Zm.984,0a.209.209,0,1,1-.418,0A.209.209,0,0,1,12.41,29.262Zm.983,0a.209.209,0,1,1-.417,0A.209.209,0,0,1,13.393,29.262Zm.984,0a.209.209,0,1,1-.418,0A.209.209,0,0,1,14.377,29.262Zm.984,0a.209.209,0,1,1-.417,0A.209.209,0,0,1,15.361,29.262Zm.984,0a.209.209,0,1,1-.418,0A.209.209,0,0,1,16.345,29.262Zm.983,0a.209.209,0,1,1-.417,0A.209.209,0,0,1,17.329,29.262ZM30.693,44.021a.209.209,0,0,1,.418,0A.209.209,0,1,1,30.693,44.021Zm.984,0a.209.209,0,0,1,.418,0A.209.209,0,1,1,31.677,44.021Zm.983,0a.209.209,0,0,1,.418,0A.209.209,0,1,1,32.66,44.021Zm-2.459.492a.209.209,0,0,1,.418,0A.209.209,0,1,1,30.2,44.514Zm.983,0a.209.209,0,0,1,.418,0A.209.209,0,1,1,31.185,44.514Zm.984,0a.209.209,0,0,1,.418,0A.209.209,0,1,1,32.169,44.514Zm.983,0a.209.209,0,0,1,.418,0A.209.209,0,1,1,33.152,44.514Zm-2.46.492a.209.209,0,0,1,.418,0A.209.209,0,1,1,30.693,45.005Zm.984,0a.209.209,0,0,1,.418,0A.209.209,0,1,1,31.677,45.005Zm.983,0a.209.209,0,0,1,.418,0A.209.209,0,1,1,32.66,45.005ZM30.2,45.5a.209.209,0,0,1,.418,0A.209.209,0,1,1,30.2,45.5Zm.983,0a.209.209,0,0,1,.418,0A.209.209,0,1,1,31.185,45.5Zm.984,0a.209.209,0,0,1,.418,0A.209.209,0,1,1,32.169,45.5Zm.983,0a.209.209,0,0,1,.418,0A.209.209,0,1,1,33.152,45.5Zm-2.46.492a.209.209,0,0,1,.418,0A.209.209,0,1,1,30.693,45.989Zm.984,0a.209.209,0,0,1,.418,0A.209.209,0,1,1,31.677,45.989Zm.983,0a.209.209,0,0,1,.418,0A.209.209,0,1,1,32.66,45.989Zm-1.476.492a.209.209,0,0,1,.418,0A.209.209,0,1,1,31.185,46.481Zm.984,0a.209.209,0,0,1,.418,0A.209.209,0,1,1,32.169,46.481Zm3.443-2.46a.209.209,0,0,1,.417,0A.209.209,0,1,1,35.612,44.021Zm.984,0a.209.209,0,0,1,.418,0A.209.209,0,1,1,36.6,44.021Zm.983,0a.209.209,0,0,1,.418,0A.209.209,0,1,1,37.579,44.021Zm.984,0a.209.209,0,0,1,.418,0A.209.209,0,1,1,38.563,44.021Zm-3.444.492a.209.209,0,0,1,.418,0A.209.209,0,1,1,35.12,44.514Zm.984,0a.209.209,0,0,1,.418,0A.209.209,0,1,1,36.1,44.514Zm.984,0a.209.209,0,0,1,.417,0A.209.209,0,1,1,37.088,44.514Zm.983,0a.209.209,0,0,1,.418,0A.209.209,0,1,1,38.071,44.514Zm-2.459.492a.209.209,0,0,1,.417,0A.209.209,0,1,1,35.612,45.005Zm.984,0a.209.209,0,0,1,.418,0A.209.209,0,1,1,36.6,45.005Zm.983,0A.209.209,0,0,1,38,45,.209.209,0,1,1,37.579,45.005Zm.984,0a.209.209,0,0,1,.418,0A.209.209,0,1,1,38.563,45.005ZM35.12,45.5a.209.209,0,0,1,.418,0A.209.209,0,1,1,35.12,45.5Zm.984,0a.209.209,0,0,1,.418,0A.209.209,0,1,1,36.1,45.5Zm.984,0a.209.209,0,0,1,.417,0A.209.209,0,1,1,37.088,45.5Zm.983,0a.209.209,0,0,1,.418,0A.209.209,0,1,1,38.071,45.5Zm-2.459.492a.209.209,0,0,1,.417,0A.209.209,0,1,1,35.612,45.989Zm.984,0a.209.209,0,0,1,.418,0A.209.209,0,1,1,36.6,45.989Zm.983,0a.209.209,0,0,1,.418,0A.209.209,0,1,1,37.579,45.989Zm-1.476.492a.209.209,0,0,1,.418,0A.209.209,0,1,1,36.1,46.481Zm.984,0a.209.209,0,0,1,.417,0A.209.209,0,1,1,37.088,46.481ZM31.111,16.472a.209.209,0,1,1-.418,0A.209.209,0,0,1,31.111,16.472Zm7.871,0a.209.209,0,1,1-.418,0A.209.209,0,0,1,38.981,16.472Zm-9.347.492a.209.209,0,1,1-.417,0A.209.209,0,0,1,29.635,16.964Zm.984,0a.209.209,0,1,1-.418,0A.209.209,0,0,1,30.619,16.964Zm7.87,0a.209.209,0,1,1-.418,0A.209.209,0,0,1,38.489,16.964Zm.984,0a.209.209,0,1,1-.417,0A.209.209,0,0,1,39.473,16.964Zm-10.33.492a.209.209,0,1,1-.418,0A.209.209,0,0,1,29.143,17.456Zm.984,0a.209.209,0,1,1-.418,0A.209.209,0,0,1,30.127,17.456Zm.983,0a.209.209,0,1,1-.418,0A.209.209,0,0,1,31.111,17.456Zm6.887,0a.209.209,0,1,1-.418,0A.209.209,0,0,1,38,17.456Zm.984,0a.209.209,0,1,1-.418,0A.209.209,0,0,1,38.981,17.456Zm.983,0a.209.209,0,1,1-.418,0A.209.209,0,0,1,39.965,17.456Zm-11.314.492a.209.209,0,1,1-.418,0A.209.209,0,0,1,28.651,17.948Zm.983,0a.209.209,0,1,1-.417,0A.209.209,0,0,1,29.635,17.948Zm.984,0a.209.209,0,1,1-.418,0A.209.209,0,0,1,30.619,17.948Zm.983,0a.209.209,0,1,1-.418,0A.209.209,0,0,1,31.6,17.948Zm5.9,0a.209.209,0,1,1-.417,0A.209.209,0,0,1,37.505,17.948Zm.984,0a.209.209,0,1,1-.418,0A.209.209,0,0,1,38.489,17.948Zm.984,0a.209.209,0,1,1-.417,0A.209.209,0,0,1,39.473,17.948Zm.566,0a.209.209,0,0,1,.418,0A.209.209,0,1,1,40.039,17.949Zm-11.88.49a.209.209,0,1,1-.417,0A.209.209,0,0,1,28.159,18.44Zm.984,0a.209.209,0,1,1-.418,0A.209.209,0,0,1,29.143,18.44Zm.984,0a.209.209,0,1,1-.418,0A.209.209,0,0,1,30.127,18.44Zm.983,0a.209.209,0,1,1-.418,0A.209.209,0,0,1,31.111,18.44Zm.983,0a.209.209,0,1,1-.418,0A.209.209,0,0,1,32.094,18.44Zm4.92,0a.209.209,0,1,1-.418,0A.209.209,0,0,1,37.014,18.44Zm.983,0a.209.209,0,1,1-.418,0A.209.209,0,0,1,38,18.44Zm.984,0a.209.209,0,1,1-.418,0A.209.209,0,0,1,38.981,18.44Zm.983,0a.209.209,0,1,1-.418,0A.209.209,0,0,1,39.965,18.44Zm.566,0a.209.209,0,0,1,.418,0A.209.209,0,1,1,40.531,18.441Zm-12.864.491a.209.209,0,1,1-.418,0A.209.209,0,0,1,27.667,18.932Zm.984,0a.209.209,0,1,1-.418,0A.209.209,0,0,1,28.651,18.932Zm.983,0a.209.209,0,1,1-.417,0A.209.209,0,0,1,29.635,18.932Zm.984,0a.209.209,0,1,1-.418,0A.209.209,0,0,1,30.619,18.932Zm.983,0a.209.209,0,1,1-.418,0A.209.209,0,0,1,31.6,18.932Zm.984,0a.209.209,0,1,1-.418,0A.209.209,0,0,1,32.587,18.932Zm.983,0a.209.209,0,1,1-.418,0A.209.209,0,0,1,33.57,18.932Zm1.967,0a.209.209,0,1,1-.418,0A.209.209,0,0,1,35.538,18.932Zm.983,0a.209.209,0,1,1-.418,0A.209.209,0,0,1,36.521,18.932Zm.984,0a.209.209,0,1,1-.417,0A.209.209,0,0,1,37.505,18.932Zm.984,0a.209.209,0,1,1-.418,0A.209.209,0,0,1,38.489,18.932Zm.984,0a.209.209,0,1,1-.417,0A.209.209,0,0,1,39.473,18.932Zm.566,0a.209.209,0,0,1,.418,0A.209.209,0,1,1,40.039,18.933Zm.984,0a.209.209,0,0,1,.418,0A.209.209,0,1,1,41.023,18.933Zm-13.848.491a.209.209,0,1,1-.418,0A.209.209,0,0,1,27.175,19.424Zm.984,0a.209.209,0,1,1-.417,0A.209.209,0,0,1,28.159,19.424Zm.984,0a.209.209,0,1,1-.418,0A.209.209,0,0,1,29.143,19.424Zm.984,0a.209.209,0,1,1-.418,0A.209.209,0,0,1,30.127,19.424Zm.983,0a.209.209,0,1,1-.418,0A.209.209,0,0,1,31.111,19.424Zm.983,0a.209.209,0,1,1-.418,0A.209.209,0,0,1,32.094,19.424Zm.984,0a.209.209,0,1,1-.418,0A.209.209,0,0,1,33.078,19.424Zm.983,0a.209.209,0,1,1-.417,0A.209.209,0,0,1,34.062,19.424Zm.984,0a.209.209,0,1,1-.418,0A.209.209,0,0,1,35.046,19.424Zm.983,0a.209.209,0,1,1-.417,0A.209.209,0,0,1,36.029,19.424Zm.984,0a.209.209,0,1,1-.418,0A.209.209,0,0,1,37.014,19.424Zm.983,0a.209.209,0,1,1-.418,0A.209.209,0,0,1,38,19.424Zm.984,0a.209.209,0,1,1-.418,0A.209.209,0,0,1,38.981,19.424Zm.983,0a.209.209,0,1,1-.418,0A.209.209,0,0,1,39.965,19.424Zm.566,0a.209.209,0,0,1,.418,0A.209.209,0,1,1,40.531,19.425Zm.984,0a.209.209,0,0,1,.417,0A.209.209,0,1,1,41.515,19.425Zm-13.848.491a.209.209,0,1,1-.418,0A.209.209,0,0,1,27.667,19.916Zm.984,0a.209.209,0,1,1-.418,0A.209.209,0,0,1,28.651,19.916Zm.983,0a.209.209,0,1,1-.417,0A.209.209,0,0,1,29.635,19.916Zm.984,0a.209.209,0,1,1-.418,0A.209.209,0,0,1,30.619,19.916Zm.983,0a.209.209,0,1,1-.418,0A.209.209,0,0,1,31.6,19.916Zm.984,0a.209.209,0,1,1-.418,0A.209.209,0,0,1,32.587,19.916Zm.983,0a.209.209,0,1,1-.418,0A.209.209,0,0,1,33.57,19.916Zm.984,0a.209.209,0,1,1-.418,0A.209.209,0,0,1,34.554,19.916Zm.983,0a.209.209,0,1,1-.418,0A.209.209,0,0,1,35.538,19.916Zm.983,0a.209.209,0,1,1-.418,0A.209.209,0,0,1,36.521,19.916Zm.984,0a.209.209,0,1,1-.417,0A.209.209,0,0,1,37.505,19.916Zm.984,0a.209.209,0,1,1-.418,0A.209.209,0,0,1,38.489,19.916Zm.984,0a.209.209,0,1,1-.417,0A.209.209,0,0,1,39.473,19.916Zm.566,0a.209.209,0,0,1,.418,0A.209.209,0,1,1,40.039,19.917Zm.984,0a.209.209,0,0,1,.418,0A.209.209,0,1,1,41.023,19.917Zm.983,0a.209.209,0,0,1,.418,0A.209.209,0,1,1,42.007,19.917Zm-14.831.491a.209.209,0,1,1-.418,0A.209.209,0,0,1,27.175,20.408Zm.984,0a.209.209,0,1,1-.417,0A.209.209,0,0,1,28.159,20.408Zm.984,0a.209.209,0,1,1-.418,0A.209.209,0,0,1,29.143,20.408Zm.984,0a.209.209,0,1,1-.418,0A.209.209,0,0,1,30.127,20.408Zm.983,0a.209.209,0,1,1-.418,0A.209.209,0,0,1,31.111,20.408Zm.983,0a.209.209,0,1,1-.418,0A.209.209,0,0,1,32.094,20.408Zm.984,0a.209.209,0,1,1-.418,0A.209.209,0,0,1,33.078,20.408Zm.983,0a.209.209,0,1,1-.417,0A.209.209,0,0,1,34.062,20.408Zm.984,0a.209.209,0,1,1-.418,0A.209.209,0,0,1,35.046,20.408Zm.983,0a.209.209,0,1,1-.417,0A.209.209,0,0,1,36.029,20.408Zm.984,0a.209.209,0,1,1-.418,0A.209.209,0,0,1,37.014,20.408Zm.983,0a.209.209,0,1,1-.418,0A.209.209,0,0,1,38,20.408Zm.984,0a.209.209,0,1,1-.418,0A.209.209,0,0,1,38.981,20.408Zm.983,0a.209.209,0,1,1-.418,0A.209.209,0,0,1,39.965,20.408Zm.566,0a.209.209,0,0,1,.418,0A.209.209,0,1,1,40.531,20.409Zm.984,0a.209.209,0,0,1,.417,0A.209.209,0,1,1,41.515,20.409Zm-14.831.49a.209.209,0,1,1-.418,0A.209.209,0,0,1,26.684,20.9Zm.983,0a.209.209,0,1,1-.418,0A.209.209,0,0,1,27.667,20.9Zm.984,0a.209.209,0,1,1-.418,0A.209.209,0,0,1,28.651,20.9Zm.983,0a.209.209,0,1,1-.417,0A.209.209,0,0,1,29.635,20.9Zm.984,0a.209.209,0,1,1-.418,0A.209.209,0,0,1,30.619,20.9Zm.983,0a.209.209,0,1,1-.418,0A.209.209,0,0,1,31.6,20.9Zm.984,0a.209.209,0,1,1-.418,0A.209.209,0,0,1,32.587,20.9Zm.983,0a.209.209,0,1,1-.418,0A.209.209,0,0,1,33.57,20.9Zm.984,0a.209.209,0,1,1-.418,0A.209.209,0,0,1,34.554,20.9Zm.983,0a.209.209,0,1,1-.418,0A.209.209,0,0,1,35.538,20.9Zm.983,0a.209.209,0,1,1-.418,0A.209.209,0,0,1,36.521,20.9Zm.984,0a.209.209,0,1,1-.417,0A.209.209,0,0,1,37.505,20.9Zm.984,0a.209.209,0,1,1-.418,0A.209.209,0,0,1,38.489,20.9Zm.984,0a.209.209,0,1,1-.417,0A.209.209,0,0,1,39.473,20.9Zm.566,0a.209.209,0,0,1,.418,0A.209.209,0,1,1,40.039,20.9Zm.984,0a.209.209,0,0,1,.418,0A.209.209,0,1,1,41.023,20.9Zm.983,0a.209.209,0,0,1,.418,0A.209.209,0,1,1,42.007,20.9Zm-15.815.491a.209.209,0,1,1-.417,0A.209.209,0,0,1,26.191,21.392Zm.984,0a.209.209,0,1,1-.418,0A.209.209,0,0,1,27.175,21.392Zm.984,0a.209.209,0,1,1-.417,0A.209.209,0,0,1,28.159,21.392Zm.984,0a.209.209,0,1,1-.418,0A.209.209,0,0,1,29.143,21.392Zm.984,0a.209.209,0,1,1-.418,0A.209.209,0,0,1,30.127,21.392Zm.983,0a.209.209,0,1,1-.418,0A.209.209,0,0,1,31.111,21.392Zm.983,0a.209.209,0,1,1-.418,0A.209.209,0,0,1,32.094,21.392Zm.984,0a.209.209,0,1,1-.418,0A.209.209,0,0,1,33.078,21.392Zm.983,0a.209.209,0,1,1-.417,0A.209.209,0,0,1,34.062,21.392Zm.984,0a.209.209,0,1,1-.418,0A.209.209,0,0,1,35.046,21.392Zm.983,0a.209.209,0,1,1-.417,0A.209.209,0,0,1,36.029,21.392Zm.984,0a.209.209,0,1,1-.418,0A.209.209,0,0,1,37.014,21.392Zm.983,0a.209.209,0,1,1-.418,0A.209.209,0,0,1,38,21.392Zm.984,0a.209.209,0,1,1-.418,0A.209.209,0,0,1,38.981,21.392Zm.983,0a.209.209,0,1,1-.418,0A.209.209,0,0,1,39.965,21.392Zm.566,0a.209.209,0,0,1,.418,0A.209.209,0,1,1,40.531,21.393Zm.984,0a.209.209,0,0,1,.417,0A.209.209,0,1,1,41.515,21.393Zm.983,0a.209.209,0,0,1,.418,0A.209.209,0,1,1,42.5,21.393Zm-15.815.49a.209.209,0,1,1-.418,0A.209.209,0,0,1,26.684,21.883Zm.983,0a.209.209,0,1,1-.418,0A.209.209,0,0,1,27.667,21.883Zm.984,0a.209.209,0,1,1-.418,0A.209.209,0,0,1,28.651,21.883Zm.983,0a.209.209,0,1,1-.417,0A.209.209,0,0,1,29.635,21.883Zm.984,0a.209.209,0,1,1-.418,0A.209.209,0,0,1,30.619,21.883Zm.983,0a.209.209,0,1,1-.418,0A.209.209,0,0,1,31.6,21.883Zm.984,0a.209.209,0,1,1-.418,0A.209.209,0,0,1,32.587,21.883Zm.983,0a.209.209,0,1,1-.418,0A.209.209,0,0,1,33.57,21.883Zm.984,0a.209.209,0,1,1-.418,0A.209.209,0,0,1,34.554,21.883Zm.983,0a.209.209,0,1,1-.418,0A.209.209,0,0,1,35.538,21.883Zm.983,0a.209.209,0,1,1-.418,0A.209.209,0,0,1,36.521,21.883Zm.984,0a.209.209,0,1,1-.417,0A.209.209,0,0,1,37.505,21.883Zm.984,0a.209.209,0,1,1-.418,0A.209.209,0,0,1,38.489,21.883Zm1.55,0a.209.209,0,0,1,.418,0A.209.209,0,1,1,40.039,21.885Zm.984,0a.209.209,0,0,1,.418,0A.209.209,0,1,1,41.023,21.885Zm.983,0a.209.209,0,0,1,.418,0A.209.209,0,1,1,42.007,21.885Zm.984,0a.209.209,0,0,1,.418,0A.209.209,0,1,1,42.99,21.885Zm-16.8.491a.209.209,0,1,1-.417,0A.209.209,0,0,1,26.191,22.375Zm.984,0a.209.209,0,1,1-.418,0A.209.209,0,0,1,27.175,22.375Zm.984,0a.209.209,0,1,1-.417,0A.209.209,0,0,1,28.159,22.375Zm.984,0a.209.209,0,1,1-.418,0A.209.209,0,0,1,29.143,22.375Zm1.967,0a.209.209,0,1,1-.418,0A.209.209,0,0,1,31.111,22.375Zm.983,0a.209.209,0,1,1-.418,0A.209.209,0,0,1,32.094,22.375Zm.984,0a.209.209,0,1,1-.418,0A.209.209,0,0,1,33.078,22.375Zm.983,0a.209.209,0,1,1-.417,0A.209.209,0,0,1,34.062,22.375Zm.984,0a.209.209,0,1,1-.418,0A.209.209,0,0,1,35.046,22.375Zm.983,0a.209.209,0,1,1-.417,0A.209.209,0,0,1,36.029,22.375Zm.984,0a.209.209,0,1,1-.418,0A.209.209,0,0,1,37.014,22.375Zm.983,0a.209.209,0,1,1-.418,0A.209.209,0,0,1,38,22.375Zm.984,0a.209.209,0,1,1-.418,0A.209.209,0,0,1,38.981,22.375Zm.983,0a.209.209,0,1,1-.418,0A.209.209,0,0,1,39.965,22.375Zm.566,0a.209.209,0,0,1,.418,0A.209.209,0,1,1,40.531,22.376Zm.984,0a.209.209,0,0,1,.417,0A.209.209,0,1,1,41.515,22.376Zm.983,0a.209.209,0,0,1,.418,0A.209.209,0,1,1,42.5,22.376Zm-16.8.491a.209.209,0,1,1-.418,0A.209.209,0,0,1,25.7,22.867Zm.983,0a.209.209,0,1,1-.418,0A.209.209,0,0,1,26.684,22.867Zm.983,0a.209.209,0,1,1-.418,0A.209.209,0,0,1,27.667,22.867Zm.984,0a.209.209,0,1,1-.418,0A.209.209,0,0,1,28.651,22.867Zm1.968,0a.209.209,0,1,1-.418,0A.209.209,0,0,1,30.619,22.867Zm.983,0a.209.209,0,1,1-.418,0A.209.209,0,0,1,31.6,22.867Zm.984,0a.209.209,0,1,1-.418,0A.209.209,0,0,1,32.587,22.867Zm.983,0a.209.209,0,1,1-.418,0A.209.209,0,0,1,33.57,22.867Zm.984,0a.209.209,0,1,1-.418,0A.209.209,0,0,1,34.554,22.867Zm.983,0a.209.209,0,1,1-.418,0A.209.209,0,0,1,35.538,22.867Zm.983,0a.209.209,0,1,1-.418,0A.209.209,0,0,1,36.521,22.867Zm.984,0a.209.209,0,1,1-.417,0A.209.209,0,0,1,37.505,22.867Zm.984,0a.209.209,0,1,1-.418,0A.209.209,0,0,1,38.489,22.867Zm1.968,0a.209.209,0,1,1-.418,0A.209.209,0,0,1,40.457,22.867Zm.566,0a.209.209,0,0,1,.418,0A.209.209,0,1,1,41.023,22.869Zm.983,0a.209.209,0,0,1,.418,0A.209.209,0,1,1,42.007,22.869Zm.984,0a.209.209,0,0,1,.418,0A.209.209,0,1,1,42.99,22.869Zm-15.815.491a.209.209,0,1,1-.418,0A.209.209,0,0,1,27.175,23.359Zm.984,0a.209.209,0,1,1-.417,0A.209.209,0,0,1,28.159,23.359Zm1.968,0a.209.209,0,1,1-.418,0A.209.209,0,0,1,30.127,23.359Zm.983,0a.209.209,0,1,1-.418,0A.209.209,0,0,1,31.111,23.359Zm.983,0a.209.209,0,1,1-.418,0A.209.209,0,0,1,32.094,23.359Zm.984,0a.209.209,0,1,1-.418,0A.209.209,0,0,1,33.078,23.359Zm.983,0a.209.209,0,1,1-.417,0A.209.209,0,0,1,34.062,23.359Zm.984,0a.209.209,0,1,1-.418,0A.209.209,0,0,1,35.046,23.359Zm.983,0a.209.209,0,1,1-.417,0A.209.209,0,0,1,36.029,23.359Zm.984,0a.209.209,0,1,1-.418,0A.209.209,0,0,1,37.014,23.359Zm.983,0a.209.209,0,1,1-.418,0A.209.209,0,0,1,38,23.359Zm.984,0a.209.209,0,1,1-.418,0A.209.209,0,0,1,38.981,23.359Zm1.55,0a.209.209,0,0,1,.418,0A.209.209,0,1,1,40.531,23.36Zm.984,0a.209.209,0,0,1,.417,0A.209.209,0,1,1,41.515,23.36Zm.983,0a.209.209,0,0,1,.418,0A.209.209,0,1,1,42.5,23.36Zm-14.831.491a.209.209,0,1,1-.418,0A.209.209,0,0,1,27.667,23.851Zm.984,0a.209.209,0,1,1-.418,0A.209.209,0,0,1,28.651,23.851Zm1.968,0a.209.209,0,1,1-.418,0A.209.209,0,0,1,30.619,23.851Zm.983,0a.209.209,0,1,1-.418,0A.209.209,0,0,1,31.6,23.851Zm.984,0a.209.209,0,1,1-.418,0A.209.209,0,0,1,32.587,23.851Zm.983,0a.209.209,0,1,1-.418,0A.209.209,0,0,1,33.57,23.851Zm.984,0a.209.209,0,1,1-.418,0A.209.209,0,0,1,34.554,23.851Zm.983,0a.209.209,0,1,1-.418,0A.209.209,0,0,1,35.538,23.851Zm.983,0a.209.209,0,1,1-.418,0A.209.209,0,0,1,36.521,23.851Zm.984,0a.209.209,0,1,1-.417,0A.209.209,0,0,1,37.505,23.851Zm.984,0a.209.209,0,1,1-.418,0A.209.209,0,0,1,38.489,23.851Zm2.534,0a.209.209,0,0,1,.418,0A.209.209,0,1,1,41.023,23.853Zm-12.864.49a.209.209,0,1,1-.417,0A.209.209,0,0,1,28.159,24.343Zm1.968,0a.209.209,0,1,1-.418,0A.209.209,0,0,1,30.127,24.343Zm.983,0a.209.209,0,1,1-.418,0A.209.209,0,0,1,31.111,24.343Zm.983,0a.209.209,0,1,1-.418,0A.209.209,0,0,1,32.094,24.343Zm.984,0a.209.209,0,1,1-.418,0A.209.209,0,0,1,33.078,24.343Zm.983,0a.209.209,0,1,1-.417,0A.209.209,0,0,1,34.062,24.343Zm.984,0a.209.209,0,1,1-.418,0A.209.209,0,0,1,35.046,24.343Zm.983,0a.209.209,0,1,1-.417,0A.209.209,0,0,1,36.029,24.343Zm.984,0a.209.209,0,1,1-.418,0A.209.209,0,0,1,37.014,24.343Zm.983,0a.209.209,0,1,1-.418,0A.209.209,0,0,1,38,24.343Zm.984,0a.209.209,0,1,1-.418,0A.209.209,0,0,1,38.981,24.343Zm1.55,0a.209.209,0,0,1,.418,0A.209.209,0,1,1,40.531,24.344Zm-9.912.491a.209.209,0,1,1-.418,0A.209.209,0,0,1,30.619,24.835Zm.983,0a.209.209,0,1,1-.418,0A.209.209,0,0,1,31.6,24.835Zm.984,0a.209.209,0,1,1-.418,0A.209.209,0,0,1,32.587,24.835Zm.983,0a.209.209,0,1,1-.418,0A.209.209,0,0,1,33.57,24.835Zm.984,0a.209.209,0,1,1-.418,0A.209.209,0,0,1,34.554,24.835Zm.983,0a.209.209,0,1,1-.418,0A.209.209,0,0,1,35.538,24.835Zm.983,0a.209.209,0,1,1-.418,0A.209.209,0,0,1,36.521,24.835Zm.984,0a.209.209,0,1,1-.417,0A.209.209,0,0,1,37.505,24.835Zm.984,0a.209.209,0,1,1-.418,0A.209.209,0,0,1,38.489,24.835Zm.567,0a.209.209,0,0,1,.417,0A.209.209,0,1,1,39.056,24.836Zm-8.928.491a.209.209,0,1,1-.418,0A.209.209,0,0,1,30.127,25.327Zm.983,0a.209.209,0,1,1-.418,0A.209.209,0,0,1,31.111,25.327Zm.983,0a.209.209,0,1,1-.418,0A.209.209,0,0,1,32.094,25.327Zm.984,0a.209.209,0,1,1-.418,0A.209.209,0,0,1,33.078,25.327Zm.983,0a.209.209,0,1,1-.417,0A.209.209,0,0,1,34.062,25.327Zm.984,0a.209.209,0,1,1-.418,0A.209.209,0,0,1,35.046,25.327Zm.983,0a.209.209,0,1,1-.417,0A.209.209,0,0,1,36.029,25.327Zm.984,0a.209.209,0,1,1-.418,0A.209.209,0,0,1,37.014,25.327Zm.983,0a.209.209,0,1,1-.418,0A.209.209,0,0,1,38,25.327Zm.984,0a.209.209,0,1,1-.418,0A.209.209,0,0,1,38.981,25.327Zm-9.347.492a.209.209,0,1,1-.417,0A.209.209,0,0,1,29.635,25.819Zm.984,0a.209.209,0,1,1-.418,0A.209.209,0,0,1,30.619,25.819Zm.983,0a.209.209,0,1,1-.418,0A.209.209,0,0,1,31.6,25.819Zm.984,0a.209.209,0,1,1-.418,0A.209.209,0,0,1,32.587,25.819Zm.983,0a.209.209,0,1,1-.418,0A.209.209,0,0,1,33.57,25.819Zm.984,0a.209.209,0,1,1-.418,0A.209.209,0,0,1,34.554,25.819Zm.983,0a.209.209,0,1,1-.418,0A.209.209,0,0,1,35.538,25.819Zm.983,0a.209.209,0,1,1-.418,0A.209.209,0,0,1,36.521,25.819Zm.984,0a.209.209,0,1,1-.417,0A.209.209,0,0,1,37.505,25.819Zm.984,0a.209.209,0,1,1-.418,0A.209.209,0,0,1,38.489,25.819Zm.567,0a.209.209,0,0,1,.417,0A.209.209,0,1,1,39.056,25.82Zm-8.928.49a.209.209,0,1,1-.418,0A.209.209,0,0,1,30.127,26.311Zm.983,0a.209.209,0,1,1-.418,0A.209.209,0,0,1,31.111,26.311Zm.983,0a.209.209,0,1,1-.418,0A.209.209,0,0,1,32.094,26.311Zm.984,0a.209.209,0,1,1-.418,0A.209.209,0,0,1,33.078,26.311Zm.983,0a.209.209,0,1,1-.417,0A.209.209,0,0,1,34.062,26.311Zm.984,0a.209.209,0,1,1-.418,0A.209.209,0,0,1,35.046,26.311Zm.983,0a.209.209,0,1,1-.417,0A.209.209,0,0,1,36.029,26.311Zm.984,0a.209.209,0,1,1-.418,0A.209.209,0,0,1,37.014,26.311Zm.983,0a.209.209,0,1,1-.418,0A.209.209,0,0,1,38,26.311Zm.984,0a.209.209,0,1,1-.418,0A.209.209,0,0,1,38.981,26.311Zm-9.347.492a.209.209,0,1,1-.417,0A.209.209,0,0,1,29.635,26.8Zm.984,0a.209.209,0,1,1-.418,0A.209.209,0,0,1,30.619,26.8Zm.983,0a.209.209,0,1,1-.418,0A.209.209,0,0,1,31.6,26.8Zm.984,0a.209.209,0,1,1-.418,0A.209.209,0,0,1,32.587,26.8Zm.983,0a.209.209,0,1,1-.418,0A.209.209,0,0,1,33.57,26.8Zm.984,0a.209.209,0,1,1-.418,0A.209.209,0,0,1,34.554,26.8Zm.983,0a.209.209,0,1,1-.418,0A.209.209,0,0,1,35.538,26.8Zm.983,0a.209.209,0,1,1-.418,0A.209.209,0,0,1,36.521,26.8Zm.984,0a.209.209,0,1,1-.417,0A.209.209,0,0,1,37.505,26.8Zm.984,0a.209.209,0,1,1-.418,0A.209.209,0,0,1,38.489,26.8Zm.567,0a.209.209,0,0,1,.417,0A.209.209,0,1,1,39.056,26.8Zm-8.928.491a.209.209,0,1,1-.418,0A.209.209,0,0,1,30.127,27.295Zm.983,0a.209.209,0,1,1-.418,0A.209.209,0,0,1,31.111,27.295Zm.983,0a.209.209,0,1,1-.418,0A.209.209,0,0,1,32.094,27.295Zm.984,0a.209.209,0,1,1-.418,0A.209.209,0,0,1,33.078,27.295Zm.983,0a.209.209,0,1,1-.417,0A.209.209,0,0,1,34.062,27.295Zm.984,0a.209.209,0,1,1-.418,0A.209.209,0,0,1,35.046,27.295Zm.983,0a.209.209,0,1,1-.417,0A.209.209,0,0,1,36.029,27.295Zm.984,0a.209.209,0,1,1-.418,0A.209.209,0,0,1,37.014,27.295Zm.983,0a.209.209,0,1,1-.418,0A.209.209,0,0,1,38,27.295Zm.984,0a.209.209,0,1,1-.418,0A.209.209,0,0,1,38.981,27.295Zm.566,0a.209.209,0,0,1,.418,0A.209.209,0,1,1,39.547,27.3Zm-9.912.491a.209.209,0,1,1-.417,0A.209.209,0,0,1,29.635,27.787Zm.984,0a.209.209,0,1,1-.418,0A.209.209,0,0,1,30.619,27.787Zm.983,0a.209.209,0,1,1-.418,0A.209.209,0,0,1,31.6,27.787Zm.984,0a.209.209,0,1,1-.418,0A.209.209,0,0,1,32.587,27.787Zm.983,0a.209.209,0,1,1-.418,0A.209.209,0,0,1,33.57,27.787Zm.984,0a.209.209,0,1,1-.418,0A.209.209,0,0,1,34.554,27.787Zm.983,0a.209.209,0,1,1-.418,0A.209.209,0,0,1,35.538,27.787Zm.983,0a.209.209,0,1,1-.418,0A.209.209,0,0,1,36.521,27.787Zm.984,0a.209.209,0,1,1-.417,0A.209.209,0,0,1,37.505,27.787Zm.984,0a.209.209,0,1,1-.418,0A.209.209,0,0,1,38.489,27.787Zm.567,0a.209.209,0,0,1,.417,0A.209.209,0,1,1,39.056,27.788Zm-9.912.491a.209.209,0,1,1-.418,0A.209.209,0,0,1,29.143,28.279Zm.984,0a.209.209,0,1,1-.418,0A.209.209,0,0,1,30.127,28.279Zm.983,0a.209.209,0,1,1-.418,0A.209.209,0,0,1,31.111,28.279Zm.983,0a.209.209,0,1,1-.418,0A.209.209,0,0,1,32.094,28.279Zm.984,0a.209.209,0,1,1-.418,0A.209.209,0,0,1,33.078,28.279Zm.983,0a.209.209,0,1,1-.417,0A.209.209,0,0,1,34.062,28.279Zm.984,0a.209.209,0,1,1-.418,0A.209.209,0,0,1,35.046,28.279Zm.983,0a.209.209,0,1,1-.417,0A.209.209,0,0,1,36.029,28.279Zm.984,0a.209.209,0,1,1-.418,0A.209.209,0,0,1,37.014,28.279Zm.983,0a.209.209,0,1,1-.418,0A.209.209,0,0,1,38,28.279Zm.984,0a.209.209,0,1,1-.418,0A.209.209,0,0,1,38.981,28.279Zm.566,0a.209.209,0,0,1,.418,0A.209.209,0,1,1,39.547,28.28Zm-9.912.49a.209.209,0,1,1-.417,0A.209.209,0,0,1,29.635,28.77Zm.984,0a.209.209,0,1,1-.418,0A.209.209,0,0,1,30.619,28.77Zm.983,0a.209.209,0,1,1-.418,0A.209.209,0,0,1,31.6,28.77Zm.984,0a.209.209,0,1,1-.418,0A.209.209,0,0,1,32.587,28.77Zm.983,0a.209.209,0,1,1-.418,0A.209.209,0,0,1,33.57,28.77Zm.984,0a.209.209,0,1,1-.418,0A.209.209,0,0,1,34.554,28.77Zm.983,0a.209.209,0,1,1-.418,0A.209.209,0,0,1,35.538,28.77Zm.983,0a.209.209,0,1,1-.418,0A.209.209,0,0,1,36.521,28.77Zm.984,0a.209.209,0,1,1-.417,0A.209.209,0,0,1,37.505,28.77Zm.984,0a.209.209,0,1,1-.418,0A.209.209,0,0,1,38.489,28.77Zm.567,0a.209.209,0,0,1,.417,0A.209.209,0,1,1,39.056,28.772Zm-9.912.49a.209.209,0,1,1-.418,0A.209.209,0,0,1,29.143,29.262Zm.984,0a.209.209,0,1,1-.418,0A.209.209,0,0,1,30.127,29.262Zm.983,0a.209.209,0,1,1-.418,0A.209.209,0,0,1,31.111,29.262Zm.983,0a.209.209,0,1,1-.418,0A.209.209,0,0,1,32.094,29.262Zm.984,0a.209.209,0,1,1-.418,0A.209.209,0,0,1,33.078,29.262Zm.983,0a.209.209,0,1,1-.417,0A.209.209,0,0,1,34.062,29.262Zm.984,0a.209.209,0,1,1-.418,0A.209.209,0,0,1,35.046,29.262Zm.983,0a.209.209,0,1,1-.417,0A.209.209,0,0,1,36.029,29.262Zm.984,0a.209.209,0,1,1-.418,0A.209.209,0,0,1,37.014,29.262Zm.983,0a.209.209,0,1,1-.418,0A.209.209,0,0,1,38,29.262Zm.984,0a.209.209,0,1,1-.418,0A.209.209,0,0,1,38.981,29.262Zm.566,0a.209.209,0,0,1,.418,0A.209.209,0,1,1,39.547,29.264Zm-9.912.491a.209.209,0,1,1-.417,0A.209.209,0,0,1,29.635,29.754Zm.984,0a.209.209,0,1,1-.418,0A.209.209,0,0,1,30.619,29.754Zm.983,0a.209.209,0,1,1-.418,0A.209.209,0,0,1,31.6,29.754Zm.984,0a.209.209,0,1,1-.418,0A.209.209,0,0,1,32.587,29.754Zm.983,0a.209.209,0,1,1-.418,0A.209.209,0,0,1,33.57,29.754Zm.984,0a.209.209,0,1,1-.418,0A.209.209,0,0,1,34.554,29.754Zm.983,0a.209.209,0,1,1-.418,0A.209.209,0,0,1,35.538,29.754Zm.983,0a.209.209,0,1,1-.418,0A.209.209,0,0,1,36.521,29.754Zm.984,0a.209.209,0,1,1-.417,0A.209.209,0,0,1,37.505,29.754Zm.984,0a.209.209,0,1,1-.418,0A.209.209,0,0,1,38.489,29.754Zm.567,0a.209.209,0,0,1,.417,0A.209.209,0,1,1,39.056,29.755Zm.983,0a.209.209,0,0,1,.418,0A.209.209,0,1,1,40.039,29.755Zm-10.9.491a.209.209,0,1,1-.418,0A.209.209,0,0,1,29.143,30.246Zm.984,0a.209.209,0,1,1-.418,0A.209.209,0,0,1,30.127,30.246Zm.983,0a.209.209,0,1,1-.418,0A.209.209,0,0,1,31.111,30.246Zm.983,0a.209.209,0,1,1-.418,0A.209.209,0,0,1,32.094,30.246Zm.984,0a.209.209,0,1,1-.418,0A.209.209,0,0,1,33.078,30.246Zm.983,0a.209.209,0,1,1-.417,0A.209.209,0,0,1,34.062,30.246Zm.984,0a.209.209,0,1,1-.418,0A.209.209,0,0,1,35.046,30.246Zm.983,0a.209.209,0,1,1-.417,0A.209.209,0,0,1,36.029,30.246Zm.984,0a.209.209,0,1,1-.418,0A.209.209,0,0,1,37.014,30.246Zm.983,0a.209.209,0,1,1-.418,0A.209.209,0,0,1,38,30.246Zm.984,0a.209.209,0,1,1-.418,0A.209.209,0,0,1,38.981,30.246Zm.566,0a.209.209,0,0,1,.418,0A.209.209,0,1,1,39.547,30.248Zm-10.9.491a.209.209,0,1,1-.418,0A.209.209,0,0,1,28.651,30.738Zm.983,0a.209.209,0,1,1-.417,0A.209.209,0,0,1,29.635,30.738Zm.984,0a.209.209,0,1,1-.418,0A.209.209,0,0,1,30.619,30.738Zm.983,0a.209.209,0,1,1-.418,0A.209.209,0,0,1,31.6,30.738Zm.984,0a.209.209,0,1,1-.418,0A.209.209,0,0,1,32.587,30.738Zm.983,0a.209.209,0,1,1-.418,0A.209.209,0,0,1,33.57,30.738Zm.984,0a.209.209,0,1,1-.418,0A.209.209,0,0,1,34.554,30.738Zm.983,0a.209.209,0,1,1-.418,0A.209.209,0,0,1,35.538,30.738Zm.983,0a.209.209,0,1,1-.418,0A.209.209,0,0,1,36.521,30.738Zm.984,0a.209.209,0,1,1-.417,0A.209.209,0,0,1,37.505,30.738Zm.984,0a.209.209,0,1,1-.418,0A.209.209,0,0,1,38.489,30.738Zm.567,0a.209.209,0,0,1,.417,0A.209.209,0,1,1,39.056,30.739Zm.983,0a.209.209,0,0,1,.418,0A.209.209,0,1,1,40.039,30.739Zm-10.9.491a.209.209,0,1,1-.418,0A.209.209,0,0,1,29.143,31.23Zm.984,0a.209.209,0,1,1-.418,0A.209.209,0,0,1,30.127,31.23Zm.983,0a.209.209,0,1,1-.418,0A.209.209,0,0,1,31.111,31.23Zm.983,0a.209.209,0,1,1-.418,0A.209.209,0,0,1,32.094,31.23Zm.984,0a.209.209,0,1,1-.418,0A.209.209,0,0,1,33.078,31.23Zm.983,0a.209.209,0,1,1-.417,0A.209.209,0,0,1,34.062,31.23Zm.984,0a.209.209,0,1,1-.418,0A.209.209,0,0,1,35.046,31.23Zm.983,0a.209.209,0,1,1-.417,0A.209.209,0,0,1,36.029,31.23Zm.984,0a.209.209,0,1,1-.418,0A.209.209,0,0,1,37.014,31.23Zm.983,0a.209.209,0,1,1-.418,0A.209.209,0,0,1,38,31.23Zm.984,0a.209.209,0,1,1-.418,0A.209.209,0,0,1,38.981,31.23Zm.566,0a.209.209,0,0,1,.418,0A.209.209,0,1,1,39.547,31.231Zm-10.9.49a.209.209,0,1,1-.418,0A.209.209,0,0,1,28.651,31.722Zm.983,0a.209.209,0,1,1-.417,0A.209.209,0,0,1,29.635,31.722Zm.984,0a.209.209,0,1,1-.418,0A.209.209,0,0,1,30.619,31.722Zm.983,0a.209.209,0,1,1-.418,0A.209.209,0,0,1,31.6,31.722Zm.984,0a.209.209,0,1,1-.418,0A.209.209,0,0,1,32.587,31.722Zm.983,0a.209.209,0,1,1-.418,0A.209.209,0,0,1,33.57,31.722Zm.984,0a.209.209,0,1,1-.418,0A.209.209,0,0,1,34.554,31.722Zm.983,0a.209.209,0,1,1-.418,0A.209.209,0,0,1,35.538,31.722Zm.983,0a.209.209,0,1,1-.418,0A.209.209,0,0,1,36.521,31.722Zm.984,0a.209.209,0,1,1-.417,0A.209.209,0,0,1,37.505,31.722Zm.984,0a.209.209,0,1,1-.418,0A.209.209,0,0,1,38.489,31.722Zm.567,0a.209.209,0,0,1,.417,0A.209.209,0,1,1,39.056,31.723Zm.983,0a.209.209,0,0,1,.418,0A.209.209,0,1,1,40.039,31.723Zm-10.9.491a.209.209,0,1,1-.418,0A.209.209,0,0,1,29.143,32.214Zm.984,0a.209.209,0,1,1-.418,0A.209.209,0,0,1,30.127,32.214Zm.983,0a.209.209,0,1,1-.418,0A.209.209,0,0,1,31.111,32.214Zm.983,0a.209.209,0,1,1-.418,0A.209.209,0,0,1,32.094,32.214Zm.984,0a.209.209,0,1,1-.418,0A.209.209,0,0,1,33.078,32.214Zm.983,0a.209.209,0,1,1-.417,0A.209.209,0,0,1,34.062,32.214Zm.984,0a.209.209,0,1,1-.418,0A.209.209,0,0,1,35.046,32.214Zm.983,0a.209.209,0,1,1-.417,0A.209.209,0,0,1,36.029,32.214Zm.984,0a.209.209,0,1,1-.418,0A.209.209,0,0,1,37.014,32.214Zm.983,0a.209.209,0,1,1-.418,0A.209.209,0,0,1,38,32.214Zm.984,0a.209.209,0,1,1-.418,0A.209.209,0,0,1,38.981,32.214Zm.566,0a.209.209,0,0,1,.418,0A.209.209,0,1,1,39.547,32.215Zm.984,0a.209.209,0,0,1,.418,0A.209.209,0,1,1,40.531,32.215Zm-11.88.491a.209.209,0,1,1-.418,0A.209.209,0,0,1,28.651,32.706Zm.983,0a.209.209,0,1,1-.417,0A.209.209,0,0,1,29.635,32.706Zm.984,0a.209.209,0,1,1-.418,0A.209.209,0,0,1,30.619,32.706Zm.983,0a.209.209,0,1,1-.418,0A.209.209,0,0,1,31.6,32.706Zm.984,0a.209.209,0,1,1-.418,0A.209.209,0,0,1,32.587,32.706Zm.983,0a.209.209,0,1,1-.418,0A.209.209,0,0,1,33.57,32.706Zm.984,0a.209.209,0,1,1-.418,0A.209.209,0,0,1,34.554,32.706Zm.983,0a.209.209,0,1,1-.418,0A.209.209,0,0,1,35.538,32.706Zm.983,0a.209.209,0,1,1-.418,0A.209.209,0,0,1,36.521,32.706Zm.984,0a.209.209,0,1,1-.417,0A.209.209,0,0,1,37.505,32.706Zm.984,0a.209.209,0,1,1-.418,0A.209.209,0,0,1,38.489,32.706Zm.567,0a.209.209,0,0,1,.417,0A.209.209,0,1,1,39.056,32.707Zm.983,0a.209.209,0,0,1,.418,0A.209.209,0,1,1,40.039,32.707Zm-11.88.491a.209.209,0,1,1-.417,0A.209.209,0,0,1,28.159,33.2Zm.984,0a.209.209,0,1,1-.418,0A.209.209,0,0,1,29.143,33.2Zm.984,0a.209.209,0,1,1-.418,0A.209.209,0,0,1,30.127,33.2Zm.983,0a.209.209,0,1,1-.418,0A.209.209,0,0,1,31.111,33.2Zm.983,0a.209.209,0,1,1-.418,0A.209.209,0,0,1,32.094,33.2Zm.984,0a.209.209,0,1,1-.418,0A.209.209,0,0,1,33.078,33.2Zm.983,0a.209.209,0,1,1-.417,0A.209.209,0,0,1,34.062,33.2Zm.984,0a.209.209,0,1,1-.418,0A.209.209,0,0,1,35.046,33.2Zm.983,0a.209.209,0,1,1-.417,0A.209.209,0,0,1,36.029,33.2Zm.984,0a.209.209,0,1,1-.418,0A.209.209,0,0,1,37.014,33.2Zm.983,0a.209.209,0,1,1-.418,0A.209.209,0,0,1,38,33.2Zm.984,0a.209.209,0,1,1-.418,0A.209.209,0,0,1,38.981,33.2Zm.566,0a.209.209,0,0,1,.418,0A.209.209,0,1,1,39.547,33.2Zm.984,0a.209.209,0,0,1,.418,0A.209.209,0,1,1,40.531,33.2Zm-11.88.491a.209.209,0,1,1-.418,0A.209.209,0,0,1,28.651,33.69Zm.983,0a.209.209,0,1,1-.417,0A.209.209,0,0,1,29.635,33.69Zm.984,0a.209.209,0,1,1-.418,0A.209.209,0,0,1,30.619,33.69Zm.983,0a.209.209,0,1,1-.418,0A.209.209,0,0,1,31.6,33.69Zm.984,0a.209.209,0,1,1-.418,0A.209.209,0,0,1,32.587,33.69Zm.983,0a.209.209,0,1,1-.418,0A.209.209,0,0,1,33.57,33.69Zm.984,0a.209.209,0,1,1-.418,0A.209.209,0,0,1,34.554,33.69Zm.983,0a.209.209,0,1,1-.418,0A.209.209,0,0,1,35.538,33.69Zm.983,0a.209.209,0,1,1-.418,0A.209.209,0,0,1,36.521,33.69Zm.984,0a.209.209,0,1,1-.417,0A.209.209,0,0,1,37.505,33.69Zm.984,0a.209.209,0,1,1-.418,0A.209.209,0,0,1,38.489,33.69Zm.567,0a.209.209,0,0,1,.417,0A.209.209,0,1,1,39.056,33.691Zm.983,0a.209.209,0,0,1,.418,0A.209.209,0,1,1,40.039,33.691Zm-11.88.49a.209.209,0,1,1-.417,0A.209.209,0,0,1,28.159,34.181Zm.984,0a.209.209,0,1,1-.418,0A.209.209,0,0,1,29.143,34.181Zm.984,0a.209.209,0,1,1-.418,0A.209.209,0,0,1,30.127,34.181Zm.983,0a.209.209,0,1,1-.418,0A.209.209,0,0,1,31.111,34.181Zm.983,0a.209.209,0,1,1-.418,0A.209.209,0,0,1,32.094,34.181Zm.984,0a.209.209,0,1,1-.418,0A.209.209,0,0,1,33.078,34.181Zm.983,0a.209.209,0,1,1-.417,0A.209.209,0,0,1,34.062,34.181Zm.984,0a.209.209,0,1,1-.418,0A.209.209,0,0,1,35.046,34.181Zm.983,0a.209.209,0,1,1-.417,0A.209.209,0,0,1,36.029,34.181Zm.984,0a.209.209,0,1,1-.418,0A.209.209,0,0,1,37.014,34.181Zm.983,0a.209.209,0,1,1-.418,0A.209.209,0,0,1,38,34.181Zm.984,0a.209.209,0,1,1-.418,0A.209.209,0,0,1,38.981,34.181Zm.566,0a.209.209,0,0,1,.418,0A.209.209,0,1,1,39.547,34.183Zm.984,0a.209.209,0,0,1,.418,0A.209.209,0,1,1,40.531,34.183Zm-11.88.491a.209.209,0,1,1-.418,0A.209.209,0,0,1,28.651,34.674Zm.983,0a.209.209,0,1,1-.417,0A.209.209,0,0,1,29.635,34.674Zm.984,0a.209.209,0,1,1-.418,0A.209.209,0,0,1,30.619,34.674Zm.983,0a.209.209,0,1,1-.418,0A.209.209,0,0,1,31.6,34.674Zm.984,0a.209.209,0,1,1-.418,0A.209.209,0,0,1,32.587,34.674Zm.983,0a.209.209,0,1,1-.418,0A.209.209,0,0,1,33.57,34.674Zm.984,0a.209.209,0,1,1-.418,0A.209.209,0,0,1,34.554,34.674Zm.983,0a.209.209,0,1,1-.418,0A.209.209,0,0,1,35.538,34.674Zm.983,0a.209.209,0,1,1-.418,0A.209.209,0,0,1,36.521,34.674Zm.984,0a.209.209,0,1,1-.417,0A.209.209,0,0,1,37.505,34.674Zm.984,0a.209.209,0,1,1-.418,0A.209.209,0,0,1,38.489,34.674Zm.567,0a.209.209,0,0,1,.417,0A.209.209,0,1,1,39.056,34.675Zm.983,0a.209.209,0,0,1,.418,0A.209.209,0,1,1,40.039,34.675Zm.984,0a.209.209,0,0,1,.418,0A.209.209,0,1,1,41.023,34.675Zm-12.864.49a.209.209,0,1,1-.417,0A.209.209,0,0,1,28.159,35.165Zm.984,0a.209.209,0,1,1-.418,0A.209.209,0,0,1,29.143,35.165Zm.984,0a.209.209,0,1,1-.418,0A.209.209,0,0,1,30.127,35.165Zm.983,0a.209.209,0,1,1-.418,0A.209.209,0,0,1,31.111,35.165Zm.983,0a.209.209,0,1,1-.418,0A.209.209,0,0,1,32.094,35.165Zm.984,0a.209.209,0,1,1-.418,0A.209.209,0,0,1,33.078,35.165Zm.983,0a.209.209,0,1,1-.417,0A.209.209,0,0,1,34.062,35.165Zm.984,0a.209.209,0,1,1-.418,0A.209.209,0,0,1,35.046,35.165Zm.983,0a.209.209,0,1,1-.417,0A.209.209,0,0,1,36.029,35.165Zm.984,0a.209.209,0,1,1-.418,0A.209.209,0,0,1,37.014,35.165Zm.983,0a.209.209,0,1,1-.418,0A.209.209,0,0,1,38,35.165Zm.984,0a.209.209,0,1,1-.418,0A.209.209,0,0,1,38.981,35.165Zm.566,0a.209.209,0,0,1,.418,0A.209.209,0,1,1,39.547,35.167Zm.984,0a.209.209,0,0,1,.418,0A.209.209,0,1,1,40.531,35.167Zm-12.864.491a.209.209,0,1,1-.418,0A.209.209,0,0,1,27.667,35.658Zm.984,0a.209.209,0,1,1-.418,0A.209.209,0,0,1,28.651,35.658Zm.983,0a.209.209,0,1,1-.417,0A.209.209,0,0,1,29.635,35.658Zm.984,0a.209.209,0,1,1-.418,0A.209.209,0,0,1,30.619,35.658Zm.983,0a.209.209,0,1,1-.418,0A.209.209,0,0,1,31.6,35.658Zm.984,0a.209.209,0,1,1-.418,0A.209.209,0,0,1,32.587,35.658Zm.983,0a.209.209,0,1,1-.418,0A.209.209,0,0,1,33.57,35.658Zm.984,0a.209.209,0,1,1-.418,0A.209.209,0,0,1,34.554,35.658Zm.983,0a.209.209,0,1,1-.418,0A.209.209,0,0,1,35.538,35.658Zm.983,0a.209.209,0,1,1-.418,0A.209.209,0,0,1,36.521,35.658Zm.984,0a.209.209,0,1,1-.417,0A.209.209,0,0,1,37.505,35.658Zm.984,0a.209.209,0,1,1-.418,0A.209.209,0,0,1,38.489,35.658Zm.567,0a.209.209,0,0,1,.417,0A.209.209,0,1,1,39.056,35.658Zm.983,0a.209.209,0,0,1,.418,0A.209.209,0,1,1,40.039,35.658Zm.984,0a.209.209,0,0,1,.418,0A.209.209,0,1,1,41.023,35.658Zm-12.864.491a.209.209,0,1,1-.417,0A.209.209,0,0,1,28.159,36.149Zm.984,0a.209.209,0,1,1-.418,0A.209.209,0,0,1,29.143,36.149Zm.984,0a.209.209,0,1,1-.418,0A.209.209,0,0,1,30.127,36.149Zm.983,0a.209.209,0,1,1-.418,0A.209.209,0,0,1,31.111,36.149Zm.983,0a.209.209,0,1,1-.418,0A.209.209,0,0,1,32.094,36.149Zm.984,0a.209.209,0,1,1-.418,0A.209.209,0,0,1,33.078,36.149Zm.983,0a.209.209,0,1,1-.417,0A.209.209,0,0,1,34.062,36.149Zm.984,0a.209.209,0,1,1-.418,0A.209.209,0,0,1,35.046,36.149Zm.983,0a.209.209,0,1,1-.417,0A.209.209,0,0,1,36.029,36.149Zm.984,0a.209.209,0,1,1-.418,0A.209.209,0,0,1,37.014,36.149Zm.983,0a.209.209,0,1,1-.418,0A.209.209,0,0,1,38,36.149Zm.984,0a.209.209,0,1,1-.418,0A.209.209,0,0,1,38.981,36.149Zm.566,0a.209.209,0,0,1,.418,0A.209.209,0,1,1,39.547,36.151Zm.984,0a.209.209,0,0,1,.418,0A.209.209,0,1,1,40.531,36.151Zm-12.864.491a.209.209,0,1,1-.418,0A.209.209,0,0,1,27.667,36.641Zm.984,0a.209.209,0,1,1-.418,0A.209.209,0,0,1,28.651,36.641Zm.983,0a.209.209,0,1,1-.417,0A.209.209,0,0,1,29.635,36.641Zm.984,0a.209.209,0,1,1-.418,0A.209.209,0,0,1,30.619,36.641Zm.983,0a.209.209,0,1,1-.418,0A.209.209,0,0,1,31.6,36.641Zm.984,0a.209.209,0,1,1-.418,0A.209.209,0,0,1,32.587,36.641Zm.983,0a.209.209,0,1,1-.418,0A.209.209,0,0,1,33.57,36.641Zm.984,0a.209.209,0,1,1-.418,0A.209.209,0,0,1,34.554,36.641Zm.983,0a.209.209,0,1,1-.418,0A.209.209,0,0,1,35.538,36.641Zm.983,0a.209.209,0,1,1-.418,0A.209.209,0,0,1,36.521,36.641Zm.984,0a.209.209,0,1,1-.417,0A.209.209,0,0,1,37.505,36.641Zm.984,0a.209.209,0,1,1-.418,0A.209.209,0,0,1,38.489,36.641Zm.567,0a.209.209,0,0,1,.417,0A.209.209,0,1,1,39.056,36.642Zm.983,0a.209.209,0,0,1,.418,0A.209.209,0,1,1,40.039,36.642Zm.984,0a.209.209,0,0,1,.418,0A.209.209,0,1,1,41.023,36.642Z" transform="translate(0 0)" fill="#11aac4"/>
    </g>
  </g>
</svg>
