<svg xmlns="http://www.w3.org/2000/svg" xmlns:xlink="http://www.w3.org/1999/xlink" width="88" height="88" viewBox="0 0 88 88">
  <defs>
    <linearGradient id="linear-gradient" x1="0.552" y1="0.607" x2="0.801" y2="-1.951" gradientUnits="objectBoundingBox">
      <stop offset="0" stop-color="#fff"/>
      <stop offset="1" stop-color="gray"/>
      <stop offset="1"/>
    </linearGradient>
    <filter id="Ellipse_480" x="0" y="0" width="88" height="88" filterUnits="userSpaceOnUse">
      <feOffset dy="3" input="SourceAlpha"/>
      <feGaussianBlur stdDeviation="3" result="blur"/>
      <feFlood flood-opacity="0.231"/>
      <feComposite operator="in" in2="blur"/>
      <feComposite in="SourceGraphic"/>
    </filter>
  </defs>
  <g id="Component_61_2" data-name="Component 61 – 2" transform="translate(9 6)">
    <g transform="matrix(1, 0, 0, 1, -9, -6)" filter="url(#Ellipse_480)">
      <circle id="Ellipse_480-2" data-name="Ellipse 480" cx="35" cy="35" r="35" transform="translate(9 6)" fill="url(#linear-gradient)"/>
    </g>
    <g id="Group_7034" data-name="Group 7034" transform="translate(10.747 9.266)">
      <g id="Group_7033" data-name="Group 7033" transform="translate(6 2)">
        <g id="Group_7032" data-name="Group 7032" transform="translate(0 0)">
          <path id="Path_52993" data-name="Path 52993" d="M28.657,102.889a.764.764,0,0,1,.168-.169.6.6,0,0,1,.119-.12.82.82,0,0,1,.058-.067.784.784,0,0,1,.119-.143l-11.739.014,0-4.372a.689.689,0,0,0-.689-.688h0a.689.689,0,0,0-.688.689l0,5.061a.688.688,0,0,0,.689.688h0l11.071-.014a.8.8,0,0,1,.148-.188h0a.771.771,0,0,1,.3-.258.759.759,0,0,1,.165-.143.614.614,0,0,1,.088-.079.73.73,0,0,1,.075-.078A.785.785,0,0,1,28.657,102.889Z" transform="translate(-12.558 -64.517)" fill="#11aac4"/>
          <path id="Path_52994" data-name="Path 52994" d="M48.964,2.688A.688.688,0,0,0,48.275,2h0l-31.666.039a.688.688,0,0,0-.688.689l0,5.021a.689.689,0,0,0,.689.688h0a.689.689,0,0,0,.688-.689l0-4.334,30.288-.037.031,36.473-11.973.014a21.293,21.293,0,0,1-.449.422.768.768,0,0,1-.21.186.792.792,0,0,1-.167.16c-.013.019-.03.034-.044.052a4.98,4.98,0,0,1-.358.421.626.626,0,0,1-.121.137l14.012-.017A.689.689,0,0,0,49,40.537Z" transform="translate(-12.505 -2)" fill="#11aac4"/>
          <path id="Path_52995" data-name="Path 52995" d="M16.673,79.968a.689.689,0,0,1-.689-.688l0-5.142a.689.689,0,0,1,.688-.689h0a.689.689,0,0,1,.689.688l0,5.142a.689.689,0,0,1-.688.689Z" transform="translate(-12.544 -48.849)" fill="#11aac4"/>
          <path id="Path_52996" data-name="Path 52996" d="M16.654,56.074a.689.689,0,0,1-.689-.688l0-5.142a.689.689,0,0,1,.688-.689h0a.689.689,0,0,1,.689.688l0,5.142a.689.689,0,0,1-.688.689Z" transform="translate(-12.531 -33.182)" fill="#11aac4"/>
          <path id="Path_52997" data-name="Path 52997" d="M16.633,32.18a.689.689,0,0,1-.689-.688l0-5.141a.689.689,0,0,1,.688-.689h0a.689.689,0,0,1,.689.688l0,5.142a.689.689,0,0,1-.688.689Z" transform="translate(-12.518 -17.514)" fill="#11aac4"/>
          <g id="Group_7031" data-name="Group 7031" transform="translate(0 5.061)">
            <path id="Path_52998" data-name="Path 52998" d="M12.328,45.057H7.881A1.883,1.883,0,0,1,6,43.176v-.7a1.883,1.883,0,0,1,1.881-1.881h4.447a1.883,1.883,0,0,1,1.881,1.881v.7A1.883,1.883,0,0,1,12.328,45.057ZM7.881,41.971a.5.5,0,0,0-.5.5v.7a.5.5,0,0,0,.5.5h4.447a.5.5,0,0,0,.5-.5v-.7a.5.5,0,0,0-.5-.5Z" transform="translate(-6 -32.367)" fill="#11aac4"/>
            <path id="Path_52999" data-name="Path 52999" d="M12.328,68.951H7.881A1.883,1.883,0,0,1,6,67.07v-.7a1.883,1.883,0,0,1,1.881-1.881h4.447a1.883,1.883,0,0,1,1.881,1.881v.7A1.883,1.883,0,0,1,12.328,68.951ZM7.881,65.866a.5.5,0,0,0-.5.5v.7a.5.5,0,0,0,.5.5h4.447a.5.5,0,0,0,.5-.5v-.7a.5.5,0,0,0-.5-.5Z" transform="translate(-6 -48.035)" fill="#11aac4"/>
            <path id="Path_53000" data-name="Path 53000" d="M12.328,21.162H7.881A1.883,1.883,0,0,1,6,19.282v-.7A1.883,1.883,0,0,1,7.881,16.7h4.447a1.883,1.883,0,0,1,1.881,1.881v.7A1.883,1.883,0,0,1,12.328,21.162ZM7.881,18.077a.5.5,0,0,0-.5.5v.7a.5.5,0,0,0,.5.5h4.447a.5.5,0,0,0,.5-.5v-.7a.5.5,0,0,0-.5-.5Z" transform="translate(-6 -16.7)" fill="#11aac4"/>
            <path id="Path_53001" data-name="Path 53001" d="M12.328,92.846H7.881A1.883,1.883,0,0,1,6,90.965v-.7a1.883,1.883,0,0,1,1.881-1.881h4.447a1.883,1.883,0,0,1,1.881,1.881v.7A1.883,1.883,0,0,1,12.328,92.846ZM7.881,89.761a.5.5,0,0,0-.5.5v.7a.5.5,0,0,0,.5.5h4.447a.5.5,0,0,0,.5-.5v-.7a.5.5,0,0,0-.5-.5Z" transform="translate(-6 -63.703)" fill="#11aac4"/>
          </g>
          <path id="Path_53002" data-name="Path 53002" d="M53.695,26.4H34.366a.689.689,0,0,1-.689-.689V20.261a.689.689,0,0,1,.689-.689H53.7a.689.689,0,0,1,.689.689v5.455A.689.689,0,0,1,53.695,26.4ZM35.054,25.027H53.007V20.949H35.054Z" transform="translate(-24.148 -13.522)" fill="#11aac4"/>
        </g>
      </g>
      <path id="Path_53003" data-name="Path 53003" d="M39.234,90.8,56.589,73.449,60.4,77.257,43.042,94.612l-4.617.724Z" transform="translate(-21.261 -46.849)" fill="none" stroke="#707070" stroke-linecap="round" stroke-linejoin="round" stroke-width="0.75"/>
      <line id="Line_45" data-name="Line 45" x1="3.754" y1="3.685" transform="translate(33.941 28.085)" fill="none" stroke="#707070" stroke-linecap="round" stroke-linejoin="round" stroke-width="0.5"/>
    </g>
  </g>
</svg>
