<svg xmlns="http://www.w3.org/2000/svg" width="324.756" height="318.303" viewBox="0 0 324.756 318.303">
  <g id="Group_13044" data-name="Group 13044" transform="translate(-1568.251 -328.532)">
    <g id="Group_6684" data-name="Group 6684" transform="translate(1203.168 131.158)">
      <g id="Group_6681" data-name="Group 6681" transform="translate(365.084 197.374)">
        <g id="Group_6680" data-name="Group 6680">
          <path id="Path_34898" data-name="Path 34898" d="M369.468,484.555c2.138-.5,4.241-1.06,6.334-1.677a111.848,111.848,0,0,0,36.659-18.768c.034-.027.075-.051.116-.078l.017-.01a1.857,1.857,0,0,1,1.766-.368H600.392c5.867,0,11.465-1.1,13.6-7.664.7-2.141.757-5.236,1.173-7.483q3.257-17.908,6.529-35.81,11.076-60.7,22.15-121.387,7.435-40.8,14.891-81.578c.862-4.732-4.558-10.381-9.42-9.5-2.639.488-5.295.968-7.95,1.456q-20.179,3.682-40.372,7.371l-122.9,22.419q-36.441,6.663-72.878,13.3a25.375,25.375,0,0,0-5.2,1.091,10.031,10.031,0,0,0-5.935,8.6V426.081c0,6.76-2.247,13.78-4.159,20.176C385.784,460.081,379.3,473.833,369.468,484.555Z" transform="translate(-354.522 -190.707)" fill="#fff"/>
          <path id="Path_34899" data-name="Path 34899" d="M370.771,487.724a61.327,61.327,0,0,0,9.314-10.545c5.253-7.316,8.959-15.611,11.946-24.079a114.945,114.945,0,0,0,4.149-14.666c1.169-5.56.968-11.093.968-16.753v-97.1c0-21.076-.668-42.284,0-63.356.283-8.687,4.432-16.361,13.279-18.676,9.478-2.458,19.507-3.6,29.135-5.359q31.843-5.824,63.673-11.612,64.347-11.751,128.7-23.493,7.522-1.37,15.065-2.748c4.548-.825,9.28-2.148,13.944-1.943,5.663.273,11.179,4.579,15.021,8.479a62.655,62.655,0,0,1,11.025,15.577,27.815,27.815,0,0,1,2.666,7.476c.644,3.532-.593,7.227-1.217,10.674q-11.654,63.856-23.3,127.715-5.866,32.13-11.724,64.267-2.894,15.842-5.779,31.675c-.862,4.677-1.643,9.365-2.465,14.049-.682,3.883-2.056,7.7-4.868,10.565-4.654,4.7-11.509,5.461-17.8,5.57-8.233.133-16.507-.286-24.747-.286H440.209c-1.732,0-3.576,2.032-4.954,3-1.933,1.353-3.921,2.608-5.935,3.825-13.286,8.056-28.381,14.206-43.944,15.655-5.134.477-8.23-2.949-11.694-6.368-2.894-2.867-8.656-7.855-8.6-12.29.007-.075.014-.14.02-.222a4.425,4.425,0,0,1,0-.6C365.35,491.921,367.822,490.3,370.771,487.724Zm52.252-16.947c.034-.027.075-.051.116-.078l.017-.01a1.857,1.857,0,0,1,1.766-.368H610.954c5.867,0,11.465-1.1,13.6-7.664.7-2.141.757-5.236,1.173-7.483q3.257-17.908,6.528-35.81,11.077-60.7,22.15-121.387,7.436-40.8,14.891-81.578c.862-4.732-4.558-10.381-9.42-9.5-2.639.488-5.294.968-7.95,1.456q-20.179,3.682-40.372,7.371l-122.9,22.419q-36.441,6.663-72.878,13.3a25.372,25.372,0,0,0-5.2,1.091,10.031,10.031,0,0,0-5.935,8.6V432.748c0,6.76-2.247,13.78-4.159,20.176-4.135,13.824-10.623,27.577-20.452,38.3,2.138-.5,4.241-1.06,6.334-1.677A111.846,111.846,0,0,0,423.023,470.777Z" transform="translate(-365.084 -197.374)" fill="#62727c"/>
        </g>
      </g>
      <path id="Path_34900" data-name="Path 34900" d="M613.988,393.78c.7-2.141.757-5.236,1.173-7.483q3.257-17.908,6.529-35.81,11.076-60.7,22.15-121.387c.191-1.047.382-2.09.573-3.136-2.669,7.047-5.485,14.032-8.3,20.949-7.207,17.718-14.557,35.691-26.336,50.759-14.366,18.379-34.511,31.368-55.232,42.083-24.948,12.9-51.983,23.162-80.061,23.8a123.09,123.09,0,0,1-57.4-12.829,246,246,0,0,1-23.005-13.613v26.762c0,6.76-2.247,13.78-4.159,20.176-4.135,13.824-10.623,27.577-20.452,38.3,2.138-.5,4.241-1.06,6.334-1.677A111.848,111.848,0,0,0,412.461,401.9c.034-.027.075-.051.116-.078l.017-.01a1.857,1.857,0,0,1,1.766-.368H600.392C606.259,401.444,611.857,400.339,613.988,393.78Z" transform="translate(10.562 68.877)" fill="#ebf0f2"/>
      <g id="Group_6682" data-name="Group 6682" transform="translate(415.482 251.083)">
        <path id="Path_34901" data-name="Path 34901" d="M379.867,262.408V239.931a17.065,17.065,0,0,1,13.869-16.753l52.914-10.05-51.131,19.436C386.634,236.137,379.867,262.408,379.867,262.408Z" transform="translate(-379.867 -213.128)" fill="#62727c"/>
      </g>
      <g id="Group_6683" data-name="Group 6683" transform="translate(539.686 342.783)">
        <path id="Path_34902" data-name="Path 34902" d="M453.275,349.679H416.3s56.927-7.565,66.653-33.458l26.394-76.2-17.06,78.23A40.161,40.161,0,0,1,453.275,349.679Z" transform="translate(-416.299 -240.026)" fill="#62727c"/>
      </g>
    </g>
    <text id="Write_your_Interests_and_passion_on_the_postcard" data-name="Write your Interests
and passion on
the postcard" transform="translate(1729 457)" fill="#13375b" font-size="26" font-family="SegoeUI-SemiboldItalic, Segoe UI" font-weight="600" font-style="italic"><tspan x="-114.994" y="0">Write your Interests</tspan><tspan x="-88.296" y="41">and passion on</tspan><tspan x="-72.211" y="82">the postcard</tspan></text>
  </g>
</svg>
