<svg xmlns="http://www.w3.org/2000/svg" width="367.247" height="275.435" viewBox="0 0 367.247 275.435">
  <g id="Group_6677" data-name="Group 6677" transform="translate(-69.348 -116.33)">
    <g id="Group_6649" data-name="Group 6649">
      <g id="Group_6648" data-name="Group 6648">
        <g id="Group_6633" data-name="Group 6633">
          <rect id="Rectangle_1639" data-name="Rectangle 1639" width="367.247" height="275.435" transform="translate(69.348 116.33)" fill="#f2f1ec"/>
          <g id="Group_6632" data-name="Group 6632">
            <path id="Path_34598" data-name="Path 34598" d="M76.651,151.337V129.714l-7.3,3.382v21.623Z" fill="#ca513e"/>
            <path id="Path_34599" data-name="Path 34599" d="M76.651,189.262V167.64l-7.3,3.383v21.622Z" fill="#437782"/>
            <path id="Path_34600" data-name="Path 34600" d="M76.651,227.189V205.566l-7.3,3.383v21.622Z" fill="#ca513e"/>
            <path id="Path_34601" data-name="Path 34601" d="M76.651,265.116V243.492l-7.3,3.382V268.5Z" fill="#437782"/>
            <path id="Path_34602" data-name="Path 34602" d="M76.651,303.042V281.419l-7.3,3.383v21.623Z" fill="#ca513e"/>
            <path id="Path_34603" data-name="Path 34603" d="M76.651,340.968V319.346l-7.3,3.382v21.623Z" fill="#437782"/>
            <path id="Path_34604" data-name="Path 34604" d="M76.651,378.894V357.272l-7.3,3.382v21.623Z" fill="#ca513e"/>
            <path id="Path_34605" data-name="Path 34605" d="M436.594,151.337V129.714l-7.3,3.382v21.623Z" fill="#ca513e"/>
            <path id="Path_34606" data-name="Path 34606" d="M436.594,189.262V167.64l-7.3,3.383v21.622Z" fill="#437782"/>
            <path id="Path_34607" data-name="Path 34607" d="M436.594,227.189V205.566l-7.3,3.383v21.622Z" fill="#ca513e"/>
            <path id="Path_34608" data-name="Path 34608" d="M436.594,265.116V243.492l-7.3,3.382V268.5Z" fill="#437782"/>
            <path id="Path_34609" data-name="Path 34609" d="M436.594,303.042V281.419l-7.3,3.383v21.623Z" fill="#ca513e"/>
            <path id="Path_34610" data-name="Path 34610" d="M436.594,340.968V319.346l-7.3,3.382v21.623Z" fill="#437782"/>
            <path id="Path_34611" data-name="Path 34611" d="M436.594,378.894V357.272l-7.3,3.382v21.623Z" fill="#ca513e"/>
            <path id="Path_34612" data-name="Path 34612" d="M112.378,384.462H90.755l3.383,7.3h21.623Z" fill="#437782"/>
            <path id="Path_34613" data-name="Path 34613" d="M150.3,384.462H128.681l3.383,7.3h21.623Z" fill="#ca513e"/>
            <path id="Path_34614" data-name="Path 34614" d="M188.23,384.462H166.607l3.382,7.3h21.623Z" fill="#437782"/>
            <path id="Path_34615" data-name="Path 34615" d="M226.155,384.462H204.533l3.383,7.3h21.623Z" fill="#ca513e"/>
            <path id="Path_34616" data-name="Path 34616" d="M264.082,384.462H242.459l3.382,7.3h21.623Z" fill="#437782"/>
            <path id="Path_34617" data-name="Path 34617" d="M302.008,384.462H280.386l3.382,7.3h21.623Z" fill="#ca513e"/>
            <path id="Path_34618" data-name="Path 34618" d="M338.682,384.462H317.06l3.382,7.3h21.623Z" fill="#437782"/>
            <path id="Path_34619" data-name="Path 34619" d="M377.861,384.462H356.238l3.382,7.3h21.623Z" fill="#ca513e"/>
            <path id="Path_34620" data-name="Path 34620" d="M415.787,384.462H394.164l3.382,7.3H419.17Z" fill="#437782"/>
            <path id="Path_34621" data-name="Path 34621" d="M112.378,116.33H90.755l3.383,7.3h21.623Z" fill="#437782"/>
            <path id="Path_34622" data-name="Path 34622" d="M150.3,116.33H128.681l3.383,7.3h21.623Z" fill="#ca513e"/>
            <path id="Path_34623" data-name="Path 34623" d="M188.23,116.33H166.607l3.382,7.3h21.623Z" fill="#437782"/>
            <path id="Path_34624" data-name="Path 34624" d="M226.155,116.33H204.533l3.383,7.3h21.623Z" fill="#ca513e"/>
            <path id="Path_34625" data-name="Path 34625" d="M264.082,116.33H242.459l3.382,7.3h21.623Z" fill="#437782"/>
            <path id="Path_34626" data-name="Path 34626" d="M302.008,116.33H280.386l3.382,7.3h21.623Z" fill="#ca513e"/>
            <path id="Path_34627" data-name="Path 34627" d="M339.934,116.33H318.312l3.382,7.3h21.623Z" fill="#437782"/>
            <path id="Path_34628" data-name="Path 34628" d="M377.861,116.33H356.238l3.382,7.3h21.623Z" fill="#ca513e"/>
            <path id="Path_34629" data-name="Path 34629" d="M415.787,116.33H394.164l3.382,7.3H419.17Z" fill="#437782"/>
          </g>
        </g>
        <g id="Group_6637" data-name="Group 6637">
          <g id="Group_6635" data-name="Group 6635">
            <g id="Group_6634" data-name="Group 6634">
              <path id="Path_34630" data-name="Path 34630" d="M412.821,143.46c.058,0,.114.011.171.013V140.08h-3.344c0,.03.009.056.009.085a2.855,2.855,0,0,1-5.582,0c0-.029.01-.055.011-.085h-3.939c0,.03.011.056.011.085a2.856,2.856,0,0,1-5.583,0c0-.029.01-.055.012-.085h-3.94c0,.03.011.056.011.085a2.855,2.855,0,0,1-5.582,0c0-.029.008-.055.01-.085h-3.939c0,.03.011.056.011.085a2.856,2.856,0,0,1-5.583,0c0-.029.01-.055.01-.085h-3.937c0,.03.01.056.01.085a2.856,2.856,0,0,1-5.584,0c0-.029.01-.055.011-.085h-3.938c0,.03.011.056.011.085a2.856,2.856,0,0,1-5.584,0c0-.029.009-.055.011-.085h-2.693v3.38h.011a2.305,2.305,0,1,1,0,4.508l-.011,0v3.165h.011a2.305,2.305,0,1,1,0,4.508h-.011V158.8h.011a2.305,2.305,0,1,1,0,4.508h-.011v3.165h.011a2.305,2.305,0,1,1,0,4.507h-.011v3.164h.011a2.305,2.305,0,1,1,0,4.508h-.011v3.164h.011a2.305,2.305,0,1,1,0,4.508h-.011v3.164h.011a2.305,2.305,0,1,1,0,4.508h-.011v3.163h.011a2.305,2.305,0,1,1,0,4.507h-.011v2.373h2.685a2.859,2.859,0,0,1,5.578,0h3.923a2.858,2.858,0,0,1,5.577,0h3.923a2.858,2.858,0,0,1,5.576,0h3.924a2.859,2.859,0,0,1,5.578,0h3.921a2.859,2.859,0,0,1,5.578,0h3.922a2.859,2.859,0,0,1,5.578,0h3.337v-2.386c-.057,0-.113.013-.171.013a2.305,2.305,0,1,1,0-4.507c.058,0,.114.011.171.014v-3.191c-.057,0-.113.014-.171.014a2.306,2.306,0,1,1,0-4.508c.058,0,.114.011.171.014v-3.191c-.057,0-.113.015-.171.015a2.306,2.306,0,1,1,0-4.508c.058,0,.114.011.171.014v-3.191c-.057,0-.113.014-.171.014a2.306,2.306,0,1,1,0-4.508c.058,0,.114.011.171.014v-3.191c-.057,0-.113.014-.171.014a2.305,2.305,0,1,1,0-4.507c.058,0,.114.011.171.013v-3.191c-.057,0-.113.015-.171.015a2.306,2.306,0,1,1,0-4.508c.058,0,.114.011.171.014v-3.191c-.057,0-.113.014-.171.014a2.306,2.306,0,1,1,0-4.508c.058,0,.114.011.171.014v-3.191c-.057,0-.113.015-.171.015a2.306,2.306,0,1,1,0-4.508Z" fill="#bbb1a7" style="mix-blend-mode: multiply;isolation: isolate"/>
            </g>
          </g>
          <g id="Group_6636" data-name="Group 6636">
            <path id="Path_34631" data-name="Path 34631" d="M261.922,355.171a.459.459,0,0,1-.46-.459V179.1a.46.46,0,0,1,.919,0V354.712A.459.459,0,0,1,261.922,355.171Z" fill="#c1b1a7"/>
          </g>
        </g>
        <g id="Group_6640" data-name="Group 6640">
          <g id="Group_6639" data-name="Group 6639">
            <path id="Path_34632" data-name="Path 34632" d="M261.922,355.171a.459.459,0,0,1-.46-.459V179.1a.46.46,0,0,1,.919,0V354.712A.459.459,0,0,1,261.922,355.171Z" fill="#c1b1a7"/>
            <g id="Group_6638" data-name="Group 6638">
              <path id="Path_34633" data-name="Path 34633" d="M420.372,291.094H270.613a.459.459,0,1,1,0-.918H420.372a.459.459,0,0,1,0,.918Z" fill="#c1b1a7"/>
              <path id="Path_34634" data-name="Path 34634" d="M420.372,316.342H270.613a.459.459,0,1,1,0-.918H420.372a.459.459,0,0,1,0,.918Z" fill="#c1b1a7"/>
              <path id="Path_34635" data-name="Path 34635" d="M420.372,341.591H270.613a.46.46,0,0,1,0-.919H420.372a.46.46,0,0,1,0,.919Z" fill="#c1b1a7"/>
            </g>
          </g>
        </g>
        <g id="Group_6647" data-name="Group 6647">
          <g id="Group_6646" data-name="Group 6646">
            <g id="Group_6645" data-name="Group 6645">
              <g id="Group_6641" data-name="Group 6641">
                <path id="Path_34636" data-name="Path 34636" d="M341.078,203.145c.115.117.242.125.4-.019.1.19-.148.31-.18.48.306-.044.14.2.318.334.256-.149.21-.455.507-.59a.32.32,0,0,0,.151.173c.249-.312.716-.817,1.13-.853a2.142,2.142,0,0,0,.85-.587,28.348,28.348,0,0,1,3.724-1.67l.018-.459c.143.162.307-.133.376.131-.092-.018-.141.051-.224.092.419.216.718-.345,1.107-.359-.068-.053-.26-.364-.184-.464.149.436.4-.171.692.281.382-.016-.139-.379.238-.454-.066-.268-.385.016-.525-.149.027-.249.35-.043.227-.3-.616.1-1.44,1.061-2.222,1.573l-.015-.274a1.609,1.609,0,0,1-1.572.468c.182.177-.694.189-.388.655-.164-.061-.188-.024-.362.008l.034.179c-.219.1-.3-.158-.549-.018.272.132.121.284.137.495-.4-.094-.839-.117-1.2-.17a.6.6,0,0,0,.256.164c-.212.017-.071.2-.078.3-.159.1-.292-.179-.357-.319-.356.08-.2.665-.52.631l.2.163c-.272.236-.666.156-.962.427-.341-.184.125-.409.192-.617-.106-.019-.263.054-.369-.013-.059.228-.174.585-.256.841C341.621,202.779,341.208,203.087,341.078,203.145Z" fill="#a89284"/>
                <path id="Path_34637" data-name="Path 34637" d="M341.926,202.377a1.277,1.277,0,0,0,.031-.172.164.164,0,0,1-.1.091A.154.154,0,0,0,341.926,202.377Z" fill="#a89284"/>
                <path id="Path_34638" data-name="Path 34638" d="M341.078,203.145a.1.1,0,0,1-.027-.027C341.029,203.161,341.046,203.161,341.078,203.145Z" fill="#a89284"/>
                <path id="Path_34639" data-name="Path 34639" d="M341.518,202.56l-.217.243-.057.116Z" fill="#a89284"/>
                <path id="Path_34640" data-name="Path 34640" d="M337.581,207.319c.384.074.577-.3.866-.449.367-.476-.332-.534.065-.914l.308.525c.4-.389,1.087-.814,1.088-1.51.082.027.217.029.165.188.273-.265-.451-.745.089-.934-.123.585.356.165.5.528l-.026.078c.21-.223.4-.646.586-.753-.084-.128-.378-.214-.155-.391-.113.041-.178-.126-.263-.255-.142.317-.331.351-.345.621-.261-.045.049-.122-.212-.167l-.068.3c-.172.08.01-.273-.235-.121a.46.46,0,0,1-.2.458l0-.088c-.064.158-.3.225-.015.427l-.361-.128.175.149c-.383.212-.858-.1-1.087.469.143-.031.131.139.107.22.274-.031.1-.318.245-.478.173.149.069.6.359.529-.4-.016-.4.387-.85.029-.282.2-.219.494-.584.606l-.045-.071c.182.332-.333.041-.307.5l.2-.049c.089.127.018.187-.066.285-.025-.053-.025-.053-.1-.088.137.236-.16.519-.151.613.165-.066.193-.37.309-.546C337.579,207.092,337.743,207.256,337.581,207.319Z" fill="#a89284"/>
                <path id="Path_34641" data-name="Path 34641" d="M339.731,204.265l0,.169A.215.215,0,0,0,339.731,204.265Z" fill="#a89284"/>
                <path id="Path_34642" data-name="Path 34642" d="M336.021,207.915c-.214.085-.088-.226-.327-.195-.07.29.436.152.426.514-.2-.045-.226.307-.3.366a.851.851,0,0,0-.345-.481c-.014.132-.277.1-.406.174.43-.025-.17.285.242.3.105.185-.087.511-.294.457-.083-.13.027-.168.1-.227-.107-.281-.281,0-.478-.183-.049.529-.977,1.145-.347,1.5.171.034.162-.156.253-.252-.37.1-.2-.281-.24-.394.187,0,.285-.325.369-.1l-.061.34a9.585,9.585,0,0,0,2.24-1.631l-.32.229c-.068-.171.073-.292.136-.447l-.409-.229c.109-.042.155-.158.239-.028,0-.23-.115-.281-.269-.348.184-.237.324-.131.329-.489-.592.007-.145.479-.766.564Z" fill="#a89284"/>
                <path id="Path_34643" data-name="Path 34643" d="M336.718,207.085l.038.243.079-.193Z" fill="#a89284"/>
                <path id="Path_34644" data-name="Path 34644" d="M337.142,207.952c-.06-.073-.03-.148-.091-.223C336.833,207.817,336.934,207.906,337.142,207.952Z" fill="#a89284"/>
                <path id="Path_34645" data-name="Path 34645" d="M334.387,208.793l-.2.227.2-.041A.17.17,0,0,1,334.387,208.793Z" fill="#a89284"/>
                <path id="Path_34646" data-name="Path 34646" d="M333.347,210.891c.311-.271.337-.538.839-.621.024-.361-.386-.374-.452-.64-.22.078.073.455-.069.666-.209-.148-.255.242-.469.325A.417.417,0,0,1,333.347,210.891Z" fill="#a89284"/>
                <path id="Path_34647" data-name="Path 34647" d="M331.659,210.869c-.156.1-.212.359-.4.339a.177.177,0,0,1,.112-.273c-.248-.25-.141.156-.435.071.034.021.127.033.121.124-.46.2-.082.391-.729.573-.028.131-.106.177.029.364-.461-.048-.3-.146-.809-.124a3.7,3.7,0,0,1,.518.533c-.737,0-.514.383-1.013.331.03-.037.038-.124.152-.147-.253-.317-.252.23-.482.275l-.159-.3c-.146.149-.335.521-.683.434l-.038-.176c-.314.487-.9.69-1.215,1.025l-.313-.063c-.4.536.583-.2.453.466-.372-.513-.173.342-.6.3-.265-.134.238-.292-.059-.451.092.322-.116.175-.229.352-.11-.283-.36.146-.427-.209l-.3.8a.345.345,0,0,0-.433.114c.314-.163.131.445.548.383a6.692,6.692,0,0,1,.877-.647,4.482,4.482,0,0,1,1.058-.539c-.139-.4.4-.229.33-.584.084.107.187.18.271.286.355-.315-.211-.143-.19-.332.147-.151.415-.017.477.123.3-.15-.024-.118,0-.4l.425.285c.41-.328.88-.722,1.376-1.1a5.993,5.993,0,0,1,1.588-.956l-.232-.194c.539-.156.4-1.02,1.141-.76v-.294c0,.166.318.312.307.549.069-.158.26-.151.338-.308l-.3.032c.022-.306.279-.29.453-.149.163-.467-.476-.278-.689-.439-.175.748-.76-.129-1.088.345C331.229,210.846,331.594,210.73,331.659,210.869Z" fill="#a89284"/>
                <path id="Path_34648" data-name="Path 34648" d="M332.679,211.153a.3.3,0,0,0,.026-.11A.357.357,0,0,0,332.679,211.153Z" fill="#a89284"/>
                <path id="Path_34649" data-name="Path 34649" d="M324.725,215.222a.654.654,0,0,0-.131.086C324.583,215.4,324.634,215.312,324.725,215.222Z" fill="#a89284"/>
                <path id="Path_34650" data-name="Path 34650" d="M333.2,210.621l0,0,0,.007Z" fill="#a89284"/>
                <path id="Path_34651" data-name="Path 34651" d="M333.02,209.881l-.127.077.1.1Z" fill="#a89284"/>
                <path id="Path_34652" data-name="Path 34652" d="M323.167,215.632l.067.136A.257.257,0,0,0,323.167,215.632Z" fill="#a89284"/>
                <path id="Path_34653" data-name="Path 34653" d="M319.3,217.385l.087-.032A.087.087,0,0,0,319.3,217.385Z" fill="#a89284"/>
                <path id="Path_34654" data-name="Path 34654" d="M309.914,221.525a1.773,1.773,0,0,0-.563.776l-.055-.142c-.1.128-.4.583,0,.662v-.151c.2-.359.344.1.631.066.253-.212.159-.807.484-.823.1-.074.156.073.172.194.275-.1.188-.545.353-.676.553,1.009.7-.653,1.392-.159.211-.2.592-.226.84-.558-.073.331.319-.089.359.239-.129-.662,1.031-.054.829-.878.523.057,0-.059.581-.064.028.089-.058.121-.087.15.263.089.2-.458.5-.158.438-.1,0-.24.169-.547.464-.065.38.085.74.324-.1-.392.225-.306.364-.578-.059,0-.381.036-.241-.178.522-.126.306-.394.73-.669.4.324-.461.187.078.359-.222.3-.455.367-.5.727a3.375,3.375,0,0,0,1.24-.71c.267-.033-.045.239.163.207.508.014.474-.7.887-.669l.021.241c.085-.373.769-.28,1.09-.61-.1-.083-.161-.138-.139-.231.232.526.416-.518.966-.324-.182-.316.1-.669.316-.809.126.053.174.2.214.282-.475-.017-.2.528-.436.821.177-.287.682-.3.787-.641l.039.295c.372-.125.029-.713.505-.659l.059.205c.707-.4,1.733-.521,2.092-1.24-.029-.181-.511-.386-.586-.5a7.525,7.525,0,0,0-.528.959l-.147-.294c.043.23-.212.515.043.581-.138.263-.294-.172-.455.127-.133-.318,0-.429-.132-.685l-.137.264c.008-.155-.18-.037-.176-.19-.209.576-.616.155-.954.5l.259-.05c.081.171-.06.215-.138.311-.231-.19-.283-.125-.547-.135-.121.222-.077.578-.331.69-.1-.35-.5.013-.675-.244.1.352-.432.337-.381.546-.1.129-.3.175-.38,0a.862.862,0,0,1,.075-.1l-.137.048c0-.045-.023-.069-.01-.083-.122.046-.017.287-.245.195-.036-.089.048-.128.1-.192-.34.088-.337.757-.733.577.013.18-.348.362-.12.678-.156-.085-.234-.381-.489-.23-.038.36-.352,0-.486.275.153-.418-.033-.088.089-.478-.235-.057-.354.453-.7.516-.063-.058-.1-.149-.156-.207-.08.152-.127.451-.34.243l.1.208c-.262-.027-.55.158-.872.01l-.134.514c-.524-.3-.891.283-1.07.769-.146.031-.379.033-.411-.058.023-.046.055-.128.1-.207-.209.058-.548-.084-.541.3-.171.179-.24-.179-.42-.179-.247.612-1.4.161-1.218.934a4.421,4.421,0,0,0,.861-.242c-.051.126.073.238-.038.3-.3.174-.584-.02-.854.241l-.162-.471c-.383-.107-.585.168-.774.408S310.288,221.734,309.914,221.525Z" fill="#a89284"/>
                <path id="Path_34655" data-name="Path 34655" d="M314.129,219.773l-.324-.15.1.193A.189.189,0,0,1,314.129,219.773Z" fill="#a89284"/>
                <path id="Path_34656" data-name="Path 34656" d="M313.9,219.816a.6.6,0,0,0-.111.147.2.2,0,0,0,.134-.1Z" fill="#a89284"/>
                <path id="Path_34657" data-name="Path 34657" d="M309.042,222.074a.328.328,0,0,0-.248.134C308.885,222.221,309.025,222.163,309.042,222.074Z" fill="#a89284"/>
                <path id="Path_34658" data-name="Path 34658" d="M308.853,222.352l.148,0-.011-.06Z" fill="#a89284"/>
                <path id="Path_34659" data-name="Path 34659" d="M303.1,227.1l-.091.495c-.158-.061-.357.391-.435.1.079.426-.542.542-.036.773.7-.97,2.117-1.8,2.9-3l-.045.295c.318-.756,1.04-.216,1.019-1.219l.183.385c.328-.086.17-.845.7-.669l-.121-.125c.074-.05.148-.006.224-.056l-.074-.043a.5.5,0,0,1,.5-.373c.086.1-.06.109-.1.18.159.052.164-.284.324-.375.186.026.1.163.114.222.374-.44.808-.183.831-.926-.024-.119-.23-.11-.083-.262-.412.019-.548.386-.745.7l.079-.049c.093.653-.243-.013-.47.427-.036-.266.125-.358.12-.51-.678-.146-.4.678-1,.358l.021-.036c-.1-.008-.142.161-.2.269.072.044.188.015.28.022-.061.11.038.365.07.478-.253-.152-.063.2-.3.2-.2-.165.006-.28,0-.432l-.106.273c-.172.138-.335-.1-.5-.147-.047.258.168.047.2.349-.365-.111-1.138.569-1.366,1.052.107-.134-.12-.248.066-.337-.1-.005-.217.262-.1.412a1.186,1.186,0,0,1-.9.581l.193.089c.007.4-.652.247-.874.7l.012,0c-.082.129.138.558-.126.664C303.147,227.339,303.269,227.256,303.1,227.1Z" fill="#a89284"/>
                <path id="Path_34660" data-name="Path 34660" d="M302.249,228.529l-.084-.291c-.16.071-.053.462.092.555.035-.117.217-.14.124-.259C302.341,228.521,302.273,228.45,302.249,228.529Z" fill="#a89284"/>
                <path id="Path_34661" data-name="Path 34661" d="M300.257,230.816c.011.084.1.134.142.2.368-.515.811-1.179,1.138-1.226.2-.1-.071-.408.052-.669l.28.1c-.023-.222.5-.345.071-.537-.039-.014.061.238-.081.275l-.1-.12-.163.247-.073-.2c-.476.105.224.59-.229.832l-.283-.259c-.231.233-.251.436-.611.506,0,0,.146.127.123.033a.282.282,0,0,1,.275.123c-.088.569-.124-.206-.464-.046-.079.494-.4,1.244-.776,1.246.3-.018.323.361.172.53-.168,0-.144-.193-.212-.291-.1.062-.224.077-.241.2a.465.465,0,0,1,.415.5C300.154,232.007,299.878,231.22,300.257,230.816Z" fill="#a89284"/>
                <path id="Path_34662" data-name="Path 34662" d="M300.408,231.145a.125.125,0,0,0-.009-.128c-.045.06-.088.12-.129.176Z" fill="#a89284"/>
              </g>
              <g id="Group_6642" data-name="Group 6642">
                <path id="Path_34663" data-name="Path 34663" d="M345.7,211.351c.115.118.24.126.4-.02.1.192-.146.31-.179.481.3-.041.14.2.315.335.257-.15.211-.455.509-.592a.326.326,0,0,0,.149.174c.251-.313.717-.816,1.131-.852a2.11,2.11,0,0,0,.85-.59,29,29,0,0,1,3.723-1.668l.017-.457c.144.161.308-.133.378.129-.091-.018-.142.052-.223.091.418.217.719-.345,1.105-.358-.065-.052-.261-.362-.182-.465.149.437.393-.168.691.282.382-.014-.139-.378.237-.453-.065-.267-.384.016-.524-.15.026-.247.352-.044.229-.3-.618.1-1.443,1.06-2.225,1.571l-.013-.272a1.61,1.61,0,0,1-1.575.467c.185.178-.692.189-.385.656-.164-.061-.188-.026-.363.007l.036.178c-.221.1-.306-.155-.551-.017.273.131.121.285.138.495-.4-.094-.841-.116-1.2-.169a.581.581,0,0,0,.256.162c-.212.019-.073.2-.081.3-.158.1-.289-.18-.355-.319-.355.079-.2.666-.519.631l.2.163c-.271.233-.667.157-.962.428-.342-.184.128-.411.193-.62-.107-.017-.262.055-.369-.012-.061.229-.174.587-.26.842C346.249,210.983,345.837,211.293,345.7,211.351Z" fill="#a89284"/>
                <path id="Path_34664" data-name="Path 34664" d="M346.554,210.583a1.243,1.243,0,0,0,.03-.171.167.167,0,0,1-.1.092A.172.172,0,0,0,346.554,210.583Z" fill="#a89284"/>
                <path id="Path_34665" data-name="Path 34665" d="M345.7,211.351a.23.23,0,0,0-.028-.024C345.658,211.367,345.673,211.367,345.7,211.351Z" fill="#a89284"/>
                <path id="Path_34666" data-name="Path 34666" d="M346.145,210.767l-.217.241-.056.117Z" fill="#a89284"/>
                <path id="Path_34667" data-name="Path 34667" d="M342.208,215.526c.384.073.577-.3.867-.45.367-.476-.332-.533.065-.915l.31.525c.4-.387,1.085-.814,1.087-1.509.082.028.216.031.164.188.273-.263-.451-.744.089-.934-.122.585.357.164.5.528l-.026.079c.21-.224.406-.647.585-.755-.084-.127-.377-.213-.154-.39-.111.04-.179-.126-.262-.257-.141.32-.331.354-.345.624-.259-.046.048-.124-.213-.168l-.067.3c-.173.081.011-.272-.236-.121a.459.459,0,0,1-.205.459l0-.089c-.064.158-.3.227-.015.428l-.362-.128.177.148c-.385.211-.858-.1-1.088.471.143-.034.131.138.107.218.274-.03.1-.315.246-.479.173.151.069.6.357.531-.394-.017-.4.384-.85.029-.281.2-.217.493-.583.606l-.043-.073c.18.333-.336.044-.31.506l.2-.049c.087.127.018.186-.068.286-.024-.054-.024-.054-.1-.088.138.237-.157.518-.151.613.166-.067.193-.371.309-.547C342.206,215.3,342.372,215.461,342.208,215.526Z" fill="#a89284"/>
                <path id="Path_34668" data-name="Path 34668" d="M344.357,212.471l.005.169A.2.2,0,0,0,344.357,212.471Z" fill="#a89284"/>
                <path id="Path_34669" data-name="Path 34669" d="M340.649,216.121c-.215.086-.09-.226-.327-.194-.071.291.438.151.425.513-.2-.044-.225.308-.3.366a.866.866,0,0,0-.348-.481c-.011.132-.276.1-.4.175.431-.025-.172.285.243.295.1.186-.089.512-.3.459-.08-.131.031-.17.1-.229-.108-.28-.282.005-.479-.182-.048.528-.977,1.144-.349,1.5.171.036.163-.153.255-.25-.372.1-.2-.282-.242-.394.188,0,.285-.325.37-.1l-.059.338a9.515,9.515,0,0,0,2.239-1.631l-.319.229c-.069-.169.072-.291.135-.446l-.409-.229c.107-.041.155-.158.24-.029,0-.228-.117-.28-.269-.348.181-.234.323-.13.328-.487-.593.008-.147.478-.766.564Z" fill="#a89284"/>
                <path id="Path_34670" data-name="Path 34670" d="M341.345,215.29l.039.243.078-.193Z" fill="#a89284"/>
                <path id="Path_34671" data-name="Path 34671" d="M341.771,216.157c-.061-.072-.03-.148-.092-.222C341.461,216.023,341.562,216.113,341.771,216.157Z" fill="#a89284"/>
                <path id="Path_34672" data-name="Path 34672" d="M339.015,217l-.193.226.2-.039A.166.166,0,0,1,339.015,217Z" fill="#a89284"/>
                <path id="Path_34673" data-name="Path 34673" d="M337.974,219.1c.311-.269.338-.537.839-.618.025-.364-.384-.376-.451-.642-.221.078.073.456-.07.665-.209-.148-.252.244-.469.326A.411.411,0,0,1,337.974,219.1Z" fill="#a89284"/>
                <path id="Path_34674" data-name="Path 34674" d="M336.288,219.075c-.157.1-.212.358-.4.339a.178.178,0,0,1,.112-.273c-.248-.25-.143.157-.435.069.036.023.128.033.12.127-.458.2-.081.39-.727.572-.031.131-.108.178.027.364-.462-.049-.3-.146-.81-.125a3.452,3.452,0,0,1,.518.536c-.735,0-.511.381-1.011.329.03-.036.04-.125.151-.146-.255-.316-.25.228-.482.273l-.157-.3c-.147.151-.335.521-.683.436l-.04-.177c-.314.488-.9.691-1.216,1.028l-.31-.066c-.4.536.582-.2.45.469-.371-.515-.171.339-.6.3-.263-.135.241-.293-.058-.451.093.321-.114.175-.226.35-.113-.281-.361.146-.428-.206l-.3.8a.344.344,0,0,0-.433.114c.315-.162.133.445.548.384a6.728,6.728,0,0,1,.878-.647,4.51,4.51,0,0,1,1.058-.541c-.139-.4.4-.228.331-.583.082.107.186.179.269.286.357-.315-.212-.143-.189-.332.147-.151.415-.017.476.123.3-.149-.026-.118.005-.4l.424.288c.41-.327.881-.723,1.376-1.1a5.953,5.953,0,0,1,1.589-.955l-.23-.193c.538-.158.4-1.021,1.141-.762l0-.293c0,.165.318.31.308.55.069-.16.258-.153.337-.309l-.3.029c.021-.3.277-.288.45-.146.166-.469-.474-.279-.687-.439-.176.747-.762-.129-1.088.345C335.858,219.051,336.222,218.938,336.288,219.075Z" fill="#a89284"/>
                <path id="Path_34675" data-name="Path 34675" d="M337.306,219.359a.357.357,0,0,0,.027-.108A.311.311,0,0,0,337.306,219.359Z" fill="#a89284"/>
                <path id="Path_34676" data-name="Path 34676" d="M329.352,223.428a.749.749,0,0,0-.13.087C329.209,223.6,329.261,223.519,329.352,223.428Z" fill="#a89284"/>
                <path id="Path_34677" data-name="Path 34677" d="M337.823,218.827l0,0,0,.007Z" fill="#a89284"/>
                <path id="Path_34678" data-name="Path 34678" d="M337.647,218.087l-.128.079.1.092Z" fill="#a89284"/>
                <path id="Path_34679" data-name="Path 34679" d="M327.8,223.839l.067.135A.241.241,0,0,0,327.8,223.839Z" fill="#a89284"/>
                <path id="Path_34680" data-name="Path 34680" d="M323.933,225.592l.087-.031A.083.083,0,0,0,323.933,225.592Z" fill="#a89284"/>
                <path id="Path_34681" data-name="Path 34681" d="M314.542,229.731a1.811,1.811,0,0,0-.563.776l-.055-.142c-.1.127-.4.582,0,.663v-.152c.2-.359.347.1.631.066.254-.212.162-.808.485-.822.1-.075.155.072.171.193.277-.1.189-.544.353-.675.554,1.007.7-.653,1.391-.158.213-.207.6-.229.843-.559-.076.33.318-.092.357.238-.128-.664,1.034-.055.83-.877.523.057,0-.059.581-.066.03.09-.057.123-.088.152.264.089.2-.459.5-.16.438-.094,0-.239.169-.545.464-.065.379.088.74.323-.1-.391.225-.306.365-.58-.06,0-.381.038-.242-.175.522-.126.306-.4.731-.669.4.323-.46.186.078.358-.222.3-.455.368-.5.726a3.335,3.335,0,0,0,1.238-.71c.266-.034-.045.242.163.209.511.012.473-.7.887-.671l.019.242c.086-.371.771-.279,1.093-.609-.1-.083-.162-.139-.14-.231.231.526.415-.517.967-.325-.184-.316.1-.669.317-.809.126.052.174.194.213.282-.477-.016-.2.528-.437.82.175-.286.683-.3.788-.641l.037.3c.373-.127.029-.713.506-.658l.058.2c.708-.406,1.734-.522,2.094-1.241-.034-.18-.513-.385-.589-.495a7.917,7.917,0,0,0-.525.957l-.148-.293c.044.23-.212.515.045.58-.14.264-.3-.171-.456.126-.135-.315-.006-.427-.133-.682l-.137.262c.007-.153-.181-.036-.176-.188-.21.576-.616.154-.954.5l.259-.051c.082.171-.061.216-.136.311-.233-.189-.284-.124-.55-.133-.119.221-.077.577-.331.689-.1-.352-.5.013-.673-.242.1.351-.434.339-.383.544-.1.128-.3.175-.379,0a.748.748,0,0,1,.075-.1l-.138.047c0-.044-.023-.069-.007-.085-.125.048-.019.29-.245.2-.038-.088.046-.127.1-.191-.342.088-.339.758-.734.576.015.18-.348.363-.121.68-.155-.088-.231-.384-.488-.23-.038.357-.354,0-.486.274.155-.419-.032-.089.09-.478-.237-.056-.355.452-.7.516-.06-.057-.093-.149-.153-.207-.081.151-.129.452-.338.241l.093.21c-.262-.027-.549.158-.87.007l-.134.518c-.524-.3-.892.282-1.07.767-.146.032-.379.032-.41-.059a2.253,2.253,0,0,1,.1-.205c-.211.057-.55-.084-.541.3-.171.179-.24-.178-.421-.178-.246.611-1.4.161-1.218.935a4.51,4.51,0,0,0,.859-.242c-.049.124.076.236-.037.3-.3.174-.583-.02-.852.242l-.164-.47c-.381-.108-.582.165-.772.4S314.915,229.94,314.542,229.731Z" fill="#a89284"/>
                <path id="Path_34682" data-name="Path 34682" d="M318.757,227.979l-.325-.15.1.2A.19.19,0,0,1,318.757,227.979Z" fill="#a89284"/>
                <path id="Path_34683" data-name="Path 34683" d="M318.527,228.024a.5.5,0,0,0-.109.146.2.2,0,0,0,.132-.1Z" fill="#a89284"/>
                <path id="Path_34684" data-name="Path 34684" d="M313.669,230.28a.32.32,0,0,0-.245.134C313.514,230.427,313.654,230.37,313.669,230.28Z" fill="#a89284"/>
                <path id="Path_34685" data-name="Path 34685" d="M313.481,230.559h.151l-.012-.06Z" fill="#a89284"/>
                <path id="Path_34686" data-name="Path 34686" d="M307.73,235.3l-.092.494c-.157-.061-.358.393-.434.1.079.426-.543.542-.036.773.7-.971,2.117-1.8,2.9-3l-.047.294c.319-.752,1.04-.214,1.02-1.218l.181.388c.329-.086.17-.845.7-.67l-.123-.124c.076-.052.148-.007.224-.056l-.072-.044a.5.5,0,0,1,.5-.373c.084.1-.062.109-.1.18.161.051.165-.285.325-.376.185.026.1.165.114.223.374-.44.807-.184.83-.926-.024-.118-.23-.11-.081-.264-.414.021-.548.388-.745.7l.078-.046c.091.653-.245-.014-.47.425-.038-.265.125-.358.12-.509-.681-.145-.4.678-1,.358l.019-.036c-.093-.008-.14.16-.2.27.074.043.187.015.282.021-.064.11.037.364.072.478-.255-.153-.065.2-.306.2-.2-.166.01-.281,0-.431l-.1.273c-.172.137-.335-.1-.5-.15-.047.26.169.048.2.35-.366-.11-1.141.569-1.368,1.052.107-.133-.12-.245.065-.336-.094-.005-.215.262-.1.412a1.182,1.182,0,0,1-.9.581l.193.089c.007.4-.651.248-.873.7l.011,0c-.082.13.138.558-.125.665C307.775,235.544,307.9,235.462,307.73,235.3Z" fill="#a89284"/>
                <path id="Path_34687" data-name="Path 34687" d="M306.876,236.735l-.083-.292c-.16.071-.054.463.094.556.034-.118.215-.14.123-.26C306.969,236.727,306.9,236.656,306.876,236.735Z" fill="#a89284"/>
                <path id="Path_34688" data-name="Path 34688" d="M304.885,239.021c.013.084.1.135.143.2.368-.515.812-1.178,1.139-1.225.2-.106-.073-.408.05-.669l.281.1c-.022-.224.5-.346.069-.537-.037-.017.063.236-.08.274l-.1-.121-.163.247-.073-.2c-.477.107.224.59-.228.831l-.283-.257c-.234.231-.251.434-.612.505,0,0,.146.128.123.033a.28.28,0,0,1,.275.122c-.089.57-.125-.207-.465-.044-.079.493-.394,1.243-.774,1.245.3-.018.323.36.171.53-.17,0-.143-.193-.212-.292-.1.063-.224.078-.242.2a.463.463,0,0,1,.416.5C304.783,240.213,304.509,239.426,304.885,239.021Z" fill="#a89284"/>
                <path id="Path_34689" data-name="Path 34689" d="M305.038,239.351a.127.127,0,0,0-.01-.129c-.044.062-.088.121-.129.176Z" fill="#a89284"/>
              </g>
              <g id="Group_6643" data-name="Group 6643">
                <path id="Path_34690" data-name="Path 34690" d="M350.335,219.559c.115.115.24.125.4-.021.1.191-.147.309-.181.481.3-.043.139.205.316.334.256-.15.212-.456.51-.591a.313.313,0,0,0,.148.174c.251-.313.718-.817,1.131-.851a2.127,2.127,0,0,0,.849-.59,28.532,28.532,0,0,1,3.724-1.668l.019-.459c.143.162.308-.133.376.131-.09-.02-.14.051-.224.092.42.215.72-.348,1.105-.361-.064-.053-.259-.363-.183-.463.15.437.4-.17.694.28.382-.014-.139-.379.235-.452-.063-.268-.384.015-.523-.15.027-.248.352-.044.229-.3-.616.1-1.442,1.059-2.225,1.57l-.013-.272a1.612,1.612,0,0,1-1.574.468c.184.178-.693.189-.388.656-.163-.061-.186-.026-.362.007l.036.178c-.218.1-.3-.155-.548-.017.269.131.12.284.137.495-.4-.094-.842-.117-1.2-.17a.58.58,0,0,0,.255.163c-.21.018-.074.2-.08.3-.16.1-.29-.18-.356-.32-.354.081-.2.666-.519.632l.2.164c-.273.233-.668.156-.962.427-.343-.185.125-.411.192-.618-.106-.02-.264.053-.369-.013-.06.229-.175.586-.258.841C350.878,219.191,350.464,219.5,350.335,219.559Z" fill="#a89284"/>
                <path id="Path_34691" data-name="Path 34691" d="M351.183,218.79a1.13,1.13,0,0,0,.03-.171.167.167,0,0,1-.1.091A.184.184,0,0,0,351.183,218.79Z" fill="#a89284"/>
                <path id="Path_34692" data-name="Path 34692" d="M350.335,219.559c-.009-.011-.019-.015-.029-.026C350.285,219.574,350.3,219.574,350.335,219.559Z" fill="#a89284"/>
                <path id="Path_34693" data-name="Path 34693" d="M352.712,219.076a.362.362,0,0,0-.056.009c-.021.006-.037.017-.06.022Z" fill="#a89284"/>
                <path id="Path_34694" data-name="Path 34694" d="M350.773,218.974l-.217.24-.057.118Z" fill="#a89284"/>
                <path id="Path_34695" data-name="Path 34695" d="M346.837,223.733c.383.071.578-.3.867-.449.368-.478-.332-.536.066-.916l.305.526c.4-.387,1.089-.815,1.09-1.509.081.027.215.03.165.187.273-.265-.45-.745.088-.934-.122.585.357.164.5.528l-.026.079c.212-.225.406-.647.586-.756-.082-.127-.378-.211-.156-.389-.112.041-.178-.124-.261-.257-.142.32-.331.353-.346.625-.258-.048.048-.125-.213-.168l-.066.3c-.172.079.009-.273-.237-.122a.458.458,0,0,1-.2.46v-.09c-.063.159-.3.226-.016.426l-.361-.128.176.149c-.384.212-.858-.1-1.089.472.144-.033.133.137.108.217.273-.029.1-.315.244-.478.173.15.07.6.359.53-.394-.017-.4.385-.849.029-.281.2-.219.494-.583.606l-.045-.071c.179.334-.334.041-.307.5l.2-.048c.089.126.018.186-.066.284-.025-.054-.025-.054-.1-.087.137.237-.158.519-.149.612.164-.065.192-.369.305-.544C346.835,223.506,347,223.669,346.837,223.733Z" fill="#a89284"/>
                <path id="Path_34696" data-name="Path 34696" d="M348.987,220.677l.005.17A.211.211,0,0,0,348.987,220.677Z" fill="#a89284"/>
                <path id="Path_34697" data-name="Path 34697" d="M345.279,224.326c-.216.088-.091-.225-.33-.193-.068.29.438.151.427.515-.2-.046-.226.306-.3.366a.842.842,0,0,0-.347-.481c-.014.131-.276.1-.4.173.43-.023-.171.286.24.3.106.183-.085.51-.295.456-.081-.131.03-.17.1-.227-.107-.281-.28,0-.477-.183-.048.528-.976,1.144-.349,1.5.171.034.163-.155.256-.252-.373.1-.2-.282-.242-.4.187,0,.285-.324.368-.1l-.061.339a9.61,9.61,0,0,0,2.242-1.63l-.319.226c-.067-.17.072-.291.133-.445l-.406-.23c.108-.041.153-.157.239-.029,0-.229-.117-.278-.27-.347.182-.236.321-.13.327-.488-.591.008-.144.478-.764.564Z" fill="#a89284"/>
                <path id="Path_34698" data-name="Path 34698" d="M345.974,223.5l.037.244.081-.2Z" fill="#a89284"/>
                <path id="Path_34699" data-name="Path 34699" d="M346.4,224.364c-.06-.072-.03-.15-.094-.222C346.09,224.23,346.191,224.32,346.4,224.364Z" fill="#a89284"/>
                <path id="Path_34700" data-name="Path 34700" d="M343.645,225.205l-.195.226.2-.038A.167.167,0,0,1,343.645,225.205Z" fill="#a89284"/>
                <path id="Path_34701" data-name="Path 34701" d="M342.6,227.3c.31-.27.338-.535.84-.618.023-.361-.387-.375-.453-.641-.22.079.074.456-.069.667-.207-.15-.254.242-.47.325A.4.4,0,0,1,342.6,227.3Z" fill="#a89284"/>
                <path id="Path_34702" data-name="Path 34702" d="M340.915,227.282c-.156.1-.21.357-.4.338a.176.176,0,0,1,.113-.272c-.248-.253-.143.157-.434.07.034.022.126.032.119.126-.459.2-.082.389-.729.571-.028.129-.105.179.028.365-.46-.048-.3-.147-.808-.124a3.408,3.408,0,0,1,.517.533c-.734,0-.512.381-1.011.33.028-.036.038-.124.15-.146-.253-.319-.252.231-.481.273l-.158-.3c-.147.151-.334.522-.684.435l-.038-.178c-.313.489-.9.692-1.216,1.028l-.312-.064c-.4.536.583-.2.452.467-.373-.514-.171.34-.6.3-.265-.137.239-.294-.059-.453.092.322-.115.176-.228.351-.112-.281-.361.147-.428-.206l-.3.8a.349.349,0,0,0-.434.116c.313-.163.132.445.549.383a6.438,6.438,0,0,1,.876-.644,4.382,4.382,0,0,1,1.058-.541c-.14-.4.4-.23.332-.585.08.108.186.179.27.284.353-.311-.213-.14-.19-.331.146-.149.414-.016.477.124.3-.147-.026-.117,0-.4l.423.287c.411-.328.881-.722,1.377-1.1a5.948,5.948,0,0,1,1.59-.958l-.233-.193c.539-.156.4-1.019,1.139-.759v-.295c0,.166.318.312.308.55.069-.158.259-.152.337-.309l-.3.031c.021-.305.279-.289.452-.148.166-.47-.474-.28-.687-.439-.177.749-.76-.13-1.088.344C340.486,227.259,340.85,227.143,340.915,227.282Z" fill="#a89284"/>
                <path id="Path_34703" data-name="Path 34703" d="M341.934,227.566a.328.328,0,0,0,.027-.109A.316.316,0,0,0,341.934,227.566Z" fill="#a89284"/>
                <path id="Path_34704" data-name="Path 34704" d="M333.981,231.634a.731.731,0,0,0-.131.087C333.839,231.81,333.89,231.725,333.981,231.634Z" fill="#a89284"/>
                <path id="Path_34705" data-name="Path 34705" d="M342.451,227.034l0,0v.006Z" fill="#a89284"/>
                <path id="Path_34706" data-name="Path 34706" d="M342.275,226.294l-.125.078.094.094Z" fill="#a89284"/>
                <path id="Path_34707" data-name="Path 34707" d="M332.424,232.045l.068.135A.294.294,0,0,0,332.424,232.045Z" fill="#a89284"/>
                <path id="Path_34708" data-name="Path 34708" d="M328.561,233.8l.087-.031A.081.081,0,0,0,328.561,233.8Z" fill="#a89284"/>
                <path id="Path_34709" data-name="Path 34709" d="M319.171,237.936a1.8,1.8,0,0,0-.565.779l-.055-.144c-.1.127-.4.584.006.662v-.151c.2-.358.346.1.632.065.251-.21.16-.807.483-.821.105-.075.156.073.174.192.274-.1.188-.545.351-.674.552,1.008.7-.654,1.391-.16.214-.2.6-.226.842-.557-.072.329.319-.091.358.239-.128-.663,1.033-.057.829-.877.522.055,0-.061.584-.067.027.09-.061.123-.089.153.262.088.2-.458.5-.161.437-.1-.005-.239.166-.545.464-.065.381.084.741.323-.1-.391.225-.306.364-.579-.059,0-.379.036-.24-.179.522-.124.3-.391.729-.666.4.324-.461.185.078.359-.221.3-.453.365-.5.727a3.382,3.382,0,0,0,1.238-.71c.267-.034-.044.238.162.207.511.013.476-.7.888-.672l.022.243c.084-.372.768-.279,1.09-.61-.1-.081-.16-.139-.14-.23.231.526.415-.518.969-.325-.185-.316.1-.67.313-.808.128.051.174.2.213.282-.474-.017-.2.528-.434.819.174-.286.68-.3.787-.64l.038.294c.371-.124.028-.712.506-.657l.057.205c.708-.4,1.735-.523,2.093-1.242-.032-.18-.511-.383-.588-.492a7.57,7.57,0,0,0-.525.956l-.146-.294c.042.232-.214.516.041.582-.138.263-.295-.171-.454.127-.135-.32-.005-.428-.133-.686l-.136.262c.006-.152-.181-.035-.176-.189-.21.578-.617.157-.956.507l.259-.051c.083.172-.059.214-.135.31-.232-.189-.286-.125-.55-.132-.119.219-.077.576-.332.69-.1-.354-.5.012-.673-.243.1.35-.432.336-.38.542-.105.129-.3.177-.38,0a.577.577,0,0,1,.074-.1l-.139.047c0-.043-.019-.069-.007-.084-.123.048-.018.288-.245.195-.036-.089.049-.126.1-.19-.339.088-.337.757-.732.576.013.18-.348.362-.121.679-.155-.086-.234-.381-.489-.229-.037.356-.352,0-.486.274.153-.418-.033-.086.09-.479-.236-.056-.353.452-.7.517-.061-.059-.094-.149-.156-.207-.079.15-.126.45-.338.241l.094.211c-.261-.03-.548.155-.869.007l-.135.517c-.525-.3-.891.28-1.072.768-.145.031-.377.031-.409-.061.021-.043.054-.125.1-.2-.21.058-.548-.085-.539.3-.175.182-.244-.177-.42-.177-.249.612-1.4.162-1.221.934a4.549,4.549,0,0,0,.861-.241c-.049.123.073.237-.039.305-.3.173-.583-.02-.852.242l-.162-.473c-.381-.108-.583.168-.773.407S319.545,238.145,319.171,237.936Z" fill="#a89284"/>
                <path id="Path_34710" data-name="Path 34710" d="M323.384,236.185l-.323-.15.093.194A.193.193,0,0,1,323.384,236.185Z" fill="#a89284"/>
                <path id="Path_34711" data-name="Path 34711" d="M323.154,236.229a.551.551,0,0,0-.109.147.206.206,0,0,0,.134-.1Z" fill="#a89284"/>
                <path id="Path_34712" data-name="Path 34712" d="M318.3,238.487a.318.318,0,0,0-.246.133C318.141,238.633,318.281,238.577,318.3,238.487Z" fill="#a89284"/>
                <path id="Path_34713" data-name="Path 34713" d="M318.109,238.764l.15,0-.013-.061Z" fill="#a89284"/>
                <path id="Path_34714" data-name="Path 34714" d="M312.356,243.511l-.092.494c-.155-.061-.356.39-.432.1.078.427-.542.541-.036.773.7-.97,2.114-1.8,2.9-3l-.049.3c.322-.756,1.042-.217,1.021-1.219l.182.387c.331-.088.171-.846.7-.671l-.123-.125c.076-.05.147,0,.223-.055l-.072-.043a.5.5,0,0,1,.5-.374c.085.105-.062.109-.1.181.163.05.164-.285.326-.377.184.028.1.164.114.223.374-.441.807-.183.83-.925-.025-.119-.231-.11-.081-.264-.415.021-.55.388-.747.7l.081-.049c.09.654-.244-.013-.47.427-.038-.265.124-.358.116-.509-.676-.147-.4.677-1,.358l.02-.037c-.092-.008-.14.161-.2.269.073.045.189.014.281.022-.06.111.04.363.073.478-.255-.154-.063.2-.3.2-.2-.165.009-.281,0-.432l-.1.274c-.172.137-.334-.1-.505-.149-.046.259.17.048.2.351-.367-.112-1.14.568-1.368,1.051.106-.133-.12-.248.066-.338-.1,0-.217.263-.1.414a1.183,1.183,0,0,1-.9.58l.194.091c.007.4-.652.246-.872.7h.009c-.082.128.138.555-.125.663C312.4,243.752,312.525,243.669,312.356,243.511Z" fill="#a89284"/>
                <path id="Path_34715" data-name="Path 34715" d="M311.505,244.942l-.084-.294c-.161.074-.053.464.093.557.035-.118.217-.139.121-.258C311.6,244.932,311.53,244.862,311.505,244.942Z" fill="#a89284"/>
                <path id="Path_34716" data-name="Path 34716" d="M309.513,247.228c.012.084.1.136.14.2.371-.516.812-1.178,1.141-1.227.2-.1-.071-.408.05-.667l.283.1c-.025-.223.5-.346.069-.537-.038-.014.06.238-.081.274l-.1-.119-.164.247-.074-.2c-.475.1.225.587-.228.829l-.283-.259c-.232.232-.248.435-.609.505,0,0,.144.128.121.036a.281.281,0,0,1,.276.12c-.087.57-.125-.206-.466-.044-.077.493-.394,1.244-.772,1.243.3-.015.322.362.17.532-.168,0-.143-.193-.212-.29-.1.062-.224.076-.24.2a.466.466,0,0,1,.413.5C309.411,248.419,309.136,247.633,309.513,247.228Z" fill="#a89284"/>
                <path id="Path_34717" data-name="Path 34717" d="M309.666,247.556a.113.113,0,0,0-.013-.126c-.041.059-.086.12-.126.175Z" fill="#a89284"/>
              </g>
              <g id="Group_6644" data-name="Group 6644">
                <path id="Path_34718" data-name="Path 34718" d="M354.963,227.765c.114.117.241.125.4-.022.1.192-.15.311-.183.482.3-.042.14.2.318.335.254-.15.21-.456.508-.592a.328.328,0,0,0,.149.175c.251-.313.718-.818,1.13-.852a2.167,2.167,0,0,0,.852-.59,28.665,28.665,0,0,1,3.72-1.668l.019-.458c.146.161.308-.133.378.129-.09-.02-.14.051-.222.092.418.215.717-.347,1.1-.359-.068-.053-.26-.364-.183-.463.15.436.393-.171.693.279.382-.015-.14-.378.237-.452-.067-.266-.383.013-.526-.149.028-.249.353-.044.228-.3-.617.1-1.44,1.059-2.224,1.572l-.011-.274a1.613,1.613,0,0,1-1.576.468c.184.178-.692.189-.386.655-.165-.058-.188-.025-.363.008l.036.177c-.22.1-.3-.154-.55-.015.272.131.119.284.137.494-.4-.093-.838-.116-1.2-.171a.577.577,0,0,0,.257.165c-.215.017-.076.2-.083.3-.16.1-.289-.18-.356-.319-.354.08-.2.666-.518.631l.2.165c-.27.231-.664.153-.961.425-.34-.185.125-.412.193-.618-.106-.02-.264.055-.37-.013-.06.229-.174.586-.258.842C355.505,227.4,355.094,227.706,354.963,227.765Z" fill="#a89284"/>
                <path id="Path_34719" data-name="Path 34719" d="M355.81,227a.77.77,0,0,0,.03-.171.163.163,0,0,1-.1.092A.173.173,0,0,0,355.81,227Z" fill="#a89284"/>
                <path id="Path_34720" data-name="Path 34720" d="M354.963,227.765c-.008-.01-.021-.014-.029-.026C354.914,227.78,354.93,227.779,354.963,227.765Z" fill="#a89284"/>
                <path id="Path_34721" data-name="Path 34721" d="M357.338,227.285a.257.257,0,0,0-.055.006c-.022.005-.036.016-.058.022Z" fill="#a89284"/>
                <path id="Path_34722" data-name="Path 34722" d="M355.4,227.181l-.215.239-.059.12Z" fill="#a89284"/>
                <path id="Path_34723" data-name="Path 34723" d="M351.465,231.939c.384.073.577-.3.866-.449.368-.476-.331-.536.066-.916l.307.527c.4-.389,1.087-.816,1.09-1.511.079.03.216.03.164.189.272-.265-.451-.746.089-.935-.123.585.357.165.5.527l-.026.079c.208-.221.4-.645.586-.754-.084-.128-.378-.213-.157-.39-.112.04-.177-.126-.262-.257-.14.32-.329.352-.347.624-.259-.045.05-.123-.211-.168l-.066.3c-.173.08.01-.274-.238-.121a.457.457,0,0,1-.2.459l0-.09c-.064.16-.3.227-.016.426l-.36-.127.175.149c-.385.212-.857-.1-1.085.47.143-.033.13.138.106.218.273-.028.1-.313.244-.478.174.15.069.6.357.53-.393-.017-.4.386-.848.03-.283.2-.218.493-.585.606l-.044-.072c.18.332-.333.042-.307.505l.2-.048c.089.125.018.186-.066.285-.026-.056-.026-.056-.1-.088.136.237-.157.518-.151.613.165-.067.194-.371.308-.546C351.463,231.712,351.628,231.876,351.465,231.939Z" fill="#a89284"/>
                <path id="Path_34724" data-name="Path 34724" d="M353.615,228.884l0,.169A.212.212,0,0,0,353.615,228.884Z" fill="#a89284"/>
                <path id="Path_34725" data-name="Path 34725" d="M349.907,232.533c-.215.088-.092-.223-.329-.193-.069.291.437.15.426.514-.2-.046-.225.307-.3.366a.85.85,0,0,0-.346-.482c-.012.132-.276.1-.4.174.429-.024-.172.286.24.3.105.184-.087.51-.3.458-.081-.132.031-.172.1-.229-.109-.279-.283,0-.478-.183-.051.529-.978,1.147-.351,1.5.172.034.165-.156.257-.251-.373.1-.2-.284-.241-.4.185,0,.284-.325.368-.1l-.061.341a9.571,9.571,0,0,0,2.241-1.633l-.32.229c-.067-.171.071-.29.136-.446l-.409-.228c.109-.043.155-.159.24-.03,0-.228-.118-.278-.271-.347.183-.235.323-.131.331-.49-.6.01-.147.479-.766.565Z" fill="#a89284"/>
                <path id="Path_34726" data-name="Path 34726" d="M350.6,231.7l.039.244.077-.194Z" fill="#a89284"/>
                <path id="Path_34727" data-name="Path 34727" d="M351.028,232.57c-.062-.073-.03-.149-.092-.221C350.718,232.437,350.818,232.526,351.028,232.57Z" fill="#a89284"/>
                <path id="Path_34728" data-name="Path 34728" d="M348.271,233.411l-.194.229.2-.042A.169.169,0,0,1,348.271,233.411Z" fill="#a89284"/>
                <path id="Path_34729" data-name="Path 34729" d="M347.231,235.51c.31-.269.337-.537.838-.619.028-.363-.384-.376-.45-.642-.221.078.071.457-.071.666-.206-.149-.251.243-.469.325A.423.423,0,0,1,347.231,235.51Z" fill="#a89284"/>
                <path id="Path_34730" data-name="Path 34730" d="M345.544,235.489c-.154.1-.209.356-.4.339a.177.177,0,0,1,.111-.273c-.246-.251-.141.156-.434.068.035.024.128.035.12.128-.459.2-.082.39-.729.571-.027.131-.106.18.029.364-.463-.048-.306-.145-.808-.124a3.55,3.55,0,0,1,.517.533c-.735,0-.512.384-1.013.331.032-.037.039-.125.151-.147-.253-.317-.249.23-.479.275l-.16-.305c-.147.152-.335.521-.684.435l-.036-.178c-.316.489-.9.692-1.218,1.029l-.312-.065c-.4.535.584-.2.451.468-.37-.515-.17.339-.6.3-.264-.134.242-.293-.059-.45.094.32-.113.174-.228.349-.11-.281-.36.147-.426-.207l-.3.8a.344.344,0,0,0-.431.112c.312-.16.129.447.548.385a6.519,6.519,0,0,1,.876-.647,4.387,4.387,0,0,1,1.06-.54c-.144-.4.4-.229.329-.585.081.11.186.181.269.287.356-.313-.211-.142-.19-.333.148-.151.417-.015.476.126.3-.151-.024-.118.007-.4l.422.288c.412-.328.882-.721,1.377-1.1a5.949,5.949,0,0,1,1.589-.958l-.232-.193c.54-.157.4-1.018,1.142-.76l0-.294c0,.165.318.312.306.55.069-.158.262-.153.339-.309l-.3.03c.02-.3.279-.29.45-.147.166-.469-.475-.279-.685-.44-.177.748-.76-.131-1.091.347C345.114,235.465,345.479,235.351,345.544,235.489Z" fill="#a89284"/>
                <path id="Path_34731" data-name="Path 34731" d="M346.562,235.773a.255.255,0,0,0,.026-.109A.335.335,0,0,0,346.562,235.773Z" fill="#a89284"/>
                <path id="Path_34732" data-name="Path 34732" d="M338.611,239.84a.7.7,0,0,0-.131.087C338.465,240.017,338.517,239.933,338.611,239.84Z" fill="#a89284"/>
                <path id="Path_34733" data-name="Path 34733" d="M347.079,235.24l0,0v.006Z" fill="#a89284"/>
                <path id="Path_34734" data-name="Path 34734" d="M346.9,234.5l-.128.079.094.095Z" fill="#a89284"/>
                <path id="Path_34735" data-name="Path 34735" d="M337.052,240.252l.067.135A.247.247,0,0,0,337.052,240.252Z" fill="#a89284"/>
                <path id="Path_34736" data-name="Path 34736" d="M333.19,242.005l.087-.031A.083.083,0,0,0,333.19,242.005Z" fill="#a89284"/>
                <path id="Path_34737" data-name="Path 34737" d="M323.8,246.144a1.792,1.792,0,0,0-.565.777l-.053-.144c-.1.128-.4.584,0,.663v-.15c.2-.359.346.1.63.065.253-.212.162-.808.483-.821.107-.076.157.072.174.191.276-.1.189-.545.352-.673.553,1.008.7-.655,1.392-.16.212-.2.6-.227.844-.56-.074.332.318-.089.356.241-.128-.663,1.032-.056.828-.877.523.056,0-.061.582-.065.029.089-.058.121-.085.149.26.09.2-.456.494-.155.438-.1,0-.243.169-.547.464-.067.381.085.74.322-.1-.39.226-.307.365-.579-.06,0-.381.038-.241-.176.521-.126.3-.4.728-.668.4.323-.458.182.08.357-.221.3-.454.366-.5.727a3.376,3.376,0,0,0,1.241-.709c.266-.034-.043.238.161.207.511.011.477-.706.889-.672l.021.241c.082-.37.768-.276,1.091-.608-.1-.083-.16-.138-.142-.23.233.525.415-.517.97-.325-.185-.315.1-.67.314-.809.126.051.174.195.214.28-.476-.016-.2.531-.435.821.174-.285.679-.3.786-.639l.038.294c.373-.125.028-.713.507-.658l.056.205c.707-.4,1.734-.522,2.093-1.241-.032-.18-.512-.384-.588-.494a7.65,7.65,0,0,0-.525.957l-.147-.294c.044.231-.213.516.043.581-.14.265-.294-.171-.456.126-.133-.316-.005-.425-.131-.683l-.137.262c.006-.152-.182-.035-.175-.189-.21.578-.616.155-.957.506l.261-.052c.082.173-.062.217-.138.311-.232-.187-.283-.126-.549-.132-.12.221-.078.578-.33.689-.1-.352-.5.013-.672-.244.094.353-.434.338-.381.544-.106.13-.307.177-.383,0a.641.641,0,0,1,.076-.1l-.138.048c-.006-.042-.022-.071-.008-.084-.123.047-.018.289-.244.2-.037-.089.045-.126.1-.19-.34.087-.339.758-.732.575.013.18-.349.364-.122.679-.155-.086-.232-.383-.489-.229-.037.359-.353,0-.485.275.156-.419-.032-.089.09-.479-.235-.056-.353.452-.7.517-.061-.06-.094-.149-.155-.209-.078.151-.127.452-.339.243l.093.211c-.26-.027-.546.156-.869.006l-.134.517c-.525-.3-.891.281-1.071.769-.145.029-.378.031-.408-.061a2.234,2.234,0,0,1,.1-.206c-.212.06-.55-.084-.541.3-.172.179-.241-.181-.422-.178-.247.611-1.4.162-1.217.933a4.327,4.327,0,0,0,.86-.242c-.049.124.074.238-.038.306-.3.173-.582-.02-.853.24l-.163-.47c-.382-.107-.584.167-.772.406S324.173,246.354,323.8,246.144Z" fill="#a89284"/>
                <path id="Path_34738" data-name="Path 34738" d="M328.013,244.392l-.323-.149.093.194A.189.189,0,0,1,328.013,244.392Z" fill="#a89284"/>
                <path id="Path_34739" data-name="Path 34739" d="M327.783,244.437a.554.554,0,0,0-.108.145.2.2,0,0,0,.133-.1Z" fill="#a89284"/>
                <path id="Path_34740" data-name="Path 34740" d="M322.925,246.694a.315.315,0,0,0-.245.134C322.77,246.842,322.911,246.783,322.925,246.694Z" fill="#a89284"/>
                <path id="Path_34741" data-name="Path 34741" d="M322.739,246.971l.148,0-.012-.059Z" fill="#a89284"/>
                <path id="Path_34742" data-name="Path 34742" d="M316.986,251.717l-.093.5c-.155-.063-.355.39-.433.1.078.426-.541.541-.036.773.7-.972,2.117-1.8,2.9-3l-.046.295c.319-.755,1.041-.216,1.019-1.219l.181.386c.33-.086.173-.846.7-.669l-.124-.125c.075-.05.147-.007.223-.054l-.072-.045a.506.506,0,0,1,.5-.374c.084.1-.061.11-.1.181.161.052.166-.284.327-.376.183.027.1.166.112.223.375-.44.81-.185.829-.925-.022-.119-.228-.111-.08-.263-.413.02-.548.387-.745.7l.08-.048c.09.655-.245-.013-.471.426-.036-.265.126-.357.119-.508-.678-.148-.4.677-1,.358l.019-.036c-.093-.008-.141.16-.2.269.072.045.188.014.279.021-.06.111.042.363.073.479-.255-.152-.065.2-.3.2-.2-.165.009-.28,0-.432l-.1.272c-.174.139-.336-.1-.506-.146-.046.257.169.048.2.349-.365-.112-1.141.569-1.366,1.051.105-.132-.12-.246.065-.338-.1,0-.218.264-.1.415a1.183,1.183,0,0,1-.9.58l.194.088c.006.406-.651.249-.874.7l.011,0c-.084.13.138.558-.125.665C317.031,251.958,317.153,251.875,316.986,251.717Z" fill="#a89284"/>
                <path id="Path_34743" data-name="Path 34743" d="M316.135,253.147l-.083-.291c-.164.073-.056.463.091.556.035-.118.215-.14.122-.259C316.225,253.139,316.157,253.069,316.135,253.147Z" fill="#a89284"/>
                <path id="Path_34744" data-name="Path 34744" d="M314.142,255.433c.011.086.1.135.141.2.368-.515.812-1.178,1.14-1.226.2-.105-.073-.407.05-.667l.281.1c-.022-.226.5-.346.07-.538-.04-.014.062.238-.081.274l-.1-.119-.164.247-.071-.2c-.477.106.222.59-.229.83l-.283-.258c-.232.232-.251.435-.611.506,0,0,.146.127.123.034a.281.281,0,0,1,.275.121c-.089.571-.126-.207-.466-.043-.076.49-.395,1.243-.774,1.244.3-.017.325.36.174.529-.171,0-.145-.192-.213-.292-.1.064-.223.078-.239.2a.471.471,0,0,1,.412.505C314.038,256.627,313.764,255.84,314.142,255.433Z" fill="#a89284"/>
                <path id="Path_34745" data-name="Path 34745" d="M314.292,255.765a.12.12,0,0,0-.009-.129l-.128.177Z" fill="#a89284"/>
              </g>
            </g>
          </g>
        </g>
      </g>
    </g>
    <g id="Group_6652" data-name="Group 6652">
      <g id="Group_6650" data-name="Group 6650" style="mix-blend-mode: multiply;isolation: isolate">
        <path id="Path_34746" data-name="Path 34746" d="M375.637,232.294a30.034,30.034,0,1,1,30.034-30.034A30.068,30.068,0,0,1,375.637,232.294Zm0-59.068a29.034,29.034,0,1,0,29.034,29.034A29.066,29.066,0,0,0,375.637,173.226Z" fill="#bbb1a7"/>
      </g>
      <g id="Group_6651" data-name="Group 6651" style="mix-blend-mode: multiply;isolation: isolate">
        <path id="Path_34747" data-name="Path 34747" d="M375.637,230.008a27.748,27.748,0,1,1,27.747-27.748A27.779,27.779,0,0,1,375.637,230.008Zm0-53.5a25.748,25.748,0,1,0,25.747,25.748A25.777,25.777,0,0,0,375.637,176.512Z" fill="#bbb1a7"/>
      </g>
    </g>
  </g>
</svg>
