<svg id="Layer_5" data-name="Layer 5" xmlns="http://www.w3.org/2000/svg" viewBox="0 0 175.4 161.76"><defs><style>.cls-1{fill:#f5f5f5;}.cls-2{fill:#e1e1e1;}.cls-3{fill:#375a64;}.cls-4,.cls-6{fill:#444;}.cls-5,.cls-7{fill:#5ae4a7;}.cls-11,.cls-32,.cls-5,.cls-6{opacity:0.3;}.cls-8{fill:#37474f;}.cls-9{fill:#1a2e35;}.cls-10{fill:#7a7a7a;}.cls-11,.cls-12,.cls-13,.cls-18,.cls-21,.cls-22,.cls-23,.cls-24,.cls-26{fill:#fff;}.cls-12,.cls-25{opacity:0.7;}.cls-13,.cls-15{opacity:0.5;}.cls-14,.cls-23{opacity:0.4;}.cls-16,.cls-22{opacity:0.6;}.cls-17,.cls-21{opacity:0.8;}.cls-18,.cls-19{opacity:0.1;}.cls-20,.cls-24{opacity:0.2;}.cls-27{fill:#e6e6e6;}.cls-28{fill:#fafafa;}.cls-29{fill:#f0f0f0;}.cls-30{fill:#f2f2f2;}.cls-31{fill:#ededed;}.cls-33{fill:#757575;}.cls-34{fill:#606060;}.cls-35{fill:#263238;}.cls-36{fill:#945959;}.cls-37{fill:#6d6d6d;}.cls-38{fill:#703838;}.cls-39{fill:#ba68c8;}.cls-40{fill:#3a3a3a;}</style></defs><ellipse class="cls-1" cx="87.7" cy="116.65" rx="87.7" ry="45.11"/><path class="cls-2" d="M176.76,134.22l-21.63,11.13a9,9,0,0,1-7.31-.27l-20.58-10.59c-2.17-1.11-2.4-2.8-.53-3.76l21.63-11.13a9.07,9.07,0,0,1,7.32.27l20.58,10.59C178.4,131.57,178.64,133.26,176.76,134.22Z" transform="translate(-19.13 -1.77)"/><path class="cls-2" d="M141.73,135.83c6.66,3.68,6.66,9.65,0,13.33s-17.46,3.69-24.12,0-6.66-9.65,0-13.33S135.07,132.14,141.73,135.83Z" transform="translate(-19.13 -1.77)"/><ellipse class="cls-2" cx="27.67" cy="129.91" rx="16.66" ry="8.57"/><path class="cls-2" d="M114.09,83.79,41.8,121a2.78,2.78,0,0,0,0,5.08l39.45,20.29a10,10,0,0,0,9.08,0l69.39-35.69a2.79,2.79,0,0,0,0-5.09L117.38,83.79A3.66,3.66,0,0,0,114.09,83.79Z" transform="translate(-19.13 -1.77)"/><path class="cls-3" d="M92.64,144.52a3.23,3.23,0,0,1-2.62,0c-.72-.38-.72-1,0-1.35a3.23,3.23,0,0,1,2.62,0C93.36,143.54,93.36,144.14,92.64,144.52Z" transform="translate(-19.13 -1.77)"/><rect class="cls-3" x="70.36" y="105.16" width="3.7" height="36.88"/><path class="cls-3" d="M49.31,122.37a3.23,3.23,0,0,1-2.62,0c-.72-.37-.72-1,0-1.34a3.23,3.23,0,0,1,2.62,0C50,121.4,50,122,49.31,122.37Z" transform="translate(-19.13 -1.77)"/><rect class="cls-3" x="27.02" y="83.02" width="3.7" height="36.88"/><path class="cls-3" d="M157,111.07a3.21,3.21,0,0,1-2.61,0c-.73-.38-.73-1,0-1.35a3.21,3.21,0,0,1,2.61,0C157.73,110.09,157.73,110.69,157,111.07Z" transform="translate(-19.13 -1.77)"/><rect class="cls-3" x="134.73" y="71.71" width="3.7" height="36.88"/><path class="cls-3" d="M113.68,88.92a3.23,3.23,0,0,1-2.62,0c-.72-.37-.72-1,0-1.34a3.23,3.23,0,0,1,2.62,0C114.4,88,114.4,88.55,113.68,88.92Z" transform="translate(-19.13 -1.77)"/><rect class="cls-3" x="91.4" y="49.57" width="3.7" height="36.88"/><polygon class="cls-4" points="17.73 83.43 17.73 85.61 66.66 110.78 66.66 108.6 17.73 83.43"/><polygon class="cls-5" points="17.73 83.43 17.73 85.61 66.66 110.78 66.66 108.6 17.73 83.43"/><polygon class="cls-4" points="145.53 68.03 66.66 108.6 66.66 110.78 145.53 70.21 145.53 68.03"/><polygon class="cls-6" points="145.53 68.03 66.66 108.6 66.66 110.78 145.53 70.21 145.53 68.03"/><polygon class="cls-7" points="96.61 42.86 17.73 83.43 66.66 108.6 145.53 68.03 96.61 42.86"/><path class="cls-8" d="M35.17,109.16v21.29h0c0,1.61,1.19,3.21,3.56,4.43,4.75,2.44,12.46,2.44,17.21,0,2.37-1.22,3.56-2.82,3.56-4.43h0V109.16Z" transform="translate(-19.13 -1.77)"/><ellipse class="cls-3" cx="28.21" cy="107.3" rx="12.17" ry="6.26"/><path class="cls-9" d="M55.67,112a8.24,8.24,0,0,1-1.18.74l-.25.12a12.41,12.41,0,0,1-1.71.67l-.73.2c-.56.14-1.13.25-1.72.34s-1,.12-1.51.15c-.2,0-.41,0-.61,0H46.8q-.72,0-1.44-.09a17.13,17.13,0,0,1-1.79-.27l-.7-.16a13.36,13.36,0,0,1-2.69-1,10,10,0,0,1-1-.64c-2.3-1.63-2.53-3.8-.68-5.54a7.7,7.7,0,0,1,1.73-1.19,11.7,11.7,0,0,1,2.24-.86l.45-.13c.41-.1.83-.19,1.26-.26s.93-.14,1.4-.19a19.67,19.67,0,0,1,2.43-.07,16.53,16.53,0,0,1,2.12.19h.14c.54.09,1.07.19,1.58.32a14.37,14.37,0,0,1,2.1.71l.59.28c.32.17.61.34.88.52a6.2,6.2,0,0,1,1.14,1C58,108.52,57.73,110.49,55.67,112Z" transform="translate(-19.13 -1.77)"/><path class="cls-10" d="M47.71,81.52v6.62h3.8V83.63A6,6,0,0,0,47.71,81.52Z" transform="translate(-19.13 -1.77)"/><path class="cls-11" d="M47.71,81.52v6.62h3.8V83.63A6,6,0,0,0,47.71,81.52Z" transform="translate(-19.13 -1.77)"/><path class="cls-10" d="M50.08,83.17v30.91c-.49.07-1,.12-1.51.15-.2,0-.41,0-.61,0H46.8q-.72,0-1.44-.09a17.13,17.13,0,0,1-1.79-.27l-.7-.16V83.17Z" transform="translate(-19.13 -1.77)"/><path class="cls-12" d="M50.08,83.17v30.91c-.49.07-1,.12-1.51.15-.2,0-.41,0-.61,0H46.8q-.72,0-1.44-.09a17.13,17.13,0,0,1-1.79-.27l-.7-.16V83.17Z" transform="translate(-19.13 -1.77)"/><path class="cls-10" d="M51.8,84.21v29.53c-.56.14-1.13.25-1.72.34s-1,.12-1.51.15c-.2,0-.41,0-.61,0V86.75a7,7,0,0,0,2.12-.65,3.62,3.62,0,0,0,1.44-1.26A2,2,0,0,0,51.8,84.21Z" transform="translate(-19.13 -1.77)"/><path class="cls-13" d="M51.8,84.21v29.53c-.56.14-1.13.25-1.72.34s-1,.12-1.51.15c-.2,0-.41,0-.61,0V86.75a7,7,0,0,0,2.12-.65,3.62,3.62,0,0,0,1.44-1.26A2,2,0,0,0,51.8,84.21Z" transform="translate(-19.13 -1.77)"/><path class="cls-10" d="M48.14,86.88a.19.19,0,0,1-.18-.13.16.16,0,0,1,.14-.19A6.77,6.77,0,0,0,50,85.94c.91-.47,1.41-1.08,1.41-1.73S50.93,83,50,82.48a8,8,0,0,0-3.54-.75.16.16,0,1,1,0-.32,8.37,8.37,0,0,1,3.72.79,2.46,2.46,0,0,1,1.6,2c0,.77-.57,1.48-1.6,2a6.92,6.92,0,0,1-2,.65Z" transform="translate(-19.13 -1.77)"/><path class="cls-13" d="M48.14,86.88a.19.19,0,0,1-.18-.13.16.16,0,0,1,.14-.19A6.77,6.77,0,0,0,50,85.94c.91-.47,1.41-1.08,1.41-1.73S50.93,83,50,82.48a8,8,0,0,0-3.54-.75.16.16,0,1,1,0-.32,8.37,8.37,0,0,1,3.72.79,2.46,2.46,0,0,1,1.6,2c0,.77-.57,1.48-1.6,2a6.92,6.92,0,0,1-2,.65Z" transform="translate(-19.13 -1.77)"/><path class="cls-10" d="M49,82c1.41.73,1.41,1.9,0,2.62a6.21,6.21,0,0,1-5.1,0c-1.41-.72-1.41-1.89,0-2.62A6.29,6.29,0,0,1,49,82Z" transform="translate(-19.13 -1.77)"/><path class="cls-13" d="M49,82c1.41.73,1.41,1.9,0,2.62a6.21,6.21,0,0,1-5.1,0c-1.41-.72-1.41-1.89,0-2.62A6.29,6.29,0,0,1,49,82Z" transform="translate(-19.13 -1.77)"/><path class="cls-10" d="M55.69,92.88l-.79,4.9,2.81.37.54-3.34A4.32,4.32,0,0,0,55.69,92.88Z" transform="translate(-19.13 -1.77)"/><path class="cls-11" d="M55.69,92.88l-.79,4.9,2.81.37.54-3.34A4.32,4.32,0,0,0,55.69,92.88Z" transform="translate(-19.13 -1.77)"/><path class="cls-10" d="M57.25,94.33l-.32,2,0,.14,0,.14L56.66,98l-1.29,7.89-1.13,7a12.41,12.41,0,0,1-1.71.67l-.73.2c-.56.14-1.13.25-1.72.34s-1,.12-1.51.15l1.51-9.31.14-.85,1.58-9.7.12-.73h0l3.57.46,1.75.23Z" transform="translate(-19.13 -1.77)"/><path class="cls-12" d="M57.25,94.33l-.32,2,0,.14,0,.14L56.66,98l-1.29,7.89-1.13,7a12.41,12.41,0,0,1-1.71.67l-.73.2c-.56.14-1.13.25-1.72.34s-1,.12-1.51.15l1.51-9.31.14-.85,1.58-9.7.12-.73h0l3.57.46,1.75.23Z" transform="translate(-19.13 -1.77)"/><path class="cls-10" d="M58.39,95.26l-1.88,11.6L55.67,112a8.24,8.24,0,0,1-1.18.74l-.25.12a12.41,12.41,0,0,1-1.71.67l1.37-8.44,1.18-7.29.17-1a4.86,4.86,0,0,0,1.65-.28,2.67,2.67,0,0,0,1.2-.78A1.53,1.53,0,0,0,58.39,95.26Z" transform="translate(-19.13 -1.77)"/><path class="cls-13" d="M58.39,95.26l-1.88,11.6L55.67,112a8.24,8.24,0,0,1-1.18.74l-.25.12a12.41,12.41,0,0,1-1.71.67l1.37-8.44,1.18-7.29.17-1a4.86,4.86,0,0,0,1.65-.28,2.67,2.67,0,0,0,1.2-.78A1.53,1.53,0,0,0,58.39,95.26Z" transform="translate(-19.13 -1.77)"/><path class="cls-10" d="M55.37,96.88a.11.11,0,0,1-.12-.11.13.13,0,0,1,.13-.13,4.88,4.88,0,0,0,1.49-.27c.73-.26,1.18-.66,1.26-1.14a1.59,1.59,0,0,0-.84-1.42,5.92,5.92,0,0,0-2.53-.89.13.13,0,0,1-.12-.14.14.14,0,0,1,.16-.1,6,6,0,0,1,2.65.95,1.72,1.72,0,0,1,.94,1.63c-.09.57-.59,1-1.42,1.34a5.7,5.7,0,0,1-1.58.29Z" transform="translate(-19.13 -1.77)"/><path class="cls-13" d="M55.37,96.88a.11.11,0,0,1-.12-.11.13.13,0,0,1,.13-.13,4.88,4.88,0,0,0,1.49-.27c.73-.26,1.18-.66,1.26-1.14a1.59,1.59,0,0,0-.84-1.42,5.92,5.92,0,0,0-2.53-.89.13.13,0,0,1-.12-.14.14.14,0,0,1,.16-.1,6,6,0,0,1,2.65.95,1.72,1.72,0,0,1,.94,1.63c-.09.57-.59,1-1.42,1.34a5.7,5.7,0,0,1-1.58.29Z" transform="translate(-19.13 -1.77)"/><path class="cls-10" d="M56.62,93.33c1,.67.81,1.54-.32,1.94a4.65,4.65,0,0,1-3.77-.49c-1-.67-.82-1.54.31-1.94A4.67,4.67,0,0,1,56.62,93.33Z" transform="translate(-19.13 -1.77)"/><path class="cls-13" d="M56.62,93.33c1,.67.81,1.54-.32,1.94a4.65,4.65,0,0,1-3.77-.49c-1-.67-.82-1.54.31-1.94A4.67,4.67,0,0,1,56.62,93.33Z" transform="translate(-19.13 -1.77)"/><path class="cls-10" d="M40.34,89.3,41,94.73l3.12-.3-.46-3.7A5.16,5.16,0,0,0,40.34,89.3Z" transform="translate(-19.13 -1.77)"/><path class="cls-11" d="M40.34,89.3,41,94.73l3.12-.3-.46-3.7A5.16,5.16,0,0,0,40.34,89.3Z" transform="translate(-19.13 -1.77)"/><path class="cls-10" d="M45.36,114.17a17.13,17.13,0,0,1-1.79-.27l-.7-.16a13.36,13.36,0,0,1-2.69-1,10,10,0,0,1-1-.64l-.68-5.54L36.54,91h0l4-.39,1.94-.19h0l.28,2.25,0,.15,0,.15.1.85.08.68,1.18,9.59Z" transform="translate(-19.13 -1.77)"/><path class="cls-12" d="M45.36,114.17a17.13,17.13,0,0,1-1.79-.27l-.7-.16a13.36,13.36,0,0,1-2.69-1,10,10,0,0,1-1-.64l-.68-5.54L36.54,91h0l4-.39,1.94-.19h0l.28,2.25,0,.15,0,.15.1.85.08.68,1.18,9.59Z" transform="translate(-19.13 -1.77)"/><path class="cls-10" d="M45.36,114.17a17.13,17.13,0,0,1-1.79-.27l-.7-5.69-.45-3.69-1.21-9.81-.14-1.15a5.33,5.33,0,0,0,1.68-.7,1.25,1.25,0,0,0,.12-.08,2.77,2.77,0,0,0,.92-1,1.51,1.51,0,0,0,.17-.55l1.57,12.76,1.27,10.32Q46.08,114.25,45.36,114.17Z" transform="translate(-19.13 -1.77)"/><path class="cls-13" d="M45.36,114.17a17.13,17.13,0,0,1-1.79-.27l-.7-5.69-.45-3.69-1.21-9.81-.14-1.15a5.33,5.33,0,0,0,1.68-.7,1.25,1.25,0,0,0,.12-.08,2.77,2.77,0,0,0,.92-1,1.51,1.51,0,0,0,.17-.55l1.57,12.76,1.27,10.32Q46.08,114.25,45.36,114.17Z" transform="translate(-19.13 -1.77)"/><path class="cls-10" d="M41.23,93.66a.15.15,0,0,1-.16-.1.13.13,0,0,1,.1-.16,5.83,5.83,0,0,0,1.51-.66c.7-.46,1-1,1-1.53s-.53-1-1.33-1.3a6.74,6.74,0,0,0-3-.34.14.14,0,0,1-.16-.11.14.14,0,0,1,.13-.15,7,7,0,0,1,3.13.35c.9.35,1.43.89,1.51,1.52A2,2,0,0,1,42.86,93a5.85,5.85,0,0,1-1.6.69Z" transform="translate(-19.13 -1.77)"/><path class="cls-13" d="M41.23,93.66a.15.15,0,0,1-.16-.1.13.13,0,0,1,.1-.16,5.83,5.83,0,0,0,1.51-.66c.7-.46,1-1,1-1.53s-.53-1-1.33-1.3a6.74,6.74,0,0,0-3-.34.14.14,0,0,1-.16-.11.14.14,0,0,1,.13-.15,7,7,0,0,1,3.13.35c.9.35,1.43.89,1.51,1.52A2,2,0,0,1,42.86,93a5.85,5.85,0,0,1-1.6.69Z" transform="translate(-19.13 -1.77)"/><path class="cls-10" d="M41.46,89.55c1.23.48,1.35,1.44.27,2.15a5.13,5.13,0,0,1-4.18.41c-1.23-.48-1.35-1.45-.26-2.15A5.11,5.11,0,0,1,41.46,89.55Z" transform="translate(-19.13 -1.77)"/><path class="cls-13" d="M41.46,89.55c1.23.48,1.35,1.44.27,2.15a5.13,5.13,0,0,1-4.18.41c-1.23-.48-1.35-1.45-.26-2.15A5.11,5.11,0,0,1,41.46,89.55Z" transform="translate(-19.13 -1.77)"/><path class="cls-9" d="M137.23,66.68l-4.75,2.45a1.5,1.5,0,0,1-1.19,0L115.1,60.76c-.35-.18-.39-.46-.08-.61l4.75-2.45a1.5,1.5,0,0,1,1.19,0l16.18,8.32C137.49,66.25,137.53,66.53,137.23,66.68Z" transform="translate(-19.13 -1.77)"/><polygon class="cls-7" points="104.29 58.38 100.64 60.26 97.62 58.71 101.28 56.83 104.29 58.38"/><polygon class="cls-7" points="108.27 60.42 104.61 62.31 101.59 60.76 105.25 58.87 108.27 60.42"/><polygon class="cls-7" points="112.25 62.47 108.59 64.35 105.57 62.8 109.23 60.92 112.25 62.47"/><polygon class="cls-7" points="116.22 64.51 112.56 66.4 109.55 64.84 113.21 62.96 116.22 64.51"/><polygon class="cls-14" points="104.29 58.38 100.64 60.26 97.62 58.71 101.28 56.83 104.29 58.38"/><polygon class="cls-15" points="108.27 60.42 104.61 62.31 101.59 60.76 105.25 58.87 108.27 60.42"/><polygon class="cls-16" points="112.25 62.47 108.59 64.35 105.57 62.8 109.23 60.92 112.25 62.47"/><polygon class="cls-17" points="116.22 64.51 112.56 66.4 109.55 64.84 113.21 62.96 116.22 64.51"/><path class="cls-8" d="M138.15,62.19l-4,3.32a1.45,1.45,0,0,1-1.17.19L115.1,60.76c-.38-.11-.49-.37-.23-.58l4-3.32a1.45,1.45,0,0,1,1.17-.19l17.84,4.94C138.3,61.72,138.41,62,138.15,62.19Z" transform="translate(-19.13 -1.77)"/><polygon class="cls-7" points="103.94 56.76 100.83 59.31 97.51 58.39 100.61 55.84 103.94 56.76"/><polygon class="cls-7" points="108.32 57.97 105.22 60.53 101.89 59.61 105 57.05 108.32 57.97"/><polygon class="cls-7" points="112.7 59.19 109.6 61.74 106.28 60.82 109.38 58.27 112.7 59.19"/><polygon class="cls-7" points="117.09 60.4 113.99 62.95 110.66 62.03 113.76 59.48 117.09 60.4"/><polygon class="cls-18" points="103.94 56.76 100.83 59.31 97.51 58.39 100.61 55.84 103.94 56.76"/><polygon class="cls-19" points="112.7 59.19 109.6 61.74 106.28 60.82 109.38 58.27 112.7 59.19"/><polygon class="cls-20" points="117.09 60.4 113.99 62.95 110.66 62.03 113.76 59.48 117.09 60.4"/><path class="cls-3" d="M138,57.94l-3.18,4a1.38,1.38,0,0,1-1.1.4L115.1,60.76c-.4,0-.56-.27-.36-.52l3.18-4a1.37,1.37,0,0,1,1.1-.4l18.6,1.56C138,57.44,138.19,57.68,138,57.94Z" transform="translate(-19.13 -1.77)"/><polygon class="cls-7" points="103.25 55.35 100.8 58.42 97.34 58.13 99.78 55.06 103.25 55.35"/><polygon class="cls-7" points="107.82 55.73 105.37 58.8 101.91 58.51 104.35 55.44 107.82 55.73"/><polygon class="cls-7" points="112.39 56.12 109.94 59.19 106.48 58.89 108.92 55.83 112.39 56.12"/><polygon class="cls-7" points="116.96 56.5 114.52 59.57 111.05 59.28 113.5 56.21 116.96 56.5"/><polygon class="cls-21" points="103.25 55.35 100.8 58.42 97.34 58.13 99.78 55.06 103.25 55.35"/><polygon class="cls-22" points="107.82 55.73 105.37 58.8 101.91 58.51 104.35 55.44 107.82 55.73"/><polygon class="cls-23" points="112.39 56.12 109.94 59.19 106.48 58.89 108.92 55.83 112.39 56.12"/><polygon class="cls-24" points="116.96 56.5 114.52 59.57 111.05 59.28 113.5 56.21 116.96 56.5"/><path class="cls-2" d="M114.12,61.7a1.6,1.6,0,0,1-1.54-1,1.31,1.31,0,0,1,.15-1.09,1.56,1.56,0,0,1,1-.67,1.78,1.78,0,0,1,1.22.13,1.44,1.44,0,0,1,.75.86l-.3.07a1.19,1.19,0,0,0-.61-.68,1.41,1.41,0,0,0-1-.11,1.29,1.29,0,0,0-.77.54,1,1,0,0,0-.12.87,1.31,1.31,0,0,0,1.58.79,1.24,1.24,0,0,0,.77-.54l.28.14a1.59,1.59,0,0,1-1,.67A1.54,1.54,0,0,1,114.12,61.7Z" transform="translate(-19.13 -1.77)"/><path class="cls-7" d="M91.62,95l-13.44,6.91-17-8.73,13.47-6.92a1.23,1.23,0,0,1,1.15,0l15.79,8.12A.34.34,0,0,1,91.62,95Z" transform="translate(-19.13 -1.77)"/><path class="cls-25" d="M91.62,95l-13.44,6.91-17-8.73,13.47-6.92a1.23,1.23,0,0,1,1.15,0l15.79,8.12A.34.34,0,0,1,91.62,95Z" transform="translate(-19.13 -1.77)"/><path class="cls-26" d="M90.69,94.77l-12.51,6.44-15.8-8.12,12.54-6.45a1.21,1.21,0,0,1,1.08,0L90.69,94.2A.31.31,0,0,1,90.69,94.77Z" transform="translate(-19.13 -1.77)"/><polygon class="cls-26" points="59.05 99.44 59.05 98.19 71.75 91.66 71.75 92.73 59.05 99.44"/><polygon class="cls-2" points="59.05 99.44 59.05 98.19 43.26 90.07 43.26 91.32 59.05 99.44"/><path class="cls-7" d="M91.62,93,78.18,100l-17-8.72L74.68,84.3a1.23,1.23,0,0,1,1.15,0l15.79,8.12A.34.34,0,0,1,91.62,93Z" transform="translate(-19.13 -1.77)"/><path class="cls-15" d="M91.62,93,78.18,100l-17-8.72L74.68,84.3a1.23,1.23,0,0,1,1.15,0l15.79,8.12A.34.34,0,0,1,91.62,93Z" transform="translate(-19.13 -1.77)"/><path class="cls-26" d="M76.42,101a.31.31,0,0,1-.25,0,.27.27,0,0,1-.16-.24V99.65a1.44,1.44,0,0,1,.82-1.27l0,0a.21.21,0,0,1,.16,0,.14.14,0,0,1,.07.12.25.25,0,0,0,.27.23.25.25,0,0,0,.26-.23.6.6,0,0,0-.34-.53.71.71,0,0,0-.68,0l0,0a1.93,1.93,0,0,0-1.08,1.68v1.14a.74.74,0,0,0,.44.65.92.92,0,0,0,.39.09.85.85,0,0,0,.47-.13.23.23,0,0,0,.1-.12Z" transform="translate(-19.13 -1.77)"/><path class="cls-26" d="M73.91,99.75a.36.36,0,0,1-.25,0,.27.27,0,0,1-.16-.24V98.36a1.45,1.45,0,0,1,.81-1.27l0,0a.15.15,0,0,1,.15,0,.13.13,0,0,1,.08.12.25.25,0,0,0,.26.23.25.25,0,0,0,.27-.23.6.6,0,0,0-.34-.53.76.76,0,0,0-.69,0l0,0A1.92,1.92,0,0,0,73,98.36V99.5a.74.74,0,0,0,.44.65.89.89,0,0,0,.39.09.88.88,0,0,0,.47-.13.26.26,0,0,0,.1-.13Z" transform="translate(-19.13 -1.77)"/><path class="cls-26" d="M71.4,98.46a.31.31,0,0,1-.25,0A.25.25,0,0,1,71,98.2V97.07a1.48,1.48,0,0,1,.81-1.28l0,0a.15.15,0,0,1,.15,0,.11.11,0,0,1,.08.11.25.25,0,0,0,.26.24.26.26,0,0,0,.27-.24.58.58,0,0,0-.35-.52.74.74,0,0,0-.68,0l0,0a1.93,1.93,0,0,0-1.07,1.68V98.2a.74.74,0,0,0,.44.66.89.89,0,0,0,.39.09.94.94,0,0,0,.46-.13.23.23,0,0,0,.11-.13Z" transform="translate(-19.13 -1.77)"/><path class="cls-26" d="M68.89,97.16a.31.31,0,0,1-.25,0,.28.28,0,0,1-.17-.24V95.78a1.49,1.49,0,0,1,.82-1.28l0,0a.13.13,0,0,1,.15,0,.13.13,0,0,1,.08.11.26.26,0,0,0,.52,0,.57.57,0,0,0-.34-.52.74.74,0,0,0-.68,0l0,0A1.93,1.93,0,0,0,68,95.78v1.13a.74.74,0,0,0,.44.66.86.86,0,0,0,.39.09.94.94,0,0,0,.46-.13.23.23,0,0,0,.11-.13Z" transform="translate(-19.13 -1.77)"/><path class="cls-26" d="M66.38,95.87a.33.33,0,0,1-.26,0,.27.27,0,0,1-.16-.24V94.49a1.48,1.48,0,0,1,.82-1.28l0,0a.18.18,0,0,1,.15,0,.16.16,0,0,1,.07.12.26.26,0,0,0,.27.24.25.25,0,0,0,.26-.24.58.58,0,0,0-.34-.52.74.74,0,0,0-.68,0l0,0a1.94,1.94,0,0,0-1.08,1.68v1.13a.74.74,0,0,0,.44.66,1.1,1.1,0,0,0,.4.08.93.93,0,0,0,.46-.12.21.21,0,0,0,.1-.13Z" transform="translate(-19.13 -1.77)"/><path class="cls-26" d="M63.86,94.58a.31.31,0,0,1-.25,0,.27.27,0,0,1-.16-.24V93.19a1.44,1.44,0,0,1,.82-1.27l0,0a.19.19,0,0,1,.15,0,.14.14,0,0,1,.07.12.25.25,0,0,0,.27.23.25.25,0,0,0,.26-.23.6.6,0,0,0-.34-.53.74.74,0,0,0-.68,0l0,0a1.93,1.93,0,0,0-1.08,1.68v1.14a.74.74,0,0,0,.44.65.94.94,0,0,0,.86,0,.31.31,0,0,0,.1-.13Z" transform="translate(-19.13 -1.77)"/><polygon class="cls-27" points="74.22 88.15 59.69 95.63 40.78 85.9 55.31 78.42 74.22 88.15"/><polygon class="cls-28" points="75.06 87.9 59.87 94.27 41.94 83.16 57.13 76.8 75.06 87.9"/><path class="cls-7" d="M74.83,85.27a3.23,3.23,0,0,0-.85,4,4.59,4.59,0,0,0,4,2.27,4.72,4.72,0,0,0,4.21-2.12,2.64,2.64,0,0,0,.23-2.19,3.6,3.6,0,0,0-1.54-1.81,6.29,6.29,0,0,0-3.2-.83,3.73,3.73,0,0,0-2.8.76c-.13.14.09.34.23.2a3.12,3.12,0,0,1,2.26-.68,6.72,6.72,0,0,1,2.78.49c1.46.65,2.49,2.09,1.94,3.55a4.14,4.14,0,0,1-3.61,2.33,4.58,4.58,0,0,1-4-1.67,3,3,0,0,1,.55-4c.15-.13-.07-.33-.23-.2Z" transform="translate(-19.13 -1.77)"/><path class="cls-7" d="M77.07,89.46a3,3,0,0,0,2.22-.3,1.91,1.91,0,0,0,.95-1.72,1.75,1.75,0,0,0-.45-1,.16.16,0,0,0-.23.21,1.48,1.48,0,0,1-.07,2,2.47,2.47,0,0,1-2.33.55c-.2-.05-.29.23-.09.28Z" transform="translate(-19.13 -1.77)"/><path class="cls-7" d="M74,90.14a3.27,3.27,0,0,1-2.19-1.44.94.94,0,0,1,0-1c.38-.41,1-.06,1.27.28a1.13,1.13,0,0,1,.26.51c0,.3-.53-.13-.63-.22A2.13,2.13,0,0,1,72,87.13a1.48,1.48,0,0,1,1.2-1.9c.4,0,.94.09,1.06.48.06.2-.06.44-.33.29a.8.8,0,0,1-.36-.54,1.45,1.45,0,0,1,1.27-1.72,1.88,1.88,0,0,1,1.23.25c.13.08.49.33.33.49s-.49-.15-.52-.32a1,1,0,0,1,.72-.93,1.84,1.84,0,0,1,1.43.22,2,2,0,0,1,.64.52c.2.28-.2.46-.44.28-.46-.36,0-.87.48-.94a2.5,2.5,0,0,1,1.65.52,5.26,5.26,0,0,1,1.26,1.08c.12.14.4,0,.28-.14A6,6,0,0,0,80.2,83.4a2.13,2.13,0,0,0-2-.22A.77.77,0,0,0,78,84.43c.38.34,1.22.13,1.06-.42a1.46,1.46,0,0,0-.62-.66,2.71,2.71,0,0,0-1-.43,1.67,1.67,0,0,0-1.66.56c-.3.4-.3,1.17.33,1.32a.59.59,0,0,0,.63-.23c.14-.26-.07-.51-.27-.68a2.07,2.07,0,0,0-3.07.57A1.48,1.48,0,0,0,73.5,86a.73.73,0,0,0,.76.26.49.49,0,0,0,.33-.48c0-.55-.64-.87-1.19-.88a1.71,1.71,0,0,0-1.53.82,1.94,1.94,0,0,0-.08,1.77,2.63,2.63,0,0,0,.51.75,1.94,1.94,0,0,0,.81.56.37.37,0,0,0,.52-.35,1.56,1.56,0,0,0-.37-.79,1.23,1.23,0,0,0-1.64-.31,1.1,1.1,0,0,0-.11,1.4A3.22,3.22,0,0,0,73,90.09a3.62,3.62,0,0,0,1,.32c.2,0,.29-.23.09-.27Z" transform="translate(-19.13 -1.77)"/><path class="cls-7" d="M76.14,87.77l0,0h0l0,0,0,0s0,0,0,0l0,0-.06,0h0l-.07,0h-.3l0,0h0s0,0,0,0l0,0,0,0s0,0,0,0l0,0v0h0s0,0,0,0a.07.07,0,0,1,0,0s0,0,0,0v-.1s0,0,0,0l0,0v0s0,0,0,0l0,0v0s0,0,0,0,0,0,0,0h0s0,0,0,0l0,0s0,0,0,0h.08s0,0,0,0h0s0,0,0,0l.09,0s0,0,0,0l0,0,.07,0s0,0,0,0l0,0,.06,0,.07.07,0,0h0v0a.17.17,0,0,0,.22,0,.13.13,0,0,0,.06-.19,1.11,1.11,0,0,0-.67-.44.59.59,0,0,0-.61.27.58.58,0,0,0,0,.57.64.64,0,0,0,.59.28.87.87,0,0,0,.68-.35.14.14,0,0,0-.06-.2.17.17,0,0,0-.22,0Z" transform="translate(-19.13 -1.77)"/><path class="cls-7" d="M76.93,86.18a.55.55,0,0,0,.43.47.6.6,0,0,0,.64-.18.53.53,0,0,0,0-.58.56.56,0,0,0-.62-.22.62.62,0,0,0-.34.22.46.46,0,0,0-.1.37.18.18,0,0,0,.2.1.15.15,0,0,0,.11-.18v0a0,0,0,0,1,0,0v0h0s0,0,0,0l0,0s0,0,0,0,0,0,0,0l0,0h0l.06,0s0,0,0,0h.19l0,0h0l0,0h0s0,0,0,0h0l0,0s0,0,0,0,0,0,0,0,0,0,0,0,0,0,0,0,0,0,0,0a.11.11,0,0,1,0,.05v0s0,0,0,0a.06.06,0,0,1,0,0v0s0,0,0,0l0,0,0,0,0,0,0,0h0s0,0,0,0h0l0,0h-.06s0,0,0,0,0,0,0,0h-.11s0,0,0,0l0,0-.06,0s0,0,0,0l0,0,0,0s0,0,0,0,0,0,0,0l0,0h0s0,0,0,0a0,0,0,0,0,0,0v0s0,0,0,0h0a.16.16,0,0,0-.16-.15c-.09,0-.17.07-.16.15Z" transform="translate(-19.13 -1.77)"/><path class="cls-2" d="M101.24,72.48l-6.45,3.26a3.47,3.47,0,0,1-1.37.38,3.71,3.71,0,0,1-1.91-.39l-4.13-2.12-.47-.24a2.84,2.84,0,0,1-1.61-2.49V60.29L95,55.39V66.21a2.44,2.44,0,0,0,1.39,2.14l4.88,2.52A.88.88,0,0,1,101.24,72.48Z" transform="translate(-19.13 -1.77)"/><path class="cls-27" d="M93.42,76.12a3.47,3.47,0,0,0,1.37-.38l6.45-3.26a.88.88,0,0,0,0-1.61l-3.33-1.72H93.42Z" transform="translate(-19.13 -1.77)"/><path class="cls-27" d="M101.12,70.16l.18.12a1.06,1.06,0,0,1,.46.86v.53h-.64Z" transform="translate(-19.13 -1.77)"/><path class="cls-29" d="M95.71,56.21v9.73A2.37,2.37,0,0,0,97.05,68l4.07,2.14a.85.85,0,0,1,0,1.55l-.47.24-5.77,2.93a3.56,3.56,0,0,1-3.18,0l-4-2.11a2.36,2.36,0,0,1-1.35-2.08V61Z" transform="translate(-19.13 -1.77)"/><path class="cls-27" d="M95.71,65.94V56.21L86.35,61v9.73a2.36,2.36,0,0,0,1.35,2.08l9.21-4.82A2.33,2.33,0,0,1,95.71,65.94Z" transform="translate(-19.13 -1.77)"/><path class="cls-2" d="M66.1,77.93,65,78.48v1.73a4,4,0,0,1-1.94-.48l-.09,0a1.92,1.92,0,0,1-1-1.19,1.14,1.14,0,0,1-.06-.33V75.81Z" transform="translate(-19.13 -1.77)"/><path class="cls-8" d="M112.31,14.27l-.08,0a4.19,4.19,0,0,0-1.94-.48h0a1.25,1.25,0,0,0-.62.14L63.84,37.38A3.26,3.26,0,0,0,62,40.24V75.81l4.12,2.12,43.54-22.3a3.26,3.26,0,0,0,1.85-2.86V15.89h1.85A1.85,1.85,0,0,0,112.31,14.27Z" transform="translate(-19.13 -1.77)"/><path class="cls-9" d="M62.38,38.76a3,3,0,0,0-.4,1.48V75.81l4.12,2.12,1.54-.79V41.66Z" transform="translate(-19.13 -1.77)"/><path class="cls-29" d="M63.84,76.77v2.36a1.22,1.22,0,0,0,1.82.93l45.83-23.48a3.26,3.26,0,0,0,1.85-2.86V51.3Z" transform="translate(-19.13 -1.77)"/><path class="cls-3" d="M113.34,15.79a1.22,1.22,0,0,0-1.82-.94L65.69,38.33a3.25,3.25,0,0,0-1.85,2.86V76.77l49.5-25.47" transform="translate(-19.13 -1.77)"/><path class="cls-30" d="M110.69,17.43h0a1.43,1.43,0,0,0-.61.12L67,39.61a2.9,2.9,0,0,0-1.64,2.53V72.45a.82.82,0,0,0,.09.38h0a1.14,1.14,0,0,0,1.52.45L110,51.21a2.86,2.86,0,0,0,1.64-2.52V18.38A1,1,0,0,0,110.69,17.43Z" transform="translate(-19.13 -1.77)"/><path class="cls-13" d="M110.69,17.43h0a1.43,1.43,0,0,0-.61.12L67,39.61a2.9,2.9,0,0,0-1.64,2.53V72.45a.82.82,0,0,0,.09.38h0a1.14,1.14,0,0,0,1.52.45L110,51.21a2.86,2.86,0,0,0,1.64-2.52V18.38A1,1,0,0,0,110.69,17.43Z" transform="translate(-19.13 -1.77)"/><path class="cls-9" d="M128.71,78.65l-.34.17a2.36,2.36,0,0,0-.48-.33l-13.14-6.76a4.09,4.09,0,0,0-3.33-.12L88.21,83.54l-.17.11-.4-.2v.88h0a1.3,1.3,0,0,0,.81.93L101.6,92a4.13,4.13,0,0,0,3.33.12l23.2-11.94a.88.88,0,0,0,.57-.72h0Z" transform="translate(-19.13 -1.77)"/><path class="cls-8" d="M128.13,79.38l-23.2,11.94a4.13,4.13,0,0,1-3.33-.12L88.45,84.43c-1-.5-1.09-1.27-.24-1.71l23.21-11.93a4.09,4.09,0,0,1,3.33.12l13.14,6.76C128.88,78.18,129,78.94,128.13,79.38Z" transform="translate(-19.13 -1.77)"/><path class="cls-31" d="M125.33,79l-18.21,9.37a2,2,0,0,1-1.62-.06L94.14,82.43c-.48-.25-.53-.62-.12-.84l18.21-9.36a2,2,0,0,1,1.62.06l11.36,5.84C125.69,78.38,125.74,78.75,125.33,79Z" transform="translate(-19.13 -1.77)"/><path class="cls-9" d="M98.54,86.05c.59.31.59.8,0,1.1a2.58,2.58,0,0,1-2.14,0c-.59-.3-.59-.79,0-1.1A2.66,2.66,0,0,1,98.54,86.05Z" transform="translate(-19.13 -1.77)"/><path class="cls-9" d="M100.94,87.56l-1.58.81a.74.74,0,0,1-.63,0h0c-.18-.1-.2-.24,0-.32l1.58-.81a.71.71,0,0,1,.62,0h0C101.08,87.33,101.1,87.48,100.94,87.56Z" transform="translate(-19.13 -1.77)"/><path class="cls-9" d="M102.44,88.33l-1.58.81a.74.74,0,0,1-.63,0h0c-.18-.09-.2-.24,0-.32l1.58-.81a.71.71,0,0,1,.62,0h0C102.58,88.11,102.6,88.25,102.44,88.33Z" transform="translate(-19.13 -1.77)"/><path class="cls-9" d="M94.78,84.39l-1.58.82a.78.78,0,0,1-.63,0h0c-.18-.09-.2-.24,0-.32l1.58-.81a.81.81,0,0,1,.63,0h0C94.92,84.17,94.94,84.31,94.78,84.39Z" transform="translate(-19.13 -1.77)"/><path class="cls-9" d="M96.28,85.17,94.7,86a.78.78,0,0,1-.63,0h0c-.18-.09-.2-.24,0-.32l1.58-.81a.81.81,0,0,1,.63,0h0C96.42,84.94,96.44,85.08,96.28,85.17Z" transform="translate(-19.13 -1.77)"/><path class="cls-8" d="M110.36,64.51l-2.7-.21-2.69.2.68,3.43h0v0h0a1,1,0,0,0,.57.61,3.48,3.48,0,0,0,2.86,0,1,1,0,0,0,.59-.65h0Z" transform="translate(-19.13 -1.77)"/><path class="cls-3" d="M109.57,63.42c1.06.55,1.06,1.43,0,2a4.71,4.71,0,0,1-3.82,0c-1-.54-1-1.42,0-2A4.71,4.71,0,0,1,109.57,63.42Z" transform="translate(-19.13 -1.77)"/><path class="cls-9" d="M107.66,56.87a.72.72,0,0,0-.75.67v6.62c0,.1.07.2.22.28a1.3,1.3,0,0,0,1.06,0c.15-.08.22-.18.22-.28V57.54A.71.71,0,0,0,107.66,56.87Z" transform="translate(-19.13 -1.77)"/><path class="cls-2" d="M87.61,11h0a1.1,1.1,0,0,0-.45.1L55.35,27.41a2.12,2.12,0,0,0-1.2,1.86V51.65a.61.61,0,0,0,.06.28h0a.82.82,0,0,0,1.12.33L87.14,36a2.11,2.11,0,0,0,1.21-1.86V11.73A.75.75,0,0,0,87.61,11Z" transform="translate(-19.13 -1.77)"/><path class="cls-2" d="M87.6,11.37a.37.37,0,0,1,.37.36V34.11a1.81,1.81,0,0,1-1,1.57L55.14,52a.46.46,0,0,1-.2.05.44.44,0,0,1-.38-.22.4.4,0,0,1,0-.15V29.27a1.81,1.81,0,0,1,1-1.57l31.8-16.29a.66.66,0,0,1,.25,0m0-.35h0a1.1,1.1,0,0,0-.45.1L55.35,27.41a2.12,2.12,0,0,0-1.2,1.86V51.65a.61.61,0,0,0,.06.28h0a.82.82,0,0,0,.73.43.78.78,0,0,0,.39-.1L87.14,36a2.11,2.11,0,0,0,1.21-1.86V11.73a.75.75,0,0,0-.74-.71h0Z" transform="translate(-19.13 -1.77)"/><polygon class="cls-2" points="35.37 50.47 36.48 51.17 36.48 49.56 35.37 50.47"/><polygon class="cls-2" points="68.84 9.37 69.97 10.07 68.58 10.95 68.84 9.37"/><path class="cls-26" d="M88.7,11.71h0a1,1,0,0,0-.44.09L56.44,28.09A2.11,2.11,0,0,0,55.23,30V52.34a.68.68,0,0,0,.07.28h0a.84.84,0,0,0,1.12.33L88.23,36.66a2.13,2.13,0,0,0,1.21-1.87V12.41A.74.74,0,0,0,88.7,11.71Z" transform="translate(-19.13 -1.77)"/><path class="cls-2" d="M88.69,12.05a.38.38,0,0,1,.36.36V34.79a1.8,1.8,0,0,1-1,1.57L56.23,52.65a.49.49,0,0,1-.2.05.41.41,0,0,1-.38-.22.32.32,0,0,1,0-.14V30a1.79,1.79,0,0,1,1-1.56l31.81-16.3a.66.66,0,0,1,.25,0m0-.34h0a1,1,0,0,0-.44.09L56.44,28.09A2.11,2.11,0,0,0,55.23,30V52.34a.68.68,0,0,0,.07.28h0A.81.81,0,0,0,56,53a.92.92,0,0,0,.39-.09L88.23,36.66a2.13,2.13,0,0,0,1.21-1.87V12.41a.74.74,0,0,0-.74-.7h0Z" transform="translate(-19.13 -1.77)"/><path class="cls-7" d="M71.18,36.15a5.79,5.79,0,0,1,.07-.92C69,35.91,67.31,35,67,32.82c-2.49,1.8-4.36,5-4.36,7.74,0,3.1,2.44,4.36,5.45,2.81A10.69,10.69,0,0,0,72.33,39,3.51,3.51,0,0,1,71.18,36.15Z" transform="translate(-19.13 -1.77)"/><path class="cls-12" d="M71.18,36.15a5.79,5.79,0,0,1,.07-.92C69,35.91,67.31,35,67,32.82c-2.49,1.8-4.36,5-4.36,7.74,0,3.1,2.44,4.36,5.45,2.81A10.69,10.69,0,0,0,72.33,39,3.51,3.51,0,0,1,71.18,36.15Z" transform="translate(-19.13 -1.77)"/><path class="cls-7" d="M77.72,27.28a11,11,0,0,1-4.3,6.84,4.35,4.35,0,0,1,.07.83,8.58,8.58,0,0,1-1.16,4c1,.8,2.55.85,4.3,0,3-1.55,5.45-5.32,5.45-8.41C82.08,27.82,80.21,26.52,77.72,27.28Z" transform="translate(-19.13 -1.77)"/><path class="cls-32" d="M77.72,27.28a11,11,0,0,1-4.3,6.84,4.35,4.35,0,0,1,.07.83,8.58,8.58,0,0,1-1.16,4c1,.8,2.55.85,4.3,0,3-1.55,5.45-5.32,5.45-8.41C82.08,27.82,80.21,26.52,77.72,27.28Z" transform="translate(-19.13 -1.77)"/><path class="cls-7" d="M73.42,34.12a8.18,8.18,0,0,1-1.09.67,6,6,0,0,1-1.08.44,5.79,5.79,0,0,0-.07.92A3.51,3.51,0,0,0,72.33,39a8.58,8.58,0,0,0,1.16-4A4.35,4.35,0,0,0,73.42,34.12Z" transform="translate(-19.13 -1.77)"/><path class="cls-15" d="M73.42,34.12a8.18,8.18,0,0,1-1.09.67,6,6,0,0,1-1.08.44,5.79,5.79,0,0,0-.07.92A3.51,3.51,0,0,0,72.33,39a8.58,8.58,0,0,0,1.16-4A4.35,4.35,0,0,0,73.42,34.12Z" transform="translate(-19.13 -1.77)"/><path class="cls-7" d="M72.33,32.1a10.78,10.78,0,0,1,4.3-4.37,6.62,6.62,0,0,1,1.09-.45,7.11,7.11,0,0,0,.07-.91c0-3.1-2.44-4.35-5.46-2.8S66.88,28.88,66.88,32a5.49,5.49,0,0,0,.07.84A7.8,7.8,0,0,1,68,32.15C69.79,31.25,71.34,31.3,72.33,32.1Z" transform="translate(-19.13 -1.77)"/><path class="cls-7" d="M71.25,35.23a9.42,9.42,0,0,1,1.08-3.13c-1-.8-2.54-.85-4.29,0a7.8,7.8,0,0,0-1.09.67C67.31,35,69,35.91,71.25,35.23Z" transform="translate(-19.13 -1.77)"/><path class="cls-11" d="M71.25,35.23a9.42,9.42,0,0,1,1.08-3.13c-1-.8-2.54-.85-4.29,0a7.8,7.8,0,0,0-1.09.67C67.31,35,69,35.91,71.25,35.23Z" transform="translate(-19.13 -1.77)"/><path class="cls-7" d="M72.33,32.1a3.18,3.18,0,0,1,1.09,2,11,11,0,0,0,4.3-6.84,6.62,6.62,0,0,0-1.09.45A10.78,10.78,0,0,0,72.33,32.1Z" transform="translate(-19.13 -1.77)"/><path class="cls-25" d="M72.33,32.1a3.18,3.18,0,0,1,1.09,2,11,11,0,0,0,4.3-6.84,6.62,6.62,0,0,0-1.09.45A10.78,10.78,0,0,0,72.33,32.1Z" transform="translate(-19.13 -1.77)"/><path class="cls-9" d="M72.33,32.1a9.42,9.42,0,0,0-1.08,3.13,6,6,0,0,0,1.08-.44,8.18,8.18,0,0,0,1.09-.67A3.18,3.18,0,0,0,72.33,32.1Z" transform="translate(-19.13 -1.77)"/><path class="cls-2" d="M107.06,29.07s0,0,0,0h0a.91.91,0,0,0-.37.07L80.41,42.6a1.76,1.76,0,0,0-1,1.55V62.64a.59.59,0,0,0,0,.23h0a.69.69,0,0,0,.93.28l26.28-13.47a1.75,1.75,0,0,0,1-1.54V29.65A.61.61,0,0,0,107.06,29.07Z" transform="translate(-19.13 -1.77)"/><path class="cls-2" d="M107.05,29.35a.31.31,0,0,1,.3.3V48.14a1.49,1.49,0,0,1-.84,1.3L80.23,62.9a.33.33,0,0,1-.17,0,.34.34,0,0,1-.31-.18.27.27,0,0,1,0-.12V44.15a1.5,1.5,0,0,1,.84-1.3l26.29-13.46a.45.45,0,0,1,.2,0m0-.29h0a.91.91,0,0,0-.37.07L80.41,42.6a1.76,1.76,0,0,0-1,1.55V62.64a.59.59,0,0,0,0,.23h0a.64.64,0,0,0,.6.35.78.78,0,0,0,.33-.07l26.28-13.47a1.75,1.75,0,0,0,1-1.54V29.65a.61.61,0,0,0-.61-.58h0Z" transform="translate(-19.13 -1.77)"/><polygon class="cls-2" points="60.56 61.36 61.49 61.93 61.49 60.6 60.56 61.36"/><polygon class="cls-2" points="88.23 27.39 89.16 27.97 88.01 28.7 88.23 27.39"/><path class="cls-26" d="M108,29.63h0a.91.91,0,0,0-.37.07L81.3,43.17a1.77,1.77,0,0,0-1,1.54V63.2a.48.48,0,0,0,.06.24h0a.69.69,0,0,0,.93.27l26.28-13.46a1.76,1.76,0,0,0,1-1.55V30.21A.61.61,0,0,0,108,29.63Z" transform="translate(-19.13 -1.77)"/><path class="cls-2" d="M108,29.91a.31.31,0,0,1,.3.3V48.7a1.48,1.48,0,0,1-.84,1.3L81.13,63.46a.35.35,0,0,1-.17,0,.34.34,0,0,1-.31-.18.21.21,0,0,1,0-.12V44.71a1.49,1.49,0,0,1,.84-1.3L107.75,30a.42.42,0,0,1,.2,0m0-.28h0a.91.91,0,0,0-.37.07L81.3,43.17a1.77,1.77,0,0,0-1,1.54V63.2a.48.48,0,0,0,.06.24h0a.66.66,0,0,0,.6.35.8.8,0,0,0,.33-.08l26.28-13.46a1.76,1.76,0,0,0,1-1.55V30.21a.61.61,0,0,0-.61-.58Z" transform="translate(-19.13 -1.77)"/><polygon class="cls-33" points="86.16 46.34 66.33 56.54 72.19 42.96 76.24 47.26 80.39 41.99 86.16 46.34"/><polygon class="cls-23" points="86.16 46.34 66.33 56.54 72.19 42.96 76.24 47.26 80.39 41.99 86.16 46.34"/><path class="cls-33" d="M98.41,39.64a3.49,3.49,0,0,1-1.81,2.79c-1,.51-1.81.1-1.81-.93a3.49,3.49,0,0,1,1.81-2.79C97.6,38.19,98.41,38.61,98.41,39.64Z" transform="translate(-19.13 -1.77)"/><path class="cls-9" d="M146.09,93.24,152,121.45a.93.93,0,0,0,1,.7.9.9,0,0,0,1-1L149.57,95Z" transform="translate(-19.13 -1.77)"/><path class="cls-3" d="M157.53,111.53l-6.06,32.93a1.12,1.12,0,0,1-1.14.86h0a1.07,1.07,0,0,1-1.14-1.14l4.25-34Z" transform="translate(-19.13 -1.77)"/><path class="cls-3" d="M136.62,100.45l-6.06,32.94a1.13,1.13,0,0,1-1.14.86h0a1.08,1.08,0,0,1-1.14-1.14l4.25-34Z" transform="translate(-19.13 -1.77)"/><path class="cls-9" d="M167.24,103.83l6,28.38a.93.93,0,0,0,.95.7.9.9,0,0,0,1-1l-4.41-26.3Z" transform="translate(-19.13 -1.77)"/><path class="cls-7" d="M147.41,91.09a7.68,7.68,0,0,0,5-6.16c1-8.64,4.38-26.45,16-20.52,14.29,7.32,9.17,28.57,7.09,35.38a9,9,0,0,1-2.62,4.07c-2.58,2.32-7.93,6.31-17,9.7a6,6,0,0,1-3.52.19c-4.51-1.15-16.31-4.67-22.19-11.37a1.69,1.69,0,0,1,.34-2.56A81.69,81.69,0,0,1,147.41,91.09Z" transform="translate(-19.13 -1.77)"/><path class="cls-32" d="M147.41,91.09a7.68,7.68,0,0,0,5-6.16c1-8.64,4.38-26.45,16-20.52,14.29,7.32,9.17,28.57,7.09,35.38a9,9,0,0,1-2.62,4.07c-2.58,2.32-7.93,6.31-17,9.7a6,6,0,0,1-3.52.19c-4.51-1.15-16.31-4.67-22.19-11.37a1.69,1.69,0,0,1,.34-2.56A81.69,81.69,0,0,1,147.41,91.09Z" transform="translate(-19.13 -1.77)"/><path class="cls-34" d="M129.68,101.16a1.69,1.69,0,0,0,.43,1.22q.46.54,1,1.05h0l.58.55h0l.6.52,0,0,.62.51h0c.21.17.42.34.64.5h0a46,46,0,0,0,11,5.76h0l.67.25.07,0,.62.23.1,0,.58.2.13,0,.54.18.15,0,.5.16.18.06.45.14.19.06.43.13.2.06.38.12.22.06.34.1.24.06.29.09.26.07.25.06.3.09.16,0,.43.11a6,6,0,0,0,3.52-.19c9.09-3.39,14.44-7.38,17-9.7a9,9,0,0,0,2.62-4.07c2.08-6.81,7.2-28.06-7.09-35.38l-.75-.35-.16-.07-.71-.27-.07,0c-.23-.07-.45-.14-.67-.19l-.1,0c-.23-.06-.46-.1-.69-.14h-.06a8.08,8.08,0,0,0-1.37-.09h0a6.17,6.17,0,0,0-1.3.17h0a9.48,9.48,0,0,1,7.83.56c14.29,7.32,9.17,28.57,7.1,35.38l-.36,1.17a11.08,11.08,0,0,1-4.45,5.94L168.88,109h0a60.17,60.17,0,0,1-13,6.62,5.91,5.91,0,0,1-3.53.19c-4.52-1.14-16.32-4.66-22.2-11.37a1.64,1.64,0,0,1-.43-1h0v-2.27Z" transform="translate(-19.13 -1.77)"/><path class="cls-15" d="M129.68,101.16a1.69,1.69,0,0,0,.43,1.22q.46.54,1,1.05h0l.58.55h0l.6.52,0,0,.62.51h0c.21.17.42.34.64.5h0a46,46,0,0,0,11,5.76h0l.67.25.07,0,.62.23.1,0,.58.2.13,0,.54.18.15,0,.5.16.18.06.45.14.19.06.43.13.2.06.38.12.22.06.34.1.24.06.29.09.26.07.25.06.3.09.16,0,.43.11a6,6,0,0,0,3.52-.19c9.09-3.39,14.44-7.38,17-9.7a9,9,0,0,0,2.62-4.07c2.08-6.81,7.2-28.06-7.09-35.38l-.75-.35-.16-.07-.71-.27-.07,0c-.23-.07-.45-.14-.67-.19l-.1,0c-.23-.06-.46-.1-.69-.14h-.06a8.08,8.08,0,0,0-1.37-.09h0a6.17,6.17,0,0,0-1.3.17h0a9.48,9.48,0,0,1,7.83.56c14.29,7.32,9.17,28.57,7.1,35.38l-.36,1.17a11.08,11.08,0,0,1-4.45,5.94L168.88,109h0a60.17,60.17,0,0,1-13,6.62,5.91,5.91,0,0,1-3.53.19c-4.52-1.14-16.32-4.66-22.2-11.37a1.64,1.64,0,0,1-.43-1h0v-2.27Z" transform="translate(-19.13 -1.77)"/><path class="cls-35" d="M173.18,50.39s3.17-2.93,6.8-1.08,1.9,7.77.86,9.46-3,7.72,2.69,6.49a6.29,6.29,0,0,1-6,1.81c-4-.67-4.8-5-3.73-8.55s-.65-5.19-.65-5.19Z" transform="translate(-19.13 -1.77)"/><path class="cls-36" d="M156.58,64.74s-4.2-.39-5.87.27-12.27,14.07-12.27,14.07,4,1.12,10.4-3.63A20.17,20.17,0,0,0,156.58,64.74Z" transform="translate(-19.13 -1.77)"/><path class="cls-37" d="M170.58,78.46l.5-10.26-5.3-2.36-6.33-1.09h-2.87S151,69,149.27,73.07s2.18,7.15,2.18,7.15c0,3.44-2.18,7.22-2.18,7.22s3.74,4.88,12,4.34a22.84,22.84,0,0,0,7.6-2,37,37,0,0,0-1.45-5.32Z" transform="translate(-19.13 -1.77)"/><path class="cls-13" d="M170.58,78.46l.5-10.26-5.3-2.36-6.33-1.09h-2.87S151,69,149.27,73.07s2.18,7.15,2.18,7.15c0,3.44-2.18,7.22-2.18,7.22s3.74,4.88,12,4.34a22.84,22.84,0,0,0,7.6-2,37,37,0,0,0-1.45-5.32Z" transform="translate(-19.13 -1.77)"/><path class="cls-35" d="M160.06,44S155.76,42,153.92,46s.87,8.51-4.52,9.17c0,0,2.63,2.67,6-1.15-.49.54.08,2.31.29,2.89a6.43,6.43,0,0,0,2,2.74,10.53,10.53,0,0,0,3.57,1.75,9.65,9.65,0,0,0,3,.48,12.24,12.24,0,0,0,4.8-1.33,8.46,8.46,0,0,0,3.37-3.17,10.5,10.5,0,0,0,1.1-7.76,7.65,7.65,0,0,0-2.36-3.89C168.14,43.28,163.83,43.17,160.06,44Z" transform="translate(-19.13 -1.77)"/><path class="cls-36" d="M160.07,61.24l-.62,3.51s-4.78,3.47-.87,4.34,7.2-3.25,7.2-3.25l1.22-7Z" transform="translate(-19.13 -1.77)"/><path class="cls-38" d="M167.13,57.71l0,.2a8.83,8.83,0,0,1-7.4,5.45L161,55.64l6.16.83Z" transform="translate(-19.13 -1.77)"/><path class="cls-36" d="M163.19,45.79c-2.38-.15-7.53.7-8.57,6.2s-.83,9.85,2.34,10.47,10.81-1,12.4-8.07S165.51,45.94,163.19,45.79Z" transform="translate(-19.13 -1.77)"/><polygon class="cls-38" points="139.44 53.05 138.92 56.3 136.88 55.44 139.44 53.05"/><path class="cls-35" d="M161.78,55.17a.74.74,0,0,1-.85.57.69.69,0,0,1-.64-.76.74.74,0,0,1,.85-.56A.69.69,0,0,1,161.78,55.17Z" transform="translate(-19.13 -1.77)"/><path class="cls-35" d="M157,54.09a.74.74,0,0,1-.85.57.69.69,0,0,1-.64-.76.74.74,0,0,1,.85-.56A.69.69,0,0,1,157,54.09Z" transform="translate(-19.13 -1.77)"/><path class="cls-39" d="M155.54,52.51l1.57-.59a1,1,0,0,0-1.08-.34A.87.87,0,0,0,155.54,52.51Z" transform="translate(-19.13 -1.77)"/><path class="cls-38" d="M158.52,58.87s.74-.19,2.36-.81c0,0,.14.44-.9.76S158.52,58.87,158.52,58.87Z" transform="translate(-19.13 -1.77)"/><path class="cls-35" d="M155.54,52.51l1.57-.59a1,1,0,0,0-1.08-.34A.87.87,0,0,0,155.54,52.51Z" transform="translate(-19.13 -1.77)"/><path class="cls-35" d="M165.48,55.38s-.56,2.3.94,2.51l2.94.41.78-4.42c.87-5-2.44-10.74-12.16-7.9C158,46,156.38,52.55,165.48,55.38Z" transform="translate(-19.13 -1.77)"/><path class="cls-36" d="M166.46,57.62a3.19,3.19,0,0,1,.58-1.43,1.86,1.86,0,0,1,1.71-.83,1.78,1.78,0,0,1,1.59,2.29c-.33,1.39-1.88,2.71-4.27,2.42Z" transform="translate(-19.13 -1.77)"/><path class="cls-10" d="M119.77,135.28s-4.86,3.38-5.36,4.33.77,3.65,7.65,2.67a11.63,11.63,0,0,0,6.06-3.69c1.39-1.68,4.19-2.84,4.61-3.43.61-.85.27-5.29-.8-5.37C130.22,129.66,119.77,135.28,119.77,135.28Z" transform="translate(-19.13 -1.77)"/><path class="cls-36" d="M129.2,102.68s-3,22.37-3.56,25.66c-.23,1.54-5,6.15-6.68,7.7a.58.58,0,0,0,.11.93l.14.08a5.92,5.92,0,0,0,6.53-.26,14.47,14.47,0,0,0,3.46-3.3,11.78,11.78,0,0,1,2.32-2.82,1.06,1.06,0,0,0,.4-.73,19.56,19.56,0,0,1,1.07-5.38c.9-2,5.45-9.82,5.45-16.94Z" transform="translate(-19.13 -1.77)"/><path class="cls-38" d="M138.44,107.62l0,0-2.05-.2c.79,4.91-.75,11.7-.75,11.72C137,115.83,138.44,111.61,138.44,107.62Z" transform="translate(-19.13 -1.77)"/><path class="cls-10" d="M128.81,140s-4.85,3.38-5.35,4.33.77,3.65,7.64,2.67a11.66,11.66,0,0,0,6.07-3.69c1.38-1.68,4.18-2.84,4.61-3.43.6-.85.26-5.29-.8-5.37C139.26,134.38,128.81,140,128.81,140Z" transform="translate(-19.13 -1.77)"/><path class="cls-36" d="M138.24,107.4s-3.05,22.37-3.55,25.66c-.24,1.54-5,6.15-6.68,7.7a.58.58,0,0,0,.1.93l.15.08a5.92,5.92,0,0,0,6.53-.26,14.22,14.22,0,0,0,3.45-3.3,11.78,11.78,0,0,1,2.32-2.82,1.07,1.07,0,0,0,.41-.73,19.19,19.19,0,0,1,1.07-5.38c.89-2,5.44-9.82,5.44-16.94Z" transform="translate(-19.13 -1.77)"/><path class="cls-9" d="M149.27,87.44s-14.58,7.09-17.56,10.23-4.26,10.41-4.26,10.41c5.09,5.85,20.64,6.49,20.64,6.49,1.31-3.82,4.52-4.49,9.53-6.65s10.6-6.51,11.51-11.22a19.15,19.15,0,0,0-.28-6.9,22.84,22.84,0,0,1-7.6,2C153,92.32,149.27,87.44,149.27,87.44Z" transform="translate(-19.13 -1.77)"/><path class="cls-10" d="M157.28,80.82s6.39,1.54,9.16-2.54C166.44,78.28,164.19,83.59,157.28,80.82Z" transform="translate(-19.13 -1.77)"/><path class="cls-24" d="M166.44,78.28s-2.25,5.31-9.16,2.54c0,0,6.39,1.54,9.16-2.54" transform="translate(-19.13 -1.77)"/><path class="cls-36" d="M170.39,67.89s-4.85,1.88-.25,11.41a73.86,73.86,0,0,1,3.61,8.14s-1.61.72-10.83,6.83l2.77,4.11s16.38-5.21,16-9.25-5.12-14.47-5.87-15.95S174.7,69.58,170.39,67.89Z" transform="translate(-19.13 -1.77)"/><path class="cls-36" d="M138.44,79.08c1.58.61,4.95-2,7.76-5.48a57,57,0,0,0,4.49-6.33,6.9,6.9,0,0,0,5.89-2.53c.37-.48-2.56-3.66-2.56-3.66l1.55-.62s2.45-.59,2.3-1.57c-.06-.42-4.12.34-5.65.64a1.89,1.89,0,0,0-1,.5l-4.53,4.59s-4.64,3.54-7.14,5.63C135.75,73.47,135.13,77.81,138.44,79.08Z" transform="translate(-19.13 -1.77)"/><path class="cls-38" d="M154,61.21a.16.16,0,0,1-.13-.08A.13.13,0,0,1,154,61l1.55-.61c.66-.17,2.29-.72,2.22-1.42-.09,0-.62-.14-3.48.35a.13.13,0,0,1-.16-.1.12.12,0,0,1,.11-.15c3.3-.56,3.6-.37,3.72-.3a.23.23,0,0,1,.1.14c.16,1.08-2.31,1.69-2.42,1.72l-1.52.61Z" transform="translate(-19.13 -1.77)"/><path class="cls-38" d="M144.44,75.71a.14.14,0,0,1-.09,0,.12.12,0,0,1,0-.18c.6-.61,1.18-1.28,1.75-2a58.75,58.75,0,0,0,4.48-6.32l.05-.08.1,0A7.3,7.3,0,0,0,154,66.6a.15.15,0,0,1,.19.06.11.11,0,0,1-.06.17,7.51,7.51,0,0,1-3.32.58,59.39,59.39,0,0,1-4.46,6.27c-.57.7-1.16,1.37-1.76,2A.15.15,0,0,1,144.44,75.71Z" transform="translate(-19.13 -1.77)"/><path class="cls-36" d="M163.4,94.31a14.12,14.12,0,0,0-4.11,0,8.12,8.12,0,0,1-2.51,0c-.78-.09-1.92-.26-1.42.81s1.92,1.14,2.9,1.23c0,0-.35,1.09-3,1s-3.38,0-3.19.79a7.34,7.34,0,0,0,5.46,3.51,15,15,0,0,0,8.16-3.3Z" transform="translate(-19.13 -1.77)"/><path class="cls-26" d="M164.13,20.3c.56-4.05-2.68-7.73-7.23-8.22-.12,0-.25,0-.37,0,0-.13.06-.27.08-.4.38-2.79-1.85-5.33-5-5.67a7.54,7.54,0,0,0-.95,0,9.17,9.17,0,0,0-6.6-3.77,9.41,9.41,0,0,0-8.87,3.9h0c-4.55-.49-8.68,2.39-9.23,6.45a6.63,6.63,0,0,0,.77,4.1,5.32,5.32,0,0,0-4.2,4.3c-.38,2.79,1.85,5.32,5,5.66a6.25,6.25,0,0,0,1.89-.08,7.52,7.52,0,0,0,6.92,6.22,8.62,8.62,0,0,0,5.3-1.11,8.94,8.94,0,0,0,5.74,2.85c4.75.52,9.08-2.5,9.66-6.74a8.39,8.39,0,0,0,.06-1A7.86,7.86,0,0,0,164.13,20.3Z" transform="translate(-19.13 -1.77)"/><path class="cls-2" d="M148.42,34.88a10.32,10.32,0,0,1-1.11-.06,9.45,9.45,0,0,1-5.77-2.74,9.17,9.17,0,0,1-5.27,1,7.93,7.93,0,0,1-7.2-6.15,6.67,6.67,0,0,1-1.61,0c-3.34-.36-5.73-3.08-5.32-6.05a5.59,5.59,0,0,1,4-4.48,6.94,6.94,0,0,1-.62-3.93,7.55,7.55,0,0,1,3.27-5.16A9.39,9.39,0,0,1,135,5.7a9.87,9.87,0,0,1,9.13-3.87,9.59,9.59,0,0,1,6.77,3.76,6.57,6.57,0,0,1,.78,0C155,6,157.41,8.71,157,11.69v0c4.73.54,8.11,4.39,7.53,8.62h0A8.21,8.21,0,0,1,157.47,27q0,.39-.06.75A7.88,7.88,0,0,1,154,33.16,9.79,9.79,0,0,1,148.42,34.88Zm-6.8-3.62a.39.39,0,0,1,.31.13,8.54,8.54,0,0,0,5.47,2.72,9,9,0,0,0,6.11-1.51,7.16,7.16,0,0,0,3.11-4.92,7.38,7.38,0,0,0,.06-1,.37.37,0,0,1,.34-.35,7.49,7.49,0,0,0,6.72-6.11c.53-3.85-2.56-7.36-6.89-7.83l-.2,0h-.15a.39.39,0,0,1-.29-.13.39.39,0,0,1-.07-.29c0-.12.06-.25.08-.38.35-2.59-1.73-4.95-4.64-5.27a5.05,5.05,0,0,0-.88,0,.41.41,0,0,1-.35-.17A8.73,8.73,0,0,0,144,2.53a9,9,0,0,0-8.48,3.73.41.41,0,0,1-.4.17,8.53,8.53,0,0,0-5.83,1.44,6.86,6.86,0,0,0-3,4.69,6.38,6.38,0,0,0,.73,3.91.32.32,0,0,1,0,.3.43.43,0,0,1-.26.19,4.93,4.93,0,0,0-3.91,4,4.89,4.89,0,0,0,4.64,5.27,5.8,5.8,0,0,0,1.76-.07.5.5,0,0,1,.32.05.35.35,0,0,1,.16.25,7.12,7.12,0,0,0,6.56,5.91,8.27,8.27,0,0,0,5-1A.46.46,0,0,1,141.62,31.26Zm22.51-11h0Z" transform="translate(-19.13 -1.77)"/><path class="cls-9" d="M143.32,28.46h-.14a1.81,1.81,0,0,1-1.93-1.69l0-1.84,4,0v1.84A1.82,1.82,0,0,1,143.32,28.46Z" transform="translate(-19.13 -1.77)"/><path class="cls-8" d="M146.33,25.47c0,.84-1.38,1.52-3.09,1.54s-3.11-.66-3.12-1.49S141.49,24,143.21,24,146.32,24.64,146.33,25.47Z" transform="translate(-19.13 -1.77)"/><path class="cls-3" d="M146.32,24.59c0,.84-1.38,1.52-3.09,1.54s-3.11-.66-3.12-1.49,1.37-1.52,3.09-1.53S146.31,23.76,146.32,24.59Z" transform="translate(-19.13 -1.77)"/><path class="cls-7" d="M149.75,16.84c0-3.47-3.43-6.22-7.42-5.79a6.27,6.27,0,0,0-5.77,5.27,5.71,5.71,0,0,0,3,5.53,2.2,2.2,0,0,1,1.18,1.86h0a1.56,1.56,0,0,0,1.65,1.44H144a1.56,1.56,0,0,0,1.62-1.47v-.06a2.08,2.08,0,0,1,1.1-1.79A5.74,5.74,0,0,0,149.75,16.84Z" transform="translate(-19.13 -1.77)"/><path class="cls-9" d="M143.56,25.15s-.05-.55-.05-5.22c0-.32,0-.62,0-.91-.17,0-.34,0-.52,0h-.41a8.58,8.58,0,0,1,.13,1.51l.05,4.6h-.28l-.05-4.6a7.9,7.9,0,0,0-.14-1.53c-1.55-.16-2.27-.88-2.27-1.56a.76.76,0,0,1,.78-.8h0c.82,0,1.44.79,1.72,2.12l.45,0,.54,0c.12-1.79.53-2.82,1.24-3.08a1.16,1.16,0,0,1,1.13.27,1.48,1.48,0,0,1,.18,1.65A2.69,2.69,0,0,1,143.81,19c0,.29,0,.6,0,.94,0,4.63,0,5.18.05,5.2Zm-2.73-8.24h0a.5.5,0,0,0-.5.55c0,.56.62,1.15,1.94,1.3C142,17.62,141.47,16.91,140.83,16.91Zm4.28-1a.93.93,0,0,0-.23,0c-.35.13-.9.68-1,2.81a2.39,2.39,0,0,0,2-1.22,1.25,1.25,0,0,0-.12-1.37A.92.92,0,0,0,145.11,15.88Z" transform="translate(-19.13 -1.77)"/><path class="cls-23" d="M147.15,14.07c-.24.38-1,.41-1.67.07s-1-.93-.8-1.31,1-.41,1.67-.07S147.39,13.69,147.15,14.07Z" transform="translate(-19.13 -1.77)"/><path class="cls-23" d="M148.62,15.62a.67.67,0,0,1-.4.86.74.74,0,0,1-.76-.63.65.65,0,0,1,.4-.85A.72.72,0,0,1,148.62,15.62Z" transform="translate(-19.13 -1.77)"/><path class="cls-7" d="M142.85,9.93a.27.27,0,0,1-.28-.25l-.11-2.75a.26.26,0,0,1,.27-.26.27.27,0,0,1,.29.24l.12,2.76a.28.28,0,0,1-.28.26Z" transform="translate(-19.13 -1.77)"/><path class="cls-7" d="M136.25,12.85a.31.31,0,0,1-.13,0l-2.73-1.3a.24.24,0,0,1-.12-.34.3.3,0,0,1,.38-.1l2.73,1.29a.24.24,0,0,1,.12.34A.29.29,0,0,1,136.25,12.85Z" transform="translate(-19.13 -1.77)"/><path class="cls-7" d="M149.19,12.43a.27.27,0,0,1-.24-.12A.24.24,0,0,1,149,12l2.63-1.45a.31.31,0,0,1,.39.08.24.24,0,0,1-.09.35l-2.63,1.45A.28.28,0,0,1,149.19,12.43Z" transform="translate(-19.13 -1.77)"/><path class="cls-26" d="M159.75,32.15a4.18,4.18,0,0,1-4.73,3.3,3.9,3.9,0,0,1-3.7-4.21,4.16,4.16,0,0,1,4.72-3.3A3.91,3.91,0,0,1,159.75,32.15Z" transform="translate(-19.13 -1.77)"/><path class="cls-2" d="M155.54,35.83a5.44,5.44,0,0,1-.57,0,4.79,4.79,0,0,1-3.09-1.56,3.78,3.78,0,0,1-1-3.05,4.56,4.56,0,0,1,5.17-3.6,4.78,4.78,0,0,1,3.1,1.55,3.82,3.82,0,0,1,.95,3h0A4,4,0,0,1,158.39,35,5,5,0,0,1,155.54,35.83Zm0-7.57a3.73,3.73,0,0,0-3.82,3,3.19,3.19,0,0,0,.79,2.53,4,4,0,0,0,2.57,1.29,4.14,4.14,0,0,0,2.83-.71,3.3,3.3,0,0,0,1.45-2.28h0a3.11,3.11,0,0,0-.79-2.53A3.94,3.94,0,0,0,156,28.29Z" transform="translate(-19.13 -1.77)"/><path class="cls-26" d="M163.46,38.76a1.69,1.69,0,1,1-1.68-1.49A1.59,1.59,0,0,1,163.46,38.76Z" transform="translate(-19.13 -1.77)"/><path class="cls-2" d="M161.78,40.6a1.86,1.86,0,1,1,2.07-1.84A2,2,0,0,1,161.78,40.6Zm0-3a1.15,1.15,0,1,0,1.28,1.14A1.21,1.21,0,0,0,161.78,37.62Z" transform="translate(-19.13 -1.77)"/><path class="cls-40" d="M107.88,77.41a3.25,3.25,0,0,0-.86,4,4.61,4.61,0,0,0,4,2.27,4.71,4.71,0,0,0,4.2-2.12,2.64,2.64,0,0,0,.24-2.19A3.7,3.7,0,0,0,114,77.51a6.32,6.32,0,0,0-3.21-.83,3.7,3.7,0,0,0-2.79.76c-.14.14.09.34.22.2a3.13,3.13,0,0,1,2.27-.68,6.67,6.67,0,0,1,2.77.49c1.46.65,2.5,2.09,1.94,3.55a4.11,4.11,0,0,1-3.61,2.33,4.57,4.57,0,0,1-4-1.67,3,3,0,0,1,.54-4c.16-.13-.07-.33-.22-.2Z" transform="translate(-19.13 -1.77)"/><path class="cls-40" d="M110.12,81.6a3,3,0,0,0,2.21-.3,1.89,1.89,0,0,0,1-1.72,1.63,1.63,0,0,0-.45-1c-.13-.14-.35.06-.22.2a1.49,1.49,0,0,1-.08,2,2.44,2.44,0,0,1-2.33.56.15.15,0,1,0-.08.28Z" transform="translate(-19.13 -1.77)"/><path class="cls-40" d="M107.05,82.28a3.29,3.29,0,0,1-2.19-1.44.92.92,0,0,1,0-1c.38-.41,1-.06,1.26.28a1.13,1.13,0,0,1,.26.51c0,.3-.53-.13-.63-.22a2.19,2.19,0,0,1-.69-1.09,1.48,1.48,0,0,1,1.21-1.9c.39,0,.93.09,1.05.47.07.21-.05.45-.33.3a.8.8,0,0,1-.36-.54,1.47,1.47,0,0,1,1.28-1.72,1.89,1.89,0,0,1,1.23.25c.13.08.49.33.33.49s-.5-.15-.52-.33c-.07-.41.31-.78.71-.92a1.84,1.84,0,0,1,1.43.22,2,2,0,0,1,.65.52c.19.28-.2.46-.44.28-.47-.36,0-.87.48-.94a2.52,2.52,0,0,1,1.65.52,5.23,5.23,0,0,1,1.26,1.08c.12.14.4,0,.27-.14a5.77,5.77,0,0,0-1.68-1.37,2.14,2.14,0,0,0-2-.22.76.76,0,0,0-.24,1.24c.38.35,1.22.14,1.07-.41a1.39,1.39,0,0,0-.63-.66,2.67,2.67,0,0,0-1-.43,1.68,1.68,0,0,0-1.67.56c-.29.4-.3,1.17.33,1.32a.59.59,0,0,0,.63-.23c.15-.26-.06-.51-.27-.68a2,2,0,0,0-3.06.57,1.49,1.49,0,0,0,.12,1.57.73.73,0,0,0,.77.27.48.48,0,0,0,.32-.48c0-.55-.63-.87-1.19-.88a1.74,1.74,0,0,0-1.53.82,1.94,1.94,0,0,0-.07,1.77,2.81,2.81,0,0,0,.5.75,2.07,2.07,0,0,0,.82.56.37.37,0,0,0,.51-.35,1.38,1.38,0,0,0-.37-.79,1.21,1.21,0,0,0-1.63-.31,1.1,1.1,0,0,0-.11,1.4,3.23,3.23,0,0,0,1.45,1.3,3.5,3.5,0,0,0,1,.32c.2,0,.28-.23.08-.27Z" transform="translate(-19.13 -1.77)"/><path class="cls-40" d="M109.19,79.91a.1.1,0,0,1,0,0s0,0,0,0l0,0,0,0s0,0,0,0l0,0-.06,0h0l-.06,0h-.3s0,0,0,0l0,0h0s0,0,0,0l0,0,0,0s0,0,0,0l0,0v0h0s0,0,0,0a.17.17,0,0,0,0,0,.11.11,0,0,0,0,0s0,0,0,0v-.07s0,0,0,0,0,0,0,0a.43.43,0,0,1,0,0v0h0s0,0,0,0l0,0s0,0,0,0,0,0,0,0h0s0,0,0,0l0,0s0,0,0,0h.14l.09,0s0,0,0,0l0,0,.07,0h0l0,0,.06,0a.46.46,0,0,1,.07.07l0,0h0l0,0a.17.17,0,0,0,.22,0c.06,0,.11-.13,0-.19a1.08,1.08,0,0,0-.67-.44.59.59,0,0,0-.61.27.61.61,0,0,0,0,.57.67.67,0,0,0,.59.28.83.83,0,0,0,.68-.36.14.14,0,0,0,0-.19.17.17,0,0,0-.22,0Z" transform="translate(-19.13 -1.77)"/><path class="cls-40" d="M110,78.32a.57.57,0,0,0,.44.47.61.61,0,0,0,.64-.18.53.53,0,0,0,0-.58.54.54,0,0,0-.61-.22.62.62,0,0,0-.35.22.42.42,0,0,0-.09.37c0,.07.12.12.19.1a.16.16,0,0,0,.12-.18v0s0,0,0,0a0,0,0,0,0,0,0v0h0s0,0,0,0l0,0s0,0,0,0,0,0,0,0l.05,0h0s0,0,.06,0,0,0,0,0h.13s0,0,0,0h0s0,0,0,0l0,0s0,0,0,0h0l0,0h0s0,0,0,0,0,0,0,0,0,0,0,0h0s0,0,0,0,0,0,0,0v0s0,0,0,0v.08s0,0,0,0a.43.43,0,0,1,0,0v0s0,0,0,0l0,0v0s0,0,0,0v0h0s0,0,0,0l0,0h-.14s0,0,0,0h-.08l0,0,0,0s0,0,0,0l0,0,0,0h0v0l0,0h0s0,0,0,0,0,0,0,0v0h0a.16.16,0,0,0-.16-.15.17.17,0,0,0-.16.15Z" transform="translate(-19.13 -1.77)"/></svg>