<svg id="Layer_3" data-name="Layer 3" xmlns="http://www.w3.org/2000/svg" viewBox="0 0 405.18 373.68"><defs><style>.cls-1{fill:#f5f5f5;}.cls-2{fill:#e1e1e1;}.cls-3{fill:#375a64;}.cls-4,.cls-6{fill:#444;}.cls-5,.cls-7{fill:#5ae4a7;}.cls-11,.cls-32,.cls-5,.cls-6{opacity:0.3;}.cls-8{fill:#37474f;}.cls-9{fill:#1a2e35;}.cls-10{fill:#7a7a7a;}.cls-11,.cls-12,.cls-13,.cls-18,.cls-21,.cls-22,.cls-23,.cls-24,.cls-26{fill:#fff;}.cls-12,.cls-25{opacity:0.7;}.cls-13,.cls-15{opacity:0.5;}.cls-14,.cls-23{opacity:0.4;}.cls-16,.cls-22{opacity:0.6;}.cls-17,.cls-21{opacity:0.8;}.cls-18,.cls-19{opacity:0.1;}.cls-20,.cls-24{opacity:0.2;}.cls-27{fill:#e6e6e6;}.cls-28{fill:#fafafa;}.cls-29{fill:#f0f0f0;}.cls-30{fill:#f2f2f2;}.cls-31{fill:#ededed;}.cls-33{fill:#757575;}.cls-34{fill:#606060;}.cls-35{fill:#263238;}.cls-36{fill:#945959;}.cls-37{fill:#6d6d6d;}.cls-38{fill:#703838;}.cls-39{fill:#ba68c8;}.cls-40{fill:#3a3a3a;}</style></defs><ellipse class="cls-1" cx="202.59" cy="269.47" rx="202.59" ry="104.21"/><path class="cls-2" d="M372.32,351.51l-50,25.71c-4.33,2.22-11.9,1.94-16.9-.63l-47.54-24.45c-5-2.57-5.54-6.47-1.21-8.69l50-25.71c4.34-2.22,11.9-1.94,16.9.63l47.54,24.45C376.1,345.39,376.65,349.29,372.32,351.51Z" transform="translate(-8.18 -45.54)"/><path class="cls-2" d="M291.38,355.22c15.39,8.51,15.39,22.3,0,30.81s-40.32,8.51-55.71,0-15.38-22.3,0-30.81S276,346.71,291.38,355.22Z" transform="translate(-8.18 -45.54)"/><ellipse class="cls-2" cx="63.92" cy="300.1" rx="38.48" ry="19.79"/><path class="cls-2" d="M227.53,235l-167,85.89a6.43,6.43,0,0,0,0,11.74l91.14,46.88a23.24,23.24,0,0,0,21,0L333,297.07a6.42,6.42,0,0,0,0-11.73L235.14,235A8.37,8.37,0,0,0,227.53,235Z" transform="translate(-8.18 -45.54)"/><path class="cls-3" d="M178,375.29a7.39,7.39,0,0,1-6,0c-1.66-.86-1.66-2.25,0-3.1a7.39,7.39,0,0,1,6,0C179.65,373,179.65,374.43,178,375.29Z" transform="translate(-8.18 -45.54)"/><rect class="cls-3" x="162.52" y="242.92" width="8.54" height="85.2"/><path class="cls-3" d="M77.89,324.14a7.39,7.39,0,0,1-6,0c-1.67-.86-1.67-2.25,0-3.11a7.45,7.45,0,0,1,6,0C79.55,321.89,79.55,323.28,77.89,324.14Z" transform="translate(-8.18 -45.54)"/><rect class="cls-3" x="62.43" y="191.77" width="8.54" height="85.2"/><path class="cls-3" d="M326.68,298a7.37,7.37,0,0,1-6,0c-1.67-.86-1.67-2.25,0-3.1a7.37,7.37,0,0,1,6,0C328.35,295.77,328.35,297.16,326.68,298Z" transform="translate(-8.18 -45.54)"/><rect class="cls-3" x="311.23" y="165.65" width="8.54" height="85.2"/><path class="cls-3" d="M226.59,246.87a7.39,7.39,0,0,1-6,0c-1.67-.86-1.67-2.25,0-3.11a7.47,7.47,0,0,1,6,0C228.25,244.62,228.25,246,226.59,246.87Z" transform="translate(-8.18 -45.54)"/><rect class="cls-3" x="211.13" y="114.5" width="8.54" height="85.2"/><polygon class="cls-4" points="40.95 192.73 40.95 197.77 153.98 255.9 153.98 250.86 40.95 192.73"/><polygon class="cls-5" points="40.95 192.73 40.95 197.77 153.98 255.9 153.98 250.86 40.95 192.73"/><polygon class="cls-4" points="336.19 157.14 153.98 250.86 153.98 255.9 336.19 162.18 336.19 157.14"/><polygon class="cls-6" points="336.19 157.14 153.98 250.86 153.98 255.9 336.19 162.18 336.19 157.14"/><polygon class="cls-7" points="223.16 99.01 40.95 192.73 153.98 250.86 336.19 157.14 223.16 99.01"/><path class="cls-8" d="M45.22,293.62v49.19h0c0,3.7,2.75,7.4,8.24,10.22,11,5.65,28.77,5.65,39.75,0,5.49-2.82,8.23-6.52,8.23-10.22h0V293.62Z" transform="translate(-8.18 -45.54)"/><ellipse class="cls-3" cx="65.16" cy="247.87" rx="28.11" ry="14.46"/><path class="cls-9" d="M92.59,300.21a19,19,0,0,1-2.73,1.69c-.19.1-.38.2-.58.29a28.1,28.1,0,0,1-4,1.54c-.55.17-1.11.33-1.68.46a38.52,38.52,0,0,1-4,.79c-1.14.16-2.32.29-3.49.36-.47,0-.94.06-1.42.07q-1.33,0-2.67,0c-1.12,0-2.22-.1-3.32-.21a36.83,36.83,0,0,1-4.14-.64c-.55-.11-1.09-.22-1.62-.37a29,29,0,0,1-6.22-2.29,20.92,20.92,0,0,1-2.42-1.45c-5.32-3.78-5.84-8.79-1.57-12.81a17.3,17.3,0,0,1,4-2.74,28.35,28.35,0,0,1,5.17-2c.34-.1.7-.2,1.05-.28.95-.25,1.92-.45,2.91-.61s2.14-.33,3.24-.43a41.77,41.77,0,0,1,5.6-.17,44.12,44.12,0,0,1,4.91.43l.32,0a35.52,35.52,0,0,1,3.64.74,29.7,29.7,0,0,1,4.85,1.64c.47.2.93.42,1.37.65a21.52,21.52,0,0,1,2,1.19,13.74,13.74,0,0,1,2.62,2.23C98,292.13,97.34,296.69,92.59,300.21Z" transform="translate(-8.18 -45.54)"/><path class="cls-10" d="M74.2,229.78v15.3H83V234.66A14,14,0,0,0,74.2,229.78Z" transform="translate(-8.18 -45.54)"/><path class="cls-11" d="M74.2,229.78v15.3H83V234.66A14,14,0,0,0,74.2,229.78Z" transform="translate(-8.18 -45.54)"/><path class="cls-10" d="M79.68,233.59V305c-1.14.16-2.32.29-3.49.36-.47,0-.94.06-1.42.07q-1.33,0-2.67,0c-1.12,0-2.22-.1-3.32-.21a36.83,36.83,0,0,1-4.14-.64c-.55-.11-1.09-.22-1.62-.37v-70.6Z" transform="translate(-8.18 -45.54)"/><path class="cls-12" d="M79.68,233.59V305c-1.14.16-2.32.29-3.49.36-.47,0-.94.06-1.42.07q-1.33,0-2.67,0c-1.12,0-2.22-.1-3.32-.21a36.83,36.83,0,0,1-4.14-.64c-.55-.11-1.09-.22-1.62-.37v-70.6Z" transform="translate(-8.18 -45.54)"/><path class="cls-10" d="M83.64,236v68.2a38.52,38.52,0,0,1-4,.79c-1.14.16-2.32.29-3.49.36-.47,0-.94.06-1.42.07V241.84a15.52,15.52,0,0,0,4.91-1.5A8.27,8.27,0,0,0,83,237.45,4.55,4.55,0,0,0,83.64,236Z" transform="translate(-8.18 -45.54)"/><path class="cls-13" d="M83.64,236v68.2a38.52,38.52,0,0,1-4,.79c-1.14.16-2.32.29-3.49.36-.47,0-.94.06-1.42.07V241.84a15.52,15.52,0,0,0,4.91-1.5A8.27,8.27,0,0,0,83,237.45,4.55,4.55,0,0,0,83.64,236Z" transform="translate(-8.18 -45.54)"/><path class="cls-10" d="M75.19,242.14a.4.4,0,0,1-.41-.3.37.37,0,0,1,.33-.44A15.51,15.51,0,0,0,79.53,240c2.11-1.09,3.27-2.51,3.27-4s-1.16-2.91-3.27-4a18.26,18.26,0,0,0-8.18-1.74.37.37,0,1,1,0-.74,19.28,19.28,0,0,1,8.6,1.83c2.38,1.23,3.69,2.87,3.69,4.64s-1.31,3.42-3.69,4.64a16.29,16.29,0,0,1-4.68,1.51Z" transform="translate(-8.18 -45.54)"/><path class="cls-13" d="M75.19,242.14a.4.4,0,0,1-.41-.3.37.37,0,0,1,.33-.44A15.51,15.51,0,0,0,79.53,240c2.11-1.09,3.27-2.51,3.27-4s-1.16-2.91-3.27-4a18.26,18.26,0,0,0-8.18-1.74.37.37,0,1,1,0-.74,19.28,19.28,0,0,1,8.6,1.83c2.38,1.23,3.69,2.87,3.69,4.64s-1.31,3.42-3.69,4.64a16.29,16.29,0,0,1-4.68,1.51Z" transform="translate(-8.18 -45.54)"/><path class="cls-10" d="M77.24,230.77c3.25,1.67,3.25,4.39,0,6.06a14.48,14.48,0,0,1-11.78,0c-3.25-1.67-3.25-4.39,0-6.06A14.48,14.48,0,0,1,77.24,230.77Z" transform="translate(-8.18 -45.54)"/><path class="cls-13" d="M77.24,230.77c3.25,1.67,3.25,4.39,0,6.06a14.48,14.48,0,0,1-11.78,0c-3.25-1.67-3.25-4.39,0-6.06A14.48,14.48,0,0,1,77.24,230.77Z" transform="translate(-8.18 -45.54)"/><path class="cls-10" d="M92.64,256,90.8,267.34l6.5.84,1.25-7.71A10,10,0,0,0,92.64,256Z" transform="translate(-8.18 -45.54)"/><path class="cls-11" d="M92.64,256,90.8,267.34l6.5.84,1.25-7.71A10,10,0,0,0,92.64,256Z" transform="translate(-8.18 -45.54)"/><path class="cls-10" d="M96.24,259.36,95.49,264l-.06.33-.05.31-.52,3.19-3,18.23-2.62,16.1a28.1,28.1,0,0,1-4,1.54c-.55.17-1.11.33-1.68.46a38.52,38.52,0,0,1-4,.79c-1.14.16-2.32.29-3.49.36l3.49-21.5.32-2,3.64-22.42.27-1.68h0l8.25,1.07,4,.52Z" transform="translate(-8.18 -45.54)"/><path class="cls-12" d="M96.24,259.36,95.49,264l-.06.33-.05.31-.52,3.19-3,18.23-2.62,16.1a28.1,28.1,0,0,1-4,1.54c-.55.17-1.11.33-1.68.46a38.52,38.52,0,0,1-4,.79c-1.14.16-2.32.29-3.49.36l3.49-21.5.32-2,3.64-22.42.27-1.68h0l8.25,1.07,4,.52Z" transform="translate(-8.18 -45.54)"/><path class="cls-10" d="M98.88,261.52l-4.36,26.8-1.93,11.89a19,19,0,0,1-2.73,1.69c-.19.1-.38.2-.58.29a28.1,28.1,0,0,1-4,1.54l3.17-19.48,2.74-16.85.39-2.4a11.67,11.67,0,0,0,3.81-.64,6.42,6.42,0,0,0,2.78-1.81A3.57,3.57,0,0,0,98.88,261.52Z" transform="translate(-8.18 -45.54)"/><path class="cls-13" d="M98.88,261.52l-4.36,26.8-1.93,11.89a19,19,0,0,1-2.73,1.69c-.19.1-.38.2-.58.29a28.1,28.1,0,0,1-4,1.54l3.17-19.48,2.74-16.85.39-2.4a11.67,11.67,0,0,0,3.81-.64,6.42,6.42,0,0,0,2.78-1.81A3.57,3.57,0,0,0,98.88,261.52Z" transform="translate(-8.18 -45.54)"/><path class="cls-10" d="M91.88,265.26a.27.27,0,0,1-.26-.26.29.29,0,0,1,.29-.29,12,12,0,0,0,3.45-.63c1.69-.6,2.72-1.54,2.9-2.64s-.51-2.26-1.94-3.27a13.35,13.35,0,0,0-5.84-2.06.3.3,0,0,1-.27-.32.31.31,0,0,1,.35-.24,14.11,14.11,0,0,1,6.15,2.18c1.61,1.14,2.38,2.48,2.17,3.79s-1.38,2.4-3.29,3.08a12.6,12.6,0,0,1-3.64.67Z" transform="translate(-8.18 -45.54)"/><path class="cls-13" d="M91.88,265.26a.27.27,0,0,1-.26-.26.29.29,0,0,1,.29-.29,12,12,0,0,0,3.45-.63c1.69-.6,2.72-1.54,2.9-2.64s-.51-2.26-1.94-3.27a13.35,13.35,0,0,0-5.84-2.06.3.3,0,0,1-.27-.32.31.31,0,0,1,.35-.24,14.11,14.11,0,0,1,6.15,2.18c1.61,1.14,2.38,2.48,2.17,3.79s-1.38,2.4-3.29,3.08a12.6,12.6,0,0,1-3.64.67Z" transform="translate(-8.18 -45.54)"/><path class="cls-10" d="M94.77,257c2.21,1.55,1.88,3.56-.73,4.49a10.75,10.75,0,0,1-8.71-1.13c-2.21-1.55-1.88-3.55.73-4.48A10.75,10.75,0,0,1,94.77,257Z" transform="translate(-8.18 -45.54)"/><path class="cls-13" d="M94.77,257c2.21,1.55,1.88,3.56-.73,4.49a10.75,10.75,0,0,1-8.71-1.13c-2.21-1.55-1.88-3.55.73-4.48A10.75,10.75,0,0,1,94.77,257Z" transform="translate(-8.18 -45.54)"/><path class="cls-10" d="M57.17,247.75l1.54,12.54,7.21-.7-1-8.54A11.91,11.91,0,0,0,57.17,247.75Z" transform="translate(-8.18 -45.54)"/><path class="cls-11" d="M57.17,247.75l1.54,12.54,7.21-.7-1-8.54A11.91,11.91,0,0,0,57.17,247.75Z" transform="translate(-8.18 -45.54)"/><path class="cls-10" d="M68.78,305.2a36.83,36.83,0,0,1-4.14-.64c-.55-.11-1.09-.22-1.62-.37a29,29,0,0,1-6.22-2.29,20.92,20.92,0,0,1-2.42-1.45l-1.57-12.81-4.4-35.88h0l9.13-.89,4.48-.44h0l.63,5.18.05.36,0,.34.24,2,.19,1.57L65.93,282Z" transform="translate(-8.18 -45.54)"/><path class="cls-12" d="M68.78,305.2a36.83,36.83,0,0,1-4.14-.64c-.55-.11-1.09-.22-1.62-.37a29,29,0,0,1-6.22-2.29,20.92,20.92,0,0,1-2.42-1.45l-1.57-12.81-4.4-35.88h0l9.13-.89,4.48-.44h0l.63,5.18.05.36,0,.34.24,2,.19,1.57L65.93,282Z" transform="translate(-8.18 -45.54)"/><path class="cls-10" d="M68.78,305.2a36.83,36.83,0,0,1-4.14-.64L63,291.43,62,282.89l-2.79-22.64-.32-2.66A12.39,12.39,0,0,0,62.74,256a3.39,3.39,0,0,0,.28-.2,6.41,6.41,0,0,0,2.13-2.42,3.68,3.68,0,0,0,.39-1.26l3.63,29.48,2.93,23.84C71,305.38,69.88,305.31,68.78,305.2Z" transform="translate(-8.18 -45.54)"/><path class="cls-13" d="M68.78,305.2a36.83,36.83,0,0,1-4.14-.64L63,291.43,62,282.89l-2.79-22.64-.32-2.66A12.39,12.39,0,0,0,62.74,256a3.39,3.39,0,0,0,.28-.2,6.41,6.41,0,0,0,2.13-2.42,3.68,3.68,0,0,0,.39-1.26l3.63,29.48,2.93,23.84C71,305.38,69.88,305.31,68.78,305.2Z" transform="translate(-8.18 -45.54)"/><path class="cls-10" d="M59.23,257.81a.34.34,0,0,1-.36-.22.29.29,0,0,1,.22-.38,12.72,12.72,0,0,0,3.49-1.52c1.62-1.06,2.42-2.31,2.27-3.53s-1.24-2.29-3.08-3a15.14,15.14,0,0,0-6.88-.77.35.35,0,0,1-.38-.28.32.32,0,0,1,.31-.34,16.27,16.27,0,0,1,7.23.82c2.07.81,3.31,2.06,3.49,3.51s-.73,2.91-2.55,4.1a13.44,13.44,0,0,1-3.69,1.61Z" transform="translate(-8.18 -45.54)"/><path class="cls-13" d="M59.23,257.81a.34.34,0,0,1-.36-.22.29.29,0,0,1,.22-.38,12.72,12.72,0,0,0,3.49-1.52c1.62-1.06,2.42-2.31,2.27-3.53s-1.24-2.29-3.08-3a15.14,15.14,0,0,0-6.88-.77.35.35,0,0,1-.38-.28.32.32,0,0,1,.31-.34,16.27,16.27,0,0,1,7.23.82c2.07.81,3.31,2.06,3.49,3.51s-.73,2.91-2.55,4.1a13.44,13.44,0,0,1-3.69,1.61Z" transform="translate(-8.18 -45.54)"/><path class="cls-10" d="M59.77,248.32c2.83,1.11,3.11,3.34.61,5a11.87,11.87,0,0,1-9.65.94c-2.84-1.11-3.11-3.34-.61-5A11.87,11.87,0,0,1,59.77,248.32Z" transform="translate(-8.18 -45.54)"/><path class="cls-13" d="M59.77,248.32c2.83,1.11,3.11,3.34.61,5a11.87,11.87,0,0,1-9.65.94c-2.84-1.11-3.11-3.34-.61-5A11.87,11.87,0,0,1,59.77,248.32Z" transform="translate(-8.18 -45.54)"/><path class="cls-9" d="M281,195.5l-11,5.64a3.36,3.36,0,0,1-2.75-.1l-37.38-19.22c-.81-.42-.9-1.06-.2-1.42l11-5.64a3.36,3.36,0,0,1,2.75.1l37.38,19.22C281.6,194.5,281.69,195.13,281,195.5Z" transform="translate(-8.18 -45.54)"/><polygon class="cls-7" points="240.92 134.86 232.47 139.2 225.5 135.62 233.95 131.27 240.92 134.86"/><polygon class="cls-7" points="250.1 139.58 241.65 143.93 234.69 140.34 243.14 136 250.1 139.58"/><polygon class="cls-7" points="259.29 144.3 250.84 148.65 243.87 145.07 252.32 140.72 259.29 144.3"/><polygon class="cls-7" points="268.47 149.03 260.02 153.38 253.06 149.79 261.51 145.44 268.47 149.03"/><polygon class="cls-14" points="240.92 134.86 232.47 139.2 225.5 135.62 233.95 131.27 240.92 134.86"/><polygon class="cls-15" points="250.1 139.58 241.65 143.93 234.69 140.34 243.14 136 250.1 139.58"/><polygon class="cls-16" points="259.29 144.3 250.84 148.65 243.87 145.07 252.32 140.72 259.29 144.3"/><polygon class="cls-17" points="268.47 149.03 260.02 153.38 253.06 149.79 261.51 145.44 268.47 149.03"/><path class="cls-8" d="M283.11,185.12l-9.31,7.66a3.34,3.34,0,0,1-2.7.45l-41.22-11.41c-.9-.25-1.14-.85-.54-1.34l9.31-7.67a3.35,3.35,0,0,1,2.7-.44l41.22,11.41C283.47,184,283.71,184.63,283.11,185.12Z" transform="translate(-8.18 -45.54)"/><polygon class="cls-7" points="240.09 131.12 232.93 137.02 225.25 134.89 232.41 128.99 240.09 131.12"/><polygon class="cls-7" points="250.22 133.92 243.05 139.82 235.37 137.69 242.54 131.79 250.22 133.92"/><polygon class="cls-7" points="260.35 136.72 253.18 142.62 245.5 140.5 252.67 134.6 260.35 136.72"/><polygon class="cls-7" points="270.48 139.53 263.31 145.43 255.63 143.3 262.8 137.4 270.48 139.53"/><polygon class="cls-18" points="240.09 131.12 232.93 137.02 225.25 134.89 232.41 128.99 240.09 131.12"/><polygon class="cls-19" points="260.35 136.72 253.18 142.62 245.5 140.5 252.67 134.6 260.35 136.72"/><polygon class="cls-20" points="270.48 139.53 263.31 145.43 255.63 143.3 262.8 137.4 270.48 139.53"/><path class="cls-3" d="M282.74,175.29l-7.34,9.21a3.28,3.28,0,0,1-2.55.93l-43-3.61c-.94-.08-1.31-.63-.84-1.22l7.34-9.2a3.25,3.25,0,0,1,2.55-.93l43,3.61C282.83,174.16,283.21,174.7,282.74,175.29Z" transform="translate(-8.18 -45.54)"/><polygon class="cls-7" points="238.51 127.86 232.86 134.94 224.85 134.27 230.5 127.18 238.51 127.86"/><polygon class="cls-7" points="249.07 128.74 243.41 135.83 235.41 135.16 241.06 128.07 249.07 128.74"/><polygon class="cls-7" points="259.63 129.63 253.97 136.72 245.97 136.04 251.62 128.96 259.63 129.63"/><polygon class="cls-7" points="270.18 130.52 264.53 137.6 256.52 136.93 262.18 129.84 270.18 130.52"/><polygon class="cls-21" points="238.51 127.86 232.86 134.94 224.85 134.27 230.5 127.18 238.51 127.86"/><polygon class="cls-22" points="249.07 128.74 243.41 135.83 235.41 135.16 241.06 128.07 249.07 128.74"/><polygon class="cls-23" points="259.63 129.63 253.97 136.72 245.97 136.04 251.62 128.96 259.63 129.63"/><polygon class="cls-24" points="270.18 130.52 264.53 137.6 256.52 136.93 262.18 129.84 270.18 130.52"/><path class="cls-2" d="M227.61,184a3.67,3.67,0,0,1-3.56-2.41,3,3,0,0,1,.34-2.5,3.65,3.65,0,0,1,2.23-1.55,4,4,0,0,1,2.8.3,3.37,3.37,0,0,1,1.75,2l-.71.18a2.69,2.69,0,0,0-1.4-1.59,3.27,3.27,0,0,0-2.24-.24,2.92,2.92,0,0,0-1.79,1.24,2.42,2.42,0,0,0-.27,2,3,3,0,0,0,3.65,1.83,2.94,2.94,0,0,0,1.78-1.25l.64.32a3.62,3.62,0,0,1-2.22,1.56A4.34,4.34,0,0,1,227.61,184Z" transform="translate(-8.18 -45.54)"/><path class="cls-7" d="M175.63,261l-31,16-39.2-20.16,31.12-16a3,3,0,0,1,2.66,0l36.47,18.76A.78.78,0,0,1,175.63,261Z" transform="translate(-8.18 -45.54)"/><path class="cls-25" d="M175.63,261l-31,16-39.2-20.16,31.12-16a3,3,0,0,1,2.66,0l36.47,18.76A.78.78,0,0,1,175.63,261Z" transform="translate(-8.18 -45.54)"/><path class="cls-26" d="M173.48,260.39l-28.9,14.86L108.1,256.49l29-14.9a2.77,2.77,0,0,1,2.48,0l33.94,17.46A.73.73,0,0,1,173.48,260.39Z" transform="translate(-8.18 -45.54)"/><polygon class="cls-26" points="136.4 229.72 136.4 226.82 165.74 211.73 165.74 214.2 136.4 229.72"/><polygon class="cls-2" points="136.4 229.72 136.4 226.82 99.92 208.05 99.92 210.95 136.4 229.72"/><path class="cls-7" d="M175.63,256.38l-31,16-39.2-20.16,31.12-16a2.9,2.9,0,0,1,2.66,0L175.63,255A.78.78,0,0,1,175.63,256.38Z" transform="translate(-8.18 -45.54)"/><path class="cls-15" d="M175.63,256.38l-31,16-39.2-20.16,31.12-16a2.9,2.9,0,0,1,2.66,0L175.63,255A.78.78,0,0,1,175.63,256.38Z" transform="translate(-8.18 -45.54)"/><path class="cls-26" d="M140.53,274.86a.76.76,0,0,1-.59,0,.61.61,0,0,1-.37-.55v-2.62a3.4,3.4,0,0,1,1.89-3l.11-.06a.37.37,0,0,1,.35,0,.31.31,0,0,1,.17.27.58.58,0,0,0,.61.54.58.58,0,0,0,.61-.54,1.35,1.35,0,0,0-.79-1.21,1.68,1.68,0,0,0-1.57,0l-.11.06a4.43,4.43,0,0,0-2.49,3.88v2.62a1.69,1.69,0,0,0,1,1.51,2.06,2.06,0,0,0,.91.21,2.15,2.15,0,0,0,1.07-.29.6.6,0,0,0,.23-.3Z" transform="translate(-8.18 -45.54)"/><path class="cls-26" d="M134.72,271.88a.74.74,0,0,1-.58,0,.62.62,0,0,1-.37-.55v-2.63a3.37,3.37,0,0,1,1.89-2.94l.11-.06a.38.38,0,0,1,.35,0,.29.29,0,0,1,.17.27.61.61,0,0,0,1.22,0,1.36,1.36,0,0,0-.79-1.22,1.71,1.71,0,0,0-1.57,0l-.12.06a4.46,4.46,0,0,0-2.48,3.88v2.63a1.7,1.7,0,0,0,1,1.51,2,2,0,0,0,.9.2,2.1,2.1,0,0,0,1.07-.29.5.5,0,0,0,.24-.3Z" transform="translate(-8.18 -45.54)"/><path class="cls-26" d="M128.92,268.9a.83.83,0,0,1-.58,0,.62.62,0,0,1-.37-.56v-2.62a3.4,3.4,0,0,1,1.88-2.95l.11-.05a.38.38,0,0,1,.35,0,.3.3,0,0,1,.18.27.61.61,0,0,0,1.22,0,1.36,1.36,0,0,0-.79-1.21,1.73,1.73,0,0,0-1.58,0l-.11.06a4.45,4.45,0,0,0-2.48,3.88v2.62a1.71,1.71,0,0,0,1,1.52,2.23,2.23,0,0,0,.91.2,2.12,2.12,0,0,0,1.07-.29.54.54,0,0,0,.24-.3Z" transform="translate(-8.18 -45.54)"/><path class="cls-26" d="M123.12,265.91a.73.73,0,0,1-.58,0,.59.59,0,0,1-.37-.55v-2.62a3.38,3.38,0,0,1,1.88-2.95l.11-.06a.37.37,0,0,1,.35,0,.32.32,0,0,1,.18.27.58.58,0,0,0,.61.54.58.58,0,0,0,.61-.54,1.39,1.39,0,0,0-.79-1.22,1.73,1.73,0,0,0-1.58,0l-.11.05a4.48,4.48,0,0,0-2.49,3.89v2.62a1.7,1.7,0,0,0,1,1.51,2.08,2.08,0,0,0,.91.2,2.05,2.05,0,0,0,1.07-.29.56.56,0,0,0,.24-.29Z" transform="translate(-8.18 -45.54)"/><path class="cls-26" d="M117.32,262.93a.8.8,0,0,1-.59,0,.62.62,0,0,1-.37-.55v-2.63a3.39,3.39,0,0,1,1.89-2.94l.11-.06a.37.37,0,0,1,.35,0,.28.28,0,0,1,.17.26.59.59,0,0,0,.61.55.58.58,0,0,0,.61-.55,1.36,1.36,0,0,0-.79-1.21,1.71,1.71,0,0,0-1.57,0l-.11.06a4.46,4.46,0,0,0-2.49,3.88v2.63a1.7,1.7,0,0,0,1,1.51,2.19,2.19,0,0,0,.91.2,2.15,2.15,0,0,0,1.07-.29.52.52,0,0,0,.23-.3Z" transform="translate(-8.18 -45.54)"/><path class="cls-26" d="M111.51,259.94a.74.74,0,0,1-.58,0,.61.61,0,0,1-.37-.55v-2.62a3.39,3.39,0,0,1,1.89-3l.11-.06a.38.38,0,0,1,.35,0,.31.31,0,0,1,.17.27.61.61,0,0,0,1.22,0,1.35,1.35,0,0,0-.79-1.21,1.71,1.71,0,0,0-1.57,0l-.12.06a4.45,4.45,0,0,0-2.48,3.88v2.62a1.68,1.68,0,0,0,1,1.51,2,2,0,0,0,.9.21,2.1,2.1,0,0,0,1.07-.29.57.57,0,0,0,.24-.3Z" transform="translate(-8.18 -45.54)"/><polygon class="cls-27" points="171.46 203.62 137.89 220.89 94.2 198.42 127.77 181.15 171.46 203.62"/><polygon class="cls-28" points="173.39 203.06 138.31 217.76 96.89 192.11 131.97 177.41 173.39 203.06"/><path class="cls-7" d="M136.85,238.43a7.49,7.49,0,0,0-2,9.13c1.57,3.25,5.48,5.12,9.34,5.24s7.91-1.73,9.72-4.9a6,6,0,0,0,.53-5,8.45,8.45,0,0,0-3.55-4.2,14.62,14.62,0,0,0-7.41-1.92c-2.23,0-4.92.13-6.45,1.77-.31.32.21.79.52.46,1.26-1.34,3.38-1.55,5.23-1.57a15.29,15.29,0,0,1,6.41,1.13c3.37,1.49,5.77,4.83,4.48,8.2-1.18,3.09-4.76,5.17-8.33,5.39s-7.34-1.13-9.26-3.87a6.92,6.92,0,0,1,1.26-9.36c.36-.28-.17-.75-.52-.46Z" transform="translate(-8.18 -45.54)"/><path class="cls-7" d="M142,248.11a6.84,6.84,0,0,0,5.12-.69,4.37,4.37,0,0,0,2.2-4,3.9,3.9,0,0,0-1-2.4c-.3-.32-.82.14-.52.47a3.44,3.44,0,0,1-.18,4.67,5.74,5.74,0,0,1-5.38,1.28.34.34,0,1,0-.2.64Z" transform="translate(-8.18 -45.54)"/><path class="cls-7" d="M134.94,249.68a7.54,7.54,0,0,1-5.06-3.33,2.11,2.11,0,0,1-.07-2.41c.88-.95,2.35-.14,2.92.65a2.45,2.45,0,0,1,.59,1.18c0,.68-1.21-.3-1.45-.51a5.13,5.13,0,0,1-1.59-2.53,3.4,3.4,0,0,1,2.78-4.38c.92-.1,2.16.2,2.44,1.09.15.47-.13,1-.76.69a1.83,1.83,0,0,1-.83-1.26,3.37,3.37,0,0,1,2.94-4,4.37,4.37,0,0,1,2.84.57c.31.19,1.14.76.76,1.13-.54.53-1.13-.33-1.2-.74-.15-1,.72-1.8,1.66-2.13a4.16,4.16,0,0,1,3.3.5,4.72,4.72,0,0,1,1.49,1.19c.45.66-.46,1.08-1,.65-1.07-.82.08-2,1.12-2.17,1.35-.23,2.73.55,3.8,1.2a12.53,12.53,0,0,1,2.91,2.5c.28.34.92,0,.64-.33a13.28,13.28,0,0,0-3.89-3.14c-1.36-.73-3.13-1.35-4.62-.52a1.76,1.76,0,0,0-.55,2.87c.88.81,2.82.32,2.46-1a3.3,3.3,0,0,0-1.44-1.52,6.25,6.25,0,0,0-2.3-1,3.86,3.86,0,0,0-3.84,1.31c-.68.92-.7,2.68.75,3.05a1.38,1.38,0,0,0,1.47-.55c.33-.58-.16-1.17-.63-1.55-2.21-1.82-5.91-1.18-7.08,1.3a3.41,3.41,0,0,0,.29,3.64,1.67,1.67,0,0,0,1.76.62,1.12,1.12,0,0,0,.76-1.12c0-1.27-1.48-2-2.76-2a4,4,0,0,0-3.53,1.88,4.51,4.51,0,0,0-.17,4.09,5.84,5.84,0,0,0,1.16,1.73,4.55,4.55,0,0,0,1.89,1.3.87.87,0,0,0,1.19-.81,3.31,3.31,0,0,0-.85-1.81c-.84-1-2.58-1.69-3.79-.72-1,.82-.77,2.23-.25,3.22a7.53,7.53,0,0,0,3.35,3,9.5,9.5,0,0,0,2.22.74c.46.09.66-.55.19-.64Z" transform="translate(-8.18 -45.54)"/><path class="cls-7" d="M139.88,244.21s0,.1-.09.12,0,0,0,0l-.05,0-.09.08h0l-.09.05-.13.07,0,0h0s0,0,0,0a.38.38,0,0,1-.15,0l-.16,0s.09,0,0,0h-.31s.08,0,0,0l-.16,0-.07,0c.07.05,0,0,0,0l-.11-.06h0s0,0,0,0l-.05,0,0,0c-.07-.06,0,0,0,0l-.06-.08,0-.05v0s0,0,0,0,0-.08,0-.11a.53.53,0,0,0,0-.12c0,.08,0,0,0,0a.13.13,0,0,0,0-.06.34.34,0,0,1,0-.1s0,0,0-.06,0,.05,0,0a.74.74,0,0,1,0-.14l0,0s0,0,0,0l.06-.1,0-.05s.05,0,0,0a.34.34,0,0,0,.08-.09l0,0s0,0,0,0l.1-.05s-.09,0,0,0l.08,0,.09,0c-.09,0,0,0,.06,0h.09c.09,0-.07,0,0,0l.2.05c.1,0-.06,0,0,0l.11.05a1,1,0,0,1,.17.1l0,0,.1.07.15.13.15.15.07.07h0l0,.05a.4.4,0,0,0,.5.12c.16-.09.26-.31.14-.45a2.57,2.57,0,0,0-1.56-1,1.29,1.29,0,0,0-1.38,1.94,1.53,1.53,0,0,0,1.36.64,2,2,0,0,0,1.57-.81.31.31,0,0,0-.13-.45.38.38,0,0,0-.5.11Z" transform="translate(-8.18 -45.54)"/><path class="cls-7" d="M141.69,240.53a1.33,1.33,0,0,0,1,1.1,1.37,1.37,0,0,0,1.48-.43,1.2,1.2,0,0,0,0-1.32,1.28,1.28,0,0,0-1.43-.53,1.58,1.58,0,0,0-.79.51,1,1,0,0,0-.22.85.37.37,0,0,0,.46.23.33.33,0,0,0,.25-.4s0,.08,0,0v0a.13.13,0,0,1,0-.06v0c0-.06,0,0,0,0s0-.05,0-.07a.14.14,0,0,1,0-.06,0,0,0,0,1,0,0s0,0,0,0a.47.47,0,0,0,.07-.12s.06-.07,0,0,0,0,0,0a.52.52,0,0,1,.11-.1l0,0,0,0a.11.11,0,0,0,.06,0l.14-.07s0,0,0,0h0l.07,0h.28l.07,0c.06,0-.06,0,0,0l.11.06c-.06,0-.05,0,0,0l0,0,0,0a.08.08,0,0,1,0,0s0,0,0,0,0,0,0,0a.47.47,0,0,1,.06.09s0,.07,0,0,0,0,0,0l0,.11a.07.07,0,0,0,0,.05h0v.18s0-.08,0,0l0,.1s0,0,0,.06,0,0,0,0l-.06.11s0,0,0,0,.05-.05,0,0l0,0,0,0,0,0h0l-.07,0h0s.08,0,0,0l-.07,0-.06,0H143l-.15,0h0l-.08,0-.13-.07h0l-.06,0-.06-.05s-.06-.07,0,0l0,0,0-.06v0s0,0,0,0,0,0,0-.07,0,0,0-.06,0,0,0,0h0a.36.36,0,0,0-.37-.33c-.19,0-.39.15-.37.33Z" transform="translate(-8.18 -45.54)"/><path class="cls-2" d="M197.84,208.88,183,216.42a8.17,8.17,0,0,1-3.19.87,8.35,8.35,0,0,1-4.41-.89l-9.53-4.91-1.09-.55a6.56,6.56,0,0,1-3.72-5.75V180.74l22.33-11.33v25a5.63,5.63,0,0,0,3.21,5l11.29,5.81A2,2,0,0,1,197.84,208.88Z" transform="translate(-8.18 -45.54)"/><path class="cls-27" d="M179.79,217.29a8.08,8.08,0,0,0,3.18-.87l14.87-7.54a2,2,0,0,0,0-3.72l-7.71-4H179.79Z" transform="translate(-8.18 -45.54)"/><path class="cls-27" d="M197.58,203.52l.41.29a2.43,2.43,0,0,1,1.07,2V207h-1.49Z" transform="translate(-8.18 -45.54)"/><path class="cls-29" d="M185.07,171.3v22.48a5.47,5.47,0,0,0,3.11,4.8l9.4,4.94a2,2,0,0,1,0,3.6l-1.07.54-13.34,6.76a8.14,8.14,0,0,1-7.34,0l-9.25-4.86a5.45,5.45,0,0,1-3.11-4.8V182.26Z" transform="translate(-8.18 -45.54)"/><path class="cls-27" d="M185.07,193.78V171.3l-21.61,11v22.48a5.45,5.45,0,0,0,3.11,4.8l21.29-11.14A5.41,5.41,0,0,1,185.07,193.78Z" transform="translate(-8.18 -45.54)"/><path class="cls-2" d="M116.68,221.48l-2.46,1.26v4a9.46,9.46,0,0,1-4.48-1.1l-.19-.1a4.4,4.4,0,0,1-2.25-2.74,2.38,2.38,0,0,1-.13-.76v-5.45Z" transform="translate(-8.18 -45.54)"/><path class="cls-8" d="M223.43,74.43l-.19-.1a9.55,9.55,0,0,0-4.48-1.1h0a3.14,3.14,0,0,0-1.44.34L111.45,127.81a7.51,7.51,0,0,0-4.28,6.61v82.17l9.51,4.89L217.25,170a7.54,7.54,0,0,0,4.28-6.61V78.16h4.28A4.27,4.27,0,0,0,223.43,74.43Z" transform="translate(-8.18 -45.54)"/><path class="cls-9" d="M108.08,131a7.09,7.09,0,0,0-.91,3.43v82.17l9.51,4.89,3.55-1.83v-82Z" transform="translate(-8.18 -45.54)"/><path class="cls-29" d="M111.45,218.79v5.45c0,1.92,2.34,3.13,4.21,2.17l105.87-54.24a7.54,7.54,0,0,0,4.28-6.61V160Z" transform="translate(-8.18 -45.54)"/><path class="cls-3" d="M225.81,77.94c0-1.93-2.34-3.13-4.21-2.17L115.73,130a7.51,7.51,0,0,0-4.28,6.61v82.17L225.81,160" transform="translate(-8.18 -45.54)"/><path class="cls-30" d="M219.67,81.72h0a3.26,3.26,0,0,0-1.39.29l-99.5,51a6.65,6.65,0,0,0-3.79,5.84v70a2,2,0,0,0,.21.88h0a2.61,2.61,0,0,0,3.51,1l99.5-51a6.65,6.65,0,0,0,3.78-5.84v-70A2.33,2.33,0,0,0,219.67,81.72Z" transform="translate(-8.18 -45.54)"/><path class="cls-13" d="M219.67,81.72h0a3.26,3.26,0,0,0-1.39.29l-99.5,51a6.65,6.65,0,0,0-3.79,5.84v70a2,2,0,0,0,.21.88h0a2.61,2.61,0,0,0,3.51,1l99.5-51a6.65,6.65,0,0,0,3.78-5.84v-70A2.33,2.33,0,0,0,219.67,81.72Z" transform="translate(-8.18 -45.54)"/><path class="cls-9" d="M261.3,223.15l-.78.39a5.44,5.44,0,0,0-1.1-.77l-30.36-15.61a9.49,9.49,0,0,0-7.7-.29l-53.6,27.57a3.07,3.07,0,0,0-.4.26l-.93-.46v2h0c.05.75.67,1.53,1.86,2.14L198.68,254a9.46,9.46,0,0,0,7.69.28L260,226.73a2,2,0,0,0,1.31-1.68h0Z" transform="translate(-8.18 -45.54)"/><path class="cls-8" d="M260,224.84l-53.6,27.57a9.5,9.5,0,0,1-7.69-.29L168.31,236.5c-2.28-1.17-2.52-2.94-.55-4L221.36,205a9.53,9.53,0,0,1,7.7.29l30.36,15.62C261.7,222.05,262,223.82,260,224.84Z" transform="translate(-8.18 -45.54)"/><path class="cls-31" d="M253.5,223.87,211.44,245.5a4.62,4.62,0,0,1-3.74-.14l-26.25-13.5c-1.1-.57-1.22-1.43-.26-1.92l42.05-21.63a4.6,4.6,0,0,1,3.75.13l26.24,13.5C254.34,222.51,254.46,223.37,253.5,223.87Z" transform="translate(-8.18 -45.54)"/><path class="cls-9" d="M191.62,240.24c1.37.7,1.37,1.84,0,2.54a6.07,6.07,0,0,1-4.94,0c-1.36-.7-1.36-1.84,0-2.54A6.07,6.07,0,0,1,191.62,240.24Z" transform="translate(-8.18 -45.54)"/><path class="cls-9" d="M197.16,243.73l-3.65,1.87a1.8,1.8,0,0,1-1.45,0h0c-.43-.22-.48-.55-.11-.75l3.65-1.87a1.79,1.79,0,0,1,1.45,0h0C197.48,243.2,197.53,243.53,197.16,243.73Z" transform="translate(-8.18 -45.54)"/><path class="cls-9" d="M200.62,245.51,197,247.39a1.8,1.8,0,0,1-1.45-.06h0c-.42-.22-.47-.55-.1-.74l3.65-1.88a1.8,1.8,0,0,1,1.45,0h0C201,245,201,245.32,200.62,245.51Z" transform="translate(-8.18 -45.54)"/><path class="cls-9" d="M182.93,236.41l-3.65,1.88a1.77,1.77,0,0,1-1.44-.06h0c-.43-.22-.48-.55-.11-.74l3.65-1.88a1.8,1.8,0,0,1,1.45,0h0C183.26,235.89,183.3,236.22,182.93,236.41Z" transform="translate(-8.18 -45.54)"/><path class="cls-9" d="M186.4,238.19l-3.65,1.88a1.8,1.8,0,0,1-1.45,0h0c-.43-.22-.47-.56-.1-.75l3.65-1.88a1.77,1.77,0,0,1,1.44.06h0C186.72,237.67,186.77,238,186.4,238.19Z" transform="translate(-8.18 -45.54)"/><path class="cls-8" d="M218.91,190.48l-6.22-.48-6.23.46,1.57,7.92v.08h0a2.37,2.37,0,0,0,1.33,1.4,8.1,8.1,0,0,0,6.61,0,2.27,2.27,0,0,0,1.36-1.5h0Z" transform="translate(-8.18 -45.54)"/><path class="cls-3" d="M217.1,188c2.44,1.25,2.44,3.29,0,4.54a10.84,10.84,0,0,1-8.82,0c-2.44-1.25-2.44-3.29,0-4.54A10.84,10.84,0,0,1,217.1,188Z" transform="translate(-8.18 -45.54)"/><path class="cls-9" d="M212.69,172.83a1.65,1.65,0,0,0-1.74,1.55v15.3c0,.22.17.45.51.63a3.07,3.07,0,0,0,2.45,0c.34-.18.51-.41.51-.63v-15.3A1.64,1.64,0,0,0,212.69,172.83Z" transform="translate(-8.18 -45.54)"/><path class="cls-2" d="M166.38,66.93h0a2.55,2.55,0,0,0-1,.21L91.86,104.77a4.9,4.9,0,0,0-2.79,4.31v51.7a1.55,1.55,0,0,0,.14.65h0a1.94,1.94,0,0,0,2.6.76l73.47-37.63a4.91,4.91,0,0,0,2.8-4.31V68.55A1.72,1.72,0,0,0,166.38,66.93Z" transform="translate(-8.18 -45.54)"/><path class="cls-2" d="M166.34,67.72a.88.88,0,0,1,.85.83v51.7a4.12,4.12,0,0,1-2.35,3.62L91.37,161.51a1.12,1.12,0,0,1-.47.11,1,1,0,0,1-.87-.5.81.81,0,0,1-.08-.34v-51.7a4.12,4.12,0,0,1,2.35-3.62l73.48-37.64a1.4,1.4,0,0,1,.56-.1m0-.8h0a2.55,2.55,0,0,0-1,.21L91.86,104.77a4.9,4.9,0,0,0-2.79,4.31v51.7a1.55,1.55,0,0,0,.14.65h0a1.87,1.87,0,0,0,1.69,1,2,2,0,0,0,.91-.22l73.47-37.63a4.91,4.91,0,0,0,2.8-4.31V68.55a1.72,1.72,0,0,0-1.7-1.62h0Z" transform="translate(-8.18 -45.54)"/><polygon class="cls-2" points="81.69 116.59 84.27 118.2 84.27 114.47 81.69 116.59"/><polygon class="cls-2" points="159.03 21.63 161.64 23.26 158.42 25.29 159.03 21.63"/><path class="cls-26" d="M168.89,68.5h0a2.55,2.55,0,0,0-1,.21L94.37,106.35a4.88,4.88,0,0,0-2.79,4.3v51.7a1.38,1.38,0,0,0,.15.65h0a1.94,1.94,0,0,0,2.6.77l73.47-37.64a4.91,4.91,0,0,0,2.8-4.31V70.12A1.73,1.73,0,0,0,168.89,68.5Z" transform="translate(-8.18 -45.54)"/><path class="cls-2" d="M168.85,69.29a.88.88,0,0,1,.85.83v51.7a4.15,4.15,0,0,1-2.35,3.63L93.88,163.08a1,1,0,0,1-.47.12,1,1,0,0,1-.87-.51.77.77,0,0,1-.08-.34v-51.7A4.12,4.12,0,0,1,94.81,107L168.29,69.4a1.4,1.4,0,0,1,.56-.11m0-.79h0a2.55,2.55,0,0,0-1,.21L94.37,106.35a4.88,4.88,0,0,0-2.79,4.3v51.7a1.38,1.38,0,0,0,.15.65h0a1.88,1.88,0,0,0,1.69,1,2,2,0,0,0,.91-.22l73.47-37.64a4.91,4.91,0,0,0,2.8-4.31V70.12a1.73,1.73,0,0,0-1.7-1.62h0Z" transform="translate(-8.18 -45.54)"/><path class="cls-7" d="M128.4,125a15.25,15.25,0,0,1,.17-2.11c-5.12,1.57-9.1-.65-9.92-5.58-5.75,4.16-10.09,11.62-10.09,17.89,0,7.16,5.64,10.06,12.6,6.48a24.86,24.86,0,0,0,9.92-10.09C129.41,130.21,128.4,128,128.4,125Z" transform="translate(-8.18 -45.54)"/><path class="cls-12" d="M128.4,125a15.25,15.25,0,0,1,.17-2.11c-5.12,1.57-9.1-.65-9.92-5.58-5.75,4.16-10.09,11.62-10.09,17.89,0,7.16,5.64,10.06,12.6,6.48a24.86,24.86,0,0,0,9.92-10.09C129.41,130.21,128.4,128,128.4,125Z" transform="translate(-8.18 -45.54)"/><path class="cls-7" d="M143.51,104.48c-.81,5.77-4.79,12.09-9.92,15.79a11.75,11.75,0,0,1,.17,1.93,20.08,20.08,0,0,1-2.68,9.35c2.31,1.85,5.89,2,9.92-.11,7-3.58,12.6-12.29,12.6-19.44C153.6,105.72,149.27,102.72,143.51,104.48Z" transform="translate(-8.18 -45.54)"/><path class="cls-32" d="M143.51,104.48c-.81,5.77-4.79,12.09-9.92,15.79a11.75,11.75,0,0,1,.17,1.93,20.08,20.08,0,0,1-2.68,9.35c2.31,1.85,5.89,2,9.92-.11,7-3.58,12.6-12.29,12.6-19.44C153.6,105.72,149.27,102.72,143.51,104.48Z" transform="translate(-8.18 -45.54)"/><path class="cls-7" d="M133.59,120.27a20,20,0,0,1-2.51,1.55,15.66,15.66,0,0,1-2.51,1,15.25,15.25,0,0,0-.17,2.11c0,3,1,5.25,2.68,6.59a20.08,20.08,0,0,0,2.68-9.35A11.75,11.75,0,0,0,133.59,120.27Z" transform="translate(-8.18 -45.54)"/><path class="cls-15" d="M133.59,120.27a20,20,0,0,1-2.51,1.55,15.66,15.66,0,0,1-2.51,1,15.25,15.25,0,0,0-.17,2.11c0,3,1,5.25,2.68,6.59a20.08,20.08,0,0,0,2.68-9.35A11.75,11.75,0,0,0,133.59,120.27Z" transform="translate(-8.18 -45.54)"/><path class="cls-7" d="M131.08,115.61A24.92,24.92,0,0,1,141,105.52a14.87,14.87,0,0,1,2.51-1,15.11,15.11,0,0,0,.17-2.1c0-7.16-5.64-10.06-12.6-6.48s-12.6,12.28-12.6,19.44a11.75,11.75,0,0,0,.17,1.93,18.88,18.88,0,0,1,2.51-1.55C125.19,113.65,128.78,113.76,131.08,115.61Z" transform="translate(-8.18 -45.54)"/><path class="cls-7" d="M128.57,122.85a21.65,21.65,0,0,1,2.51-7.24c-2.3-1.85-5.89-2-9.92.11a18.88,18.88,0,0,0-2.51,1.55C119.47,122.2,123.45,124.42,128.57,122.85Z" transform="translate(-8.18 -45.54)"/><path class="cls-11" d="M128.57,122.85a21.65,21.65,0,0,1,2.51-7.24c-2.3-1.85-5.89-2-9.92.11a18.88,18.88,0,0,0-2.51,1.55C119.47,122.2,123.45,124.42,128.57,122.85Z" transform="translate(-8.18 -45.54)"/><path class="cls-7" d="M131.08,115.61a7.3,7.3,0,0,1,2.51,4.66c5.13-3.7,9.11-10,9.92-15.79a14.87,14.87,0,0,0-2.51,1A24.92,24.92,0,0,0,131.08,115.61Z" transform="translate(-8.18 -45.54)"/><path class="cls-25" d="M131.08,115.61a7.3,7.3,0,0,1,2.51,4.66c5.13-3.7,9.11-10,9.92-15.79a14.87,14.87,0,0,0-2.51,1A24.92,24.92,0,0,0,131.08,115.61Z" transform="translate(-8.18 -45.54)"/><path class="cls-9" d="M131.08,115.61a21.65,21.65,0,0,0-2.51,7.24,15.66,15.66,0,0,0,2.51-1,20,20,0,0,0,2.51-1.55A7.3,7.3,0,0,0,131.08,115.61Z" transform="translate(-8.18 -45.54)"/><path class="cls-2" d="M211.31,108.6h0a2.07,2.07,0,0,0-.85.18l-60.71,31.1a4,4,0,0,0-2.31,3.56v42.72a1.25,1.25,0,0,0,.12.54h0a1.6,1.6,0,0,0,2.14.63l60.72-31.1a4.06,4.06,0,0,0,2.31-3.56V109.94A1.42,1.42,0,0,0,211.31,108.6Z" transform="translate(-8.18 -45.54)"/><path class="cls-2" d="M211.28,109.25a.74.74,0,0,1,.7.69v42.73a3.42,3.42,0,0,1-1.94,3l-60.72,31.1a.87.87,0,0,1-.39.1.8.8,0,0,1-.72-.42.67.67,0,0,1-.06-.28V143.44a3.41,3.41,0,0,1,1.94-3l60.72-31.1a1.36,1.36,0,0,1,.47-.09m0-.65h0a2.07,2.07,0,0,0-.85.18l-60.71,31.1a4,4,0,0,0-2.31,3.56v42.72a1.25,1.25,0,0,0,.12.54h0a1.55,1.55,0,0,0,1.39.81,1.69,1.69,0,0,0,.75-.18l60.72-31.1a4.06,4.06,0,0,0,2.31-3.56V109.94a1.42,1.42,0,0,0-1.4-1.34h0Z" transform="translate(-8.18 -45.54)"/><polygon class="cls-2" points="139.91 141.74 142.04 143.07 142.04 139.99 139.91 141.74"/><polygon class="cls-2" points="203.81 63.27 205.97 64.61 203.31 66.29 203.81 63.27"/><path class="cls-26" d="M213.38,109.9h0a2,2,0,0,0-.85.18l-60.72,31.1a4,4,0,0,0-2.31,3.56v42.72a1.23,1.23,0,0,0,.13.54h0a1.61,1.61,0,0,0,2.15.63l60.72-31.1a4,4,0,0,0,2.3-3.56V111.24A1.41,1.41,0,0,0,213.38,109.9Z" transform="translate(-8.18 -45.54)"/><path class="cls-2" d="M213.35,110.55a.74.74,0,0,1,.7.69V154a3.4,3.4,0,0,1-1.94,3l-60.72,31.1a.86.86,0,0,1-.38.1.8.8,0,0,1-.72-.42.68.68,0,0,1-.07-.28V144.74a3.44,3.44,0,0,1,1.94-3l60.72-31.1a1.4,1.4,0,0,1,.47-.09m0-.65h0a2,2,0,0,0-.85.18l-60.72,31.1a4,4,0,0,0-2.31,3.56v42.72a1.23,1.23,0,0,0,.13.54h0a1.55,1.55,0,0,0,1.4.81,1.69,1.69,0,0,0,.75-.18l60.72-31.1a4,4,0,0,0,2.3-3.56V111.24a1.41,1.41,0,0,0-1.4-1.34h0Z" transform="translate(-8.18 -45.54)"/><polygon class="cls-33" points="199.02 107.06 153.22 130.61 166.75 99.25 176.12 109.16 185.71 97.01 199.02 107.06"/><polygon class="cls-23" points="199.02 107.06 153.22 130.61 166.75 99.25 176.12 109.16 185.71 97.01 199.02 107.06"/><path class="cls-33" d="M191.31,133a8.09,8.09,0,0,1-4.17,6.44c-2.31,1.19-4.18.23-4.18-2.15a8.08,8.08,0,0,1,4.18-6.44C189.44,129.69,191.31,130.65,191.31,133Z" transform="translate(-8.18 -45.54)"/><path class="cls-9" d="M301.46,256.84,315.19,322a2.18,2.18,0,0,0,2.21,1.63,2.1,2.1,0,0,0,2.22-2.29L309.5,261Z" transform="translate(-8.18 -45.54)"/><path class="cls-3" d="M327.89,299.09l-14,76.08a2.59,2.59,0,0,1-2.63,2h0a2.5,2.5,0,0,1-2.65-2.64L318.43,296Z" transform="translate(-8.18 -45.54)"/><path class="cls-3" d="M279.58,273.5l-14,76.08a2.6,2.6,0,0,1-2.63,2h0a2.49,2.49,0,0,1-2.65-2.64l9.82-78.48Z" transform="translate(-8.18 -45.54)"/><path class="cls-9" d="M350.31,281.3l13.81,65.56a2.18,2.18,0,0,0,2.21,1.63,2.1,2.1,0,0,0,2.22-2.29l-10.2-60.76Z" transform="translate(-8.18 -45.54)"/><path class="cls-7" d="M304.5,251.88c6.44-2.56,10.86-8,11.56-14.22,2.23-20,10.12-61.1,36.86-47.41,33,16.9,21.19,66,16.39,81.72a20.71,20.71,0,0,1-6.07,9.4c-6,5.36-18.31,14.57-39.3,22.42a13.76,13.76,0,0,1-8.13.43c-10.43-2.65-37.69-10.78-51.27-26.26a3.92,3.92,0,0,1,.78-5.91C270.82,268.15,283.26,260.32,304.5,251.88Z" transform="translate(-8.18 -45.54)"/><path class="cls-32" d="M304.5,251.88c6.44-2.56,10.86-8,11.56-14.22,2.23-20,10.12-61.1,36.86-47.41,33,16.9,21.19,66,16.39,81.72a20.71,20.71,0,0,1-6.07,9.4c-6,5.36-18.31,14.57-39.3,22.42a13.76,13.76,0,0,1-8.13.43c-10.43-2.65-37.69-10.78-51.27-26.26a3.92,3.92,0,0,1,.78-5.91C270.82,268.15,283.26,260.32,304.5,251.88Z" transform="translate(-8.18 -45.54)"/><path class="cls-34" d="M263.55,275.15a3.87,3.87,0,0,0,1,2.81c.72.83,1.49,1.63,2.29,2.42h0c.44.43.89.85,1.34,1.26l0,0c.45.41.91.82,1.38,1.22l0,0c.47.4.95.8,1.44,1.18l0,0c.49.39,1,.78,1.5,1.16h0c7.7,5.77,17.05,10.15,25.41,13.32h0l1.55.58.16.06,1.42.51.25.09,1.33.46.3.1,1.24.42.36.12,1.14.37.42.13,1,.34.44.13,1,.3.47.14.89.26.5.15.79.23.54.15.69.19.58.16.58.16.71.19.36.09,1,.26a13.76,13.76,0,0,0,8.13-.43c21-7.85,33.34-17.06,39.3-22.42a20.71,20.71,0,0,0,6.07-9.4c4.8-15.73,16.62-64.82-16.39-81.72-.59-.3-1.16-.56-1.73-.81l-.37-.16c-.56-.24-1.11-.45-1.65-.64l-.16,0q-.78-.26-1.53-.45l-.23-.06a16.26,16.26,0,0,0-1.6-.33l-.13,0a17.31,17.31,0,0,0-3.17-.2h-.06a14.66,14.66,0,0,0-3,.42h0a21.8,21.8,0,0,1,18.09,1.28c33,16.91,21.19,66,16.4,81.73l-.82,2.7a25.65,25.65,0,0,1-10.3,13.72l-8.56,5.83h0A139.83,139.83,0,0,1,324,308.49a13.74,13.74,0,0,1-8.15.45c-10.43-2.65-37.69-10.78-51.28-26.26a3.87,3.87,0,0,1-1-2.3h0v-5.23Z" transform="translate(-8.18 -45.54)"/><path class="cls-15" d="M263.55,275.15a3.87,3.87,0,0,0,1,2.81c.72.83,1.49,1.63,2.29,2.42h0c.44.43.89.85,1.34,1.26l0,0c.45.41.91.82,1.38,1.22l0,0c.47.4.95.8,1.44,1.18l0,0c.49.39,1,.78,1.5,1.16h0c7.7,5.77,17.05,10.15,25.41,13.32h0l1.55.58.16.06,1.42.51.25.09,1.33.46.3.1,1.24.42.36.12,1.14.37.42.13,1,.34.44.13,1,.3.47.14.89.26.5.15.79.23.54.15.69.19.58.16.58.16.71.19.36.09,1,.26a13.76,13.76,0,0,0,8.13-.43c21-7.85,33.34-17.06,39.3-22.42a20.71,20.71,0,0,0,6.07-9.4c4.8-15.73,16.62-64.82-16.39-81.72-.59-.3-1.16-.56-1.73-.81l-.37-.16c-.56-.24-1.11-.45-1.65-.64l-.16,0q-.78-.26-1.53-.45l-.23-.06a16.26,16.26,0,0,0-1.6-.33l-.13,0a17.31,17.31,0,0,0-3.17-.2h-.06a14.66,14.66,0,0,0-3,.42h0a21.8,21.8,0,0,1,18.09,1.28c33,16.91,21.19,66,16.4,81.73l-.82,2.7a25.65,25.65,0,0,1-10.3,13.72l-8.56,5.83h0A139.83,139.83,0,0,1,324,308.49a13.74,13.74,0,0,1-8.15.45c-10.43-2.65-37.69-10.78-51.28-26.26a3.87,3.87,0,0,1-1-2.3h0v-5.23Z" transform="translate(-8.18 -45.54)"/><path class="cls-35" d="M364,157.85s7.32-6.76,15.7-2.49,4.41,18,2,21.85-6.88,17.84,6.21,15c0,0-4.48,5.71-13.8,4.17s-11.08-11.52-8.6-19.76-1.51-12-1.51-12Z" transform="translate(-8.18 -45.54)"/><path class="cls-36" d="M325.7,191s-9.72-.9-13.57.64-28.35,32.49-28.35,32.49,9.18,2.59,24-8.37S325.7,191,325.7,191Z" transform="translate(-8.18 -45.54)"/><path class="cls-37" d="M358,222.71,359.19,199l-12.25-5.44L332.32,191l-6.62,0s-12.91,9.77-16.9,19.26,5,16.5,5,16.5c0,8-5,16.7-5,16.7s8.65,11.26,27.68,10A53.2,53.2,0,0,0,354,248.9a84.7,84.7,0,0,0-3.36-12.28Z" transform="translate(-8.18 -45.54)"/><path class="cls-13" d="M358,222.71,359.19,199l-12.25-5.44L332.32,191l-6.62,0s-12.91,9.77-16.9,19.26,5,16.5,5,16.5c0,8-5,16.7-5,16.7s8.65,11.26,27.68,10A53.2,53.2,0,0,0,354,248.9a84.7,84.7,0,0,0-3.36-12.28Z" transform="translate(-8.18 -45.54)"/><path class="cls-35" d="M333.73,143.14s-9.94-4.72-14.19,4.52,2,19.65-10.43,21.18c0,0,6.08,6.15,13.93-2.66-1.11,1.25.2,5.33.69,6.67a14.8,14.8,0,0,0,4.59,6.34,24.2,24.2,0,0,0,8.26,4,22.3,22.3,0,0,0,6.83,1.11,28.22,28.22,0,0,0,11.07-3.09,19.35,19.35,0,0,0,7.79-7.3A24.28,24.28,0,0,0,364.83,156a17.81,17.81,0,0,0-5.45-9C352.38,141.44,342.44,141.18,333.73,143.14Z" transform="translate(-8.18 -45.54)"/><path class="cls-36" d="M333.75,182.93,332.32,191s-11,8-2,10,16.62-7.51,16.62-7.51l2.82-16.05Z" transform="translate(-8.18 -45.54)"/><path class="cls-38" d="M350.07,174.77l-.08.47c-5.3,11-14.25,12.37-17.1,12.57l3-17.83,14.22,1.92Z" transform="translate(-8.18 -45.54)"/><path class="cls-36" d="M341,147.24c-5.5-.36-17.41,1.6-19.81,14.32s-1.93,22.75,5.42,24.19,25-2.22,28.63-18.65S346.33,147.59,341,147.24Z" transform="translate(-8.18 -45.54)"/><polygon class="cls-38" points="322.1 122.54 320.91 130.04 316.2 128.07 322.1 122.54"/><path class="cls-35" d="M337.69,168.91a1.71,1.71,0,0,1-2,1.31,1.59,1.59,0,0,1-1.47-1.75,1.72,1.72,0,0,1,2-1.31A1.58,1.58,0,0,1,337.69,168.91Z" transform="translate(-8.18 -45.54)"/><path class="cls-35" d="M326.58,166.41a1.7,1.7,0,0,1-2,1.31,1.59,1.59,0,0,1-1.47-1.74,1.72,1.72,0,0,1,2-1.31A1.57,1.57,0,0,1,326.58,166.41Z" transform="translate(-8.18 -45.54)"/><path class="cls-39" d="M323.29,162.75l3.63-1.35a2.36,2.36,0,0,0-2.49-.8A2,2,0,0,0,323.29,162.75Z" transform="translate(-8.18 -45.54)"/><path class="cls-38" d="M330.18,177.44a56.05,56.05,0,0,0,5.44-1.86s.33,1-2.09,1.75S330.18,177.44,330.18,177.44Z" transform="translate(-8.18 -45.54)"/><path class="cls-35" d="M323.29,162.75l3.63-1.35a2.36,2.36,0,0,0-2.49-.8A2,2,0,0,0,323.29,162.75Z" transform="translate(-8.18 -45.54)"/><path class="cls-35" d="M346.24,169.39s-1.28,5.32,2.19,5.8l6.79.95,1.8-10.23c2-11.46-5.65-24.81-28.09-18.23C328.93,147.68,325.23,162.85,346.24,169.39Z" transform="translate(-8.18 -45.54)"/><path class="cls-36" d="M348.5,174.56a7.48,7.48,0,0,1,1.35-3.29,4.22,4.22,0,0,1,4-1.92c4.05.5,3.95,4.05,3.66,5.27-.75,3.22-4.35,6.28-9.85,5.6Z" transform="translate(-8.18 -45.54)"/><path class="cls-10" d="M240.65,354s-11.22,7.81-12.37,10,1.78,8.43,17.66,6.17c4.43-.64,10.82-4.67,14-8.54s9.66-6.55,10.64-7.92c1.4-2,.61-12.22-1.84-12.4C264.79,341,240.65,354,240.65,354Z" transform="translate(-8.18 -45.54)"/><path class="cls-36" d="M262.44,278.66s-7.05,51.66-8.21,59.27c-.55,3.56-11.61,14.2-15.44,17.78a1.32,1.32,0,0,0,.25,2.14l.33.21a13.71,13.71,0,0,0,15.08-.6c3.12-2.3,6.36-5.07,8-7.64a27.22,27.22,0,0,1,5.35-6.51,2.43,2.43,0,0,0,.94-1.69c.2-2.53.85-8.87,2.47-12.43,2.06-4.5,12.58-22.68,12.58-39.12Z" transform="translate(-8.18 -45.54)"/><path class="cls-38" d="M283.78,290.07l-.08,0-4.74-.47c1.83,11.35-1.74,27-1.74,27.06C280.48,309,283.78,299.28,283.78,290.07Z" transform="translate(-8.18 -45.54)"/><path class="cls-10" d="M261.54,364.86s-11.21,7.8-12.36,10S251,383.3,266.83,381c4.44-.63,10.83-4.67,14-8.54s9.67-6.55,10.65-7.92c1.39-2,.61-12.22-1.85-12.4C285.69,351.89,261.54,364.86,261.54,364.86Z" transform="translate(-8.18 -45.54)"/><path class="cls-36" d="M283.33,289.56s-7,51.66-8.21,59.27c-.54,3.56-11.61,14.2-15.43,17.78a1.33,1.33,0,0,0,.24,2.15l.33.2a13.71,13.71,0,0,0,15.08-.6c3.12-2.3,6.36-5.07,8-7.64a27,27,0,0,1,5.36-6.5,2.46,2.46,0,0,0,.93-1.7c.2-2.53.85-8.87,2.48-12.42,2.06-4.51,12.57-22.69,12.57-39.13Z" transform="translate(-8.18 -45.54)"/><path class="cls-9" d="M308.8,243.46s-33.67,16.36-40.56,23.62-9.84,24-9.84,24c11.76,13.52,47.67,15,47.67,15,3-8.82,10.45-10.37,22-15.35s24.48-15.06,26.57-25.93c.95-5,.36-10.84-.63-15.94a53.2,53.2,0,0,1-17.56,4.57C317.45,254.72,308.8,243.46,308.8,243.46Z" transform="translate(-8.18 -45.54)"/><path class="cls-10" d="M327.3,228.16s14.77,3.55,21.16-5.87C348.46,222.29,343.27,234.56,327.3,228.16Z" transform="translate(-8.18 -45.54)"/><path class="cls-24" d="M348.46,222.29s-5.19,12.27-21.16,5.87c0,0,14.77,3.55,21.16-5.87" transform="translate(-8.18 -45.54)"/><path class="cls-36" d="M357.59,198.28s-11.2,4.36-.57,26.36c7.14,14.79,8.34,18.82,8.34,18.82s-3.73,1.66-25,15.77l6.39,9.48s37.83-12,37-21.36-11.85-33.42-13.58-36.86S367.56,202.19,357.59,198.28Z" transform="translate(-8.18 -45.54)"/><path class="cls-36" d="M283.78,224.13c3.66,1.4,11.44-4.66,17.92-12.65a131.86,131.86,0,0,0,10.38-14.62s8.39,1,13.62-5.86c.84-1.1-5.92-8.45-5.92-8.45l3.57-1.42s5.68-1.38,5.33-3.63c-.15-1-9.52.77-13.05,1.47a4.27,4.27,0,0,0-2.22,1.17l-10.47,10.6s-10.73,8.16-16.5,13C277.57,211.17,276.15,221.21,283.78,224.13Z" transform="translate(-8.18 -45.54)"/><path class="cls-38" d="M319.78,182.85a.35.35,0,0,1-.3-.18.29.29,0,0,1,.17-.39l3.56-1.42c1.54-.38,5.31-1.66,5.15-3.27-.22-.1-1.44-.32-8,.81a.32.32,0,0,1-.39-.23.3.3,0,0,1,.26-.35c7.62-1.31,8.32-.86,8.58-.69a.47.47,0,0,1,.24.33c.38,2.48-5.33,3.9-5.57,3.95l-3.52,1.41A.35.35,0,0,1,319.78,182.85Z" transform="translate(-8.18 -45.54)"/><path class="cls-38" d="M297.64,216.35a.33.33,0,0,1-.21-.07.28.28,0,0,1,0-.42c1.38-1.41,2.74-2.94,4-4.55a133,133,0,0,0,10.36-14.59l.1-.18.23,0a16.82,16.82,0,0,0,7.52-1.26.34.34,0,0,1,.44.14.28.28,0,0,1-.15.39,17.24,17.24,0,0,1-7.66,1.33A136.52,136.52,0,0,1,302,211.66c-1.32,1.62-2.69,3.16-4.07,4.59A.35.35,0,0,1,297.64,216.35Z" transform="translate(-8.18 -45.54)"/><path class="cls-36" d="M341.45,259.31a32.69,32.69,0,0,0-9.5-.08,19.17,19.17,0,0,1-5.81.12c-1.79-.22-4.43-.6-3.26,1.85,1,2.15,4.43,2.65,6.68,2.85,0,0-.8,2.53-6.92,2.37s-7.81.08-7.37,1.82,6.43,8,12.62,8.09c4.63.07,12.94-2.8,18.84-7.62Z" transform="translate(-8.18 -45.54)"/><path class="cls-26" d="M343.14,88.36c1.28-9.36-6.2-17.87-16.71-19-.28,0-.57,0-.85,0,.07-.31.13-.62.18-.94.88-6.44-4.27-12.3-11.5-13.09a14.64,14.64,0,0,0-2.19-.06,21.18,21.18,0,0,0-15.26-8.72c-8.48-.92-16.4,2.84-20.49,9h0c-10.5-1.14-20,5.52-21.33,14.88a15.35,15.35,0,0,0,1.78,9.48c-5.05,1.21-9,5-9.7,9.93-.88,6.44,4.27,12.3,11.51,13.09a14.78,14.78,0,0,0,4.37-.19c.92,7.34,7.38,13.44,16,14.37a20,20,0,0,0,12.26-2.57,20.67,20.67,0,0,0,13.24,6.59c11,1.19,21-5.78,22.32-15.57a16.51,16.51,0,0,0,.14-2.32C335.2,102.12,342.07,96.19,343.14,88.36Z" transform="translate(-8.18 -45.54)"/><path class="cls-2" d="M306.84,122a22.25,22.25,0,0,1-2.57-.14A21.62,21.62,0,0,1,291,115.55a21.17,21.17,0,0,1-12.18,2.31c-8.55-.93-15.27-6.72-16.64-14.22a15.8,15.8,0,0,1-3.7,0c-7.73-.84-13.25-7.12-12.31-14,.66-4.8,4.28-8.76,9.34-10.34A16,16,0,0,1,254,70.27a17.44,17.44,0,0,1,7.55-11.92,21.73,21.73,0,0,1,14.25-3.73c4.49-6.35,12.69-9.85,21.09-8.94a22.11,22.11,0,0,1,15.63,8.7,15.08,15.08,0,0,1,1.81.08c7.72.84,13.24,7.12,12.3,14,0,0,0,.06,0,.1,10.94,1.23,18.73,10.14,17.4,19.9h0c-1.06,7.77-7.71,14-16.3,15.42,0,.59-.07,1.16-.14,1.72a18.21,18.21,0,0,1-7.89,12.45A22.44,22.44,0,0,1,306.84,122Zm-15.7-8.36a1,1,0,0,1,.71.31,19.72,19.72,0,0,0,12.64,6.29,20.68,20.68,0,0,0,14.1-3.5,16.57,16.57,0,0,0,7.2-11.35,16.06,16.06,0,0,0,.13-2.22.86.86,0,0,1,.79-.82c8.14-1,14.53-6.84,15.52-14.11,1.22-8.89-5.92-17-15.91-18.09l-.48,0-.33,0a.91.91,0,0,1-.67-.32.73.73,0,0,1-.16-.65c.06-.29.13-.58.17-.88.82-6-4-11.45-10.7-12.17a13.45,13.45,0,0,0-2-.06,1,1,0,0,1-.82-.39A20.24,20.24,0,0,0,296.7,47.3c-7.85-.85-15.55,2.53-19.59,8.61a.93.93,0,0,1-.92.39,19.73,19.73,0,0,0-13.47,3.34,15.79,15.79,0,0,0-6.86,10.83,14.67,14.67,0,0,0,1.69,9,.73.73,0,0,1,0,.69.88.88,0,0,1-.6.45c-4.87,1.16-8.41,4.79-9,9.24-.81,6,4,11.45,10.71,12.18a14,14,0,0,0,4.07-.18,1,1,0,0,1,.73.14.8.8,0,0,1,.38.57c.89,7.16,7.13,12.78,15.16,13.65a19.11,19.11,0,0,0,11.64-2.44A1,1,0,0,1,291.14,113.66Zm52-25.3h0Z" transform="translate(-8.18 -45.54)"/><path class="cls-9" d="M295.07,107.2h-.34a4.21,4.21,0,0,1-4.46-3.91l0-4.24,9.18-.07,0,4.24A4.2,4.2,0,0,1,295.07,107.2Z" transform="translate(-8.18 -45.54)"/><path class="cls-8" d="M302,100.3c0,1.93-3.18,3.51-7.14,3.54s-7.19-1.5-7.21-3.43,3.18-3.51,7.14-3.54S302,98.38,302,100.3Z" transform="translate(-8.18 -45.54)"/><path class="cls-3" d="M302,98.27c0,1.92-3.18,3.51-7.14,3.54s-7.19-1.51-7.21-3.43,3.18-3.51,7.14-3.54S302,96.34,302,98.27Z" transform="translate(-8.18 -45.54)"/><path class="cls-7" d="M309.91,80.36C309.84,72.34,302,66,292.78,67c-7,.75-12.67,5.88-13.33,12.17-.57,5.36,2.34,10.14,6.95,12.78a5,5,0,0,1,2.72,4.29h0a3.6,3.6,0,0,0,3.81,3.34l1.9,0h1.89a3.59,3.59,0,0,0,3.75-3.39V96A4.81,4.81,0,0,1,303,91.86,13.26,13.26,0,0,0,309.91,80.36Z" transform="translate(-8.18 -45.54)"/><path class="cls-9" d="M295.6,99.56s-.11-1.27-.11-12c0-.74,0-1.45.05-2.11-.38,0-.78,0-1.21.06l-.92,0a22.68,22.68,0,0,1,.3,3.48l.1,10.63h-.65l-.11-10.64a19.85,19.85,0,0,0-.32-3.53c-3.58-.36-5.24-2-5.26-3.59A1.76,1.76,0,0,1,289.28,80h0c1.89,0,3.31,1.83,4,4.9.33,0,.68,0,1,0s.85,0,1.24-.06c.27-4.13,1.23-6.52,2.86-7.11a2.61,2.61,0,0,1,2.6.62,3.38,3.38,0,0,1,.42,3.8c-.49,1.05-1.8,2.73-5.26,3.2,0,.66-.05,1.39-.05,2.18,0,10.68.11,11.95.11,12Zm-6.3-19h0a1.17,1.17,0,0,0-1.17,1.26c0,1.29,1.43,2.65,4.48,3C292,82.16,290.79,80.53,289.3,80.53Zm9.88-2.38a1.52,1.52,0,0,0-.51.09c-.81.3-2.1,1.57-2.44,6.5,3-.46,4.19-1.91,4.62-2.83a2.88,2.88,0,0,0-.28-3.17A2.2,2.2,0,0,0,299.18,78.15Z" transform="translate(-8.18 -45.54)"/><path class="cls-23" d="M303.91,74c-.56.88-2.29,1-3.87.15s-2.39-2.15-1.84-3,2.29-1,3.87-.15S304.47,73.09,303.91,74Z" transform="translate(-8.18 -45.54)"/><path class="cls-23" d="M307.31,77.55a1.52,1.52,0,0,1-.93,2,1.7,1.7,0,0,1-1.77-1.45,1.52,1.52,0,0,1,.93-2A1.71,1.71,0,0,1,307.31,77.55Z" transform="translate(-8.18 -45.54)"/><path class="cls-7" d="M294,64.39a.62.62,0,0,1-.65-.56l-.26-6.36a.61.61,0,0,1,.62-.6.63.63,0,0,1,.68.56l.26,6.36a.62.62,0,0,1-.63.6Z" transform="translate(-8.18 -45.54)"/><path class="cls-7" d="M278.73,71.13a.77.77,0,0,1-.3-.06l-6.31-3a.54.54,0,0,1-.27-.78.68.68,0,0,1,.88-.24L279,70a.55.55,0,0,1,.27.79A.69.69,0,0,1,278.73,71.13Z" transform="translate(-8.18 -45.54)"/><path class="cls-7" d="M308.62,70.17a.71.71,0,0,1-.56-.27.55.55,0,0,1,.21-.8l6.07-3.36a.69.69,0,0,1,.9.19.53.53,0,0,1-.21.79L309,70.08A.72.72,0,0,1,308.62,70.17Z" transform="translate(-8.18 -45.54)"/><path class="cls-26" d="M333,115.72c-.65,4.79-5.54,8.2-10.92,7.62s-9.2-4.94-8.55-9.73,5.55-8.2,10.92-7.61S333.66,110.93,333,115.72Z" transform="translate(-8.18 -45.54)"/><path class="cls-2" d="M323.29,124.22a11.67,11.67,0,0,1-1.32-.07,11,11,0,0,1-7.15-3.59,8.81,8.81,0,0,1-2.2-7c.72-5.23,6.07-9,11.94-8.33a11,11,0,0,1,7.15,3.6,8.73,8.73,0,0,1,2.2,7h0a9.24,9.24,0,0,1-4,6.37A11.51,11.51,0,0,1,323.29,124.22Zm0-17.47c-4.42,0-8.27,3-8.82,7a7.27,7.27,0,0,0,1.83,5.84,9.09,9.09,0,0,0,5.92,3,9.64,9.64,0,0,0,6.56-1.63,7.66,7.66,0,0,0,3.34-5.27h0a7.26,7.26,0,0,0-1.82-5.84,9.11,9.11,0,0,0-5.93-3A9.77,9.77,0,0,0,323.26,106.75Z" transform="translate(-8.18 -45.54)"/><path class="cls-26" d="M341.57,131a3.89,3.89,0,1,1-3.86-3.44A3.67,3.67,0,0,1,341.57,131Z" transform="translate(-8.18 -45.54)"/><path class="cls-2" d="M337.71,135.26a4.29,4.29,0,1,1,4.78-4.27A4.55,4.55,0,0,1,337.71,135.26Zm0-6.89a2.64,2.64,0,1,0,3,2.62A2.8,2.8,0,0,0,337.71,128.37Z" transform="translate(-8.18 -45.54)"/><path class="cls-40" d="M213.19,220.27a7.49,7.49,0,0,0-2,9.13c1.57,3.25,5.48,5.12,9.34,5.24s7.91-1.73,9.72-4.9a6,6,0,0,0,.54-5,8.46,8.46,0,0,0-3.56-4.19,14.5,14.5,0,0,0-7.4-1.93c-2.23,0-4.92.14-6.46,1.77-.3.32.22.79.52.47,1.27-1.35,3.38-1.55,5.23-1.58a15.52,15.52,0,0,1,6.42,1.13c3.37,1.5,5.76,4.83,4.47,8.2-1.18,3.09-4.76,5.17-8.33,5.39s-7.33-1.13-9.26-3.87a6.92,6.92,0,0,1,1.27-9.36c.35-.28-.17-.75-.52-.46Z" transform="translate(-8.18 -45.54)"/><path class="cls-40" d="M218.36,230a6.85,6.85,0,0,0,5.12-.69,4.38,4.38,0,0,0,2.19-4,3.79,3.79,0,0,0-1-2.39c-.3-.33-.82.14-.52.46a3.44,3.44,0,0,1-.17,4.67,5.72,5.72,0,0,1-5.38,1.28.34.34,0,1,0-.2.64Z" transform="translate(-8.18 -45.54)"/><path class="cls-40" d="M211.28,231.52a7.51,7.51,0,0,1-5.06-3.33,2.09,2.09,0,0,1-.08-2.41c.88-.95,2.35-.14,2.93.65a2.59,2.59,0,0,1,.59,1.18c0,.68-1.22-.3-1.45-.51a5,5,0,0,1-1.59-2.53,3.4,3.4,0,0,1,2.77-4.38c.92-.1,2.16.2,2.45,1.09.15.48-.13,1-.77.69a1.88,1.88,0,0,1-.83-1.26,3.38,3.38,0,0,1,2.94-4,4.36,4.36,0,0,1,2.84.57c.31.19,1.14.76.77,1.13-.55.54-1.14-.33-1.2-.74a2.18,2.18,0,0,1,1.65-2.13,4.16,4.16,0,0,1,3.3.5,4.65,4.65,0,0,1,1.5,1.19c.45.66-.47,1.08-1,.65-1.08-.82.08-2,1.11-2.17a5.84,5.84,0,0,1,3.8,1.21,11.7,11.7,0,0,1,2.91,2.5c.29.33.93,0,.64-.34a13.44,13.44,0,0,0-3.89-3.14c-1.36-.73-3.13-1.35-4.62-.52a1.76,1.76,0,0,0-.54,2.87c.88.81,2.82.32,2.46-1a3.3,3.3,0,0,0-1.44-1.52,6.22,6.22,0,0,0-2.31-1,3.86,3.86,0,0,0-3.83,1.31c-.69.92-.71,2.68.75,3a1.37,1.37,0,0,0,1.46-.55c.33-.58-.16-1.17-.63-1.55-2.21-1.82-5.9-1.18-7.08,1.3a3.42,3.42,0,0,0,.29,3.64,1.69,1.69,0,0,0,1.77.62,1.11,1.11,0,0,0,.75-1.12c0-1.27-1.47-2-2.75-2a4,4,0,0,0-3.53,1.88,4.51,4.51,0,0,0-.18,4.09,6.05,6.05,0,0,0,1.17,1.74,4.53,4.53,0,0,0,1.88,1.29.87.87,0,0,0,1.2-.81,3.43,3.43,0,0,0-.86-1.81c-.84-1-2.58-1.69-3.78-.72-1,.82-.78,2.23-.26,3.22a7.55,7.55,0,0,0,3.36,3,9.27,9.27,0,0,0,2.21.74c.47.09.66-.54.2-.64Z" transform="translate(-8.18 -45.54)"/><path class="cls-40" d="M216.21,226.05a.36.36,0,0,1-.08.12c.06,0,0,0,0,0l-.05,0-.1.08s-.07.07,0,0l-.08.05-.14.07-.05,0h0a.38.38,0,0,1-.15,0l-.17,0c-.05,0,.1,0,0,0h-.23s-.07,0-.07,0,.07,0,0,0l-.16,0-.07,0c.06.05,0,0,0,0l-.11-.06h0l0,0,0,0c-.07-.07,0,0,0,0a.16.16,0,0,1-.06-.08s0,0,0-.05v0s0,0,0,0,0-.09,0-.12l0-.12c0,.08,0,0,0,0v-.16s0,0,0-.06,0,.05,0,0l0-.13,0,0s0,0,0,0,0-.07.06-.1l0-.05s0,0,0,0l.09-.09.05,0c-.05,0-.05,0,0,0l.11-.05s-.09,0,0,0l.07,0,.09,0c-.09,0,0,0,.06,0h.09c.1,0-.07,0,0,0l.21.05c.09,0-.06,0,0,0l.11.05.16.1,0,0,.11.07.14.13.16.15.06.07s0,0,0,0l0,.05a.42.42,0,0,0,.51.12.32.32,0,0,0,.13-.45,2.55,2.55,0,0,0-1.55-1,1.29,1.29,0,0,0-1.38,1.94,1.56,1.56,0,0,0,1.36.65,2,2,0,0,0,1.57-.82.32.32,0,0,0-.13-.45.41.41,0,0,0-.51.11Z" transform="translate(-8.18 -45.54)"/><path class="cls-40" d="M218,222.37a1.33,1.33,0,0,0,1,1.1,1.36,1.36,0,0,0,1.47-.43,1.22,1.22,0,0,0,.05-1.32,1.28,1.28,0,0,0-1.43-.53,1.52,1.52,0,0,0-.8.52,1,1,0,0,0-.21.85.37.37,0,0,0,.45.23.34.34,0,0,0,.26-.41v0a.17.17,0,0,1,0-.07s0,0,0-.06,0,0,0,0,0,0,0,0a1.25,1.25,0,0,0,.08-.12s.06-.07,0,0,0,0,0,0l.11-.1,0,0,0,0,.06,0,.13-.07,0,0h0l.07,0h.28l.07,0c.06,0-.06,0,0,0l.12.06c-.06,0-.06,0,0,0l0,0,0,0s0,0,0,0h0l.06.1s0,.06,0,0,0,0,0,0l0,.11a.11.11,0,0,1,0,.05c0-.09,0,0,0,0a.24.24,0,0,1,0,.12v.06c0,.05,0-.08,0,0a.61.61,0,0,1,0,.11s0,0,0,0,0,0,0,0a.61.61,0,0,1-.07.1l0,0,0,0,0,0a.08.08,0,0,0,0,0s-.08.05,0,0,0,0,0,0l-.07,0h0l-.06,0h-.1s.09,0,0,0h-.2l-.15,0h0l-.07,0-.13-.07c-.07,0,0,0,0,0l-.06,0-.06-.05s-.06-.07,0,0,0,0,0,0l0-.06v0s0,0,0,0,0,0,0-.06a.64.64,0,0,0,0-.07h0c0,.06,0,0,0,0a.36.36,0,0,0-.37-.33c-.19,0-.38.15-.37.33Z" transform="translate(-8.18 -45.54)"/></svg>