<svg id="Layer_4" data-name="Layer 4" xmlns="http://www.w3.org/2000/svg" viewBox="0 0 404.44 408.85"><defs><style>.cls-1{fill:#e1e1e1;}.cls-2{fill:#f5f5f5;}.cls-3{fill:#fff;}.cls-4{fill:#ececec;}.cls-5{fill:#1a2e35;}.cls-6{fill:#8c8c8c;}.cls-7{fill:#1e1e1e;}.cls-8{fill:#010c11;}.cls-9{fill:#fafafa;}.cls-10{fill:#636363;}.cls-11{fill:#f4f4f4;}.cls-12{fill:#3c6652;}.cls-13{fill:#375a64;}.cls-14{fill:#ffbf9d;}.cls-15{fill:#ff9a6c;}.cls-16{opacity:0.6;}.cls-17{fill:#686868;}.cls-18{opacity:0.3;}</style></defs><rect class="cls-1" x="6.11" y="125.63" width="40.99" height="42.73"/><rect class="cls-2" x="3.34" y="125.63" width="40.99" height="42.73"/><path class="cls-1" d="M52.6,199.11h-41V156.35h41Zm-41,0h41v-42.7h-41Z" transform="translate(-8.25 -30.73)"/><rect class="cls-3" x="8.85" y="131.37" width="29.97" height="31.24"/><path class="cls-1" d="M17.1,193.56a4.62,4.62,0,0,1-.74.86c-.48.5-1.15,1.19-1.9,1.93s-1.45,1.4-2,1.87a4.27,4.27,0,0,1-.87.72,5.41,5.41,0,0,1,.74-.85c.48-.51,1.15-1.19,1.91-1.94s1.45-1.41,2-1.87A4.79,4.79,0,0,1,17.1,193.56Z" transform="translate(-8.25 -30.73)"/><path class="cls-1" d="M47.07,193.48a4.74,4.74,0,0,1,.86.74c.51.48,1.19,1.15,1.94,1.91s1.4,1.44,1.87,2a4.27,4.27,0,0,1,.72.87,4.8,4.8,0,0,1-.85-.74c-.51-.47-1.19-1.15-1.94-1.91s-1.41-1.45-1.88-2A5.41,5.41,0,0,1,47.07,193.48Z" transform="translate(-8.25 -30.73)"/><path class="cls-1" d="M47,162.19a5.17,5.17,0,0,1,.74-.86c.48-.51,1.15-1.19,1.91-1.93s1.44-1.41,2-1.88a5.41,5.41,0,0,1,.86-.72,4.29,4.29,0,0,1-.73.86c-.48.5-1.16,1.19-1.91,1.93s-1.45,1.41-2,1.88A4.61,4.61,0,0,1,47,162.19Z" transform="translate(-8.25 -30.73)"/><path class="cls-1" d="M17,162.27a5.17,5.17,0,0,1-.86-.74c-.5-.48-1.19-1.15-1.93-1.91s-1.4-1.45-1.87-2a5.94,5.94,0,0,1-.73-.86,4,4,0,0,1,.86.73c.51.48,1.19,1.16,1.94,1.91s1.4,1.45,1.87,2A4.61,4.61,0,0,1,17,162.27Z" transform="translate(-8.25 -30.73)"/><path class="cls-1" d="M47,193.35v-.15c0-.11,0-.25,0-.44,0-.39,0-.95,0-1.68,0-1.48,0-3.64,0-6.37,0-5.47,0-13.27-.06-22.6l.11.11-29.88,0h0l.14-.13c0,11.46,0,22.19,0,31.24l-.12-.11,21.65,0,6.07,0,1.61,0h0l-1.59,0-6,0-21.72.05H17v-.11c0-9,0-19.78,0-31.24V162h.14L47,162h.12v.12c0,9.36,0,17.18-.06,22.67,0,2.72,0,4.87,0,6.34,0,.72,0,1.28,0,1.67,0,.18,0,.32,0,.42S47,193.35,47,193.35Z" transform="translate(-8.25 -30.73)"/><rect class="cls-4" x="18.83" y="141.99" width="10" height="10"/><rect class="cls-1" x="352.08" y="19.99" width="52.36" height="75.89"/><rect class="cls-2" x="349.46" y="19.99" width="52.36" height="75.89"/><rect class="cls-3" x="355.96" y="28.21" width="39.35" height="59.45"/><path class="cls-1" d="M403.57,118.4s0-.1,0-.29,0-.48,0-.85c0-.74,0-1.84,0-3.26,0-2.85,0-7,0-12.24,0-10.49,0-25.33-.07-42.82l.14.14H364.22l.14-.15c0,22.43,0,43.11,0,59.46l-.11-.11,28.64,0,7.91,0,2.08,0h-2l-7.88,0-28.71.06h-.12v-.11c0-16.35,0-37,0-59.46V58.8H403.7v.13c0,17.52-.05,32.4-.07,42.9,0,5.24,0,9.38,0,12.22,0,1.41,0,2.49,0,3.23,0,.37,0,.64,0,.83Z" transform="translate(-8.25 -30.73)"/><path class="cls-1" d="M410.22,50.73a9.63,9.63,0,0,1-.94,1.35c-.6.81-1.47,1.92-2.45,3.12s-1.91,2.25-2.59,3a8.5,8.5,0,0,1-1.15,1.17,9.69,9.69,0,0,1,1-1.31l2.52-3c.95-1.16,1.81-2.21,2.52-3.06A8.81,8.81,0,0,1,410.22,50.73Z" transform="translate(-8.25 -30.73)"/><path class="cls-3" d="M403.77,118.21a48.84,48.84,0,0,0,6.86,8.58" transform="translate(-8.25 -30.73)"/><path class="cls-1" d="M410.63,126.79a7.63,7.63,0,0,1-1.2-1.09c-.7-.71-1.63-1.73-2.59-2.92a37.49,37.49,0,0,1-2.28-3.17,7.26,7.26,0,0,1-.79-1.4,12.48,12.48,0,0,1,1,1.29c.58.81,1.39,1.92,2.34,3.1s1.85,2.22,2.51,3A12,12,0,0,1,410.63,126.79Z" transform="translate(-8.25 -30.73)"/><path class="cls-3" d="M357.7,126.56l6.86-8.46" transform="translate(-8.25 -30.73)"/><path class="cls-1" d="M364.56,118.1a51.7,51.7,0,0,1-3.32,4.32,52.68,52.68,0,0,1-3.54,4.14,52.41,52.41,0,0,1,3.32-4.32A53,53,0,0,1,364.56,118.1Z" transform="translate(-8.25 -30.73)"/><path class="cls-1" d="M357.71,50.73a48.24,48.24,0,0,1,3.33,4,47.7,47.7,0,0,1,3.11,4.16,43.33,43.33,0,0,1-3.33-4A50.47,50.47,0,0,1,357.71,50.73Z" transform="translate(-8.25 -30.73)"/><rect class="cls-1" x="369.88" y="40.28" width="13.18" height="37.41"/><rect class="cls-1" x="2.81" y="27.53" width="55.93" height="81.07"/><rect class="cls-2" x="0.01" y="27.53" width="55.93" height="81.07"/><rect class="cls-3" x="6.96" y="36.31" width="42.03" height="63.51"/><path class="cls-1" d="M57.25,130.55s0-.11,0-.31v-.9c0-.8,0-2,0-3.48,0-3,0-7.48,0-13.09,0-11.2,0-27-.06-45.73l.14.14h-42l.16-.15c0,24,0,46.05,0,63.51l-.12-.12,30.6.06,8.45,0,2.22,0h0l-2.19,0-8.43,0-30.67.06h-.12v-.12c0-17.46,0-39.55,0-63.51v-.15H57.38V67c0,18.71-.05,34.6-.06,45.83,0,5.58,0,10,0,13,0,1.5,0,2.66,0,3.45,0,.39,0,.68,0,.89Z" transform="translate(-8.25 -30.73)"/><path class="cls-1" d="M64.35,58.26a9.87,9.87,0,0,1-1,1.45c-.65.87-1.57,2-2.62,3.33s-2,2.41-2.76,3.21a8.47,8.47,0,0,1-1.24,1.26,11.35,11.35,0,0,1,1.07-1.4c.75-.91,1.67-2,2.7-3.26s1.94-2.36,2.69-3.27A11.28,11.28,0,0,1,64.35,58.26Z" transform="translate(-8.25 -30.73)"/><path class="cls-3" d="M57.46,130.35a51.79,51.79,0,0,0,7.33,9.16" transform="translate(-8.25 -30.73)"/><path class="cls-1" d="M64.79,139.51a7.71,7.71,0,0,1-1.28-1.16,40,40,0,0,1-2.76-3.12,40.93,40.93,0,0,1-2.44-3.38,8.87,8.87,0,0,1-.85-1.5,10.56,10.56,0,0,1,1,1.38c.62.86,1.48,2.05,2.49,3.31s2,2.37,2.69,3.16A12.53,12.53,0,0,1,64.79,139.51Z" transform="translate(-8.25 -30.73)"/><path class="cls-3" d="M8.26,139.27l7.32-9" transform="translate(-8.25 -30.73)"/><path class="cls-1" d="M15.58,130.23A54.43,54.43,0,0,1,12,134.84c-2,2.5-3.72,4.48-3.78,4.43a53.56,53.56,0,0,1,3.54-4.62A55.72,55.72,0,0,1,15.58,130.23Z" transform="translate(-8.25 -30.73)"/><path class="cls-1" d="M8.26,58.26a49.92,49.92,0,0,1,3.56,4.25A52.35,52.35,0,0,1,15.14,67a48.06,48.06,0,0,1-3.56-4.25A52.35,52.35,0,0,1,8.26,58.26Z" transform="translate(-8.25 -30.73)"/><rect class="cls-1" x="21.82" y="49.2" width="14.07" height="39.96"/><rect class="cls-1" x="306.54" y="40.27" width="5.13" height="25.54" transform="translate(-8.53 -29.08) rotate(-0.31)"/><rect class="cls-4" x="262.04" y="40.36" width="13.29" height="14.1" transform="translate(-8.5 -29.3) rotate(-0.31)"/><rect class="cls-2" x="275.27" y="40.29" width="13.29" height="14.1" transform="translate(-8.5 -29.23) rotate(-0.31)"/><path class="cls-1" d="M262,44.29c8.83.07,17.69,0,26.52-.12a.15.15,0,0,0,0-.29c-8.84,0-17.69,0-26.52.17a.12.12,0,0,0,0,.24Z" transform="translate(-8.25 -30.73)"/><rect class="cls-4" x="253.75" y="54.25" width="24.15" height="11.49" transform="translate(-8.57 -29.31) rotate(-0.31)"/><rect class="cls-2" x="277.78" y="54.12" width="24.15" height="11.49" transform="translate(-8.57 -29.18) rotate(-0.31)"/><path class="cls-1" d="M253.74,57.51c16,.18,32.14,0,48.18-.23a.15.15,0,0,0,0-.29c-16.05-.08-32.14-.07-48.18.28a.12.12,0,0,0,0,.24Z" transform="translate(-8.25 -30.73)"/><rect class="cls-1" x="236.45" y="35.07" width="93.56" height="5.49"/><rect class="cls-1" x="251.77" y="37.05" width="3.8" height="7.02"/><rect class="cls-1" x="308.47" y="37.05" width="3.8" height="7.02"/><rect class="cls-4" x="311.57" y="30.75" width="5.13" height="35.13" transform="translate(-8.51 -29.05) rotate(-0.31)"/><rect class="cls-2" x="316.73" y="37.29" width="7.98" height="28.47" transform="translate(-8.53 -29.01) rotate(-0.31)"/><path class="cls-1" d="M324.58,42.76a61.3,61.3,0,0,1-8,0,56.93,56.93,0,0,1,8,0Z" transform="translate(-8.25 -30.73)"/><path class="cls-1" d="M324.58,41.56a56.93,56.93,0,0,1-8,0,56.93,56.93,0,0,1,8,0Z" transform="translate(-8.25 -30.73)"/><path class="cls-1" d="M324.58,61.45a56.93,56.93,0,0,1-8,0,61.3,61.3,0,0,1,8,0Z" transform="translate(-8.25 -30.73)"/><path class="cls-1" d="M324.58,60.26a56.93,56.93,0,0,1-8,0,56.93,56.93,0,0,1,8,0Z" transform="translate(-8.25 -30.73)"/><path class="cls-1" d="M320.72,57.65c-.08,0-.14-2.87-.14-6.41s.06-6.42.14-6.42.14,2.87.14,6.42S320.8,57.65,320.72,57.65Z" transform="translate(-8.25 -30.73)"/><rect class="cls-4" x="316.41" y="13.53" width="8.68" height="21.49"/><path class="cls-1" d="M315.45,36.73A1.48,1.48,0,1,1,314,35.26,1.48,1.48,0,0,1,315.45,36.73Z" transform="translate(-8.25 -30.73)"/><rect class="cls-1" x="305.26" y="10.05" width="0.91" height="20.9"/><rect class="cls-2" x="120.45" y="23.3" width="28.17" height="7.45"/><path class="cls-1" d="M145,69.33a.73.73,0,0,1,0-.13v-.38c0-.36,0-.84,0-1.47,0-1.29,0-3.14,0-5.47L145,62,116.79,62l.14-.14h0v7.44l-.14-.14,20.07.07,5.93,0H145s0,0-.13,0h-.4l-1.58,0-5.89,0-20.17.06h-.14V61.89h0l.14-.14,28.17,0h.09v.09c0,2.36,0,4.22-.05,5.52,0,.62,0,1.1,0,1.45v.36C145,69.3,145,69.34,145,69.33Z" transform="translate(-8.25 -30.73)"/><rect class="cls-2" x="365.78" y="109.3" width="28.17" height="7.45"/><path class="cls-1" d="M390.29,155.34s0-.05,0-.14v-.38c0-.35,0-.84,0-1.47,0-1.28,0-3.13-.05-5.46l.09.08-28.17.06.14-.14h0v7.43l-.14-.14,20.07.06,5.93,0,1.6,0h-1.54l-5.89,0-20.17.07H362v-7.57h0l.14-.15,28.17.06h.09v.09c0,2.35,0,4.22-.05,5.51,0,.62,0,1.11,0,1.45v.37A1.09,1.09,0,0,0,390.29,155.34Z" transform="translate(-8.25 -30.73)"/><path class="cls-1" d="M217.15,45.83s0,0,0-.14v-.38c0-.35,0-.84,0-1.46,0-1.29,0-3.14-.05-5.47l.09.09L189,38.52l.14-.14h0v7.44l-.14-.14,20.07.06,5.93,0,1.6,0h0l-1.57,0-5.89,0L189,46h-.14v-.14c0-1.2,0-2.42,0-3.67V38.39h0l.15-.15,28.17.06h.08v.09c0,2.35,0,4.22,0,5.52q0,.93,0,1.44v.37A1.09,1.09,0,0,0,217.15,45.83Z" transform="translate(-8.25 -30.73)"/><path class="cls-1" d="M221,38.38a.49.49,0,0,1,0-.14v-.4l0-1.49c0-1.31,0-3.16-.06-5.42l.11.1-16.93,0,.14-.14h0v7.44l-.14-.14,12.11.07,3.52,0,1,0,.34,0h-.31l-.92,0-3.5,0-12.2.06h-.14V30.94h0l.14-.15,16.93,0h.1v.11c0,2.29,0,4.16-.06,5.48,0,.62,0,1.11,0,1.47S221,38.38,221,38.38Z" transform="translate(-8.25 -30.73)"/><path class="cls-1" d="M398.71,41.42s0-.05,0-.14V40.9c0-.35,0-.84,0-1.46,0-1.29,0-3.14-.05-5.47l.09.08-28.17.06.14-.14h0v7.44l-.14-.14,20.07.06,5.93,0,1.6,0h0l-1.58,0-5.89,0-20.17.06h-.14V34h0l.14-.15,28.17.06h.09V34c0,2.35,0,4.22-.05,5.52,0,.62,0,1.1,0,1.44v.37A1.09,1.09,0,0,0,398.71,41.42Z" transform="translate(-8.25 -30.73)"/><path class="cls-1" d="M78.36,44.52a.73.73,0,0,1,0-.13V44c0-.35,0-.84,0-1.46,0-1.29,0-3.14,0-5.47l.09.09-28.17.05.14-.14h0v7.44l-.14-.14,20.07.07,5.93,0h1.64l-1.58,0-5.89,0-20.17.06h-.14V37.08h0l.14-.14,28.17,0h.09v.09c0,2.35,0,4.22,0,5.52,0,.62,0,1.1,0,1.45v.36C78.36,44.49,78.36,44.52,78.36,44.52Z" transform="translate(-8.25 -30.73)"/><path class="cls-5" d="M405.58,430.81c0,.08-86.74.15-193.72.15s-193.75-.07-193.75-.15,86.73-.15,193.75-.15S405.58,430.72,405.58,430.81Z" transform="translate(-8.25 -30.73)"/><path class="cls-1" d="M335.58,427.85H91.85a14.59,14.59,0,0,1-14.58-14.59V246a10.64,10.64,0,0,1,10.64-10.64h252.2a10.05,10.05,0,0,1,10.06,10.05V413.26A14.59,14.59,0,0,1,335.58,427.85Z" transform="translate(-8.25 -30.73)"/><path class="cls-5" d="M335.58,427.85l.59,0,.74,0c.29,0,.62-.09,1-.14l.61-.1.66-.17.73-.19.78-.29a15,15,0,0,0,1.7-.75c.29-.15.58-.35.88-.53l.46-.28.45-.34a14.29,14.29,0,0,0,5.71-9.27l.13-.83c0-.28,0-.56.05-.85,0-.57.05-1.16,0-1.75v-3.7c0-2.55,0-5.27,0-8.14,0-23,0-56.31-.05-97.45q0-15.44,0-32.29V246.91c0-.74,0-1.48,0-2.21a9.9,9.9,0,0,0-4.25-7.46,9.78,9.78,0,0,0-4.14-1.64,5.39,5.39,0,0,0-.56-.08l-.56,0c-.38,0-.76,0-1.15,0H269l-177,0H89.06c-.49,0-1,0-1.46,0l-.73,0-.71.1a4.27,4.27,0,0,0-.71.15c-.23.06-.47.11-.7.18a11,11,0,0,0-1.34.54A9.88,9.88,0,0,0,81,238.1a10.51,10.51,0,0,0-1.89,2.16,11.59,11.59,0,0,0-1.23,2.59,11.38,11.38,0,0,0-.46,2.83c0,1,0,1.94,0,2.91v23.09q0,22.94,0,45.15c0,29.61,0,58.16,0,85.36v10.14c0,.84,0,1.67.09,2.5l.19,1.23c.08.4.2.8.29,1.2a15.11,15.11,0,0,0,2.15,4.42A14.35,14.35,0,0,0,88,427.17a11.9,11.9,0,0,0,1.18.28l1.2.19c.8,0,1.6.09,2.42.08h42.34l67.29,0,97.44.05,26.5,0h6.89l2.34,0h-2.34l-6.89,0-26.5,0-97.44,0H92.78c-.81,0-1.63,0-2.45-.08l-1.22-.18a12.33,12.33,0,0,1-1.2-.29,14.65,14.65,0,0,1-8-5.59,15,15,0,0,1-2.19-4.51c-.1-.4-.22-.81-.3-1.22l-.19-1.25c-.06-.84-.11-1.69-.09-2.53V402.19c0-27.2,0-55.75,0-85.36V248.59c0-1,0-1.94,0-2.92a11.41,11.41,0,0,1,.47-2.9,11.29,11.29,0,0,1,1.27-2.67,10.87,10.87,0,0,1,1.94-2.23,10.64,10.64,0,0,1,2.47-1.62,11.73,11.73,0,0,1,1.38-.56l.72-.19a5.88,5.88,0,0,1,.73-.14l.73-.11.75,0c.49,0,1,0,1.47,0H339.35c.39,0,.77,0,1.16,0l.57,0a5.4,5.4,0,0,1,.58.08,10.08,10.08,0,0,1,4.25,1.68,10.21,10.21,0,0,1,4.35,7.65c.05.76,0,1.49,0,2.23V270.7q0,16.85,0,32.29c0,41.14,0,74.43,0,97.45,0,2.87,0,5.59,0,8.14v3.7c0,.59,0,1.18,0,1.75,0,.29,0,.58-.06.86s-.09.56-.13.83a14.42,14.42,0,0,1-5.76,9.31l-.45.34-.47.28c-.3.18-.59.37-.89.52a14.44,14.44,0,0,1-1.7.76l-.78.28-.74.19-.67.17-.61.09c-.38,0-.72.12-1,.13l-.74,0Z" transform="translate(-8.25 -30.73)"/><path class="cls-1" d="M349.88,430.78H80a14.1,14.1,0,0,1-14.11-14.1v-2.2a.55.55,0,0,1,.55-.54H361a.54.54,0,0,1,.54.54v4.66A11.64,11.64,0,0,1,349.88,430.78Z" transform="translate(-8.25 -30.73)"/><path class="cls-5" d="M349.88,430.78l.4,0a8,8,0,0,0,1.18-.11,11.68,11.68,0,0,0,7-3.68,11.43,11.43,0,0,0,2.18-3.46,12,12,0,0,0,.85-4.7v-4.05c0-.24,0-.48-.16-.63s-.4-.12-.64-.13l-65.74.05L78,414.09H66.42a.36.36,0,0,0-.18,0,.38.38,0,0,0-.22.26,3,3,0,0,0,0,.45v1c0,.66,0,1.31.06,1.95a13.46,13.46,0,0,0,.83,3.77,13.84,13.84,0,0,0,.78,1.76,13.54,13.54,0,0,0,1,1.62,14,14,0,0,0,6,4.68,14.3,14.3,0,0,0,3.69.94c1.26.12,2.54.1,3.82.1h80.35l97.5,0,65.74.05,17.87,0h4.65l1.58,0H348.3l-4.65,0-17.87,0-65.74.05-97.5,0H82.19a38.5,38.5,0,0,1-3.86-.1,15.39,15.39,0,0,1-3.76-1,14.63,14.63,0,0,1-7.16-6.43,15.32,15.32,0,0,1-.8-1.81,13.27,13.27,0,0,1-.85-3.85c0-.66-.07-1.32-.06-2v-1a2.56,2.56,0,0,1,0-.53.69.69,0,0,1,.39-.46.65.65,0,0,1,.3,0H78l216.89,0,65.74.05H361a.6.6,0,0,1,.54.5,2.32,2.32,0,0,1,0,.37v4.05a12.27,12.27,0,0,1-.87,4.73,11.62,11.62,0,0,1-2.22,3.48,11.58,11.58,0,0,1-7,3.67,11,11,0,0,1-1.18.09Z" transform="translate(-8.25 -30.73)"/><rect class="cls-6" x="80.2" y="216.36" width="249.77" height="157.69" rx="3.04"/><path class="cls-7" d="M335.18,404.79s.18,0,.53-.06a3,3,0,0,0,1.39-.65,3,3,0,0,0,1.09-2.23v-3.56c0-5.39,0-13.35,0-23.59,0-20.49,0-50.13-.05-86.76q0-13.74,0-28.75v-8.53a7.26,7.26,0,0,0,0-.94,2.91,2.91,0,0,0-.81-1.63,2.88,2.88,0,0,0-1.62-.83,5,5,0,0,0-.95,0H317.84l-68.76,0H91.51a2.87,2.87,0,0,0-2.79,2.08,4.29,4.29,0,0,0-.12,1.25V365.75q0,9.51,0,18.82v16.11a5.48,5.48,0,0,0,.23,2.19,2.92,2.92,0,0,0,2.51,1.77c.36,0,.75,0,1.12,0H156.7l59.91,0,86.76.05,23.59,0h6.13l2.09,0h-2.09l-6.13,0-23.59,0-86.76.05-59.91,0H91.31a3.47,3.47,0,0,1-1.14-.28A3.17,3.17,0,0,1,88.56,403a2.86,2.86,0,0,1-.24-1.15V327q0-19.77,0-40.2V250.58a4.73,4.73,0,0,1,.13-1.34A3.19,3.19,0,0,1,91.51,247H334.69a5.4,5.4,0,0,1,1,0,3.18,3.18,0,0,1,1.76.9,3.07,3.07,0,0,1,.87,1.77,6.35,6.35,0,0,1,0,1v8.53q0,15,0,28.75c0,36.63,0,66.27-.05,86.76,0,10.24,0,18.2,0,23.59,0,1.35,0,2.54,0,3.56a3.08,3.08,0,0,1-1.12,2.26,3.11,3.11,0,0,1-1.41.64,2.25,2.25,0,0,1-.4,0Z" transform="translate(-8.25 -30.73)"/><polygon class="cls-5" points="178.56 382.88 182.23 389.1 233.86 389.1 237.26 382.88 178.56 382.88"/><path class="cls-5" d="M215.74,241.76a2.05,2.05,0,1,1-2.05-2A2.05,2.05,0,0,1,215.74,241.76Z" transform="translate(-8.25 -30.73)"/><rect class="cls-2" x="165.66" y="293.69" width="79.37" height="13.71" rx="1.45"/><rect class="cls-2" x="165.74" y="312.53" width="79.37" height="13.71" rx="1.45"/><path class="cls-5" d="M179.36,331.19v-1.8h.45v1.78c0,.71.32,1,.89,1s.89-.31.89-1v-1.78H182v1.8a1.34,1.34,0,1,1-2.67,0Z" transform="translate(-8.25 -30.73)"/><path class="cls-5" d="M182.6,332.31l.18-.35a1.49,1.49,0,0,0,.84.25c.4,0,.57-.12.57-.33,0-.53-1.52-.07-1.52-1,0-.43.39-.72,1-.72a1.71,1.71,0,0,1,.88.22l-.19.34a1.27,1.27,0,0,0-.69-.19c-.38,0-.57.14-.57.33,0,.56,1.52.1,1.52,1,0,.43-.39.71-1,.71A1.79,1.79,0,0,1,182.6,332.31Z" transform="translate(-8.25 -30.73)"/><path class="cls-5" d="M187.33,331.5h-2a.81.81,0,0,0,.87.71.9.9,0,0,0,.69-.29l.24.28a1.22,1.22,0,0,1-.94.39,1.2,1.2,0,0,1-1.29-1.23,1.2,1.2,0,1,1,2.39,0S187.33,331.46,187.33,331.5Zm-2-.31h1.54a.77.77,0,0,0-1.54,0Z" transform="translate(-8.25 -30.73)"/><path class="cls-5" d="M189.23,330.14v.42h-.1a.72.72,0,0,0-.76.81v1.2h-.43v-2.4h.42v.4A.9.9,0,0,1,189.23,330.14Z" transform="translate(-8.25 -30.73)"/><path class="cls-5" d="M192,331.18v1.38h-.44v-1.33c0-.47-.23-.7-.64-.7a.71.71,0,0,0-.76.79v1.24h-.44v-2.4h.42v.36a1,1,0,0,1,.86-.38A.93.93,0,0,1,192,331.18Z" transform="translate(-8.25 -30.73)"/><path class="cls-5" d="M194.75,331.11v1.45h-.41v-.32a.9.9,0,0,1-.79.35c-.54,0-.89-.29-.89-.71s.25-.7,1-.7h.69v-.09c0-.36-.21-.58-.64-.58a1.22,1.22,0,0,0-.76.26l-.18-.32a1.6,1.6,0,0,1,1-.31C194.38,330.14,194.75,330.46,194.75,331.11Zm-.44.72v-.34h-.67c-.43,0-.55.17-.55.37s.2.39.53.39A.69.69,0,0,0,194.31,331.83Z" transform="translate(-8.25 -30.73)"/><path class="cls-5" d="M199.53,331.18v1.38h-.43v-1.33c0-.47-.23-.7-.62-.7a.69.69,0,0,0-.72.79v1.24h-.43v-1.33c0-.47-.23-.7-.62-.7a.69.69,0,0,0-.72.79v1.24h-.44v-2.4H196v.36a1,1,0,0,1,.83-.38.89.89,0,0,1,.83.44,1.08,1.08,0,0,1,.92-.44A.91.91,0,0,1,199.53,331.18Z" transform="translate(-8.25 -30.73)"/><path class="cls-5" d="M202.51,331.5h-1.94a.8.8,0,0,0,.86.71.93.93,0,0,0,.7-.29l.24.28a1.23,1.23,0,0,1-1,.39,1.21,1.21,0,0,1-1.29-1.23,1.17,1.17,0,0,1,1.2-1.22,1.16,1.16,0,0,1,1.19,1.23A.57.57,0,0,1,202.51,331.5Zm-1.94-.31h1.53a.77.77,0,0,0-1.53,0Z" transform="translate(-8.25 -30.73)"/><rect class="cls-8" x="165.87" y="333.76" width="79.37" height="13.71" rx="1.45"/><path class="cls-3" d="M206.64,369.87h.9v2.46h1.51V373h-2.41Z" transform="translate(-8.25 -30.73)"/><path class="cls-3" d="M209.2,371.81a1.39,1.39,0,1,1,1.38,1.27A1.28,1.28,0,0,1,209.2,371.81Zm1.9,0a.52.52,0,1,0-1,0,.52.52,0,1,0,1,0Z" transform="translate(-8.25 -30.73)"/><path class="cls-3" d="M215,370.58v2a1.26,1.26,0,0,1-1.44,1.37,2.19,2.19,0,0,1-1.22-.32l.31-.6a1.46,1.46,0,0,0,.83.26c.46,0,.66-.21.66-.59v-.09a.91.91,0,0,1-.73.29,1.19,1.19,0,1,1,0-2.37.9.9,0,0,1,.77.34v-.3Zm-.85,1.15a.54.54,0,0,0-1.08,0,.54.54,0,0,0,1.08,0Z" transform="translate(-8.25 -30.73)"/><path class="cls-3" d="M216.92,369.87h.9V373h-.9Z" transform="translate(-8.25 -30.73)"/><path class="cls-3" d="M221,371.64V373h-.86v-1.26c0-.36-.16-.51-.41-.51s-.48.17-.48.58V373h-.87v-2.46h.82v.27a1.1,1.1,0,0,1,.78-.31A1,1,0,0,1,221,371.64Z" transform="translate(-8.25 -30.73)"/><path class="cls-5" d="M180.18,350.2A1.2,1.2,0,1,1,179,349,1.19,1.19,0,0,1,180.18,350.2Z" transform="translate(-8.25 -30.73)"/><path class="cls-5" d="M183.93,350.2a1.2,1.2,0,0,1-2.39,0,1.2,1.2,0,1,1,2.39,0Z" transform="translate(-8.25 -30.73)"/><path class="cls-5" d="M187.68,350.2a1.19,1.19,0,1,1-1.19-1.2A1.19,1.19,0,0,1,187.68,350.2Z" transform="translate(-8.25 -30.73)"/><path class="cls-5" d="M191.44,350.2a1.2,1.2,0,1,1-1.2-1.2A1.19,1.19,0,0,1,191.44,350.2Z" transform="translate(-8.25 -30.73)"/><path class="cls-5" d="M195.19,350.2A1.2,1.2,0,1,1,194,349,1.19,1.19,0,0,1,195.19,350.2Z" transform="translate(-8.25 -30.73)"/><path class="cls-5" d="M198.94,350.2a1.2,1.2,0,0,1-2.39,0,1.2,1.2,0,1,1,2.39,0Z" transform="translate(-8.25 -30.73)"/><path class="cls-5" d="M202.69,350.2a1.19,1.19,0,1,1-1.19-1.2A1.19,1.19,0,0,1,202.69,350.2Z" transform="translate(-8.25 -30.73)"/><path class="cls-5" d="M206.44,350.2a1.19,1.19,0,1,1-1.19-1.2A1.19,1.19,0,0,1,206.44,350.2Z" transform="translate(-8.25 -30.73)"/><path class="cls-1" d="M247.18,349.33h-.31v-.44a1.48,1.48,0,0,0-3,0v.44h-.45a.54.54,0,0,0-.54.54v2.4a.55.55,0,0,0,.54.55h3.72a.55.55,0,0,0,.55-.55v-2.4A.55.55,0,0,0,247.18,349.33ZM245.89,352h-1.13l.29-.74a.61.61,0,0,1,.27-1.16.61.61,0,0,1,.62.61.63.63,0,0,1-.35.56Zm.53-2.71h-2.06v-.44a1,1,0,0,1,2.06,0Z" transform="translate(-8.25 -30.73)"/><circle class="cls-9" cx="213.43" cy="287.47" r="20.69" transform="translate(-112.48 421.93) rotate(-80.88)"/><path class="cls-5" d="M234.12,287.47a2.77,2.77,0,0,1,0-.33l-.07-1,0-.73c0-.26-.09-.55-.13-.86a16.85,16.85,0,0,0-.43-2.14,20,20,0,0,0-2.3-5.48,20.67,20.67,0,0,0-13.9-9.68,18.47,18.47,0,0,0-2.6-.3c-.44,0-.89-.06-1.34-.05l-1.36.07c-.23,0-.46,0-.69,0l-.68.11c-.46.07-.92.13-1.38.22a22.56,22.56,0,0,0-2.74.81,19.84,19.84,0,0,0-2.68,1.18c-.44.23-.85.51-1.28.76a10.54,10.54,0,0,0-1.24.86,22.92,22.92,0,0,0-2.34,2,23.18,23.18,0,0,0-2,2.38,20,20,0,0,0-2.94,5.66,20.34,20.34,0,0,0,0,13c.19.51.38,1,.56,1.53s.47,1,.7,1.45a6.8,6.8,0,0,0,.38.7l.41.68.42.67.47.64a25.53,25.53,0,0,0,2,2.38,23.94,23.94,0,0,0,2.33,2,10.92,10.92,0,0,0,1.24.85c.43.26.85.53,1.28.77a22,22,0,0,0,2.69,1.18,20.85,20.85,0,0,0,2.74.8c.46.1.92.15,1.38.23l.69.1c.22,0,.45,0,.68,0l1.36.07c.45,0,.9,0,1.34,0a20.07,20.07,0,0,0,2.6-.3,20.67,20.67,0,0,0,13.9-9.68,19.9,19.9,0,0,0,2.3-5.49,16.73,16.73,0,0,0,.43-2.13c0-.32.1-.6.13-.87l0-.72.07-1a3.18,3.18,0,0,1,0-.34v.34c0,.23,0,.56,0,1l0,.73c0,.27-.07.55-.11.87a14.81,14.81,0,0,1-.41,2.15,19.71,19.71,0,0,1-2.26,5.54,20.77,20.77,0,0,1-14,9.84,17.5,17.5,0,0,1-2.63.31c-.45,0-.9.07-1.36.06l-1.38-.07c-.23,0-.46,0-.69,0l-.7-.11c-.46-.07-.93-.13-1.4-.22a21.92,21.92,0,0,1-2.78-.81,23.14,23.14,0,0,1-2.72-1.19c-.44-.24-.86-.52-1.3-.77a11.78,11.78,0,0,1-1.26-.87,23.45,23.45,0,0,1-2.36-2,22.66,22.66,0,0,1-2.05-2.41l-.48-.64-.42-.69-.42-.69a5.38,5.38,0,0,1-.39-.71c-.23-.49-.47-1-.71-1.47l-.56-1.54a20.58,20.58,0,0,1,0-13.16,20.34,20.34,0,0,1,3-5.74,19.54,19.54,0,0,1,4.41-4.42,11.68,11.68,0,0,1,1.26-.86c.44-.26.86-.53,1.3-.77a21.58,21.58,0,0,1,2.72-1.19,21.92,21.92,0,0,1,2.78-.81c.47-.1.94-.15,1.4-.23l.7-.1c.23,0,.46,0,.69,0l1.38-.06c.46,0,.91,0,1.36,0A20.25,20.25,0,0,1,226,270.94a20.89,20.89,0,0,1,5.26,5.92,19.88,19.88,0,0,1,2.26,5.55,14.81,14.81,0,0,1,.41,2.15c0,.31.09.6.11.87l0,.72c0,.43,0,.75,0,1Z" transform="translate(-8.25 -30.73)"/><path class="cls-10" d="M215.48,287.78a4.73,4.73,0,1,0-3.44,0c-7.28,1-6.95,8.46-6.95,8.46l17.22.07S222.7,288.8,215.48,287.78Z" transform="translate(-8.25 -30.73)"/><path class="cls-5" d="M176.94,387.46h-2.49a.71.71,0,0,1-.71-.71v-2.49a.71.71,0,0,1,.71-.71h2.49a.71.71,0,0,1,.71.71v2.49A.71.71,0,0,1,176.94,387.46Zm-2.49-3.62a.42.42,0,0,0-.42.42v2.49a.42.42,0,0,0,.42.42h2.49a.42.42,0,0,0,.42-.42v-2.49a.42.42,0,0,0-.42-.42Z" transform="translate(-8.25 -30.73)"/><path class="cls-5" d="M181.69,386.93l-.51-.74h-.66v.73h-.47v-2.51h1c.66,0,1.07.34,1.07.89a.79.79,0,0,1-.53.79l.57.83Zm-.63-2.11h-.54v1h.54c.41,0,.62-.18.62-.5S181.47,384.82,181.06,384.82Z" transform="translate(-8.25 -30.73)"/><path class="cls-5" d="M184.41,386.11h-1.49a.57.57,0,0,0,.61.46.67.67,0,0,0,.52-.21l.24.28a1,1,0,0,1-.77.31,1,1,0,0,1-1.05-1,1,1,0,0,1,1-1,.93.93,0,0,1,1,1A.57.57,0,0,1,184.41,386.11Zm-1.5-.29H184a.53.53,0,0,0-.54-.47A.54.54,0,0,0,182.91,385.82Z" transform="translate(-8.25 -30.73)"/><path class="cls-5" d="M188.05,385.83v1.1h-.45v-1c0-.34-.16-.51-.43-.51s-.5.2-.5.58v1h-.44v-1c0-.34-.16-.51-.43-.51s-.5.2-.5.58v1h-.45V385h.43v.24a.78.78,0,0,1,.62-.27.75.75,0,0,1,.65.32.9.9,0,0,1,.71-.32A.75.75,0,0,1,188.05,385.83Z" transform="translate(-8.25 -30.73)"/><path class="cls-5" d="M190.43,386.11h-1.5a.57.57,0,0,0,.62.46.66.66,0,0,0,.51-.21l.24.28a1,1,0,0,1-.77.31,1,1,0,0,1-1.05-1,1,1,0,0,1,1-1,.93.93,0,0,1,1,1Zm-1.51-.29H190a.53.53,0,0,0-.54-.47A.54.54,0,0,0,188.92,385.82Z" transform="translate(-8.25 -30.73)"/><path class="cls-5" d="M194.06,385.83v1.1h-.45v-1c0-.34-.16-.51-.43-.51s-.5.2-.5.58v1h-.44v-1c0-.34-.16-.51-.43-.51s-.5.2-.5.58v1h-.45V385h.43v.24a.78.78,0,0,1,.62-.27.73.73,0,0,1,.65.32.9.9,0,0,1,.71-.32A.74.74,0,0,1,194.06,385.83Z" transform="translate(-8.25 -30.73)"/><path class="cls-5" d="M196.66,386a.93.93,0,0,1-1,1,.79.79,0,0,1-.63-.27v.25h-.43v-2.66h.45v1a.8.8,0,0,1,.61-.26A.93.93,0,0,1,196.66,386Zm-.46,0a.56.56,0,0,0-.56-.6.6.6,0,0,0,0,1.2A.55.55,0,0,0,196.2,386Z" transform="translate(-8.25 -30.73)"/><path class="cls-5" d="M198.87,386.11h-1.5a.59.59,0,0,0,.62.46.67.67,0,0,0,.52-.21l.24.28a1,1,0,0,1-.77.31,1,1,0,0,1-1-1,1,1,0,0,1,1-1,.93.93,0,0,1,1,1A.57.57,0,0,1,198.87,386.11Zm-1.5-.29h1.08a.51.51,0,0,0-.54-.47A.53.53,0,0,0,197.37,385.82Z" transform="translate(-8.25 -30.73)"/><path class="cls-5" d="M200.42,385v.43h-.11a.52.52,0,0,0-.55.59v.93h-.45V385h.43v.27A.75.75,0,0,1,200.42,385Z" transform="translate(-8.25 -30.73)"/><path class="cls-5" d="M205,385.83v1.1h-.45v-1c0-.34-.16-.51-.43-.51s-.5.2-.5.58v1h-.45v-1c0-.34-.15-.51-.42-.51s-.5.2-.5.58v1h-.45V385h.43v.24a.78.78,0,0,1,.62-.27.75.75,0,0,1,.65.32.9.9,0,0,1,.71-.32A.75.75,0,0,1,205,385.83Z" transform="translate(-8.25 -30.73)"/><path class="cls-5" d="M207.38,386.11h-1.5a.57.57,0,0,0,.62.46.66.66,0,0,0,.51-.21l.24.28a1,1,0,0,1-.77.31,1,1,0,0,1-1-1,1,1,0,0,1,1-1,.93.93,0,0,1,1,1Zm-1.51-.29H207a.53.53,0,0,0-.54-.47A.54.54,0,0,0,205.87,385.82Z" transform="translate(-8.25 -30.73)"/><path class="cls-11" d="M221,384.81v.76h1.21v.4H221v1h-.46v-2.51h1.83v.39Z" transform="translate(-8.25 -30.73)"/><path class="cls-11" d="M222.54,386a1,1,0,1,1,1,1A1,1,0,0,1,222.54,386Zm1.59,0a.57.57,0,1,0-1.13,0,.57.57,0,1,0,1.13,0Z" transform="translate(-8.25 -30.73)"/><path class="cls-11" d="M226.12,385v.43H226a.52.52,0,0,0-.55.59v.93H225V385h.43v.28A.73.73,0,0,1,226.12,385Z" transform="translate(-8.25 -30.73)"/><path class="cls-11" d="M228.37,385v1.62a.9.9,0,0,1-1,1,1.53,1.53,0,0,1-.93-.28l.2-.33a1.16,1.16,0,0,0,.71.23c.42,0,.61-.2.61-.58v-.1a.86.86,0,0,1-.64.25.93.93,0,1,1,0-1.85.84.84,0,0,1,.66.28V385Zm-.44.89a.58.58,0,1,0-.58.55A.54.54,0,0,0,227.93,385.91Z" transform="translate(-8.25 -30.73)"/><path class="cls-11" d="M228.8,386a1,1,0,1,1,1,1A1,1,0,0,1,228.8,386Zm1.59,0a.57.57,0,1,0-.57.6A.57.57,0,0,0,230.39,386Z" transform="translate(-8.25 -30.73)"/><path class="cls-11" d="M232.42,386.82a.69.69,0,0,1-.43.13.59.59,0,0,1-.66-.64v-.92H231V385h.32v-.44h.45V385h.51v.36h-.51v.91c0,.18.09.28.26.28a.38.38,0,0,0,.25-.08Z" transform="translate(-8.25 -30.73)"/><path class="cls-11" d="M235.91,385.31c0,.55-.41.89-1.06.89h-.57v.73h-.46v-2.51h1C235.5,384.42,235.91,384.76,235.91,385.31Zm-.47,0c0-.31-.21-.49-.62-.49h-.54v1h.54C235.23,385.81,235.44,385.63,235.44,385.31Z" transform="translate(-8.25 -30.73)"/><path class="cls-11" d="M237.92,385.81v1.12h-.43v-.24a.65.65,0,0,1-.6.26c-.43,0-.71-.24-.71-.57s.22-.57.8-.57h.49v0c0-.26-.16-.41-.48-.41a1,1,0,0,0-.58.19l-.17-.33a1.32,1.32,0,0,1,.81-.24A.76.76,0,0,1,237.92,385.81Zm-.45.52v-.22H237c-.31,0-.39.11-.39.25s.14.27.37.27A.49.49,0,0,0,237.47,386.33Z" transform="translate(-8.25 -30.73)"/><path class="cls-11" d="M238.27,386.74l.17-.34a1.32,1.32,0,0,0,.67.19c.28,0,.4-.08.4-.21,0-.37-1.18,0-1.18-.79,0-.36.32-.6.84-.6a1.55,1.55,0,0,1,.71.17l-.17.34a1,1,0,0,0-.55-.14c-.27,0-.4.09-.4.21,0,.39,1.18,0,1.18.79,0,.36-.32.59-.86.59A1.53,1.53,0,0,1,238.27,386.74Z" transform="translate(-8.25 -30.73)"/><path class="cls-11" d="M240.11,386.74l.18-.34a1.25,1.25,0,0,0,.66.19c.28,0,.4-.08.4-.21,0-.37-1.18,0-1.18-.79,0-.36.33-.6.84-.6a1.59,1.59,0,0,1,.72.17l-.18.34a1,1,0,0,0-.54-.14c-.27,0-.4.09-.4.21,0,.39,1.18,0,1.18.79,0,.36-.33.59-.87.59A1.56,1.56,0,0,1,240.11,386.74Z" transform="translate(-8.25 -30.73)"/><path class="cls-11" d="M245.12,385l-.71,1.91H244l-.49-1.32-.5,1.32h-.43l-.7-1.91h.42l.51,1.41.52-1.41h.38l.51,1.41.52-1.41Z" transform="translate(-8.25 -30.73)"/><path class="cls-11" d="M245.22,386a1,1,0,1,1,1,1A1,1,0,0,1,245.22,386Zm1.58,0a.57.57,0,1,0-1.13,0,.57.57,0,1,0,1.13,0Z" transform="translate(-8.25 -30.73)"/><path class="cls-11" d="M248.79,385v.43h-.11a.52.52,0,0,0-.55.59v.93h-.45V385h.43v.28A.74.74,0,0,1,248.79,385Z" transform="translate(-8.25 -30.73)"/><path class="cls-11" d="M251,384.27v2.66h-.43v-.25a.79.79,0,0,1-.63.27,1,1,0,0,1,0-2,.8.8,0,0,1,.61.26v-1Zm-.44,1.7a.57.57,0,1,0-.57.6A.57.57,0,0,0,250.58,386Z" transform="translate(-8.25 -30.73)"/><path class="cls-11" d="M252.7,385.11c0-.2-.17-.34-.44-.34a.68.68,0,0,0-.59.28l-.34-.23a1.14,1.14,0,0,1,1-.43c.52,0,.87.24.87.65,0,.58-.61.63-.61,1.06h-.45C252.11,385.57,252.7,385.47,252.7,385.11Zm-.65,1.56a.29.29,0,1,1,.29.28A.27.27,0,0,1,252.05,386.67Z" transform="translate(-8.25 -30.73)"/><path class="cls-5" d="M175.51,386.32a.23.23,0,0,1-.14,0l-.57-.47a.22.22,0,0,1,0-.3.21.21,0,0,1,.31,0l.41.33,1-1.05a.22.22,0,0,1,.31,0,.21.21,0,0,1,0,.3l-1.1,1.2A.2.2,0,0,1,175.51,386.32Z" transform="translate(-8.25 -30.73)"/><path class="cls-1" d="M246.53,331.39a1.69,1.69,0,0,0,1-1.54,1.56,1.56,0,1,0-3.12,0,1.64,1.64,0,0,0,1,1.55c-2.4.36-2.29,3-2.29,3l5.68,0S248.91,331.75,246.53,331.39Z" transform="translate(-8.25 -30.73)"/><path class="cls-5" d="M203.16,313.32h1.33V317h2.25V318h-3.58Z" transform="translate(-8.25 -30.73)"/><path class="cls-5" d="M207,316.2a2.07,2.07,0,1,1,2.06,1.89A1.91,1.91,0,0,1,207,316.2Zm2.83,0a.77.77,0,1,0-1.54,0,.78.78,0,1,0,1.54,0Z" transform="translate(-8.25 -30.73)"/><path class="cls-5" d="M215.59,314.39v3a1.87,1.87,0,0,1-2.14,2,3.25,3.25,0,0,1-1.81-.48l.46-.9a2.07,2.07,0,0,0,1.23.39c.69,0,1-.31,1-.88v-.12a1.36,1.36,0,0,1-1.08.43,1.76,1.76,0,1,1,0-3.51,1.33,1.33,0,0,1,1.14.5v-.44Zm-1.27,1.69a.73.73,0,0,0-.79-.74.74.74,0,0,0-.8.74.75.75,0,0,0,.8.75A.74.74,0,0,0,214.32,316.08Z" transform="translate(-8.25 -30.73)"/><path class="cls-5" d="M218.42,313.32h1.33V318h-1.33Z" transform="translate(-8.25 -30.73)"/><path class="cls-5" d="M224.52,316V318h-1.28v-1.88c0-.52-.22-.74-.59-.74s-.73.25-.73.86V318h-1.28v-3.64h1.22v.39a1.58,1.58,0,0,1,1.16-.45A1.42,1.42,0,0,1,224.52,316Z" transform="translate(-8.25 -30.73)"/><path class="cls-5" d="M324.14,261.14h-9.56a.69.69,0,0,1-.69-.69V255.7a.69.69,0,0,1,.68-.69h9.57a.19.19,0,0,1,.13.05.21.21,0,0,1,.05.13v1.56h1a.18.18,0,0,1,.18.18v2.29a.18.18,0,0,1-.18.18h-1V261A.18.18,0,0,1,324.14,261.14Zm-.17-5.78h-9.4a.34.34,0,0,0-.33.34v4.75a.34.34,0,0,0,.34.34H324v-1.57a.17.17,0,0,1,.17-.17h1V257.1h-1a.17.17,0,0,1-.17-.17Z" transform="translate(-8.25 -30.73)"/><path class="cls-5" d="M315,259.42v-2.69a.58.58,0,0,1,.58-.59h4.51a.58.58,0,0,1,.58.59v2.69a.58.58,0,0,1-.58.59H315.6A.58.58,0,0,1,315,259.42Z" transform="translate(-8.25 -30.73)"/><rect class="cls-12" x="12.47" y="388.41" width="42.43" height="3.63"/><rect class="cls-3" x="51.71" y="388.41" width="0.72" height="3.63"/><rect class="cls-3" x="50.19" y="388.41" width="0.72" height="3.63"/><rect class="cls-3" x="16.4" y="388.41" width="0.72" height="3.63"/><rect class="cls-3" x="14.88" y="388.41" width="0.72" height="3.63"/><path class="cls-3" d="M54.54,422l.14,0a.67.67,0,0,0,.35-.2.6.6,0,0,0,.15-.26.71.71,0,0,0,0-.36.65.65,0,0,0-.18-.37.67.67,0,0,0-.43-.2H29.34a.65.65,0,0,0-.56.31.75.75,0,0,0-.1.32.72.72,0,0,0,.06.33.63.63,0,0,0,.5.39,1.93,1.93,0,0,0,.34,0h0a2.08,2.08,0,0,1-.35,0,.7.7,0,0,1-.55-.42.74.74,0,0,1,.66-1.06H48.72l5.87,0a.65.65,0,0,1,.44.2.68.68,0,0,1,.19.39.91.91,0,0,1,0,.37.72.72,0,0,1-.16.26.66.66,0,0,1-.36.2h-.14Z" transform="translate(-8.25 -30.73)"/><rect class="cls-13" x="14.54" y="392" width="39.39" height="5.2"/><rect class="cls-4" x="14.54" y="392.64" width="39.39" height="3.69"/><path class="cls-5" d="M61.85,423.48s-8.68,0-19.39,0-19.39,0-19.39,0,8.68,0,19.39,0S61.85,423.46,61.85,423.48Z" transform="translate(-8.25 -30.73)"/><path class="cls-5" d="M61.85,424.58s-8.68,0-19.39,0-19.39,0-19.39,0,8.68,0,19.39,0S61.85,424.56,61.85,424.58Z" transform="translate(-8.25 -30.73)"/><path class="cls-5" d="M61.85,425.68s-8.68,0-19.39,0-19.39,0-19.39,0,8.68,0,19.39,0S61.85,425.66,61.85,425.68Z" transform="translate(-8.25 -30.73)"/><path class="cls-5" d="M61.85,426.78s-8.68,0-19.39,0-19.39,0-19.39,0,8.68,0,19.39,0S61.85,426.76,61.85,426.78Z" transform="translate(-8.25 -30.73)"/><rect class="cls-9" x="24.67" y="408.46" width="5.4" height="10.23" transform="translate(46.49 796.43) rotate(180)"/><rect class="cls-5" x="30.07" y="408.11" width="28.98" height="11.09" transform="translate(80.86 796.57) rotate(180)"/><path class="cls-5" d="M24.25,419.2h6.51v-.72H24.25a.36.36,0,0,0-.36.36h0A.36.36,0,0,0,24.25,419.2Z" transform="translate(-8.25 -30.73)"/><path class="cls-5" d="M24.25,408.82h6.51v-.71H24.25a.36.36,0,0,0-.36.35h0A.36.36,0,0,0,24.25,408.82Z" transform="translate(-8.25 -30.73)"/><path class="cls-1" d="M24.67,409.84s1.21,0,2.7,0,2.7,0,2.7,0-1.21,0-2.7,0S24.67,409.82,24.67,409.84Z" transform="translate(-8.25 -30.73)"/><path class="cls-1" d="M24.67,411.15s1.21,0,2.7,0,2.7,0,2.7,0-1.21,0-2.7,0S24.67,411.13,24.67,411.15Z" transform="translate(-8.25 -30.73)"/><path class="cls-1" d="M24.67,412.46s1.21,0,2.7,0,2.7,0,2.7,0-1.21,0-2.7,0S24.67,412.44,24.67,412.46Z" transform="translate(-8.25 -30.73)"/><path class="cls-1" d="M24.67,413.77s1.21,0,2.7,0,2.7,0,2.7,0-1.21,0-2.7,0S24.67,413.76,24.67,413.77Z" transform="translate(-8.25 -30.73)"/><path class="cls-1" d="M24.67,415.09s1.21,0,2.7,0,2.7,0,2.7,0-1.21,0-2.7,0S24.67,415.07,24.67,415.09Z" transform="translate(-8.25 -30.73)"/><path class="cls-1" d="M24.67,416.4s1.21,0,2.7,0,2.7,0,2.7,0-1.21,0-2.7,0S24.67,416.38,24.67,416.4Z" transform="translate(-8.25 -30.73)"/><path class="cls-1" d="M24.67,417.71s1.21,0,2.7,0,2.7,0,2.7,0-1.21,0-2.7,0S24.67,417.69,24.67,417.71Z" transform="translate(-8.25 -30.73)"/><rect class="cls-3" x="25.99" y="381.98" width="21.2" height="1.87"/><path class="cls-5" d="M88.25,295.05l-3.88-1.16c-4.7-1.64-8.58-.38-11.12,2.79a17.31,17.31,0,0,0-3.38,11.45c.09,2.62.59,5.37-.46,7.77a13.83,13.83,0,0,1-2.58,3.51,10.32,10.32,0,0,0-2.37,3.64,3.84,3.84,0,0,0,.89,4,8.5,8.5,0,0,1,1.44,1.14,4.25,4.25,0,0,1,.52,2.46,9,9,0,0,0,17.22,3c1.13-2.65.92-5.65.81-8.54A111.67,111.67,0,0,1,88.25,295.05Z" transform="translate(-8.25 -30.73)"/><path class="cls-5" d="M96.66,290.32c-3.35-1-6.52,0-9.64,1.55a17.77,17.77,0,0,0-9.21,18,13.09,13.09,0,0,0,20,9.27,17.31,17.31,0,0,0,8-12.22,16.67,16.67,0,0,0-1.44-10.13,12.67,12.67,0,0,0-7.74-6.49" transform="translate(-8.25 -30.73)"/><path class="cls-5" d="M85.52,300.8c.66-1.25.64-2.74,1-4.1.8-3,3.56-5.17,6.55-6,2.79-.79,6-.16,9.07,1.26a12.33,12.33,0,0,1,5.26,4.4,9.65,9.65,0,0,1,.73,8.84L92.77,301a17.69,17.69,0,0,1-5.12,2.56,3.23,3.23,0,0,1-1.66.06,1.47,1.47,0,0,1-1.1-1.15A3.14,3.14,0,0,1,85.52,300.8Z" transform="translate(-8.25 -30.73)"/><path class="cls-14" d="M102,296.3l-14,1.25a2.58,2.58,0,0,0-2.69,2.22L81.9,329.35a9.24,9.24,0,0,0,1.25,5.81l1.1,1.83a6.79,6.79,0,0,0,11.36.51,2.93,2.93,0,0,0,.41-.73,6,6,0,0,0,.21-.65l.6-2.85c.45-2.62.79-5.29.79-5.27s5.68,0,8-7.07c1.14-3.5,1.9-9.41,2.36-14.26C108.37,302.29,106.35,296.53,102,296.3Z" transform="translate(-8.25 -30.73)"/><path class="cls-5" d="M105.31,312.52a.93.93,0,0,1-1,.79.88.88,0,0,1-.82-1,.94.94,0,0,1,1-.8A.91.91,0,0,1,105.31,312.52Z" transform="translate(-8.25 -30.73)"/><path class="cls-5" d="M106.19,309.52c-.13.11-.75-.52-1.75-.68s-1.8.22-1.89.09.1-.27.46-.45a2.56,2.56,0,0,1,2.91.48C106.19,309.24,106.25,309.48,106.19,309.52Z" transform="translate(-8.25 -30.73)"/><path class="cls-5" d="M96.43,311.45a.94.94,0,0,1-1,.8.9.9,0,0,1-.82-1,.93.93,0,0,1,1-.79A.89.89,0,0,1,96.43,311.45Z" transform="translate(-8.25 -30.73)"/><path class="cls-5" d="M96.72,308.14c-.13.1-.75-.53-1.75-.68s-1.8.22-1.89.08.1-.26.46-.44a2.59,2.59,0,0,1,1.54-.22,2.5,2.5,0,0,1,1.37.7C96.72,307.86,96.78,308.1,96.72,308.14Z" transform="translate(-8.25 -30.73)"/><path class="cls-5" d="M98.81,316.11a6.36,6.36,0,0,1,1.66,0c.26,0,.51,0,.58-.16a1.27,1.27,0,0,0,0-.78c-.14-.65-.29-1.34-.44-2.06a32.6,32.6,0,0,1-.88-5.33A35.8,35.8,0,0,1,101,313c.14.72.28,1.41.4,2.06a1.44,1.44,0,0,1,0,1,.66.66,0,0,1-.48.31,2.09,2.09,0,0,1-.44,0A6.49,6.49,0,0,1,98.81,316.11Z" transform="translate(-8.25 -30.73)"/><path class="cls-15" d="M97.62,328a18.57,18.57,0,0,1-9.25-4.12s1.63,5.38,9,5.86Z" transform="translate(-8.25 -30.73)"/><path class="cls-15" d="M98,318.44a1.82,1.82,0,0,0-1.51-.92,1.6,1.6,0,0,0-1.22.43,1,1,0,0,0-.27,1.17,1.21,1.21,0,0,0,1.25.54,3.74,3.74,0,0,0,1.39-.56,1.07,1.07,0,0,0,.34-.25.34.34,0,0,0,.05-.37" transform="translate(-8.25 -30.73)"/><path class="cls-5" d="M95.77,316.33c.16,0,0,1.1.8,2s2,1,2,1.13-.29.17-.78.11a2.76,2.76,0,0,1-1.64-.88,2.4,2.4,0,0,1-.6-1.68C95.53,316.56,95.7,316.31,95.77,316.33Z" transform="translate(-8.25 -30.73)"/><path class="cls-5" d="M97.53,304.63c-.15.25-1.12,0-2.31-.08s-2.19.12-2.3-.15c0-.12.15-.35.57-.55A4,4,0,0,1,97,304C97.41,304.26,97.59,304.5,97.53,304.63Z" transform="translate(-8.25 -30.73)"/><path class="cls-5" d="M107.05,305.17c-.21.19-.86-.15-1.68-.29s-1.55-.09-1.67-.35.09-.34.43-.5a2.39,2.39,0,0,1,1.43-.16,2.36,2.36,0,0,1,1.28.67C107.09,304.82,107.15,305.07,107.05,305.17Z" transform="translate(-8.25 -30.73)"/><path class="cls-5" d="M83.27,298.39c1.92-4,8.78-8.92,13.11-8l6.4,5.16a6.83,6.83,0,0,1-5.3,4.52c-1.28.2-2.78.1-3.67,1.06s-.68,2.62-1.54,3.64c-1.18,1.41-3.81,1-4.77,2.54-.42.69-.38,1.59-.81,2.27-.58.9-3.2,1.79-4.17,1.33s-.73-2.19-.93-3.15a4.82,4.82,0,0,1,.3-3.23C82.62,302.55,82.36,300.29,83.27,298.39Z" transform="translate(-8.25 -30.73)"/><path class="cls-14" d="M85.39,312.18c.09-.54.19-1.31-.29-1.55-1.46-.73-4.51-1.26-5.11,2.33-.82,4.92,4.28,4.72,4.32,4.58S85.1,314,85.39,312.18Z" transform="translate(-8.25 -30.73)"/><path class="cls-15" d="M83.11,315.43s-.09.05-.25.09a.86.86,0,0,1-.64-.09,2.14,2.14,0,0,1-.66-2.07,2.74,2.74,0,0,1,.44-1.18,1,1,0,0,1,.75-.55.45.45,0,0,1,.47.32c0,.14,0,.24,0,.25s.12-.06.11-.27a.5.5,0,0,0-.14-.34.64.64,0,0,0-.45-.21,1.23,1.23,0,0,0-1,.62,2.9,2.9,0,0,0-.53,1.32,2.26,2.26,0,0,0,.9,2.33,1,1,0,0,0,.8,0C83.09,315.55,83.13,315.44,83.11,315.43Z" transform="translate(-8.25 -30.73)"/><path class="cls-5" d="M101.52,293.89c.22,2.06,3,5,4.12,6.74,2.2,3.29,2.59,4.35,1.76,11a14.2,14.2,0,0,0,2.9-6.92,10.88,10.88,0,0,0-2-7.43,8.45,8.45,0,0,0-6.77-3.41" transform="translate(-8.25 -30.73)"/><path class="cls-5" d="M81.57,297.12a15.84,15.84,0,0,1,9.58-6.86" transform="translate(-8.25 -30.73)"/><path class="cls-13" d="M80.49,316.15s-.08-.07-.21-.23a7.4,7.4,0,0,1-.52-.72,11,11,0,0,1-1.3-3,19.51,19.51,0,0,1-.62-4.8,14.7,14.7,0,0,1,1-5.83,20.77,20.77,0,0,1,2.87-5.19,18.88,18.88,0,0,1,3.4-3.45A13.67,13.67,0,0,1,88,291.26c.35-.15.63-.26.82-.32l.3-.08s-.38.17-1.07.51a15.07,15.07,0,0,0-2.73,1.73A19.32,19.32,0,0,0,82,296.55a20.54,20.54,0,0,0-2.8,5.13,14.35,14.35,0,0,0-1,5.72,21,21,0,0,0,.54,4.75,11.67,11.67,0,0,0,1.2,3C80.24,315.8,80.51,316.13,80.49,316.15Z" transform="translate(-8.25 -30.73)"/><path class="cls-5" d="M105.33,379.24s28.25-3.21,32.87-4c8.84-1.49,17.67-.06,21.42,7.53,1.71,3.45-.45,10.12-5.63,15.07-3.86,3.7-23.05,23.1-23.05,23.1L114.5,407.22l20.35-15.82-39.44,5.54Z" transform="translate(-8.25 -30.73)"/><path class="cls-5" d="M134.64,411.48l-10.58,11.16s8,14.67,6.24,16.93L107.53,419.5l15.75-18.08Z" transform="translate(-8.25 -30.73)"/><path class="cls-1" d="M117.87,415.46a1.23,1.23,0,0,0-1.57.48,1.2,1.2,0,0,0,.49,1.56,1.28,1.28,0,0,0,1.65-.52,1.23,1.23,0,0,0-.68-1.56" transform="translate(-8.25 -30.73)"/><path class="cls-13" d="M107.53,419.5l1.59-1.82,21.37,20a2.49,2.49,0,0,1-.17,1.86Z" transform="translate(-8.25 -30.73)"/><path class="cls-3" d="M124.53,422.85c-.1.11-.7-.33-1.56-.46s-1.55.07-1.62-.06.66-.62,1.7-.45S124.64,422.77,124.53,422.85Z" transform="translate(-8.25 -30.73)"/><path class="cls-3" d="M126.06,425.93c-.06.13-.71-.11-1.49,0s-1.33.52-1.44.42.37-.78,1.35-.93S126.15,425.82,126.06,425.93Z" transform="translate(-8.25 -30.73)"/><path class="cls-3" d="M125,429.94c-.13-.07.2-.75,1-1.1s1.55-.13,1.51,0-.63.17-1.3.46S125.07,430,125,429.94Z" transform="translate(-8.25 -30.73)"/><path class="cls-3" d="M126.65,420c-.13,0-.51-.55-1.18-1.06s-1.32-.75-1.3-.89.84-.12,1.62.49S126.78,420,126.65,420Z" transform="translate(-8.25 -30.73)"/><path class="cls-13" d="M142.26,409.53s-.06.09-.2.25l-.63.66-2.35,2.45-8,8.16-.1.1-.1-.09-2-1.71-10.15-8.53-3.05-2.61-.82-.72a2.33,2.33,0,0,1-.28-.27,1.43,1.43,0,0,1,.31.22l.86.68,3.12,2.54,10.2,8.46,2,1.71h-.2l8.1-8.09c1-1,1.82-1.8,2.42-2.38l.66-.63Z" transform="translate(-8.25 -30.73)"/><path class="cls-5" d="M166.32,408.63l13.88,12.24L194,427.39a1.9,1.9,0,0,1,.85,2.64h0a1.87,1.87,0,0,1-1.45,1c-3.89.42-18.21,1.87-19.18.92-1.12-1.1-15.49-11.94-15.49-11.94Z" transform="translate(-8.25 -30.73)"/><path class="cls-13" d="M194.81,430l-21.58,1.08,1,.8a2,2,0,0,0,1.5.38c1.81,0,6.82-.15,17.64-1.25a1.92,1.92,0,0,0,1.49-1Z" transform="translate(-8.25 -30.73)"/><g class="cls-16"><path class="cls-3" d="M173.22,425.82a1.16,1.16,0,0,1,1.35.73,1.1,1.1,0,0,1-.71,1.34,1.2,1.2,0,0,1-1.42-.77,1.14,1.14,0,0,1,.89-1.32" transform="translate(-8.25 -30.73)"/></g><path class="cls-3" d="M185.9,428.06a5.59,5.59,0,0,1-.06-2.17A6,6,0,0,1,186.9,424s-.28,0-.61.34a2.92,2.92,0,0,0-.84,1.45,3,3,0,0,0,.06,1.69C185.67,427.89,185.86,428.09,185.9,428.06Z" transform="translate(-8.25 -30.73)"/><path class="cls-3" d="M188.64,428.65a15.37,15.37,0,0,1,.45-1.77c.39-.92,1.06-1.43,1-1.53s-.92.33-1.36,1.37A2.11,2.11,0,0,0,188.64,428.65Z" transform="translate(-8.25 -30.73)"/><path class="cls-3" d="M181.89,427.89a17.84,17.84,0,0,1,.5-2.77,20.1,20.1,0,0,1,1.28-2.51,5.18,5.18,0,0,0-1.78,5.28Z" transform="translate(-8.25 -30.73)"/><path class="cls-3" d="M177.36,424.52c.11,0,.45-1,1.27-2.07s1.74-1.65,1.68-1.75a3.56,3.56,0,0,0-2,1.5A3.63,3.63,0,0,0,177.36,424.52Z" transform="translate(-8.25 -30.73)"/><path class="cls-3" d="M174.26,422.35a9.08,9.08,0,0,1,1.27-2.19,8.91,8.91,0,0,1,2.05-1.48c0-.05-.32-.05-.78.12a4.17,4.17,0,0,0-1.58,1.08,4.07,4.07,0,0,0-.91,1.68C174.19,422,174.21,422.34,174.26,422.35Z" transform="translate(-8.25 -30.73)"/><path class="cls-5" d="M60.24,391.8c.28.71-1,23.42,20.58,23.56,19.35.13,45.38-17.61,48.35-16.47,1.94.74,35.34,29.76,35.34,29.76l12.05-14.15s-30.9-29.5-33.94-31.62c-6.51-4.55-11.08-4.51-21.79-2.58-9.58,1.74-33,9.53-33,9.53l-2.26-1.92Z" transform="translate(-8.25 -30.73)"/><path class="cls-13" d="M113.88,382.59l.36-.15,1.08-.4c1-.35,2.37-.83,4.22-1.36a52.25,52.25,0,0,1,6.88-1.44,27.57,27.57,0,0,1,4.39-.31,23.06,23.06,0,0,1,4.89.62,23.67,23.67,0,0,1,10,5.17c3,2.78,6.09,5.81,9.41,9l21.56,20.69.1.1-.09.11L175,416.55c-1.78,2.1-3.63,4.24-5.47,6.2s-3.49,3.95-5.18,5.91l0,.1-18.92-16.37-8.11-7-3.65-3.15L132,400.73c-.28-.24-.55-.48-.83-.69a4.56,4.56,0,0,0-.91-.52,4.67,4.67,0,0,0-3.81.06l-3.19,1.57-5.09,2.49L115,405.2l-.83.39-.29.13.27-.15.82-.42,3.18-1.6,5.06-2.54,3.19-1.58a4.82,4.82,0,0,1,4-.09,5.27,5.27,0,0,1,.95.54c.29.22.56.46.84.7l1.72,1.48,3.66,3.14,8.12,7,19,16.34,0,.1c1.67-2,3.4-4,5.07-6.12s3.3-4.11,5.08-6.19l1.64-1.93v.21c-7.66-7.37-14.94-14.36-21.54-20.72-3.31-3.16-6.42-6.22-9.38-9a23.51,23.51,0,0,0-9.89-5.14,22.15,22.15,0,0,0-4.85-.64,27.48,27.48,0,0,0-4.36.28,53.05,53.05,0,0,0-6.87,1.4c-1.85.5-3.27,1-4.23,1.29l-1.09.38Z" transform="translate(-8.25 -30.73)"/><path class="cls-17" d="M102.06,332.18s7.15,2.84,8,8.88c.71,5-.86,18.46-.84,19.37a3.23,3.23,0,0,0,.75,2.17,5,5,0,0,1,1.36,3.45,5.62,5.62,0,0,1-.44,2.51c-.82,1.38-8.73,10.54-8.73,10.54l-7-14.61s4.61-13.7,4.64-14.05S102.06,332.18,102.06,332.18Z" transform="translate(-8.25 -30.73)"/><path class="cls-14" d="M110.15,368c.31,0,10.62,7.37,10.62,7.37s2.52-4.86,3.65-5a12.19,12.19,0,0,1,4.9,1.56,2.62,2.62,0,0,0,1.67.49c.68.07,1.89,1.77,1.89,1.77l2.32,1.73s-.73,1.35-.92,1.59-1.76-.42-1.74-.67.2,1.52-1,1.58a6.75,6.75,0,0,1-2.76-.77l-.41-2.05-3-1.94-.36,2s3,.62,2.93,1.62a1.54,1.54,0,0,1-1,1.29l-2.5-.06-5.5,1.32s-14.44-3.19-15-4.83S105.92,367.39,110.15,368Z" transform="translate(-8.25 -30.73)"/><path class="cls-17" d="M110.26,364.55a10,10,0,0,1,2.85,4c.64,1.47,7.53,6.5,7.53,6.5l-5.58,4.52s-11.65.48-12.2-1.25,1.28-9.45,1.28-9.45Z" transform="translate(-8.25 -30.73)"/><path class="cls-1" d="M103,384.2h0a1,1,0,0,0,1.17.71l20.25-4.43,17.41-3.17.14-1.54-16.63,2.38L103.74,383A1,1,0,0,0,103,384.2Z" transform="translate(-8.25 -30.73)"/><path class="cls-1" d="M134.64,354.34l-9.36,24a1.33,1.33,0,0,0,1.45,1.79l20.66-3.82a1.32,1.32,0,0,0,1-.83l9.39-23.78a.71.71,0,0,0-.71-1l-21.32,2.8A1.31,1.31,0,0,0,134.64,354.34Z" transform="translate(-8.25 -30.73)"/><path class="cls-5" d="M136.76,353.51c.07,0-2.17,6-5,13.32s-5.22,13.25-5.29,13.22,2.16-6,5-13.33S136.68,353.47,136.76,353.51Z" transform="translate(-8.25 -30.73)"/><path class="cls-3" d="M141.93,364.84c-.58,1.15-.54,2.35.08,2.67s1.61-.37,2.2-1.52.54-2.35-.08-2.67S142.51,363.68,141.93,364.84Z" transform="translate(-8.25 -30.73)"/><path class="cls-17" d="M103.34,380.47s-1.69-7.1-1.35-8.4c1-3.75,6-13.21,5.57-18.87s-5.5-21-5.5-21l-4.84-1.68c-2,4.26-9.55,3.31-15.75-1.69l-7.77,1.57L61.53,368.23,59.48,382c-4.93,6.43.75,9.82.75,9.82s9.38,3,16.79,1.63c5.54-1,13.63-4.89,15.44-6.31,4.33-3.4,11.21-3.17,11.21-3.17Z" transform="translate(-8.25 -30.73)"/><path class="cls-14" d="M89.75,380.82l5.07,2.07s2.82-1.68,3.23-1.83a59.75,59.75,0,0,1,7.13-.88,14.42,14.42,0,0,0,2.35-.15l-6.7,4.12-4.25,5.66a12.89,12.89,0,0,1-3.61.63,39.71,39.71,0,0,1-6.26-1.07Z" transform="translate(-8.25 -30.73)"/><path class="cls-17" d="M74.67,330.27s-8.9.52-12,7.63c-2.09,4.74-6.39,25.6-7,29.42s0,8.46,3.06,10.87S87.08,391.4,87.08,391.4l5.28-10.19L71,367.93h-.7l2.56-15.32" transform="translate(-8.25 -30.73)"/><path class="cls-5" d="M72.84,352.6l0,.26-.12.78c-.11.7-.27,1.71-.48,3-.43,2.64-1,6.47-1.84,11.29l-.09-.11H71L92.44,381.1l.1.06-.06.12-5.27,10.19-.06.12-.13-.06c-5.14-2.2-10.63-4.58-16.25-7.13q-3.33-1.5-6.55-3c-1.07-.52-2.13-1-3.16-1.58a13.91,13.91,0,0,1-3-1.89A8.36,8.36,0,0,1,56.17,375a11.87,11.87,0,0,1-.82-3.28,15.27,15.27,0,0,1,0-3.31c.1-1.09.33-2.13.52-3.17.81-4.15,1.66-8.08,2.48-11.75s1.64-7.07,2.47-10.15c.42-1.55.85-3,1.32-4.38a11.57,11.57,0,0,1,4.55-6,15.54,15.54,0,0,1,2.62-1.42,18.28,18.28,0,0,1,3.95-1.15c.47-.08.83-.12,1.07-.15a2.43,2.43,0,0,1,.36,0l-.36,0c-.24,0-.59.09-1.06.18a18.48,18.48,0,0,0-3.91,1.2,15.44,15.44,0,0,0-2.59,1.43,13.14,13.14,0,0,0-2.56,2.38,12.49,12.49,0,0,0-1.89,3.55c-.46,1.36-.88,2.82-1.29,4.36-.82,3.09-1.62,6.49-2.44,10.16s-1.65,7.59-2.45,11.74c-.19,1-.41,2.09-.51,3.15a16.05,16.05,0,0,0,0,3.25,9.67,9.67,0,0,0,2.67,6,13.2,13.2,0,0,0,2.9,1.83c1,.54,2.09,1.06,3.15,1.58,2.14,1,4.33,2,6.55,3.05,5.61,2.54,11.09,4.93,16.24,7.13l-.19.07,5.29-10.18.05.18L70.93,368l0,0h-.81l0-.11c.82-4.81,1.47-8.64,1.92-11.27.23-1.31.41-2.31.53-3l.14-.77Z" transform="translate(-8.25 -30.73)"/><path class="cls-5" d="M106.78,341.06s-.11.53-.22,1.5a13.7,13.7,0,0,0-.06,1.78c0,.7.12,1.49.23,2.36a48.77,48.77,0,0,1,.63,6.16,19,19,0,0,1-1.19,7.47c-1,2.52-2.25,4.76-3,6.93a14.39,14.39,0,0,0-.63,6c.11,1.75.27,3.17.37,4.15l.12,1.12a2.4,2.4,0,0,1,0,.4,1.76,1.76,0,0,1-.08-.39l-.17-1.12c-.14-1-.34-2.38-.47-4.14a14.28,14.28,0,0,1,.58-6.16c.79-2.21,2.07-4.44,3-6.93a19.36,19.36,0,0,0,1.2-7.37,52.21,52.21,0,0,0-.57-6.14c-.1-.87-.17-1.67-.18-2.37a11.77,11.77,0,0,1,.1-1.8,7.34,7.34,0,0,1,.23-1.12A1.41,1.41,0,0,1,106.78,341.06Z" transform="translate(-8.25 -30.73)"/><path class="cls-5" d="M75.36,345.17s.22-.81.37-2.13a12.34,12.34,0,0,0,0-2.31,14.22,14.22,0,0,0-.55-2.78,13.44,13.44,0,0,0-2.47-4.5c-.86-1-1.51-1.53-1.47-1.58a3.16,3.16,0,0,1,.48.34,9.07,9.07,0,0,1,1.15,1.1,12.33,12.33,0,0,1,2.6,4.55,12.79,12.79,0,0,1,.53,2.85,10.94,10.94,0,0,1-.1,2.36,6.14,6.14,0,0,1-.17.89,3.33,3.33,0,0,1-.19.66A2.24,2.24,0,0,1,75.36,345.17Z" transform="translate(-8.25 -30.73)"/><path class="cls-5" d="M87.7,366.35a12.72,12.72,0,0,0,2.41-.93,9.87,9.87,0,0,0,2.22-1.7A13.67,13.67,0,0,0,94.44,361a18.24,18.24,0,0,0,2.25-5.81c.31-1.58.33-2.58.39-2.57a2.72,2.72,0,0,1,0,.7,12.73,12.73,0,0,1-.19,1.91,17,17,0,0,1-2.2,5.92,12.7,12.7,0,0,1-2.18,2.74,11.4,11.4,0,0,1-1.17,1,9.12,9.12,0,0,1-1.14.69,6.89,6.89,0,0,1-1,.44,4.08,4.08,0,0,1-.8.22A3,3,0,0,1,87.7,366.35Z" transform="translate(-8.25 -30.73)"/><path class="cls-5" d="M64.65,370.71A8.55,8.55,0,0,1,71,367.89a21.71,21.71,0,0,0-3.36,1A20.65,20.65,0,0,0,64.65,370.71Z" transform="translate(-8.25 -30.73)"/><path class="cls-14" d="M108.85,381.37a.92.92,0,0,1-.69.75l-.23,0c-.55,0-.81-1-.81-1l-2.52.34S101,386,99.75,387.29c-5,5.08-6.29,1.41-6.29,1.41l1.55-6,3.18-5.34s-.2.32-.12-.52,1.55-1,1.55-1c.1-.43,1-.84,1-.84l4-.74a2.78,2.78,0,0,1,2.31.63l2.42,2.08s1.44,1.6,1.43,2.08a.82.82,0,0,1-.75.78s.19,1.28-.12,1.43a2.78,2.78,0,0,1-1,.06Z" transform="translate(-8.25 -30.73)"/><path class="cls-15" d="M99.5,380.22s.52-.16,1.36-.38a12.3,12.3,0,0,1,3.33-.38,12.64,12.64,0,0,1,1.84.2,2.71,2.71,0,0,1,1.36.48.54.54,0,0,1,.1.48.69.69,0,0,1-.22.33c-.18.15-.33.13-.32.16a.41.41,0,0,0,.38-.08.75.75,0,0,0,.29-.37.62.62,0,0,0-.09-.63,1.28,1.28,0,0,0-.65-.4c-.25-.07-.51-.14-.8-.2a10.77,10.77,0,0,0-1.88-.22,10.33,10.33,0,0,0-3.39.45A5.13,5.13,0,0,0,99.5,380.22Z" transform="translate(-8.25 -30.73)"/><path class="cls-15" d="M100,382.77c0,.07,1.58-.47,3.55-.95s3.59-.72,3.58-.8a4,4,0,0,0-1.08.07,21.54,21.54,0,0,0-2.57.48,20.72,20.72,0,0,0-2.49.76A4,4,0,0,0,100,382.77Z" transform="translate(-8.25 -30.73)"/><path class="cls-15" d="M108.8,381.28a1.62,1.62,0,0,0-.08-.43,8,8,0,0,0-.34-1.13A5,5,0,0,0,108,379a2.44,2.44,0,0,0-.64-.73,5.52,5.52,0,0,0-1.9-1,6.18,6.18,0,0,0-3.88-.11c-.48.13-.87.26-1.13.35a1.34,1.34,0,0,0-.4.17,12.81,12.81,0,0,0,1.57-.34,7.65,7.65,0,0,1,1.71-.2,8,8,0,0,1,2,.38,5.31,5.31,0,0,1,1.84,1,3.05,3.05,0,0,1,1,1.36C108.59,380.69,108.75,381.3,108.8,381.28Z" transform="translate(-8.25 -30.73)"/><path class="cls-15" d="M101.07,376s.59-.12,1.55-.3,2.38-.5,3.56.47a13.93,13.93,0,0,1,2.88,2.44,8.25,8.25,0,0,1,.81,1.33,1.28,1.28,0,0,0-.1-.41,4.15,4.15,0,0,0-.56-1,12.22,12.22,0,0,0-2.88-2.54,4.72,4.72,0,0,0-1-.53,2.92,2.92,0,0,0-1-.15,9.63,9.63,0,0,0-1.72.24A6.6,6.6,0,0,0,101.07,376Z" transform="translate(-8.25 -30.73)"/><path class="cls-15" d="M102,385l.17-.24.49-.72a26.87,26.87,0,0,1,2-2.53l-.06,0,2.52-.33-.11-.07a2.68,2.68,0,0,0,.22.57,1.17,1.17,0,0,0,.45.49.57.57,0,0,0,.36.05.78.78,0,0,0,.34-.09,1,1,0,0,0,.5-.51l.06-.17v-.07h0s-.24.18-.13.09h.1l.34,0,.35,0,.19,0a.34.34,0,0,0,.2-.11.72.72,0,0,0,.14-.39,2.17,2.17,0,0,0,0-.36,6.11,6.11,0,0,0-.05-.73L110,380a.93.93,0,0,0,.79-.57.77.77,0,0,0,0-.54,2,2,0,0,0-.23-.43,12.15,12.15,0,0,0-1.18-1.52h0l-1.3-1.12-.82-.7a4.9,4.9,0,0,0-.87-.67,2.72,2.72,0,0,0-1-.31,3.61,3.61,0,0,0-1,.1l-3.77.71h0a3.13,3.13,0,0,0-.58.36,1.13,1.13,0,0,0-.44.56l.12-.08a1.38,1.38,0,0,0-1.22.45,1.61,1.61,0,0,0-.31,1.16v-.06L95.91,381l-.59,1a3.51,3.51,0,0,0-.19.36,2.65,2.65,0,0,0,.24-.33l.63-1c.55-.88,1.33-2.11,2.27-3.62l0,0v0a1.41,1.41,0,0,1,.28-1,1.16,1.16,0,0,1,1-.37h.1l0-.09a1,1,0,0,1,.36-.43,3.87,3.87,0,0,1,.55-.34h0l3.78-.68a3,3,0,0,1,1-.09,2.38,2.38,0,0,1,.94.28,4.72,4.72,0,0,1,.82.63l.82.71,1.3,1.11h0a13.21,13.21,0,0,1,1.16,1.48,1.8,1.8,0,0,1,.2.39.5.5,0,0,1,0,.36.7.7,0,0,1-.59.42l-.12,0v.12a5.36,5.36,0,0,1,.06.69,1.24,1.24,0,0,1-.09.59l-.1,0a.37.37,0,0,1-.15,0,1.67,1.67,0,0,1-.32,0h-.41l-.13.1h0v.05s0,.1,0,.14a.78.78,0,0,1-.38.4.77.77,0,0,1-.27.07.42.42,0,0,1-.25,0,1.51,1.51,0,0,1-.56-.92l0-.08h-.09l-2.51.36h0l0,0a23.1,23.1,0,0,0-2,2.59l-.45.74A1.39,1.39,0,0,0,102,385Z" transform="translate(-8.25 -30.73)"/><g class="cls-18"><path d="M96.87,355.35a18.06,18.06,0,0,1-2.41,6c-1.38,2.12-3.12,3.23-5.27,4.56L89,366a8.16,8.16,0,0,0,7.84-10.68Z" transform="translate(-8.25 -30.73)"/></g><rect class="cls-2" x="188.45" y="55.96" width="28.17" height="7.45"/><path class="cls-1" d="M213,102s0,0,0-.13v-.39c0-.35,0-.84,0-1.46,0-1.29,0-3.14-.05-5.47l.09.09-28.17.05.14-.14h0V102l-.14-.14,20.07.07,5.93,0H213s-.05,0-.14,0h-.4l-1.57,0-5.89,0-20.17.06h-.14V102c0-1.2,0-2.42,0-3.66V94.55h0c.29-.29.08-.08.15-.14l28.17,0h.08v.09c0,2.35,0,4.22-.05,5.52,0,.62,0,1.1,0,1.45V102Z" transform="translate(-8.25 -30.73)"/><rect class="cls-2" x="108.45" y="75.96" width="28.17" height="7.45"/><path class="cls-1" d="M133,122s0,0,0-.13v-.39c0-.35,0-.84,0-1.46,0-1.29,0-3.14-.05-5.47l.09.09-28.17.05.14-.14h0V122l-.14-.14,20.07.07,5.93,0H133s-.05,0-.14,0h-.4l-1.57,0-5.89,0-20.17.06h-.14V122c0-1.2,0-2.42,0-3.66v-3.78h0c.29-.29.08-.08.15-.14l28.17,0h.08v.09c0,2.35,0,4.22-.05,5.52,0,.62,0,1.1,0,1.45V122Z" transform="translate(-8.25 -30.73)"/><rect class="cls-2" x="188.45" y="95.96" width="28.17" height="7.45"/><path class="cls-1" d="M213,142s0-.05,0-.13v-.39c0-.35,0-.84,0-1.46,0-1.29,0-3.14-.05-5.47l.09.09-28.17.05.14-.14h0V142l-.14-.14,20.07.07,5.93,0h1.63l-1.57,0-5.89,0-20.17.06h-.14V142c0-1.2,0-2.42,0-3.66v-3.78h0c.29-.29.08-.08.15-.14l28.17,0h.08v.09c0,2.35,0,4.22-.05,5.52,0,.62,0,1.1,0,1.45V142Z" transform="translate(-8.25 -30.73)"/><rect class="cls-1" x="267.41" y="62.31" width="40.99" height="42.73"/><rect class="cls-2" x="264.63" y="62.31" width="40.99" height="42.73"/><path class="cls-1" d="M313.89,135.79h-41V93h41Zm-41,0h41V93.06h-41Z" transform="translate(-8.25 -30.73)"/><rect class="cls-3" x="270.14" y="68.06" width="29.97" height="31.24"/><path class="cls-1" d="M278.4,130.24a4.74,4.74,0,0,1-.74.86c-.48.51-1.15,1.19-1.91,1.93s-1.44,1.41-2,1.88a5.41,5.41,0,0,1-.86.72,4.29,4.29,0,0,1,.73-.86c.48-.5,1.16-1.19,1.91-1.93s1.45-1.41,2-1.88A4.61,4.61,0,0,1,278.4,130.24Z" transform="translate(-8.25 -30.73)"/><path class="cls-1" d="M308.37,130.16a5.87,5.87,0,0,1,.86.74c.5.48,1.19,1.16,1.93,1.91s1.4,1.45,1.87,2a5.94,5.94,0,0,1,.73.86,4,4,0,0,1-.86-.73c-.51-.48-1.19-1.16-1.94-1.91s-1.4-1.45-1.87-2A4.27,4.27,0,0,1,308.37,130.16Z" transform="translate(-8.25 -30.73)"/><path class="cls-1" d="M308.29,98.87A5,5,0,0,1,309,98c.48-.5,1.15-1.19,1.9-1.93s1.45-1.4,2-1.87a4.27,4.27,0,0,1,.87-.72,5.41,5.41,0,0,1-.74.85c-.48.51-1.15,1.19-1.91,1.94s-1.45,1.41-2,1.88A4.42,4.42,0,0,1,308.29,98.87Z" transform="translate(-8.25 -30.73)"/><path class="cls-1" d="M278.32,99a4.74,4.74,0,0,1-.86-.74c-.51-.48-1.19-1.15-1.94-1.9s-1.4-1.45-1.87-2a4.27,4.27,0,0,1-.72-.87,5.41,5.41,0,0,1,.85.74c.51.48,1.19,1.15,1.94,1.91s1.41,1.45,1.88,2A5.41,5.41,0,0,1,278.32,99Z" transform="translate(-8.25 -30.73)"/><path class="cls-1" d="M308.29,130s0-.05,0-.15,0-.25,0-.43c0-.4,0-1,0-1.69,0-1.48,0-3.63,0-6.37,0-5.47,0-13.27-.06-22.6l.12.12H278.4l.13-.13c0,11.47,0,22.2,0,31.24l-.11-.11L300,130l6.08,0h0l-6.05,0-21.71.06h-.12V130c0-9,0-19.77,0-31.24v-.13H308.4v.12c0,9.36,0,17.19-.06,22.68,0,2.72,0,4.86,0,6.34,0,.72,0,1.27,0,1.66,0,.18,0,.32,0,.42Z" transform="translate(-8.25 -30.73)"/><rect class="cls-4" x="280.13" y="78.68" width="10" height="10"/><rect class="cls-1" x="149.82" y="162.91" width="5.13" height="25.54" transform="matrix(1, -0.01, 0.01, 1, -9.19, -29.91)"/><rect class="cls-4" x="105.32" y="163" width="13.29" height="14.1" transform="translate(-9.16 -30.13) rotate(-0.31)"/><rect class="cls-2" x="118.55" y="162.93" width="13.29" height="14.1" transform="translate(-9.16 -30.06) rotate(-0.31)"/><path class="cls-1" d="M105.31,166.93q13.25.1,26.52-.12a.15.15,0,0,0,0-.29c-8.84,0-17.69,0-26.52.17a.12.12,0,0,0,0,.24Z" transform="translate(-8.25 -30.73)"/><rect class="cls-4" x="97.03" y="176.89" width="24.15" height="11.49" transform="translate(-9.23 -30.15) rotate(-0.31)"/><rect class="cls-2" x="121.06" y="176.76" width="24.15" height="11.49" transform="translate(-9.23 -30.02) rotate(-0.31)"/><path class="cls-1" d="M97,180.15c16,.18,32.14,0,48.18-.23a.15.15,0,0,0,0-.29c-16-.08-32.15-.07-48.18.28a.12.12,0,0,0,0,.24Z" transform="translate(-8.25 -30.73)"/><rect class="cls-1" x="79.73" y="157.71" width="93.56" height="5.49"/><rect class="cls-1" x="95.05" y="159.69" width="3.8" height="7.02"/><rect class="cls-1" x="151.74" y="159.69" width="3.8" height="7.02"/><rect class="cls-4" x="154.85" y="153.39" width="5.13" height="35.13" transform="matrix(1, -0.01, 0.01, 1, -9.17, -29.89)"/><rect class="cls-2" x="160.01" y="159.93" width="7.98" height="28.47" transform="translate(-9.19 -29.85) rotate(-0.31)"/><path class="cls-1" d="M167.86,165.4a31.16,31.16,0,0,1-4,.13,31.16,31.16,0,0,1-4-.13,28.11,28.11,0,0,1,4-.14A28.11,28.11,0,0,1,167.86,165.4Z" transform="translate(-8.25 -30.73)"/><path class="cls-1" d="M167.86,164.2a28.11,28.11,0,0,1-4,.14,28.11,28.11,0,0,1-4-.14,28.11,28.11,0,0,1,4-.14A28.11,28.11,0,0,1,167.86,164.2Z" transform="translate(-8.25 -30.73)"/><path class="cls-1" d="M167.86,184.09a28.11,28.11,0,0,1-4,.14,28.11,28.11,0,0,1-4-.14,31.16,31.16,0,0,1,4-.13A31.16,31.16,0,0,1,167.86,184.09Z" transform="translate(-8.25 -30.73)"/><path class="cls-1" d="M167.86,182.9a28.11,28.11,0,0,1-4,.14,28.11,28.11,0,0,1-4-.14,28.11,28.11,0,0,1,4-.14A28.11,28.11,0,0,1,167.86,182.9Z" transform="translate(-8.25 -30.73)"/><path class="cls-1" d="M164,180.29c-.08,0-.14-2.87-.14-6.41s.06-6.42.14-6.42.14,2.87.14,6.42S164.08,180.29,164,180.29Z" transform="translate(-8.25 -30.73)"/><rect class="cls-4" x="159.69" y="136.17" width="8.68" height="21.49"/><path class="cls-1" d="M158.73,159.37a1.48,1.48,0,1,1-1.48-1.47A1.48,1.48,0,0,1,158.73,159.37Z" transform="translate(-8.25 -30.73)"/><rect class="cls-1" x="148.54" y="132.69" width="0.91" height="20.9"/></svg>