<svg id="Layer_6" data-name="Layer 6" xmlns="http://www.w3.org/2000/svg" viewBox="0 0 201.7 127.59"><defs><style>.cls-1{fill:#e1e1e1;}.cls-2{fill:#f5f5f5;}.cls-3{fill:#fff;}.cls-4{fill:#ececec;}.cls-5{fill:#1a2e35;}.cls-6{fill:#8c8c8c;}.cls-7{fill:#1e1e1e;}.cls-8{fill:#010c11;}.cls-9{fill:#fafafa;}.cls-10{fill:#636363;}.cls-11{fill:#f4f4f4;}.cls-12{fill:#3c6652;}.cls-13{fill:#375a64;}.cls-14{fill:#ffbf9d;}.cls-15{fill:#ff9a6c;}.cls-16{opacity:0.6;}.cls-17{fill:#686868;}.cls-18{opacity:0.3;}</style></defs><rect class="cls-1" x="3.05" y="62.65" width="20.44" height="21.31"/><rect class="cls-2" x="1.66" y="62.65" width="20.44" height="21.31"/><path class="cls-1" d="M28.09,103H7.63V81.62H28.09Zm-20.45,0H28.07V81.64H7.64Z" transform="translate(-5.97 -18.98)"/><rect class="cls-3" x="4.41" y="65.52" width="14.95" height="15.58"/><path class="cls-1" d="M10.38,100.18a2.21,2.21,0,0,1-.36.43l-.95,1-1,.94a3.51,3.51,0,0,1-.43.36s.13-.18.36-.43l1-1c.37-.37.72-.7,1-.93A2.62,2.62,0,0,1,10.38,100.18Z" transform="translate(-5.97 -18.98)"/><path class="cls-1" d="M25.33,100.14a2.19,2.19,0,0,1,.43.37c.25.24.59.57,1,.95l.94,1a2.79,2.79,0,0,1,.36.43,2.59,2.59,0,0,1-.43-.37c-.25-.24-.59-.57-1-1s-.71-.72-.94-1A2.79,2.79,0,0,1,25.33,100.14Z" transform="translate(-5.97 -18.98)"/><path class="cls-1" d="M25.29,84.54a2.19,2.19,0,0,1,.37-.43l.95-1c.38-.37.72-.7,1-.93a2.79,2.79,0,0,1,.43-.36,2.59,2.59,0,0,1-.37.43c-.24.25-.57.59-.95,1l-1,.94A2.79,2.79,0,0,1,25.29,84.54Z" transform="translate(-5.97 -18.98)"/><path class="cls-1" d="M10.34,84.58a3.87,3.87,0,0,1-.42-.37c-.26-.24-.6-.58-1-.95l-.93-1a2.09,2.09,0,0,1-.36-.43,2.38,2.38,0,0,1,.42.36c.26.24.6.58,1,1s.7.72.94,1S10.36,84.56,10.34,84.58Z" transform="translate(-5.97 -18.98)"/><path class="cls-1" d="M25.29,100.08V98.94c0-.74,0-1.81,0-3.17,0-2.73,0-6.62,0-11.27l.06,0H10.38l.07-.06c0,5.71,0,11.06,0,15.58l-.06-.06,10.8,0h0l-10.83,0h-.05v0c0-4.52,0-9.87,0-15.58v-.07h15v.06c0,4.67,0,8.57,0,11.3,0,1.36,0,2.43,0,3.17v1.11Z" transform="translate(-5.97 -18.98)"/><rect class="cls-4" x="9.39" y="70.81" width="4.99" height="4.99"/><rect class="cls-1" x="175.58" y="9.97" width="26.11" height="37.85"/><rect class="cls-2" x="174.28" y="9.97" width="26.11" height="37.85"/><rect class="cls-3" x="177.52" y="14.07" width="19.62" height="29.65"/><path class="cls-1" d="M203.11,62.7v-.57c0-.37,0-.92,0-1.62,0-1.42,0-3.5,0-6.11,0-5.23,0-12.63,0-21.35l.06.06H183.49l.07-.07c0,11.18,0,21.5,0,29.65l-.06-.06,14.28,0,3.95,0h-3.91l-14.32,0h-.06v0c0-8.15,0-18.47,0-29.65V33h19.76v.07c0,8.73,0,16.15,0,21.39,0,2.61,0,4.68,0,6.09,0,.71,0,1.25,0,1.62v.41A.79.79,0,0,1,203.11,62.7Z" transform="translate(-5.97 -18.98)"/><path class="cls-1" d="M206.43,29a4.31,4.31,0,0,1-.46.68c-.31.4-.74.95-1.23,1.55s-1,1.12-1.29,1.5a6.64,6.64,0,0,1-.57.59,3.82,3.82,0,0,1,.49-.66c.35-.42.79-.94,1.26-1.52l1.26-1.53A5.26,5.26,0,0,1,206.43,29Z" transform="translate(-5.97 -18.98)"/><path class="cls-3" d="M203.21,62.6a24.4,24.4,0,0,0,3.43,4.28" transform="translate(-5.97 -18.98)"/><path class="cls-1" d="M206.64,66.88a3.18,3.18,0,0,1-.6-.54,16.57,16.57,0,0,1-1.29-1.46,17.7,17.7,0,0,1-1.14-1.58,5.54,5.54,0,0,1-.4-.7,4.7,4.7,0,0,1,.49.65c.28.4.69,1,1.16,1.55s.92,1.1,1.25,1.47S206.65,66.87,206.64,66.88Z" transform="translate(-5.97 -18.98)"/><path class="cls-3" d="M180.24,66.77l3.42-4.22" transform="translate(-5.97 -18.98)"/><path class="cls-1" d="M183.66,62.55A26.91,26.91,0,0,1,182,64.7c-.95,1.17-1.74,2.09-1.77,2.07a24.92,24.92,0,0,1,1.66-2.16A25,25,0,0,1,183.66,62.55Z" transform="translate(-5.97 -18.98)"/><path class="cls-1" d="M180.25,29a23.08,23.08,0,0,1,1.66,2A23.83,23.83,0,0,1,183.46,33a24,24,0,0,1-1.66-2A23.94,23.94,0,0,1,180.25,29Z" transform="translate(-5.97 -18.98)"/><rect class="cls-1" x="184.46" y="20.09" width="6.57" height="18.66"/><rect class="cls-1" x="1.4" y="13.73" width="27.89" height="40.43"/><rect class="cls-2" x="0.01" y="13.73" width="27.89" height="40.43"/><rect class="cls-3" x="3.47" y="18.11" width="20.96" height="31.67"/><path class="cls-1" d="M30.4,68.76v-.61c0-.39,0-1,0-1.73l0-6.53c0-5.58,0-13.49,0-22.8l.07.07h-21l.08-.07c0,11.94,0,23,0,31.67l-.06-.06,15.26,0h4.24l-4.2,0-15.3,0H9.38v-.06c0-8.71,0-19.73,0-31.67V37h21.1v.07c0,9.33,0,17.25,0,22.85,0,2.79,0,5,0,6.51v2.16A.85.85,0,0,1,30.4,68.76Z" transform="translate(-5.97 -18.98)"/><path class="cls-1" d="M34,32.71a6.45,6.45,0,0,1-.5.72c-.32.43-.78,1-1.31,1.66s-1,1.2-1.38,1.6a6,6,0,0,1-.61.63,5.11,5.11,0,0,1,.53-.7L32,35l1.35-1.63A4.21,4.21,0,0,1,34,32.71Z" transform="translate(-5.97 -18.98)"/><path class="cls-3" d="M30.51,68.66a25.94,25.94,0,0,0,3.66,4.57" transform="translate(-5.97 -18.98)"/><path class="cls-1" d="M34.17,73.23a3.68,3.68,0,0,1-.64-.58,19.12,19.12,0,0,1-1.38-1.56,18.71,18.71,0,0,1-1.21-1.68,3.91,3.91,0,0,1-.43-.75,4,4,0,0,1,.51.69c.31.43.74,1,1.25,1.65s1,1.18,1.34,1.57A6.94,6.94,0,0,1,34.17,73.23Z" transform="translate(-5.97 -18.98)"/><path class="cls-3" d="M6,73.1l3.66-4.5" transform="translate(-5.97 -18.98)"/><path class="cls-1" d="M9.63,68.6s-.76,1.05-1.77,2.3A25.37,25.37,0,0,1,6,73.1s.76-1,1.77-2.3A25.37,25.37,0,0,1,9.63,68.6Z" transform="translate(-5.97 -18.98)"/><path class="cls-1" d="M6,32.71a25.62,25.62,0,0,1,1.77,2.12A22.49,22.49,0,0,1,9.4,37a25.62,25.62,0,0,1-1.77-2.12A22.49,22.49,0,0,1,6,32.71Z" transform="translate(-5.97 -18.98)"/><rect class="cls-1" x="10.88" y="24.54" width="7.02" height="19.93"/><rect class="cls-1" x="154.73" y="23.74" width="2.56" height="12.74" transform="translate(-6.13 -18.14) rotate(-0.31)"/><rect class="cls-4" x="132.54" y="23.78" width="6.63" height="7.03" transform="translate(-6.12 -18.25) rotate(-0.31)"/><rect class="cls-2" x="139.13" y="23.74" width="6.63" height="7.03" transform="translate(-6.12 -18.22) rotate(-0.31)"/><path class="cls-1" d="M132.53,25.74c4.4,0,8.82,0,13.22-.06a.07.07,0,1,0,0-.14c-4.4,0-8.82,0-13.22.08a.06.06,0,0,0,0,.12Z" transform="translate(-5.97 -18.98)"/><rect class="cls-4" x="128.4" y="30.71" width="12.04" height="5.73" transform="translate(-6.15 -18.26) rotate(-0.31)"/><rect class="cls-2" x="140.39" y="30.64" width="12.04" height="5.73" transform="translate(-6.15 -18.19) rotate(-0.31)"/><path class="cls-1" d="M128.39,32.33c8,.09,16,0,24-.11.09,0,.09-.15,0-.15-8,0-16,0-24,.14-.07,0-.07.12,0,.12Z" transform="translate(-5.97 -18.98)"/><rect class="cls-1" x="117.92" y="17.49" width="46.66" height="2.74"/><rect class="cls-1" x="125.56" y="18.48" width="1.89" height="3.5"/><rect class="cls-1" x="153.83" y="18.48" width="1.89" height="3.5"/><rect class="cls-4" x="157.24" y="18.99" width="2.56" height="17.52" transform="translate(-6.12 -18.13) rotate(-0.31)"/><rect class="cls-2" x="159.81" y="22.25" width="3.98" height="14.2" transform="translate(-6.13 -18.11) rotate(-0.31)"/><path class="cls-1" d="M163.72,25a28.18,28.18,0,0,1-4,0,32.87,32.87,0,0,1,4,0Z" transform="translate(-5.97 -18.98)"/><path class="cls-1" d="M163.72,24.38a28.18,28.18,0,0,1-4,0,28.18,28.18,0,0,1,4,0Z" transform="translate(-5.97 -18.98)"/><path class="cls-1" d="M163.72,34.3a28.18,28.18,0,0,1-4,0,28.18,28.18,0,0,1,4,0Z" transform="translate(-5.97 -18.98)"/><path class="cls-1" d="M163.72,33.7a28.18,28.18,0,0,1-4,0,28.18,28.18,0,0,1,4,0Z" transform="translate(-5.97 -18.98)"/><path class="cls-1" d="M161.8,32.4s-.07-1.43-.07-3.2,0-3.2.07-3.2.07,1.44.07,3.2S161.84,32.4,161.8,32.4Z" transform="translate(-5.97 -18.98)"/><rect class="cls-4" x="157.8" y="6.75" width="4.33" height="10.71"/><path class="cls-1" d="M159.17,22a.74.74,0,1,1-.74-.74A.74.74,0,0,1,159.17,22Z" transform="translate(-5.97 -18.98)"/><rect class="cls-1" x="152.23" y="5.01" width="0.45" height="10.42"/><rect class="cls-2" x="60.07" y="11.62" width="14.05" height="3.72"/><path class="cls-1" d="M74.15,38.23s0,0,0-.07v-.92c0-.64,0-1.56,0-2.73l.05.05-14.05,0,.07-.07h0v3.69l-.07-.07,10,0,3,0h0l-2.94,0-10.06,0H60V34.54h0l.07-.07,14.05,0h0v0c0,1.18,0,2.11,0,2.76v1Z" transform="translate(-5.97 -18.98)"/><rect class="cls-2" x="182.41" y="54.51" width="14.05" height="3.72"/><path class="cls-1" d="M196.49,81.12v-1c0-.64,0-1.56,0-2.73l0,0-14,0,.07-.07h0v3.69l-.07-.07,10,0,2.95,0h0l-2.93,0-10.06,0h-.07v-.07c0-.6,0-1.21,0-1.83V77.43h0l.08-.07,14,0h0v0c0,1.18,0,2.11,0,2.76v.9A.15.15,0,0,1,196.49,81.12Z" transform="translate(-5.97 -18.98)"/><path class="cls-1" d="M110.15,26.51a.24.24,0,0,1,0-.07v-.92c0-.64,0-1.57,0-2.73l.05,0-14.05,0,.07-.07h0v3.69l-.07-.07,10,0,3,0h0l-2.94,0-10.06,0H96V22.82h0l.07-.07,14.05,0h0v0c0,1.18,0,2.11,0,2.75v1Z" transform="translate(-5.97 -18.98)"/><path class="cls-1" d="M112.05,22.79v-1c0-.65,0-1.57,0-2.71l0,.06-8.44,0,.07-.07h0v3.69l-.07-.07,6,0h1.79l-1.74,0-6.09,0h-.07V19.1h0s.14-.14.07-.08l8.44,0h0v.05c0,1.15,0,2.08,0,2.74,0,.31,0,.55,0,.73A.93.93,0,0,1,112.05,22.79Z" transform="translate(-5.97 -18.98)"/><path class="cls-1" d="M200.69,24.31v-1c0-.64,0-1.57,0-2.73l0,.05-14,0s-.08.07.07-.07h0v1.86c0,.62,0,1.23,0,1.83l-.07-.07,10,0,3,0h0l-2.94,0-10.06,0h-.07V20.62h0l.08-.07,14,0h.05v0c0,1.18,0,2.11,0,2.75v.91A.15.15,0,0,1,200.69,24.31Z" transform="translate(-5.97 -18.98)"/><path class="cls-1" d="M40.93,25.86v-1c0-.65,0-1.57,0-2.73l0,0-14,0s-.08.07.07-.07h0v3.71l-.07-.07,10,0,3,0h0l-2.94,0-10,0h-.07v-.07c0-.6,0-1.21,0-1.83V22.15h0l.08-.07,14,0h0v0c0,1.17,0,2.1,0,2.75v.91A.15.15,0,0,1,40.93,25.86Z" transform="translate(-5.97 -18.98)"/><path class="cls-5" d="M204.12,142.19c0,.05-43.26.08-96.61.08s-96.62,0-96.62-.08,43.25-.07,96.62-.07S204.12,142.15,204.12,142.19Z" transform="translate(-5.97 -18.98)"/><path class="cls-1" d="M169.21,140.72H47.66a7.28,7.28,0,0,1-7.27-7.27V50a5.3,5.3,0,0,1,5.3-5.3H171.47a5,5,0,0,1,5,5v83.72A7.28,7.28,0,0,1,169.21,140.72Z" transform="translate(-5.97 -18.98)"/><path class="cls-5" d="M169.21,140.72l.3,0,.36,0a3.83,3.83,0,0,0,.51-.07l.3-.05.33-.08.37-.1.38-.14a7.71,7.71,0,0,0,.85-.38,5.06,5.06,0,0,0,.44-.26l.23-.14.22-.17a7,7,0,0,0,1.74-1.81,7.13,7.13,0,0,0,1.11-2.82l.07-.41c0-.14,0-.28,0-.42a8.55,8.55,0,0,0,0-.88v-5.9c0-11.48,0-28.08,0-48.6v-28c0-.37,0-.74,0-1.11a4.94,4.94,0,0,0-4.19-4.54l-.28,0H45.54l-.36,0-.36,0-.35.07-.35.1a5.46,5.46,0,0,0-.67.26,5.53,5.53,0,0,0-1.2.79,5.36,5.36,0,0,0-.94,1.08,6.09,6.09,0,0,0-.61,1.29,5.2,5.2,0,0,0-.23,1.41c0,.48,0,1,0,1.45V133c0,.42,0,.83,0,1.25l.09.61c0,.2.1.4.15.6a7.37,7.37,0,0,0,1.07,2.2,7.2,7.2,0,0,0,3.92,2.74c.2.05.39.11.59.14l.6.09c.4,0,.8,0,1.2,0H102.8l48.59,0,13.22,0H151.39l-48.59,0H48.12c-.4,0-.81,0-1.22,0l-.61-.1a4.2,4.2,0,0,1-.59-.14,7.27,7.27,0,0,1-4-2.79,7.76,7.76,0,0,1-1.09-2.24c0-.21-.11-.41-.15-.62l-.1-.62c0-.42,0-.84,0-1.26v-5c0-13.57,0-27.81,0-42.57v-34c0-.48,0-1,0-1.45a5.5,5.5,0,0,1,.24-1.45,5.79,5.79,0,0,1,.63-1.33,4.9,4.9,0,0,1,1-1.11,5,5,0,0,1,1.23-.81,5.24,5.24,0,0,1,.69-.28l.35-.09a2.21,2.21,0,0,1,.37-.08l.36,0,.37,0H171.09a5.66,5.66,0,0,1,.58,0H172l.28,0a5.06,5.06,0,0,1,4.29,4.65c0,.38,0,.75,0,1.12v3.29q0,4.36,0,8.57v16.1c0,20.52,0,37.12,0,48.6,0,1.43,0,2.79,0,4.06V133c0,.3,0,.59,0,.88,0,.14,0,.29,0,.43l-.06.41a7.34,7.34,0,0,1-1.12,2.83,7.42,7.42,0,0,1-1.76,1.81l-.22.17-.23.14c-.16.09-.3.19-.45.26a6.2,6.2,0,0,1-.85.38l-.39.14-.36.1-.34.08-.3,0c-.19,0-.36.06-.51.06l-.36,0Z" transform="translate(-5.97 -18.98)"/><path class="cls-1" d="M176.34,142.18H41.73a7,7,0,0,1-7-7v-1.1a.27.27,0,0,1,.27-.27H181.88a.27.27,0,0,1,.27.27v2.33A5.81,5.81,0,0,1,176.34,142.18Z" transform="translate(-5.97 -18.98)"/><path class="cls-5" d="M176.34,142.18h.2a4.28,4.28,0,0,0,.59-.06,5.4,5.4,0,0,0,2.17-.76,5.46,5.46,0,0,0,1.31-1.07,5.82,5.82,0,0,0,1.09-1.73,6,6,0,0,0,.42-2.34v-2c0-.12,0-.24-.08-.31s-.2-.07-.32-.07l-32.78,0-108.17,0H34.89a.2.2,0,0,0-.11.13,1.55,1.55,0,0,0,0,.23v.49c0,.33,0,.65,0,1a6.73,6.73,0,0,0,.41,1.88,8.7,8.7,0,0,0,.39.88,8.57,8.57,0,0,0,.52.81,7,7,0,0,0,3,2.33,7.32,7.32,0,0,0,1.84.47c.63.06,1.27.05,1.91.05H82.91l48.63,0,32.78,0,8.92,0h-8.92l-32.78,0-48.63,0H42.85c-.64,0-1.28,0-1.93,0a7.76,7.76,0,0,1-1.88-.48,7.17,7.17,0,0,1-3-2.38,7.28,7.28,0,0,1-.53-.83,8,8,0,0,1-.4-.9,6.94,6.94,0,0,1-.42-1.92c0-.33,0-.66,0-1v-.49c0-.09,0-.15,0-.27a.33.33,0,0,1,.35-.25h5.79l108.17,0,32.78,0h.18a.37.37,0,0,1,.18.08.32.32,0,0,1,.09.17,1.28,1.28,0,0,1,0,.19v2a5.94,5.94,0,0,1-.43,2.36,5.83,5.83,0,0,1-1.1,1.73,5.35,5.35,0,0,1-1.33,1.08,5.49,5.49,0,0,1-2.18.75c-.26.05-.46,0-.59.05Z" transform="translate(-5.97 -18.98)"/><rect class="cls-6" x="40" y="31.6" width="124.56" height="78.64" rx="1.51"/><path class="cls-7" d="M169,129.22s.09,0,.26,0a1.49,1.49,0,0,0,1.24-1.43V126c0-2.69,0-6.66,0-11.76,0-10.22,0-25,0-43.27V52.36a3.54,3.54,0,0,0,0-.47,1.43,1.43,0,0,0-1.21-1.23,2.5,2.5,0,0,0-.48,0H47.49a1.46,1.46,0,0,0-1.09.5,1.44,1.44,0,0,0-.3.54,2.14,2.14,0,0,0-.06.63v74.85a2.8,2.8,0,0,0,.11,1.09,1.46,1.46,0,0,0,.73.76,1.59,1.59,0,0,0,.52.13h62.48l43.27,0h11.76l-11.76,0-43.27,0H47.39a1.45,1.45,0,0,1-.57-.14,1.6,1.6,0,0,1-.8-.82,1.47,1.47,0,0,1-.12-.58v-18q0-9.48,0-19.35V52.32a2.19,2.19,0,0,1,.07-.67,1.52,1.52,0,0,1,.32-.6,1.64,1.64,0,0,1,1.21-.55H168.76a2.83,2.83,0,0,1,.5,0,1.53,1.53,0,0,1,.87.45,1.51,1.51,0,0,1,.44.88c0,.17,0,.33,0,.49v.47c0,1.27,0,2.53,0,3.78V71c0,18.26,0,33.05,0,43.27,0,5.1,0,9.07,0,11.76v1.78a1.53,1.53,0,0,1-.56,1.12,1.52,1.52,0,0,1-.71.32l-.19,0Z" transform="translate(-5.97 -18.98)"/><polygon class="cls-5" points="89.05 114.64 90.88 117.75 116.63 117.75 118.33 114.64 89.05 114.64"/><path class="cls-5" d="M109.44,47.92a1,1,0,1,1-1-1A1,1,0,0,1,109.44,47.92Z" transform="translate(-5.97 -18.98)"/><rect class="cls-2" x="82.62" y="70.17" width="39.58" height="6.84" rx="1.45"/><rect class="cls-2" x="82.66" y="79.56" width="39.58" height="6.84" rx="1.45"/><path class="cls-5" d="M91.3,92.52v-.9h.23v.89c0,.35.16.51.44.51s.45-.16.45-.51v-.89h.22v.9a.67.67,0,1,1-1.34,0Z" transform="translate(-5.97 -18.98)"/><path class="cls-5" d="M92.92,93.07,93,92.9a.77.77,0,0,0,.42.12c.2,0,.28-.06.28-.16,0-.27-.75,0-.75-.51,0-.21.19-.36.49-.36a.84.84,0,0,1,.44.11l-.09.17a.63.63,0,0,0-.35-.09c-.19,0-.28.07-.28.16,0,.28.76,0,.76.52,0,.21-.2.35-.52.35A.84.84,0,0,1,92.92,93.07Z" transform="translate(-5.97 -18.98)"/><path class="cls-5" d="M95.28,92.67h-1a.4.4,0,0,0,.43.35.41.41,0,0,0,.34-.14l.12.14a.65.65,0,0,1-1.11-.42.6.6,0,1,1,1.19,0Zm-1-.15h.76a.37.37,0,0,0-.38-.35A.37.37,0,0,0,94.31,92.52Z" transform="translate(-5.97 -18.98)"/><path class="cls-5" d="M96.22,92v.21h0a.35.35,0,0,0-.37.4v.6h-.22V92h.21v.2A.45.45,0,0,1,96.22,92Z" transform="translate(-5.97 -18.98)"/><path class="cls-5" d="M97.63,92.51v.69h-.22v-.66c0-.24-.12-.35-.32-.35a.35.35,0,0,0-.38.39v.62h-.22V92h.21v.18a.52.52,0,0,1,.43-.19A.47.47,0,0,1,97.63,92.51Z" transform="translate(-5.97 -18.98)"/><path class="cls-5" d="M99,92.48v.72h-.21V93a.43.43,0,0,1-.39.17c-.27,0-.44-.14-.44-.35s.12-.35.48-.35h.34v0c0-.19-.11-.29-.32-.29a.6.6,0,0,0-.38.13L98,92.15a.78.78,0,0,1,.49-.16C98.79,92,99,92.15,99,92.48Zm-.22.35v-.16h-.33c-.22,0-.28.08-.28.18s.1.2.26.2A.35.35,0,0,0,98.76,92.83Z" transform="translate(-5.97 -18.98)"/><path class="cls-5" d="M101.36,92.51v.69h-.21v-.66c0-.24-.12-.35-.31-.35a.34.34,0,0,0-.36.39v.62h-.22v-.66c0-.24-.11-.35-.31-.35s-.35.13-.35.39v.62h-.22V92h.21v.18A.48.48,0,0,1,100,92a.43.43,0,0,1,.41.22.56.56,0,0,1,.46-.22A.46.46,0,0,1,101.36,92.51Z" transform="translate(-5.97 -18.98)"/><path class="cls-5" d="M102.85,92.67h-1a.4.4,0,0,0,.43.35.45.45,0,0,0,.35-.14l.12.14a.64.64,0,0,1-.48.19.61.61,0,1,1,0-1.22.58.58,0,0,1,.59.62Zm-1-.15h.77a.39.39,0,0,0-.39-.35A.37.37,0,0,0,101.88,92.52Z" transform="translate(-5.97 -18.98)"/><rect class="cls-8" x="82.72" y="90.15" width="39.58" height="6.84" rx="1.45"/><path class="cls-3" d="M104.91,111.8h.44V113h.76v.36h-1.2Z" transform="translate(-5.97 -18.98)"/><path class="cls-3" d="M106.18,112.77a.7.7,0,0,1,1.39,0,.7.7,0,0,1-1.39,0Zm.95,0a.26.26,0,1,0-.51,0c0,.19.11.3.25.3A.26.26,0,0,0,107.13,112.77Z" transform="translate(-5.97 -18.98)"/><path class="cls-3" d="M109.08,112.16v1a.63.63,0,0,1-.72.69,1.15,1.15,0,0,1-.61-.16l.16-.31a.66.66,0,0,0,.41.14c.23,0,.33-.11.33-.3v0a.44.44,0,0,1-.36.14.59.59,0,1,1,0-1.18.45.45,0,0,1,.38.17v-.15Zm-.42.57a.27.27,0,1,0-.27.25A.25.25,0,0,0,108.66,112.73Z" transform="translate(-5.97 -18.98)"/><path class="cls-3" d="M110,111.8h.45v1.59H110Z" transform="translate(-5.97 -18.98)"/><path class="cls-3" d="M112.08,112.69v.7h-.43v-.63c0-.18-.07-.25-.2-.25s-.24.08-.24.28v.6h-.43v-1.23h.41v.14a.5.5,0,0,1,.39-.16A.48.48,0,0,1,112.08,112.69Z" transform="translate(-5.97 -18.98)"/><path class="cls-5" d="M91.71,102a.6.6,0,1,1-.59-.6A.6.6,0,0,1,91.71,102Z" transform="translate(-5.97 -18.98)"/><path class="cls-5" d="M93.58,102a.59.59,0,0,1-.59.59.6.6,0,1,1,0-1.19A.59.59,0,0,1,93.58,102Z" transform="translate(-5.97 -18.98)"/><path class="cls-5" d="M95.45,102a.59.59,0,0,1-.59.59.6.6,0,1,1,0-1.19A.59.59,0,0,1,95.45,102Z" transform="translate(-5.97 -18.98)"/><path class="cls-5" d="M97.32,102a.59.59,0,0,1-.59.59.6.6,0,1,1,0-1.19A.59.59,0,0,1,97.32,102Z" transform="translate(-5.97 -18.98)"/><path class="cls-5" d="M99.2,102a.6.6,0,0,1-.6.59.6.6,0,0,1,0-1.19A.6.6,0,0,1,99.2,102Z" transform="translate(-5.97 -18.98)"/><path class="cls-5" d="M101.07,102a.6.6,0,0,1-.6.59.6.6,0,0,1,0-1.19A.6.6,0,0,1,101.07,102Z" transform="translate(-5.97 -18.98)"/><path class="cls-5" d="M102.94,102a.6.6,0,1,1-.6-.6A.6.6,0,0,1,102.94,102Z" transform="translate(-5.97 -18.98)"/><path class="cls-5" d="M104.81,102a.6.6,0,1,1-.6-.6A.6.6,0,0,1,104.81,102Z" transform="translate(-5.97 -18.98)"/><path class="cls-1" d="M125.12,101.56H125v-.22a.74.74,0,0,0-1.47,0v.22h-.23a.27.27,0,0,0-.27.27V103a.27.27,0,0,0,.27.27h1.85a.27.27,0,0,0,.28-.27v-1.2A.27.27,0,0,0,125.12,101.56Zm-.64,1.35h-.56l.14-.36a.32.32,0,0,1-.17-.28.31.31,0,0,1,.62,0,.33.33,0,0,1-.18.28Zm.27-1.35h-1v-.22a.52.52,0,0,1,1,0Z" transform="translate(-5.97 -18.98)"/><circle class="cls-9" cx="108.29" cy="70.71" r="10.32" transform="translate(15.34 147.46) rotate(-80.88)"/><path class="cls-5" d="M118.61,70.71a.92.92,0,0,1,0-.16l0-.49,0-.36c0-.14,0-.28-.06-.43a7.29,7.29,0,0,0-.22-1.07,9.55,9.55,0,0,0-1.14-2.73,10.3,10.3,0,0,0-6.93-4.83,9.41,9.41,0,0,0-1.3-.15l-.67,0-.68,0-.34,0-.34,0-.69.12a9.71,9.71,0,0,0-1.37.4,10.43,10.43,0,0,0-1.34.58l-.63.39a5.19,5.19,0,0,0-.62.42,13.62,13.62,0,0,0-1.17,1,11.65,11.65,0,0,0-1,1.19,9.81,9.81,0,0,0-1.46,2.82,10.14,10.14,0,0,0,0,6.47l.27.76.35.72a3.9,3.9,0,0,0,.19.35l.21.34.2.33.24.32A12.84,12.84,0,0,0,101,78a13.62,13.62,0,0,0,1.17,1,5.19,5.19,0,0,0,.62.42c.21.13.42.27.63.38a10.51,10.51,0,0,0,1.34.59,9.71,9.71,0,0,0,1.37.4c.23.05.46.08.69.12l.34,0,.34,0,.68,0,.67,0a9.41,9.41,0,0,0,1.3-.15,10.08,10.08,0,0,0,4.31-1.92A10.21,10.21,0,0,0,117.12,76a9.79,9.79,0,0,0,1.14-2.73,7.86,7.86,0,0,0,.22-1.07c0-.15,0-.3.06-.43l0-.36,0-.49a1.15,1.15,0,0,1,0-.17v.17l0,.49v.37c0,.13,0,.27-.06.43a7.28,7.28,0,0,1-.2,1.07A9.92,9.92,0,0,1,117.19,76,10.43,10.43,0,0,1,114.57,79a10.26,10.26,0,0,1-4.36,2,11.16,11.16,0,0,1-1.31.16c-.23,0-.45,0-.68,0l-.69,0-.34,0-.35-.05-.7-.11a11.68,11.68,0,0,1-2.74-1c-.22-.12-.43-.26-.65-.39a4.38,4.38,0,0,1-.63-.43,12.25,12.25,0,0,1-1.18-1,11.74,11.74,0,0,1-1-1.2l-.24-.32-.21-.34-.21-.35a2.37,2.37,0,0,1-.19-.35l-.35-.74L98.43,74a10.41,10.41,0,0,1,0-6.56,10.11,10.11,0,0,1,1.49-2.86,10.76,10.76,0,0,1,1-1.2,12.25,12.25,0,0,1,1.18-1,5,5,0,0,1,.63-.43c.22-.13.43-.27.65-.39a10.63,10.63,0,0,1,1.35-.59,12.17,12.17,0,0,1,1.39-.41l.7-.11.34,0a2.11,2.11,0,0,1,.35,0l.69,0c.23,0,.45,0,.68,0a8.09,8.09,0,0,1,1.31.16,10.36,10.36,0,0,1,7,4.9,9.8,9.8,0,0,1,1.13,2.77,7.28,7.28,0,0,1,.2,1.07c0,.16,0,.3.06.43v.37l0,.49Z" transform="translate(-5.97 -18.98)"/><path class="cls-10" d="M109.32,70.87a2.38,2.38,0,0,0,1.5-2.19,2.36,2.36,0,1,0-3.22,2.19c-3.63.51-3.46,4.22-3.46,4.22l8.58,0S112.92,71.38,109.32,70.87Z" transform="translate(-5.97 -18.98)"/><path class="cls-5" d="M90.1,120.58H88.86a.36.36,0,0,1-.36-.36V119a.36.36,0,0,1,.36-.35H90.1a.35.35,0,0,1,.35.35v1.24A.36.36,0,0,1,90.1,120.58Zm-1.24-1.81a.21.21,0,0,0-.21.21v1.24a.21.21,0,0,0,.21.21H90.1a.21.21,0,0,0,.21-.21V119a.22.22,0,0,0-.21-.21Z" transform="translate(-5.97 -18.98)"/><path class="cls-5" d="M92.47,120.31l-.26-.36h-.33v.36h-.23v-1.25h.51c.33,0,.53.17.53.45a.38.38,0,0,1-.26.39l.29.41Zm-.32-1h-.27v.5h.27c.21,0,.31-.1.31-.25S92.36,119.26,92.15,119.26Z" transform="translate(-5.97 -18.98)"/><path class="cls-5" d="M93.82,119.91h-.74a.28.28,0,0,0,.3.23.33.33,0,0,0,.26-.11l.12.14a.48.48,0,0,1-.38.15.48.48,0,0,1-.53-.48.48.48,0,0,1,.5-.49.46.46,0,0,1,.48.49A.17.17,0,0,1,93.82,119.91Zm-.75-.15h.54a.25.25,0,0,0-.26-.23A.27.27,0,0,0,93.07,119.76Z" transform="translate(-5.97 -18.98)"/><path class="cls-5" d="M95.63,119.77v.54h-.22v-.52c0-.16-.08-.25-.21-.25s-.25.1-.25.29v.48h-.22v-.52c0-.16-.08-.25-.22-.25s-.25.1-.25.29v.48H94v-1h.21v.12a.41.41,0,0,1,.32-.13.35.35,0,0,1,.32.16.42.42,0,0,1,.35-.16A.37.37,0,0,1,95.63,119.77Z" transform="translate(-5.97 -18.98)"/><path class="cls-5" d="M96.82,119.91h-.75a.3.3,0,0,0,.31.23.35.35,0,0,0,.26-.11l.12.14a.49.49,0,0,1-.38.15.48.48,0,0,1-.53-.48.47.47,0,0,1,.49-.49.46.46,0,0,1,.48.49Zm-.75-.15h.54a.26.26,0,0,0-.27-.23A.26.26,0,0,0,96.07,119.76Z" transform="translate(-5.97 -18.98)"/><path class="cls-5" d="M98.63,119.77v.54h-.22v-.52c0-.16-.08-.25-.21-.25s-.25.1-.25.29v.48h-.23v-.52c0-.16-.07-.25-.21-.25s-.25.1-.25.29v.48H97v-1h.21v.12a.37.37,0,0,1,.31-.13.34.34,0,0,1,.32.16.45.45,0,0,1,.36-.16A.37.37,0,0,1,98.63,119.77Z" transform="translate(-5.97 -18.98)"/><path class="cls-5" d="M99.93,119.84a.46.46,0,0,1-.48.48.41.41,0,0,1-.32-.13v.12h-.21V119h.22v.49a.39.39,0,0,1,.31-.13A.46.46,0,0,1,99.93,119.84Zm-.23,0a.28.28,0,1,0-.56,0,.28.28,0,1,0,.56,0Z" transform="translate(-5.97 -18.98)"/><path class="cls-5" d="M101,119.91h-.74a.28.28,0,0,0,.31.23.33.33,0,0,0,.25-.11l.12.14a.48.48,0,0,1-.38.15.48.48,0,0,1-.53-.48.48.48,0,0,1,.5-.49.46.46,0,0,1,.48.49A.17.17,0,0,1,101,119.91Zm-.75-.15h.55a.26.26,0,0,0-.27-.23A.27.27,0,0,0,100.28,119.76Z" transform="translate(-5.97 -18.98)"/><path class="cls-5" d="M101.8,119.35v.21h0a.25.25,0,0,0-.27.29v.46h-.23v-1h.21v.14A.38.38,0,0,1,101.8,119.35Z" transform="translate(-5.97 -18.98)"/><path class="cls-5" d="M104.09,119.77v.54h-.23v-.52c0-.16-.07-.25-.21-.25s-.25.1-.25.29v.48h-.22v-.52c0-.16-.08-.25-.21-.25s-.25.1-.25.29v.48h-.23v-1h.22v.12a.37.37,0,0,1,.31-.13.35.35,0,0,1,.32.16.45.45,0,0,1,.36-.16A.37.37,0,0,1,104.09,119.77Z" transform="translate(-5.97 -18.98)"/><path class="cls-5" d="M105.27,119.91h-.74a.28.28,0,0,0,.31.23.33.33,0,0,0,.25-.11l.12.14a.48.48,0,0,1-.38.15.48.48,0,0,1-.53-.48.48.48,0,0,1,.5-.49.46.46,0,0,1,.48.49A.17.17,0,0,1,105.27,119.91Zm-.75-.15h.55a.26.26,0,0,0-.27-.23A.27.27,0,0,0,104.52,119.76Z" transform="translate(-5.97 -18.98)"/><path class="cls-11" d="M112.06,119.26v.38h.6v.19h-.6v.48h-.23v-1.25h.91v.2Z" transform="translate(-5.97 -18.98)"/><path class="cls-11" d="M112.84,119.84a.51.51,0,0,1,1,0,.51.51,0,0,1-1,0Zm.79,0a.27.27,0,0,0-.28-.3.3.3,0,0,0,0,.59A.27.27,0,0,0,113.63,119.84Z" transform="translate(-5.97 -18.98)"/><path class="cls-11" d="M114.62,119.35v.21h-.05a.26.26,0,0,0-.28.29v.46h-.22v-1h.21v.14A.38.38,0,0,1,114.62,119.35Z" transform="translate(-5.97 -18.98)"/><path class="cls-11" d="M115.75,119.36v.81c0,.34-.18.5-.52.5a.81.81,0,0,1-.46-.13l.1-.17a.56.56,0,0,0,.35.11c.21,0,.3-.09.3-.29v0a.41.41,0,0,1-.32.13.46.46,0,0,1-.48-.46.45.45,0,0,1,.48-.46.38.38,0,0,1,.33.14v-.13Zm-.22.45a.29.29,0,1,0-.29.27A.27.27,0,0,0,115.53,119.81Z" transform="translate(-5.97 -18.98)"/><path class="cls-11" d="M116,119.84a.48.48,0,0,1,.51-.49.49.49,0,1,1,0,1A.48.48,0,0,1,116,119.84Zm.79,0a.28.28,0,1,0-.56,0,.28.28,0,1,0,.56,0Z" transform="translate(-5.97 -18.98)"/><path class="cls-11" d="M117.76,120.26a.35.35,0,0,1-.21.06.29.29,0,0,1-.33-.32v-.46h-.16v-.17h.16v-.22h.22v.22h.26v.17h-.26V120a.12.12,0,0,0,.13.14.18.18,0,0,0,.13,0Z" transform="translate(-5.97 -18.98)"/><path class="cls-11" d="M119.51,119.51c0,.27-.21.44-.54.44h-.28v.36h-.23v-1.25H119C119.3,119.06,119.51,119.23,119.51,119.51Zm-.24,0c0-.16-.1-.25-.31-.25h-.27v.5H119C119.17,119.76,119.27,119.66,119.27,119.51Z" transform="translate(-5.97 -18.98)"/><path class="cls-11" d="M120.51,119.75v.56h-.22v-.11a.33.33,0,0,1-.3.12c-.21,0-.35-.11-.35-.28s.11-.28.4-.28h.24v0c0-.13-.08-.21-.24-.21a.45.45,0,0,0-.28.1l-.09-.16a.65.65,0,0,1,.4-.12C120.35,119.35,120.51,119.48,120.51,119.75Zm-.23.26v-.11h-.23c-.15,0-.19.06-.19.13s.07.13.18.13A.24.24,0,0,0,120.28,120Z" transform="translate(-5.97 -18.98)"/><path class="cls-11" d="M120.68,120.22l.09-.17a.67.67,0,0,0,.33.09c.14,0,.2,0,.2-.1s-.59,0-.59-.39c0-.18.16-.3.42-.3a.8.8,0,0,1,.36.08l-.09.17a.54.54,0,0,0-.27-.07c-.14,0-.2,0-.2.11s.59,0,.59.39c0,.18-.17.29-.44.29A.79.79,0,0,1,120.68,120.22Z" transform="translate(-5.97 -18.98)"/><path class="cls-11" d="M121.6,120.22l.09-.17a.67.67,0,0,0,.33.09c.14,0,.2,0,.2-.1s-.59,0-.59-.39c0-.18.16-.3.42-.3a.8.8,0,0,1,.36.08l-.09.17a.54.54,0,0,0-.27-.07c-.14,0-.2,0-.2.11s.59,0,.59.39c0,.18-.17.29-.44.29A.79.79,0,0,1,121.6,120.22Z" transform="translate(-5.97 -18.98)"/><path class="cls-11" d="M124.1,119.36l-.35,1h-.22l-.24-.65-.25.65h-.22l-.35-1h.21l.25.7.27-.7h.18l.26.71.26-.71Z" transform="translate(-5.97 -18.98)"/><path class="cls-11" d="M124.15,119.84a.51.51,0,1,1,.5.48A.48.48,0,0,1,124.15,119.84Zm.79,0a.28.28,0,0,0-.29-.3.27.27,0,0,0-.28.3.27.27,0,0,0,.28.29A.28.28,0,0,0,124.94,119.84Z" transform="translate(-5.97 -18.98)"/><path class="cls-11" d="M125.93,119.35v.21h-.06a.25.25,0,0,0-.27.29v.46h-.23v-1h.22v.14A.37.37,0,0,1,125.93,119.35Z" transform="translate(-5.97 -18.98)"/><path class="cls-11" d="M127,119v1.32h-.21v-.12a.41.41,0,0,1-.32.13.49.49,0,0,1,0-1,.4.4,0,0,1,.31.13V119Zm-.22.85a.27.27,0,0,0-.28-.3.3.3,0,0,0,0,.59A.27.27,0,0,0,126.82,119.84Z" transform="translate(-5.97 -18.98)"/><path class="cls-11" d="M127.88,119.41c0-.1-.09-.17-.22-.17a.32.32,0,0,0-.29.14l-.18-.12a.58.58,0,0,1,.49-.21c.26,0,.43.11.43.32s-.3.32-.3.53h-.23C127.58,119.63,127.88,119.58,127.88,119.41Zm-.33.78a.14.14,0,0,1,.15-.14.14.14,0,0,1,.14.14.13.13,0,0,1-.14.13A.14.14,0,0,1,127.55,120.19Z" transform="translate(-5.97 -18.98)"/><path class="cls-5" d="M89.38,120l-.07,0-.28-.23a.11.11,0,0,1,0-.16.11.11,0,0,1,.15,0l.2.17.48-.53a.11.11,0,1,1,.16.15l-.55.6A.11.11,0,0,1,89.38,120Z" transform="translate(-5.97 -18.98)"/><path class="cls-1" d="M124.8,92.62a.82.82,0,0,0,.49-.77.78.78,0,1,0-1.55,0,.85.85,0,0,0,.49.78,1.42,1.42,0,0,0-1.14,1.48h2.83A1.41,1.41,0,0,0,124.8,92.62Z" transform="translate(-5.97 -18.98)"/><path class="cls-5" d="M103.17,83.61h.67v1.82H105V86h-1.79Z" transform="translate(-5.97 -18.98)"/><path class="cls-5" d="M105.07,85a1,1,0,0,1,2.05,0,1,1,0,0,1-2.05,0Zm1.41,0a.39.39,0,1,0-.39.44A.39.39,0,0,0,106.48,85Z" transform="translate(-5.97 -18.98)"/><path class="cls-5" d="M109.37,84.14v1.48c0,.69-.39,1-1.07,1a1.65,1.65,0,0,1-.9-.23l.23-.45a1.06,1.06,0,0,0,.62.19c.34,0,.48-.15.48-.43v-.07a.66.66,0,0,1-.54.22.88.88,0,1,1,0-1.75.66.66,0,0,1,.57.25v-.22Zm-.63.84a.37.37,0,0,0-.4-.37.37.37,0,1,0,0,.74A.37.37,0,0,0,108.74,85Z" transform="translate(-5.97 -18.98)"/><path class="cls-5" d="M110.78,83.61h.67V86h-.67Z" transform="translate(-5.97 -18.98)"/><path class="cls-5" d="M113.82,84.91v1h-.63V85c0-.26-.12-.37-.3-.37s-.36.12-.36.42V86h-.64V84.14h.61v.19a.77.77,0,0,1,.57-.22A.7.7,0,0,1,113.82,84.91Z" transform="translate(-5.97 -18.98)"/><path class="cls-5" d="M163.51,57.58h-4.77a.35.35,0,0,1-.35-.34V54.87a.34.34,0,0,1,.34-.34h4.78a.07.07,0,0,1,.08.08v.78h.52a.09.09,0,0,1,.08.09v1.14a.09.09,0,0,1-.08.09h-.52v.78A.08.08,0,0,1,163.51,57.58Zm-.09-2.88h-4.69a.16.16,0,0,0-.16.17v2.37a.17.17,0,0,0,.17.17h4.68v-.79a.09.09,0,0,1,.09-.08H164v-1h-.51a.09.09,0,0,1-.09-.09Z" transform="translate(-5.97 -18.98)"/><path class="cls-5" d="M159,56.73V55.38a.29.29,0,0,1,.29-.29h2.24a.29.29,0,0,1,.29.29v1.35a.29.29,0,0,1-.29.29h-2.24A.29.29,0,0,1,159,56.73Z" transform="translate(-5.97 -18.98)"/><rect class="cls-12" x="6.22" y="117.4" width="21.16" height="1.81"/><rect class="cls-3" x="25.79" y="117.4" width="0.36" height="1.81"/><rect class="cls-3" x="25.03" y="117.4" width="0.36" height="1.81"/><rect class="cls-3" x="8.18" y="117.4" width="0.36" height="1.81"/><rect class="cls-3" x="7.42" y="117.4" width="0.36" height="1.81"/><path class="cls-3" d="M29.05,137.78h.07a.3.3,0,0,0,.18-.1.27.27,0,0,0,.07-.13.5.5,0,0,0,0-.18.35.35,0,0,0-.1-.19.31.31,0,0,0-.21-.09H16.49a.31.31,0,0,0-.28.16.33.33,0,0,0-.05.16.34.34,0,0,0,0,.17.31.31,0,0,0,.25.19,1,1,0,0,0,.17,0h-.18a.35.35,0,0,1-.27-.21.38.38,0,0,1,0-.18.34.34,0,0,1,.05-.17.35.35,0,0,1,.31-.18H29.08a.33.33,0,0,1,.22.11.35.35,0,0,1,.1.19.5.5,0,0,1,0,.18.32.32,0,0,1-.08.13.3.3,0,0,1-.18.1h-.07Z" transform="translate(-5.97 -18.98)"/><rect class="cls-13" x="7.25" y="119.19" width="19.65" height="2.59"/><rect class="cls-4" x="7.25" y="119.51" width="19.65" height="1.84"/><path class="cls-5" d="M32.7,138.54s-4.33,0-9.67,0-9.67,0-9.67,0,4.33,0,9.67,0S32.7,138.53,32.7,138.54Z" transform="translate(-5.97 -18.98)"/><path class="cls-5" d="M32.7,139.09H13.36s4.33,0,9.67,0S32.7,139.08,32.7,139.09Z" transform="translate(-5.97 -18.98)"/><path class="cls-5" d="M32.7,139.64s-4.33,0-9.67,0-9.67,0-9.67,0,4.33,0,9.67,0S32.7,139.63,32.7,139.64Z" transform="translate(-5.97 -18.98)"/><path class="cls-5" d="M32.7,140.19H13.36s4.33,0,9.67,0S32.7,140.18,32.7,140.19Z" transform="translate(-5.97 -18.98)"/><rect class="cls-9" x="14.16" y="131.05" width="2.69" height="5.1" transform="translate(25.04 248.23) rotate(180)"/><rect class="cls-5" x="16.85" y="130.87" width="14.45" height="5.53" transform="translate(42.18 248.3) rotate(180)"/><path class="cls-5" d="M14,136.41H17.2v-.36H14a.18.18,0,0,0-.18.18h0A.18.18,0,0,0,14,136.41Z" transform="translate(-5.97 -18.98)"/><path class="cls-5" d="M14,131.23H17.2v-.36H14a.18.18,0,0,0-.18.18h0A.18.18,0,0,0,14,131.23Z" transform="translate(-5.97 -18.98)"/><path class="cls-1" d="M14.16,131.74h2.69s-.6,0-1.35,0S14.16,131.73,14.16,131.74Z" transform="translate(-5.97 -18.98)"/><path class="cls-1" d="M14.16,132.39s.6,0,1.34,0,1.35,0,1.35,0H14.16Z" transform="translate(-5.97 -18.98)"/><path class="cls-1" d="M14.16,133.05h2.69s-.6,0-1.35,0S14.16,133,14.16,133.05Z" transform="translate(-5.97 -18.98)"/><path class="cls-1" d="M14.16,133.7s.6,0,1.34,0,1.35,0,1.35,0H14.16Z" transform="translate(-5.97 -18.98)"/><path class="cls-1" d="M14.16,134.36h2.69s-.6,0-1.35,0S14.16,134.35,14.16,134.36Z" transform="translate(-5.97 -18.98)"/><path class="cls-1" d="M14.16,135s.6,0,1.34,0,1.35,0,1.35,0-.6,0-1.35,0S14.16,135,14.16,135Z" transform="translate(-5.97 -18.98)"/><path class="cls-1" d="M14.16,135.66s.6,0,1.34,0,1.35,0,1.35,0H14.16Z" transform="translate(-5.97 -18.98)"/><rect class="cls-3" x="12.96" y="114.19" width="10.57" height="0.93"/><path class="cls-5" d="M45.87,74.49l-1.94-.58a4.69,4.69,0,0,0-5.55,1.4A8.67,8.67,0,0,0,36.7,81c0,1.31.3,2.68-.23,3.88a6.66,6.66,0,0,1-1.29,1.75A5.29,5.29,0,0,0,34,88.46a1.9,1.9,0,0,0,.45,2,4.43,4.43,0,0,1,.71.57,2.21,2.21,0,0,1,.27,1.23A4.47,4.47,0,0,0,44,93.76a9.83,9.83,0,0,0,.4-4.26A55.39,55.39,0,0,1,45.87,74.49Z" transform="translate(-5.97 -18.98)"/><path class="cls-5" d="M50.06,72.13a6.42,6.42,0,0,0-4.81.78,8.64,8.64,0,0,0-3.63,3.65,8.47,8.47,0,0,0-1,5.33,6.81,6.81,0,0,0,2.84,4.55,6.89,6.89,0,0,0,7.14.08,8.68,8.68,0,0,0,4-6.1,8.29,8.29,0,0,0-.72-5,6.34,6.34,0,0,0-3.86-3.24" transform="translate(-5.97 -18.98)"/><path class="cls-5" d="M44.51,77.36a9.31,9.31,0,0,0,.5-2,4.57,4.57,0,0,1,3.27-3,6.68,6.68,0,0,1,4.52.63,6,6,0,0,1,2.62,2.2,4.8,4.8,0,0,1,.37,4.4l-7.67-2.07a9,9,0,0,1-2.55,1.28,1.79,1.79,0,0,1-.83,0,.74.74,0,0,1-.55-.58A1.46,1.46,0,0,1,44.51,77.36Z" transform="translate(-5.97 -18.98)"/><path class="cls-14" d="M52.71,75.11l-7,.63a1.29,1.29,0,0,0-1.34,1.1L42.7,91.6a4.57,4.57,0,0,0,.62,2.89l.55.92a3.39,3.39,0,0,0,5.67.26,1.9,1.9,0,0,0,.3-.7l.31-1.42c.22-1.3.39-2.64.39-2.62s2.83,0,4-3.53a38.68,38.68,0,0,0,1.18-7.11C55.9,78.11,54.89,75.23,52.71,75.11Z" transform="translate(-5.97 -18.98)"/><path class="cls-5" d="M54.37,83.21a.46.46,0,0,1-.52.39.45.45,0,0,1-.41-.49.48.48,0,0,1,.52-.4A.45.45,0,0,1,54.37,83.21Z" transform="translate(-5.97 -18.98)"/><path class="cls-5" d="M54.81,81.71c-.06.05-.37-.26-.87-.34s-.9.11-.94,0,0-.13.23-.22a1.27,1.27,0,0,1,.76-.11,1.25,1.25,0,0,1,.69.35C54.81,81.57,54.84,81.69,54.81,81.71Z" transform="translate(-5.97 -18.98)"/><path class="cls-5" d="M49.94,82.67a.46.46,0,0,1-.51.4.45.45,0,0,1-.41-.49.46.46,0,0,1,.52-.4A.44.44,0,0,1,49.94,82.67Z" transform="translate(-5.97 -18.98)"/><path class="cls-5" d="M50.09,81c-.07,0-.38-.26-.87-.34s-.9.11-.95,0,.06-.13.23-.22a1.3,1.3,0,0,1,.77-.11,1.22,1.22,0,0,1,.68.35C50.09,80.88,50.12,81,50.09,81Z" transform="translate(-5.97 -18.98)"/><path class="cls-5" d="M51.13,85A2.93,2.93,0,0,1,52,85c.13,0,.25,0,.29-.08a.76.76,0,0,0,0-.39c-.08-.33-.15-.67-.23-1a18.51,18.51,0,0,1-.44-2.66,16,16,0,0,1,.66,2.62c.07.36.14.7.2,1a.75.75,0,0,1,0,.51.33.33,0,0,1-.24.15.75.75,0,0,1-.22,0A4.1,4.1,0,0,1,51.13,85Z" transform="translate(-5.97 -18.98)"/><path class="cls-15" d="M50.54,90.93a9.26,9.26,0,0,1-4.62-2.06s.82,2.69,4.47,2.92Z" transform="translate(-5.97 -18.98)"/><path class="cls-15" d="M50.73,86.16A.88.88,0,0,0,50,85.7a.84.84,0,0,0-.61.21.52.52,0,0,0-.13.59.59.59,0,0,0,.62.26,1.82,1.82,0,0,0,.7-.27.51.51,0,0,0,.16-.13.17.17,0,0,0,0-.18" transform="translate(-5.97 -18.98)"/><path class="cls-5" d="M49.62,85.11c.08,0,0,.54.39,1s1,.49,1,.56-.15.09-.39.06a1.39,1.39,0,0,1-.82-.45,1.22,1.22,0,0,1-.3-.83C49.5,85.22,49.58,85.1,49.62,85.11Z" transform="translate(-5.97 -18.98)"/><path class="cls-5" d="M50.49,79.27c-.07.13-.55,0-1.15,0s-1.09.06-1.15-.07.08-.18.29-.28a1.89,1.89,0,0,1,.89-.16,2,2,0,0,1,.86.24C50.43,79.08,50.52,79.21,50.49,79.27Z" transform="translate(-5.97 -18.98)"/><path class="cls-5" d="M55.24,79.54c-.1.1-.43-.07-.84-.15s-.77,0-.83-.17,0-.17.22-.25a1.21,1.21,0,0,1,.71-.08,1.18,1.18,0,0,1,.63.34C55.26,79.37,55.29,79.49,55.24,79.54Z" transform="translate(-5.97 -18.98)"/><path class="cls-5" d="M43.38,76.16c1-2,4.38-4.45,6.54-4l3.19,2.57A3.41,3.41,0,0,1,50.47,77c-.64.1-1.39,0-1.83.52s-.34,1.31-.77,1.82c-.59.7-1.9.48-2.38,1.27-.21.34-.19.79-.4,1.13A2.38,2.38,0,0,1,43,82.4c-.48-.23-.37-1.09-.47-1.57a2.46,2.46,0,0,1,.15-1.61C43.06,78.23,42.93,77.11,43.38,76.16Z" transform="translate(-5.97 -18.98)"/><path class="cls-14" d="M44.44,83c0-.26.1-.65-.15-.77-.72-.36-2.25-.63-2.54,1.17a1.86,1.86,0,0,0,2.15,2.28S44.3,84,44.44,83Z" transform="translate(-5.97 -18.98)"/><path class="cls-15" d="M43.3,84.66l-.12,0a.43.43,0,0,1-.32,0,1.06,1.06,0,0,1-.33-1,1.44,1.44,0,0,1,.22-.6.5.5,0,0,1,.37-.27.23.23,0,0,1,.24.16c0,.07,0,.12,0,.13a.15.15,0,0,0,.05-.14.27.27,0,0,0-.07-.17.29.29,0,0,0-.22-.1.6.6,0,0,0-.51.3,1.43,1.43,0,0,0-.26.66,1.12,1.12,0,0,0,.44,1.16.42.42,0,0,0,.4,0C43.29,84.72,43.31,84.66,43.3,84.66Z" transform="translate(-5.97 -18.98)"/><path class="cls-5" d="M52.48,73.91c.11,1,1.48,2.5,2.06,3.36,1.1,1.65,1.29,2.17.88,5.5a7.12,7.12,0,0,0,1.44-3.45,5.43,5.43,0,0,0-1-3.71,4.23,4.23,0,0,0-3.38-1.7" transform="translate(-5.97 -18.98)"/><path class="cls-5" d="M42.54,75.52a7.91,7.91,0,0,1,4.77-3.42" transform="translate(-5.97 -18.98)"/><path class="cls-13" d="M42,85l-.1-.12c-.07-.08-.15-.2-.26-.36A5.63,5.63,0,0,1,41,83.05a10.33,10.33,0,0,1-.3-2.4,7,7,0,0,1,.52-2.9,10.15,10.15,0,0,1,1.42-2.59,8.94,8.94,0,0,1,1.7-1.72,7.28,7.28,0,0,1,1.4-.84l.41-.16.15,0s-.19.09-.53.26a7.39,7.39,0,0,0-1.36.86,9.46,9.46,0,0,0-1.66,1.72,10.23,10.23,0,0,0-1.39,2.56,7.24,7.24,0,0,0-.53,2.85A10.14,10.14,0,0,0,41.09,83a5.65,5.65,0,0,0,.59,1.49C41.87,84.84,42,85,42,85Z" transform="translate(-5.97 -18.98)"/><path class="cls-5" d="M54.38,116.48s14.09-1.6,16.4-2c4.4-.75,8.81,0,10.68,3.75.85,1.73-.23,5.05-2.81,7.52-1.93,1.84-11.49,11.52-11.49,11.52L59,130.43l10.15-7.89L49.44,125.3Z" transform="translate(-5.97 -18.98)"/><path class="cls-5" d="M69,132.55l-5.28,5.57s4,7.32,3.12,8.44l-11.36-10,7.86-9Z" transform="translate(-5.97 -18.98)"/><path class="cls-1" d="M60.64,134.54a.61.61,0,0,0-.78.24.6.6,0,0,0,.24.78.63.63,0,0,0,.82-.26.61.61,0,0,0-.34-.78" transform="translate(-5.97 -18.98)"/><path class="cls-13" d="M55.48,136.56l.79-.91,10.66,10a1.26,1.26,0,0,1-.09.93Z" transform="translate(-5.97 -18.98)"/><path class="cls-3" d="M64,138.23c-.05.05-.35-.17-.78-.23s-.77,0-.8,0,.32-.31.84-.22S64,138.19,64,138.23Z" transform="translate(-5.97 -18.98)"/><path class="cls-3" d="M64.72,139.76c0,.07-.35,0-.74,0s-.66.26-.72.21.19-.39.67-.46S64.77,139.71,64.72,139.76Z" transform="translate(-5.97 -18.98)"/><path class="cls-3" d="M64.17,141.76c-.06,0,.1-.37.5-.54s.77-.07.76,0-.32.08-.65.23S64.23,141.81,64.17,141.76Z" transform="translate(-5.97 -18.98)"/><path class="cls-3" d="M65,136.82c-.07,0-.26-.27-.59-.52s-.66-.38-.65-.45.42-.06.81.25S65.08,136.81,65,136.82Z" transform="translate(-5.97 -18.98)"/><path class="cls-13" d="M72.8,131.59s0,0-.1.12l-.31.33-1.18,1.22-4,4.07,0,0,0,0-1-.86L61,132.23l-1.53-1.3-.41-.36c-.09-.09-.14-.13-.13-.14l.15.11.43.34,1.55,1.27,5.09,4.22,1,.85h-.1l4-4L72.35,132l.33-.31Z" transform="translate(-5.97 -18.98)"/><path class="cls-5" d="M84.8,131.14l6.92,6.1,6.87,3.25a1,1,0,0,1,.42,1.32h0a.94.94,0,0,1-.73.48c-1.94.21-9.08.93-9.56.46s-7.73-6-7.73-6Z" transform="translate(-5.97 -18.98)"/><path class="cls-13" d="M99,141.81l-10.77.53.48.41a1,1,0,0,0,.75.18c.9,0,3.4-.07,8.8-.62a1,1,0,0,0,.74-.5Z" transform="translate(-5.97 -18.98)"/><g class="cls-16"><path class="cls-3" d="M88.24,139.71a.57.57,0,0,1,.67.36.54.54,0,0,1-.35.67.6.6,0,0,1-.71-.38c0-.28.16-.65.44-.66" transform="translate(-5.97 -18.98)"/></g><path class="cls-3" d="M94.56,140.83a3.09,3.09,0,0,1,0-1.09,2.93,2.93,0,0,1,.52-.94s-.14,0-.3.17a1.45,1.45,0,0,0-.42.73,1.5,1.5,0,0,0,0,.83C94.45,140.74,94.54,140.84,94.56,140.83Z" transform="translate(-5.97 -18.98)"/><path class="cls-3" d="M95.93,141.12a7,7,0,0,1,.23-.88,6.88,6.88,0,0,1,.49-.77c0-.05-.46.17-.68.69A1,1,0,0,0,95.93,141.12Z" transform="translate(-5.97 -18.98)"/><path class="cls-3" d="M92.56,140.74a9,9,0,0,1,.26-1.38,9.75,9.75,0,0,1,.63-1.25,2.57,2.57,0,0,0-.89,2.63Z" transform="translate(-5.97 -18.98)"/><path class="cls-3" d="M90.3,139.06c.06,0,.23-.51.64-1s.87-.83.84-.88a1.84,1.84,0,0,0-1,.75A1.87,1.87,0,0,0,90.3,139.06Z" transform="translate(-5.97 -18.98)"/><path class="cls-3" d="M88.76,138a4.5,4.5,0,0,1,.63-1.1,4.56,4.56,0,0,1,1-.73s-.15,0-.39.06a2,2,0,0,0-.78.54,2.12,2.12,0,0,0-.46.83A.65.65,0,0,0,88.76,138Z" transform="translate(-5.97 -18.98)"/><path class="cls-5" d="M31.9,122.74c.14.35-.49,11.68,10.26,11.75,9.65.06,22.63-8.78,24.11-8.21,1,.37,17.63,14.84,17.63,14.84l6-7.06S74.5,119.35,73,118.29C69.74,116,67.45,116,62.11,117c-4.77.86-16.48,4.75-16.48,4.75l-1.12-1Z" transform="translate(-5.97 -18.98)"/><path class="cls-13" d="M58.65,118.15l.18-.07.54-.21c.47-.17,1.18-.41,2.1-.67a26.29,26.29,0,0,1,3.43-.72,13.75,13.75,0,0,1,2.19-.16,11.82,11.82,0,0,1,2.44.31,12,12,0,0,1,5,2.58c1.48,1.39,3,2.9,4.69,4.48L90,134l.05.05-.05.05-.82,1c-.9,1-1.82,2.12-2.73,3.1s-1.75,2-2.59,2.94l0,.06L74.41,133l-4-3.5-1.82-1.57-.85-.74c-.14-.12-.28-.25-.42-.35a2,2,0,0,0-.45-.26,2.36,2.36,0,0,0-1.9,0l-1.59.78-2.54,1.25-1.6.77-.41.2-.14.06.13-.07.41-.21,1.59-.8,2.52-1.26,1.59-.79a2.43,2.43,0,0,1,2,0,3.17,3.17,0,0,1,.47.27c.15.11.28.23.42.35l.86.74,1.82,1.57,4,3.49L84,141.06l0,.05c.84-1,1.7-2,2.53-3.05S88.15,136,89,135l.82-1v.11C86,130.44,82.41,127,79.11,123.79c-1.65-1.58-3.2-3.11-4.68-4.49a11.67,11.67,0,0,0-4.92-2.56,10.53,10.53,0,0,0-2.42-.32,13.7,13.7,0,0,0-2.18.14,28,28,0,0,0-3.42.69c-.93.26-1.64.49-2.11.65l-.55.19Z" transform="translate(-5.97 -18.98)"/><path class="cls-17" d="M52.75,93s3.57,1.41,4,4.43c.35,2.51-.43,9.2-.42,9.66a1.63,1.63,0,0,0,.38,1.08,2.45,2.45,0,0,1,.67,1.72,2.81,2.81,0,0,1-.21,1.25c-.41.69-4.36,5.26-4.36,5.26l-3.5-7.29s2.3-6.83,2.31-7S52.75,93,52.75,93Z" transform="translate(-5.97 -18.98)"/><path class="cls-14" d="M56.79,110.85c.15,0,5.29,3.68,5.29,3.68s1.26-2.43,1.82-2.5a6.1,6.1,0,0,1,2.45.78c.15.18.49.21.83.24s.94.89.94.89l1.16.86s-.36.67-.46.79-.88-.21-.86-.33.09.76-.51.78a3.28,3.28,0,0,1-1.37-.38l-.2-1-1.49-1-.18,1s1.51.31,1.46.81a.78.78,0,0,1-.49.64l-1.25,0-2.74.66s-7.2-1.59-7.47-2.41S54.68,110.57,56.79,110.85Z" transform="translate(-5.97 -18.98)"/><path class="cls-17" d="M56.84,109.15a5,5,0,0,1,1.43,2c.31.73,3.75,3.24,3.75,3.24l-2.78,2.25s-5.81.24-6.09-.62.64-4.71.64-4.71Z" transform="translate(-5.97 -18.98)"/><path class="cls-1" d="M53.22,119h0a.5.5,0,0,0,.58.36l10.11-2.21,8.67-1.58.08-.77-8.3,1.19-10.77,2.4A.5.5,0,0,0,53.22,119Z" transform="translate(-5.97 -18.98)"/><path class="cls-1" d="M69,104.06l-4.67,12a.66.66,0,0,0,.72.9L75.36,115a.65.65,0,0,0,.51-.41l4.68-11.86a.36.36,0,0,0-.36-.48l-10.63,1.39A.67.67,0,0,0,69,104.06Z" transform="translate(-5.97 -18.98)"/><path class="cls-5" d="M70.06,103.64s-1.08,3-2.5,6.65-2.6,6.61-2.64,6.59,1.08-3,2.5-6.64S70,103.63,70.06,103.64Z" transform="translate(-5.97 -18.98)"/><path class="cls-3" d="M72.64,109.3c-.29.57-.28,1.17,0,1.33s.8-.18,1.09-.76.27-1.17,0-1.33S72.93,108.72,72.64,109.3Z" transform="translate(-5.97 -18.98)"/><path class="cls-17" d="M53.39,117.09a22,22,0,0,1-.67-4.19c.48-1.87,3-6.58,2.77-9.41S52.75,93,52.75,93l-2.41-.84c-1,2.13-4.76,1.65-7.86-.84l-3.87.78L32.54,111l-1,6.88c-2.46,3.21.37,4.9.37,4.9s4.68,1.47,8.38.81A25,25,0,0,0,48,120.43c2.17-1.69,5.6-1.58,5.6-1.58Z" transform="translate(-5.97 -18.98)"/><path class="cls-14" d="M46.61,117.27l2.53,1s1.41-.84,1.61-.91a30,30,0,0,1,3.56-.44,6.9,6.9,0,0,0,1.17-.08l-3.34,2.06L50,121.75a6.48,6.48,0,0,1-1.8.31,19.24,19.24,0,0,1-3.12-.53Z" transform="translate(-5.97 -18.98)"/><path class="cls-17" d="M39.09,92.06s-4.43.26-6,3.8c-1,2.37-3.18,12.77-3.5,14.67s0,4.23,1.52,5.42,14.17,6.59,14.17,6.59l2.64-5.08-10.67-6.62H36.9l1.28-7.65" transform="translate(-5.97 -18.98)"/><path class="cls-5" d="M38.18,103.19a1.16,1.16,0,0,1,0,.13l-.06.39q-.09.53-.24,1.5c-.22,1.32-.53,3.23-.92,5.63l0,0h.37L48,117.41l.06,0,0,.06c-.84,1.61-1.72,3.31-2.63,5.08l0,.06-.07,0c-2.56-1.1-5.3-2.29-8.1-3.56-1.11-.5-2.2-1-3.27-1.52-.53-.26-1.06-.52-1.58-.79a6.92,6.92,0,0,1-1.47-.94,4.05,4.05,0,0,1-1-1.43,5.83,5.83,0,0,1-.41-1.63,7.59,7.59,0,0,1,0-1.65,15.78,15.78,0,0,1,.26-1.58c.4-2.07.82-4,1.23-5.86s.82-3.53,1.24-5.07c.21-.77.42-1.5.65-2.18a6.32,6.32,0,0,1,1-1.78,6.54,6.54,0,0,1,1.3-1.2,8.17,8.17,0,0,1,1.31-.71,9.34,9.34,0,0,1,2-.57l.53-.08a.81.81,0,0,1,.18,0l-.18,0-.52.08a8.9,8.9,0,0,0-2,.61,7.7,7.7,0,0,0-1.3.71,5.82,5.82,0,0,0-2.22,3c-.22.68-.44,1.41-.64,2.18-.41,1.54-.81,3.24-1.21,5.07s-.83,3.78-1.23,5.85c-.09.52-.2,1-.25,1.57a8,8,0,0,0,0,1.62,4.83,4.83,0,0,0,1.33,3,7,7,0,0,0,1.44.91l1.58.79c1.07.51,2.15,1,3.26,1.52,2.8,1.26,5.54,2.46,8.1,3.56l-.09,0,2.64-5.08,0,.09-10.65-6.64h-.38v0c.41-2.4.73-4.31,1-5.62l.26-1.5.07-.39Z" transform="translate(-5.97 -18.98)"/><path class="cls-5" d="M55.11,97.44s-.06.26-.11.75a6,6,0,0,0,0,.89,11.1,11.1,0,0,0,.11,1.17,24.23,24.23,0,0,1,.32,3.07,9.46,9.46,0,0,1-.6,3.73c-.48,1.26-1.12,2.37-1.52,3.45a7.26,7.26,0,0,0-.31,3c.05.87.13,1.58.18,2.06l.06.57c0,.13,0,.19,0,.19a1.3,1.3,0,0,1,0-.19l-.08-.56c-.07-.48-.17-1.19-.24-2.07a7.14,7.14,0,0,1,.29-3.06c.4-1.11,1-2.22,1.51-3.46a9.56,9.56,0,0,0,.6-3.68,27.24,27.24,0,0,0-.28-3.06,10.64,10.64,0,0,1-.09-1.18,4.86,4.86,0,0,1,0-.9,3.08,3.08,0,0,1,.11-.55C55.08,97.5,55.1,97.44,55.11,97.44Z" transform="translate(-5.97 -18.98)"/><path class="cls-5" d="M39.44,99.49s.11-.41.18-1.06a5.47,5.47,0,0,0,0-1.16,6.71,6.71,0,0,0-.27-1.38,6.62,6.62,0,0,0-1.23-2.25c-.43-.5-.76-.76-.74-.78s.09,0,.24.16a5.33,5.33,0,0,1,.58.55,6.25,6.25,0,0,1,1.29,2.27,7.06,7.06,0,0,1,.27,1.42,5.46,5.46,0,0,1-.05,1.18,4,4,0,0,1-.09.45q0,.19-.09.33A1.27,1.27,0,0,1,39.44,99.49Z" transform="translate(-5.97 -18.98)"/><path class="cls-5" d="M45.59,110.05a5.74,5.74,0,0,0,1.2-.47,4.5,4.5,0,0,0,.55-.35,6.13,6.13,0,0,0,.56-.49A6.56,6.56,0,0,0,49,107.4a9.13,9.13,0,0,0,1.13-2.9c.15-.79.16-1.29.19-1.28a1.88,1.88,0,0,1,0,.35,7.3,7.3,0,0,1-.1,1,8.6,8.6,0,0,1-1.1,3,6,6,0,0,1-1.67,1.86,4,4,0,0,1-.57.35,2.56,2.56,0,0,1-.5.21,4,4,0,0,1-.4.12A1.3,1.3,0,0,1,45.59,110.05Z" transform="translate(-5.97 -18.98)"/><path class="cls-5" d="M34.1,112.22a3.56,3.56,0,0,1,1.44-1,3.45,3.45,0,0,1,1.73-.36,10.55,10.55,0,0,0-1.67.5A11.51,11.51,0,0,0,34.1,112.22Z" transform="translate(-5.97 -18.98)"/><path class="cls-14" d="M56.14,117.54a.45.45,0,0,1-.34.37.25.25,0,0,1-.12,0c-.27,0-.4-.51-.4-.51l-1.26.17s-1.79,2.27-2.42,2.91c-2.49,2.54-3.13.71-3.13.71l.76-3,1.59-2.66s-.09.16-.06-.26.77-.49.77-.49c.06-.22.49-.42.49-.42l2-.37a1.4,1.4,0,0,1,1.15.31l1.21,1s.72.8.72,1a.4.4,0,0,1-.37.39s.09.64-.07.71a1.36,1.36,0,0,1-.51,0Z" transform="translate(-5.97 -18.98)"/><path class="cls-15" d="M51.48,117s.26-.08.67-.19a6,6,0,0,1,1.67-.19,6.33,6.33,0,0,1,.91.1,1.29,1.29,0,0,1,.68.24.26.26,0,0,1,.05.24.33.33,0,0,1-.11.16.38.38,0,0,1-.16.08.23.23,0,0,0,.19,0,.34.34,0,0,0,.1-.5.67.67,0,0,0-.32-.2l-.4-.1a5.39,5.39,0,0,0-.94-.11,5.3,5.3,0,0,0-1.69.23A2.19,2.19,0,0,0,51.48,117Z" transform="translate(-5.97 -18.98)"/><path class="cls-15" d="M51.72,118.24s.79-.24,1.77-.48,1.79-.35,1.79-.39a1.86,1.86,0,0,0-.54,0,11.4,11.4,0,0,0-1.28.24,10.19,10.19,0,0,0-1.25.38A1.56,1.56,0,0,0,51.72,118.24Z" transform="translate(-5.97 -18.98)"/><path class="cls-15" d="M56.12,117.49s0-.07,0-.21-.09-.33-.18-.56a1.78,1.78,0,0,0-.17-.38,1.08,1.08,0,0,0-.32-.36,2.71,2.71,0,0,0-.95-.52,3.68,3.68,0,0,0-1.06-.18,3.07,3.07,0,0,0-.87.13c-.24.06-.43.13-.56.17l-.2.08a7.85,7.85,0,0,0,.78-.16,3.1,3.1,0,0,1,.85-.1,4,4,0,0,1,1,.18,2.94,2.94,0,0,1,.91.49,1.58,1.58,0,0,1,.48.68A6.86,6.86,0,0,0,56.12,117.49Z" transform="translate(-5.97 -18.98)"/><path class="cls-15" d="M52.26,114.85s.3-.06.77-.15a2.11,2.11,0,0,1,1.78.23,6.89,6.89,0,0,1,1.43,1.22,3.64,3.64,0,0,1,.41.67,1.13,1.13,0,0,0,0-.21,2.49,2.49,0,0,0-.28-.52,6,6,0,0,0-1.44-1.26,2.34,2.34,0,0,0-.49-.27,1.59,1.59,0,0,0-.52-.07,4.81,4.81,0,0,0-.86.12A3.19,3.19,0,0,0,52.26,114.85Z" transform="translate(-5.97 -18.98)"/><path class="cls-15" d="M52.72,119.35s0,0,.09-.13l.24-.35a15.16,15.16,0,0,1,1-1.26h0l1.25-.16-.05,0a1,1,0,0,0,.11.28.58.58,0,0,0,.22.25.29.29,0,0,0,.18,0,.33.33,0,0,0,.17,0,.51.51,0,0,0,.25-.25l0-.09v0h0l-.06,0h.39l.09,0a.24.24,0,0,0,.1,0,.35.35,0,0,0,.07-.2,1.09,1.09,0,0,0,0-.18c0-.12,0-.24,0-.36l-.06.07a.48.48,0,0,0,.4-.29.39.39,0,0,0,0-.26.78.78,0,0,0-.12-.22,6,6,0,0,0-.59-.76h0l-.65-.55-.41-.35a2,2,0,0,0-.43-.33,1.37,1.37,0,0,0-.52-.16,1.77,1.77,0,0,0-.52,0l-1.88.35h0a1.75,1.75,0,0,0-.29.18.57.57,0,0,0-.22.28l.06,0a.69.69,0,0,0-.61.22.82.82,0,0,0-.15.58v0c-.45.76-.83,1.38-1.09,1.83l-.3.5a.78.78,0,0,0-.09.18l.12-.17.31-.48,1.13-1.81h0v0a.69.69,0,0,1,.14-.5.61.61,0,0,1,.52-.19h0l0-.05a.5.5,0,0,1,.18-.21,1.24,1.24,0,0,1,.27-.17h0l1.88-.35a1.63,1.63,0,0,1,.49,0,1.16,1.16,0,0,1,.47.14,2.33,2.33,0,0,1,.41.31l.41.36.64.55h0a6.73,6.73,0,0,1,.58.74.69.69,0,0,1,.1.19.28.28,0,0,1,0,.18.36.36,0,0,1-.29.21h-.06v.06a2,2,0,0,1,0,.34.66.66,0,0,1,0,.3l0,0h-.44l-.07,0h0v0l0,.07a.34.34,0,0,1-.19.2.28.28,0,0,1-.13,0,.16.16,0,0,1-.12,0,.82.82,0,0,1-.29-.46v0h0l-1.25.18h0a12.24,12.24,0,0,0-1,1.29l-.22.37Z" transform="translate(-5.97 -18.98)"/><g class="cls-18"><path d="M50.17,104.57a9.16,9.16,0,0,1-1.21,3,7.5,7.5,0,0,1-2.62,2.28l-.08,0a4.07,4.07,0,0,0,3.91-5.32Z" transform="translate(-5.97 -18.98)"/></g></svg>