<svg id="Layer_2" data-name="Layer 2" xmlns="http://www.w3.org/2000/svg" viewBox="0 0 204.64 152.6"><defs><style>.cls-1{fill:#e1e1e1;}.cls-2{fill:#ececec;}.cls-3{fill:#f5f5f5;}.cls-4{fill:#fff;}.cls-5{fill:#fafafa;}.cls-6{fill:#1a2e35;}.cls-7{fill:#375a64;}.cls-8{fill:#ff735d;}.cls-9{opacity:0.3;}.cls-10{fill:#db8a76;}.cls-11{fill:#9a5d53;}.cls-12,.cls-15{fill:none;}.cls-13{fill:#ffbf9d;}.cls-14{fill:#ff9a6c;}.cls-15{stroke:#44555b;stroke-miterlimit:10;}</style></defs><path class="cls-1" d="M160.53,96.24a.37.37,0,0,0,0-.08v-1c0-.68,0-1.64,0-2.86l.05,0-14.73,0,.07-.07h0v3.89l-.08-.08,10.51,0,3.09,0h0l-3.08,0-10.56,0h-.07v-4h0l.08-.08,14.73,0h.05v0c0,1.23,0,2.21,0,2.88v1Z" transform="translate(-4.68 -9.18)"/><path class="cls-1" d="M162.53,92.34a.28.28,0,0,1,0-.08v-.2l0-.79c0-.68,0-1.64,0-2.83l.06,0-8.86,0c-.06.07.1-.09.08-.07h0v3.89l-.08-.07,6.34,0,1.84,0h0l-1.82,0-6.39,0h-.07v-4h0s.14-.14.07-.08l8.86,0h.05v0c0,1.2,0,2.18,0,2.87,0,.32,0,.58,0,.77S162.53,92.34,162.53,92.34Z" transform="translate(-4.68 -9.18)"/><polygon class="cls-2" points="133.83 110.95 131.01 119.2 138.95 119.2 135.76 110.89 136.57 106.72 132.74 106.72 133.83 110.95"/><path class="cls-2" d="M144.58,110.39s0,0,0,0l-.08.08-.29.31L144,111c-.08.08-.16.18-.24.27a8.79,8.79,0,0,0-.58.68l-.33.4-.33.45c-.23.31-.45.66-.69,1a19.57,19.57,0,0,0-1.29,2.51,21.52,21.52,0,0,0-.89,2.68c-.1.43-.2.83-.26,1.21,0,.19-.07.37-.09.55l-.07.51c0,.33-.06.63-.09.89l0,.36v.84s0,0,0,0v-.88c0-.12,0-.24,0-.37s0-.56.07-.88l.07-.52c0-.18,0-.36.09-.55,0-.39.15-.79.25-1.22a20,20,0,0,1,.88-2.69,19.09,19.09,0,0,1,1.31-2.52c.24-.36.46-.71.7-1q.17-.24.33-.45l.33-.4c.21-.26.42-.47.59-.67l.25-.26.22-.22.31-.29.08-.07Z" transform="translate(-4.68 -9.18)"/><path class="cls-2" d="M146.9,114.32l-.25-.06-.3-.06a3.8,3.8,0,0,0-.4-.06,3.32,3.32,0,0,0-.48,0,5.09,5.09,0,0,0-.56,0,7.36,7.36,0,0,0-1.26.16,7.46,7.46,0,0,0-1.21.4c-.17.08-.34.16-.5.25l-.41.24a3.66,3.66,0,0,0-.33.23,1.83,1.83,0,0,0-.24.19,1.21,1.21,0,0,1-.21.15,1.83,1.83,0,0,1,.19-.18l.23-.2a2.35,2.35,0,0,1,.33-.23,3.21,3.21,0,0,1,.41-.26c.15-.09.32-.17.5-.26a7,7,0,0,1,1.22-.41,7.71,7.71,0,0,1,1.28-.16,5.24,5.24,0,0,1,.57,0l.48,0a3.53,3.53,0,0,1,.4.08l.29.07Z" transform="translate(-4.68 -9.18)"/><path class="cls-2" d="M142.9,108a1.31,1.31,0,0,1-.09.24c-.06.15-.15.37-.25.65a15.43,15.43,0,0,0-.65,2.2,16.27,16.27,0,0,0-.32,2.27c0,.3,0,.53,0,.7s0,.26,0,.26a1.46,1.46,0,0,1,0-.26c0-.17,0-.41,0-.7a14.57,14.57,0,0,1,.3-2.29,13.68,13.68,0,0,1,.67-2.2c.11-.28.21-.5.28-.65S142.9,108,142.9,108Z" transform="translate(-4.68 -9.18)"/><path class="cls-2" d="M145.38,107s0,.08-.13.2-.23.3-.39.53a13.33,13.33,0,0,0-1.89,3.86c-.08.26-.14.48-.17.63s-.07.23-.07.23a.72.72,0,0,1,0-.24c0-.15.09-.37.16-.64a11.61,11.61,0,0,1,.77-2,12.41,12.41,0,0,1,1.12-1.86l.41-.51Z" transform="translate(-4.68 -9.18)"/><path class="cls-2" d="M148.67,107.75a1,1,0,0,1-.2.1l-.54.26a15.47,15.47,0,0,0-1.71,1,15.81,15.81,0,0,0-1.56,1.23l-.44.41a.9.9,0,0,1-.17.15.9.9,0,0,1,.15-.17,5.27,5.27,0,0,1,.42-.43,12.19,12.19,0,0,1,1.55-1.26,13,13,0,0,1,1.74-1l.55-.24A.8.8,0,0,1,148.67,107.75Z" transform="translate(-4.68 -9.18)"/><path class="cls-2" d="M149.32,109.54l-.2.14-.57.34a12.56,12.56,0,0,1-2,.87,11.9,11.9,0,0,1-2.12.52l-.66.08h-.24a1.05,1.05,0,0,1,.24,0l.65-.11a13.68,13.68,0,0,0,2.1-.53,14.84,14.84,0,0,0,2-.86c.25-.12.45-.23.58-.31S149.31,109.53,149.32,109.54Z" transform="translate(-4.68 -9.18)"/><path class="cls-2" d="M149.38,111.56l-.06,0-.2.09c-.16.09-.41.19-.72.32a19,19,0,0,1-2.51.79,17.4,17.4,0,0,1-2.59.39l-.79,0h-.22l.22,0,.79-.06a21.52,21.52,0,0,0,2.58-.41,22.72,22.72,0,0,0,2.49-.76c.32-.12.57-.22.74-.3l.2-.08Z" transform="translate(-4.68 -9.18)"/><path class="cls-2" d="M140.9,109.85s0,.08-.07.22a2.56,2.56,0,0,0-.09.26c0,.1-.07.22-.1.35a7.76,7.76,0,0,0-.19.92,9.87,9.87,0,0,0-.1,1.14,10.15,10.15,0,0,0,.07,1.15,7.91,7.91,0,0,0,.18.92c0,.13.06.25.09.35s.06.19.08.26.07.23.07.23a1.24,1.24,0,0,1-.1-.22,2.3,2.3,0,0,1-.09-.25c0-.11-.08-.22-.11-.35a8,8,0,0,1-.19-.93,8.23,8.23,0,0,1-.08-1.16,9.86,9.86,0,0,1,.1-1.15,7.14,7.14,0,0,1,.22-.93c0-.13.08-.24.11-.34a2.39,2.39,0,0,1,.1-.26A.93.93,0,0,1,140.9,109.85Z" transform="translate(-4.68 -9.18)"/><path class="cls-2" d="M134,103.6l0,0,.11.09c.09.08.24.19.4.35a10.29,10.29,0,0,1,1.32,1.46,13.62,13.62,0,0,1,1.51,2.51,18.1,18.1,0,0,1,1.16,3.38,24.46,24.46,0,0,1,.57,3.54c.11,1.09.16,2.08.18,2.91s0,1.51,0,2v.72a.16.16,0,0,0,0,0v-.14l0-.54c0-.46,0-1.14-.07-2s-.08-1.81-.19-2.91a27.39,27.39,0,0,0-.58-3.52,18,18,0,0,0-1.15-3.37,14.47,14.47,0,0,0-1.48-2.5,11.26,11.26,0,0,0-1.3-1.47c-.16-.17-.3-.28-.39-.37l-.1-.09S134,103.61,134,103.6Z" transform="translate(-4.68 -9.18)"/><path class="cls-2" d="M133.88,112.54l.06,0,.19,0a4.54,4.54,0,0,1,.69-.08,4.32,4.32,0,0,1,2.24.56,4.19,4.19,0,0,1,1.59,1.66,3.78,3.78,0,0,1,.28.64c0,.08,0,.14,0,.19a.28.28,0,0,1,0,.06.91.91,0,0,1-.09-.24,6.38,6.38,0,0,0-.3-.63,4.26,4.26,0,0,0-3.77-2.18,5.37,5.37,0,0,0-.7,0Z" transform="translate(-4.68 -9.18)"/><path class="cls-2" d="M132.66,109.82l.07,0,.2,0a6.2,6.2,0,0,1,.78-.07,5.52,5.52,0,0,1,2.48.57,5.61,5.61,0,0,1,2,1.63,4.87,4.87,0,0,1,.41.65,1.88,1.88,0,0,1,.1.19s0,.07,0,.07l-.14-.24a7.67,7.67,0,0,0-.44-.64,5.62,5.62,0,0,0-4.39-2.17,7,7,0,0,0-.77,0A1.9,1.9,0,0,1,132.66,109.82Z" transform="translate(-4.68 -9.18)"/><path class="cls-2" d="M131,107.08a.14.14,0,0,1,.07,0l.23-.07a6.48,6.48,0,0,1,.85-.15,6,6,0,0,1,2.82.37,6.15,6.15,0,0,1,2.34,1.61,5.61,5.61,0,0,1,.53.69,2.12,2.12,0,0,1,.13.2l0,.07a2.38,2.38,0,0,1-.18-.25,6.64,6.64,0,0,0-.55-.67,6.16,6.16,0,0,0-5.11-2,7.48,7.48,0,0,0-.85.12Z" transform="translate(-4.68 -9.18)"/><path class="cls-2" d="M141.16,107.56l0,.06-.15.17c-.06.07-.13.15-.21.26s-.18.22-.28.36-.2.29-.3.46-.2.36-.31.55a8.7,8.7,0,0,0-.54,1.34,8.93,8.93,0,0,0-.3,1.41c0,.22-.05.43-.05.63a5.14,5.14,0,0,0,0,.55c0,.16,0,.31,0,.45s0,.25,0,.34l0,.21v.08a.31.31,0,0,1,0-.07l0-.22c0-.09,0-.2,0-.34a2.89,2.89,0,0,1,0-.45,5.22,5.22,0,0,1,0-.56c0-.2,0-.41,0-.63a9.15,9.15,0,0,1,.3-1.43,8.31,8.31,0,0,1,.55-1.34c.11-.2.21-.39.32-.55s.21-.32.32-.46a3.76,3.76,0,0,1,.28-.36,1.94,1.94,0,0,1,.23-.25l.15-.16Z" transform="translate(-4.68 -9.18)"/><path class="cls-2" d="M139.8,104.82s-.19.23-.46.62a7.13,7.13,0,0,0-.44.72,8.07,8.07,0,0,0-.43.93,9.83,9.83,0,0,0-.3,1c-.06.31-.11.59-.14.83-.05.48,0,.78-.06.78a1.87,1.87,0,0,1,0-.21,4.2,4.2,0,0,1,0-.58,5,5,0,0,1,.12-.84,7.77,7.77,0,0,1,.29-1,8.24,8.24,0,0,1,.44-.94,7.38,7.38,0,0,1,.46-.71,3.32,3.32,0,0,1,.37-.44Z" transform="translate(-4.68 -9.18)"/><path class="cls-2" d="M137,101.73s0,.08,0,.21-.07.33-.11.58a12.47,12.47,0,0,0-.2,1.91,14.7,14.7,0,0,0,.1,1.93c0,.24.06.44.09.58a.66.66,0,0,1,0,.21s0-.07-.05-.21a3.54,3.54,0,0,1-.11-.58,10.49,10.49,0,0,1-.13-1.93,11.08,11.08,0,0,1,.22-1.92c.05-.25.1-.44.14-.58A.8.8,0,0,1,137,101.73Z" transform="translate(-4.68 -9.18)"/><path class="cls-1" d="M176.34,132.51H125.2a2.28,2.28,0,0,1-2.28-2.28h0A2.28,2.28,0,0,1,125.2,128h51.14a2.28,2.28,0,0,1,2.28,2.28h0A2.28,2.28,0,0,1,176.34,132.51Z" transform="translate(-4.68 -9.18)"/><polygon class="cls-1" points="125.86 122.96 122.27 137.67 123.36 137.67 128.96 123.34 125.86 122.96"/><polygon class="cls-1" points="166.27 122.96 169.86 137.67 168.76 137.67 163.17 123.34 166.27 122.96"/><rect class="cls-1" x="194.3" y="23.92" width="1.75" height="38.05"/><rect class="cls-3" x="168.86" y="24.22" width="25.17" height="37.47" rx="0.03"/><path class="cls-2" d="M199,71.15H173.27a0,0,0,0,1,0,0v-38s0,0,0,0H199s0,0,0,0v38A0,0,0,0,1,199,71.15Zm-25.13-.58h24.54s0,0,0,0V33.71s0,0,0,0H173.85a0,0,0,0,0,0,0V70.55A0,0,0,0,0,173.85,70.57Z" transform="translate(-4.68 -9.18)"/><rect class="cls-4" x="171.39" y="26.53" width="20.15" height="32.82" rx="0.03"/><rect class="cls-2" x="175.79" y="35.83" width="11.31" height="13.26" rx="0.06"/><path class="cls-1" d="M190.89,56.65a2.59,2.59,0,0,1-1.61.16,4,4,0,0,1-1.81-.72,3.69,3.69,0,0,1-1.4-2.21,3.17,3.17,0,0,1,1.07-3,2.68,2.68,0,0,1,.82-.48,2.2,2.2,0,0,1,1-.12,1.74,1.74,0,0,1,1,.45,1.3,1.3,0,0,1,.4,1.18,1.91,1.91,0,0,1-.55,1,4,4,0,0,1-.86.63,4.82,4.82,0,0,1-2,.58,4.1,4.1,0,0,1-2.17-.5A4,4,0,0,1,183.19,52a3.37,3.37,0,0,1-.29-2.31,3.51,3.51,0,0,1,1.22-1.91,3,3,0,0,1,1-.52,2.62,2.62,0,0,1,1.15,0,1.8,1.8,0,0,1,1,.59,1.7,1.7,0,0,1,.41,1.11,2.15,2.15,0,0,1-.27,1.07,2.72,2.72,0,0,1-.65.77,4.14,4.14,0,0,1-1.6.85,3.87,3.87,0,0,1-1.68.13,3.28,3.28,0,0,1-1.47-.56,3.11,3.11,0,0,1-1.4-2.22,2.63,2.63,0,0,1,.52-1.9,2.21,2.21,0,0,1,1-.77c.26-.1.41-.09.42-.07s-.12.09-.34.24a2.43,2.43,0,0,0-.74.8,2.36,2.36,0,0,0-.31,1.63,2.67,2.67,0,0,0,1.25,1.74,3.06,3.06,0,0,0,2.57.25,3.64,3.64,0,0,0,1.28-.73,1.55,1.55,0,0,0,.6-1.21.85.85,0,0,0-.77-.85,1.69,1.69,0,0,0-.74,0,2.25,2.25,0,0,0-.7.37,2.55,2.55,0,0,0-.88,1.4,2.46,2.46,0,0,0,.22,1.68,3,3,0,0,0,1.22,1.27,3.12,3.12,0,0,0,1.67.39,3.91,3.91,0,0,0,1.65-.45,3,3,0,0,0,.66-.47,1.13,1.13,0,0,0,.33-.54.48.48,0,0,0-.14-.44,1,1,0,0,0-.54-.24,1.36,1.36,0,0,0-.64.06,1.93,1.93,0,0,0-.6.32,2.5,2.5,0,0,0-.91,2.31,3.14,3.14,0,0,0,1.08,1.91,3.74,3.74,0,0,0,1.55.77C190.3,56.68,190.88,56.57,190.89,56.65Z" transform="translate(-4.68 -9.18)"/><path class="cls-3" d="M65.33,19.26" transform="translate(-4.68 -9.18)"/><rect class="cls-3" y="31.41" width="13.91" height="23.08"/><rect class="cls-3" x="14.45" y="31.41" width="15.03" height="23.08"/><rect class="cls-3" x="14.45" y="56.1" width="15.03" height="22.3"/><polygon class="cls-3" points="31.4 31.01 47.23 31.01 47.23 10.54 47.76 10.54 47.76 31.01 60.65 31.01 60.65 10.08 31.4 10.08 31.4 31.01"/><rect class="cls-3" x="47.76" y="31.41" width="12.88" height="23.08"/><rect class="cls-3" x="47.76" y="56.1" width="12.88" height="22.3"/><rect class="cls-3" y="56.1" width="13.91" height="22.3"/><rect class="cls-3" x="31.4" y="56.1" width="15.83" height="22.3"/><rect class="cls-3" y="78.8" width="13.91" height="20.1"/><rect class="cls-3" x="47.76" y="78.8" width="12.88" height="20.1"/><polygon class="cls-3" points="13.91 31.01 13.91 10.54 14.45 10.54 14.45 31.01 29.48 31.01 29.48 10.08 0 10.08 0 31.01 13.91 31.01"/><rect class="cls-3" x="31.4" y="78.8" width="15.83" height="20.1"/><rect class="cls-3" x="14.45" y="78.8" width="15.03" height="20.1"/><rect class="cls-3" x="31.4" y="31.41" width="15.83" height="23.08"/><path class="cls-1" d="M66.83,122.44a9.27,9.27,0,0,0-4-1.36,2.65,2.65,0,0,0-1.88.34c-.11.09-.22.21-.19.35A.41.41,0,0,0,61,122a5.67,5.67,0,0,0,5.86.44" transform="translate(-4.68 -9.18)"/><path class="cls-1" d="M66.72,122.33a19.54,19.54,0,0,1-2.56-2.25,6.45,6.45,0,0,1-1.6-3,1.23,1.23,0,0,1,.12-1,10,10,0,0,1,4,6.22" transform="translate(-4.68 -9.18)"/><path class="cls-1" d="M66.8,122.43a9.48,9.48,0,0,1,0-3.36,4.61,4.61,0,0,1,1.79-2.78,3.93,3.93,0,0,1,0,2.64,13,13,0,0,1-1.78,3.74" transform="translate(-4.68 -9.18)"/><path class="cls-1" d="M68.81,126a5.78,5.78,0,0,0-3.18,1.61,6,6,0,0,0-1.82,3.12,4.24,4.24,0,0,0,2.93-1.86c.74-.94,1.24-2,2.05-2.85" transform="translate(-4.68 -9.18)"/><path class="cls-1" d="M69.24,126.59a7.84,7.84,0,0,1,.91-7.42,9.43,9.43,0,0,1-.91,7.42" transform="translate(-4.68 -9.18)"/><path class="cls-1" d="M71.89,129.74a5.65,5.65,0,0,0-3.19.75,5.81,5.81,0,0,0-2.24,2.37.42.42,0,0,0,0,.43.39.39,0,0,0,.36.1A4.67,4.67,0,0,0,69.58,132a28.5,28.5,0,0,1,2.33-2.21" transform="translate(-4.68 -9.18)"/><path class="cls-1" d="M71.8,129.57a10.15,10.15,0,0,1-.1-5.65,2.74,2.74,0,0,1,1.21-1.83.23.23,0,0,1,.18,0c.06,0,.09.08.12.14a3.27,3.27,0,0,1,.28,1.61,10,10,0,0,1-.25,1.64,8.7,8.7,0,0,1-.88,3A6.54,6.54,0,0,0,72,129a4.43,4.43,0,0,1-.2.47" transform="translate(-4.68 -9.18)"/><path class="cls-1" d="M78.81,130.61a7.28,7.28,0,0,1,1.27-6c.09-.12.21-.25.36-.23s.29.32.28.55a10.81,10.81,0,0,1-1.91,5.66" transform="translate(-4.68 -9.18)"/><path class="cls-1" d="M79.44,131a8.69,8.69,0,0,0,7.14-1.45,5.76,5.76,0,0,0-3.87-.47A5.47,5.47,0,0,0,79.44,131" transform="translate(-4.68 -9.18)"/><path class="cls-1" d="M80,129.73A8.25,8.25,0,0,1,86.45,126a4,4,0,0,1-2.12,2.35,12,12,0,0,1-3.11.91,2.17,2.17,0,0,0-1.25.49" transform="translate(-4.68 -9.18)"/><path class="cls-1" d="M78.94,123.35a19,19,0,0,0,.83-3.79A6.34,6.34,0,0,0,79,115.8a8.28,8.28,0,0,0-.11,7.68" transform="translate(-4.68 -9.18)"/><path class="cls-1" d="M83.16,121.22a10.14,10.14,0,0,1,7.49-5.09,8.36,8.36,0,0,1-7.49,5.09" transform="translate(-4.68 -9.18)"/><path class="cls-1" d="M82.24,121.74c2.19.34,4.05,1.73,6.09,2.58a2.77,2.77,0,0,0,1.38.26,1.07,1.07,0,0,0,.68-1.9,2.87,2.87,0,0,0-1-.61,11.12,11.12,0,0,0-7-.39" transform="translate(-4.68 -9.18)"/><path class="cls-1" d="M81,123.28A2.47,2.47,0,0,1,82,124a11.44,11.44,0,0,0,4.62,2.37c.18.05.41.06.5-.1s0-.3-.12-.43A6.4,6.4,0,0,0,84.24,124a7.14,7.14,0,0,0-3.27-.78" transform="translate(-4.68 -9.18)"/><path class="cls-1" d="M79.54,114a8.76,8.76,0,0,0,6.71,2.28.49.49,0,0,0,.31-.11c.17-.18,0-.47-.23-.62A7.74,7.74,0,0,0,79.54,114" transform="translate(-4.68 -9.18)"/><path class="cls-1" d="M81.24,113.39A9.37,9.37,0,0,1,89.61,112a6.64,6.64,0,0,1-4,1.75,12.69,12.69,0,0,1-4.38-.37" transform="translate(-4.68 -9.18)"/><path class="cls-1" d="M80.56,109.13c-.19-2-.06-3.52-.2-5.5,0-.16,0-.35-.19-.4s-.38.17-.45.38a6.35,6.35,0,0,0,.84,5.48" transform="translate(-4.68 -9.18)"/><path class="cls-1" d="M80.42,109.35a11.45,11.45,0,0,0,3.26-3.17,4.29,4.29,0,0,0,1-3,3.11,3.11,0,0,0-2.35,1.17,6.58,6.58,0,0,0-1.2,2.41c-.26.87-.44,1.76-.75,2.61" transform="translate(-4.68 -9.18)"/><path class="cls-1" d="M83.63,108.46a26.21,26.21,0,0,0,8-4.73,4,4,0,0,0-3,.23,9.54,9.54,0,0,0-5.06,4.48" transform="translate(-4.68 -9.18)"/><path class="cls-1" d="M81.32,110.43a16.65,16.65,0,0,0,4.46,0,19.35,19.35,0,0,0,4.16-1.38.52.52,0,0,0,.28-.22.31.31,0,0,0-.1-.35.8.8,0,0,0-.36-.17,7.67,7.67,0,0,0-4.49.27,20.2,20.2,0,0,0-4,1.83" transform="translate(-4.68 -9.18)"/><path class="cls-1" d="M72.87,114.08a7.91,7.91,0,0,1-.08-6.53,5,5,0,0,1,.58,3.25c-.11,1.11-.45,2.26-.47,3.38" transform="translate(-4.68 -9.18)"/><path class="cls-1" d="M68.83,112a9.1,9.1,0,0,0-6.76,2.88,6.28,6.28,0,0,0,3.7-.69,18.07,18.07,0,0,0,3.17-2.12" transform="translate(-4.68 -9.18)"/><path class="cls-1" d="M66.12,111.13a9.5,9.5,0,0,0-3.61.11,4.32,4.32,0,0,0-2.75,2.34,6.52,6.52,0,0,0,3.38-.64,19.73,19.73,0,0,0,3-1.81" transform="translate(-4.68 -9.18)"/><path class="cls-1" d="M70.13,111.17a11.5,11.5,0,0,0-3.54-1.76,3.85,3.85,0,0,0-3.69.89,6.85,6.85,0,0,0,3.53.69,12,12,0,0,1,3.84.39" transform="translate(-4.68 -9.18)"/><path class="cls-1" d="M70.14,111.23a8.21,8.21,0,0,1-1.85-7.76,11.82,11.82,0,0,1,1.85,7.76" transform="translate(-4.68 -9.18)"/><path class="cls-1" d="M75.36,106c.36-.83.61-1.7.93-2.55a7.19,7.19,0,0,1,1.33-2.35A3.44,3.44,0,0,1,80,99.83,9.52,9.52,0,0,1,75.41,106" transform="translate(-4.68 -9.18)"/><path class="cls-1" d="M74.42,107.05a12.75,12.75,0,0,0-2.08-2.53,3.46,3.46,0,0,0-2.83-.74,6.56,6.56,0,0,0,4.91,3.27" transform="translate(-4.68 -9.18)"/><path class="cls-1" d="M74.6,106a14.73,14.73,0,0,1-.93-3,4.77,4.77,0,0,1,.47-3.09,7,7,0,0,1,.52,6.14" transform="translate(-4.68 -9.18)"/><path class="cls-1" d="M75.37,99.9a6.62,6.62,0,0,1,4.31-4.05,1.62,1.62,0,0,1,.75-.11.64.64,0,0,1,.56.47c.07.33-.2.63-.46.85a14.58,14.58,0,0,1-5.16,2.84" transform="translate(-4.68 -9.18)"/><path class="cls-1" d="M75.39,98.31A14.15,14.15,0,0,1,76,94.58a4.76,4.76,0,0,1,2.35-2.84,5.5,5.5,0,0,1-1,3.64,16.52,16.52,0,0,0-1.9,3.34" transform="translate(-4.68 -9.18)"/><path class="cls-1" d="M75.36,99.17c-.49-1.42-.54-3.23-1.39-4.47-.6-.86-1.55-1.45-2.06-2.37A3.58,3.58,0,0,0,72,95a7.52,7.52,0,0,0,1.57,2.26c.63.68,1.17,1.18,1.76,1.89" transform="translate(-4.68 -9.18)"/><path class="cls-1" d="M75.37,141.08s-.07-9.49-.07-21.2,0-21.2.06-21.2.07,9.49.07,21.2S75.41,141.08,75.37,141.08Z" transform="translate(-4.68 -9.18)"/><path class="cls-1" d="M83.67,112.64a2.15,2.15,0,0,1-.36.14l-1,.33c-.83.28-2,.69-3.2,1.2a12.76,12.76,0,0,0-3,1.52,2.42,2.42,0,0,0-.61.8c-.09.23-.11.36-.12.36v-.1c0-.06,0-.16.07-.28a2.21,2.21,0,0,1,.6-.86,5.25,5.25,0,0,1,1.31-.81c.53-.25,1.11-.51,1.73-.76,1.24-.51,2.39-.9,3.23-1.16l1-.29Z" transform="translate(-4.68 -9.18)"/><path class="cls-1" d="M86.38,106s0,0-.1.1l-.3.29-1.14,1-3.78,3.37c-1.48,1.32-2.76,2.57-3.64,3.52-.44.47-.79.86-1,1.14l-.28.31c-.06.07-.1.11-.1.1l.08-.12c.06-.07.14-.19.26-.33s.56-.68,1-1.17A49.9,49.9,0,0,1,81,110.66c1.48-1.31,2.83-2.49,3.81-3.34l1.16-1,.33-.27C86.34,106,86.38,106,86.38,106Z" transform="translate(-4.68 -9.18)"/><path class="cls-1" d="M79.46,112.1s.27-.73.58-1.63.46-1.66.5-1.66a6,6,0,0,1-.37,1.7,8.59,8.59,0,0,1-.46,1.14A1.42,1.42,0,0,1,79.46,112.1Z" transform="translate(-4.68 -9.18)"/><path class="cls-1" d="M75.38,117.84s-.09-.08-.23-.26l-.58-.75c-.49-.63-1.17-1.51-1.93-2.46s-1.46-1.82-2-2.44l-.6-.74c-.14-.17-.21-.27-.2-.28l.24.25c.16.16.37.41.63.71.53.61,1.24,1.46,2,2.41s1.42,1.85,1.9,2.49c.23.33.42.59.54.78A1.65,1.65,0,0,1,75.38,117.84Z" transform="translate(-4.68 -9.18)"/><path class="cls-1" d="M73.56,115.51a3.35,3.35,0,0,1-.76-1.43,3.84,3.84,0,0,1-.17-1.44h.06c0,.11,0,.17-.06.17a.45.45,0,0,1,0-.18h.06a6.48,6.48,0,0,0,.24,1.4A10.22,10.22,0,0,0,73.56,115.51Z" transform="translate(-4.68 -9.18)"/><path class="cls-1" d="M71.21,112.56a2,2,0,0,0-.53-.31,3.53,3.53,0,0,0-1.48-.12,9,9,0,0,0-1.48.24,5.42,5.42,0,0,1-.62.15,2,2,0,0,1,.59-.24,6.87,6.87,0,0,1,1.5-.29,3.25,3.25,0,0,1,1.53.17A.88.88,0,0,1,71.21,112.56Z" transform="translate(-4.68 -9.18)"/><path class="cls-1" d="M70.65,111.84s-.3-.12-.81-.3a8.85,8.85,0,0,0-2-.42,8.21,8.21,0,0,0-2.08.11c-.52.09-.84.19-.85.17a.94.94,0,0,1,.22-.09,3.9,3.9,0,0,1,.61-.18,7.43,7.43,0,0,1,2.11-.14,7.09,7.09,0,0,1,2.05.46,5,5,0,0,1,.59.27C70.59,111.79,70.66,111.83,70.65,111.84Z" transform="translate(-4.68 -9.18)"/><path class="cls-1" d="M75.36,108.81a16.06,16.06,0,0,1-.59-2.06,17.55,17.55,0,0,1-.47-2.1,15.1,15.1,0,0,1,.6,2.06A16.31,16.31,0,0,1,75.36,108.81Z" transform="translate(-4.68 -9.18)"/><path class="cls-1" d="M75.4,108.81a10,10,0,0,0-.66-1.23,5.32,5.32,0,0,0-1-1s.16,0,.37.19a2.91,2.91,0,0,1,.71.73A2.71,2.71,0,0,1,75.4,108.81Z" transform="translate(-4.68 -9.18)"/><path class="cls-1" d="M75.37,136s0-.23-.15-.63a9.35,9.35,0,0,0-.63-1.65A23,23,0,0,0,71.22,129c-.75-.86-1.48-1.67-2.1-2.44a16.83,16.83,0,0,1-1.5-2.17,10.67,10.67,0,0,1-.76-1.6c-.07-.2-.12-.35-.15-.46a1.29,1.29,0,0,1,0-.17,5.12,5.12,0,0,1,.24.61,12.68,12.68,0,0,0,.79,1.58,19,19,0,0,0,1.52,2.13c.62.77,1.35,1.57,2.1,2.43a21.75,21.75,0,0,1,3.35,4.79,8.09,8.09,0,0,1,.6,1.68,3.34,3.34,0,0,1,.09.47C75.37,136,75.37,136,75.37,136Z" transform="translate(-4.68 -9.18)"/><path class="cls-1" d="M82.87,127.55a2.69,2.69,0,0,1-.4.22,8.05,8.05,0,0,0-1,.68,10.88,10.88,0,0,0-1.33,1.22c-.47.49-1,1.07-1.45,1.69-1,1.24-1.91,2.33-2.47,3.21-.28.43-.48.8-.61,1.05s-.21.4-.22.4a.82.82,0,0,1,0-.11c0-.07.07-.18.13-.31a10.46,10.46,0,0,1,.58-1.08,36.93,36.93,0,0,1,2.44-3.25c.5-.62,1-1.19,1.46-1.69a10.94,10.94,0,0,1,1.38-1.21,6.27,6.27,0,0,1,1-.64,2.39,2.39,0,0,1,.31-.14Z" transform="translate(-4.68 -9.18)"/><path class="cls-1" d="M83,130.3a5.28,5.28,0,0,1-.83.12,11.1,11.1,0,0,0-2,.39,6,6,0,0,0-1.76.92c-.41.32-.6.58-.62.56a2.07,2.07,0,0,1,.13-.19,2.44,2.44,0,0,1,.43-.44,5.34,5.34,0,0,1,1.78-1,9.68,9.68,0,0,1,2-.36A4.91,4.91,0,0,1,83,130.3Z" transform="translate(-4.68 -9.18)"/><path class="cls-1" d="M78.08,132s.33-.6.62-1.36.33-1.46.38-1.45a1.17,1.17,0,0,1,0,.44,5.6,5.6,0,0,1-.24,1,5,5,0,0,1-.49,1A1.26,1.26,0,0,1,78.08,132Z" transform="translate(-4.68 -9.18)"/><path class="cls-1" d="M85.29,120.18l-.13.07-.39.18a5.31,5.31,0,0,0-.61.29c-.24.12-.51.24-.79.41l-.46.26-.48.3c-.33.2-.66.45-1,.71a19.87,19.87,0,0,0-2.14,1.88,19.34,19.34,0,0,0-1.81,2.21c-.24.36-.48.7-.67,1l-.29.49-.24.46c-.16.29-.28.57-.39.81s-.2.45-.27.62l-.16.4c0,.09-.06.14-.07.13a1.31,1.31,0,0,1,0-.14l.14-.41c.06-.17.14-.39.25-.63s.22-.52.37-.82l.24-.47c.08-.16.18-.32.28-.49.19-.35.42-.7.66-1.07a18.52,18.52,0,0,1,1.82-2.22,19.08,19.08,0,0,1,2.16-1.89c.37-.26.7-.5,1-.7l.49-.3.46-.25a8.57,8.57,0,0,1,.81-.4,4.88,4.88,0,0,1,.62-.27l.4-.16C85.24,120.19,85.29,120.17,85.29,120.18Z" transform="translate(-4.68 -9.18)"/><path class="cls-1" d="M79.36,124.15a1,1,0,0,1,.33-.48,2,2,0,0,1,1.31-.51,3.83,3.83,0,0,1,1.38.27,2.2,2.2,0,0,1,.53.26,3.65,3.65,0,0,1-.56-.16A4,4,0,0,0,81,123.3a2.19,2.19,0,0,0-1.26.44A5.36,5.36,0,0,0,79.36,124.15Z" transform="translate(-4.68 -9.18)"/><path class="cls-1" d="M78.47,125.07a4.56,4.56,0,0,0,.38-1.22,4.51,4.51,0,0,0-.09-1.26s.09.12.16.35a2.43,2.43,0,0,1,.06.93,2.53,2.53,0,0,1-.27.89C78.59,125,78.49,125.08,78.47,125.07Z" transform="translate(-4.68 -9.18)"/><path class="cls-1" d="M68.81,137.38a31.57,31.57,0,0,0,3,11.05h7.32a31.87,31.87,0,0,0,2.8-11.05Z" transform="translate(-4.68 -9.18)"/><path class="cls-5" d="M80.72,143.25s-2.41.07-5.37.07-5.38,0-5.38-.07,2.41-.07,5.38-.07S80.72,143.21,80.72,143.25Z" transform="translate(-4.68 -9.18)"/><path class="cls-5" d="M80.56,144.56s-2.26.07-5,.07-5,0-5-.07,2.25-.06,5-.06S80.56,144.53,80.56,144.56Z" transform="translate(-4.68 -9.18)"/><path class="cls-5" d="M71.91,139.76a10.12,10.12,0,0,1,.07,1.69,10,10,0,0,1-.07,1.68,10,10,0,0,1-.07-1.68A10.12,10.12,0,0,1,71.91,139.76Z" transform="translate(-4.68 -9.18)"/><path class="cls-5" d="M75.83,139.76a21.79,21.79,0,0,1,0,3.49,21.79,21.79,0,0,1,0-3.49Z" transform="translate(-4.68 -9.18)"/><path class="cls-5" d="M79.51,139.73a22.67,22.67,0,0,1,0,3.56,22.67,22.67,0,0,1,0-3.56Z" transform="translate(-4.68 -9.18)"/><path class="cls-5" d="M81.67,139.76s-2.82.07-6.3.07-6.31,0-6.31-.07,2.83-.07,6.31-.07S81.67,139.72,81.67,139.76Z" transform="translate(-4.68 -9.18)"/><rect class="cls-1" x="75.49" y="25.16" width="18.89" height="19.69"/><rect class="cls-5" x="74.21" y="25.16" width="18.89" height="19.69"/><path class="cls-1" d="M97.79,54H78.89V34.33h18.9ZM78.9,54H97.78V34.34H78.9Z" transform="translate(-4.68 -9.18)"/><rect class="cls-4" x="76.75" y="27.81" width="13.81" height="14.4"/><path class="cls-1" d="M81.43,51.48a2.75,2.75,0,0,1-.34.4l-.88.89-.9.86a2.26,2.26,0,0,1-.4.33,2.45,2.45,0,0,1,.34-.39c.22-.24.53-.55.88-.89s.67-.65.9-.87A2.26,2.26,0,0,1,81.43,51.48Z" transform="translate(-4.68 -9.18)"/><path class="cls-1" d="M95.24,51.44a1.9,1.9,0,0,1,.4.34l.89.88c.34.35.65.67.86.91a2.45,2.45,0,0,1,.34.39s-.17-.11-.4-.33l-.89-.88-.87-.91A2.42,2.42,0,0,1,95.24,51.44Z" transform="translate(-4.68 -9.18)"/><path class="cls-1" d="M95.2,37a3,3,0,0,1,.35-.39l.87-.89.91-.87a2,2,0,0,1,.4-.33,2.75,2.75,0,0,1-.34.4l-.88.89c-.35.34-.67.65-.91.86S95.22,37,95.2,37Z" transform="translate(-4.68 -9.18)"/><path class="cls-1" d="M81.39,37.06a2.45,2.45,0,0,1-.39-.34c-.24-.22-.55-.53-.89-.88s-.65-.67-.87-.9a3,3,0,0,1-.33-.4,2.75,2.75,0,0,1,.4.34l.89.88c.34.35.65.67.86.9S81.41,37.05,81.39,37.06Z" transform="translate(-4.68 -9.18)"/><path class="cls-1" d="M95.2,51.38v-.27c0-.18,0-.44,0-.77,0-.69,0-1.68,0-2.94,0-2.52,0-6.11,0-10.41l0,0H81.43l.06-.06c0,5.28,0,10.22,0,14.39l0-.05,10,0h0l-10,0h-.05v-.06c0-4.17,0-9.11,0-14.39v-.06H95.26V37c0,4.31,0,7.92,0,10.45,0,1.25,0,2.24,0,2.92v1S95.21,51.38,95.2,51.38Z" transform="translate(-4.68 -9.18)"/><rect class="cls-2" x="81.35" y="32.7" width="4.61" height="4.61"/><rect class="cls-3" x="91.26" y="62.29" width="14.73" height="3.9"/><path class="cls-1" d="M104.44,79.48v-1c0-.68,0-1.64,0-2.86l0,0-14.73,0,.07-.07h0v3.89l-.07-.08,10.5,0,3.1,0h1s.08,0,.08,0h-1.1l-3.08,0-10.55,0h-.08v-4h0l.08-.08,14.73,0h0v0c0,1.23,0,2.21,0,2.89v.94A.17.17,0,0,1,104.44,79.48Z" transform="translate(-4.68 -9.18)"/><rect class="cls-3" x="189.9" y="13.13" width="14.73" height="3.9"/><path class="cls-1" d="M144.92,26.22V26l0-.77c0-.67,0-1.64,0-2.86l0,0-14.73,0,.07-.07h0v3.89l-.07-.08,10.5,0,3.1,0h0l-3.08,0-10.55,0h-.07v-.07c0-.63,0-1.27,0-1.92v-2h0l.08-.08,14.73,0H145v.05c0,1.23,0,2.21,0,2.89v.94C144.93,26.2,144.93,26.22,144.92,26.22Z" transform="translate(-4.68 -9.18)"/><path class="cls-1" d="M146.92,22.32V21.26c0-.69,0-1.65,0-2.84l0,0-8.85,0,.07-.07h0v3.87l-.07-.07,6.33,0,1.85,0h.49c.12,0,.18,0,.18,0h-.64l-1.83,0-6.38,0H138V18.45h0s.15-.14.08-.08l8.85,0H147v.05c0,1.2,0,2.18,0,2.87,0,.32,0,.58,0,.77A1,1,0,0,1,146.92,22.32Z" transform="translate(-4.68 -9.18)"/><path class="cls-6" d="M207.43,161.7c0,.05-45.26.08-101.07.08s-101.08,0-101.08-.08,45.24-.07,101.08-.07S207.43,161.66,207.43,161.7Z" transform="translate(-4.68 -9.18)"/><rect class="cls-7" x="111.56" width="42.68" height="55.12"/><path class="cls-6" d="M158.92,9.18a1.14,1.14,0,0,1-.12.15l-.36.41c-.34.37-.83.9-1.44,1.58l0,0h0c-3.71,0-11,.06-19.37.06s-15.66,0-19.37-.06h0v0l-1.44-1.58-.37-.41-.12-.15s.05,0,.14.12l.39.4,1.48,1.54,0,0c3.71,0,11-.07,19.37-.07s15.66,0,19.37.07l0,0,1.48-1.54.39-.4Z" transform="translate(-4.68 -9.18)"/><path class="cls-6" d="M116.24,64.3l.12-.15.37-.41c.34-.38.82-.91,1.44-1.58v0h0c3.71,0,11-.06,19.37-.06s15.66,0,19.37.06h0l0,0,1.44,1.58.36.41a1.14,1.14,0,0,1,.12.15l-.14-.13-.39-.39-1.48-1.54,0,0c-3.71,0-11,.06-19.37.06s-15.66,0-19.37-.06l0,0-1.48,1.54-.39.39Z" transform="translate(-4.68 -9.18)"/><rect class="cls-4" x="113.53" y="2.1" width="38.74" height="50.92"/><path class="cls-8" d="M124.27,47.31a6.17,6.17,0,0,1,4.45-1.37c1.59,0,3.17.37,4.76.36,2.54,0,5.08-1,7.59-.54a6.36,6.36,0,0,0,2.4.24c.7-.14,1.29-.62,2-.82,1.77-.53,3.75.85,5.45.13V56.68H124.27Z" transform="translate(-4.68 -9.18)"/><path class="cls-6" d="M124.81,47.76c-.07,0-.12-6.73-.12-15s0-15,.12-15,.12,6.73.12,15S124.88,47.76,124.81,47.76Z" transform="translate(-4.68 -9.18)"/><path class="cls-6" d="M126,47.76c-.07,0-.12-6.73-.12-15s0-15,.12-15,.12,6.73.12,15S126.09,47.76,126,47.76Z" transform="translate(-4.68 -9.18)"/><path class="cls-6" d="M127.23,47.76c-.07,0-.12-6.73-.12-15s0-15,.12-15,.13,6.73.13,15S127.3,47.76,127.23,47.76Z" transform="translate(-4.68 -9.18)"/><path class="cls-6" d="M128.44,47.76c-.06,0-.12-6.73-.12-15s.06-15,.12-15,.13,6.73.13,15S128.51,47.76,128.44,47.76Z" transform="translate(-4.68 -9.18)"/><path class="cls-6" d="M129.66,47.76c-.07,0-.13-6.73-.13-15s.06-15,.13-15,.12,6.73.12,15S129.73,47.76,129.66,47.76Z" transform="translate(-4.68 -9.18)"/><path class="cls-6" d="M130.87,47.76c-.07,0-.13-6.73-.13-15s.06-15,.13-15,.12,6.73.12,15S130.94,47.76,130.87,47.76Z" transform="translate(-4.68 -9.18)"/><path class="cls-6" d="M132.08,47.76c-.07,0-.12-6.73-.12-15s0-15,.12-15,.12,6.73.12,15S132.15,47.76,132.08,47.76Z" transform="translate(-4.68 -9.18)"/><path class="cls-6" d="M133.29,47.76c-.07,0-.12-6.73-.12-15s.05-15,.12-15,.13,6.73.13,15S133.36,47.76,133.29,47.76Z" transform="translate(-4.68 -9.18)"/><path class="cls-6" d="M134.5,47.76c-.06,0-.12-6.73-.12-15s.06-15,.12-15,.13,6.73.13,15S134.57,47.76,134.5,47.76Z" transform="translate(-4.68 -9.18)"/><path class="cls-6" d="M135.72,47.76c-.07,0-.13-6.73-.13-15s.06-15,.13-15,.12,6.73.12,15S135.78,47.76,135.72,47.76Z" transform="translate(-4.68 -9.18)"/><path class="cls-6" d="M136.93,47.76c-.07,0-.13-6.73-.13-15s.06-15,.13-15,.12,6.73.12,15S137,47.76,136.93,47.76Z" transform="translate(-4.68 -9.18)"/><path class="cls-6" d="M138.14,47.76c-.07,0-.12-6.73-.12-15s0-15,.12-15,.12,6.73.12,15S138.21,47.76,138.14,47.76Z" transform="translate(-4.68 -9.18)"/><path class="cls-6" d="M139.35,47.76c-.07,0-.12-6.73-.12-15s.05-15,.12-15,.13,6.73.13,15S139.42,47.76,139.35,47.76Z" transform="translate(-4.68 -9.18)"/><path class="cls-6" d="M140.56,47.76c-.06,0-.12-6.73-.12-15s.06-15,.12-15,.13,6.73.13,15S140.63,47.76,140.56,47.76Z" transform="translate(-4.68 -9.18)"/><path class="cls-6" d="M141.78,47.76c-.07,0-.13-6.73-.13-15s.06-15,.13-15,.12,6.73.12,15S141.84,47.76,141.78,47.76Z" transform="translate(-4.68 -9.18)"/><path class="cls-6" d="M143,47.76c-.07,0-.13-6.73-.13-15s.06-15,.13-15,.12,6.73.12,15S143.06,47.76,143,47.76Z" transform="translate(-4.68 -9.18)"/><path class="cls-6" d="M144.2,47.76c-.07,0-.12-6.73-.12-15s0-15,.12-15,.12,6.73.12,15S144.27,47.76,144.2,47.76Z" transform="translate(-4.68 -9.18)"/><path class="cls-6" d="M145.41,47.76c-.07,0-.12-6.73-.12-15s.05-15,.12-15,.12,6.73.12,15S145.48,47.76,145.41,47.76Z" transform="translate(-4.68 -9.18)"/><path class="cls-6" d="M146.62,47.76c-.07,0-.12-6.73-.12-15s.05-15,.12-15,.13,6.73.13,15S146.69,47.76,146.62,47.76Z" transform="translate(-4.68 -9.18)"/><path class="cls-6" d="M147.83,47.76c-.06,0-.12-6.73-.12-15s.06-15,.12-15,.13,6.73.13,15S147.9,47.76,147.83,47.76Z" transform="translate(-4.68 -9.18)"/><path class="cls-6" d="M149.05,47.76c-.07,0-.13-6.73-.13-15s.06-15,.13-15,.12,6.73.12,15S149.11,47.76,149.05,47.76Z" transform="translate(-4.68 -9.18)"/><path class="cls-6" d="M150.26,47.76c-.07,0-.13-6.73-.13-15s.06-15,.13-15,.12,6.73.12,15S150.33,47.76,150.26,47.76Z" transform="translate(-4.68 -9.18)"/><path class="cls-7" d="M208.24,151.1c-.54-8.33-1.84-16.85-2.38-25.18-.35-5.49-2.67-9-9.17-9.71-5-.56-15.62,16-18.41,20.24-12.37-2.39-21.28,6.72-28.35,13.82-2.11,2.12-4.21,5.4-2.5,7.86,1,1.49,4,3.81,5,3.57.36-.08,45.84,0,45.84,0,3.32-.06,6.81-.92,8.76-3.61C208.43,156.14,208.4,153.51,208.24,151.1Z" transform="translate(-4.68 -9.18)"/><path class="cls-8" d="M150.63,152.67l-3.53,8.11-10-4.61c.5-.93,6.55-.46,6.55-.46l2.19-5.23Z" transform="translate(-4.68 -9.18)"/><path class="cls-1" d="M147,156.7a.46.46,0,0,1,.07.6.43.43,0,0,1-.59.07.48.48,0,0,1-.07-.63.45.45,0,0,1,.62,0" transform="translate(-4.68 -9.18)"/><path class="cls-1" d="M147.1,160.78l.4-.84-9.78-4.06s-.53,0-.62.33Z" transform="translate(-4.68 -9.18)"/><path class="cls-1" d="M143.52,155.59s.22.18.38.45.2.53.26.53.11-.31-.1-.63S143.53,155.54,143.52,155.59Z" transform="translate(-4.68 -9.18)"/><path class="cls-1" d="M142.27,155.54s.15.22.22.5,0,.53.06.55.21-.25.12-.6S142.3,155.49,142.27,155.54Z" transform="translate(-4.68 -9.18)"/><path class="cls-1" d="M141.1,156.52s.22-.18.22-.51-.18-.54-.22-.51,0,.24,0,.51S141.05,156.49,141.1,156.52Z" transform="translate(-4.68 -9.18)"/><path class="cls-1" d="M144.15,154.45c0,.05.26.09.53.24s.44.33.48.3-.08-.3-.4-.47S144.15,154.4,144.15,154.45Z" transform="translate(-4.68 -9.18)"/><path class="cls-1" d="M144.94,153.37a1,1,0,0,0,.5.23,2.13,2.13,0,0,0,.6.08,2.3,2.3,0,0,0,.36,0,.58.58,0,0,0,.2,0,.22.22,0,0,0,.14-.24.26.26,0,0,0-.16-.21,1,1,0,0,0-.2-.07,2.19,2.19,0,0,0-.36,0,1.76,1.76,0,0,0-.6.09c-.33.11-.49.25-.48.27s.2-.08.51-.14a2,2,0,0,1,.57-.05l.32,0c.12,0,.21.07.22.13s0,0,0,0l-.15,0a1.93,1.93,0,0,1-.33,0,2.46,2.46,0,0,1-.57,0C145.14,153.42,145,153.35,144.94,153.37Z" transform="translate(-4.68 -9.18)"/><path class="cls-1" d="M145,153.47s.19-.11.36-.42a1.72,1.72,0,0,0,.18-.58,1.43,1.43,0,0,0,0-.36.44.44,0,0,0-.2-.4.25.25,0,0,0-.27,0,.67.67,0,0,0-.14.16,1.74,1.74,0,0,0-.16.34,1.28,1.28,0,0,0,0,.61c.08.35.25.51.26.49a4.69,4.69,0,0,1-.13-.51,1.17,1.17,0,0,1,.06-.54,1.28,1.28,0,0,1,.14-.29c.07-.09.15-.16.18-.13s.1.14.1.24a1.82,1.82,0,0,1,0,.33,2,2,0,0,1-.13.55C145.08,153.29,145,153.45,145,153.47Z" transform="translate(-4.68 -9.18)"/><path class="cls-6" d="M175.84,132.27c-.42.2-21.35-.41-21.88.32-.76,1-10.32,21.38-10.32,21.38l5.7,3,9.15-16.2,22.94-.05s2.59-.13,2.91-3.46Z" transform="translate(-4.68 -9.18)"/><path class="cls-8" d="M148.53,145.66l-2.17,6.77-10-3.82c.42-.93,6.35-.88,6.35-.88l1.23-3.65Z" transform="translate(-4.68 -9.18)"/><path class="cls-1" d="M145.94,148.47a.45.45,0,0,1,.1.58.42.42,0,0,1-.57.11.48.48,0,0,1-.11-.61.43.43,0,0,1,.61-.05" transform="translate(-4.68 -9.18)"/><path class="cls-1" d="M146.36,152.43l.33-.84-9.79-3.3s-.53,0-.59.36Z" transform="translate(-4.68 -9.18)"/><path class="cls-1" d="M142.52,147.61s.22.17.41.42.23.5.28.5.09-.31-.14-.61S142.53,147.56,142.52,147.61Z" transform="translate(-4.68 -9.18)"/><path class="cls-1" d="M141.31,147.65s.15.21.23.48.06.5.11.52.18-.25.07-.58S141.32,147.6,141.31,147.65Z" transform="translate(-4.68 -9.18)"/><path class="cls-1" d="M140.23,148.68s.2-.19.18-.51-.22-.51-.25-.47.05.23.06.49S140.18,148.66,140.23,148.68Z" transform="translate(-4.68 -9.18)"/><path class="cls-1" d="M143.06,146.46c0,.06.26.07.53.2s.45.29.49.26-.1-.29-.42-.43S143.05,146.42,143.06,146.46Z" transform="translate(-4.68 -9.18)"/><path class="cls-1" d="M143.75,145.36a1,1,0,0,0,.51.19,2.6,2.6,0,0,0,.59,0l.34,0,.2-.06a.25.25,0,0,0,.12-.26.29.29,0,0,0-.17-.19.84.84,0,0,0-.2,0h-.35a2.08,2.08,0,0,0-.58.13c-.32.13-.47.28-.45.3s.18-.09.49-.18a2.12,2.12,0,0,1,.54-.08,1.83,1.83,0,0,1,.33,0c.11,0,.2.05.21.1s0,0,0,.06a.47.47,0,0,1-.14,0,1.88,1.88,0,0,1-.33,0,2.51,2.51,0,0,1-.55,0A5.16,5.16,0,0,0,143.75,145.36Z" transform="translate(-4.68 -9.18)"/><path class="cls-1" d="M143.79,145.46s.18-.13.32-.44a1.76,1.76,0,0,0,.14-.57,2.17,2.17,0,0,0,0-.36.44.44,0,0,0-.23-.37.22.22,0,0,0-.26.06.56.56,0,0,0-.12.16,1,1,0,0,0-.13.34,1.19,1.19,0,0,0,0,.6c.09.34.28.47.29.46a3.74,3.74,0,0,1-.17-.49,1.21,1.21,0,0,1,0-.53,1.48,1.48,0,0,1,.12-.29c.06-.1.13-.17.17-.14s.1.13.11.23a1.72,1.72,0,0,1,0,.32,2.1,2.1,0,0,1-.09.54C143.89,145.28,143.77,145.44,143.79,145.46Z" transform="translate(-4.68 -9.18)"/><path class="cls-6" d="M148.9,148.53l-6.48-2.33,6-18.67a4.46,4.46,0,0,1,5.1-2.67l19.47,4.4.34,3-18.84.32Z" transform="translate(-4.68 -9.18)"/><path class="cls-7" d="M142.42,146.2l.12,0,.34.12,1.29.45,4.75,1.69-.06,0,4.55-12.59.67-1.84h0a2.88,2.88,0,0,1,1.39-1.31,2.92,2.92,0,0,1,.91-.24c.32,0,.62,0,.92,0l3.46,0,5.82-.06,3.88,0h1l-1,0-3.88.07-5.82.09-3.46.05c-.3,0-.61,0-.91,0a3,3,0,0,0-.88.22,2.82,2.82,0,0,0-1.32,1.26h0l-.67,1.84c-1.76,4.84-3.37,9.27-4.58,12.58v.05l0,0-4.73-1.72-1.29-.48-.33-.13Z" transform="translate(-4.68 -9.18)"/><g class="cls-9"><path d="M148.9,148.53l-1.16-.42c-.09.2-.11.43-.21.63l-.13.42c.32.14.74.27,1.07.38a1.25,1.25,0,0,0,1.07-.11,1.9,1.9,0,0,0,.57-1c.46-1.39.92-2.79,1.39-4.18a37.75,37.75,0,0,0,1.75-7.62C151.71,140.47,150.23,144.62,148.9,148.53Z" transform="translate(-4.68 -9.18)"/></g><path class="cls-6" d="M176.27,99.66a.72.72,0,0,1,.26-.42,1.8,1.8,0,0,1,1.09-.27,4.81,4.81,0,0,0,.44-1.44.85.85,0,0,1-.51-.15l-.09,0a.72.72,0,0,1-.17-1,2.13,2.13,0,0,1,1-.65,3.75,3.75,0,0,0-.77.28c-.26.09-.64,0-.67-.28a.52.52,0,0,1,.05-.24l.15-.49a.53.53,0,0,1,.21-.34,1.43,1.43,0,0,1,.28-.07c.31-.08.47-.45.78-.54a1.53,1.53,0,0,1,.69.1c.22.06.53,0,.6-.21a2.31,2.31,0,0,1-.79-.66.75.75,0,0,1,.08-1,1.13,1.13,0,0,1,.77-.16c.3,0,.68.08.76.37a.79.79,0,0,1,1,.62l.77-.08c-.21-.23-.52-.38-.71-.63s-.15-.72.16-.79a2,2,0,0,0,.35,0c.08,0,.14-.1.22-.11a.36.36,0,0,1,.17.07L184,92.6c-.15-.34-.3-.69-.44-1s-.25-.75,0-.95.67.08.73.41a.54.54,0,0,1,.65.49.58.58,0,0,1,.63.17.57.57,0,0,1,0,.66,1.42,1.42,0,0,1,.78.23.47.47,0,0,1,.76-.32.83.83,0,0,1,.12-.47.28.28,0,0,1,.42-.05.55.55,0,0,1,.25-.58.57.57,0,0,1,.64,0l.27-.32a.74.74,0,0,1,.7.36c.11.25-.08.62-.36.59.2,0,.15.31,0,.47l-.47.65a.6.6,0,0,1,.75-.06.48.48,0,0,1,.68,0,.38.38,0,0,1,.68.12c0-.13.22-.14.36-.12a.92.92,0,0,1,.54.18c.14.14.13.43,0,.49.17-.09.38.09.38.28a.64.64,0,0,1-.27.48,1.89,1.89,0,0,0-.39.41.8.8,0,0,1,.55-.11,2.07,2.07,0,0,1,1,.2c.06-.14.24-.14.39-.11a2.29,2.29,0,0,1,1.18.64c.15.15.28.38.18.57a.46.46,0,0,1-.22.19l-1.05.65a2.9,2.9,0,0,1,1.44,1,5,5,0,0,1,.67.29c.19.15.17.55-.07.55a.45.45,0,0,1,.13.52.46.46,0,0,1-.16.18.74.74,0,0,1-.12.13.94.94,0,0,1-.28.15.54.54,0,0,1-.47.21,2.39,2.39,0,0,1,.5.6.94.94,0,0,1,0,1l0,0a.47.47,0,0,1-.2.29.46.46,0,0,1,0,.26,1,1,0,0,1,.65.83,1.06,1.06,0,0,1-.42,1c-.25.17-.69.14-.72-.16a.76.76,0,0,1-.6.44.78.78,0,0,1-.41,1.07.82.82,0,0,1-.26,1.35.65.65,0,0,1-.39.8.65.65,0,0,1-.8-.39,1.32,1.32,0,0,1-.47.59.47.47,0,0,1-.66-.17.86.86,0,0,1-1.27.41.59.59,0,0,1-.51.58.58.58,0,0,1-.6-.48H187a6.11,6.11,0,0,1-1-.07,2.64,2.64,0,0,1-1.1-.51,1,1,0,0,0-.34-.21,1,1,0,0,0-.44.07,2.36,2.36,0,0,1-2.23-.52,1.09,1.09,0,0,0-.29-.24,1.21,1.21,0,0,0-.43-.06,3.75,3.75,0,0,1-1.05-.15,1.1,1.1,0,0,1-.74-.49c-.14-.27,0-.69.33-.68a.67.67,0,0,0-.16-.55.39.39,0,0,0-.54,0,.28.28,0,0,0,.13.46.58.58,0,0,1-.84-.49.77.77,0,0,1,.78-.73,1.75,1.75,0,0,1,0-.88.64.64,0,0,1-.88.1,1.11,1.11,0,0,1-.72.52.65.65,0,0,1-.73-.4.48.48,0,0,1,.45-.62.58.58,0,0,1,.51-.83.89.89,0,0,1,.55-.94.47.47,0,0,1-.67-.26c-.19.29-.63.22-.93,0A.64.64,0,0,1,176.27,99.66Z" transform="translate(-4.68 -9.18)"/><path class="cls-7" d="M176.27,99.66a.66.66,0,0,0,0,.11.6.6,0,0,0,.11.34,1.27,1.27,0,0,0,.49.33.87.87,0,0,0,.37.06.43.43,0,0,0,.38-.2h0a.5.5,0,0,0,.7.27l0,0a.91.91,0,0,0-.56,1l0,0a.55.55,0,0,0-.49.27.56.56,0,0,0,0,.6l0,0a.49.49,0,0,0-.49.37.52.52,0,0,0,.25.6.73.73,0,0,0,.69.06,1.21,1.21,0,0,0,.57-.48h0a.68.68,0,0,0,.93-.11l-.07,0a2,2,0,0,0,0,.9l0,0a.92.92,0,0,0-.54.2.73.73,0,0,0-.28.52.61.61,0,0,0,.28.54.54.54,0,0,0,.62,0l.1-.06h-.11a.25.25,0,0,1-.17-.28.27.27,0,0,1,.28-.2.41.41,0,0,1,.33.21.64.64,0,0,1,.07.41l0,0a.37.37,0,0,0-.29.14.6.6,0,0,0-.13.28.5.5,0,0,0,0,.32.79.79,0,0,0,.19.25,1.71,1.71,0,0,0,.56.27,3.14,3.14,0,0,0,.61.12c.41.09.88-.08,1.15.3a2.36,2.36,0,0,0,1.17.61,3.07,3.07,0,0,0,.68,0,3.52,3.52,0,0,0,.66-.15.44.44,0,0,1,.3,0,2.34,2.34,0,0,1,.27.2,2.91,2.91,0,0,0,.62.35,3.74,3.74,0,0,0,1.41.2l1.45,0,0,0a.62.62,0,0,0,1.23-.11l-.09,0a.92.92,0,0,0,1.36-.44h-.11a.45.45,0,0,0,.31.26.65.65,0,0,0,.41,0,1.34,1.34,0,0,0,.51-.62h-.1a.69.69,0,0,0,1.3-.45l0,.07a.88.88,0,0,0,.28-1.45l0,.1a.83.83,0,0,0,.44-1.15l0,.09a.87.87,0,0,0,.65-.47l-.12,0a.36.36,0,0,0,.29.3.61.61,0,0,0,.4,0,1,1,0,0,0,.52-.6,1.08,1.08,0,0,0,0-.81,1.13,1.13,0,0,0-.6-.56l0,.07a.47.47,0,0,0,0-.3l0,.08a.5.5,0,0,0,.23-.33v0a.92.92,0,0,0,.11-.91,1.85,1.85,0,0,0-.58-.77l0,.1a.61.61,0,0,0,.53-.24l0,0a.81.81,0,0,0,.43-.31l0,0a.49.49,0,0,0,.23-.38.54.54,0,0,0-.19-.42l0,.11a.22.22,0,0,0,.2-.1.35.35,0,0,0,.06-.19.46.46,0,0,0-.15-.37,3.85,3.85,0,0,0-.68-.29h0a3,3,0,0,0-1.47-1l0,.12.48-.3.36-.23a2.58,2.58,0,0,0,.37-.24.4.4,0,0,0,.12-.22.47.47,0,0,0,0-.24,1.1,1.1,0,0,0-.27-.36,2.29,2.29,0,0,0-.74-.46,2,2,0,0,0-.41-.13.65.65,0,0,0-.24,0,.27.27,0,0,0-.21.15l.09,0a1.74,1.74,0,0,0-.8-.19,2.64,2.64,0,0,0-.4,0,.64.64,0,0,0-.41.13l.1.07c.11-.23.4-.35.57-.61a.46.46,0,0,0,.05-.47.35.35,0,0,0-.17-.17.27.27,0,0,0-.26,0l0,.11a.28.28,0,0,0,.17-.18.45.45,0,0,0,0-.23.45.45,0,0,0-.11-.19.52.52,0,0,0-.19-.11,1.1,1.1,0,0,0-.4-.08.51.51,0,0,0-.21,0,.24.24,0,0,0-.19.15h.12a.44.44,0,0,0-.8-.13l.1,0a.53.53,0,0,0-.77,0h.08a.66.66,0,0,0-.83.07l.09.08.41-.56a.8.8,0,0,0,.16-.32.34.34,0,0,0,0-.2.18.18,0,0,0-.06-.1.19.19,0,0,0-.12,0v.12a.41.41,0,0,0,.39-.24.51.51,0,0,0,0-.45.78.78,0,0,0-.74-.38h0l0,0-.27.33h.09a.64.64,0,0,0-.71,0,.61.61,0,0,0-.28.64l.11,0a.29.29,0,0,0-.28-.1.38.38,0,0,0-.24.15.9.9,0,0,0-.13.49l.1,0a.51.51,0,0,0-.54-.07.5.5,0,0,0-.32.44l.09,0a1.69,1.69,0,0,0-.81-.24l.05.09a.6.6,0,0,0-.7-.91l.07,0a.59.59,0,0,0-.72-.54l.07,0a.65.65,0,0,0-.22-.37.52.52,0,0,0-.4-.14.44.44,0,0,0-.35.25.76.76,0,0,0,0,.42,3.62,3.62,0,0,0,.27.74l.3.7.08-.07-1-.65-.5-.33a1.36,1.36,0,0,0-.27-.15.2.2,0,0,0-.17,0l-.12.07a.76.76,0,0,1-.27,0,.37.37,0,0,0-.29.14.62.62,0,0,0,0,.59,1.14,1.14,0,0,0,.37.44,2.83,2.83,0,0,1,.42.34l0-.08-.78.08.06,0a.83.83,0,0,0-1-.65l.06,0a.52.52,0,0,0-.39-.34,2.23,2.23,0,0,0-.5-.07,1.43,1.43,0,0,0-.5.06.6.6,0,0,0-.37.33.91.91,0,0,0,.16.91,2.7,2.7,0,0,0,.72.55l0,0a.32.32,0,0,1-.27.2.78.78,0,0,1-.37,0,2.22,2.22,0,0,0-.37-.09.59.59,0,0,0-.39.07c-.22.14-.35.36-.56.46a2.28,2.28,0,0,1-.33.08.47.47,0,0,0-.23.29l-.21.63a.41.41,0,0,0,0,.34.42.42,0,0,0,.28.19.86.86,0,0,0,.32,0,1.45,1.45,0,0,0,.29-.11,1.88,1.88,0,0,1,.53-.19v0a4.07,4.07,0,0,0-.63.3,1.15,1.15,0,0,0-.45.48.81.81,0,0,0,0,.59.54.54,0,0,0,.38.39h0a.89.89,0,0,0,.52.15l0,0A4.47,4.47,0,0,1,177.6,99h0a2.55,2.55,0,0,0-.73.09,1.06,1.06,0,0,0-.44.25.79.79,0,0,0-.16.26.35.35,0,0,0,0,.1.72.72,0,0,1,.19-.34,1,1,0,0,1,.44-.25,2.51,2.51,0,0,1,.72-.08h0a4.6,4.6,0,0,0,.45-1.45v0h0a.93.93,0,0,1-.5-.15h0a.48.48,0,0,1-.34-.35.78.78,0,0,1,0-.56,1.09,1.09,0,0,1,.43-.45,3.57,3.57,0,0,1,.62-.3l.18-.07h-.19a1.85,1.85,0,0,0-.56.19,1,1,0,0,1-.27.11.61.61,0,0,1-.3,0,.36.36,0,0,1-.23-.15.33.33,0,0,1,0-.29l.2-.63a.42.42,0,0,1,.19-.24,3,3,0,0,0,.35-.09c.23-.11.36-.33.56-.45a.82.82,0,0,1,.7,0,.77.77,0,0,0,.4,0,.41.41,0,0,0,.34-.25v0l0,0a2.43,2.43,0,0,1-.69-.54.84.84,0,0,1-.15-.82.55.55,0,0,1,.32-.28,1.48,1.48,0,0,1,.47,0,2.42,2.42,0,0,1,.47.06.46.46,0,0,1,.33.29l0,0h0a.74.74,0,0,1,.9.57v.05h0l.78-.07h.1L182.2,93a3.57,3.57,0,0,0-.43-.36,1,1,0,0,1-.34-.4.53.53,0,0,1,0-.49.28.28,0,0,1,.21-.1.68.68,0,0,0,.31,0c.1,0,.16-.11.23-.09a1.18,1.18,0,0,1,.23.14l.5.32,1,.66.15.1-.07-.16-.3-.7a3.28,3.28,0,0,1-.26-.72.59.59,0,0,1,0-.35.32.32,0,0,1,.26-.19.51.51,0,0,1,.5.42l0,.06h.05a.47.47,0,0,1,.58.43v.09l.08,0a.52.52,0,0,1,.56.15.49.49,0,0,1,0,.59l-.06.09h.11a1.46,1.46,0,0,1,.75.23l.09.06v-.11a.41.41,0,0,1,.66-.28l.09.09v-.13a.74.74,0,0,1,.1-.43c.07-.11.26-.15.33,0l.17.22-.06-.27a.51.51,0,0,1,.22-.52.5.5,0,0,1,.57,0l.05,0,0-.05.27-.32,0,0a.68.68,0,0,1,.64.31c.1.21-.06.54-.29.52v.12s.06,0,.07,0a.33.33,0,0,1,0,.14.7.7,0,0,1-.15.28l-.4.56.09.08a.53.53,0,0,1,.67-.06l0,0,0,0a.42.42,0,0,1,.59,0l.06.08,0-.09c.1-.22.55-.15.57.1l0,.3.1-.29c0-.08.16-.09.27-.08a1.43,1.43,0,0,1,.37.07.32.32,0,0,1,.22.23c0,.1,0,.23-.09.25l.05.12c.09-.06.21,0,.27.12a.36.36,0,0,1,0,.34c-.14.22-.43.34-.58.63l-.15.26.24-.19a1.16,1.16,0,0,1,.73-.09,1.68,1.68,0,0,1,.74.18l.06,0,0-.07c0-.09.18-.1.3-.08a2.64,2.64,0,0,1,.4.12,2.19,2.19,0,0,1,.69.44,1,1,0,0,1,.24.31.26.26,0,0,1,0,.33c-.09.08-.23.15-.34.23l-.37.22-.48.3-.12.07.14,0a2.81,2.81,0,0,1,1.4,1h0c.23.13.49.14.66.28a.33.33,0,0,1,.11.26c0,.1-.06.18-.14.18h-.2l.16.12a.36.36,0,0,1,.14.32.33.33,0,0,1-.17.28h0a.63.63,0,0,1-.36.26h0v0a.48.48,0,0,1-.42.19l-.18,0,.14.13a1.9,1.9,0,0,1,.55.72.79.79,0,0,1-.1.79h0v0a.41.41,0,0,1-.17.25l0,0,0,0a.35.35,0,0,1,0,.22l0,0,.05,0a1,1,0,0,1,.54.49,1,1,0,0,1-.41,1.25.63.63,0,0,1-.33,0,.25.25,0,0,1-.2-.19v-.24l-.1.21a.73.73,0,0,1-.56.41h-.09l.05.08a.72.72,0,0,1-.38,1l-.1,0,.09.07a.72.72,0,0,1,.2.71.7.7,0,0,1-.44.54l-.06,0,0,0a.6.6,0,0,1-.38.74.58.58,0,0,1-.7-.36l-.05-.13-.06.12a1.28,1.28,0,0,1-.46.58c-.2.1-.5,0-.56-.15l-.06-.16-.05.16a.76.76,0,0,1-.52.48.78.78,0,0,1-.67-.09l-.09-.07v.11a.52.52,0,0,1-.48.52.53.53,0,0,1-.52-.43v0h0l-1.46,0a3.67,3.67,0,0,1-1.37-.19,2.49,2.49,0,0,1-.6-.33,2,2,0,0,0-.28-.21.53.53,0,0,0-.37,0,3.16,3.16,0,0,1-.65.14,2.35,2.35,0,0,1-.65,0,2.32,2.32,0,0,1-1.12-.58,1.83,1.83,0,0,0-.26-.21.75.75,0,0,0-.33-.07,4.3,4.3,0,0,1-.62,0,5.6,5.6,0,0,1-.59-.12,1.62,1.62,0,0,1-.53-.25.51.51,0,0,1-.2-.48.37.37,0,0,1,.33-.35h0v0a.7.7,0,0,0-.09-.47.47.47,0,0,0-.4-.24.34.34,0,0,0-.36.27.32.32,0,0,0,.24.37l0-.08a.47.47,0,0,1-.53,0,.5.5,0,0,1-.25-.46.74.74,0,0,1,.74-.65h.05v0a1.81,1.81,0,0,1,0-.86l0-.16-.1.13a.62.62,0,0,1-.83.1l0,0,0,0a1.07,1.07,0,0,1-.53.46.72.72,0,0,1-.64-.05.48.48,0,0,1-.22-.54.42.42,0,0,1,.42-.32h.06l0,0a.54.54,0,0,1,.48-.79h0v0a.86.86,0,0,1,.52-.92l0,0a.44.44,0,0,1-.63-.24v0l0,0a.42.42,0,0,1-.35.19.83.83,0,0,1-.36-.06,1.11,1.11,0,0,1-.48-.31.53.53,0,0,1-.12-.33A.5.5,0,0,1,176.27,99.66Z" transform="translate(-4.68 -9.18)"/><path class="cls-10" d="M182.75,110.23c0-.77,0-1.37,0-1.37a3.13,3.13,0,0,1-2.67-3c0-1.26.11-3.85.28-6.2a4.85,4.85,0,0,1,4.78-4.52h.25c2.72.12,4.12,2.5,3.92,5.2l-.27,9.91-1.55,3.78c-1.54,1.68-4.86-1.54-4.78-3.82Z" transform="translate(-4.68 -9.18)"/><path class="cls-11" d="M182.77,108.86a6.33,6.33,0,0,0,3.38-1,3.22,3.22,0,0,1-3.38,1.8Z" transform="translate(-4.68 -9.18)"/><path class="cls-6" d="M181.4,102a.38.38,0,0,0,.36.37.35.35,0,0,0,.38-.34.37.37,0,0,0-.74,0Z" transform="translate(-4.68 -9.18)"/><path class="cls-6" d="M181,100.75c.05,0,.33-.16.73-.17s.69.2.74.15,0-.11-.16-.2a1.06,1.06,0,0,0-.59-.18,1,1,0,0,0-.58.2C181,100.64,180.93,100.73,181,100.75Z" transform="translate(-4.68 -9.18)"/><path class="cls-6" d="M184.93,102.19a.38.38,0,0,0,.37.37.36.36,0,0,0,.38-.34.38.38,0,0,0-.37-.37A.36.36,0,0,0,184.93,102.19Z" transform="translate(-4.68 -9.18)"/><path class="cls-6" d="M184.87,100.87s.33-.17.73-.17.7.19.74.14,0-.11-.16-.2a1,1,0,0,0-.59-.17,1,1,0,0,0-.58.19C184.89,100.76,184.85,100.85,184.87,100.87Z" transform="translate(-4.68 -9.18)"/><path class="cls-6" d="M183.47,104a2.93,2.93,0,0,0-.65-.11c-.1,0-.2,0-.22-.1a.55.55,0,0,1,.07-.3l.29-.78a14.08,14.08,0,0,0,.66-2,13.73,13.73,0,0,0-.82,2c-.1.27-.19.53-.28.79a.58.58,0,0,0-.05.4.24.24,0,0,0,.17.14l.17,0A3.15,3.15,0,0,0,183.47,104Z" transform="translate(-4.68 -9.18)"/><path class="cls-6" d="M184.76,99.52c0,.1.44,0,.91.1s.85.18.92.08,0-.15-.2-.25a1.33,1.33,0,0,0-.68-.23,1.52,1.52,0,0,0-.71.09C184.83,99.38,184.75,99.46,184.76,99.52Z" transform="translate(-4.68 -9.18)"/><path class="cls-6" d="M181.1,99.4c.07.09.34,0,.67,0s.62.07.68,0,0-.14-.13-.23a.9.9,0,0,0-.55-.15,1,1,0,0,0-.55.17C181.11,99.27,181.07,99.36,181.1,99.4Z" transform="translate(-4.68 -9.18)"/><path class="cls-11" d="M183.09,105a1.72,1.72,0,0,0,.19.44.56.56,0,0,0,.39.25.54.54,0,0,0,.45-.21.85.85,0,0,0,.14-.49c0-.15-.06-.34-.21-.36a.4.4,0,0,0-.19,0l-.82.29" transform="translate(-4.68 -9.18)"/><path class="cls-6" d="M183.38,105.67a1.55,1.55,0,0,0,.43,0,.7.7,0,0,0,.34-.28.65.65,0,0,0,0-.53.45.45,0,0,0-.06-.12s0,0-.06,0l-.13,0-.14,0-.47.16a1.61,1.61,0,0,1-.44.11,1.31,1.31,0,0,1,.41-.21l.46-.19.13,0,.15,0a.17.17,0,0,1,.12,0,.35.35,0,0,1,.09.07.8.8,0,0,1,.08.16.75.75,0,0,1-.06.64.7.7,0,0,1-.77.31C183.41,105.71,183.37,105.68,183.38,105.67Z" transform="translate(-4.68 -9.18)"/><path class="cls-6" d="M179.71,97.51a2.63,2.63,0,0,1,.06-.39,1.13,1.13,0,0,1,.35-.48,4,4,0,0,1,1.64-1.16c.39-.1.78-.06,1.17-.16a4.78,4.78,0,0,0,.69-.25,5.8,5.8,0,0,1,2.95-.16,4.72,4.72,0,0,1,1.59.52,5.58,5.58,0,0,1,1.42,1.29,8.75,8.75,0,0,1,1.58,2.55,4.22,4.22,0,0,1,.23,2.41,2,2,0,0,1-1.45,1.63l-.24-.33-.39-.49c.07.2,0,.18-.16.28a.34.34,0,0,1-.46-.17c-.14.15-.41,0-.35-.26-.17.08-.35-.15-.29-.34-.18,0-.26-.25-.34-.45s-.11-.21-.16-.31a2,2,0,0,1-.21-1.11,2,2,0,0,1-.25-1.09l0-.72-.12-.18a.38.38,0,0,1-.29.35.8.8,0,0,1-.43,0l-.42-.12-.27,0a1.06,1.06,0,0,1-.14.69.67.67,0,0,1-.28.37.2.2,0,0,1-.26-.24.23.23,0,0,1-.34-.08.69.69,0,0,1-.06-.45,1.87,1.87,0,0,1,.42-1l-.8.64a.34.34,0,0,1-.19.09.19.19,0,0,1-.22.2.48.48,0,0,1-.26-.21c-.17-.2-.33-.54-.15-.74-.09,0-.12-.17-.06-.24l-.89.57c.09,0,.17.1.14.2a.43.43,0,0,1-.2.24.64.64,0,0,1,.07.41c.16-.13.37.14.3.36a.47.47,0,0,1-.47.31.34.34,0,0,1-.36-.28c-.19,0-.34-.24-.26-.45-.14.08-.24-.17-.23-.35a2.68,2.68,0,0,1,.21-.93s-.05,0-.07,0a.06.06,0,0,1,0,0l-.54,1.05a2.79,2.79,0,0,0-.34.94c0,.14,0,.33-.16.33a.32.32,0,0,1-.09,0,1.76,1.76,0,0,1-.69-1,1.42,1.42,0,0,1-.08-.42A7.16,7.16,0,0,1,179.71,97.51Z" transform="translate(-4.68 -9.18)"/><path class="cls-7" d="M183.42,97.15a.51.51,0,0,1-.09-.22.29.29,0,0,1,.41-.28l.06,0,0-.06a.31.31,0,0,1,.12-.35.3.3,0,0,1,.39,0l.06,0,0,0a.2.2,0,0,1,0-.15.21.21,0,0,1,.14-.07.3.3,0,0,1,.16,0,.43.43,0,0,0,.17.06A.31.31,0,0,0,185,96a.38.38,0,0,1,.13-.06.82.82,0,0,1,.26,0,.76.76,0,0,1,.37.12c.08.06.11.1.12.09a.51.51,0,0,0-.1-.11.7.7,0,0,0-.38-.15.74.74,0,0,0-.29,0,.61.61,0,0,0-.14.07c-.05,0-.09.07-.13.07a.65.65,0,0,1-.15-.05.31.31,0,0,0-.19,0,.3.3,0,0,0-.19.1.25.25,0,0,0-.05.21l0,.06.06,0a.4.4,0,0,0-.5-.06.39.39,0,0,0-.13.43l0,0a.35.35,0,0,0-.37.07.32.32,0,0,0-.09.28.3.3,0,0,0,.07.17Z" transform="translate(-4.68 -9.18)"/><path class="cls-7" d="M181.59,97.46a.6.6,0,0,1-.12-.21.44.44,0,0,1,0-.27.38.38,0,0,1,.3-.18h.05l0,0a.47.47,0,0,1-.09-.4.26.26,0,0,1,.16-.15.2.2,0,0,1,.21,0l.19.23-.13-.27a.37.37,0,0,1,0-.31.35.35,0,0,1,.26-.2.39.39,0,0,1,.24,0l.08,0,0-.09a.25.25,0,0,1,.23-.27.62.62,0,0,1,.37.13l.07,0,0-.07a.26.26,0,0,1,.11-.25.51.51,0,0,1,.26-.09,1.12,1.12,0,0,1,.46,0,2.34,2.34,0,0,1,.37.17l-.08-.07-.28-.14a1.35,1.35,0,0,0-.48-.07.56.56,0,0,0-.29.1.34.34,0,0,0-.13.31l.05,0a.7.7,0,0,0-.42-.14.39.39,0,0,0-.22.11.28.28,0,0,0-.06.25l.05,0a.49.49,0,0,0-.29-.06.45.45,0,0,0-.32.23.46.46,0,0,0,0,.38l.06,0a.25.25,0,0,0-.29-.06.31.31,0,0,0-.2.19.52.52,0,0,0,.11.46l0-.05a.43.43,0,0,0-.34.21.41.41,0,0,0,0,.3.42.42,0,0,0,.1.17Z" transform="translate(-4.68 -9.18)"/><path class="cls-7" d="M177.7,97.46a.29.29,0,0,1,.11-.19.39.39,0,0,1,.25-.06,1.11,1.11,0,0,1,.34.11l0,0v0a.33.33,0,0,1,.28-.28,1,1,0,0,1,.5.13l.22.1-.18-.16a.25.25,0,0,1,.05-.36.56.56,0,0,1,.46-.07h0l.14,0-.11-.09a.27.27,0,0,1,.07-.43.43.43,0,0,1,.46.08l.13.13-.08-.17a.64.64,0,0,1,.05-.63.59.59,0,0,1,.45-.23.62.62,0,0,1,.34.07c.07,0,.1.07.11.06l0,0a.22.22,0,0,0-.07-.06.71.71,0,0,0-.35-.09.61.61,0,0,0-.49.24.67.67,0,0,0-.07.69l0,0a.5.5,0,0,0-.54-.1.37.37,0,0,0-.17.25.31.31,0,0,0,.1.31l0-.07h0a.65.65,0,0,0-.51.08.36.36,0,0,0-.13.23.25.25,0,0,0,.08.24l0,0a1,1,0,0,0-.54-.13.36.36,0,0,0-.32.35l0,0a1,1,0,0,0-.36-.1.34.34,0,0,0-.26.08.3.3,0,0,0-.1.15Z" transform="translate(-4.68 -9.18)"/><path class="cls-7" d="M180,94l.1,0a.85.85,0,0,0,.27,0,.88.88,0,0,1,.4.1.24.24,0,0,1,.13.18.2.2,0,0,1-.09.21l0,0c0-.09.15-.14.25-.19a1.45,1.45,0,0,1,.35-.12.44.44,0,0,1,.34.08.28.28,0,0,1,.13.28l0,.09.07,0a.78.78,0,0,1,.49-.16.79.79,0,0,1,.4.1,1.05,1.05,0,0,1,.29.22s0,0-.05-.08a.72.72,0,0,0-.22-.18.87.87,0,0,0-.42-.11.85.85,0,0,0-.53.15l.06,0a.36.36,0,0,0-.15-.35.51.51,0,0,0-.39-.1,1.53,1.53,0,0,0-.38.12,1.29,1.29,0,0,0-.16.09.23.23,0,0,0-.12.15l0,.07.06,0a.23.23,0,0,0,.13-.27.29.29,0,0,0-.16-.23.78.78,0,0,0-.42-.09l-.28,0Z" transform="translate(-4.68 -9.18)"/><path class="cls-7" d="M183.74,92.88a1.52,1.52,0,0,1,.19,0,.64.64,0,0,1,.17.13.46.46,0,0,1,.1.26v0h0c.1,0,.21.06.26.17a.7.7,0,0,1,0,.4l0,.14.1-.11v0a.35.35,0,0,1,.26-.08A.4.4,0,0,1,185,94a.58.58,0,0,1,.11.44,1.08,1.08,0,0,1-.11.31c0,.07-.06.1-.05.11a.51.51,0,0,0,.07-.1.69.69,0,0,0,.14-.31.58.58,0,0,0-.11-.49.41.41,0,0,0-.59,0l0,0,.07,0a.86.86,0,0,0,0-.45.29.29,0,0,0-.33-.2l0,0a.51.51,0,0,0-.12-.29.46.46,0,0,0-.2-.13.44.44,0,0,0-.15,0Z" transform="translate(-4.68 -9.18)"/><path class="cls-7" d="M186.71,95.35l.1,0a.46.46,0,0,0,.23-.13.7.7,0,0,0,.2-.35c0-.07,0-.15.06-.19s.14-.07.2-.15a.38.38,0,0,0-.05-.5v0a1.19,1.19,0,0,0,.34-.4.7.7,0,0,0,.07-.19s0,.06-.1.17a1.31,1.31,0,0,1-.35.37l0,0,0,0a.3.3,0,0,1,0,.4c0,.06-.12.08-.19.15a.36.36,0,0,0-.08.23.55.55,0,0,1-.17.32A.94.94,0,0,1,186.71,95.35Z" transform="translate(-4.68 -9.18)"/><path class="cls-7" d="M187.59,96.06l.06,0h.17a1,1,0,0,0,.56-.26h0a.67.67,0,0,0,.41.27.82.82,0,0,0,.27,0,.45.45,0,0,0,.25-.16.61.61,0,0,0,0-.11l.06-.06a.43.43,0,0,1,.17-.06.47.47,0,0,0,.19-.06.2.2,0,0,0,.12-.17l-.05,0a.63.63,0,0,0,.44,0,.75.75,0,0,0,.31-.16.54.54,0,0,0,.13-.17l0-.08a1.13,1.13,0,0,1-.19.22.6.6,0,0,1-.29.13.57.57,0,0,1-.4,0l0,0v0a.14.14,0,0,1-.08.11.48.48,0,0,1-.17,0,.58.58,0,0,0-.21.07.18.18,0,0,0-.07.1s0,.07,0,.09-.12.1-.2.13a.65.65,0,0,1-.24,0,.59.59,0,0,1-.37-.23l0,0,0,0a1,1,0,0,1-.53.26A1.73,1.73,0,0,1,187.59,96.06Z" transform="translate(-4.68 -9.18)"/><path class="cls-7" d="M193.11,98.78a.08.08,0,0,1,0,0,.41.41,0,0,1,0-.07,1,1,0,0,0,0-.29A1.7,1.7,0,0,0,193,98a1.57,1.57,0,0,0-.14-.25.38.38,0,0,0-.12-.1.19.19,0,0,0-.18,0l0,0a.49.49,0,0,0-.18-.47.48.48,0,0,0-.56,0l0,0a.34.34,0,0,0-.11-.28.34.34,0,0,0-.31-.07.36.36,0,0,0-.15.1l.07,0a.21.21,0,0,0-.07-.18.28.28,0,0,0-.15-.08.66.66,0,0,0-.32,0l0,0a.49.49,0,0,0-.29-.24.64.64,0,0,0-.36,0,1.77,1.77,0,0,0-.56.22l0,0a.15.15,0,0,0,0-.13.23.23,0,0,0-.09-.08.31.31,0,0,0-.19,0,.78.78,0,0,0-.29.06l-.17.08-.06,0s.08,0,.24-.09a.74.74,0,0,1,.28,0,.33.33,0,0,1,.17,0s.1.09.06.14l0,.08.08,0a1.8,1.8,0,0,1,.55-.21.62.62,0,0,1,.33,0,.47.47,0,0,1,.25.21v0h0a.74.74,0,0,1,.29,0c.08,0,.17.1.15.18l0,.12.09-.09a.25.25,0,0,1,.12-.08.27.27,0,0,1,.23,0,.27.27,0,0,1,.09.22v.08l.07,0a.44.44,0,0,1,.48,0,.42.42,0,0,1,.16.41v.06l.06,0c.08,0,.17,0,.22.1a1.09,1.09,0,0,1,.14.23,1.89,1.89,0,0,1,.17.41A1,1,0,0,1,193.11,98.78Z" transform="translate(-4.68 -9.18)"/><path class="cls-7" d="M192.52,100.86l0,0a.64.64,0,0,0,.1-.14.57.57,0,0,0,.08-.26.38.38,0,0,0,0-.17.28.28,0,0,0-.15-.13v0a.35.35,0,0,0,.05-.36.34.34,0,0,0-.36-.19l0,0a.27.27,0,0,0,0-.32.39.39,0,0,0-.3-.17.88.88,0,0,1-.16,0,.13.13,0,0,1-.09-.09.51.51,0,0,0-.08-.17.36.36,0,0,0-.16-.11,1.84,1.84,0,0,0-.39,0,.39.39,0,0,1-.3-.12l-.09-.14a.29.29,0,0,0-.14-.13.4.4,0,0,0-.34,0l0,0a.28.28,0,0,0,0-.34.41.41,0,0,0-.26-.15,1.26,1.26,0,0,0-.48,0c-.13,0-.22.07-.29.09l-.1,0a3.67,3.67,0,0,1,.4-.1,1.18,1.18,0,0,1,.46,0,.35.35,0,0,1,.22.14.21.21,0,0,1,0,.26l-.08.11.12-.06a.31.31,0,0,1,.28,0,.23.23,0,0,1,.11.11s.05.1.09.15a.45.45,0,0,0,.17.11.58.58,0,0,0,.19,0,2.33,2.33,0,0,1,.37,0,.27.27,0,0,1,.12.09.35.35,0,0,1,.07.15.23.23,0,0,0,.14.13,1.41,1.41,0,0,0,.18,0,.34.34,0,0,1,.24.13.23.23,0,0,1,0,.25l-.07.07.1,0a.27.27,0,0,1,.29.15.29.29,0,0,1,0,.3l0,0h0a.27.27,0,0,1,.17.26.49.49,0,0,1-.07.25C192.57,100.79,192.51,100.86,192.52,100.86Z" transform="translate(-4.68 -9.18)"/><path class="cls-7" d="M192.75,104.79h.07a.49.49,0,0,0,.17-.12.43.43,0,0,0,.15-.29A.56.56,0,0,0,193,104v0a1.1,1.1,0,0,0,.22-.35.45.45,0,0,0,0-.23.26.26,0,0,0-.15-.19v.06a.41.41,0,0,0,.21-.36.47.47,0,0,0-.05-.24.37.37,0,0,0-.18-.17c-.07,0-.09-.07-.09-.14a.83.83,0,0,0,0-.22.78.78,0,0,0-.25-.31l-.25-.22a1.19,1.19,0,0,0-.43-.24l-.13,0h0s.06,0,.17,0a1.74,1.74,0,0,1,.4.26l.24.23a.7.7,0,0,1,.23.28.68.68,0,0,1,0,.2.18.18,0,0,0,0,.12.25.25,0,0,0,.1.08.37.37,0,0,1,.19.35.37.37,0,0,1-.18.3l-.06,0,.07,0a.29.29,0,0,1,.11.34.86.86,0,0,1-.2.33v0a.44.44,0,0,1,.11.37.48.48,0,0,1-.12.28A.52.52,0,0,1,192.75,104.79Z" transform="translate(-4.68 -9.18)"/><path class="cls-7" d="M186.67,98.4s.09,0,.22-.06a.51.51,0,0,0,.21-.16.35.35,0,0,0,.1-.3.19.19,0,0,0,0-.08l0,0a.41.41,0,0,0,.2-.23.37.37,0,0,0,0-.24c-.07-.12-.16-.14-.16-.13s.07,0,.12.15a.34.34,0,0,1,0,.2.33.33,0,0,1-.17.18h0v0a.14.14,0,0,1,0,.06.38.38,0,0,1-.08.25.5.5,0,0,1-.18.15C186.75,98.36,186.67,98.39,186.67,98.4Z" transform="translate(-4.68 -9.18)"/><path class="cls-7" d="M185.06,97.48a.41.41,0,0,1,0-.27.28.28,0,0,1,.19-.21.32.32,0,0,1,.34.08l0,0,0-.06a.58.58,0,0,1,.1-.21.27.27,0,0,1,.19-.11c.12,0,.24.11.2.2l.07,0a.55.55,0,0,1,.22-.34.53.53,0,0,1,.33-.09.76.76,0,0,1,.29.08s0,0-.06-.06a.79.79,0,0,0-.23-.07.59.59,0,0,0-.62.47l.06,0a.22.22,0,0,0,0-.22.31.31,0,0,0-.21-.09.38.38,0,0,0-.25.15.7.7,0,0,0-.11.23h.06a.39.39,0,0,0-.41-.1.33.33,0,0,0-.21.26.37.37,0,0,0,0,.22S185.05,97.48,185.06,97.48Z" transform="translate(-4.68 -9.18)"/><path class="cls-10" d="M189.15,102.29s1.78-.55,1.74,1.24a1.33,1.33,0,0,1-1.82,1.32S189.15,102.29,189.15,102.29Z" transform="translate(-4.68 -9.18)"/><path class="cls-11" d="M189.63,104.19s0,0,.08,0a.37.37,0,0,0,.24,0,.8.8,0,0,0,.37-.69,1.23,1.23,0,0,0-.08-.44.38.38,0,0,0-.23-.25.17.17,0,0,0-.19.09c0,.05,0,.08,0,.08s0,0,0-.1a.19.19,0,0,1,.07-.11.24.24,0,0,1,.17,0,.43.43,0,0,1,.32.28,1,1,0,0,1,.1.5.81.81,0,0,1-.47.76.34.34,0,0,1-.28,0C189.63,104.23,189.63,104.19,189.63,104.19Z" transform="translate(-4.68 -9.18)"/><path class="cls-8" d="M171.9,132.3l-.67-3.83h0l9.81-3s2.43-9.74,2.91-10.91c.59-1.45,2.74-3.08,3.53-3,1.37.19,4.24-.36,2.54,6.75-.66,2.75-2.35,7.53-3.49,10.63a4.2,4.2,0,0,1-3.7,2.74Z" transform="translate(-4.68 -9.18)"/><path class="cls-8" d="M189.37,109.62l-6.83,1.24c-.17.2-2.89,4.68-3.49,6s-2.62,8.4-2.62,8.4l-4.55,4.33,2.2,3.33a7.2,7.2,0,0,0,2.89,2.53c2.09,1,4.77,2.22,5.69,2.22a5.5,5.5,0,0,0,1.72-.35h0c.07-.14,6.71-14.31,7.12-18.63A14.87,14.87,0,0,0,189.37,109.62Z" transform="translate(-4.68 -9.18)"/><path class="cls-1" d="M158.91,114.46c.09,2.33,1,12.21,1,12.21l9.78,5.6.72-.7-9.6-5.65-.94-11.52a.49.49,0,0,0-.5-.45h0A.49.49,0,0,0,158.91,114.46Z" transform="translate(-4.68 -9.18)"/><path class="cls-6" d="M158.91,114.46a.09.09,0,0,1,0-.06.49.49,0,0,1,0-.18.51.51,0,0,1,.2-.22.52.52,0,0,1,.41,0,.5.5,0,0,1,.33.39c0,.19,0,.39.06.61,0,.45.08,1,.13,1.53.19,2.29.47,5.54.79,9.42l0,0c2.83,1.67,6.11,3.6,9.6,5.64l.06,0,0,.06-.12.11-.6.6,0,0,0,0-9.77-5.62h0v0c-.33-3.66-.59-6.71-.75-8.85-.09-1.07-.15-1.91-.18-2.48q0-.44,0-.66v-.17l0,.17,0,.66.2,2.48c.19,2.13.46,5.18.8,8.84l0,0,9.77,5.6h-.07l.61-.59.11-.12,0,.1L160.8,126h0v0c-.31-3.88-.57-7.14-.75-9.43L159.9,115c0-.22,0-.43-.05-.62a.47.47,0,0,0-.3-.36.51.51,0,0,0-.39,0,.56.56,0,0,0-.2.21A.76.76,0,0,0,158.91,114.46Z" transform="translate(-4.68 -9.18)"/><path class="cls-6" d="M160.84,125.92a2.41,2.41,0,0,1-.45.39,2.35,2.35,0,0,1-.48.35s.15-.23.41-.44A1.45,1.45,0,0,1,160.84,125.92Z" transform="translate(-4.68 -9.18)"/><path class="cls-10" d="M171.34,128.92,168.81,127l-4,1s.06.35.57.52l1.09-.17-2,1.38a1.11,1.11,0,0,0,.78.77,2,2,0,0,1,1,.72l1,1.09H170l1.87-.19-.55-3.16Z" transform="translate(-4.68 -9.18)"/><path class="cls-12" d="M190.06,118.31c-.66,2.75-2.35,7.53-3.49,10.63a4.2,4.2,0,0,1-3.7,2.74l-11,.62-.67-3.83h0l9.81-3s2.43-9.74,2.91-10.91" transform="translate(-4.68 -9.18)"/><path class="cls-6" d="M184,114.53l-.06.19c0,.13-.1.32-.17.57-.15.51-.35,1.25-.6,2.2-.5,1.9-1.2,4.63-2,8v0h0l-9.8,3h0l0-.07c.21,1.23.44,2.51.67,3.83l-.06,0,.78,0,10.21-.58a4.11,4.11,0,0,0,3.48-2.35c.15-.31.26-.63.38-1l.34-.93.63-1.76c.79-2.24,1.39-4.07,1.78-5.34.19-.63.33-1.13.42-1.47l.1-.38,0-.13,0,.13-.09.39c-.08.34-.21.84-.4,1.48-.37,1.27-1,3.1-1.75,5.35l-.62,1.76-.33.93c-.12.32-.23.64-.38,1a4.1,4.1,0,0,1-1.4,1.65,4.26,4.26,0,0,1-2.16.76l-10.21.58-.79.05h-.05v-.05c-.23-1.32-.45-2.6-.66-3.83v-.06h.09l9.81-3,0,0c.84-3.33,1.56-6.06,2.07-8,.26-1,.48-1.68.63-2.19.08-.24.14-.44.19-.56A1.38,1.38,0,0,1,184,114.53Z" transform="translate(-4.68 -9.18)"/><path class="cls-6" d="M189.88,114.29a2.27,2.27,0,0,0-.5-.83,3.3,3.3,0,0,0-2.14-.9,3.23,3.23,0,0,0-1.27.24,3.86,3.86,0,0,0-.93.54,6.42,6.42,0,0,0-.69.7.87.87,0,0,1,.14-.23,3.21,3.21,0,0,1,.5-.54,3.51,3.51,0,0,1,2.25-.83,3.26,3.26,0,0,1,2.2,1,1.69,1.69,0,0,1,.38.63.67.67,0,0,1,.05.19A.42.42,0,0,1,189.88,114.29Z" transform="translate(-4.68 -9.18)"/><path class="cls-7" d="M198.8,120.79c-.52-1.36-1.33-2.84-2.74-3.16a4.35,4.35,0,0,0-4.35,1.72,44.21,44.21,0,0,0-6.16,14.56,13.54,13.54,0,0,0-5.36,2.34,19,19,0,0,0-1.83,1.5,45.4,45.4,0,0,0-8.27-.64A28.29,28.29,0,0,0,160,139.86c-2.4,1.32-4.17,2.06-5.85,4.22-2.45,3.16-5.52,6.28-5.88,14.25l53.33-5V139.32C201.34,133.05,201,126.65,198.8,120.79Z" transform="translate(-4.68 -9.18)"/><path class="cls-6" d="M180.5,149.28a2.73,2.73,0,0,1,.08-.44c0-.15.06-.32.09-.52s.07-.44.09-.7a16,16,0,0,0,.09-1.81,14.82,14.82,0,0,0-.23-2.21,14.57,14.57,0,0,0-.57-2.15,13,13,0,0,0-.72-1.67c-.11-.24-.23-.44-.33-.62s-.19-.33-.27-.45a3.05,3.05,0,0,1-.22-.39,3.6,3.6,0,0,1,.27.36,3,3,0,0,1,.29.44c.11.18.24.37.36.61a12.8,12.8,0,0,1,.75,1.67,14.8,14.8,0,0,1,.59,2.17,13.83,13.83,0,0,1,.21,2.23,14,14,0,0,1-.11,1.84c0,.26-.08.49-.12.69a4.06,4.06,0,0,1-.12.52A2.21,2.21,0,0,1,180.5,149.28Z" transform="translate(-4.68 -9.18)"/><path class="cls-6" d="M194.17,142.59a2.07,2.07,0,0,1-.22-.41l-.26-.49c-.11-.19-.22-.41-.36-.64-.27-.47-.62-1-1-1.6a21.64,21.64,0,0,0-1.47-1.8,22.54,22.54,0,0,0-1.68-1.61c-.55-.46-1.06-.85-1.51-1.16l-.6-.41-.47-.29a3.71,3.71,0,0,1-.4-.26,2,2,0,0,1,.43.21l.48.27c.18.11.4.24.62.39.46.3,1,.69,1.54,1.14a21,21,0,0,1,1.7,1.62,20.25,20.25,0,0,1,1.47,1.82,16.76,16.76,0,0,1,1,1.63,6.94,6.94,0,0,1,.34.65c.1.19.18.36.24.5A2.78,2.78,0,0,1,194.17,142.59Z" transform="translate(-4.68 -9.18)"/><path class="cls-6" d="M197.23,117.27l-.21.07c-.13,0-.33.09-.58.19a9.76,9.76,0,0,0-2,1,12.87,12.87,0,0,0-2.6,2.1,17,17,0,0,0-2.43,3.29,31.46,31.46,0,0,0-2.65,7c-.25.92-.44,1.67-.57,2.19l-.16.6a.8.8,0,0,1-.07.2s0-.07,0-.21l.13-.6c.12-.53.29-1.28.53-2.21s.54-2,1-3.23a23.44,23.44,0,0,1,1.66-3.78,16.36,16.36,0,0,1,2.46-3.32,12.6,12.6,0,0,1,2.64-2.09,10,10,0,0,1,2.08-.93c.25-.09.46-.12.59-.16A.83.83,0,0,1,197.23,117.27Z" transform="translate(-4.68 -9.18)"/><path class="cls-6" d="M160.33,161.09l-.34,0a4.14,4.14,0,0,1-.93-.11,4.51,4.51,0,0,1-3.57-4.46,4,4,0,0,1,.11-.93,1,1,0,0,1,.1-.32,7.82,7.82,0,0,0-.1,1.24,4.65,4.65,0,0,0,1,2.78,4.74,4.74,0,0,0,2.49,1.59A10.18,10.18,0,0,0,160.33,161.09Z" transform="translate(-4.68 -9.18)"/><path class="cls-6" d="M156.34,160.6a2.74,2.74,0,0,1-.71-.38,8.06,8.06,0,0,1-1.5-1.23,8.5,8.5,0,0,1-1.16-1.56,3.29,3.29,0,0,1-.35-.73,7.28,7.28,0,0,1,.44.68,9.71,9.71,0,0,0,1.18,1.5,11.09,11.09,0,0,0,1.45,1.26A6.8,6.8,0,0,1,156.34,160.6Z" transform="translate(-4.68 -9.18)"/><path class="cls-6" d="M108.55,141.62s-1.7,3.09-3.87,6.84-4,6.79-4,6.77,1.7-3.08,3.88-6.84S108.51,141.6,108.55,141.62Z" transform="translate(-4.68 -9.18)"/><path class="cls-6" d="M112,154l-.11-.12-.29-.36-1.06-1.32c-.91-1.11-2.17-2.64-3.63-4.27s-2.83-3.07-3.83-4.09l-1.19-1.21-.33-.33c-.07-.08-.11-.12-.1-.12s0,0,.12.1l.35.31c.29.27.71.67,1.22,1.17,1,1,2.41,2.43,3.87,4.07s2.72,3.17,3.6,4.31c.44.56.79,1,1,1.35l.27.37C112,154,112,154,112,154Z" transform="translate(-4.68 -9.18)"/><path class="cls-6" d="M100.08,156.65a17.41,17.41,0,0,1-1.21-2.27c-.71-1.42-1.67-3.4-2.71-5.59s-2-4.17-2.65-5.62l-.79-1.71-.21-.47-.06-.16s0,0,.09.15l.23.46c.21.41.49,1,.83,1.69l2.69,5.6L99,154.34c.34.7.61,1.28.81,1.7l.23.46Z" transform="translate(-4.68 -9.18)"/><path class="cls-6" d="M100.08,142.25l-.1.14-.29.4c-.26.35-.64.84-1.13,1.43-1,1.2-2.34,2.81-3.87,4.58s-2.93,3.36-3.92,4.54l-1.15,1.4-.32.38c-.07.08-.11.13-.12.12l.1-.14.29-.4c.26-.34.64-.83,1.12-1.43,1-1.19,2.34-2.81,3.88-4.57s2.93-3.37,3.91-4.54l1.16-1.4.32-.38C100,142.29,100.07,142.25,100.08,142.25Z" transform="translate(-4.68 -9.18)"/><path class="cls-7" d="M92.45,139c0,.53-6.67,22.69-6.67,22.69h1.57l7-22.17Z" transform="translate(-4.68 -9.18)"/><path class="cls-6" d="M92.45,139l.12,0,.38.09,1.45.37h0v0c-1.14,3.67-3.83,12.22-7,22.18v0l0,.05H85.68l0-.1c1.89-6.33,3.59-12,4.81-16.08.6-2,1.09-3.69,1.43-4.83l.51-1.76a1.13,1.13,0,0,0,0,.12c0,.08,0,.19-.08.34-.08.3-.2.75-.36,1.32-.32,1.14-.79,2.79-1.39,4.84-1.19,4.09-2.86,9.76-4.75,16.1l-.07-.1h1.57l-.07.05v0c3.16-9.95,5.89-18.49,7.07-22.14l0,0L93,139.16l-.38-.11Z" transform="translate(-4.68 -9.18)"/><path class="cls-7" d="M99.87,138.42c.1.52-.36,23.28-.36,23.28h1.64l.71-23.31Z" transform="translate(-4.68 -9.18)"/><path class="cls-6" d="M99.87,138.42h.51l1.48,0h0v0c-.09,3.82-.34,12.74-.66,23.13v.26H99.44v-.08c.13-6.51.24-12.33.32-16.53l.09-4.95,0-1.8a.55.55,0,0,1,0,.12,2.68,2.68,0,0,1,0,.34c0,.31,0,.76,0,1.34,0,1.17,0,2.86,0,4.95,0,4.19-.15,10-.27,16.54l-.08-.08h1.64l-.07.07v-.19c.32-10.39.61-19.3.75-23.12l0,0h-2Z" transform="translate(-4.68 -9.18)"/><path class="cls-7" d="M108.55,139.27c0,.53,6.52,22.43,6.52,22.43h-1.58l-7.1-22.17Z" transform="translate(-4.68 -9.18)"/><path class="cls-6" d="M108.55,139.27l-.15,0-.41.06-1.6.21,0,0c1.21,3.69,3.92,12.11,7.06,21.91l.08.25-.07-.05h1.58l-.07.1c-1.85-6.28-3.49-11.89-4.65-15.93-.58-2-1-3.65-1.35-4.78-.16-.56-.27-1-.35-1.29s-.06-.26-.08-.34a1.13,1.13,0,0,0,0-.12l.5,1.74,1.4,4.76,4.69,15.91,0,.1h-1.73l0-.05-.08-.26c-3.14-9.8-5.82-18.23-7-21.94v0h0l1.62-.18.41,0Z" transform="translate(-4.68 -9.18)"/><path class="cls-3" d="M81.18,121.68c.1.26,4.6,13.18,7.16,16.45s6.11,4.71,10.35,4.87c4,.15,16.4-2.39,16.4-2.39s2.8-4.51,3-5-2.39-12.12-3.54-13.63-9.82-.58-12.12-2.19-6.19-5.24-8.41-5.68S79.1,116.28,81.18,121.68Z" transform="translate(-4.68 -9.18)"/><path class="cls-6" d="M81.18,121.68a2.32,2.32,0,0,1-.09-.26,2.9,2.9,0,0,1-.15-.79,3.08,3.08,0,0,1,.23-1.28,4.39,4.39,0,0,1,1-1.44,12.39,12.39,0,0,1,4.22-2.4,25.29,25.29,0,0,1,2.92-.87,21.34,21.34,0,0,1,3.37-.56c.3,0,.61,0,.92,0a3.16,3.16,0,0,1,.91.2,9,9,0,0,1,1.71.89c1.11.7,2.19,1.54,3.29,2.4l1.69,1.33c.28.23.58.45.87.67a3.92,3.92,0,0,0,1,.55,6.28,6.28,0,0,0,1.07.31c.37.08.75.14,1.13.19.76.1,1.54.17,2.32.22,1.58.12,3.2.16,4.85.38a8.68,8.68,0,0,1,1.23.26,3.16,3.16,0,0,1,.6.25,1.16,1.16,0,0,1,.45.48,13.63,13.63,0,0,1,.91,2.4c.51,1.65.94,3.35,1.35,5.08s.81,3.49,1.11,5.29l.06.42a1.55,1.55,0,0,1,0,.22.48.48,0,0,1-.08.22c-.13.24-.27.48-.41.72l-.84,1.4-1.67,2.71v0h0c-3.21.65-6.34,1.21-9.36,1.68-1.52.23-3,.44-4.47.58-.36,0-.72.07-1.09.09s-.72,0-1.08,0a18.39,18.39,0,0,1-2.12-.15,18.87,18.87,0,0,1-2-.39,15.22,15.22,0,0,1-1.9-.66,12.43,12.43,0,0,1-3.22-2.07,11.66,11.66,0,0,1-2.26-2.75c-.58-1-1-2-1.5-2.92-.87-1.89-1.58-3.63-2.19-5.16s-1.1-2.85-1.5-3.93-.7-1.92-.9-2.49l-.22-.65-.07-.22.08.21.24.65.92,2.48c.41,1.08.91,2.4,1.53,3.92s1.33,3.27,2.2,5.15a32.31,32.31,0,0,0,1.51,2.9,11.43,11.43,0,0,0,2.24,2.72,11.91,11.91,0,0,0,3.19,2,13.15,13.15,0,0,0,1.89.65,16.61,16.61,0,0,0,4.12.53c.35,0,.71,0,1.07,0s.73,0,1.09-.09c1.46-.14,2.94-.35,4.45-.58,3-.47,6.16-1,9.36-1.68l0,0c.54-.88,1.09-1.79,1.66-2.71l.84-1.4c.14-.23.28-.47.41-.71,0-.06.07-.13.06-.16a1.41,1.41,0,0,0,0-.2c0-.13,0-.27,0-.4-.3-1.8-.71-3.56-1.11-5.29s-.84-3.42-1.35-5.07a13.45,13.45,0,0,0-.89-2.37,1.13,1.13,0,0,0-.41-.43,3.13,3.13,0,0,0-.56-.23,9.63,9.63,0,0,0-1.21-.26c-1.63-.22-3.26-.26-4.84-.38-.79,0-1.56-.12-2.33-.22-.38-.06-.76-.12-1.14-.2a6.82,6.82,0,0,1-1.09-.32,3.75,3.75,0,0,1-1-.57l-.88-.67-1.68-1.33a39.52,39.52,0,0,0-3.28-2.4,8.72,8.72,0,0,0-1.68-.88,3.91,3.91,0,0,0-1.79-.18,20.33,20.33,0,0,0-3.36.54,23.31,23.31,0,0,0-2.91.86A12.48,12.48,0,0,0,82.25,118a4.33,4.33,0,0,0-1,1.42,3,3,0,0,0-.24,1.26,3,3,0,0,0,.13.78C81.15,121.59,81.18,121.68,81.18,121.68Z" transform="translate(-4.68 -9.18)"/><path class="cls-7" d="M95.87,108.67a4.46,4.46,0,0,1,3.39,2.57c1.32,2.47,4.52,8.63,4.52,8.63l10,6.43-2.42,2.63s-9.76-3.62-10.16-4.2-2.79-8.16-2.79-8.16l-2.83-7.68" transform="translate(-4.68 -9.18)"/><path class="cls-7" d="M85.75,107l-1,1.54L82.27,110l4.79,12.1.92,3.55s.86,2.22,2.52,2.83,12.35-2,12.35-2l-2.58-6.57s0-3.75-.18-5-4.22-6.22-4.22-6.22L93.34,108,92,106.85Z" transform="translate(-4.68 -9.18)"/><path class="cls-7" d="M82.63,109.83a4.25,4.25,0,0,0-2.22,4.66c.54,2.56,3.58,9.59,5.19,10.94a3.43,3.43,0,0,0,4.77-.08L92,121l-5-3.34Z" transform="translate(-4.68 -9.18)"/><path class="cls-6" d="M87,117.41s-.52-.81-1.14-1.82c-.31-.51-.57-1-.75-1.32a2.45,2.45,0,0,1-.26-.58s.52.81,1.14,1.82c.31.51.57,1,.75,1.33A2.31,2.31,0,0,1,87,117.41Z" transform="translate(-4.68 -9.18)"/><path class="cls-6" d="M93.15,113.31s-.17-.13-.49-.36a7.64,7.64,0,0,0-1.43-.83l.08-.05L91.23,114v.15l-.11-.1-1.53-1.35-3.29-3-1-.91a3,3,0,0,1-.35-.35,2.76,2.76,0,0,1,.39.31l1,.87c.86.74,2,1.77,3.32,2.92l1.52,1.35-.12,0,.11-1.93V112l.08,0a7,7,0,0,1,1.42.87l.34.3C93.12,113.27,93.16,113.31,93.15,113.31Z" transform="translate(-4.68 -9.18)"/><path class="cls-6" d="M93.34,108.07a7.6,7.6,0,0,1,.37.94c.21.59.48,1.4.78,2.3l.24.72,0,.14-.13,0a2.35,2.35,0,0,1-1-.66l.11,0c0,.45,0,.82,0,1.07a1.51,1.51,0,0,1,0,.4,2.12,2.12,0,0,1,0-.4c0-.26,0-.62,0-1.07v-.15l.11.11a2.47,2.47,0,0,0,1,.6l-.09.09c-.08-.23-.16-.48-.24-.73-.3-.9-.56-1.71-.74-2.31A7.22,7.22,0,0,1,93.34,108.07Z" transform="translate(-4.68 -9.18)"/><path class="cls-6" d="M86.86,126.14a5.31,5.31,0,0,0,.62.12,3.26,3.26,0,0,0,1.69-.34A3.46,3.46,0,0,0,90.81,124c.34-.94.71-2,1.11-3.06l0,.09-.53-.34-4.57-2.94.08,0L85.83,120l-.31.62-.12.22s0-.08.08-.23l.29-.64,1.06-2.31,0-.06,0,0,4.59,2.92.53.33,0,0,0,.06L90.94,124a3.49,3.49,0,0,1-1.73,2,3.14,3.14,0,0,1-1.73.3,1.71,1.71,0,0,1-.47-.11C86.9,126.17,86.85,126.14,86.86,126.14Z" transform="translate(-4.68 -9.18)"/><path class="cls-6" d="M102.57,125.18s0,0-.06-.12l-.15-.34-.52-1.28c-.45-1.11-1-2.63-1.75-4.38h0c0-.58,0-1.18,0-1.8s0-1.14-.06-1.69a8.08,8.08,0,0,0-.2-1.54,7.09,7.09,0,0,0-.64-1.26c-.22-.38-.44-.73-.65-1-.41-.64-.76-1.15-1-1.5l-.28-.4c-.06-.1-.09-.15-.08-.15l.11.13.29.39c.25.34.61.84,1,1.47.21.32.44.67.67,1A6.67,6.67,0,0,1,100,114a8.74,8.74,0,0,1,.22,1.57c0,.55,0,1.12.06,1.7s0,1.22,0,1.8v0l1.69,4.4.49,1.29.12.35A.63.63,0,0,1,102.57,125.18Z" transform="translate(-4.68 -9.18)"/><path class="cls-6" d="M94.59,122.75a9.26,9.26,0,0,1,.47-.84,11.87,11.87,0,0,0,.9-2.11,12.44,12.44,0,0,0,.49-2.24c.07-.58.08-1,.1-1a.9.9,0,0,1,0,.26c0,.17,0,.41,0,.7a9.76,9.76,0,0,1-.45,2.28,9.41,9.41,0,0,1-.95,2.11c-.16.26-.29.46-.39.59A1.18,1.18,0,0,1,94.59,122.75Z" transform="translate(-4.68 -9.18)"/><path class="cls-7" d="M122.32,152.67l-.28,5.72s5.71,2.2,5.77,3.26l-11.1-.14.07-8.92Z" transform="translate(-4.68 -9.18)"/><path class="cls-1" d="M118.61,157.86a.47.47,0,0,0-.32.51.45.45,0,0,0,.51.33.49.49,0,0,0,.34-.55.46.46,0,0,0-.57-.28" transform="translate(-4.68 -9.18)"/><path class="cls-6" d="M116.7,161.74v-.86l10.68.2s.49.22.43.57Z" transform="translate(-4.68 -9.18)"/><path class="cls-6" d="M122.22,158.33c0,.06-.27.08-.54.25s-.42.39-.47.37,0-.33.37-.53S122.23,158.28,122.22,158.33Z" transform="translate(-4.68 -9.18)"/><path class="cls-6" d="M123.38,158.83s-.23.14-.41.37-.25.47-.3.46-.08-.31.15-.59S123.38,158.78,123.38,158.83Z" transform="translate(-4.68 -9.18)"/><path class="cls-6" d="M124,160.23s-.12-.26,0-.56.4-.41.42-.36-.13.2-.25.45S124.08,160.23,124,160.23Z" transform="translate(-4.68 -9.18)"/><path class="cls-6" d="M122.14,157s-.27,0-.58,0-.54.11-.57.06.2-.23.56-.25S122.17,157,122.14,157Z" transform="translate(-4.68 -9.18)"/><path class="cls-7" d="M125.93,139.94l2.2,5.28s6.11-.47,6.61.47l-10.09,4.64-3.77-8.09Z" transform="translate(-4.68 -9.18)"/><path class="cls-1" d="M124.81,146.22a.46.46,0,0,0-.07.6.45.45,0,0,0,.6.07.49.49,0,0,0,.07-.64.45.45,0,0,0-.63,0" transform="translate(-4.68 -9.18)"/><path class="cls-6" d="M124.74,150.54l-.36-.78,9.72-4.4s.54,0,.64.33Z" transform="translate(-4.68 -9.18)"/><path class="cls-6" d="M128.27,145.09s-.22.19-.39.46-.2.53-.25.53-.11-.31.1-.63S128.26,145,128.27,145.09Z" transform="translate(-4.68 -9.18)"/><path class="cls-6" d="M129.53,145c0,.05-.14.23-.22.51s0,.53-.06.55-.21-.24-.12-.6S129.51,145,129.53,145Z" transform="translate(-4.68 -9.18)"/><path class="cls-6" d="M130.71,146s-.22-.18-.22-.51.19-.54.22-.51,0,.24,0,.51S130.76,146,130.71,146Z" transform="translate(-4.68 -9.18)"/><path class="cls-6" d="M127.63,143.94c0,.06-.25.09-.52.24s-.45.34-.49.31.08-.31.4-.47S127.64,143.89,127.63,143.94Z" transform="translate(-4.68 -9.18)"/><path class="cls-6" d="M85.13,94.67a3.26,3.26,0,0,1,5.79-1.9c.78,1,1.06,2.38,2.15,3,.75.4,1.7.27,2.44.69,1.56.88,1.3,3.59,2.92,4.35a7.38,7.38,0,0,1-2.74,2.08,2.06,2.06,0,0,0-.75-.9,1.69,1.69,0,0,1-.31,1.94A4.45,4.45,0,0,1,92.85,105a13,13,0,0,1-4.92,1.09,5.89,5.89,0,0,1-4.5-2,3.72,3.72,0,0,0-.87-.94,4.63,4.63,0,0,0-1.34-.34,3.25,3.25,0,0,1-2.45-2.65c1.06-.28,1.59-1.46,1.82-2.53a6.13,6.13,0,0,1,1.12-3,2.4,2.4,0,0,1,3.77.39" transform="translate(-4.68 -9.18)"/><path class="cls-13" d="M83.07,97.54l-.22-.9L88,94.36a3.68,3.68,0,0,1,4.3,2.32,30.31,30.31,0,0,1,1.25,5.51,3.55,3.55,0,0,1-1.83,3.73l.76,3.4.85,3.75-7.43-5.76Z" transform="translate(-4.68 -9.18)"/><path class="cls-6" d="M91.83,99.13a.37.37,0,0,1-.26.44.35.35,0,0,1-.45-.23.37.37,0,0,1,.26-.44A.35.35,0,0,1,91.83,99.13Z" transform="translate(-4.68 -9.18)"/><path class="cls-6" d="M92,98c0,.06-.35-.08-.73,0s-.62.35-.67.31,0-.11.1-.23a1,1,0,0,1,.52-.3.89.89,0,0,1,.6,0C91.94,97.9,92,98,92,98Z" transform="translate(-4.68 -9.18)"/><path class="cls-6" d="M88.42,100a.37.37,0,0,1-.7.21.37.37,0,0,1,.26-.44A.34.34,0,0,1,88.42,100Z" transform="translate(-4.68 -9.18)"/><path class="cls-6" d="M88.23,99c0,.06-.35-.08-.73,0s-.62.35-.68.32,0-.12.11-.23a1,1,0,0,1,.52-.31,1,1,0,0,1,.6.05C88.19,98.85,88.25,98.93,88.23,99Z" transform="translate(-4.68 -9.18)"/><path class="cls-6" d="M90.28,101.47a3.1,3.1,0,0,1,.6-.26c.1,0,.18-.07.19-.14a.56.56,0,0,0-.14-.28l-.46-.67a13.94,13.94,0,0,1-1.11-1.8,13,13,0,0,1,1.25,1.7l.45.69a.51.51,0,0,1,.14.37.27.27,0,0,1-.12.18l-.16.06A2.87,2.87,0,0,1,90.28,101.47Z" transform="translate(-4.68 -9.18)"/><path class="cls-14" d="M91.71,105.93a7.59,7.59,0,0,1-4-.11,3.77,3.77,0,0,0,4.21.8Z" transform="translate(-4.68 -9.18)"/><path class="cls-14" d="M90.34,102.43a.72.72,0,0,0-.68-.11.67.67,0,0,0-.38.34.41.41,0,0,0,.07.46.5.5,0,0,0,.54,0,1.37,1.37,0,0,0,.42-.41.32.32,0,0,0,.08-.14.12.12,0,0,0,0-.14" transform="translate(-4.68 -9.18)"/><path class="cls-6" d="M89.22,102c.06,0,.16.4.58.61s.86.06.88.12-.08.1-.27.15a1,1,0,0,1-.72-.07,1,1,0,0,1-.47-.52C89.17,102.12,89.19,102,89.22,102Z" transform="translate(-4.68 -9.18)"/><path class="cls-6" d="M88.06,97.85c0,.11-.41.15-.84.31s-.78.37-.86.29,0-.15.13-.29a1.5,1.5,0,0,1,.59-.37,1.4,1.4,0,0,1,.7-.08C88,97.74,88.07,97.8,88.06,97.85Z" transform="translate(-4.68 -9.18)"/><path class="cls-6" d="M91.66,96.69c0,.1-.33.07-.65.14s-.57.2-.66.12,0-.13.09-.24a.92.92,0,0,1,.49-.27.9.9,0,0,1,.56.06C91.62,96.56,91.68,96.64,91.66,96.69Z" transform="translate(-4.68 -9.18)"/><path class="cls-6" d="M87.93,94.5a3.05,3.05,0,0,1-1.48,3c-.42.23-1,.45-1,.92s.46.83.75,1.23a1.54,1.54,0,0,1,0,1.71c-.19.29-.47.51-.64.81a1.52,1.52,0,0,0-.06,1.33,2.18,2.18,0,0,0,.89,1,2.57,2.57,0,0,1-2.85-1,4.25,4.25,0,0,1-.4-1.87,23.5,23.5,0,0,0-.69-4.34,1.22,1.22,0,0,1,0-.73,1.15,1.15,0,0,1,.54-.48,36.91,36.91,0,0,1,4.33-2" transform="translate(-4.68 -9.18)"/><path class="cls-15" d="M82.82,97.82" transform="translate(-4.68 -9.18)"/><path class="cls-6" d="M87.23,94.22a6.07,6.07,0,0,0,1.34,1.29,2,2,0,0,0,1.78.25l-.44-.48a9.09,9.09,0,0,0,3.43,1.42,10.2,10.2,0,0,0-2.62-2.5,3.44,3.44,0,0,0-3.46-.15" transform="translate(-4.68 -9.18)"/><path class="cls-7" d="M90.4,99.31a1.47,1.47,0,0,1-.06-.4,1.6,1.6,0,0,1,.35-1,1.68,1.68,0,0,1,.6-.47,1.63,1.63,0,0,1,.86-.14,1.54,1.54,0,0,1,.46.11,1.41,1.41,0,0,1,.42.26,1.63,1.63,0,0,1,.55.87,1.57,1.57,0,0,1-.08,1,1.52,1.52,0,0,1-.25.43,1.8,1.8,0,0,1-.36.32,1.73,1.73,0,0,1-.83.27,1.49,1.49,0,0,1-.74-.14,1.59,1.59,0,0,1-.79-.74,1.56,1.56,0,0,1-.13-.38,3.62,3.62,0,0,0,.16.36,1.63,1.63,0,0,0,1.5.83,1.63,1.63,0,0,0,.79-.27,1.55,1.55,0,0,0,.33-.3,1.64,1.64,0,0,0,.32-1.38,1.6,1.6,0,0,0-.52-.83,1.48,1.48,0,0,0-.84-.36,1.49,1.49,0,0,0-.82.13,1.58,1.58,0,0,0-.94,1.42A3.15,3.15,0,0,0,90.4,99.31Z" transform="translate(-4.68 -9.18)"/><path class="cls-7" d="M86.26,100.33a1.12,1.12,0,0,1-.07-.39,1.67,1.67,0,0,1,.35-1,1.8,1.8,0,0,1,.6-.47A1.63,1.63,0,0,1,88,98.3a1.31,1.31,0,0,1,.46.12,1.56,1.56,0,0,1,.43.25,1.66,1.66,0,0,1,.47,1.91,2,2,0,0,1-.26.42,1.22,1.22,0,0,1-.36.32,1.64,1.64,0,0,1-1.57.13,1.64,1.64,0,0,1-.79-.74,1.16,1.16,0,0,1-.12-.38,2.33,2.33,0,0,0,.15.36,1.58,1.58,0,0,0,1.5.83,1.59,1.59,0,0,0,.79-.27A1.34,1.34,0,0,0,89,101a1.55,1.55,0,0,0,.25-.41,1.6,1.6,0,0,0,.07-1,1.54,1.54,0,0,0-.52-.83,1.41,1.41,0,0,0-.4-.25,1.36,1.36,0,0,0-.44-.11,1.5,1.5,0,0,0-.82.13,1.62,1.62,0,0,0-.58.44,1.57,1.57,0,0,0-.36,1A2.06,2.06,0,0,0,86.26,100.33Z" transform="translate(-4.68 -9.18)"/><path class="cls-7" d="M89.29,99.21s0-.07.1-.16a.74.74,0,0,1,.42-.23.75.75,0,0,1,.47.08c.11.06.16.13.15.13s-.07,0-.18-.07a.81.81,0,0,0-.43,0,.94.94,0,0,0-.39.18C89.34,99.16,89.3,99.22,89.29,99.21Z" transform="translate(-4.68 -9.18)"/><path class="cls-4" d="M92.59,100.07a2.59,2.59,0,0,0,.47-.56,2,2,0,0,0,.18-.71s0,.08,0,.22a1.2,1.2,0,0,1-.14.53,1.21,1.21,0,0,1-.34.41C92.67,100.05,92.59,100.08,92.59,100.07Z" transform="translate(-4.68 -9.18)"/><path class="cls-4" d="M88.48,101.18a2.41,2.41,0,0,0,.46-.56,2.2,2.2,0,0,0,.19-.71s0,.08,0,.22a1.2,1.2,0,0,1-.14.53,1.12,1.12,0,0,1-.35.41C88.56,101.16,88.48,101.19,88.48,101.18Z" transform="translate(-4.68 -9.18)"/><path class="cls-13" d="M90.74,105.58s-.6-.57-1-.43a3.3,3.3,0,0,0-.51.28,1.39,1.39,0,0,0-.63.92l-.6,3s-.43,3-.61,4.28-.38,4-.38,4l4.5,3-1.09-8.87a9.54,9.54,0,0,0,1.29-2.11c.21-.75.32-1.07.32-1.07l.11-.53.43,0a.29.29,0,0,0,.48-.25.08.08,0,0,0,0-.06l-.69-.59s0-.56-.28-.74a1.33,1.33,0,0,0-.38-.17.82.82,0,0,0-.68.12l-.33.22.16-.26a.61.61,0,0,0-.09-.73Z" transform="translate(-4.68 -9.18)"/><path class="cls-14" d="M90.74,105.58a.17.17,0,0,1,.05,0,.46.46,0,0,1,.11.18.67.67,0,0,1,0,.35,1.71,1.71,0,0,1-.22.42l0,0,.38-.27a.92.92,0,0,1,.55-.1,1.71,1.71,0,0,1,.3.09.71.71,0,0,1,.28.18,1.36,1.36,0,0,1,.21.69v0l.6.51.08.07a.22.22,0,0,1,.06.13.36.36,0,0,1-.09.24.35.35,0,0,1-.48,0l0,0-.44,0,.06,0-.11.53h0l-.24.79c0,.14-.07.28-.12.42s-.12.28-.19.41a12.46,12.46,0,0,1-1.06,1.58l0-.05c.32,2.59.7,5.63,1.1,8.87l0,.16-.14-.09-.43-.28L87,117.69l0,0v0c.08-1,.16-2,.26-3s.24-1.85.36-2.7.24-1.66.35-2.41.28-1.43.41-2l.18-.88c0-.14,0-.28.09-.41a1.49,1.49,0,0,1,.17-.36,1.36,1.36,0,0,1,.51-.48,2.16,2.16,0,0,1,.53-.26.72.72,0,0,1,.45.1,3.06,3.06,0,0,1,.29.18l.16.14s0,0,0,0l0,0-.17-.12a1.22,1.22,0,0,0-.28-.17.69.69,0,0,0-.43-.09,2.05,2.05,0,0,0-.51.26,1.43,1.43,0,0,0-.48.47,1.3,1.3,0,0,0-.15.34c0,.13-.06.26-.09.4l-.17.89c-.12.62-.27,1.3-.39,2s-.22,1.55-.34,2.41-.26,1.75-.35,2.7-.17,1.93-.25,3l0-.07,4.07,2.67.44.29-.12.07c-.4-3.24-.77-6.28-1.08-8.88v0l0,0a12.18,12.18,0,0,0,1-1.56c.07-.13.13-.26.19-.39l.12-.41.25-.8h0l.12-.53v0h0l.44,0h0a.25.25,0,0,0,.34,0,.25.25,0,0,0,.06-.16s0-.07,0-.07l-.08-.07-.6-.52h0v0a1.3,1.3,0,0,0-.19-.64.56.56,0,0,0-.25-.17,1.47,1.47,0,0,0-.28-.08.81.81,0,0,0-.51.09,4.18,4.18,0,0,0-.38.25l-.09,0,.05-.09a2.49,2.49,0,0,0,.23-.4.6.6,0,0,0,0-.33A.53.53,0,0,0,90.74,105.58Z" transform="translate(-4.68 -9.18)"/><path class="cls-14" d="M91.07,107.62s0-.1.09-.23a1,1,0,0,1,.43-.43.64.64,0,0,1,.61,0c.13.1.18.18.17.19s-.32-.27-.71-.07a1.37,1.37,0,0,0-.42.35C91.15,107.56,91.08,107.63,91.07,107.62Z" transform="translate(-4.68 -9.18)"/><path class="cls-14" d="M90.9,106.38s-.09.16-.23.32-.26.28-.3.26,0-.19.19-.36S90.88,106.34,90.9,106.38Z" transform="translate(-4.68 -9.18)"/><path class="cls-14" d="M90.72,105.55a.85.85,0,0,0-.8.23c-.32.38-.53.76-.56.74a1.68,1.68,0,0,1,.45-.84,1.07,1.07,0,0,1,.32-.23.66.66,0,0,1,.33,0C90.65,105.46,90.73,105.54,90.72,105.55Z" transform="translate(-4.68 -9.18)"/><path class="cls-6" d="M94.94,128a54.25,54.25,0,0,1,7.85-1.73,108.34,108.34,0,0,1,14.68-1.19c2.18.26,3.19,2,4.26,3.29s7.34,14.07,7.34,14.07l-6,2.41-.46-9.9a5.49,5.49,0,0,0-6.47-2.65s-8.2,5.16-10.33,5.69-7.6,2.61-11.32-.21-4-9.35-4-9.35Z" transform="translate(-4.68 -9.18)"/><path class="cls-6" d="M107.31,137.31l7.29.81a3,3,0,0,1,.74,1.83l.34,15.77h7.68l-.58-20.1a3.75,3.75,0,0,0-4.64-3.78,14.37,14.37,0,0,0-7.35,3Z" transform="translate(-4.68 -9.18)"/><path class="cls-7" d="M123,144.88a.32.32,0,0,0,0-.07v-.22l0-.82c0-.72-.06-1.75-.11-3s-.08-2.79-.14-4.47a4.91,4.91,0,0,0-.78-2.46,4.63,4.63,0,0,0-.9-1,5.13,5.13,0,0,0-1.21-.73,4.45,4.45,0,0,0-1.38-.31,3.54,3.54,0,0,0-1.34.19,24,24,0,0,0-2.39,1.12c-1.49.78-2.8,1.55-3.9,2.2s-2,1.19-2.58,1.57l-.7.43-.18.1-.07,0,.06-.05.18-.12.68-.45c.6-.39,1.47-.95,2.56-1.61s2.39-1.44,3.89-2.23a25.48,25.48,0,0,1,2.4-1.14,3.66,3.66,0,0,1,1.4-.2,4.78,4.78,0,0,1,1.43.32,5.23,5.23,0,0,1,1.24.76,4.71,4.71,0,0,1,.94,1.06,5.07,5.07,0,0,1,.79,2.53c0,1.68.08,3.2.11,4.48l.05,3v1S123.05,144.88,123,144.88Z" transform="translate(-4.68 -9.18)"/><path class="cls-3" d="M84.8,125.7A55.84,55.84,0,0,0,97.25,129c7,1,10.58.19,11.33,2.28.56,1.58,1.2,9.76,1.2,9.76s-11.5,2.35-15.52-.13-5.85-6.12-7.25-9.67c-1.61-4.1-2.21-5.51-2.21-5.51" transform="translate(-4.68 -9.18)"/><path class="cls-6" d="M109.21,140.3l0-.16-.07-.46c-.06-.42-.15-1-.25-1.75-.21-1.51-.51-3.65-.86-6.19h0a2.24,2.24,0,0,0-1.12-1.19,4.61,4.61,0,0,0-1.76-.43l-1.93-.1-2-.16a67,67,0,0,1-11.26-2.05c-1.41-.39-2.54-.76-3.32-1l-.89-.32-.23-.08s-.08,0-.07,0l.08,0,.23.07.9.29c.78.24,1.91.59,3.33,1a68.44,68.44,0,0,0,11.24,2l2,.16c.66,0,1.31.06,2,.11a4.72,4.72,0,0,1,1.8.44,2.36,2.36,0,0,1,1.19,1.28h0c.33,2.55.61,4.69.8,6.2l.22,1.75,0,.47C109.21,140.24,109.21,140.3,109.21,140.3Z" transform="translate(-4.68 -9.18)"/><polygon class="cls-1" points="111 116.73 101.11 116.34 90.89 117.99 102.93 118.39 111 116.73"/><path class="cls-6" d="M115.69,125.9l-8.07,1.72h0l-12-.38h0v-.15l10.22-1.64h0l9.9.45-9.91-.32h0l-10.22,1.66v-.15h0l12,.41h0Z" transform="translate(-4.68 -9.18)"/><polygon class="cls-1" points="90.89 117.99 102.97 117.99 106.17 105.31 114.96 105.31 111.78 117.04 102.93 118.8 90.89 118.51 90.89 117.99"/><path class="cls-6" d="M95.57,127.17a.6.6,0,0,1,0,.13v.39h0c1.35,0,5.76.1,12,.24h0l8.84-1.77,0,0c1-3.62,2.06-7.58,3.18-11.73l.08.09h-8.79l.07-.06-3.22,12.68v0h0l-8.81,0h0l8.85,0-.06,0c.9-3.59,2-7.92,3.19-12.68v-.06h8.94l0,.1c-1.13,4.14-2.21,8.11-3.2,11.72v0h0L107.62,128h0c-6.28-.16-10.69-.28-12-.33h0v-.52Z" transform="translate(-4.68 -9.18)"/><path class="cls-4" d="M113.64,120.42c-.11.52.07,1,.39,1.06s.67-.31.78-.83-.08-1-.4-1.06S113.74,119.9,113.64,120.42Z" transform="translate(-4.68 -9.18)"/><path class="cls-1" d="M40.81,137.57A29.44,29.44,0,0,0,51.33,140c4.8,0,10.17-2.42,10.17-2.42Z" transform="translate(-4.68 -9.18)"/><rect class="cls-1" x="45.13" y="128.62" width="2.06" height="21.55"/><rect class="cls-1" x="37.12" y="149.28" width="18.26" height="1.26"/><circle class="cls-6" cx="37.87" cy="151.08" r="1.39"/><path class="cls-6" d="M52.06,160.26a1.4,1.4,0,1,1-1.4-1.39A1.4,1.4,0,0,1,52.06,160.26Z" transform="translate(-4.68 -9.18)"/><circle class="cls-6" cx="55.38" cy="151.08" r="1.39"/><rect class="cls-1" x="43.85" y="136.38" width="2.8" height="1.16"/><rect class="cls-1" x="43.34" y="135.57" width="1.02" height="2.78"/><path class="cls-7" d="M62,137.57H39.12A1.55,1.55,0,0,1,37.57,136h0a1.55,1.55,0,0,1,1.55-1.54H64v1.08A2,2,0,0,1,62,137.57Z" transform="translate(-4.68 -9.18)"/><path class="cls-7" d="M46.17,104.37l16.12.2A1.46,1.46,0,0,1,63.74,106L64,134.48l-21.72.29,2.45-29.06A1.46,1.46,0,0,1,46.17,104.37Z" transform="translate(-4.68 -9.18)"/><path class="cls-6" d="M38.34,135.22s5,.06,11.12.06,11.12,0,11.12-.06-5-.06-11.12-.06S38.34,135.19,38.34,135.22Z" transform="translate(-4.68 -9.18)"/><path class="cls-6" d="M60.66,123.1s-.06,2.69-.06,6,0,6,.06,6,.06-2.68.06-6S60.69,123.1,60.66,123.1Z" transform="translate(-4.68 -9.18)"/><path class="cls-8" d="M29.15,153l.09,5.5s-5.56,1.93-5.64,3l10.66.21.21-8.57Z" transform="translate(-4.68 -9.18)"/><path class="cls-1" d="M32.54,158.14a.41.41,0,0,1-.2.8.47.47,0,0,1-.31-.54.43.43,0,0,1,.55-.24" transform="translate(-4.68 -9.18)"/><path class="cls-1" d="M34.26,161.7l0-.86L24,161s-.48.2-.43.53Z" transform="translate(-4.68 -9.18)"/><path class="cls-6" d="M29.07,158.48c0,.05.26.08.51.25s.38.4.43.38,0-.32-.33-.53S29.05,158.43,29.07,158.48Z" transform="translate(-4.68 -9.18)"/><path class="cls-6" d="M27.94,158.92c0,.05.21.14.38.37s.22.46.27.45.09-.29-.13-.56S27.94,158.87,27.94,158.92Z" transform="translate(-4.68 -9.18)"/><path class="cls-6" d="M27.28,160.25s.12-.25,0-.54-.37-.4-.39-.36.13.2.23.44S27.22,160.24,27.28,160.25Z" transform="translate(-4.68 -9.18)"/><path class="cls-6" d="M29.18,157.23s.26,0,.56,0,.52.13.55.08-.19-.23-.54-.26S29.16,157.18,29.18,157.23Z" transform="translate(-4.68 -9.18)"/><path class="cls-6" d="M45.17,124.79s-3.16.48-6.41,1.08c-3.9.73-8,1.63-8.61,2.07-1,.8-1.24,3-1.68,5.68s-.53,22.77-.53,22.77l7.24.21,1.43-21,12.75,0c1.76,0,6.48.18,8.27-.76,2.82-1.49,2.29-7.14,2.29-7.14.13-2.63-12.42-5-12.76-4.18Z" transform="translate(-4.68 -9.18)"/><path class="cls-8" d="M27.33,139.84l-1,5.54s-6,.8-6.27,1.81l10.67,2.41,2-8.57Z" transform="translate(-4.68 -9.18)"/><path class="cls-1" d="M29.69,145.67a.43.43,0,0,1,.19.56.42.42,0,0,1-.55.19.46.46,0,0,1-.2-.6.44.44,0,0,1,.6-.13" transform="translate(-4.68 -9.18)"/><path class="cls-1" d="M30.64,149.82l.2-.83-10.28-2.25s-.52.1-.54.45Z" transform="translate(-4.68 -9.18)"/><path class="cls-6" d="M26.13,145.29c0,.05.25.14.46.36s.31.48.36.47.05-.33-.22-.6S26.13,145.24,26.13,145.29Z" transform="translate(-4.68 -9.18)"/><path class="cls-6" d="M24.91,145.5c0,.05.18.19.31.45s.12.5.18.51.15-.28,0-.6S24.92,145.45,24.91,145.5Z" transform="translate(-4.68 -9.18)"/><path class="cls-6" d="M24,146.7s.18-.23.11-.54-.29-.48-.32-.45.08.23.14.49S23.92,146.68,24,146.7Z" transform="translate(-4.68 -9.18)"/><path class="cls-6" d="M26.51,144.05c0,.06.26,0,.55.13s.5.23.54.19-.14-.28-.48-.37S26.49,144,26.51,144.05Z" transform="translate(-4.68 -9.18)"/><path class="cls-6" d="M32.52,120.69s-2.5-.18-3,2c-.74,3-4,20.64-4,20.64l7.37,1.43,3.89-17.26,7-1.14,2.87-1.15a12.25,12.25,0,0,0-5-2.81A90.1,90.1,0,0,0,32.52,120.69Z" transform="translate(-4.68 -9.18)"/><path class="cls-7" d="M36.71,127.9a5.68,5.68,0,0,0-.88-1.07,6.27,6.27,0,0,0-1.18-.72,2.5,2.5,0,0,1,1.26.63,3,3,0,0,1,.64.78A1.31,1.31,0,0,1,36.71,127.9Z" transform="translate(-4.68 -9.18)"/><path class="cls-7" d="M35.1,124.4s.06,0,.14.09a3.58,3.58,0,0,1,.33.3,4.51,4.51,0,0,1,.82,1.23,4.34,4.34,0,0,1,.34,1.44,3.15,3.15,0,0,1,0,.44c0,.11,0,.17,0,.17s0-.24-.05-.61a4.77,4.77,0,0,0-1.14-2.61A5.76,5.76,0,0,1,35.1,124.4Z" transform="translate(-4.68 -9.18)"/><path class="cls-7" d="M29.15,124.4a.66.66,0,0,0,0,.09l-.06.27-.21,1c-.18.91-.45,2.24-.78,3.92-.66,3.35-1.59,8.07-2.66,13.55v.06h.05l7.37,1.43h.06v-.06l.13-.54c1.42-6.37,2.74-12.22,3.75-16.72l0,0,7.33-1.21,2-.34.52-.09.18,0-.18,0-.53.08-2,.32-7.34,1.17h0v0l-3.78,16.71-.12.55.07-.05-7.38-1.42.05.07,2.62-13.57c.32-1.67.57-3,.75-3.93.08-.45.15-.8.19-1l.05-.27A.62.62,0,0,0,29.15,124.4Z" transform="translate(-4.68 -9.18)"/><path class="cls-6" d="M49.17,84.3a1.17,1.17,0,0,0-1.27-.5,1.6,1.6,0,0,0-2,.19,1.44,1.44,0,0,0-2.06,1.34,1.24,1.24,0,0,0-1.2.73A1.22,1.22,0,0,0,43,87.42a1.15,1.15,0,0,0,.66,2.2l5.41-4A1.16,1.16,0,0,0,49.17,84.3Z" transform="translate(-4.68 -9.18)"/><path class="cls-13" d="M43.49,89.79A4.89,4.89,0,0,1,48,84.93l.25,0c2.73-.06,4.3,2.23,4.28,5l.33,9.07-.28,1.17-3.67,3-1.85-1.63-.53-2.68A3.13,3.13,0,0,1,43.64,96C43.52,94.77,43.49,92.15,43.49,89.79Z" transform="translate(-4.68 -9.18)"/><path class="cls-14" d="M46.5,98.83a6.35,6.35,0,0,0,3.34-1.27,3.23,3.23,0,0,1-3.28,1.91Z" transform="translate(-4.68 -9.18)"/><path class="cls-6" d="M44.44,92.15a.38.38,0,0,0,.39.34.35.35,0,0,0,.36-.36.37.37,0,0,0-.39-.35A.35.35,0,0,0,44.44,92.15Z" transform="translate(-4.68 -9.18)"/><path class="cls-6" d="M44.14,91.16s.31-.19.72-.22.71.15.75.09,0-.1-.17-.19a1.09,1.09,0,0,0-.61-.13,1,1,0,0,0-.57.23C44.15,91.05,44.11,91.14,44.14,91.16Z" transform="translate(-4.68 -9.18)"/><path class="cls-6" d="M47.9,92a.36.36,0,0,0,.39.35.35.35,0,0,0,.35-.37.37.37,0,0,0-.39-.34A.35.35,0,0,0,47.9,92Z" transform="translate(-4.68 -9.18)"/><path class="cls-6" d="M48,90.79c.05,0,.32-.18.72-.21s.71.14.75.09,0-.11-.17-.19a1.06,1.06,0,0,0-.61-.14,1,1,0,0,0-.56.24C48,90.68,48,90.77,48,90.79Z" transform="translate(-4.68 -9.18)"/><path class="cls-6" d="M46.89,93.87a3.11,3.11,0,0,0-.66-.06c-.11,0-.2,0-.23-.09a.55.55,0,0,1,0-.31c.07-.25.15-.52.24-.8a12.65,12.65,0,0,0,.51-2.09,13.93,13.93,0,0,0-.68,2c-.08.29-.16.55-.23.81a.63.63,0,0,0,0,.41.24.24,0,0,0,.18.13.62.62,0,0,0,.18,0A2.46,2.46,0,0,0,46.89,93.87Z" transform="translate(-4.68 -9.18)"/><path class="cls-6" d="M48.09,94.06c-.06,0,0,.43-.38.77s-.81.33-.81.39.11.08.3.07a1.16,1.16,0,0,0,.69-.3,1,1,0,0,0,.29-.65C48.18,94.16,48.12,94.05,48.09,94.06Z" transform="translate(-4.68 -9.18)"/><path class="cls-6" d="M47.88,89.65c0,.1.39,0,.81-.05s.78,0,.81-.07-.06-.14-.22-.22a1.19,1.19,0,0,0-.63-.11,1.09,1.09,0,0,0-.6.2C47.91,89.5,47.85,89.6,47.88,89.65Z" transform="translate(-4.68 -9.18)"/><path class="cls-6" d="M44.14,90.05c.07.09.35,0,.68,0s.62.07.68,0,0-.14-.13-.22a1,1,0,0,0-.56-.16.89.89,0,0,0-.54.19C44.15,89.91,44.11,90,44.14,90.05Z" transform="translate(-4.68 -9.18)"/><path class="cls-6" d="M43.65,88.57s.56-1.69,1.32-2.13c.91-.54,1.41.47,2.3.15S49,85.74,50,86.37s.64,1.27.8,2.42c.63,4.68,1.59,5.94,1.66,3.71,0-.25.66-.49.68-1.53a11.72,11.72,0,0,0-.42-3.87,3.79,3.79,0,0,0-1.67-1.83,6.2,6.2,0,0,0-4.31-.51C45.57,85,43.38,86.53,43.65,88.57Z" transform="translate(-4.68 -9.18)"/><path class="cls-13" d="M52.31,92.44A.7.7,0,0,1,53,91.7c.49,0,1,.24,1.1,1.25a1.35,1.35,0,0,1-1.73,1.45S52.34,93.19,52.31,92.44Z" transform="translate(-4.68 -9.18)"/><path class="cls-14" d="M52.74,93.71s0,0,.09,0a.31.31,0,0,0,.23,0,.76.76,0,0,0,.33-.71,1.24,1.24,0,0,0-.11-.44.37.37,0,0,0-.25-.23.18.18,0,0,0-.18.1c0,.05,0,.09,0,.09a.1.1,0,0,1,0-.1.25.25,0,0,1,.07-.12.2.2,0,0,1,.17,0,.43.43,0,0,1,.34.26,1,1,0,0,1,.13.49.81.81,0,0,1-.42.8.31.31,0,0,1-.28,0A.16.16,0,0,1,52.74,93.71Z" transform="translate(-4.68 -9.18)"/><path class="cls-6" d="M52,89a1.72,1.72,0,0,1-.73.41.58.58,0,0,1-.68-.35c0-.13,0-.27-.1-.36s-.29-.06-.43,0a1.15,1.15,0,0,1-1.25-.72.5.5,0,0,1-.64.11,3,3,0,0,1-.53-.48A.73.73,0,0,0,47,87.3a1.86,1.86,0,0,1-.38.12c-.24,0-.38-.27-.43-.5s-.1-.5-.31-.61a.94.94,0,0,0-.64,0c-.22,0-.5,0-.57-.18a.43.43,0,0,1,0-.33,1.16,1.16,0,0,1,1.33-.55,1.57,1.57,0,0,1,2.86-.53,1.61,1.61,0,0,1,1.39-.49,1.63,1.63,0,0,1,1.2.86,1.16,1.16,0,0,1,1.43,1.58,1.1,1.1,0,0,1,.67.82.63.63,0,0,1-.66.7.64.64,0,0,1-1.05.72" transform="translate(-4.68 -9.18)"/><path class="cls-7" d="M53.08,88.2s.05.15-.08.35a.6.6,0,0,1-.34.25.63.63,0,0,1-.52-.11l.07,0a1.57,1.57,0,0,1-.32.47.87.87,0,0,1-.31.23.62.62,0,0,1-.35.06.68.68,0,0,1-.54-.25,1.08,1.08,0,0,1-.18-.36c0-.09,0-.14,0-.14s0,0,.06.13a1.46,1.46,0,0,0,.19.32.73.73,0,0,0,1.08-.06,1.56,1.56,0,0,0,.3-.44l0-.06.05,0a.54.54,0,0,0,.75-.09A.73.73,0,0,0,53.08,88.2Z" transform="translate(-4.68 -9.18)"/><path class="cls-7" d="M49.38,84.39s0,0-.12.06a.7.7,0,0,0-.26.26v0l0,0a2.35,2.35,0,0,0-.92-.63,1.88,1.88,0,0,0-.72-.1,1.47,1.47,0,0,0-.73.28,1.52,1.52,0,0,0-.42.46,1.15,1.15,0,0,0-.15.56v0h0a1,1,0,0,0-.73.15,1,1,0,0,0-.38.47,1.66,1.66,0,0,0-.07.54.61.61,0,0,1,0-.15.94.94,0,0,1,0-.41,1,1,0,0,1,.38-.51,1.06,1.06,0,0,1,.8-.18l-.06,0a1.39,1.39,0,0,1,.16-.61,1.59,1.59,0,0,1,.44-.49,1.42,1.42,0,0,1,.8-.29,1.82,1.82,0,0,1,.75.11,2.14,2.14,0,0,1,.93.68h0a.69.69,0,0,1,.3-.26A.41.41,0,0,1,49.38,84.39Z" transform="translate(-4.68 -9.18)"/><path class="cls-13" d="M34.58,115.35H33.26a17.73,17.73,0,0,0-3.58-1,16.52,16.52,0,0,0-3,1.7.2.2,0,0,0-.1.12h0a.44.44,0,0,0,.24.55h.05l0,.06a.5.5,0,0,0,0,.24.29.29,0,0,0,.54.13l-.08.13a.41.41,0,0,0,0,.19v.12a.31.31,0,0,0,.22.29h0a.33.33,0,0,0,.35-.09,2.8,2.8,0,0,1,1.21-.75,7.07,7.07,0,0,1,1.19-.21.4.4,0,0,1,.38.26h0a13,13,0,0,0-1.91.82.61.61,0,0,0-.32.44c0,.18.07.35.41.28.73-.17,1.63-.49,1.63-.49a1.49,1.49,0,0,1,1.11.12c.62.43.9.59,1.43.41a4.41,4.41,0,0,0,.91-.42l1-.11S35.93,115.73,34.58,115.35Z" transform="translate(-4.68 -9.18)"/><path class="cls-14" d="M34.3,117.66l-.07,0-.09.06-.13.06a1.57,1.57,0,0,1-.91,0,1.46,1.46,0,0,1-.55-.31l-.07-.06-.06-.06-.1-.15c-.07-.1-.12-.22-.19-.32a.45.45,0,0,0-.3-.2,1.34,1.34,0,0,0-.4,0,2.54,2.54,0,0,1-.86-.08,2.49,2.49,0,0,1-.73-.36,1.81,1.81,0,0,1-.3-.25.17.17,0,0,1-.05-.2.17.17,0,0,1,.15-.12h0l1.93-.08.55,0h.15l-.15,0-.55,0-1.93.1h0a.12.12,0,0,0-.11.09.12.12,0,0,0,0,.14,2.48,2.48,0,0,0,.3.25,2.27,2.27,0,0,0,.72.34,2.44,2.44,0,0,0,.84.09,1.4,1.4,0,0,1,.41,0,.56.56,0,0,1,.19.09.62.62,0,0,1,.14.14c.08.11.12.23.19.33a1.21,1.21,0,0,0,.1.14l.06.06.06.06a1.42,1.42,0,0,0,.53.3,1.45,1.45,0,0,0,.89,0A2.31,2.31,0,0,0,34.3,117.66Z" transform="translate(-4.68 -9.18)"/><path class="cls-8" d="M67.42,109.84c-1.14-1.59-4.18-4.46-5.8-6.37a15.57,15.57,0,0,0-2-1.85c-.08,0-.53-.27-.6-.3h0l0,0-.06,0-5.64-2.09-4.39,4-2.24-3.53-.79.87c-.08,0-1.32.72-2,1-1,.38-2.39,2.37-2.75,4.61s-1.23,8.13-1.23,8.13L34,115.35l.12,3.46,5.26.82c1.27,0,3.62-.77,4.11-1.65l0,5.11c1.07.63,2.54,2.26,4,2,4.77-.88,10.36.15,12.31,2.29a86.36,86.36,0,0,1-.48-9c1.37-.52,3.31-1,4.71-1.7C68.68,114.39,68.84,111.81,67.42,109.84Zm-8.07,3.35c0-1.42,0-2.56,0-3.14l1.87,1.8Z" transform="translate(-4.68 -9.18)"/><g class="cls-9"><path d="M53.13,99.38a1,1,0,0,0-.45.23,21.54,21.54,0,0,0-3.58,3.3l-.19.34a1.87,1.87,0,0,1,1.34-.45,1.79,1.79,0,0,1,1,.74,33.7,33.7,0,0,0,2.65-3.85A1,1,0,0,0,53.13,99.38Z" transform="translate(-4.68 -9.18)"/></g><polygon class="cls-4" points="44.21 93.96 45.83 91.92 48.26 89.02 49.55 90.23 47.29 93.74 45.68 92.77 44.21 93.96"/><g class="cls-9"><path d="M46,100.5c.22,1.15.75,2.11,1,3.26.25-.34.19-.48.45-.81a.86.86,0,0,1,.37-.34,1,1,0,0,1,.83.21,9.73,9.73,0,0,0-1.29-1.19l0,.1c-.43-.54-.87-1.07-1.33-1.59" transform="translate(-4.68 -9.18)"/></g><polygon class="cls-4" points="44.19 93.95 41.92 90.09 41.92 90.09 41.11 90.83 41.88 94.29 42.97 92.89 44.19 93.95"/><path class="cls-6" d="M48.78,103l0-.06-.12-.19-.43-.73c-.38-.65-.93-1.57-1.6-2.72h0l-.82.72v0c.23,1,.49,2.23.78,3.49h-.05l1.09-1.4v0l0,0,1.22,1.06h0l.13,0h0c.4-.35.83-.69,1.26-1.06l.1-.09,0,0h0c.56.3,1.07.68,1.6,1h0l2.27-3.5v0l-1.29-1.21h0l-2.86,3.46-.79,1-.21.26L49,103l.07-.09.21-.25.78-1,2.84-3.48,0,0h0l1.29,1.21v0h0L52,102.93v0h0c-.53-.3-1-.67-1.6-1h0l-.11.09c-.42.37-.86.72-1.25,1.07h0l-.13,0h0l-1.22-1.06h0l-1.09,1.41,0,0,0,0-.77-3.5h0l.82-.71,0,0v0c.67,1.15,1.21,2.08,1.59,2.72l.42.74.11.2Z" transform="translate(-4.68 -9.18)"/><path class="cls-6" d="M64.38,116.57l-.13.06-.37.15-1.44.55-5,1.91-.06,0,0-.06-1.48-3.46,0-.06,0,0,.91-.66,4.38-3.13v.1l-3.61-3.52-1-1-.26-.27-.09-.1s0,0,.1.08l.28.26,1,1,3.64,3.49.06,0-.07,0-4.36,3.14-.91.66,0-.09,1.47,3.46-.09,0,5.06-1.85,1.44-.52.39-.13Z" transform="translate(-4.68 -9.18)"/><path class="cls-6" d="M63,112.06a7.69,7.69,0,0,0-1-.18,8.31,8.31,0,0,0-1,.1,1.44,1.44,0,0,1,1-.24A1.46,1.46,0,0,1,63,112.06Z" transform="translate(-4.68 -9.18)"/><path class="cls-6" d="M59.42,101.77s-.27,0-.68.14a3.29,3.29,0,0,0-2.27,2.19c-.12.41-.14.68-.16.67a1.57,1.57,0,0,1,.06-.7,3.1,3.1,0,0,1,2.35-2.26A1.53,1.53,0,0,1,59.42,101.77Z" transform="translate(-4.68 -9.18)"/><path class="cls-6" d="M42.33,106.33s.35,2.73.68,6.11.58,6.12.54,6.12-.35-2.73-.69-6.1S42.29,106.34,42.33,106.33Z" transform="translate(-4.68 -9.18)"/><path class="cls-13" d="M52.24,115.89a1,1,0,0,0-.37.13,1.12,1.12,0,0,0-.35.85.21.21,0,0,0,.31.28,7.41,7.41,0,0,0,1.55-.69,1.25,1.25,0,0,0,.62-.64l0-.12A7.09,7.09,0,0,0,52.24,115.89Z" transform="translate(-4.68 -9.18)"/><path class="cls-6" d="M54.57,113.31c-1,1.16-4.57,5.47-4.57,5.47l-.13.61a0,0,0,0,0,.06.06l.58-.23,4.66-5.41a.4.4,0,0,0-.06-.56h0A.39.39,0,0,0,54.57,113.31Z" transform="translate(-4.68 -9.18)"/><polygon class="cls-7" points="49.55 104.55 50.13 105.04 50.3 104.85 49.71 104.36 49.55 104.55"/><path class="cls-7" d="M53.52,115.31a.24.24,0,0,1-.13,0h0a.21.21,0,0,1-.07-.14.17.17,0,0,1,0-.15l.67-.79a.23.23,0,0,1,.14-.08.25.25,0,0,1,.15.05.21.21,0,0,1,0,.29l-.68.8a.17.17,0,0,1-.14.07Zm-.11-.06a.18.18,0,0,0,.25,0l.68-.79a.19.19,0,0,0,0-.26.17.17,0,0,0-.13,0,.16.16,0,0,0-.13.06l-.67.8a.15.15,0,0,0,0,.13.19.19,0,0,0,.07.12Z" transform="translate(-4.68 -9.18)"/><path class="cls-7" d="M54,114.84s-.08,0-.16-.12-.13-.14-.12-.15.08,0,.16.12S54,114.83,54,114.84Z" transform="translate(-4.68 -9.18)"/><path class="cls-13" d="M56,115.82l-.55.19-1.18-.29a.91.91,0,0,0-.7.13l-1.43.92c-.26.18-.93.74-.93.74s-.49.55-.33.87a.62.62,0,0,0,.6.28.66.66,0,0,0,.53.5s-.11.17.3.28a5.58,5.58,0,0,0,1.39,0,16,16,0,0,0,2,0l1.52-.69Z" transform="translate(-4.68 -9.18)"/><path class="cls-14" d="M52.82,116.31a1.57,1.57,0,0,1-.27.2l-.66.46a7.14,7.14,0,0,0-.63.51,2.54,2.54,0,0,1-.24.23l0-.07.17-.19a5.56,5.56,0,0,1,.62-.52c.25-.19.5-.34.67-.45Z" transform="translate(-4.68 -9.18)"/><path class="cls-14" d="M53.65,117.14s0,0-.09.06l-.25.13c-.21.12-.51.28-.82.48a8.42,8.42,0,0,0-.74.58l-.29.27.06-.09.2-.21a5.46,5.46,0,0,1,.75-.59c.31-.2.61-.36.82-.47l.26-.12Z" transform="translate(-4.68 -9.18)"/><path class="cls-14" d="M54.55,117.79s0,0-.08.08l-.24.2c-.21.15-.53.34-.87.54a4.39,4.39,0,0,1-.94.41l-.3.09-.11,0s0,0,.1,0l.3-.1a5.78,5.78,0,0,0,.92-.42l.88-.53.25-.18Z" transform="translate(-4.68 -9.18)"/><path class="cls-14" d="M54.94,118.59s0,.06-.15.15a3.48,3.48,0,0,1-.42.32,4.53,4.53,0,0,1-.47.25l-.2.07s.3-.15.64-.36S54.93,118.58,54.94,118.59Z" transform="translate(-4.68 -9.18)"/><polygon class="cls-7" points="63.63 112.19 61.79 112.19 61.79 112.6 65.83 152.53 67.72 152.53 63.63 112.19"/><polygon class="cls-7" points="8.19 112.19 10.02 112.19 10.02 112.6 6.03 152.47 3.96 152.53 8.19 112.19"/><polygon class="cls-7" points="1.48 112.65 70.79 112.72 70.81 110.96 1.48 110.96 1.48 112.65"/><path class="cls-6" d="M6.35,121.9s15.48-.06,34.57-.06,34.57,0,34.57.06S60,122,40.92,122,6.35,121.93,6.35,121.9Z" transform="translate(-4.68 -9.18)"/><path class="cls-6" d="M60.77,120.13H46.1a.94.94,0,0,1,.94-.94H59.83a.94.94,0,0,1,.94.94Z" transform="translate(-4.68 -9.18)"/><path class="cls-1" d="M43,119.33l-6.78,0L34,108.4a1,1,0,0,0-1-.77H18.81a1,1,0,0,0-.95,1.17l2.34,10.72a.78.78,0,0,0,.76.61H44C44,119.58,43.59,119.33,43,119.33Z" transform="translate(-4.68 -9.18)"/><path class="cls-6" d="M35.8,120.13s-.66-2.79-1.43-6.24S33,107.63,33,107.63s.65,2.79,1.43,6.24S35.81,120.13,35.8,120.13Z" transform="translate(-4.68 -9.18)"/><path class="cls-4" d="M27.41,113.72a.91.91,0,1,1-1.33-.28A1,1,0,0,1,27.41,113.72Z" transform="translate(-4.68 -9.18)"/><path class="cls-6" d="M39.66,119.92h-.53a.22.22,0,0,1-.23-.22h0a.23.23,0,0,1,.23-.23h.53a.23.23,0,0,1,.22.23h0A.22.22,0,0,1,39.66,119.92Z" transform="translate(-4.68 -9.18)"/><path class="cls-6" d="M49.37,119.65l0,0a.38.38,0,0,1,.05.11.49.49,0,0,1-.18.43.57.57,0,0,1-.33.12,1.43,1.43,0,0,1-.41,0,2.37,2.37,0,0,0-.47,0,1.05,1.05,0,0,0-.24.06.31.31,0,0,0-.19.16.22.22,0,0,0,0,.24.55.55,0,0,0,.23.17,1,1,0,0,1,.29.12.41.41,0,0,1,.2.26.52.52,0,0,1-.36.55,1.9,1.9,0,0,1-.72.09,10.16,10.16,0,0,1-1.53-.1c-.53-.06-1.08-.14-1.64-.19a8.27,8.27,0,0,0-1.65,0c-.53,0-1,.12-1.53.13a2.45,2.45,0,0,1-.72-.06,1,1,0,0,1-.58-.37.72.72,0,0,1-.13-.61.44.44,0,0,1,.46-.33.25.25,0,0,1,.21.18.29.29,0,0,1-.05.26A.3.3,0,0,1,40,121a.45.45,0,0,1-.23,0,.53.53,0,0,1-.29-.3,1.15,1.15,0,0,1-.07-.34c0-.21,0-.37,0-.48v0c0,.11,0,.27,0,.48a1.06,1.06,0,0,0,.08.33.52.52,0,0,0,.27.28.37.37,0,0,0,.21,0,.31.31,0,0,0,.19-.13.26.26,0,0,0,0-.23.22.22,0,0,0-.18-.15.4.4,0,0,0-.41.3.72.72,0,0,0,.13.58,1,1,0,0,0,.55.34,2.32,2.32,0,0,0,.7.06c.49,0,1-.09,1.54-.14a9.11,9.11,0,0,1,1.65,0c.57,0,1.11.13,1.64.19a11.66,11.66,0,0,0,1.53.1,2,2,0,0,0,.7-.08.52.52,0,0,0,.26-.2.41.41,0,0,0,.07-.3.33.33,0,0,0-.17-.23,1.69,1.69,0,0,0-.28-.12.58.58,0,0,1-.25-.18.33.33,0,0,1-.07-.13.19.19,0,0,1,0-.15.36.36,0,0,1,.21-.18.65.65,0,0,1,.26-.06,2.32,2.32,0,0,1,.47,0,2,2,0,0,0,.41,0,.76.76,0,0,0,.32-.12.45.45,0,0,0,.18-.41C49.42,119.69,49.36,119.66,49.37,119.65Z" transform="translate(-4.68 -9.18)"/><path class="cls-7" d="M60.6,119.66s-3.22,0-7.19,0-7.2,0-7.2,0,3.22,0,7.2,0S60.6,119.64,60.6,119.66Z" transform="translate(-4.68 -9.18)"/></svg>