<svg xmlns="http://www.w3.org/2000/svg" xmlns:xlink="http://www.w3.org/1999/xlink" viewBox="0 0 205.89 136.24"><defs><style>.cls-1,.cls-3,.cls-4,.cls-6{fill:none;}.cls-2{fill:#fde0bc;}.cls-3{stroke:#ffbe90;stroke-width:1.5px;}.cls-29,.cls-3,.cls-4,.cls-6{stroke-linecap:round;stroke-linejoin:round;}.cls-4{stroke:#f8f6f4;stroke-width:0.5px;}.cls-5{fill:#650504;}.cls-29,.cls-6{stroke:#650504;}.cls-7{fill:#ebf1eb;}.cls-8{isolation:isolate;}.cls-9{fill:#51683c;}.cls-10,.cls-18,.cls-27,.cls-30,.cls-33,.cls-38{mix-blend-mode:soft-light;}.cls-10{fill:url(#Unnamed_Pattern_3);}.cls-11{fill:#a2a065;}.cls-12,.cls-31{opacity:0.61;}.cls-12{fill:url(#Unnamed_Pattern_4);}.cls-13{fill:#a01a09;}.cls-14{fill:#ffb3a1;}.cls-15{fill:#f1948f;}.cls-16{fill:#f89696;}.cls-17{fill:#ffcd7f;}.cls-18{opacity:0.67;}.cls-19{fill:url(#Unnamed_Pattern);}.cls-20{fill:#ffe6d6;}.cls-21{fill:#4381cd;}.cls-22{fill:#cb2a00;}.cls-23,.cls-29{fill:#fff;}.cls-24{fill:#ff8a6d;}.cls-25{fill:#7b8743;}.cls-26{fill:#d9501d;}.cls-27{opacity:0.33;}.cls-28{fill:url(#Unnamed_Pattern_9);}.cls-30{fill:url(#Unnamed_Pattern_3-3);}.cls-31{fill:url(#Unnamed_Pattern_4-3);}.cls-32{fill:#ff7100;}.cls-34{fill:url(#Unnamed_Pattern_9-3);}.cls-35{fill:#f8f6f4;}.cls-36{fill:url(#Unnamed_Pattern_7);}.cls-37{fill:#ff6900;}.cls-38{fill:url(#Unnamed_Pattern_3-5);}.cls-39{fill:#ff8000;}.cls-40{fill:#f74f16;}.cls-41{opacity:0.64;}.cls-42{fill:url(#Unnamed_Pattern_10);}.cls-43{fill:#a88130;}.cls-44{fill:#ffeddf;}</style><pattern id="Unnamed_Pattern_3" data-name="Unnamed Pattern 3" width="64.26" height="43.38" patternTransform="translate(207.04 36.46) scale(1.32)" patternUnits="userSpaceOnUse" viewBox="0 0 64.27 43.38"><rect class="cls-1" width="64.26" height="43.38"/><path class="cls-4" d="M69.93,42.86A15,15,0,0,1,81.63,46a8.59,8.59,0,0,1,3.42,5.73c.17,2.28-1.33,4.76-3.59,5.1a8.89,8.89,0,0,1-3.87-.71,14.44,14.44,0,0,0-8-.44A8.07,8.07,0,0,0,63.83,61"/><path class="cls-4" d="M7.22,39.85A21.23,21.23,0,0,1,25,48.66c2.93,4.15,4.09,10.26.78,14.12-2,2.34-5.15,3.31-8.17,3.94s-6.16,1.07-8.78,2.7-4.52,4.91-3.47,7.8"/><path class="cls-4" d="M5.67,42.86A15,15,0,0,1,17.37,46a8.59,8.59,0,0,1,3.42,5.73c.17,2.28-1.33,4.76-3.6,5.1a8.85,8.85,0,0,1-3.86-.71,14.47,14.47,0,0,0-8-.44A8.06,8.06,0,0,0-.43,61"/><path class="cls-4" d="M69.93-.52a15,15,0,0,1,11.7,3.13,8.59,8.59,0,0,1,3.42,5.73c.17,2.28-1.33,4.76-3.59,5.09a8.88,8.88,0,0,1-3.87-.7,14.35,14.35,0,0,0-8-.44,8.06,8.06,0,0,0-5.74,5.27"/><path class="cls-4" d="M71.88,2.72a17.42,17.42,0,0,1,3.77,1.33,3,3,0,0,1,1.82,1.81c.25,1.23-1.07,2.31-2.33,2.41a12.54,12.54,0,0,1-3.7-.7,9.88,9.88,0,0,0-10.63,4.94"/><path class="cls-4" d="M7.22-3.53A21.24,21.24,0,0,1,25,5.27c2.93,4.15,4.09,10.27.78,14.13-2,2.34-5.15,3.31-8.17,3.94S11.46,24.41,8.84,26s-4.52,4.9-3.47,7.8"/><path class="cls-4" d="M5.67-.52a15,15,0,0,1,11.7,3.13,8.59,8.59,0,0,1,3.42,5.73c.17,2.28-1.33,4.76-3.6,5.09a8.84,8.84,0,0,1-3.86-.7,14.38,14.38,0,0,0-8-.44A8,8,0,0,0-.43,17.56"/><path class="cls-4" d="M7.61,2.72a17.32,17.32,0,0,1,3.78,1.33A3,3,0,0,1,13.2,5.86c.26,1.23-1.06,2.31-2.32,2.41a12.61,12.61,0,0,1-3.71-.7A9.86,9.86,0,0,0-3.45,12.51"/><path class="cls-4" d="M63.84,17.46a8.7,8.7,0,0,1-4.9,5.7,18.3,18.3,0,0,1-7.58,1.47,17.93,17.93,0,0,1-8-1.35c-3.72-1.76-6.18-5.37-8.28-8.91-.79-1.35-1.57-3-.78-4.39"/><path class="cls-4" d="M38.6,13.1a12.62,12.62,0,0,0,12.11,8.11,2.51,2.51,0,0,0,1.62-.49A2.22,2.22,0,0,0,53,19.46a7.36,7.36,0,0,0-1.05-5.3,12.19,12.19,0,0,0-4-3.8"/><path class="cls-4" d="M51.24,32a55.14,55.14,0,0,0-10.68-4.84c-3.75-1.1-7.87-1.28-10.6.22s-3.72,4.82-2.54,7.93,4.23,6,7.82,7.9a22.83,22.83,0,0,0,14.56,2.5"/><path class="cls-4" d="M55.92,43c-1.62.48-4.46-.09-6.54-.52a34.15,34.15,0,0,1-8.63-3.05,10.34,10.34,0,0,1-3.2-2.28,1.93,1.93,0,0,1,.7-3.21,10.47,10.47,0,0,1,5.22-.39c4.85.56,10.5,2.49,13,6A2.63,2.63,0,0,1,57,42.18,1.73,1.73,0,0,1,55.92,43Z"/><path class="cls-4" d="M58.26,34.83c5.22,2.9,8.05,7.71,6.14,10.48-1.13,1.64-3.69,2.35-6.67,2.48"/><path class="cls-4" d="M-6,34.83c5.23,2.9,8.06,7.71,6.14,10.48C-1,47-3.55,47.66-6.54,47.79"/><path class="cls-4" d="M51.24-11.35A55.19,55.19,0,0,0,40.56-16.2c-3.75-1.09-7.87-1.28-10.6.23S26.24-11.15,27.42-8s4.23,6,7.82,7.91A22.89,22.89,0,0,0,49.8,2.36"/><path class="cls-4" d="M55.92-.4c-1.62.48-4.46-.09-6.54-.52A34.15,34.15,0,0,1,40.75-4a10.36,10.36,0,0,1-3.2-2.29,1.93,1.93,0,0,1,.7-3.2,10.47,10.47,0,0,1,5.22-.39c4.85.56,10.5,2.49,13,6A2.65,2.65,0,0,1,57-1.2,1.76,1.76,0,0,1,55.92-.4Z"/><path class="cls-4" d="M58.26-8.56C63.48-5.65,66.31-.84,64.4,1.93c-1.13,1.64-3.69,2.34-6.67,2.48"/><path class="cls-4" d="M-6-8.56C-.78-5.65,2.05-.84.13,1.93-1,3.57-3.55,4.27-6.54,4.41"/></pattern><pattern id="Unnamed_Pattern_4" data-name="Unnamed Pattern 4" width="27.84" height="27.84" patternTransform="translate(-9.91 -19.08) scale(0.28)" patternUnits="userSpaceOnUse" viewBox="0 0 27.84 27.84"><rect class="cls-1" width="27.84" height="27.84"/><path class="cls-5" d="M29.17,27.84a1.33,1.33,0,1,1-1.33-1.33A1.33,1.33,0,0,1,29.17,27.84Z"/><path class="cls-5" d="M1.33,27.84A1.33,1.33,0,0,1,0,29.17a1.33,1.33,0,0,1,0-2.66A1.33,1.33,0,0,1,1.33,27.84Z"/><path class="cls-5" d="M8.29,27.84A1.33,1.33,0,1,1,7,26.51,1.33,1.33,0,0,1,8.29,27.84Z"/><path class="cls-5" d="M8.29,27.84A1.33,1.33,0,1,1,7,26.51,1.33,1.33,0,0,1,8.29,27.84Z"/><path class="cls-5" d="M15.25,27.84a1.33,1.33,0,1,1-1.33-1.33A1.34,1.34,0,0,1,15.25,27.84Z"/><path class="cls-5" d="M15.25,27.84a1.33,1.33,0,1,1-1.33-1.33A1.34,1.34,0,0,1,15.25,27.84Z"/><path class="cls-5" d="M22.2,27.84a1.33,1.33,0,1,1-1.32-1.33A1.33,1.33,0,0,1,22.2,27.84Z"/><path class="cls-5" d="M22.2,27.84a1.33,1.33,0,1,1-1.32-1.33A1.33,1.33,0,0,1,22.2,27.84Z"/><path class="cls-5" d="M29.16,27.84a1.33,1.33,0,1,1-1.33-1.33A1.34,1.34,0,0,1,29.16,27.84Z"/><path class="cls-5" d="M1.32,27.84A1.33,1.33,0,0,1,0,29.17a1.33,1.33,0,0,1-1.32-1.33A1.33,1.33,0,0,1,0,26.51,1.33,1.33,0,0,1,1.32,27.84Z"/><path class="cls-5" d="M29.17,0a1.33,1.33,0,0,1-1.33,1.33A1.33,1.33,0,0,1,26.52,0a1.33,1.33,0,0,1,1.32-1.33A1.33,1.33,0,0,1,29.17,0Z"/><circle class="cls-5" cx="27.84" cy="8.83" r="1.33"/><circle class="cls-5" cx="27.84" cy="19.23" r="1.33"/><path class="cls-5" d="M1.33,0A1.33,1.33,0,0,1,0,1.33,1.33,1.33,0,0,1-1.32,0,1.33,1.33,0,0,1,0-1.33,1.33,1.33,0,0,1,1.33,0Z"/><path class="cls-5" d="M8.29,0A1.33,1.33,0,0,1,7,1.33,1.33,1.33,0,0,1,5.64,0,1.33,1.33,0,0,1,7-1.33,1.33,1.33,0,0,1,8.29,0Z"/><path class="cls-5" d="M8.29,0A1.33,1.33,0,0,1,7,1.33,1.33,1.33,0,0,1,5.64,0,1.33,1.33,0,0,1,7-1.33,1.33,1.33,0,0,1,8.29,0Z"/><path class="cls-5" d="M15.25,0a1.34,1.34,0,0,1-1.33,1.33A1.34,1.34,0,0,1,12.59,0a1.33,1.33,0,0,1,2.66,0Z"/><path class="cls-5" d="M15.25,0a1.34,1.34,0,0,1-1.33,1.33A1.34,1.34,0,0,1,12.59,0a1.33,1.33,0,0,1,2.66,0Z"/><path class="cls-5" d="M22.2,0a1.33,1.33,0,0,1-1.32,1.33A1.33,1.33,0,0,1,19.55,0a1.33,1.33,0,0,1,1.33-1.33A1.33,1.33,0,0,1,22.2,0Z"/><path class="cls-5" d="M22.2,0a1.33,1.33,0,0,1-1.32,1.33A1.33,1.33,0,0,1,19.55,0a1.33,1.33,0,0,1,1.33-1.33A1.33,1.33,0,0,1,22.2,0Z"/><path class="cls-5" d="M29.16,0a1.34,1.34,0,0,1-1.33,1.33A1.34,1.34,0,0,1,26.5,0a1.33,1.33,0,0,1,2.66,0Z"/><circle class="cls-5" cx="0.01" cy="8.83" r="1.33"/><circle class="cls-5" cx="6.96" cy="8.83" r="1.33"/><circle class="cls-5" cx="6.96" cy="8.83" r="1.33"/><circle class="cls-5" cx="13.92" cy="8.83" r="1.33"/><circle class="cls-5" cx="13.92" cy="8.83" r="1.33"/><circle class="cls-5" cx="20.88" cy="8.83" r="1.33"/><circle class="cls-5" cx="20.88" cy="8.83" r="1.33"/><path class="cls-5" d="M29.16,8.83A1.33,1.33,0,1,1,27.83,7.5,1.33,1.33,0,0,1,29.16,8.83Z"/><circle class="cls-5" cx="0.01" cy="19.23" r="1.33"/><circle class="cls-5" cx="6.96" cy="19.23" r="1.33"/><circle class="cls-5" cx="6.96" cy="19.23" r="1.33"/><circle class="cls-5" cx="13.92" cy="19.23" r="1.33"/><circle class="cls-5" cx="13.92" cy="19.23" r="1.33"/><circle class="cls-5" cx="20.88" cy="19.23" r="1.33"/><circle class="cls-5" cx="20.88" cy="19.23" r="1.33"/><path class="cls-5" d="M29.16,19.23a1.33,1.33,0,1,1-1.33-1.33A1.34,1.34,0,0,1,29.16,19.23Z"/><path class="cls-5" d="M1.32,0A1.33,1.33,0,0,1,0,1.33,1.33,1.33,0,0,1-1.33,0,1.33,1.33,0,0,1,0-1.33,1.33,1.33,0,0,1,1.32,0Z"/><path class="cls-5" d="M1.32,8.83A1.32,1.32,0,0,1,0,10.15,1.32,1.32,0,0,1-1.33,8.83,1.32,1.32,0,0,1,0,7.5,1.32,1.32,0,0,1,1.32,8.83Z"/><path class="cls-5" d="M1.32,19.23A1.33,1.33,0,0,1,0,20.56a1.33,1.33,0,0,1-1.32-1.33A1.33,1.33,0,0,1,0,17.9,1.33,1.33,0,0,1,1.32,19.23Z"/></pattern><pattern id="Unnamed_Pattern" data-name="Unnamed Pattern" width="44.81" height="52.73" patternTransform="matrix(0.49, 0.09, -0.09, 0.49, -45.92, -89.69)" patternUnits="userSpaceOnUse" viewBox="0 0 44.81 52.73"><rect class="cls-1" width="44.81" height="52.73"/><circle class="cls-2" cx="46.94" cy="49.08" r="7.57" transform="translate(-15.21 21.7) rotate(-22.5)"/><circle class="cls-2" cx="46.94" cy="49.08" r="7.57" transform="translate(-15.21 21.7) rotate(-22.5)"/><circle class="cls-2" cx="23.1" cy="22.75" r="11.77"/><circle class="cls-2" cx="23.1" cy="22.75" r="11.77"/><circle class="cls-2" cx="2.13" cy="49.08" r="7.57" transform="translate(-34.08 15.88) rotate(-45)"/><circle class="cls-2" cx="2.13" cy="49.08" r="7.57" transform="translate(-34.08 15.88) rotate(-45)"/><circle class="cls-2" cx="46.94" cy="-3.65" r="7.57"/><circle class="cls-2" cx="46.94" cy="-3.65" r="7.57"/><circle class="cls-2" cx="2.13" cy="-3.65" r="7.57"/><circle class="cls-2" cx="2.13" cy="-3.65" r="7.57"/></pattern><pattern id="Unnamed_Pattern_9" data-name="Unnamed Pattern 9" width="52.05" height="52.35" patternTransform="translate(38.16 14.35) scale(0.47)" patternUnits="userSpaceOnUse" viewBox="0 0 52.05 52.35"><rect class="cls-1" width="52.05" height="52.35"/><polygon class="cls-7" points="52.77 46.52 59.15 57.57 46.39 57.57 52.77 46.52"/><polygon class="cls-7" points="0.72 46.52 7.1 57.57 -5.66 57.57 0.72 46.52"/><polygon class="cls-7" points="52.77 -5.82 59.15 5.22 46.39 5.22 52.77 -5.82"/><polygon class="cls-7" points="0.72 -5.82 7.1 5.22 -5.66 5.22 0.72 -5.82"/><polygon class="cls-7" points="27.56 33.85 21.19 22.81 33.94 22.81 27.56 33.85"/></pattern><pattern id="Unnamed_Pattern_3-3" data-name="Unnamed Pattern 3" width="64.26" height="43.38" patternTransform="matrix(-1.32, 0, 0, 1.32, -36.4, 36.31)" patternUnits="userSpaceOnUse" viewBox="0 0 64.27 43.38"><rect class="cls-1" width="64.26" height="43.38"/><path class="cls-4" d="M69.93,42.86A15,15,0,0,1,81.63,46a8.59,8.59,0,0,1,3.42,5.73c.17,2.28-1.33,4.76-3.59,5.1a8.89,8.89,0,0,1-3.87-.71,14.44,14.44,0,0,0-8-.44A8.07,8.07,0,0,0,63.83,61"/><path class="cls-4" d="M7.22,39.85A21.23,21.23,0,0,1,25,48.66c2.93,4.15,4.09,10.26.78,14.12-2,2.34-5.15,3.31-8.17,3.94s-6.16,1.07-8.78,2.7-4.52,4.91-3.47,7.8"/><path class="cls-4" d="M5.67,42.86A15,15,0,0,1,17.37,46a8.59,8.59,0,0,1,3.42,5.73c.17,2.28-1.33,4.76-3.6,5.1a8.85,8.85,0,0,1-3.86-.71,14.47,14.47,0,0,0-8-.44A8.06,8.06,0,0,0-.43,61"/><path class="cls-4" d="M69.93-.52a15,15,0,0,1,11.7,3.13,8.59,8.59,0,0,1,3.42,5.73c.17,2.28-1.33,4.76-3.59,5.09a8.88,8.88,0,0,1-3.87-.7,14.35,14.35,0,0,0-8-.44,8.06,8.06,0,0,0-5.74,5.27"/><path class="cls-4" d="M71.88,2.72a17.42,17.42,0,0,1,3.77,1.33,3,3,0,0,1,1.82,1.81c.25,1.23-1.07,2.31-2.33,2.41a12.54,12.54,0,0,1-3.7-.7,9.88,9.88,0,0,0-10.63,4.94"/><path class="cls-4" d="M7.22-3.53A21.24,21.24,0,0,1,25,5.27c2.93,4.15,4.09,10.27.78,14.13-2,2.34-5.15,3.31-8.17,3.94S11.46,24.41,8.84,26s-4.52,4.9-3.47,7.8"/><path class="cls-4" d="M5.67-.52a15,15,0,0,1,11.7,3.13,8.59,8.59,0,0,1,3.42,5.73c.17,2.28-1.33,4.76-3.6,5.09a8.84,8.84,0,0,1-3.86-.7,14.38,14.38,0,0,0-8-.44A8,8,0,0,0-.43,17.56"/><path class="cls-4" d="M7.61,2.72a17.32,17.32,0,0,1,3.78,1.33A3,3,0,0,1,13.2,5.86c.26,1.23-1.06,2.31-2.32,2.41a12.61,12.61,0,0,1-3.71-.7A9.86,9.86,0,0,0-3.45,12.51"/><path class="cls-4" d="M63.84,17.46a8.7,8.7,0,0,1-4.9,5.7,18.3,18.3,0,0,1-7.58,1.47,17.93,17.93,0,0,1-8-1.35c-3.72-1.76-6.18-5.37-8.28-8.91-.79-1.35-1.57-3-.78-4.39"/><path class="cls-4" d="M38.6,13.1a12.62,12.62,0,0,0,12.11,8.11,2.51,2.51,0,0,0,1.62-.49A2.22,2.22,0,0,0,53,19.46a7.36,7.36,0,0,0-1.05-5.3,12.19,12.19,0,0,0-4-3.8"/><path class="cls-4" d="M51.24,32a55.14,55.14,0,0,0-10.68-4.84c-3.75-1.1-7.87-1.28-10.6.22s-3.72,4.82-2.54,7.93,4.23,6,7.82,7.9a22.83,22.83,0,0,0,14.56,2.5"/><path class="cls-4" d="M55.92,43c-1.62.48-4.46-.09-6.54-.52a34.15,34.15,0,0,1-8.63-3.05,10.34,10.34,0,0,1-3.2-2.28,1.93,1.93,0,0,1,.7-3.21,10.47,10.47,0,0,1,5.22-.39c4.85.56,10.5,2.49,13,6A2.63,2.63,0,0,1,57,42.18,1.73,1.73,0,0,1,55.92,43Z"/><path class="cls-4" d="M58.26,34.83c5.22,2.9,8.05,7.71,6.14,10.48-1.13,1.64-3.69,2.35-6.67,2.48"/><path class="cls-4" d="M-6,34.83c5.23,2.9,8.06,7.71,6.14,10.48C-1,47-3.55,47.66-6.54,47.79"/><path class="cls-4" d="M51.24-11.35A55.19,55.19,0,0,0,40.56-16.2c-3.75-1.09-7.87-1.28-10.6.23S26.24-11.15,27.42-8s4.23,6,7.82,7.91A22.89,22.89,0,0,0,49.8,2.36"/><path class="cls-4" d="M55.92-.4c-1.62.48-4.46-.09-6.54-.52A34.15,34.15,0,0,1,40.75-4a10.36,10.36,0,0,1-3.2-2.29,1.93,1.93,0,0,1,.7-3.2,10.47,10.47,0,0,1,5.22-.39c4.85.56,10.5,2.49,13,6A2.65,2.65,0,0,1,57-1.2,1.76,1.76,0,0,1,55.92-.4Z"/><path class="cls-4" d="M58.26-8.56C63.48-5.65,66.31-.84,64.4,1.93c-1.13,1.64-3.69,2.34-6.67,2.48"/><path class="cls-4" d="M-6-8.56C-.78-5.65,2.05-.84.13,1.93-1,3.57-3.55,4.27-6.54,4.41"/></pattern><pattern id="Unnamed_Pattern_4-3" data-name="Unnamed Pattern 4" width="27.84" height="27.84" patternTransform="matrix(-0.28, 0, 0, 0.28, 13.42, -19.08)" patternUnits="userSpaceOnUse" viewBox="0 0 27.84 27.84"><rect class="cls-1" width="27.84" height="27.84"/><path class="cls-5" d="M29.17,27.84a1.33,1.33,0,1,1-1.33-1.33A1.33,1.33,0,0,1,29.17,27.84Z"/><path class="cls-5" d="M1.33,27.84A1.33,1.33,0,0,1,0,29.17a1.33,1.33,0,0,1,0-2.66A1.33,1.33,0,0,1,1.33,27.84Z"/><path class="cls-5" d="M8.29,27.84A1.33,1.33,0,1,1,7,26.51,1.33,1.33,0,0,1,8.29,27.84Z"/><path class="cls-5" d="M8.29,27.84A1.33,1.33,0,1,1,7,26.51,1.33,1.33,0,0,1,8.29,27.84Z"/><path class="cls-5" d="M15.25,27.84a1.33,1.33,0,1,1-1.33-1.33A1.34,1.34,0,0,1,15.25,27.84Z"/><path class="cls-5" d="M15.25,27.84a1.33,1.33,0,1,1-1.33-1.33A1.34,1.34,0,0,1,15.25,27.84Z"/><path class="cls-5" d="M22.2,27.84a1.33,1.33,0,1,1-1.32-1.33A1.33,1.33,0,0,1,22.2,27.84Z"/><path class="cls-5" d="M22.2,27.84a1.33,1.33,0,1,1-1.32-1.33A1.33,1.33,0,0,1,22.2,27.84Z"/><path class="cls-5" d="M29.16,27.84a1.33,1.33,0,1,1-1.33-1.33A1.34,1.34,0,0,1,29.16,27.84Z"/><path class="cls-5" d="M1.32,27.84A1.33,1.33,0,0,1,0,29.17a1.33,1.33,0,0,1-1.32-1.33A1.33,1.33,0,0,1,0,26.51,1.33,1.33,0,0,1,1.32,27.84Z"/><path class="cls-5" d="M29.17,0a1.33,1.33,0,0,1-1.33,1.33A1.33,1.33,0,0,1,26.52,0a1.33,1.33,0,0,1,1.32-1.33A1.33,1.33,0,0,1,29.17,0Z"/><circle class="cls-5" cx="27.84" cy="8.83" r="1.33"/><circle class="cls-5" cx="27.84" cy="19.23" r="1.33"/><path class="cls-5" d="M1.33,0A1.33,1.33,0,0,1,0,1.33,1.33,1.33,0,0,1-1.32,0,1.33,1.33,0,0,1,0-1.33,1.33,1.33,0,0,1,1.33,0Z"/><path class="cls-5" d="M8.29,0A1.33,1.33,0,0,1,7,1.33,1.33,1.33,0,0,1,5.64,0,1.33,1.33,0,0,1,7-1.33,1.33,1.33,0,0,1,8.29,0Z"/><path class="cls-5" d="M8.29,0A1.33,1.33,0,0,1,7,1.33,1.33,1.33,0,0,1,5.64,0,1.33,1.33,0,0,1,7-1.33,1.33,1.33,0,0,1,8.29,0Z"/><path class="cls-5" d="M15.25,0a1.34,1.34,0,0,1-1.33,1.33A1.34,1.34,0,0,1,12.59,0a1.33,1.33,0,0,1,2.66,0Z"/><path class="cls-5" d="M15.25,0a1.34,1.34,0,0,1-1.33,1.33A1.34,1.34,0,0,1,12.59,0a1.33,1.33,0,0,1,2.66,0Z"/><path class="cls-5" d="M22.2,0a1.33,1.33,0,0,1-1.32,1.33A1.33,1.33,0,0,1,19.55,0a1.33,1.33,0,0,1,1.33-1.33A1.33,1.33,0,0,1,22.2,0Z"/><path class="cls-5" d="M22.2,0a1.33,1.33,0,0,1-1.32,1.33A1.33,1.33,0,0,1,19.55,0a1.33,1.33,0,0,1,1.33-1.33A1.33,1.33,0,0,1,22.2,0Z"/><path class="cls-5" d="M29.16,0a1.34,1.34,0,0,1-1.33,1.33A1.34,1.34,0,0,1,26.5,0a1.33,1.33,0,0,1,2.66,0Z"/><circle class="cls-5" cx="0.01" cy="8.83" r="1.33"/><circle class="cls-5" cx="6.96" cy="8.83" r="1.33"/><circle class="cls-5" cx="6.96" cy="8.83" r="1.33"/><circle class="cls-5" cx="13.92" cy="8.83" r="1.33"/><circle class="cls-5" cx="13.92" cy="8.83" r="1.33"/><circle class="cls-5" cx="20.88" cy="8.83" r="1.33"/><circle class="cls-5" cx="20.88" cy="8.83" r="1.33"/><path class="cls-5" d="M29.16,8.83A1.33,1.33,0,1,1,27.83,7.5,1.33,1.33,0,0,1,29.16,8.83Z"/><circle class="cls-5" cx="0.01" cy="19.23" r="1.33"/><circle class="cls-5" cx="6.96" cy="19.23" r="1.33"/><circle class="cls-5" cx="6.96" cy="19.23" r="1.33"/><circle class="cls-5" cx="13.92" cy="19.23" r="1.33"/><circle class="cls-5" cx="13.92" cy="19.23" r="1.33"/><circle class="cls-5" cx="20.88" cy="19.23" r="1.33"/><circle class="cls-5" cx="20.88" cy="19.23" r="1.33"/><path class="cls-5" d="M29.16,19.23a1.33,1.33,0,1,1-1.33-1.33A1.34,1.34,0,0,1,29.16,19.23Z"/><path class="cls-5" d="M1.32,0A1.33,1.33,0,0,1,0,1.33,1.33,1.33,0,0,1-1.33,0,1.33,1.33,0,0,1,0-1.33,1.33,1.33,0,0,1,1.32,0Z"/><path class="cls-5" d="M1.32,8.83A1.32,1.32,0,0,1,0,10.15,1.32,1.32,0,0,1-1.33,8.83,1.32,1.32,0,0,1,0,7.5,1.32,1.32,0,0,1,1.32,8.83Z"/><path class="cls-5" d="M1.32,19.23A1.33,1.33,0,0,1,0,20.56a1.33,1.33,0,0,1-1.32-1.33A1.33,1.33,0,0,1,0,17.9,1.33,1.33,0,0,1,1.32,19.23Z"/></pattern><pattern id="Unnamed_Pattern_9-3" data-name="Unnamed Pattern 9" width="52.05" height="52.35" patternTransform="translate(39.16 14.35) scale(0.47)" patternUnits="userSpaceOnUse" viewBox="0 0 52.05 52.35"><rect class="cls-1" width="52.05" height="52.35"/><polygon class="cls-7" points="52.77 46.52 59.15 57.57 46.39 57.57 52.77 46.52"/><polygon class="cls-7" points="0.72 46.52 7.1 57.57 -5.66 57.57 0.72 46.52"/><polygon class="cls-7" points="52.77 -5.82 59.15 5.22 46.39 5.22 52.77 -5.82"/><polygon class="cls-7" points="0.72 -5.82 7.1 5.22 -5.66 5.22 0.72 -5.82"/><polygon class="cls-7" points="27.56 33.85 21.19 22.81 33.94 22.81 27.56 33.85"/></pattern><pattern id="Unnamed_Pattern_7" data-name="Unnamed Pattern 7" width="98.16" height="96.42" patternTransform="matrix(-0.01, 0.47, -0.28, -0.01, -25.11, -301.96)" patternUnits="userSpaceOnUse" viewBox="0 0 98.17 96.42"><rect class="cls-1" width="98.16" height="96.42"/><line class="cls-6" x1="81.74" y1="24.35" x2="212.75" y2="24.35"/><line class="cls-6" x1="81.74" y1="48.21" x2="212.75" y2="48.21"/><line class="cls-6" x1="81.74" y1="72.06" x2="212.75" y2="72.06"/><line class="cls-6" x1="81.74" y1="95.92" x2="212.75" y2="95.92"/><line class="cls-6" x1="-16.42" y1="24.35" x2="114.59" y2="24.35"/><line class="cls-6" x1="-16.42" y1="48.21" x2="114.59" y2="48.21"/><line class="cls-6" x1="-16.42" y1="72.06" x2="114.59" y2="72.06"/><line class="cls-6" x1="-16.42" y1="95.92" x2="114.59" y2="95.92"/><line class="cls-6" x1="-114.59" y1="24.35" x2="16.42" y2="24.35"/><line class="cls-6" x1="-114.59" y1="48.21" x2="16.42" y2="48.21"/><line class="cls-6" x1="-114.59" y1="72.06" x2="16.42" y2="72.06"/><line class="cls-6" x1="-114.59" y1="95.92" x2="16.42" y2="95.92"/></pattern><pattern id="Unnamed_Pattern_3-5" data-name="Unnamed Pattern 3" width="64.26" height="43.38" patternTransform="matrix(-1.32, 0, 0, 1.32, -32.25, 59.39)" patternUnits="userSpaceOnUse" viewBox="0 0 64.27 43.38"><rect class="cls-1" width="64.26" height="43.38"/><path class="cls-4" d="M69.93,42.86A15,15,0,0,1,81.63,46a8.59,8.59,0,0,1,3.42,5.73c.17,2.28-1.33,4.76-3.59,5.1a8.89,8.89,0,0,1-3.87-.71,14.44,14.44,0,0,0-8-.44A8.07,8.07,0,0,0,63.83,61"/><path class="cls-4" d="M7.22,39.85A21.23,21.23,0,0,1,25,48.66c2.93,4.15,4.09,10.26.78,14.12-2,2.34-5.15,3.31-8.17,3.94s-6.16,1.07-8.78,2.7-4.52,4.91-3.47,7.8"/><path class="cls-4" d="M5.67,42.86A15,15,0,0,1,17.37,46a8.59,8.59,0,0,1,3.42,5.73c.17,2.28-1.33,4.76-3.6,5.1a8.85,8.85,0,0,1-3.86-.71,14.47,14.47,0,0,0-8-.44A8.06,8.06,0,0,0-.43,61"/><path class="cls-4" d="M69.93-.52a15,15,0,0,1,11.7,3.13,8.59,8.59,0,0,1,3.42,5.73c.17,2.28-1.33,4.76-3.59,5.09a8.88,8.88,0,0,1-3.87-.7,14.35,14.35,0,0,0-8-.44,8.06,8.06,0,0,0-5.74,5.27"/><path class="cls-4" d="M71.88,2.72a17.42,17.42,0,0,1,3.77,1.33,3,3,0,0,1,1.82,1.81c.25,1.23-1.07,2.31-2.33,2.41a12.54,12.54,0,0,1-3.7-.7,9.88,9.88,0,0,0-10.63,4.94"/><path class="cls-4" d="M7.22-3.53A21.24,21.24,0,0,1,25,5.27c2.93,4.15,4.09,10.27.78,14.13-2,2.34-5.15,3.31-8.17,3.94S11.46,24.41,8.84,26s-4.52,4.9-3.47,7.8"/><path class="cls-4" d="M5.67-.52a15,15,0,0,1,11.7,3.13,8.59,8.59,0,0,1,3.42,5.73c.17,2.28-1.33,4.76-3.6,5.09a8.84,8.84,0,0,1-3.86-.7,14.38,14.38,0,0,0-8-.44A8,8,0,0,0-.43,17.56"/><path class="cls-4" d="M7.61,2.72a17.32,17.32,0,0,1,3.78,1.33A3,3,0,0,1,13.2,5.86c.26,1.23-1.06,2.31-2.32,2.41a12.61,12.61,0,0,1-3.71-.7A9.86,9.86,0,0,0-3.45,12.51"/><path class="cls-4" d="M63.84,17.46a8.7,8.7,0,0,1-4.9,5.7,18.3,18.3,0,0,1-7.58,1.47,17.93,17.93,0,0,1-8-1.35c-3.72-1.76-6.18-5.37-8.28-8.91-.79-1.35-1.57-3-.78-4.39"/><path class="cls-4" d="M38.6,13.1a12.62,12.62,0,0,0,12.11,8.11,2.51,2.51,0,0,0,1.62-.49A2.22,2.22,0,0,0,53,19.46a7.36,7.36,0,0,0-1.05-5.3,12.19,12.19,0,0,0-4-3.8"/><path class="cls-4" d="M51.24,32a55.14,55.14,0,0,0-10.68-4.84c-3.75-1.1-7.87-1.28-10.6.22s-3.72,4.82-2.54,7.93,4.23,6,7.82,7.9a22.83,22.83,0,0,0,14.56,2.5"/><path class="cls-4" d="M55.92,43c-1.62.48-4.46-.09-6.54-.52a34.15,34.15,0,0,1-8.63-3.05,10.34,10.34,0,0,1-3.2-2.28,1.93,1.93,0,0,1,.7-3.21,10.47,10.47,0,0,1,5.22-.39c4.85.56,10.5,2.49,13,6A2.63,2.63,0,0,1,57,42.18,1.73,1.73,0,0,1,55.92,43Z"/><path class="cls-4" d="M58.26,34.83c5.22,2.9,8.05,7.71,6.14,10.48-1.13,1.64-3.69,2.35-6.67,2.48"/><path class="cls-4" d="M-6,34.83c5.23,2.9,8.06,7.71,6.14,10.48C-1,47-3.55,47.66-6.54,47.79"/><path class="cls-4" d="M51.24-11.35A55.19,55.19,0,0,0,40.56-16.2c-3.75-1.09-7.87-1.28-10.6.23S26.24-11.15,27.42-8s4.23,6,7.82,7.91A22.89,22.89,0,0,0,49.8,2.36"/><path class="cls-4" d="M55.92-.4c-1.62.48-4.46-.09-6.54-.52A34.15,34.15,0,0,1,40.75-4a10.36,10.36,0,0,1-3.2-2.29,1.93,1.93,0,0,1,.7-3.2,10.47,10.47,0,0,1,5.22-.39c4.85.56,10.5,2.49,13,6A2.65,2.65,0,0,1,57-1.2,1.76,1.76,0,0,1,55.92-.4Z"/><path class="cls-4" d="M58.26-8.56C63.48-5.65,66.31-.84,64.4,1.93c-1.13,1.64-3.69,2.34-6.67,2.48"/><path class="cls-4" d="M-6-8.56C-.78-5.65,2.05-.84.13,1.93-1,3.57-3.55,4.27-6.54,4.41"/></pattern><pattern id="Unnamed_Pattern_10" data-name="Unnamed Pattern 10" width="41.46" height="44.66" patternTransform="translate(-152.97 -65.08) scale(1.03)" patternUnits="userSpaceOnUse" viewBox="0 0 41.46 44.66"><rect class="cls-1" width="41.46" height="44.66"/><path class="cls-3" d="M40.05,48.13C36,56,42.86,64.62,52.2,55.75c2.5-2.37,7.62,3.3,10.83-3.61,1.46-3.12-.66-6.55-3.17-8.9"/><path class="cls-3" d="M-1.41,48.13c-4,7.85,2.81,16.49,12.15,7.62,2.5-2.37,7.62,3.3,10.84-3.61,1.45-3.12-.66-6.55-3.18-8.9"/><path class="cls-3" d="M32.68,43.7a2.54,2.54,0,1,0-.26,4.59,2.66,2.66,0,0,0,.78-4.21"/><path class="cls-3" d="M40.13,41.45c-2.35-3.59-6.47-11,.43-10.48,5.19.39,2.79-10.66,10.43-2.69"/><path class="cls-3" d="M40.05,3.47C36,11.32,42.86,20,52.2,11.09,54.7,8.72,59.82,14.38,63,7.47c1.46-3.12-.66-6.54-3.17-8.89"/><path class="cls-3" d="M-1.33,41.45C-3.68,37.86-7.8,30.46-.9,31c5.19.39,2.79-10.66,10.43-2.69"/><path class="cls-3" d="M5,34.71a2.8,2.8,0,0,0-.37,4.51,2.59,2.59,0,0,0,3.9-2C8.62,33.66,5.28,34.56,5,34.71Z"/><path class="cls-3" d="M-1.41,3.47c-4,7.85,2.81,16.49,12.15,7.62,2.5-2.37,7.62,3.29,10.84-3.62C23,4.35,20.92.93,18.4-1.42"/><path class="cls-3" d="M6.09,4.63A2.89,2.89,0,0,0,10,6.94a2.57,2.57,0,0,0,.33-4.29c-1.49-.92-4.65.29-4.19,2"/><path class="cls-3" d="M28.51,15.1c3.81,2.18,11.66,7.78,2.84,10.76-6,2,1,12.76-8.57,7.28"/><path class="cls-3" d="M24.82,21.06a2.68,2.68,0,0,0-3.75,2.09,2.68,2.68,0,0,0,3.49,2.5,2.68,2.68,0,0,0,.78-4.22"/><path class="cls-3" d="M32.68-1a2.67,2.67,0,0,0-3.74,2.09,2.66,2.66,0,0,0,3.48,2.5A2.67,2.67,0,0,0,33.2-.59"/></pattern></defs><g class="cls-8"><g id="Layer_1" data-name="Layer 1"><polygon class="cls-9" points="173.01 50.31 205.72 50.31 186.81 94.42 148.24 93.75 173.01 50.31"/><path class="cls-5" d="M190.12,117.68h0L151.55,117a.18.18,0,0,1-.15-.08.19.19,0,0,1,0-.18l24.78-43.44a.18.18,0,0,1,.15-.08H209a.2.2,0,0,1,.15.07.17.17,0,0,1,0,.17l-18.91,44.1A.17.17,0,0,1,190.12,117.68Zm-38.27-1,38.16.66,18.76-43.75H176.43Z" transform="translate(-3.32 -23.09)"/><polygon class="cls-10" points="173.01 50.39 205.72 50.39 186.59 94.18 148.62 93.53 173.01 50.39"/><line class="cls-11" x1="180.96" y1="94.48" x2="173.15" y2="135.46"/><path class="cls-5" d="M176.47,158.73h0a.17.17,0,0,1-.14-.2l7.8-41a.18.18,0,0,1,.21-.13.18.18,0,0,1,.14.2l-7.81,41A.17.17,0,0,1,176.47,158.73Z" transform="translate(-3.32 -23.09)"/><line class="cls-11" x1="186.59" y1="94.48" x2="194.39" y2="135.46"/><path class="cls-5" d="M197.71,158.73a.16.16,0,0,1-.17-.15l-7.81-41a.16.16,0,0,1,.14-.2.16.16,0,0,1,.2.13l7.81,41a.17.17,0,0,1-.14.2Z" transform="translate(-3.32 -23.09)"/><line class="cls-11" x1="149.5" y1="93.73" x2="141.69" y2="135.46"/><path class="cls-5" d="M145,158.73h0a.17.17,0,0,1-.14-.2l7.8-41.73a.17.17,0,0,1,.2-.14.16.16,0,0,1,.14.2l-7.8,41.73A.18.18,0,0,1,145,158.73Z" transform="translate(-3.32 -23.09)"/><line class="cls-11" x1="155.12" y1="93.94" x2="162.93" y2="135.46"/><path class="cls-5" d="M166.24,158.73a.18.18,0,0,1-.17-.15l-7.8-41.52a.17.17,0,0,1,.14-.21.19.19,0,0,1,.2.14l7.81,41.53a.19.19,0,0,1-.14.2Z" transform="translate(-3.32 -23.09)"/><line class="cls-11" x1="190.84" y1="84.91" x2="153.33" y2="84.91"/><path class="cls-5" d="M194.16,108.17H156.64a.17.17,0,1,1,0-.34h37.52a.17.17,0,1,1,0,.34Z" transform="translate(-3.32 -23.09)"/><polygon class="cls-12" points="153.33 85.2 148.62 93.53 186.81 94.42 190.57 84.9 153.33 85.2"/><path class="cls-13" d="M184.21,57.33a2.63,2.63,0,0,1-.58-.85c-.16-.57.31-1.11.57-1.66a2.43,2.43,0,0,0-.18-2.35,7.83,7.83,0,0,0-2.25-1.87,4.09,4.09,0,0,1-1.06-1.1A15.63,15.63,0,0,0,179,43.07a3.94,3.94,0,1,0-4.79-4.81,4.34,4.34,0,0,0-.12.86,9.43,9.43,0,0,0-3.59-.15l-2,.22-2.75-.7a4.47,4.47,0,0,0-5.4,3.34l-.52,2.57,2.54.17c0,1-1.08,1.94-2.22,2.55a12.37,12.37,0,0,0-3.44,2.1,3,3,0,0,0-.72,2.9c.23.7.76,1.43.43,2.12a4.1,4.1,0,0,1-1,1,1.82,1.82,0,0,0-.54,1.51c.18.46,28,2,28.09,2,.54,0,1.17-.14,1.38-.54A.88.88,0,0,0,184.21,57.33Z" transform="translate(-3.32 -23.09)"/><path class="cls-5" d="M183.06,59c-.11,0-7.17-.4-14-.85C155,57.21,154.87,57,154.8,56.81a2,2,0,0,1,.58-1.7l.26-.23a2.59,2.59,0,0,0,.66-.72,1.78,1.78,0,0,0-.22-1.44,5.25,5.25,0,0,1-.22-.55,3.16,3.16,0,0,1,.76-3.07,8.14,8.14,0,0,1,2.56-1.66c.31-.16.63-.31.92-.47.92-.5,2-1.28,2.13-2.24l-2.37-.16a.17.17,0,0,1-.13-.07.17.17,0,0,1,0-.14l.52-2.57a4.44,4.44,0,0,1,2-2.87,4.64,4.64,0,0,1,3.58-.6l2.72.69.59-.06,1.32-.15a9.57,9.57,0,0,1,3.46.1,5.07,5.07,0,0,1,.11-.68,4.11,4.11,0,0,1,7.53-1.06,4.05,4.05,0,0,1,.44,3.12,4.12,4.12,0,0,1-2.75,2.9,16.11,16.11,0,0,1,1.63,6.26,3.78,3.78,0,0,0,1,1l.62.42a5.38,5.38,0,0,1,1.68,1.49,2.64,2.64,0,0,1,.19,2.52l-.23.43a1.57,1.57,0,0,0-.33,1.12,1.64,1.64,0,0,0,.38.59c.06.06.11.13.17.2h0a1,1,0,0,1,.24,1.11q-.3.57-1.53.63Zm-27.95-2.34c1.51.48,27.69,2,27.94,2,.67,0,1.09-.18,1.23-.44s-.05-.53-.21-.74h0l-.15-.18a2,2,0,0,1-.46-.73,1.83,1.83,0,0,1,.37-1.39c.07-.13.15-.26.21-.4a2.3,2.3,0,0,0-.16-2.18,5.22,5.22,0,0,0-1.58-1.39c-.22-.14-.43-.28-.63-.43a4.15,4.15,0,0,1-1.11-1.16.14.14,0,0,1,0-.07,15.81,15.81,0,0,0-1.7-6.36.16.16,0,0,1,0-.15.15.15,0,0,1,.12-.1,3.76,3.76,0,0,0,2.71-2.71A3.76,3.76,0,0,0,179,35.6a3.78,3.78,0,0,0-4.59,2.71,3.69,3.69,0,0,0-.12.82.15.15,0,0,1-.07.13.17.17,0,0,1-.14,0,9.2,9.2,0,0,0-3.53-.15l-1.33.16-.62.06h-.06l-2.76-.7a4.25,4.25,0,0,0-3.3.55,4.16,4.16,0,0,0-1.88,2.65l-.48,2.38,2.35.15a.18.18,0,0,1,.16.18c0,1.21-1.27,2.14-2.32,2.71l-.94.47a8.08,8.08,0,0,0-2.45,1.58,2.81,2.81,0,0,0-.69,2.73c.06.17.13.34.21.52a2,2,0,0,1,.21,1.73,2.59,2.59,0,0,1-.75.84l-.25.21A1.81,1.81,0,0,0,155.11,56.63Z" transform="translate(-3.32 -23.09)"/><path class="cls-14" d="M172.49,55.47l0,8.14-5,1.51L164,63.64l0-6.16A6.81,6.81,0,0,0,166,58,6.15,6.15,0,0,0,172.49,55.47Z" transform="translate(-3.32 -23.09)"/><path class="cls-5" d="M167.5,65.29h-.07l-3.55-1.48a.17.17,0,0,1-.11-.16l0-6.16a.17.17,0,0,1,.08-.14.18.18,0,0,1,.16,0,6.63,6.63,0,0,0,2.06.51,5.93,5.93,0,0,0,6.29-2.46.17.17,0,0,1,.32.1l0,8.14a.17.17,0,0,1-.13.17l-5,1.5Zm-3.38-1.77,3.38,1.41,4.84-1.45,0-7.49A6.27,6.27,0,0,1,166,58.18a7,7,0,0,1-1.9-.44Z" transform="translate(-3.32 -23.09)"/><path class="cls-5" d="M166.23,58.08a7.06,7.06,0,0,1-2.14-.39l-.16-.07v2.81c2.3-.26,6-2.78,6-2.78l-.14,0A6,6,0,0,1,166.23,58.08Z" transform="translate(-3.32 -23.09)"/><path class="cls-14" d="M174.09,48.22s0-.11,0-.17a1.49,1.49,0,0,1,0-.21l.48,0a2.74,2.74,0,0,1-.54,5.46l-.51-.05-.32,0a1.6,1.6,0,0,0,0-.21Z" transform="translate(-3.32 -23.09)"/><path class="cls-5" d="M174.34,53.53l-.29,0-.51,0-.33-.05a.18.18,0,0,1-.14-.21l0-.09,0-.11.79-4.81h0a.19.19,0,0,0,0-.08.22.22,0,0,0,0-.08l0-.21a.17.17,0,0,1,.19-.16l.48.05a2.92,2.92,0,0,1-.29,5.82Zm-.89-.43h.12l.52,0a2.56,2.56,0,1,0,.5-5.1l-.31,0v.11s0,.08,0,.11l-.8,4.81Z" transform="translate(-3.32 -23.09)"/><path class="cls-15" d="M171.62,48.94h0a7.23,7.23,0,0,0,2,1.48A7.23,7.23,0,0,1,171.62,48.94Z" transform="translate(-3.32 -23.09)"/><polygon class="cls-1" points="170.44 27.11 170.44 27.11 170.44 27.11 170.44 27.11"/><path class="cls-14" d="M173.76,50.19a5.76,5.76,0,0,1-2.21-1.39c-.93-1-1.24-2.16-.94-4.28,0,0-.06-.1-.17-.25l-2,.71a6.43,6.43,0,0,1-5.74-.62,4.64,4.64,0,0,0-.74,1.82v0l-1.24,6.08a4.74,4.74,0,0,0,3.19,5.33l.16.07a7.06,7.06,0,0,0,2.14.39,6,6,0,0,0,3.53-.47,6.13,6.13,0,0,0,2.75-2.46,6.21,6.21,0,0,0,.73-1.91,1.6,1.6,0,0,0,0-.21l.47-2.83S173.79,50.16,173.76,50.19Z" transform="translate(-3.32 -23.09)"/><path class="cls-5" d="M167.23,58.34a6.06,6.06,0,0,1-1-.09,6.77,6.77,0,0,1-2.17-.4l-.11,0-.06,0a4.88,4.88,0,0,1-3.29-5.52l1.25-6.11a4.5,4.5,0,0,1,.77-1.88.16.16,0,0,1,.23-.05,6.27,6.27,0,0,0,5.59.6l2-.71a.17.17,0,0,1,.2.06c.12.16.18.26.18.26a.2.2,0,0,1,0,.11c-.28,2,0,3.15.89,4.14A5.76,5.76,0,0,0,173.76,50a.13.13,0,0,1,.12,0,.2.2,0,0,1,.05.21l-.47,2.81,0,.13,0,.08a6.28,6.28,0,0,1-.75,2,6.35,6.35,0,0,1-2.82,2.53A6.23,6.23,0,0,1,167.23,58.34ZM162.78,44.6a4.55,4.55,0,0,0-.62,1.6v0l-1.24,6.08A4.55,4.55,0,0,0,164,57.46l.07,0,.09,0a6.43,6.43,0,0,0,2.08.38,6,6,0,0,0,6.13-2.84,5.83,5.83,0,0,0,.71-1.86l0-.09,0-.11.44-2.69a5.88,5.88,0,0,1-2.14-1.39c-1-1.07-1.28-2.3-1-4.37l0-.07-1.85.67A6.6,6.6,0,0,1,162.78,44.6Z" transform="translate(-3.32 -23.09)"/><path class="cls-5" d="M167.31,49.66a.45.45,0,1,0,.9-.06.44.44,0,0,0-.48-.42A.45.45,0,0,0,167.31,49.66Z" transform="translate(-3.32 -23.09)"/><path class="cls-5" d="M162.65,49.12a.45.45,0,1,0,.9-.06.45.45,0,0,0-.48-.42A.44.44,0,0,0,162.65,49.12Z" transform="translate(-3.32 -23.09)"/><path class="cls-5" d="M174.9,51.31a.2.2,0,0,1-.11,0l-.43-.32a.23.23,0,0,1-.1-.19.22.22,0,0,1,.09-.2l.44-.37a.18.18,0,0,1,.25,0,.17.17,0,0,1,0,.24l-.34.29L175,51a.17.17,0,0,1-.1.31Z" transform="translate(-3.32 -23.09)"/><path class="cls-13" d="M167.05,47.16a1.42,1.42,0,0,0,.53.23l.56.18.56.22a1.17,1.17,0,0,0,.55.15c.17,0,.29-.16.2-.44a1.6,1.6,0,0,0-1-.85,1.57,1.57,0,0,0-1.29,0C166.92,46.84,166.93,47,167.05,47.16Z" transform="translate(-3.32 -23.09)"/><path class="cls-5" d="M169.22,48.12a1.39,1.39,0,0,1-.52-.14l-.07,0-.55-.21c-.16-.06-.36-.13-.55-.18l-.07,0a1.18,1.18,0,0,1-.53-.25.41.41,0,0,1-.14-.34.6.6,0,0,1,.28-.4,1.69,1.69,0,0,1,1.45-.06,1.78,1.78,0,0,1,1.09,1,.52.52,0,0,1,0,.49.41.41,0,0,1-.32.18ZM167.8,46.7a.92.92,0,0,0-.53.13.27.27,0,0,0-.13.14.09.09,0,0,0,0,.06h0a1,1,0,0,0,.39.17l.07,0,.57.19c.18.06.37.14.56.22l.07,0a1,1,0,0,0,.41.11s0,0,0,0,0-.09,0-.19a1.45,1.45,0,0,0-.88-.75A1.74,1.74,0,0,0,167.8,46.7Z" transform="translate(-3.32 -23.09)"/><path class="cls-13" d="M164.6,46.9a1.36,1.36,0,0,1-.55.08l-.56,0-.56,0a1.27,1.27,0,0,1-.55,0c-.15-.06-.22-.24-.06-.48a1.67,1.67,0,0,1,2.29-.15C164.79,46.64,164.74,46.83,164.6,46.9Z" transform="translate(-3.32 -23.09)"/><path class="cls-5" d="M162.6,47.26a.66.66,0,0,1-.28,0,.39.39,0,0,1-.25-.25.59.59,0,0,1,.1-.48,1.83,1.83,0,0,1,2.58-.17.56.56,0,0,1,.14.46.42.42,0,0,1-.21.29,1.14,1.14,0,0,1-.55.09h-.07l-.56,0-.55.06h-.07Zm1-1h-.12a1.34,1.34,0,0,0-1,.46.22.22,0,0,0-.05.18s0,0,0,0a1,1,0,0,0,.4,0h.07l.57-.06.57,0h.07a1,1,0,0,0,.4,0h0a.05.05,0,0,0,0,0,.22.22,0,0,0-.07-.16A1.24,1.24,0,0,0,163.57,46.21Z" transform="translate(-3.32 -23.09)"/><path class="cls-14" d="M165.53,48.4l-.17,1a.71.71,0,0,1-.81.58h0a.34.34,0,0,0-.4.29h0a1.13,1.13,0,0,0,.93,1.31l.4.07" transform="translate(-3.32 -23.09)"/><path class="cls-5" d="M165.48,51.82h0l-.41-.07A1.31,1.31,0,0,1,164,50.24a.52.52,0,0,1,.61-.43.53.53,0,0,0,.61-.44l.17-1a.17.17,0,0,1,.2-.14.16.16,0,0,1,.14.2l-.17,1a.87.87,0,0,1-1,.72.17.17,0,0,0-.2.14,1,1,0,0,0,.79,1.12l.4.06a.19.19,0,0,1,.15.21A.18.18,0,0,1,165.48,51.82Z" transform="translate(-3.32 -23.09)"/><path class="cls-5" d="M168.11,50.34a.15.15,0,0,1-.11,0h0a.65.65,0,0,0-.61-.06.18.18,0,0,1-.22-.11.17.17,0,0,1,.1-.22,1,1,0,0,1,.95.12.18.18,0,0,1,0,.25A.2.2,0,0,1,168.11,50.34Z" transform="translate(-3.32 -23.09)"/><path class="cls-5" d="M163.43,49.86a.15.15,0,0,1-.11,0h0a.65.65,0,0,0-.61-.06.18.18,0,0,1-.22-.11.17.17,0,0,1,.1-.22,1,1,0,0,1,.95.12.18.18,0,0,1,0,.25A.2.2,0,0,1,163.43,49.86Z" transform="translate(-3.32 -23.09)"/><path class="cls-13" d="M169.08,52a.5.5,0,0,0-.61,0,3.47,3.47,0,0,1-2,.66.36.36,0,0,0-.31.48,1.38,1.38,0,0,0,2,.83C169.69,53.39,169.54,52.34,169.08,52Z" transform="translate(-3.32 -23.09)"/><path class="cls-5" d="M167.41,54.24A1.5,1.5,0,0,1,166,53.16a.55.55,0,0,1,.07-.5.5.5,0,0,1,.4-.21h0a3.27,3.27,0,0,0,1.89-.63.66.66,0,0,1,.83,0h0a1.06,1.06,0,0,1,.36,1c-.06.31-.31.89-1.37,1.26A2.38,2.38,0,0,1,167.41,54.24Zm-1-1.44a.12.12,0,0,0-.11.06.21.21,0,0,0,0,.19c.15.44.59,1.12,1.75.72.67-.23,1.07-.58,1.15-1a.75.75,0,0,0-.24-.68.32.32,0,0,0-.4,0,3.69,3.69,0,0,1-2.12.7Z" transform="translate(-3.32 -23.09)"/><path class="cls-16" d="M168.3,53a1,1,0,0,1,.74.37,2.45,2.45,0,0,1-.92.52,2.05,2.05,0,0,1-.76.13V54A.94.94,0,0,1,168.3,53Z" transform="translate(-3.32 -23.09)"/><path class="cls-5" d="M167.41,54.24h0a.19.19,0,0,1-.17-.17.31.31,0,0,1,0-.09,1.12,1.12,0,0,1,1.12-1.11,1.1,1.1,0,0,1,.87.43.17.17,0,0,1,0,.23,2.79,2.79,0,0,1-1,.57A2.47,2.47,0,0,1,167.41,54.24Zm.89-1a.77.77,0,0,0-.76.66,2.11,2.11,0,0,0,.52-.11,2.42,2.42,0,0,0,.72-.37A.7.7,0,0,0,168.3,53.22Z" transform="translate(-3.32 -23.09)"/><path class="cls-17" d="M175.81,53.08a1,1,0,1,1-1.05-.87A1,1,0,0,1,175.81,53.08Z" transform="translate(-3.32 -23.09)"/><path class="cls-5" d="M174.85,54.3a1.13,1.13,0,1,1,.73-2,1.12,1.12,0,0,1,.4.77h0a1.13,1.13,0,0,1-.25.83,1.15,1.15,0,0,1-.77.41Zm0-1.92h-.08a.78.78,0,0,0-.71.85.79.79,0,0,0,.86.71.77.77,0,0,0,.53-.28.81.81,0,0,0,.18-.58h0a.78.78,0,0,0-.78-.71Z" transform="translate(-3.32 -23.09)"/><path class="cls-13" d="M159.29,61.49h.07l4.43.44,3.84,1.79,3.54-1.13,8,.72h.07A14.38,14.38,0,0,1,191,71.58l5.33,11.48-15.72-1.9c-1,3.52-.08,5.53,1,9l1.31,5-28.53,1.56,1.18-15.34.06-2.22s-10-1.12-9.86-6.48L152,64.89A9,9,0,0,1,159.29,61.49Z" transform="translate(-3.32 -23.09)"/><path class="cls-5" d="M154.45,96.86a.17.17,0,0,1-.18-.18l1.18-15.34.06-2c-1.34-.18-10-1.5-9.85-6.65a.17.17,0,0,1,0-.1l6.18-7.76a9.19,9.19,0,0,1,7.43-3.47h.07l4.44.44h.06l3.77,1.76,3.48-1.11a.16.16,0,0,1,.07,0l8.09.72a14.58,14.58,0,0,1,11.89,8.36L196.5,83a.19.19,0,0,1,0,.18.17.17,0,0,1-.16.07l-15.57-1.88c-.79,3.07-.16,5,.79,7.86.1.28.2.58.3.89l1.31,5a.2.2,0,0,1,0,.15.17.17,0,0,1-.13.07l-28.54,1.56ZM146,72.71c-.1,5.09,9.61,6.24,9.71,6.25a.18.18,0,0,1,.16.18l-.07,2.22L154.63,96.5,182.75,95,181.5,90.2c-.09-.3-.19-.6-.29-.88-1-3-1.64-4.95-.76-8.21a.17.17,0,0,1,.19-.12l15.41,1.85-5.2-11.19a14.22,14.22,0,0,0-11.59-8.16l-8.07-.72-3.51,1.11a.15.15,0,0,1-.13,0l-3.8-1.77-4.46-.44A8.89,8.89,0,0,0,152.14,65Z" transform="translate(-3.32 -23.09)"/><g class="cls-18"><path class="cls-19" d="M159.29,61.49h.07l4.43.44,3.84,1.79,3.54-1.13,8,.72h.07A14.38,14.38,0,0,1,191,71.58l5.33,11.48-15.72-1.9c-1,3.52-1,1.16.12,4.63L183,95.13l-28.53,1.56,1.18-15.34.06-2.22s-10-1.12-9.86-6.48L152,64.89A9,9,0,0,1,159.29,61.49Z" transform="translate(-3.32 -23.09)"/><path class="cls-5" d="M154.45,96.86a.17.17,0,0,1-.18-.18l1.18-15.34.06-2c-1.34-.18-10-1.5-9.85-6.65a.17.17,0,0,1,0-.1l6.18-7.76a9.19,9.19,0,0,1,7.43-3.47h.07l4.44.44h.06l3.77,1.76,3.48-1.11a.16.16,0,0,1,.07,0l8.09.72a14.58,14.58,0,0,1,11.89,8.36L196.5,83a.19.19,0,0,1,0,.18.17.17,0,0,1-.16.07l-15.57-1.88a16.31,16.31,0,0,1-.55,1.7.79.79,0,0,0,0,.87c.13.32.36.84.68,1.82l2.24,9.35a.17.17,0,0,1,0,.14.17.17,0,0,1-.13.07l-28.54,1.56ZM146,72.71c-.1,5.09,9.61,6.24,9.71,6.25a.18.18,0,0,1,.16.18l-.07,2.22L154.63,96.5,182.76,95l-2.19-9.13a16.48,16.48,0,0,0-.67-1.77,1,1,0,0,1,0-1.13c.11-.31.31-.84.57-1.82a.17.17,0,0,1,.19-.12l15.41,1.85-5.2-11.19a14.22,14.22,0,0,0-11.59-8.16l-8.07-.72-3.51,1.11a.15.15,0,0,1-.13,0l-3.8-1.77-4.46-.44A8.89,8.89,0,0,0,152.14,65Z" transform="translate(-3.32 -23.09)"/></g><path class="cls-20" d="M174.19,62.45h0a3.37,3.37,0,0,1-5.82,2.28l-.46-.5a.58.58,0,0,0-.8-.08l-.53.39a3.5,3.5,0,0,1-5.51-3.25h0a.62.62,0,0,1,.9-.55l5.36,2.82a.61.61,0,0,0,.46,0l5.6-1.81A.62.62,0,0,1,174.19,62.45Z" transform="translate(-3.32 -23.09)"/><path class="cls-5" d="M170.78,66a3.39,3.39,0,0,1-2.5-1.13l-.46-.51a.48.48,0,0,0-.64-.06l-.52.39a3.45,3.45,0,0,1-3.78.28,3.79,3.79,0,0,1-1.94-3.64.77.77,0,0,1,.39-.64.7.7,0,0,1,.7,0l5.36,2.81a.45.45,0,0,0,.36,0l5.6-1.81a.73.73,0,0,1,.67.12.77.77,0,0,1,.3.68h0a3.65,3.65,0,0,1-2.4,3.29A3.47,3.47,0,0,1,170.78,66Zm-3.31-2.05a.73.73,0,0,1,.54.24l.46.5a3.06,3.06,0,0,0,3.36.86,3.37,3.37,0,0,0,2.23-3.06h0a.51.51,0,0,0-.2-.45.45.45,0,0,0-.43-.08l-5.6,1.81a.73.73,0,0,1-.56,0l-5.36-2.81a.45.45,0,0,0-.45,0,.51.51,0,0,0-.26.43,3.54,3.54,0,0,0,1.8,3.39,3.19,3.19,0,0,0,3.5-.26L167,64A.7.7,0,0,1,167.47,63.9Z" transform="translate(-3.32 -23.09)"/><line class="cls-21" x1="175.48" y1="49.56" x2="177.53" y2="57.47"/><path class="cls-5" d="M180.85,80.73a.17.17,0,0,1-.17-.13l-2.06-7.91a.17.17,0,0,1,.13-.21.17.17,0,0,1,.21.12L181,80.51a.18.18,0,0,1-.13.21Z" transform="translate(-3.32 -23.09)"/><line class="cls-20" x1="152.95" y1="49.1" x2="152.31" y2="58.27"/><path class="cls-5" d="M155.63,81.53h0a.19.19,0,0,1-.16-.19l.64-9.17a.18.18,0,0,1,.18-.16.19.19,0,0,1,.17.19l-.64,9.17A.17.17,0,0,1,155.63,81.53Z" transform="translate(-3.32 -23.09)"/><path class="cls-14" d="M196,82.45c1.68,2.56,2.72,5.67.6,8.1a7,7,0,0,1-3.52,2.15c-3,.75-16.68-1.91-16.68-1.91a8.9,8.9,0,0,1-1.95-6.17,7.52,7.52,0,0,1,1.78-4.34c0,.08,10.79-.24,12.78-.15C189,80.13,194.48,80.11,196,82.45Z" transform="translate(-3.32 -23.09)"/><path class="cls-5" d="M191.53,93c-4.56,0-14.66-2-15.15-2a.14.14,0,0,1-.1-.07,9.15,9.15,0,0,1-2-6.29,7.7,7.7,0,0,1,1.83-4.44.16.16,0,0,1,.17,0h0c.25,0,2.53,0,4.73-.06,3.24-.07,6.91-.15,8-.1.22,0,5.56,0,7.13,2.4h0c2.21,3.36,2.41,6.24.59,8.31a7.17,7.17,0,0,1-3.61,2.21A7.65,7.65,0,0,1,191.53,93Zm-15-2.37c1,.2,13.71,2.6,16.53,1.9a6.85,6.85,0,0,0,3.44-2.1c2.15-2.46.85-5.64-.62-7.88h0c-1.47-2.24-6.79-2.25-6.84-2.25-1.1,0-4.92,0-8,.09s-4.28.09-4.7,0a7.52,7.52,0,0,0-1.69,4.19A8.79,8.79,0,0,0,176.52,90.63Z" transform="translate(-3.32 -23.09)"/><rect class="cls-22" x="156.55" y="48.2" width="10.33" height="1.74" rx="0.87"/><path class="cls-5" d="M169.79,73.21h-9.52a.58.58,0,0,1-.58-.58V71.7a.58.58,0,0,1,.58-.58h9.52a.58.58,0,0,1,.58.58v.93A.58.58,0,0,1,169.79,73.21Zm-9.52-1.74a.23.23,0,0,0-.23.23v.93a.23.23,0,0,0,.23.23h9.52a.23.23,0,0,0,.23-.23V71.7a.23.23,0,0,0-.23-.23Z" transform="translate(-3.32 -23.09)"/><path class="cls-20" d="M168.68,89.55h-7.17a1,1,0,0,1-.92-.91l-1-14.75a1,1,0,0,1,.93-1h9.19a1,1,0,0,1,.93,1l-1,14.75A1,1,0,0,1,168.68,89.55Z" transform="translate(-3.32 -23.09)"/><path class="cls-5" d="M168.68,89.72h-7.17a1.14,1.14,0,0,1-1.1-1.07l-1-14.75a1.18,1.18,0,0,1,.31-.88,1.05,1.05,0,0,1,.79-.35h9.19a1.05,1.05,0,0,1,.79.35,1.18,1.18,0,0,1,.31.88l-1,14.75A1.14,1.14,0,0,1,168.68,89.72ZM160.5,73a.73.73,0,0,0-.54.24.81.81,0,0,0-.21.62l1,14.75a.77.77,0,0,0,.75.74h7.17a.77.77,0,0,0,.75-.74l1-14.75a.81.81,0,0,0-.21-.62.73.73,0,0,0-.54-.24Z" transform="translate(-3.32 -23.09)"/><polygon class="cls-22" points="156.55 55.08 156.95 60.82 166.61 60.82 167.01 55.08 156.55 55.08"/><path class="cls-5" d="M169.93,84.09h-9.67a.18.18,0,0,1-.17-.17l-.4-5.74a.19.19,0,0,1,.05-.13.16.16,0,0,1,.13-.06h10.45a.16.16,0,0,1,.13.06.19.19,0,0,1,.05.13l-.4,5.74A.18.18,0,0,1,169.93,84.09Zm-9.5-.35h9.33l.38-5.4H160.05Z" transform="translate(-3.32 -23.09)"/><rect class="cls-5" x="155.6" y="49.26" width="12.32" height="2.35" rx="0.89"/><path class="cls-5" d="M170.92,74.87h-11.7a.49.49,0,0,1-.48-.48V72.66a.49.49,0,0,1,.48-.49h11.7a.48.48,0,0,1,.48.49v1.73A.48.48,0,0,1,170.92,74.87Zm-11.7-2.35a.13.13,0,0,0-.13.14v1.73a.13.13,0,0,0,.13.13h11.7a.14.14,0,0,0,.14-.13V72.66a.14.14,0,0,0-.14-.14Z" transform="translate(-3.32 -23.09)"/><path class="cls-23" d="M166.82,80.88A1.79,1.79,0,1,1,165,79,1.84,1.84,0,0,1,166.82,80.88Z" transform="translate(-3.32 -23.09)"/><path class="cls-5" d="M165,83a2.07,2.07,0,1,1,2-2.07A2,2,0,0,1,165,83Zm0-3.78a1.72,1.72,0,1,0,1.62,1.71A1.67,1.67,0,0,0,165,79.17Z" transform="translate(-3.32 -23.09)"/><path class="cls-14" d="M176.42,90.79l-2-.8c-1.07-.43-2.16-.82-3.26-1.16l-3.24-1A2.47,2.47,0,0,1,166,85.13l.05-.39-1.1-.08a1.53,1.53,0,0,1-1.4-1.67l.09-.9-.59,0a1.28,1.28,0,0,1-1.2-1.07l0-.16a1.21,1.21,0,0,1,.74-1.34l2-.77-.05-.21a1.85,1.85,0,0,1,1.2-2.22l3.34-1.06c2.69-.45,6.14.92,7.07,3.57L178,83" transform="translate(-3.32 -23.09)"/><path class="cls-5" d="M176.42,91h-.07l-2-.8c-1.06-.43-2.16-.81-3.26-1.15l-3.23-1a2.64,2.64,0,0,1-2-2.89l0-.21-.91-.06A1.72,1.72,0,0,1,163.36,83l.07-.71H163A1.44,1.44,0,0,1,161.66,81l0-.15a1.39,1.39,0,0,1,.86-1.53l1.87-.72,0-.05a2,2,0,0,1,1.32-2.43L169,75.08c2.74-.47,6.31.9,7.28,3.67l1.83,4.13a.19.19,0,0,1-.09.23.17.17,0,0,1-.23-.09L176,78.88c-.92-2.62-4.3-3.9-6.88-3.47l-3.32,1.06a1.68,1.68,0,0,0-1.08,2l0,.21a.17.17,0,0,1-.1.2l-2,.78a1,1,0,0,0-.63,1.14l0,.16a1.11,1.11,0,0,0,1,.93l.59,0a.17.17,0,0,1,.12,0,.19.19,0,0,1,.05.14l-.09.89a1.35,1.35,0,0,0,.32,1,1.31,1.31,0,0,0,.91.47l1.1.07a.19.19,0,0,1,.12.07.2.2,0,0,1,0,.13l0,.39a2.29,2.29,0,0,0,1.78,2.51l3.26,1c1.1.34,2.21.73,3.28,1.15l2,.81a.17.17,0,0,1-.06.33Z" transform="translate(-3.32 -23.09)"/><path class="cls-14" d="M172,78.92l-.87-.46a4.43,4.43,0,0,0-2.9-.44l-3.56.68" transform="translate(-3.32 -23.09)"/><path class="cls-5" d="M172,79.09a.13.13,0,0,1-.08,0l-.88-.46a4.25,4.25,0,0,0-2.78-.42l-3.56.68a.19.19,0,0,1-.2-.14.17.17,0,0,1,.14-.21l3.55-.67a4.7,4.7,0,0,1,3,.45l.87.46a.18.18,0,0,1,.08.24A.17.17,0,0,1,172,79.09Z" transform="translate(-3.32 -23.09)"/><path class="cls-14" d="M163.63,82l3.46-.33a7.6,7.6,0,0,1,3.31.41l1.38.49" transform="translate(-3.32 -23.09)"/><path class="cls-5" d="M171.78,82.75h-.06l-1.38-.49a7.75,7.75,0,0,0-3.24-.4l-3.45.33a.18.18,0,0,1,0-.35l3.46-.33a8.13,8.13,0,0,1,3.39.42l1.38.49a.17.17,0,0,1,.1.22A.16.16,0,0,1,171.78,82.75Z" transform="translate(-3.32 -23.09)"/><path class="cls-14" d="M166.07,84.65l2.55,0a5.51,5.51,0,0,1,2.67.64l.39.21" transform="translate(-3.32 -23.09)"/><path class="cls-5" d="M171.68,85.65l-.08,0-.39-.21a5.39,5.39,0,0,0-2.59-.63l-2.55,0a.18.18,0,0,1-.17-.17.17.17,0,0,1,.17-.18l2.55,0a5.85,5.85,0,0,1,2.75.67l.39.21a.18.18,0,0,1,.08.24A.19.19,0,0,1,171.68,85.65Z" transform="translate(-3.32 -23.09)"/><path class="cls-14" d="M155,73.59l-7-15.65-.29-1a4.59,4.59,0,0,1,0-2.57l.88-2.9a1.85,1.85,0,0,0-.15-1.38v0a1.08,1.08,0,0,0-1.92,0l-.83,1.66-.1-.54c-.08-.47-.21-.94-.31-1.42a11.32,11.32,0,0,1-.19-3.67A1.19,1.19,0,0,0,143.28,45a1.48,1.48,0,0,0-.52.71,3.14,3.14,0,0,0-.14.73,1.31,1.31,0,0,0-1.23-1.24,1.23,1.23,0,0,0-1.24,1c0,.11-.05.9-.05.9-.15-1.37-1.86-.74-2.14.21a5.4,5.4,0,0,0,0,1.58,1,1,0,0,0-1.46-.55c-.8.38-.75,1.07-.71,1.82a37.17,37.17,0,0,0,1.87,7.44l1.17,3.62,4,17c1.52,6.57,9.15,5.91,12.13,1.94C157,77.76,155,73.59,155,73.59Z" transform="translate(-3.32 -23.09)"/><path class="cls-5" d="M148.78,83.39a6.71,6.71,0,0,1-1.42-.15,6.05,6.05,0,0,1-4.71-4.92l-4-17-1.33-4.11a33.85,33.85,0,0,1-1.71-7v-.05c0-.75-.09-1.53.8-1.94a1.36,1.36,0,0,1,1.18,0l.12.07a3.08,3.08,0,0,1,.06-1,1.66,1.66,0,0,1,1.62-1.12.89.89,0,0,1,.54.23c0-.09,0-.17,0-.2a1.39,1.39,0,0,1,1.41-1.13,1.5,1.5,0,0,1,1.19.69.35.35,0,0,1,0-.06,1.76,1.76,0,0,1,.6-.81,1.4,1.4,0,0,1,1.51,0,1.31,1.31,0,0,1,.62,1.26,11.27,11.27,0,0,0,.18,3.62c.05.2.09.39.14.59s.13.55.18.83v0l.6-1.2a1.23,1.23,0,0,1,1.09-.69,1.26,1.26,0,0,1,1.13.65,2,2,0,0,1,.17,1.54l-.87,2.9a4.36,4.36,0,0,0,0,2.48l.29,1,6.95,15.62c.09.2,2,4.32-.08,6.82A8.12,8.12,0,0,1,148.78,83.39Zm-11.71-35a1.2,1.2,0,0,0-.48.11c-.68.32-.65.89-.61,1.61a34.45,34.45,0,0,0,1.7,6.93L139,61.19l4,17a5.71,5.71,0,0,0,4.44,4.66,7.67,7.67,0,0,0,7.38-2.78c1.94-2.36.06-6.42,0-6.46h0l-7-15.65-.3-1a4.67,4.67,0,0,1,0-2.67l.87-2.9a1.63,1.63,0,0,0-.13-1.24.91.91,0,0,0-.83-.5.89.89,0,0,0-.79.5l-.83,1.66a.17.17,0,0,1-.18.1.18.18,0,0,1-.15-.14l-.1-.54c-.05-.28-.11-.55-.17-.82s-.1-.4-.14-.6a11.39,11.39,0,0,1-.19-3.73.92.92,0,0,0-.46-.92,1,1,0,0,0-1.13,0,1.26,1.26,0,0,0-.45.63,2.31,2.31,0,0,0-.13.66h0a.18.18,0,0,1-.35,0h0a1.14,1.14,0,0,0-1.07-1.06,1,1,0,0,0-1.06.84c0,.07,0,.55,0,.87a.17.17,0,0,1-.17.17.18.18,0,0,1-.18-.16c0-.39-.22-.6-.53-.63a1.35,1.35,0,0,0-1.26.88,5,5,0,0,0,0,1.5.17.17,0,0,1-.14.2.18.18,0,0,1-.2-.14.63.63,0,0,0-.35-.44A.83.83,0,0,0,137.07,48.41Z" transform="translate(-3.32 -23.09)"/><path class="cls-5" d="M144.3,55.45a.17.17,0,0,1-.17-.13,3.46,3.46,0,0,1,.18-2.91,2.05,2.05,0,0,1,1.38-.86.18.18,0,0,1,.19.15.17.17,0,0,1-.15.19,1.77,1.77,0,0,0-1.13.72,3.18,3.18,0,0,0-.14,2.62.17.17,0,0,1-.12.21Z" transform="translate(-3.32 -23.09)"/><path class="cls-5" d="M138.9,52.91a.18.18,0,0,1-.15-.08,8.86,8.86,0,0,1-1-4.06.16.16,0,0,1,.16-.18.17.17,0,0,1,.19.17,8.61,8.61,0,0,0,.91,3.89.18.18,0,0,1-.06.24A.15.15,0,0,1,138.9,52.91Z" transform="translate(-3.32 -23.09)"/><path class="cls-5" d="M141.23,52.1a.16.16,0,0,1-.15-.09,11.38,11.38,0,0,1-1.16-4.8.18.18,0,0,1,.18-.18.18.18,0,0,1,.17.18,11.41,11.41,0,0,0,1.11,4.64.16.16,0,0,1-.07.23A.11.11,0,0,1,141.23,52.1Z" transform="translate(-3.32 -23.09)"/><path class="cls-5" d="M143.56,51.55a.17.17,0,0,1-.16-.11,13.15,13.15,0,0,1-1-5.06.17.17,0,0,1,.18-.16.17.17,0,0,1,.17.18,12.89,12.89,0,0,0,.92,4.9.17.17,0,0,1-.09.23Z" transform="translate(-3.32 -23.09)"/><path class="cls-24" d="M139.24,139l.62,5.49L128,149.32a5.28,5.28,0,0,0-3.58,4.72h21.23l3,.11,1.86,0a3.08,3.08,0,0,0,3-3.57l-.34-2c-.09-.6.15-9.52.15-9.52Z" transform="translate(-3.32 -23.09)"/><path class="cls-5" d="M148.65,154.33l-3-.11H124.44a.17.17,0,0,1-.17-.18,5.42,5.42,0,0,1,3.69-4.88l11.71-4.77-.6-5.36a.16.16,0,0,1,0-.13.18.18,0,0,1,.13-.06h14a.18.18,0,0,1,.12,0,.21.21,0,0,1,0,.13c-.07,2.48-.22,9-.14,9.48l.33,2a3.24,3.24,0,0,1-3.12,3.77Zm-24-.46h21l3,.11,1.86,0a2.89,2.89,0,0,0,2.16-1.05,2.93,2.93,0,0,0,.63-2.32l-.34-2c-.09-.56.1-8.06.14-9.36H139.44l.59,5.29a.17.17,0,0,1-.1.18l-11.84,4.82A5.14,5.14,0,0,0,124.62,153.87Z" transform="translate(-3.32 -23.09)"/><path class="cls-25" d="M137.63,145.46,128,149.32a6.38,6.38,0,0,0-2.48,1.78l2.35,2.94h16.67Z" transform="translate(-3.32 -23.09)"/><path class="cls-5" d="M144.56,154.22H127.89a.17.17,0,0,1-.14-.07l-2.34-2.94a.18.18,0,0,1,0-.22,6.41,6.41,0,0,1,2.55-1.83l9.6-3.86a.17.17,0,0,1,.2,0l6.94,8.58a.19.19,0,0,1,0,.19A.18.18,0,0,1,144.56,154.22ZM128,153.87H144.2l-6.63-8.2-9.48,3.81a6.2,6.2,0,0,0-2.32,1.63Z" transform="translate(-3.32 -23.09)"/><path class="cls-9" d="M153.25,158.55H134.36l-.2-1.44-1.62,1.44h-3.66l.07-1.7-1.62,1.7h-2.41a.48.48,0,0,1-.48-.48v-4h28.32a1.27,1.27,0,0,1,1.27,1.29l0,2.46A.76.76,0,0,1,153.25,158.55Z" transform="translate(-3.32 -23.09)"/><path class="cls-5" d="M153.25,158.68H134.36a.13.13,0,0,1-.13-.11l-.16-1.2-1.44,1.28a.12.12,0,0,1-.09,0h-3.66a.14.14,0,0,1-.13-.13l.05-1.36-1.37,1.45a.13.13,0,0,1-.1,0h-2.41a.61.61,0,0,1-.61-.61v-4a.13.13,0,0,1,.13-.13h28.32a1.4,1.4,0,0,1,1,.42,1.43,1.43,0,0,1,.41,1l0,2.47A.89.89,0,0,1,153.25,158.68Zm-18.78-.26h18.78a.63.63,0,0,0,.63-.63l0-2.46a1.1,1.1,0,0,0-.33-.82,1.13,1.13,0,0,0-.81-.34H124.57v3.9a.35.35,0,0,0,.35.35h2.35l1.58-1.66a.12.12,0,0,1,.15,0,.13.13,0,0,1,.08.12l-.06,1.57h3.47l1.58-1.41a.14.14,0,0,1,.14,0,.12.12,0,0,1,.08.1Z" transform="translate(-3.32 -23.09)"/><path class="cls-24" d="M118.5,124.43l-1,5.43-12.72,1.21a5.3,5.3,0,0,0-4.79,3.5h0l20.33,6.1,2.82,1,1.8.49a3.07,3.07,0,0,0,3.86-2.57l.26-2c.07-.6,2.87-9.07,2.87-9.07Z" transform="translate(-3.32 -23.09)"/><path class="cls-5" d="M125.76,142.41a3.12,3.12,0,0,1-.85-.12l-1.8-.49-2.83-1L100,134.73a.17.17,0,0,1-.12-.21,5.43,5.43,0,0,1,4.94-3.62l12.59-1.2,1-5.3a.16.16,0,0,1,.08-.12.17.17,0,0,1,.14,0l13.44,4a.16.16,0,0,1,.1.08.14.14,0,0,1,0,.14c-.77,2.35-2.8,8.56-2.86,9l-.26,2a3.26,3.26,0,0,1-3.22,2.84Zm-25.54-8,20.16,6.05,2.83,1L125,142a2.91,2.91,0,0,0,3.64-2.43l.26-2c.07-.57,2.41-7.7,2.82-8.93l-13.08-3.93-1,5.24a.17.17,0,0,1-.16.14l-12.72,1.22A5.12,5.12,0,0,0,100.22,134.45Zm17.29-4.59h0Z" transform="translate(-3.32 -23.09)"/><path class="cls-25" d="M115.1,130.14l-10.31.93a6.27,6.27,0,0,0-2.89,1l1.4,3.49,16,4.79Z" transform="translate(-3.32 -23.09)"/><path class="cls-5" d="M119.27,140.53h0l-16-4.8a.16.16,0,0,1-.11-.1l-1.4-3.49a.19.19,0,0,1,.06-.21,6.46,6.46,0,0,1,3-1l10.31-.93a.16.16,0,0,1,.18.11l4.17,10.2a.17.17,0,0,1,0,.19A.16.16,0,0,1,119.27,140.53Zm-15.84-5.12L119,140.08l-4-9.75-10.18.92a6,6,0,0,0-2.69.89Z" transform="translate(-3.32 -23.09)"/><path class="cls-9" d="M126.3,147.17l-18.1-5.43.23-1.44-2,.91L103,140.16l.55-1.61-2,1.16-2.3-.69a.48.48,0,0,1-.33-.6l1.16-3.85,27.12,8.14a1.27,1.27,0,0,1,.85,1.6l-.73,2.35A.76.76,0,0,1,126.3,147.17Z" transform="translate(-3.32 -23.09)"/><path class="cls-5" d="M126.51,147.33a.73.73,0,0,1-.25,0l-18.09-5.43a.13.13,0,0,1-.1-.14l.19-1.2-1.74.81a.1.1,0,0,1-.09,0l-3.51-1.05a.18.18,0,0,1-.08-.07.12.12,0,0,1,0-.1l.44-1.29-1.73,1a.14.14,0,0,1-.11,0l-2.3-.69a.62.62,0,0,1-.41-.76l1.16-3.86a.13.13,0,0,1,.16-.09l27.12,8.14a1.4,1.4,0,0,1,.84.69,1.44,1.44,0,0,1,.1,1.08l-.73,2.35A.9.9,0,0,1,126.51,147.33Zm-.18-.29a.64.64,0,0,0,.79-.42l.73-2.35a1.14,1.14,0,0,0-.77-1.44l-27-8.1L99,138.46a.32.32,0,0,0,0,.27.34.34,0,0,0,.2.17l2.26.67,2-1.14a.12.12,0,0,1,.14,0,.11.11,0,0,1,0,.14l-.5,1.48,3.33,1,1.91-.89a.14.14,0,0,1,.14,0,.13.13,0,0,1,0,.13l-.21,1.32Z" transform="translate(-3.32 -23.09)"/><path class="cls-26" d="M183.36,97.46,183,95.13l-17.45.8h0L138.94,88a10.57,10.57,0,0,0-12.65,6.43L116,125.82l17.14,5.58,4.15-12.73-.06,21h18.06l.74-23,15.29.71a9.91,9.91,0,0,0,9-4.83A21.2,21.2,0,0,0,183.36,97.46Z" transform="translate(-3.32 -23.09)"/><path class="cls-5" d="M137.18,139.83a.17.17,0,0,1-.17-.17l.05-19.88-3.8,11.68a.15.15,0,0,1-.09.1.2.2,0,0,1-.13,0L115.9,126a.15.15,0,0,1-.1-.09.15.15,0,0,1,0-.13l10.34-31.38A10.72,10.72,0,0,1,139,87.84l26.56,7.91L183,95a.19.19,0,0,1,.18.15l.39,2.33h0a21.4,21.4,0,0,1-3.15,15.17,10.06,10.06,0,0,1-9.13,4.9l-15.11-.7-.74,22.86a.18.18,0,0,1-.17.17Zm.06-21.33h0a.17.17,0,0,1,.15.17l0,20.81h17.71l.73-22.86a.31.31,0,0,1,.06-.13.15.15,0,0,1,.13,0l15.29.7a9.71,9.71,0,0,0,8.81-4.74,21,21,0,0,0,3.1-14.93l-.36-2.17-17.29.79h-.06l-26.59-7.92a10.4,10.4,0,0,0-12.43,6.33l-10.28,31.21,16.8,5.47,4.09-12.56A.17.17,0,0,1,137.24,118.5Z" transform="translate(-3.32 -23.09)"/><g class="cls-27"><path class="cls-28" d="M183.36,97.46,183,95.13l-17.45.8h0L138.94,88a10.57,10.57,0,0,0-12.65,6.43L116,125.82l17.14,5.58,4.15-12.73-.06,21h18.06l.74-23,15.29.71a9.91,9.91,0,0,0,9-4.83A21.2,21.2,0,0,0,183.36,97.46Z" transform="translate(-3.32 -23.09)"/><path class="cls-5" d="M137.18,139.79a.14.14,0,0,1-.13-.13l0-20.15-3.88,11.93a.11.11,0,0,1-.07.08.11.11,0,0,1-.1,0L115.91,126a.1.1,0,0,1-.07-.07.11.11,0,0,1,0-.1L126.17,94.4A10.69,10.69,0,0,1,139,87.88l26.57,7.91L183,95a.15.15,0,0,1,.14.11l.38,2.32h0a21.3,21.3,0,0,1-3.14,15.14,10,10,0,0,1-9.08,4.89l-15.17-.7-.73,22.9a.12.12,0,0,1-.13.12Zm.06-21.25h0a.14.14,0,0,1,.11.13l-.06,20.86h17.8l.74-22.9a.1.1,0,0,1,0-.09.11.11,0,0,1,.09,0l15.3.71a9.77,9.77,0,0,0,8.85-4.76,21.09,21.09,0,0,0,3.1-15l-.36-2.22-17.33.8h0L138.9,88.13a10.42,10.42,0,0,0-12.48,6.35l-10.3,31.26,16.89,5.5,4.1-12.61A.14.14,0,0,1,137.24,118.54Z" transform="translate(-3.32 -23.09)"/></g><path class="cls-5" d="M115.63,123.57l-.79,2.23a.57.57,0,0,0,.36.72l18.22,5.84a.57.57,0,0,0,.7-.36l.75-2.27a.55.55,0,0,0-.36-.71l-18.19-5.79A.55.55,0,0,0,115.63,123.57Z" transform="translate(-3.32 -23.09)"/><path class="cls-5" d="M133.59,132.56a.62.62,0,0,1-.23,0l-18.21-5.84a.73.73,0,0,1-.44-.37.75.75,0,0,1,0-.57l.78-2.22a.74.74,0,0,1,.92-.46l18.19,5.79a.74.74,0,0,1,.43.37.72.72,0,0,1,0,.56l-.76,2.28A.74.74,0,0,1,133.59,132.56Zm-17.44-9.19a.38.38,0,0,0-.36.26h0l-.78,2.23a.33.33,0,0,0,0,.29.34.34,0,0,0,.22.2l18.22,5.84A.37.37,0,0,0,134,132l.76-2.28a.39.39,0,0,0-.25-.49l-18.19-5.79Zm-.52.2Z" transform="translate(-3.32 -23.09)"/><path class="cls-5" d="M137.25,118.71a.18.18,0,0,1-.17-.14c-1.11-5.34-.62-9.31,1.47-11.79a7.46,7.46,0,0,1,5.61-2.59.17.17,0,0,1,.17.16c.52,5.59,7.66,10,11.87,12.15a.18.18,0,0,1,.08.24.18.18,0,0,1-.24.07c-4.23-2.15-11.39-6.59-12-12.27a7.29,7.29,0,0,0-5.19,2.47c-2,2.4-2.48,6.26-1.39,11.49a.18.18,0,0,1-.13.21Z" transform="translate(-3.32 -23.09)"/><path class="cls-5" d="M136.29,137.25l0,2.36a.56.56,0,0,0,.56.57l19.13-.09a.57.57,0,0,0,.56-.56v-2.39a.56.56,0,0,0-.56-.57l-19.09.13A.56.56,0,0,0,136.29,137.25Z" transform="translate(-3.32 -23.09)"/><path class="cls-5" d="M136.8,140.35a.75.75,0,0,1-.53-.22.74.74,0,0,1-.21-.53l.06-2.36h0a.72.72,0,0,1,.73-.71l19.09-.13h0a.76.76,0,0,1,.52.21.75.75,0,0,1,.22.53l0,2.4a.73.73,0,0,1-.73.72l-19.13.09Zm-.33-3.1-.06,2.36a.43.43,0,0,0,.11.28.41.41,0,0,0,.28.11h0l19.13-.09a.38.38,0,0,0,.38-.38l0-2.4a.36.36,0,0,0-.12-.27.35.35,0,0,0-.27-.11l-19.09.13a.37.37,0,0,0-.38.37Z" transform="translate(-3.32 -23.09)"/><path class="cls-29" d="M180.9,96.24" transform="translate(-3.32 -23.09)"/><polygon class="cls-9" points="32.88 50.31 0.17 50.31 19.09 94.42 57.65 93.75 32.88 50.31"/><path class="cls-5" d="M22.4,117.68a.17.17,0,0,1-.16-.11L3.33,73.47a.2.2,0,0,1,0-.17.21.21,0,0,1,.15-.07h32.7a.16.16,0,0,1,.15.08l24.78,43.44a.19.19,0,0,1,0,.18A.18.18,0,0,1,61,117l-38.57.67ZM3.76,73.58l18.76,43.75,38.15-.66L36.09,73.58Z" transform="translate(-3.32 -23.09)"/><polygon class="cls-30" points="32.88 50.34 0.17 50.34 19.09 94.44 57.65 93.78 32.88 50.34"/><polygon class="cls-31" points="52.3 85.2 57.01 93.53 18.82 94.42 15.05 84.9 52.3 85.2"/><line class="cls-11" x1="24.93" y1="94.42" x2="32.74" y2="132.56"/><path class="cls-5" d="M36.05,155.82a.18.18,0,0,1-.17-.14l-7.8-38.14a.17.17,0,1,1,.34-.07l7.8,38.14a.18.18,0,0,1-.13.21Z" transform="translate(-3.32 -23.09)"/><line class="cls-11" x1="19.3" y1="94.42" x2="11.5" y2="132.56"/><path class="cls-5" d="M14.82,155.82h0a.18.18,0,0,1-.14-.21l7.81-38.14a.17.17,0,1,1,.34.07L15,155.68A.18.18,0,0,1,14.82,155.82Z" transform="translate(-3.32 -23.09)"/><line class="cls-11" x1="56.39" y1="93.54" x2="64.2" y2="132.56"/><path class="cls-5" d="M67.52,155.82a.18.18,0,0,1-.18-.14l-7.8-39a.17.17,0,0,1,.14-.21.17.17,0,0,1,.2.14l7.81,39a.18.18,0,0,1-.14.21Z" transform="translate(-3.32 -23.09)"/><line class="cls-11" x1="50.77" y1="93.54" x2="42.96" y2="132.56"/><path class="cls-5" d="M46.28,155.82h0a.18.18,0,0,1-.13-.21l7.8-39a.17.17,0,1,1,.34.07l-7.8,39A.18.18,0,0,1,46.28,155.82Z" transform="translate(-3.32 -23.09)"/><line class="cls-11" x1="15.05" y1="84.91" x2="52.94" y2="84.91"/><path class="cls-5" d="M56.26,108.17H18.36a.17.17,0,1,1,0-.34h37.9a.17.17,0,1,1,0,.34Z" transform="translate(-3.32 -23.09)"/><path class="cls-32" d="M51.26,56.83l-4.5,2.07-5.38-1.54-8.31.74H33l-.56.06C26.4,59,19.69,63,18.34,68.89L21.18,85l4.34-2.9c1,3.65.86,13,.86,13l31.6.32.78-14.14s15.7,1.34,15.51-4.21L61.75,59.84C59.93,57.56,56.78,56.83,51.26,56.83Z" transform="translate(-3.32 -23.09)"/><path class="cls-5" d="M58,95.58h0l-31.61-.32a.14.14,0,0,1-.13-.13c0-.1.12-9.12-.8-12.82L21.25,85.1a.12.12,0,0,1-.13,0,.1.1,0,0,1-.07-.09L18.21,68.91v0c1.38-6.08,8.2-10,14.21-10.82L33,58l8.38-.75h.05l5.33,1.52c4.46-2.07,4.47-2.07,4.51-2.07,5.87,0,8.84.86,10.59,3.07L74.38,77a.24.24,0,0,1,0,.08,2.73,2.73,0,0,1-.92,2.15c-3.13,3-13.25,2.31-14.6,2.2l-.77,14A.12.12,0,0,1,58,95.58ZM26.51,95l31.35.32.77-14a.13.13,0,0,1,0-.1.17.17,0,0,1,.1,0c.11,0,11.33.93,14.53-2.12a2.47,2.47,0,0,0,.84-1.91L61.65,59.92C60,57.79,57,57,51.29,57,51,57.08,48,58.47,46.82,59h-.09l-5.36-1.53L33,58.24l-.56.06c-5.92.76-12.62,4.64-14,10.59l2.79,15.88L25.45,82a.16.16,0,0,1,.12,0,.14.14,0,0,1,.08.09C26.56,85.44,26.52,93.84,26.51,95Z" transform="translate(-3.32 -23.09)"/><g class="cls-33"><path class="cls-34" d="M51.26,56.83l-4.5,2.07-5.38-1.54-8.31.74H33l-.56.06C26.4,59,19.69,63,18.34,68.89L21.18,85l4.34-2.9c1,3.65.86,13,.86,13l31.6.32.78-14.14s15.7,1.34,15.51-4.21L61.75,59.84C59.93,57.56,56.78,56.83,51.26,56.83Z" transform="translate(-3.32 -23.09)"/><path class="cls-5" d="M58,95.58h0l-31.61-.32a.14.14,0,0,1-.13-.13c0-.1.12-9.12-.8-12.82L21.25,85.1a.12.12,0,0,1-.13,0,.1.1,0,0,1-.07-.09L18.21,68.91v0c1.38-6.08,8.2-10,14.21-10.82L33,58l8.38-.75h.05l5.33,1.52c4.46-2.07,4.47-2.07,4.51-2.07,5.87,0,8.84.86,10.59,3.07L74.38,77a.24.24,0,0,1,0,.08,2.73,2.73,0,0,1-.92,2.15c-3.13,3-13.25,2.31-14.6,2.2l-.77,14A.12.12,0,0,1,58,95.58ZM26.51,95l31.35.32.77-14a.13.13,0,0,1,0-.1.17.17,0,0,1,.1,0c.11,0,11.33.93,14.53-2.12a2.47,2.47,0,0,0,.84-1.91L61.65,59.92C60,57.79,57,57,51.29,57,51,57.08,48,58.47,46.82,59h-.09l-5.36-1.53L33,58.24l-.56.06c-5.92.76-12.62,4.64-14,10.59l2.79,15.88L25.45,82a.16.16,0,0,1,.12,0,.14.14,0,0,1,.08.09C26.56,85.44,26.52,93.84,26.51,95Z" transform="translate(-3.32 -23.09)"/></g><line class="cls-21" x1="28.31" y1="48.14" x2="27.91" y2="56.3"/><path class="cls-5" d="M31.22,79.56h0a.18.18,0,0,1-.16-.19l.4-8.16a.16.16,0,0,1,.18-.16.17.17,0,0,1,.17.18l-.4,8.16A.19.19,0,0,1,31.22,79.56Z" transform="translate(-3.32 -23.09)"/><path class="cls-5" d="M52.91,36.39a3.42,3.42,0,0,0,.45-1.72,3.49,3.49,0,0,0-6-2.49A3.52,3.52,0,0,0,42.11,34c-.37.05-1.12.08-1.25.1-1.17.22-2.67.58-3.34,1.67a4,4,0,0,0-.49,1.6,2.79,2.79,0,0,0-1.11,2.93l2.69,5.22s-.65-1.44.31.2a6.8,6.8,0,0,0,1.26.89C41.6,44.14,44,41.62,43,39a6.54,6.54,0,0,0,6.1.9,3.16,3.16,0,1,0,3.77-3.49Z" transform="translate(-3.32 -23.09)"/><path class="cls-24" d="M39.13,42.24l.53,0c0,.14,0,.28,0,.43l.5,5.3c0,.08,0,.15,0,.22l-.35,0h-.56a3,3,0,0,1-.18-6Z" transform="translate(-3.32 -23.09)"/><path class="cls-5" d="M39.22,48.4a3.14,3.14,0,0,1-2.17-.87,3.09,3.09,0,0,1-1-2.21,3.16,3.16,0,0,1,3.07-3.26h.53a.19.19,0,0,1,.18.17v.09c0,.11,0,.21,0,.32l.51,5.3a.36.36,0,0,0,0,.11s0,.08,0,.11a.17.17,0,0,1-.15.2l-.36,0-.57,0Zm-.08-6h0a2.82,2.82,0,0,0-1.85,4.87,2.79,2.79,0,0,0,2,.77l.57,0H40A.11.11,0,0,1,40,48l-.5-5.31a2.11,2.11,0,0,1,0-.26Z" transform="translate(-3.32 -23.09)"/><path class="cls-24" d="M43.94,53.25a6.63,6.63,0,0,0,4.19.39,7.77,7.77,0,0,0,2.3-.58v6.72H41.07V50.89A6.72,6.72,0,0,0,43.94,53.25Z" transform="translate(-3.32 -23.09)"/><path class="cls-5" d="M50.43,60H41.07a.17.17,0,0,1-.17-.18V50.89a.17.17,0,0,1,.12-.17.16.16,0,0,1,.19.07,6.61,6.61,0,0,0,2.8,2.3,6.44,6.44,0,0,0,4.08.38,7.8,7.8,0,0,0,2.27-.57.17.17,0,0,1,.17,0,.21.21,0,0,1,.07.15v6.72A.17.17,0,0,1,50.43,60Zm-9.19-.35h9V53.32a7.54,7.54,0,0,1-2.11.49,6.76,6.76,0,0,1-4.27-.4h0a6.82,6.82,0,0,1-2.63-2Z" transform="translate(-3.32 -23.09)"/><path class="cls-5" d="M48.13,54.32a7.2,7.2,0,0,0,2.3-.58V57c-2.52-.27-6.52-3-6.52-3h0A6.7,6.7,0,0,0,48.13,54.32Z" transform="translate(-3.32 -23.09)"/><path class="cls-24" d="M53.87,48.39,53,41.51a6.92,6.92,0,0,0-.63-2.34c-.71.44-1.84,1-2.38.36l-.19.09A6.59,6.59,0,0,1,43,39c1,2.64-2.94,8.11-3,7.75l.07,1.56,0,.23a7.21,7.21,0,0,0,.64,2.19,6.87,6.87,0,0,0,2.52,2.79,6.55,6.55,0,0,0,4.1,1,7.61,7.61,0,0,0,2.36-.28A5.36,5.36,0,0,0,53.87,48.39Z" transform="translate(-3.32 -23.09)"/><path class="cls-5" d="M46.75,54.66a6.65,6.65,0,0,1-3.51-1,6.86,6.86,0,0,1-2.58-2.86A7,7,0,0,1,40,48.54s0-.06,0-.09l0-.15-.07-1.56a.19.19,0,0,1,.17-.19h0c.5-.47,3.69-5.15,2.82-7.51a.17.17,0,0,1,.06-.21.18.18,0,0,1,.21,0,6.46,6.46,0,0,0,6.58.62l.1-.05.08,0a.17.17,0,0,1,.21,0c.46.56,1.55,0,2.15-.39a.18.18,0,0,1,.14,0,.17.17,0,0,1,.11.09,7.34,7.34,0,0,1,.66,2.4l.87,6.88h0a5.56,5.56,0,0,1-4.21,6,7.57,7.57,0,0,1-2.42.28A5,5,0,0,1,46.75,54.66Zm-6.5-7.81.06,1.43s0,.07,0,.11,0,.07,0,.11A6.71,6.71,0,0,0,41,50.63a6.58,6.58,0,0,0,2.45,2.72,6.25,6.25,0,0,0,4,.92A6.93,6.93,0,0,0,49.74,54a5.21,5.21,0,0,0,4-5.59l-.87-6.88a6.77,6.77,0,0,0-.54-2.11c-1.06.64-1.86.75-2.34.32l-.08,0a6.87,6.87,0,0,1-6.54-.38c.42,2.6-2.47,6.84-3,7.39Zm-.18-.12Z" transform="translate(-3.32 -23.09)"/><path class="cls-5" d="M47.64,44.73a.49.49,0,1,1-1-.13.51.51,0,0,1,.56-.43A.5.5,0,0,1,47.64,44.73Z" transform="translate(-3.32 -23.09)"/><path class="cls-5" d="M52.76,44.5a.48.48,0,0,1-.56.42.49.49,0,0,1,.14-1A.48.48,0,0,1,52.76,44.5Z" transform="translate(-3.32 -23.09)"/><path class="cls-5" d="M38.58,45.94a.16.16,0,0,1-.15-.09.18.18,0,0,1,0-.24l.4-.24L38.51,45a.18.18,0,0,1,0-.25.18.18,0,0,1,.25,0l.46.44a.3.3,0,0,1,.08.21.28.28,0,0,1-.12.19l-.5.31A.16.16,0,0,1,38.58,45.94Zm.39-.49Z" transform="translate(-3.32 -23.09)"/><path class="cls-5" d="M47.91,42.06a1.66,1.66,0,0,1-.66.29l-.71.22-.69.27a1.6,1.6,0,0,1-.7.19c-.21,0-.37-.21-.24-.56a2,2,0,0,1,1.24-1.06,2,2,0,0,1,1.62.06C48.07,41.67,48.07,41.92,47.91,42.06Z" transform="translate(-3.32 -23.09)"/><path class="cls-5" d="M45.19,43.21h-.06a.43.43,0,0,1-.36-.2.63.63,0,0,1,0-.58,2.18,2.18,0,0,1,1.36-1.17,2.06,2.06,0,0,1,1.77.08.62.62,0,0,1,.32.47.48.48,0,0,1-.16.39,1.58,1.58,0,0,1-.64.3l-.09,0c-.25.07-.49.14-.7.22l-.69.26-.09,0A1.79,1.79,0,0,1,45.19,43.21ZM47,41.44a2.2,2.2,0,0,0-.76.14,1.82,1.82,0,0,0-1.14,1,.39.39,0,0,0,0,.28s0,0,.1,0a1.3,1.3,0,0,0,.53-.15l.09,0c.24-.1.49-.2.7-.27l.72-.23.09,0a1.22,1.22,0,0,0,.5-.23h0a.11.11,0,0,0,0-.1.28.28,0,0,0-.16-.21A1.32,1.32,0,0,0,47,41.44Z" transform="translate(-3.32 -23.09)"/><path class="cls-5" d="M51,41.73a1.09,1.09,0,0,0,.45.15l.47.11.46.14a1.14,1.14,0,0,0,.46.09c.14,0,.23-.16.13-.38a1.32,1.32,0,0,0-.86-.62,1.26,1.26,0,0,0-1,.12C50.83,41.48,50.84,41.65,51,41.73Z" transform="translate(-3.32 -23.09)"/><path class="cls-5" d="M52.73,42.4a1.06,1.06,0,0,1-.39-.09h-.06c-.16-.06-.32-.1-.46-.14l-.46-.11H51.3a1,1,0,0,1-.45-.17.36.36,0,0,1-.15-.3.48.48,0,0,1,.21-.37,1.41,1.41,0,0,1,1.19-.15,1.46,1.46,0,0,1,1,.73.5.5,0,0,1,0,.43.39.39,0,0,1-.27.18Zm-1.09-1.06a.82.82,0,0,0-.51.14c-.07,0-.08.08-.08.09v0a.86.86,0,0,0,.32.11h.06l.47.11.48.14,0,0a.7.7,0,0,0,.33.06s0,0,0-.13a1.17,1.17,0,0,0-.74-.52A1.37,1.37,0,0,0,51.64,41.34Z" transform="translate(-3.32 -23.09)"/><path class="cls-35" d="M46.43,46.57a.49.49,0,0,1,.59.12,3.44,3.44,0,0,0,1.81,1.07.35.35,0,0,1,.2.53,1.36,1.36,0,0,1-2.08.39C45.54,47.83,45.9,46.85,46.43,46.57Z" transform="translate(-3.32 -23.09)"/><path class="cls-5" d="M47.9,49.16a2,2,0,0,1-1-.33c-1-.58-1.08-1.19-1.07-1.5a1.08,1.08,0,0,1,.55-.91.66.66,0,0,1,.81.16,3.26,3.26,0,0,0,1.72,1,.47.47,0,0,1,.35.28.54.54,0,0,1,0,.51A1.54,1.54,0,0,1,47.9,49.16Zm-1.26-2.47a.33.33,0,0,0-.13,0h0a.7.7,0,0,0-.37.61c0,.41.3.83.9,1.19a1.19,1.19,0,0,0,1.84-.33.21.21,0,0,0,0-.19.16.16,0,0,0-.1-.08,3.58,3.58,0,0,1-1.91-1.12A.33.33,0,0,0,46.64,46.69Zm-.21-.12Z" transform="translate(-3.32 -23.09)"/><path class="cls-5" d="M46.83,45.44a.21.21,0,0,1-.15-.07.2.2,0,0,1,0-.25,1,1,0,0,1,1-.07.18.18,0,0,1,.09.23.17.17,0,0,1-.23.09.69.69,0,0,0-.61,0A.14.14,0,0,1,46.83,45.44Z" transform="translate(-3.32 -23.09)"/><path class="cls-5" d="M51.92,45.22a.15.15,0,0,1-.14-.07.17.17,0,0,1,0-.24,1,1,0,0,1,1-.07.17.17,0,0,1,.09.23.18.18,0,0,1-.23.09.66.66,0,0,0-.61,0A.19.19,0,0,1,51.92,45.22Z" transform="translate(-3.32 -23.09)"/><path class="cls-5" d="M49.14,46.79a.17.17,0,0,1-.17-.16.18.18,0,0,1,.16-.19l.78,0a.77.77,0,0,0,.7-.94L50,42.75a.17.17,0,0,1,.34-.08l.64,2.7a1.12,1.12,0,0,1-1,1.37l-.77,0Z" transform="translate(-3.32 -23.09)"/><path class="cls-20" d="M40.52,95.45H51.26V57.6h0a13.06,13.06,0,0,1-10.74,0h0Z" transform="translate(-3.32 -23.09)"/><path class="cls-5" d="M51.26,95.63H40.52a.18.18,0,0,1-.18-.18V57.6a.19.19,0,0,1,.09-.15.15.15,0,0,1,.16,0,12.89,12.89,0,0,0,10.6,0,.17.17,0,0,1,.17,0,.18.18,0,0,1,.08.15V95.45A.18.18,0,0,1,51.26,95.63Zm-10.57-.35h10.4V57.86a13.23,13.23,0,0,1-10.4,0Z" transform="translate(-3.32 -23.09)"/><path class="cls-20" d="M40.52,56.83a11.53,11.53,0,0,0,10.74,0v1.68a11.47,11.47,0,0,1-10.74,0h0V56.83Z" transform="translate(-3.32 -23.09)"/><path class="cls-5" d="M45.89,60a11.69,11.69,0,0,1-5.45-1.35.18.18,0,0,1-.1-.16V56.83a.17.17,0,0,1,.09-.15.15.15,0,0,1,.17,0,11.32,11.32,0,0,0,10.58,0,.15.15,0,0,1,.17,0,.16.16,0,0,1,.09.15v1.68a.18.18,0,0,1-.1.16A11.66,11.66,0,0,1,45.89,60Zm-5.2-1.61a11.36,11.36,0,0,0,10.4,0v-1.3a11.67,11.67,0,0,1-10.4,0Z" transform="translate(-3.32 -23.09)"/><rect class="cls-22" x="54.27" y="39" width="10.82" height="1.83" rx="0.91"/><path class="cls-5" d="M68,64.08H58a.6.6,0,0,1-.6-.6v-1a.6.6,0,0,1,.6-.6H68a.6.6,0,0,1,.6.6v1A.6.6,0,0,1,68,64.08ZM58,62.26a.25.25,0,0,0-.25.25v1a.25.25,0,0,0,.25.25H68a.25.25,0,0,0,.25-.25v-1a.25.25,0,0,0-.25-.25Z" transform="translate(-3.32 -23.09)"/><path class="cls-20" d="M66.81,81.21h-7.5a1,1,0,0,1-1-.95L57.28,64.81a1,1,0,0,1,1-1.1h9.63a1,1,0,0,1,1,1.1L67.78,80.26A1,1,0,0,1,66.81,81.21Z" transform="translate(-3.32 -23.09)"/><path class="cls-5" d="M66.81,81.38h-7.5a1.17,1.17,0,0,1-1.14-1.11L57.1,64.82a1.23,1.23,0,0,1,.33-.92,1.06,1.06,0,0,1,.82-.36h9.63a1.09,1.09,0,0,1,.82.36,1.23,1.23,0,0,1,.32.92L68,80.27A1.18,1.18,0,0,1,66.81,81.38Zm-8.56-17.5a.77.77,0,0,0-.57.25.9.9,0,0,0-.23.67l1.07,15.45a.82.82,0,0,0,.79.78h7.5a.82.82,0,0,0,.8-.78L68.67,64.8a.9.9,0,0,0-.23-.67.77.77,0,0,0-.56-.25Z" transform="translate(-3.32 -23.09)"/><polygon class="cls-22" points="54.27 46.2 54.68 52.22 64.81 52.22 65.22 46.2 54.27 46.2"/><path class="cls-5" d="M68.12,75.48H58a.17.17,0,0,1-.17-.17l-.42-6a.18.18,0,0,1,.05-.13.19.19,0,0,1,.13,0h11a.21.21,0,0,1,.13,0,.17.17,0,0,1,0,.13l-.41,6A.18.18,0,0,1,68.12,75.48Zm-10-.35H68l.39-5.67H57.77Z" transform="translate(-3.32 -23.09)"/><rect class="cls-5" x="53.27" y="40.1" width="12.9" height="2.46" rx="0.93"/><path class="cls-5" d="M69.16,65.82H56.91a.5.5,0,0,1-.5-.49V63.51a.51.51,0,0,1,.5-.5H69.16a.5.5,0,0,1,.5.5v1.82A.49.49,0,0,1,69.16,65.82ZM56.91,63.36a.18.18,0,0,0-.15.15v1.82a.15.15,0,0,0,.15.15H69.16a.15.15,0,0,0,.15-.15V63.51a.15.15,0,0,0-.15-.15Z" transform="translate(-3.32 -23.09)"/><path class="cls-23" d="M64.87,72.13a1.88,1.88,0,1,1-1.88-2A1.93,1.93,0,0,1,64.87,72.13Z" transform="translate(-3.32 -23.09)"/><path class="cls-5" d="M63,74.28a2.15,2.15,0,1,1,2.06-2.15A2.1,2.1,0,0,1,63,74.28Zm0-4a1.8,1.8,0,1,0,1.71,1.8A1.75,1.75,0,0,0,63,70.33Z" transform="translate(-3.32 -23.09)"/><path class="cls-24" d="M73.9,81.74l-6.25-.2A2.65,2.65,0,0,1,65.11,79l0-.42-1.18.13a1.65,1.65,0,0,1-1.79-1.52l-.07-1-.63.09a1.37,1.37,0,0,1-1.48-.91l0-.17a1.3,1.3,0,0,1,.54-1.55l2-1.19-.09-.21a2,2,0,0,1,.85-2.58L66.51,68c2.75-1,6.66-.18,8.14,2.45l2.71,4,0,.05a4.67,4.67,0,0,1-3.08,7.11Z" transform="translate(-3.32 -23.09)"/><path class="cls-5" d="M73.9,81.91h0l-6.25-.19a2.84,2.84,0,0,1-2.71-2.67v-.24l-1,.11a1.81,1.81,0,0,1-2-1.67l-.06-.78-.45.06a1.52,1.52,0,0,1-1.66-1l-.06-.16a1.48,1.48,0,0,1,.62-1.76l1.85-1.11,0-.07a2.16,2.16,0,0,1,.93-2.8l3.33-1.75c2.81-1,6.84-.23,8.38,2.52l2.75,4.08A4.69,4.69,0,0,1,78,78.9a4.89,4.89,0,0,1-3.59,2.92l-.43.09Zm-8.81-3.46a.15.15,0,0,1,.11,0,.14.14,0,0,1,.06.12l0,.42a2.48,2.48,0,0,0,2.37,2.34l6.24.19.4-.08a4.53,4.53,0,0,0,3.33-2.71,4.33,4.33,0,0,0-.36-4.13l0,0-2.71-4c-1.47-2.61-5.29-3.33-8-2.38l-3.31,1.74a1.8,1.8,0,0,0-.77,2.35l.09.2a.18.18,0,0,1-.07.23l-2,1.19a1.12,1.12,0,0,0-.47,1.35l.06.16a1.19,1.19,0,0,0,1.28.8L62,76.1a.17.17,0,0,1,.14,0,.2.2,0,0,1,.06.13l.07,1a1.52,1.52,0,0,0,.54,1,1.38,1.38,0,0,0,1.06.33l1.18-.12Z" transform="translate(-3.32 -23.09)"/><path class="cls-24" d="M70.3,71.34l-1-.32a4.79,4.79,0,0,0-3.15.08L62.5,72.48" transform="translate(-3.32 -23.09)"/><path class="cls-5" d="M62.5,72.66a.18.18,0,0,1-.17-.11.18.18,0,0,1,.1-.23l3.64-1.38a5,5,0,0,1,3.27-.09l1,.33a.17.17,0,0,1,.11.22.17.17,0,0,1-.22.11l-1-.33a4.72,4.72,0,0,0-3,.08l-3.63,1.39Z" transform="translate(-3.32 -23.09)"/><path class="cls-24" d="M62,76.18l3.59-1A8.37,8.37,0,0,1,69.22,75l1.55.26" transform="translate(-3.32 -23.09)"/><path class="cls-5" d="M62,76.35a.17.17,0,0,1-.17-.12A.19.19,0,0,1,62,76l3.6-1a8.69,8.69,0,0,1,3.66-.19l1.55.26a.17.17,0,0,1,.14.2.18.18,0,0,1-.2.14l-1.55-.26a8.16,8.16,0,0,0-3.51.19l-3.59,1Z" transform="translate(-3.32 -23.09)"/><path class="cls-24" d="M65.12,78.52,67.81,78a5.87,5.87,0,0,1,2.94.19l.46.15" transform="translate(-3.32 -23.09)"/><path class="cls-5" d="M65.12,78.7a.17.17,0,0,1-.17-.15.17.17,0,0,1,.14-.2l2.69-.52a6.12,6.12,0,0,1,3,.19l.45.15a.18.18,0,0,1,.12.22.18.18,0,0,1-.22.11l-.46-.15a5.67,5.67,0,0,0-2.86-.17l-2.69.51Z" transform="translate(-3.32 -23.09)"/><path class="cls-24" d="M26.47,70l-2.29-1.37-2.46-7.18a2.46,2.46,0,0,0-2.92-1.58l-.38.1-.21-1.08a1.52,1.52,0,0,0-1.83-1.18l-.88.2-.09-.59a1.27,1.27,0,0,0-1.22-1.06H14a1.21,1.21,0,0,0-1.23.9l-.52,2.09-.21,0A1.84,1.84,0,0,0,10,60.67l-.64,3.44c-.13,2.72,1.66,6,4.4,6.58L15,74.11c2,.61,7.29-1.76,9.06-2.81Z" transform="translate(-3.32 -23.09)"/><path class="cls-5" d="M15.8,74.38a3,3,0,0,1-.84-.1.19.19,0,0,1-.12-.11l-1.2-3.33c-2.82-.68-4.57-4-4.45-6.73l.65-3.47A2,2,0,0,1,12.09,59h.05l.49-1.94a1.38,1.38,0,0,1,1.41-1h.16a1.43,1.43,0,0,1,1.38,1.21l.06.39.7-.15a1.7,1.7,0,0,1,1.31.24,1.61,1.61,0,0,1,.73,1.07l.18.9.2,0a2.64,2.64,0,0,1,3.13,1.69l2.43,7.12,2.24,1.34a.18.18,0,0,1,.08.15.16.16,0,0,1-.09.15l-2.4,1.32C22.53,72.42,18.23,74.38,15.8,74.38ZM15.14,74c2,.5,7.18-1.82,8.84-2.81L26.12,70l-2-1.21a.14.14,0,0,1-.08-.09l-2.45-7.19A2.29,2.29,0,0,0,18.84,60l-.38.1a.16.16,0,0,1-.13,0,.15.15,0,0,1-.08-.11L18,58.9a1.3,1.3,0,0,0-.58-.85,1.39,1.39,0,0,0-1.05-.19l-.87.2a.17.17,0,0,1-.14,0,.2.2,0,0,1-.08-.12l-.09-.58a1.08,1.08,0,0,0-1-.91H14a1,1,0,0,0-1.06.77l-.52,2.09a.19.19,0,0,1-.19.14l-.21,0a1.67,1.67,0,0,0-1.87,1.32l-.64,3.45c-.12,2.59,1.57,5.78,4.27,6.37a.16.16,0,0,1,.13.11Z" transform="translate(-3.32 -23.09)"/><path class="cls-32" d="M22.25,94c3.25,1.89,7.56,1.63,9.85-1.6a8.5,8.5,0,0,0,1.56-4.82c0-3.8-6.48-16.83-6.48-16.83-3.43,2.74-12.38,2.63-12.38,2.63s3.49,15.07,3.9,16.17A8.37,8.37,0,0,0,22.25,94Z" transform="translate(-3.32 -23.09)"/><path class="cls-5" d="M26.59,95.35a8.91,8.91,0,0,1-4.43-1.22h0a8.66,8.66,0,0,1-3.63-4.54c-.22-.6-1.32-5.31-2.29-9.47-.73-3.13-1.48-6.36-1.59-6.66a.2.2,0,0,1,0-.13.18.18,0,0,1,.17-.14h0c.48,0,9,0,12.25-2.6a.17.17,0,0,1,.14,0,.16.16,0,0,1,.12.09c.27.53,6.55,13.11,6.51,16.91a8.75,8.75,0,0,1-1.6,4.92A6.72,6.72,0,0,1,26.59,95.35ZM15,73.53c.18.59.56,2.18,1.56,6.51,1,4.15,2.06,8.85,2.28,9.43a8.23,8.23,0,0,0,3.48,4.36h0c3,1.74,7.27,1.77,9.62-1.55a8.4,8.4,0,0,0,1.53-4.72c0-3.47-5.58-15-6.38-16.56C23.88,73.38,16.58,73.53,15,73.53Z" transform="translate(-3.32 -23.09)"/><g class="cls-33"><path class="cls-34" d="M22.25,94c3.25,1.89,7.56,1.63,9.85-1.6a8.5,8.5,0,0,0,1.56-4.82c0-3.8-6.48-16.83-6.48-16.83-3.43,2.74-12.38,2.63-12.38,2.63s3.49,15.07,3.9,16.17A8.37,8.37,0,0,0,22.25,94Z" transform="translate(-3.32 -23.09)"/><path class="cls-5" d="M26.59,95.3a8.86,8.86,0,0,1-4.41-1.21,8.61,8.61,0,0,1-3.61-4.51c-.22-.61-1.32-5.32-2.28-9.47-.74-3.15-1.49-6.4-1.6-6.67a.12.12,0,0,1,0-.1.14.14,0,0,1,.13-.11h0c.41,0,9,0,12.27-2.6a.11.11,0,0,1,.11,0,.13.13,0,0,1,.09.07c.27.53,6.54,13.1,6.5,16.89a8.69,8.69,0,0,1-1.58,4.9A6.69,6.69,0,0,1,26.59,95.3ZM15,73.49c.16.51.52,2,1.57,6.56,1,4.15,2.06,8.85,2.28,9.44a8.33,8.33,0,0,0,3.49,4.38h0c3,1.75,7.32,1.78,9.68-1.56a8.38,8.38,0,0,0,1.54-4.75c0-3.51-5.69-15.2-6.4-16.63C23.88,73.37,16.37,73.5,15,73.49Z" transform="translate(-3.32 -23.09)"/></g><path class="cls-5" d="M14.39,72.61c5.52.21,8-.13,12.31-3.61h0l1.62,3.54-.14.15c-4.73,3.25-7.31,4-12.84,3.74Z" transform="translate(-3.32 -23.09)"/><path class="cls-5" d="M17,76.65c-.54,0-1.1,0-1.7,0a.2.2,0,0,1-.16-.13l-.95-3.83a.17.17,0,0,1,0-.15.15.15,0,0,1,.14-.07c5.28.21,7.86-.05,12.19-3.57a.2.2,0,0,1,.15,0,.19.19,0,0,1,.12.1l1.62,3.54a.17.17,0,0,1,0,.19l-.14.15,0,0C24.08,75.72,21.51,76.65,17,76.65Zm-1.55-.39c5.46.22,8-.52,12.59-3.7l.05,0-1.49-3.23c-4.25,3.4-6.87,3.7-12,3.51Z" transform="translate(-3.32 -23.09)"/><path class="cls-24" d="M13.37,66.57l-.56-.81A4.39,4.39,0,0,1,12,62.93l.23-3.61" transform="translate(-3.32 -23.09)"/><path class="cls-5" d="M13.37,66.75a.17.17,0,0,1-.14-.08l-.57-.81a4.66,4.66,0,0,1-.81-2.94l.23-3.61a.17.17,0,0,1,.18-.16.18.18,0,0,1,.17.18L12.19,63A4.29,4.29,0,0,0,13,65.66l.57.81a.19.19,0,0,1,0,.25A.17.17,0,0,1,13.37,66.75Z" transform="translate(-3.32 -23.09)"/><path class="cls-24" d="M15.42,57.91l.09,3.47a7.71,7.71,0,0,0,.81,3.23L17,65.92" transform="translate(-3.32 -23.09)"/><path class="cls-5" d="M17,66.1a.18.18,0,0,1-.16-.1l-.65-1.31a7.94,7.94,0,0,1-.83-3.31l-.1-3.47a.18.18,0,1,1,.35,0l.1,3.47a7.61,7.61,0,0,0,.79,3.17l.65,1.3a.18.18,0,0,1-.07.24Z" transform="translate(-3.32 -23.09)"/><path class="cls-24" d="M18.34,60l.28,2.54a5.46,5.46,0,0,0,1,2.57l.25.36" transform="translate(-3.32 -23.09)"/><path class="cls-5" d="M19.84,65.65a.17.17,0,0,1-.14-.08l-.26-.36a5.76,5.76,0,0,1-1-2.65L18.17,60a.18.18,0,0,1,.15-.19.18.18,0,0,1,.2.15l.27,2.54A5.38,5.38,0,0,0,19.73,65l.26.36a.18.18,0,0,1,0,.24A.13.13,0,0,1,19.84,65.65Z" transform="translate(-3.32 -23.09)"/><path class="cls-24" d="M85.19,137.43l-.88,5.45,11.59,5.39a5.29,5.29,0,0,1,3.35,4.89h0l-21.2-1-3,0L73.2,152a3.07,3.07,0,0,1-2.77-3.72l.43-2c.12-.59.31-9.5.31-9.5Z" transform="translate(-3.32 -23.09)"/><path class="cls-5" d="M99.25,153.34h0l-21.2-1-3,0-1.87-.13a3.24,3.24,0,0,1-2.36-1.29,3.29,3.29,0,0,1-.58-2.63l.43-2c.11-.47.27-7,.32-9.48a.18.18,0,0,1,0-.12.21.21,0,0,1,.13,0l14,.68a.22.22,0,0,1,.13.06.17.17,0,0,1,0,.14l-.86,5.32L96,148.11a5.44,5.44,0,0,1,3.45,5.06A.18.18,0,0,1,99.25,153.34Zm-27.91-16.4c0,1.3-.19,8.8-.31,9.36l-.43,2a2.89,2.89,0,0,0,2.62,3.5l1.86.14,3,0,21,1a5.14,5.14,0,0,0-3.26-4.55L84.23,143a.17.17,0,0,1-.1-.18L85,137.6Z" transform="translate(-3.32 -23.09)"/><path class="cls-25" d="M86.49,144l9.41,4.32a6.35,6.35,0,0,1,2.39,1.9L95.81,153l-16.66-.8Z" transform="translate(-3.32 -23.09)"/><path class="cls-5" d="M95.81,153.17h0l-16.66-.81a.16.16,0,0,1-.15-.1.18.18,0,0,1,0-.19l7.34-8.23a.16.16,0,0,1,.2,0L96,148.11a6.48,6.48,0,0,1,2.46,2,.18.18,0,0,1,0,.22l-2.48,2.82A.18.18,0,0,1,95.81,153.17ZM79.52,152l16.21.79,2.33-2.66a6.1,6.1,0,0,0-2.24-1.73l-9.29-4.26Z" transform="translate(-3.32 -23.09)"/><path class="cls-9" d="M70.26,156.27l18.86.91.27-1.43,1.55,1.52,3.65.18,0-1.71,1.53,1.78,2.41.12a.48.48,0,0,0,.5-.46l.2-4L71,151.79A1.28,1.28,0,0,0,69.63,153l-.1,2.46A.76.76,0,0,0,70.26,156.27Z" transform="translate(-3.32 -23.09)"/><path class="cls-5" d="M98.57,157.77h0l-2.4-.11a.19.19,0,0,1-.1,0l-1.3-1.52v1.36a.11.11,0,0,1,0,.09.1.1,0,0,1-.09,0l-3.66-.18-.09,0L89.47,156l-.22,1.19a.13.13,0,0,1-.13.11l-18.87-.92a.89.89,0,0,1-.85-.93l.1-2.46a1.35,1.35,0,0,1,.45-1,1.42,1.42,0,0,1,1-.37L99.25,153a.13.13,0,0,1,.09,0,.13.13,0,0,1,0,.1l-.2,4A.6.6,0,0,1,98.57,157.77Zm-2.36-.37,2.34.11a.34.34,0,0,0,.37-.33l.19-3.89L71,151.92a1.15,1.15,0,0,0-.83.3,1.12,1.12,0,0,0-.37.8l-.1,2.46a.64.64,0,0,0,.6.66h0l18.76.91.24-1.32a.12.12,0,0,1,.09-.1.14.14,0,0,1,.13,0L91,157.14l3.47.17,0-1.57a.14.14,0,0,1,.09-.12.12.12,0,0,1,.14,0Z" transform="translate(-3.32 -23.09)"/><path class="cls-13" d="M41.1,97.46a21.21,21.21,0,0,0,3.13,15h0a9.89,9.89,0,0,0,9,4.83l15.3-.71.73,23H87.28L87.22,115a16.25,16.25,0,0,0-14.9-16.14l-12.7-1.34L58,95.45l-16-.14Z" transform="translate(-3.32 -23.09)"/><path class="cls-5" d="M87.28,139.83H69.22a.18.18,0,0,1-.17-.17l-.73-22.86-15.12.7a10,10,0,0,1-9.12-4.91,21.37,21.37,0,0,1-3.15-15.16s0,0,0,0l.87-2.15a.19.19,0,0,1,.17-.11l16,.15a.17.17,0,0,1,.14.06l1.6,2,12.62,1.33a16.4,16.4,0,0,1,15,16.31l.07,24.64a.18.18,0,0,1,0,.12A.21.21,0,0,1,87.28,139.83Zm-17.89-.35H87.11L87,115a16,16,0,0,0-14.73-16l-12.7-1.35a.14.14,0,0,1-.12-.06l-1.59-2-15.81-.14-.82,2a21.05,21.05,0,0,0,3.1,14.91,9.72,9.72,0,0,0,8.81,4.74l15.3-.7a.16.16,0,0,1,.13,0,.21.21,0,0,1,0,.13Z" transform="translate(-3.32 -23.09)"/><path class="cls-24" d="M73.28,139l-.62,5.49,11.84,4.82A5.28,5.28,0,0,1,88.08,154H66.85l-3,.11-1.86,0a3.07,3.07,0,0,1-2.95-3.57l.33-2c.1-.6-.14-9.52-.14-9.52Z" transform="translate(-3.32 -23.09)"/><path class="cls-5" d="M63.88,154.33,62,154.28a3.26,3.26,0,0,1-2.43-1.17,3.3,3.3,0,0,1-.7-2.6l.34-2c.07-.48-.08-7-.15-9.48a.21.21,0,0,1,0-.13.19.19,0,0,1,.13,0h14a.16.16,0,0,1,.13.06.16.16,0,0,1,0,.13l-.6,5.36,11.71,4.77a5.44,5.44,0,0,1,3.7,4.88.18.18,0,0,1-.18.18H66.85Zm-4.45-15.14c0,1.3.22,8.8.13,9.36l-.33,2A2.89,2.89,0,0,0,62,153.93l1.86,0,3-.11H87.9a5.12,5.12,0,0,0-3.47-4.39L72.6,144.66a.16.16,0,0,1-.11-.18l.59-5.29Z" transform="translate(-3.32 -23.09)"/><path class="cls-25" d="M74.89,145.46l9.61,3.86A6.31,6.31,0,0,1,87,151.1L84.64,154H68Z" transform="translate(-3.32 -23.09)"/><path class="cls-5" d="M84.64,154.22H68a.18.18,0,0,1-.16-.1.19.19,0,0,1,0-.19l6.94-8.58a.17.17,0,0,1,.2,0l9.6,3.86A6.41,6.41,0,0,1,87.11,151a.17.17,0,0,1,0,.22l-2.35,2.94A.17.17,0,0,1,84.64,154.22Zm-16.31-.35H84.55l2.2-2.76a6.12,6.12,0,0,0-2.32-1.63L75,145.67Z" transform="translate(-3.32 -23.09)"/><path class="cls-9" d="M59.27,158.55H78.16l.2-1.44L80,158.55h3.66l-.06-1.7,1.61,1.7H87.6a.47.47,0,0,0,.48-.48v-4H59.77a1.28,1.28,0,0,0-1.28,1.29l0,2.46A.76.76,0,0,0,59.27,158.55Z" transform="translate(-3.32 -23.09)"/><path class="cls-5" d="M87.6,158.68H85.19a.11.11,0,0,1-.09,0l-1.38-1.45,0,1.36a.14.14,0,0,1,0,.09.13.13,0,0,1-.1,0H80l-.09,0-1.43-1.28-.17,1.2a.13.13,0,0,1-.13.11H59.27a.89.89,0,0,1-.89-.88l0-2.47a1.35,1.35,0,0,1,.41-1,1.38,1.38,0,0,1,1-.42H88.08a.13.13,0,0,1,.13.13v4A.61.61,0,0,1,87.6,158.68Zm-2.35-.26H87.6a.35.35,0,0,0,.35-.35v-3.9H59.77a1.14,1.14,0,0,0-1.15,1.16l0,2.46a.63.63,0,0,0,.63.63H78.05l.18-1.33a.12.12,0,0,1,.09-.1.13.13,0,0,1,.13,0L80,158.42h3.48l-.07-1.57a.13.13,0,0,1,.08-.12.12.12,0,0,1,.15,0Z" transform="translate(-3.32 -23.09)"/><path class="cls-13" d="M75.34,139.66,75.28,115a16.25,16.25,0,0,0-14.9-16.14L50.07,98l-2.3-2.67-21.39-.23L26,97.46a21.25,21.25,0,0,0,3.12,15,9.91,9.91,0,0,0,9,4.83l15.3-.56.73,22.88H75.34Z" transform="translate(-3.32 -23.09)"/><path class="cls-5" d="M75.34,139.83H54.11a.18.18,0,0,1-.17-.17L53.21,117l-15.12.55A10.08,10.08,0,0,1,29,112.59a21.31,21.31,0,0,1-3.14-15.16l.38-2.33a.17.17,0,0,1,.18-.15l21.39.24a.16.16,0,0,1,.13.06l2.26,2.62,10.23.84A16.32,16.32,0,0,1,75.45,115l.07,24.64a.16.16,0,0,1-.06.12A.17.17,0,0,1,75.34,139.83Zm-21.06-.35H75.17L75.1,115a16,16,0,0,0-14.74-16l-10.3-.85a.23.23,0,0,1-.12-.06l-2.25-2.62L26.52,95.3l-.36,2.18a21,21,0,0,0,3.1,14.93,9.71,9.71,0,0,0,8.81,4.74l15.3-.56a.21.21,0,0,1,.13,0,.18.18,0,0,1,0,.12Z" transform="translate(-3.32 -23.09)"/><path class="cls-36" d="M87.28,139.66,87.22,115a16.25,16.25,0,0,0-14.9-16.14l-12.7-1.34L58,95.45l-10.21-.09-21.39-.23L26,97.46a21.25,21.25,0,0,0,3.12,15,9.91,9.91,0,0,0,9,4.83l11.74-.43a10,10,0,0,0,3.37.43h.21l.71,22.33H87.28Z" transform="translate(-3.32 -23.09)"/><path class="cls-22" d="M65.77,137.58l-.1,2.55a.6.6,0,0,0,.62.61l21.4-.37a.64.64,0,0,0,.63-.61l.05-2.59a.61.61,0,0,0-.62-.6L66.4,137A.63.63,0,0,0,65.77,137.58Z" transform="translate(-3.32 -23.09)"/><path class="cls-5" d="M66.28,140.91a.81.81,0,0,1-.57-.23.77.77,0,0,1-.21-.56l.09-2.54a.82.82,0,0,1,.8-.77l21.35-.41a.82.82,0,0,1,.58.23.72.72,0,0,1,.22.55l-.05,2.58a.81.81,0,0,1-.8.78l-21.4.37Zm21.48-4.16h0l-21.35.41a.48.48,0,0,0-.46.43h0l-.09,2.54a.36.36,0,0,0,.11.3.44.44,0,0,0,.33.13l21.39-.37a.45.45,0,0,0,.46-.43l0-2.59a.38.38,0,0,0-.11-.29A.44.44,0,0,0,87.76,136.75Zm-22,.83Z" transform="translate(-3.32 -23.09)"/><path class="cls-22" d="M53.56,137.88l-.1,2.55a.6.6,0,0,0,.62.61l21.4-.37a.64.64,0,0,0,.63-.61l0-2.59a.6.6,0,0,0-.62-.6l-21.35.41A.64.64,0,0,0,53.56,137.88Z" transform="translate(-3.32 -23.09)"/><path class="cls-5" d="M54.07,141.21a.78.78,0,0,1-.57-.24.73.73,0,0,1-.21-.55l.09-2.55h0a.81.81,0,0,1,.8-.76l21.36-.41a.79.79,0,0,1,.57.23.7.7,0,0,1,.22.54l0,2.59a.81.81,0,0,1-.8.78l-21.4.37Zm-.34-3.32-.09,2.54a.38.38,0,0,0,.11.3.44.44,0,0,0,.33.13l21.4-.37a.45.45,0,0,0,.45-.43l0-2.59a.38.38,0,0,0-.11-.29.41.41,0,0,0-.33-.13l-21.35.41a.47.47,0,0,0-.46.43Z" transform="translate(-3.32 -23.09)"/><path class="cls-29" d="M31.62,96.24" transform="translate(-3.32 -23.09)"/><path class="cls-37" d="M137.65,87.23H70.42a5.71,5.71,0,0,1-5.71-5.71h78.65A5.71,5.71,0,0,1,137.65,87.23Z" transform="translate(-3.32 -23.09)"/><path class="cls-5" d="M137.65,87.4H70.42a5.89,5.89,0,0,1-5.88-5.88.17.17,0,0,1,.17-.18h78.65a.18.18,0,0,1,.17.18A5.89,5.89,0,0,1,137.65,87.4ZM64.89,81.69a5.53,5.53,0,0,0,5.53,5.36h67.23a5.53,5.53,0,0,0,5.53-5.36Z" transform="translate(-3.32 -23.09)"/><path class="cls-38" d="M137.65,87.23H70.42a5.71,5.71,0,0,1-5.71-5.71h78.65A5.71,5.71,0,0,1,137.65,87.23Z" transform="translate(-3.32 -23.09)"/><path class="cls-13" d="M143.36,81.52H64.71a5.59,5.59,0,0,0,.19,1.42h78.27a5.59,5.59,0,0,0,.19-1.42Z" transform="translate(-3.32 -23.09)"/><path class="cls-5" d="M143.17,83.11H64.9a.17.17,0,0,1-.17-.13,5.68,5.68,0,0,1-.19-1.46.17.17,0,0,1,.17-.18h78.65a.18.18,0,0,1,.17.18,5.68,5.68,0,0,1-.19,1.46A.17.17,0,0,1,143.17,83.11ZM65,82.76h78a5,5,0,0,0,.15-1.07H64.89A5.71,5.71,0,0,0,65,82.76Z" transform="translate(-3.32 -23.09)"/><line class="cls-39" x1="100.72" y1="64.18" x2="100.72" y2="135.77"/><path class="cls-5" d="M104,159a.18.18,0,0,1-.17-.18V87.27a.17.17,0,0,1,.17-.17.17.17,0,0,1,.18.17v71.58A.18.18,0,0,1,104,159Z" transform="translate(-3.32 -23.09)"/><path class="cls-39" d="M93.11,155.14H115a0,0,0,0,1,0,0v0a4,4,0,0,1-4,4H97.12a4,4,0,0,1-4-4v0a0,0,0,0,1,0,0Z" transform="translate(204.75 291.21) rotate(180)"/><path class="cls-5" d="M115,159.33H93.11a.18.18,0,0,1-.17-.18v-1.49a2.7,2.7,0,0,1,2.7-2.69h16.79a2.7,2.7,0,0,1,2.7,2.69v1.49A.18.18,0,0,1,115,159.33ZM93.29,159h21.49v-1.32a2.35,2.35,0,0,0-2.35-2.34H95.64a2.35,2.35,0,0,0-2.35,2.34Z" transform="translate(-3.32 -23.09)"/><path class="cls-38" d="M97.12,155.14h13.82a4,4,0,0,1,4,4H93.11A4,4,0,0,1,97.12,155.14Z" transform="translate(-3.32 -23.09)"/><path class="cls-40" d="M107.74,64.65c2.66,0,2.37-3.49,2.37-3.49H99.17s-.3,3.49,2.37,3.49L98.83,67.6a10.34,10.34,0,0,0-.37,13.57h12.35a10.34,10.34,0,0,0-.37-13.57Z" transform="translate(-3.32 -23.09)"/><path class="cls-5" d="M110.81,81.34H98.46a.2.2,0,0,1-.14-.06,10.57,10.57,0,0,1,.38-13.8l2.46-2.68a2.2,2.2,0,0,1-1.35-.68,4.45,4.45,0,0,1-.82-3,.18.18,0,0,1,.18-.16h10.94a.17.17,0,0,1,.17.16,4.39,4.39,0,0,1-.82,3,2.14,2.14,0,0,1-1.35.68l2.46,2.68a10.57,10.57,0,0,1,.38,13.8A.17.17,0,0,1,110.81,81.34ZM98.54,81h12.19a10.21,10.21,0,0,0-.42-13.28l-2.7-2.94a.17.17,0,0,1,.13-.29,1.9,1.9,0,0,0,1.46-.59,4,4,0,0,0,.74-2.56H99.33a4,4,0,0,0,.74,2.56,1.92,1.92,0,0,0,1.47.59.18.18,0,0,1,.16.1.21.21,0,0,1,0,.19L99,67.71A10.22,10.22,0,0,0,98.54,81Z" transform="translate(-3.32 -23.09)"/><g class="cls-41"><path class="cls-42" d="M107.74,64.65c2.66,0,2.37-3.49,2.37-3.49H99.17s-.3,3.49,2.37,3.49L98.83,67.6a10.34,10.34,0,0,0-.37,13.57h12.35a10.34,10.34,0,0,0-.37-13.57Z" transform="translate(-3.32 -23.09)"/><path class="cls-5" d="M110.81,81.34H98.46a.2.2,0,0,1-.14-.06,10.57,10.57,0,0,1,.38-13.8l2.46-2.68a2.2,2.2,0,0,1-1.35-.68,4.45,4.45,0,0,1-.82-3,.18.18,0,0,1,.18-.16h10.94a.17.17,0,0,1,.17.16,4.39,4.39,0,0,1-.82,3,2.14,2.14,0,0,1-1.35.68l2.46,2.68a10.57,10.57,0,0,1,.38,13.8A.17.17,0,0,1,110.81,81.34ZM98.54,81h12.19a10.21,10.21,0,0,0-.42-13.28l-2.7-2.94a.17.17,0,0,1,.13-.29,1.9,1.9,0,0,0,1.46-.59,4,4,0,0,0,.74-2.56H99.33a4,4,0,0,0,.74,2.56,1.92,1.92,0,0,0,1.47.59.18.18,0,0,1,.16.1.21.21,0,0,1,0,.19L99,67.71A10.22,10.22,0,0,0,98.54,81Z" transform="translate(-3.32 -23.09)"/></g><path class="cls-13" d="M98.46,81.17h12.35a10.25,10.25,0,0,0,2-4.07H96.41a10.25,10.25,0,0,0,2,4.07Z" transform="translate(-3.32 -23.09)"/><path class="cls-5" d="M110.81,81.34H98.46a.2.2,0,0,1-.14-.06,10.45,10.45,0,0,1-2.08-4.14.21.21,0,0,1,0-.15.2.2,0,0,1,.14-.06h16.45A.18.18,0,0,1,113,77a.21.21,0,0,1,0,.15A10.45,10.45,0,0,1,111,81.28.17.17,0,0,1,110.81,81.34ZM98.54,81h12.19a10.09,10.09,0,0,0,1.91-3.71h-16A10.07,10.07,0,0,0,98.54,81Z" transform="translate(-3.32 -23.09)"/><path class="cls-13" d="M110.11,61.16H99.17s-.3,3.49,2.37,3.49l-.09.09h6.37l-.08-.09C110.4,64.65,110.11,61.16,110.11,61.16Z" transform="translate(-3.32 -23.09)"/><path class="cls-5" d="M107.82,64.92h-6.37a.18.18,0,0,1-.16-.1,2.21,2.21,0,0,1-1.48-.7,4.45,4.45,0,0,1-.82-3,.18.18,0,0,1,.18-.16h10.94a.17.17,0,0,1,.17.16,4.39,4.39,0,0,1-.82,3,2.21,2.21,0,0,1-1.48.7A.18.18,0,0,1,107.82,64.92Zm-6.13-.35h5.89a.17.17,0,0,1,.16-.09,1.9,1.9,0,0,0,1.46-.59,4,4,0,0,0,.74-2.56H99.33a4,4,0,0,0,.74,2.56,1.92,1.92,0,0,0,1.47.59A.16.16,0,0,1,101.69,64.57Z" transform="translate(-3.32 -23.09)"/><path class="cls-5" d="M103.29,61.33a.18.18,0,0,1-.17-.17v-6.3a1.65,1.65,0,0,0-1.65-1.64A1.79,1.79,0,0,0,99.68,55v1.41a.18.18,0,0,1-.17.18.18.18,0,0,1-.18-.18V55a2.14,2.14,0,0,1,2.14-2.14,2,2,0,0,1,2,2v6.3A.18.18,0,0,1,103.29,61.33Z" transform="translate(-3.32 -23.09)"/><path class="cls-43" d="M100.59,57.45a1.05,1.05,0,1,1-1-1.06A1,1,0,0,1,100.59,57.45Z" transform="translate(-3.32 -23.09)"/><path class="cls-5" d="M99.54,58.67a1.23,1.23,0,1,1,1.23-1.22A1.23,1.23,0,0,1,99.54,58.67Zm0-2.1a.88.88,0,1,0,.88.88A.88.88,0,0,0,99.54,56.57Z" transform="translate(-3.32 -23.09)"/><path class="cls-5" d="M105.87,61.33a.18.18,0,0,1-.17-.17V54.78a2.7,2.7,0,0,1,2.69-2.69,2.9,2.9,0,0,1,2.9,2.89v2a.18.18,0,0,1-.18.17.17.17,0,0,1-.17-.17V55a2.55,2.55,0,0,0-2.55-2.54,2.34,2.34,0,0,0-2.34,2.34v6.38A.18.18,0,0,1,105.87,61.33Z" transform="translate(-3.32 -23.09)"/><path class="cls-43" d="M109.61,58.35a1.46,1.46,0,1,0,1.45-1.45A1.45,1.45,0,0,0,109.61,58.35Z" transform="translate(-3.32 -23.09)"/><path class="cls-5" d="M111.06,60a1.63,1.63,0,1,1,1.63-1.63A1.63,1.63,0,0,1,111.06,60Zm0-2.91a1.28,1.28,0,1,0,1.28,1.28A1.28,1.28,0,0,0,111.06,57.07Z" transform="translate(-3.32 -23.09)"/><circle class="cls-43" cx="101.46" cy="26.09" r="1.48"/><path class="cls-5" d="M104.77,50.83a1.66,1.66,0,1,1,1.66-1.65A1.65,1.65,0,0,1,104.77,50.83Zm0-3a1.31,1.31,0,1,0,1.31,1.31A1.31,1.31,0,0,0,104.77,47.87Z" transform="translate(-3.32 -23.09)"/><line class="cls-32" x1="101.46" y1="27.69" x2="101.46" y2="38.07"/><path class="cls-5" d="M104.77,61.33a.18.18,0,0,1-.17-.17V50.78a.17.17,0,0,1,.17-.17.17.17,0,0,1,.18.17V61.16A.18.18,0,0,1,104.77,61.33Z" transform="translate(-3.32 -23.09)"/><path class="cls-44" d="M202.12,43.41h-7.83a1.14,1.14,0,0,0-.81.34l-3.36,3.48a.17.17,0,0,1-.29-.12l.11-2.53a1.13,1.13,0,0,0-1.13-1.17h0a3,3,0,0,1-2.95-2.95V32.27a4,4,0,0,1,4-4h13A3.11,3.11,0,0,1,206,31.38v8.19A3.83,3.83,0,0,1,202.12,43.41Z" transform="translate(-3.32 -23.09)"/><path class="cls-5" d="M190,47.46a.35.35,0,0,1-.14,0,.36.36,0,0,1-.21-.33l.11-2.52a.92.92,0,0,0-.26-.7,1,1,0,0,0-.69-.3,3.12,3.12,0,0,1-3.12-3.12V32.27a4.18,4.18,0,0,1,4.18-4.18h13a3.29,3.29,0,0,1,3.29,3.29v8.19a4,4,0,0,1-4,4h-7.83a1,1,0,0,0-.68.29l-3.37,3.48A.32.32,0,0,1,190,47.46Zm-.13-19A3.84,3.84,0,0,0,186,32.27v8.19a2.77,2.77,0,0,0,2.77,2.77,1.29,1.29,0,0,1,.94.41,1.24,1.24,0,0,1,.36,1L190,47.11l3.36-3.48a1.3,1.3,0,0,1,.93-.4h7.83a3.66,3.66,0,0,0,3.66-3.66V31.38a2.94,2.94,0,0,0-2.94-2.94Z" transform="translate(-3.32 -23.09)"/><path class="cls-44" d="M16.46,44.27h6.38a1,1,0,0,1,.66.28l2.75,2.84a.14.14,0,0,0,.24-.1l-.09-2.06a.92.92,0,0,1,.92-1h0a2.39,2.39,0,0,0,2.4-2.4V35.18a3.26,3.26,0,0,0-3.27-3.26H15.86a2.53,2.53,0,0,0-2.53,2.53v6.69A3.13,3.13,0,0,0,16.46,44.27Z" transform="translate(-3.32 -23.09)"/><path class="cls-5" d="M26.35,47.61a.28.28,0,0,1-.22-.1l-2.75-2.83a.74.74,0,0,0-.54-.23H16.46a3.31,3.31,0,0,1-3.31-3.31V34.45a2.72,2.72,0,0,1,2.71-2.71H26.45a3.45,3.45,0,0,1,3.45,3.44v6.69a2.59,2.59,0,0,1-2.58,2.58.73.73,0,0,0-.54.23.75.75,0,0,0-.21.55l.09,2.05a.3.3,0,0,1-.19.3A.27.27,0,0,1,26.35,47.61Zm0-.34ZM15.86,32.09a2.36,2.36,0,0,0-2.36,2.36v6.69a3,3,0,0,0,3,3h6.38a1.11,1.11,0,0,1,.79.33l2.68,2.77-.09-2a1.08,1.08,0,0,1,.31-.8,1.07,1.07,0,0,1,.79-.34,2.23,2.23,0,0,0,2.23-2.23V35.18a3.1,3.1,0,0,0-3.1-3.09Z" transform="translate(-3.32 -23.09)"/><path class="cls-44" d="M144,37.56h5.89a.83.83,0,0,1,.61.26l2.53,2.62a.13.13,0,0,0,.22-.1l-.08-1.9a.84.84,0,0,1,.85-.88h0a2.22,2.22,0,0,0,2.22-2.22V29.18a3,3,0,0,0-3-3h-9.76a2.34,2.34,0,0,0-2.34,2.34v6.17A2.88,2.88,0,0,0,144,37.56Z" transform="translate(-3.32 -23.09)"/><path class="cls-5" d="M153.15,40.65a.29.29,0,0,1-.21-.09l-2.53-2.62a.71.71,0,0,0-.49-.21H144A3.06,3.06,0,0,1,141,34.67V28.5A2.52,2.52,0,0,1,143.49,26h9.76a3.19,3.19,0,0,1,3.19,3.19v6.16a2.39,2.39,0,0,1-2.39,2.39.69.69,0,0,0-.49.21.71.71,0,0,0-.19.5l.09,1.9a.31.31,0,0,1-.19.29Zm0-.34Zm-9.7-14a2.17,2.17,0,0,0-2.17,2.16v6.17A2.72,2.72,0,0,0,144,37.39h5.89a1,1,0,0,1,.74.31l2.44,2.52L153,38.45a1,1,0,0,1,.29-.75,1,1,0,0,1,.74-.31,2.05,2.05,0,0,0,2-2V29.18a2.84,2.84,0,0,0-2.84-2.84Z" transform="translate(-3.32 -23.09)"/><path class="cls-44" d="M10.41,35.77h3.67a.47.47,0,0,1,.38.2s2,1.61,2,1.52l-.05-1.19c0-.37-.06-.53.24-.53h0A1.57,1.57,0,0,0,18,34.07V29.36a2.13,2.13,0,0,0-1.88-2.31H10.07a1.65,1.65,0,0,0-1.45,1.79v4.72A2,2,0,0,0,10.41,35.77Z" transform="translate(-3.32 -23.09)"/><path class="cls-5" d="M16.47,37.67c-.13,0-.44-.22-2.12-1.56,0,0,0,0,0,0a.31.31,0,0,0-.25-.13H10.41a2.22,2.22,0,0,1-2-2.39V28.84a1.82,1.82,0,0,1,1.63-2h6.09a2.3,2.3,0,0,1,2.05,2.48v4.71A1.74,1.74,0,0,1,16.65,36h-.08s0,.12,0,.21l.06,1.31a.19.19,0,0,1-.1.17Zm-1.88-1.83c.63.51,1.32,1,1.69,1.32l-.05-1a.62.62,0,0,1,.1-.48.42.42,0,0,1,.32-.11,1.4,1.4,0,0,0,1.21-1.53V29.36a2,2,0,0,0-1.7-2.13H10.07a1.48,1.48,0,0,0-1.28,1.61v4.72a1.87,1.87,0,0,0,1.62,2h3.67A.69.69,0,0,1,14.59,35.84Z" transform="translate(-3.32 -23.09)"/><line class="cls-44" x1="14.91" y1="13.71" x2="21.5" y2="13.71"/><path class="cls-5" d="M24.82,37H18.23a.17.17,0,0,1-.17-.18.17.17,0,0,1,.17-.17h6.59a.17.17,0,0,1,.17.17A.17.17,0,0,1,24.82,37Z" transform="translate(-3.32 -23.09)"/><line class="cls-44" x1="14.91" y1="16.59" x2="21.5" y2="16.59"/><path class="cls-5" d="M24.82,39.85H18.23a.17.17,0,0,1-.17-.17.17.17,0,0,1,.17-.18h6.59a.17.17,0,0,1,.17.18A.17.17,0,0,1,24.82,39.85Z" transform="translate(-3.32 -23.09)"/><line class="cls-44" x1="7.74" y1="6.98" x2="12.28" y2="6.98"/><path class="cls-5" d="M15.6,30.24H11.05a.18.18,0,0,1-.17-.17.18.18,0,0,1,.17-.18H15.6a.17.17,0,0,1,.17.18A.17.17,0,0,1,15.6,30.24Z" transform="translate(-3.32 -23.09)"/><line class="cls-44" x1="7.74" y1="9.18" x2="12.28" y2="9.18"/><path class="cls-5" d="M15.6,32.45H11.05a.18.18,0,0,1-.17-.18.17.17,0,0,1,.17-.17H15.6a.16.16,0,0,1,.17.17A.17.17,0,0,1,15.6,32.45Z" transform="translate(-3.32 -23.09)"/><path class="cls-44" d="M85.1,43.94H74.42a1.54,1.54,0,0,0-1.11.47l-4.6,4.75a.23.23,0,0,1-.39-.17l.15-3.45a1.54,1.54,0,0,0-1.54-1.6h0a4,4,0,0,1-4-4V28.73a5.47,5.47,0,0,1,5.47-5.47H86.09a4.25,4.25,0,0,1,4.25,4.25V38.7A5.25,5.25,0,0,1,85.1,43.94Z" transform="translate(-3.32 -23.09)"/><path class="cls-5" d="M68.55,49.4a.45.45,0,0,1-.16,0,.39.39,0,0,1-.24-.39l.14-3.45a1.33,1.33,0,0,0-.37-1,1.36,1.36,0,0,0-1-.42,4.21,4.21,0,0,1-4.2-4.2V28.73a5.65,5.65,0,0,1,5.64-5.64H86.09a4.42,4.42,0,0,1,4.42,4.42V38.7a5.41,5.41,0,0,1-5.41,5.41H74.42a1.34,1.34,0,0,0-1,.42l-4.6,4.75A.4.4,0,0,1,68.55,49.4Zm-.18-26a5.29,5.29,0,0,0-5.29,5.29V39.91a3.86,3.86,0,0,0,3.85,3.85,1.72,1.72,0,0,1,1.24.53,1.68,1.68,0,0,1,.47,1.26L68.49,49a.07.07,0,0,0,0,.06.06.06,0,0,0,.06,0l4.59-4.75a1.75,1.75,0,0,1,1.24-.52H85.1a5.07,5.07,0,0,0,5.06-5.06V27.51a4.07,4.07,0,0,0-4.07-4.07Z" transform="translate(-3.32 -23.09)"/><line class="cls-44" x1="64.82" y1="6.92" x2="81.79" y2="6.92"/><path class="cls-5" d="M85.11,30.18h-17A.17.17,0,0,1,68,30a.18.18,0,0,1,.17-.18h17a.18.18,0,0,1,.17.18A.17.17,0,0,1,85.11,30.18Z" transform="translate(-3.32 -23.09)"/><line class="cls-44" x1="64.82" y1="10.8" x2="81.79" y2="10.8"/><path class="cls-5" d="M85.11,34.07h-17a.18.18,0,0,1-.17-.18.17.17,0,0,1,.17-.17h17a.17.17,0,0,1,.17.17A.18.18,0,0,1,85.11,34.07Z" transform="translate(-3.32 -23.09)"/><line class="cls-44" x1="68.77" y1="14.39" x2="77.84" y2="14.39"/><path class="cls-5" d="M81.16,37.65H72.08a.18.18,0,0,1-.17-.17.18.18,0,0,1,.17-.18h9.08a.18.18,0,0,1,.17.18A.18.18,0,0,1,81.16,37.65Z" transform="translate(-3.32 -23.09)"/><line class="cls-44" x1="142.1" y1="7.24" x2="148.68" y2="7.24"/><path class="cls-5" d="M152,30.5h-6.59a.16.16,0,0,1-.17-.17.17.17,0,0,1,.17-.18H152a.17.17,0,0,1,.17.18A.16.16,0,0,1,152,30.5Z" transform="translate(-3.32 -23.09)"/><line class="cls-44" x1="142.1" y1="10.12" x2="148.68" y2="10.12"/><path class="cls-5" d="M152,33.38h-6.59a.17.17,0,0,1-.17-.18.17.17,0,0,1,.17-.17H152a.17.17,0,0,1,.17.17A.17.17,0,0,1,152,33.38Z" transform="translate(-3.32 -23.09)"/><line class="cls-44" x1="188.02" y1="9.52" x2="197.99" y2="9.52"/><path class="cls-5" d="M201.31,32.78h-10a.18.18,0,0,1-.17-.18.18.18,0,0,1,.17-.17h10a.18.18,0,0,1,.17.17A.18.18,0,0,1,201.31,32.78Z" transform="translate(-3.32 -23.09)"/><line class="cls-44" x1="188.02" y1="12.8" x2="197.99" y2="12.8"/><path class="cls-5" d="M201.31,36.06h-10a.18.18,0,0,1-.17-.18.18.18,0,0,1,.17-.17h10a.18.18,0,0,1,.17.17A.18.18,0,0,1,201.31,36.06Z" transform="translate(-3.32 -23.09)"/><line class="cls-44" x1="190.34" y1="14.9" x2="195.67" y2="14.9"/><path class="cls-5" d="M199,38.16h-5.33a.17.17,0,0,1-.18-.17.18.18,0,0,1,.18-.18H199a.18.18,0,0,1,.17.18A.17.17,0,0,1,199,38.16Z" transform="translate(-3.32 -23.09)"/></g></g></svg>