<svg id="Layer_4" data-name="Layer 4" xmlns="http://www.w3.org/2000/svg" xmlns:xlink="http://www.w3.org/1999/xlink" viewBox="0 0 158.98 159.08"><defs><style>.cls-1,.cls-3,.cls-9{fill:#fff;}.cls-1,.cls-11,.cls-4,.cls-6,.cls-7,.cls-8{stroke:#1a2e35;}.cls-1,.cls-11,.cls-14,.cls-18,.cls-4,.cls-6,.cls-7,.cls-8{stroke-linecap:round;stroke-linejoin:round;}.cls-13,.cls-2,.cls-7{fill:#5ae4a7;}.cls-3{opacity:0.7;}.cls-14,.cls-18,.cls-4{fill:none;}.cls-11,.cls-5{fill:#1a2e35;}.cls-6{fill:#999;}.cls-17,.cls-8{fill:#bfbfbf;}.cls-10{clip-path:url(#clip-path);}.cls-12{clip-path:url(#clip-path-2);}.cls-13{opacity:0.4;}.cls-14{stroke:#fff;}.cls-15{opacity:0.2;}.cls-16{fill:#757575;}.cls-18{stroke:#757575;}</style><clipPath id="clip-path" transform="translate(-25.65 -3.5)"><path class="cls-1" d="M170.52,50.51A3.86,3.86,0,0,0,172,51.89a4.65,4.65,0,0,0,4.27-3.83c1-3.82,2.85-4.64,2.85-4.64a1,1,0,0,0-.86-.19l.46-.51a1.51,1.51,0,0,0-1.51.17l.12-.75a3.12,3.12,0,0,1-1.79,1.38C174.37,43.8,169.31,45.89,170.52,50.51Z"/></clipPath><clipPath id="clip-path-2" transform="translate(-25.65 -3.5)"><path class="cls-1" d="M119.72,27.75c13.1,5.44,13.27,18.12,8.77,24.45-4.09,5.76-9.61,5.33-10.09,8.09S102.49,59,101.77,57.05s2.49-1.7-3.44-9.61S103.62,21.06,119.72,27.75Z"/></clipPath></defs><path class="cls-2" d="M173.68,21.93C152.63-1.36,113.18,2.22,94.85,7.12,82.24,10.49,75,21.6,66.15,23c-26.56,4.1-44,17.64-39.89,40.75s26.11,30.38,36.89,63.85,37.39,39,65.64,27.65,33.33-20.14,40-51.67S197.8,48.6,173.68,21.93Z" transform="translate(-25.65 -3.5)"/><path class="cls-3" d="M173.68,21.93C152.63-1.36,113.18,2.22,94.85,7.12,82.24,10.49,75,21.6,66.15,23c-26.56,4.1-44,17.64-39.89,40.75s26.11,30.38,36.89,63.85,37.39,39,65.64,27.65,33.33-20.14,40-51.67S197.8,48.6,173.68,21.93Z" transform="translate(-25.65 -3.5)"/><path class="cls-2" d="M79.87,50.18c4.79-.73,4.68-10.93-3.75-13.9s-4.11-9.58.09-8.12,4.26,11.22,10.56,12.09,7.63-11.74,4.16-15.79,3.61-2.38,4.45-3.6c1.36-2-3.17-11.43,1.77-10.59,2.45.41-.12,6.49,1.71,15.53s4,13.55,8.17,8.74-.39-8.58,2.65-10.86,5.48-.2,5.2,2.67-.42,5.7,1.59,4.67,5.33-5.84,7-9.62,3.52-3.53,3.67-.72-7.33,8.92-7.53,13.13,2.73,11.79,9.36,6.74,8.16-6.89,10.47-4.19.59,7.12,4.35,7.07,8.44-10,10.8-9.3,6.83,2.94-1.3,7.44-10.87,4.29-10.51,9.19,19.38,5.48,17.46,8.73S137,62.35,134.79,70.35s9.3,6.77,7.28,11.25-6.68-1.92-10.91-5.7-4.32-1-8,.24-4.53-.92-6.91-1.53-.93,4.3-4.52,3.77-1.11-1.25-3.54-2.18-4.53,8.33-9.76,6.89S90,77.42,86.73,80.4s-.88,9.31-5.54,8.87-3-4.79-1-5.29,7.3-7.66,6.38-10.39-9.81,4.56-11.69.79-3.54-7-8.09-5.86-5.24-5.2-1.68-5.1,11.82.72,12.46-2.27-1.46-6.3-7.08-9.12-.11-8.51,3.84-5.36S76.09,50.75,79.87,50.18Z" transform="translate(-25.65 -3.5)"/><polygon class="cls-4" points="15.25 93.01 12.07 86.24 23.78 86.24 15.25 93.01"/><polygon class="cls-4" points="65.83 46.14 67.3 50.09 60.73 49.54 65.83 46.14"/><polyline class="cls-4" points="67.53 5.63 71.05 7.33 67.53 9.05 71.05 11.23 67.53 13.59 71.48 15.41 68.37 18.31"/><polygon class="cls-4" points="137.29 109.96 136.1 117.19 143.67 117.19 144.26 114.96 139.22 114.92 140.18 109.65 137.29 109.96"/><circle class="cls-4" cx="146.98" cy="134.35" r="3.19" transform="translate(-77.6 139.78) rotate(-45)"/><circle class="cls-4" cx="45.69" cy="26" r="3.19"/><line class="cls-4" x1="143.46" y1="80.06" x2="150.48" y2="84.08"/><line class="cls-4" x1="148.32" y1="79.89" x2="145.62" y2="85.21"/><line class="cls-4" x1="109.67" y1="55.74" x2="102.07" y2="58.5"/><line class="cls-4" x1="106.66" y1="59.57" x2="104.35" y2="54.06"/><path class="cls-4" d="M63.22,87.51c0,.14,5.53-2.42,5.53-2.42l2.73,6.25L66,93.75Z" transform="translate(-25.65 -3.5)"/><path class="cls-4" d="M139.79,79.14c-.06,0,1.47,1.84,1.47,1.84l-2.08,1.67-1.47-1.85Z" transform="translate(-25.65 -3.5)"/><path class="cls-4" d="M37.72,61.81a1.42,1.42,0,1,1-1.42-1.43A1.43,1.43,0,0,1,37.72,61.81Z" transform="translate(-25.65 -3.5)"/><path class="cls-4" d="M123.87,10.55a1.43,1.43,0,1,1-1.42-1.42A1.43,1.43,0,0,1,123.87,10.55Z" transform="translate(-25.65 -3.5)"/><polyline class="cls-4" points="116.15 92.79 117.66 95.31 114.57 95.55 115.39 97.92 111.96 98.18 113.63 102.71"/><polyline class="cls-4" points="35.99 113.37 38.66 114.98 35.09 117.89 37.32 119.31 34.45 122.49"/><polyline class="cls-4" points="113.08 32.06 110.88 29.85 115.06 27.89 113.23 25.98 116.79 23.59"/><path class="cls-4" d="M52.77,36.79S68.68,60.21,91.11,64.12" transform="translate(-25.65 -3.5)"/><path class="cls-4" d="M48.74,41.76S71.53,65.59,89.66,66.93" transform="translate(-25.65 -3.5)"/><path class="cls-4" d="M46.9,49.27S70.12,69,87.8,70.11" transform="translate(-25.65 -3.5)"/><path class="cls-4" d="M46.9,57.45s19.2,14.74,39.5,15" transform="translate(-25.65 -3.5)"/><path class="cls-5" d="M66.56,47.4A4.38,4.38,0,0,1,65.45,44h0l-5.08,9.19a4.43,4.43,0,0,0-1.43-2.1c-1.44-1.2-3.24-1.42-4-.48s-.27,2.68,1.16,3.89,3.24,1.42,4,.48a1.49,1.49,0,0,0,.28-.49l4-7.23a5.42,5.42,0,0,0,1.54,1.66A2.75,2.75,0,0,1,67,51.6C67.08,51.48,68.19,49.11,66.56,47.4Z" transform="translate(-25.65 -3.5)"/><path class="cls-5" d="M69.28,63.51a3.65,3.65,0,0,1-.94-2.9h0L64,68.37a3.79,3.79,0,0,0-1.21-1.77c-1.21-1-2.74-1.2-3.41-.4s-.22,2.26,1,3.29,2.74,1.2,3.41.4a1.27,1.27,0,0,0,.23-.41l3.38-6.12a4.46,4.46,0,0,0,1.31,1.41,2.3,2.3,0,0,1,.92,2.29A3.28,3.28,0,0,0,69.28,63.51Z" transform="translate(-25.65 -3.5)"/><path class="cls-5" d="M85.05,62a3.47,3.47,0,0,1-.9-1.84,4,4,0,0,1,0-1.06h0l-4.29,7.77a3.69,3.69,0,0,0-1.21-1.77c-1.21-1-2.74-1.21-3.41-.41S75,67,76.19,68s2.74,1.2,3.41.41a1.72,1.72,0,0,0,.23-.42l3.38-6.12a4.53,4.53,0,0,0,1.3,1.41,2.29,2.29,0,0,1,.93,2.29A3.29,3.29,0,0,0,85.05,62Z" transform="translate(-25.65 -3.5)"/><path class="cls-6" d="M141.93,49.39c-4.39,10.5,1.3,21.66,13.64,23.3s18.55-7,13.26-9.77-4.64-6.77-5.86-15.5S146.32,38.91,141.93,49.39Zm19.85,9c-5.32,4.13-4.08-3-2.18-3.62S163.77,56.79,161.78,58.34Z" transform="translate(-25.65 -3.5)"/><path class="cls-7" d="M158.12,44.9c-1.29-.27-2.14,1.37-3.16,1.86a25.15,25.15,0,0,0,1.67,2.64.92.92,0,0,1,.74-.31,5.84,5.84,0,0,1,.6.15,1.41,1.41,0,0,0,1.52-2.11c-.08-.14-.18-.28-.14-.43s.24-.23.29-.39a.41.41,0,0,0-.08-.31A2.25,2.25,0,0,0,158.12,44.9Z" transform="translate(-25.65 -3.5)"/><path class="cls-7" d="M150.29,46.67a4.67,4.67,0,0,1-2.08-.56,1,1,0,0,0-.42-.26.72.72,0,0,0-.54.2,6,6,0,0,0-1.82,1.7,2,2,0,0,0,.06,2.35c.3.34.8.6.83,1.06s-.91,1.65.24,1.74a1.72,1.72,0,0,0,1-.35c.56-.32,1.33-.14,1.79-.53s0-1,.66-1.25c.41-.15,1.29.31,1.4-.39.08-.49-.62-.67-.78-1.05a.76.76,0,0,1,.22-.82,2.34,2.34,0,0,1,.79-.43C151.8,47.37,151,46.81,150.29,46.67Z" transform="translate(-25.65 -3.5)"/><path class="cls-7" d="M150,57.26c-.16-.12-1,.18-1.37-.22-1.43-1.54-5.08,3.81-2.7,4.67a1.54,1.54,0,0,1,.46.19c.49.41-.13,1.37.33,1.81s1.09-.12,1.68-.09a3.72,3.72,0,0,0,.66.08,1.24,1.24,0,0,0,.73-.51,3.78,3.78,0,0,0,1.17-2.61,12.57,12.57,0,0,0-.84-2.23C149.88,57.78,150.43,57.75,150,57.26Z" transform="translate(-25.65 -3.5)"/><path class="cls-7" d="M156.77,65.34a5.61,5.61,0,0,1-.68-1c-.24-.31-.71-.53-1-.3-.15.11-.24.3-.42.35a.88.88,0,0,1-.42-.06,1.1,1.1,0,0,0-1.12.36,1.08,1.08,0,0,0-.11,1.17c.45.88.85,3.41,1.66,3.24.63-.13,1.17.68,1.74.54,1-.25,1.63-3.21,1-3.9C157.19,65.6,157,65.5,156.77,65.34Z" transform="translate(-25.65 -3.5)"/><path class="cls-7" d="M164.66,65.94a6,6,0,0,0-1.17-.4,2.19,2.19,0,0,0-1.13-.09.76.76,0,0,0-.57.87c.05.16.18.29.24.46.21.61-.92,1.7.08,2a3.6,3.6,0,0,0,3.12-.52C166.41,67.17,165.65,66.4,164.66,65.94Z" transform="translate(-25.65 -3.5)"/><polygon class="cls-8" points="143.76 48.7 145.02 47.07 146.72 48.15 145.47 49.96 143.76 48.7"/><path class="cls-5" d="M169.28,51.73a245.5,245.5,0,0,0-13,21.14.34.34,0,0,0,.56.38c2.24-2.64,6.78-8.37,14.62-19.74C171.87,52.93,169.68,51.15,169.28,51.73Z" transform="translate(-25.65 -3.5)"/><path class="cls-9" d="M170.52,50.51A3.86,3.86,0,0,0,172,51.89a4.65,4.65,0,0,0,4.27-3.83c1-3.82,2.85-4.64,2.85-4.64a1,1,0,0,0-.86-.19l.46-.51a1.51,1.51,0,0,0-1.51.17l.12-.75a3.12,3.12,0,0,1-1.79,1.38C174.37,43.8,169.31,45.89,170.52,50.51Z" transform="translate(-25.65 -3.5)"/><g class="cls-10"><path class="cls-2" d="M176.26,48.06a6.67,6.67,0,0,1-.38,1.07c.07-.93.44-2.23,0-2.39-.69-.25-.85,1.14-.95.67s.48-1.31.41-1.86-.91.42-1.43.56.88-1.46.69-1.86a.7.7,0,0,0-.38-.24,6.61,6.61,0,0,1,1.3-.49,3.08,3.08,0,0,0,1.78-1.38l-.11.75a1.48,1.48,0,0,1,1.51-.17l-.46.51a.91.91,0,0,1,.85.19S177.23,44.24,176.26,48.06Z" transform="translate(-25.65 -3.5)"/></g><path class="cls-4" d="M170.52,50.51A3.86,3.86,0,0,0,172,51.89a4.65,4.65,0,0,0,4.27-3.83c1-3.82,2.85-4.64,2.85-4.64a1,1,0,0,0-.86-.19l.46-.51a1.51,1.51,0,0,0-1.51.17l.12-.75a3.12,3.12,0,0,1-1.79,1.38C174.37,43.8,169.31,45.89,170.52,50.51Z" transform="translate(-25.65 -3.5)"/><path class="cls-11" d="M102.29,56.29s-2.3.53-.44,3c0,0-2.1.34-.64,2.9,0,0-1.26,1.07.31,3,0,0-.73,1.85,3,4.39,0,0,0,1.58,2.53,2.18,2.24.53,2.84-.4,2.84-.4a7,7,0,0,0,4.54-2.78s2.59-.8,1.84-2.38c0,0,2.1-1.63,1-2.69,0,0,2.41-2.43,1.2-3.23C116.26,58.87,102.29,56.29,102.29,56.29Z" transform="translate(-25.65 -3.5)"/><path class="cls-9" d="M119.72,27.75c13.1,5.44,13.27,18.12,8.77,24.45-4.09,5.76-9.61,5.33-10.09,8.09S102.49,59,101.77,57.05s2.49-1.7-3.44-9.61S103.62,21.06,119.72,27.75Z" transform="translate(-25.65 -3.5)"/><g class="cls-12"><path class="cls-13" d="M118.4,60.28c-.49,2.76-15.91-1.26-16.62-3.23s2.48-1.71-3.45-9.61,5.29-26.38,21.39-19.69a22.05,22.05,0,0,1,4.45,2.44c-6.59-1.45-15.53-1.7-20.47,7.37-5.37,9.88,3,18.87,7.19,19.56a13.7,13.7,0,0,1-4.64-6.79s5.94,8.8,15.24,7.33C119.83,58.46,118.61,59.05,118.4,60.28Z" transform="translate(-25.65 -3.5)"/></g><path class="cls-4" d="M119.72,27.75c13.1,5.44,13.27,18.12,8.77,24.45-4.09,5.76-9.61,5.33-10.09,8.09S102.49,59,101.77,57.05s2.49-1.7-3.44-9.61S103.62,21.06,119.72,27.75Z" transform="translate(-25.65 -3.5)"/><path class="cls-14" d="M116.19,63.79a21.74,21.74,0,0,1-13.92-1" transform="translate(-25.65 -3.5)"/><path class="cls-14" d="M112.58,62a8.13,8.13,0,0,0,1.09-.14" transform="translate(-25.65 -3.5)"/><path class="cls-14" d="M102.75,59.91a26.56,26.56,0,0,0,7.78,2" transform="translate(-25.65 -3.5)"/><path class="cls-14" d="M107,66.62a17.27,17.27,0,0,0,7.8-.29" transform="translate(-25.65 -3.5)"/><path class="cls-14" d="M102.56,65.55a25.47,25.47,0,0,0,3.11.84" transform="translate(-25.65 -3.5)"/><path class="cls-14" d="M110.91,68.93a22.81,22.81,0,0,1-6.68-1.8" transform="translate(-25.65 -3.5)"/><path class="cls-14" d="M113.11,69h-1" transform="translate(-25.65 -3.5)"/><path class="cls-14" d="M105,70a7.6,7.6,0,0,0,4.24,1.41" transform="translate(-25.65 -3.5)"/><path class="cls-4" d="M117.57,59.74s-6.59-4.24-14.3-3.83" transform="translate(-25.65 -3.5)"/><path class="cls-4" d="M113,58.54s3.78-8.24,9.05-8.8c0,0-3.19-2.56-4.44-3s-2,2.33-1.16,2,2.11-4.06.63-5-4.35,3.91-3.51,4.31,1.9-4.75-.17-5.33-3.59,3.86-2.62,3.95,1.3-1.84-.91-2.58c-2.38-.8-5.38.37-5.38.37s4.63,5.53,3.1,12.59" transform="translate(-25.65 -3.5)"/><path class="cls-2" d="M126.87,158.36c1.9-2.35,3-9.1,3-9.1a19.14,19.14,0,0,1,4.19,4.27A33.37,33.37,0,0,0,140.3,152a25.13,25.13,0,0,0,5.86-2.91c-4-5.95-10.88-16.07-15.08-19.25-1.63-1.23-6.67-2.43-6.67-2.43-1.15-1-3.63,0-3.63,0a48.79,48.79,0,0,1-25.79-1,3.92,3.92,0,0,0-3.18,0,19.15,19.15,0,0,0-4.19,0c-3.08.43-6.45,3.95-7.84,5.55L68,145.63s-.4,5.39.43,6.11c6.7,5.73,16.55-7.3,16.55-7.3s.22,11.35,5.5,17.27c0,0,3.74,1.7,18.29.37S126.87,158.36,126.87,158.36Z" transform="translate(-25.65 -3.5)"/><path class="cls-15" d="M76.4,141.58c-2.24.2-3.4-.34-3.84-1.29h0l7.22-8.37.37-.42C81.82,135.24,83.21,141,76.4,141.58Z" transform="translate(-25.65 -3.5)"/><path class="cls-15" d="M86.31,153.38a45.44,45.44,0,0,1-1.38-8.94A12.49,12.49,0,0,0,87,140.09S89.11,148.48,86.31,153.38Z" transform="translate(-25.65 -3.5)"/><path class="cls-15" d="M132.86,152a17.77,17.77,0,0,0-3-2.72s.16-5.33,1.65-6.94C132.74,141,134,147.76,132.86,152Z" transform="translate(-25.65 -3.5)"/><path class="cls-4" d="M126.87,158.36c1.9-2.35,3-9.1,3-9.1a19.14,19.14,0,0,1,4.19,4.27" transform="translate(-25.65 -3.5)"/><path class="cls-4" d="M146.16,149.07c-4-5.95-10.88-16.07-15.08-19.25-1.63-1.23-6.67-2.43-6.67-2.43-1.15-1-3.63,0-3.63,0a48.79,48.79,0,0,1-25.79-1,3.92,3.92,0,0,0-3.18,0,19.15,19.15,0,0,0-4.19,0c-3.08.43-6.45,3.95-7.84,5.55L68,145.63s-.4,5.39.43,6.11c6.7,5.73,16.55-7.3,16.55-7.3s.22,11.35,5.5,17.27" transform="translate(-25.65 -3.5)"/><path class="cls-5" d="M121.27,124.12l-.17.07Z" transform="translate(-25.65 -3.5)"/><path class="cls-5" d="M125.27,114.09a1.47,1.47,0,0,0,1.76-.83s-1.76.83-3.31-2.36c-.88-1.81-.45-5.15.09-7.69,1.09-1.79,2.67-4.27,2.88-7.21.36-5.06-2-7.62-4.74-6.87,0,0-.2-4.27-4.06-5.8s-4.46-.27-8.16-1.2-7.35-.12-8.68,2.29-1.78,6.77-4,8.45-6.25,5.76-5,10.31.54,6.11-1.12,8.26-.65,6.39,2.53,7.71a1.22,1.22,0,0,1-.4-1.92s.74,2.85,3.22,2.33,5.63-.69,7.23,1.07,7.48,2.23,8.8.89,2.35-.1,4.74,1.1a6.86,6.86,0,0,0,5.06.15s-.22,1-.8,1.35a4.26,4.26,0,0,0,2.22-1.82,6.34,6.34,0,0,0,.14-4.15c1.66-.65.89-1.75.89-1.75,1.56.9,2.3-1.7,2.3-1.7C125.38,114.68,125.27,114.09,125.27,114.09Z" transform="translate(-25.65 -3.5)"/><path class="cls-1" d="M122.12,127.85s-10.48,4.67-13.85,4.86-14.84-5.91-14.84-5.91l8.74-2.39c1.19-2.27,1.22-4.93.94-8.06-.09-1-.21-1.88-.34-2.7-.29-2-.62-3.36-.62-3.36l12.35.51a22.17,22.17,0,0,0-.64,2.39,29.87,29.87,0,0,0-.58,5.1,25,25,0,0,0,.52,6.7Z" transform="translate(-25.65 -3.5)"/><path class="cls-1" d="M96.59,128.4s6.62,1.16,8.26,1a3.78,3.78,0,0,1,2.93,1.43" transform="translate(-25.65 -3.5)"/><path class="cls-1" d="M119.83,128.83s-6.73.72-8.37.77a2.29,2.29,0,0,0-2.11,1.2" transform="translate(-25.65 -3.5)"/><path class="cls-5" d="M113.86,113.19a29.87,29.87,0,0,0-.58,5.1,10.74,10.74,0,0,1-3.46,2c-2.08.69-4.84-1.85-6.71-4-.09-1-.21-1.88-.34-2.7Z" transform="translate(-25.65 -3.5)"/><path class="cls-1" d="M99.28,99.89s-1-1.56-1.93-1.25-.9,4.56-.83,5.66,2.29,3.57,3.22,2.89" transform="translate(-25.65 -3.5)"/><path class="cls-1" d="M121.64,103.18s1.42-1.2,2.2-.64-.44,4.63-.83,5.66S119.79,111,119.1,110" transform="translate(-25.65 -3.5)"/><path class="cls-1" d="M107.83,119.41c-3.75-.55-7.46-6.9-7.91-8.69-.5-2-1.6-11.79.54-17.16,2.4-6,7.43-8.59,12.33-7.87s9,4.62,9.54,11.09c.5,5.76-3.38,14.83-4.43,16.59C117,115,111.77,120,107.83,119.41Z" transform="translate(-25.65 -3.5)"/><path class="cls-5" d="M116.31,103.68c-.1.69-.5,1.21-.88,1.15s-.61-.66-.5-1.35.49-1.21.87-1.16S116.41,103,116.31,103.68Z" transform="translate(-25.65 -3.5)"/><path class="cls-5" d="M104.09,101.88c-.1.69.13,1.3.51,1.36s.77-.46.87-1.16-.12-1.3-.5-1.35S104.19,101.19,104.09,101.88Z" transform="translate(-25.65 -3.5)"/><path class="cls-16" d="M112.46,111.26s-1.94,3.81-4.42,3.19-2.45-4.08-2.45-4.19l.35.13a14.42,14.42,0,0,0,3,.78,16.68,16.68,0,0,0,3,.12Z" transform="translate(-25.65 -3.5)"/><path class="cls-1" d="M109.23,103.35c.1,2.39-2,2.79-1.56,3.62a2.25,2.25,0,0,0,1.31,1.09" transform="translate(-25.65 -3.5)"/><path class="cls-4" d="M105.59,110.25s0,3.58,2.45,4.2,4.42-3.19,4.42-3.19" transform="translate(-25.65 -3.5)"/><path class="cls-4" d="M101.88,98.73a5.76,5.76,0,0,1,5.69-1.92" transform="translate(-25.65 -3.5)"/><path class="cls-4" d="M119,101.25a5.76,5.76,0,0,0-4.89-3.48" transform="translate(-25.65 -3.5)"/><polygon class="cls-7" points="103.81 95.5 103.11 96.27 102.58 96.86 96.39 100.46 96.64 98.72 101.71 95.77 102.81 95.63 103.81 95.5"/><path class="cls-1" d="M128,100.51c-.92-.17-.61-1.24-.61-1.24l2.1-.27Z" transform="translate(-25.65 -3.5)"/><path class="cls-5" d="M129.46,99l-.7.77a.47.47,0,0,1-.3-.64Z" transform="translate(-25.65 -3.5)"/><path class="cls-5" d="M116.46,90.86a12.34,12.34,0,0,1-7.45,4c-6.4,1.11-9.93,6.64-9.84,9a19.65,19.65,0,0,1-1.09-10.18c1.26-8.48,9.18-10.91,14.94-10.32s8.53,6.36,8.53,6.36,4.33,3.37,3.7,7.61c-.6,4.06-1.59,4.17-2.11,5.09-.72,1.28.23,1.81-2.3,3.9,0,0,1-5.67-.24-9.9S116.46,90.86,116.46,90.86Z" transform="translate(-25.65 -3.5)"/><path class="cls-5" d="M118.05,89.42S115.79,98,103,99.38c0,0,8.64-1.56,12.63-9.45Z" transform="translate(-25.65 -3.5)"/><path class="cls-17" d="M108.32,112.58s1.76-.63,2.44,0c0,0-1.16,1.85-2.65,1.4a3,3,0,0,1-1.81-2.23S107.11,111.38,108.32,112.58Z" transform="translate(-25.65 -3.5)"/><path class="cls-9" d="M112.23,111.29l-.51.57a10.35,10.35,0,0,1-5.78-.92l-.18-.62a16.63,16.63,0,0,0,3.2.85A19.43,19.43,0,0,0,112.23,111.29Z" transform="translate(-25.65 -3.5)"/><path class="cls-4" d="M105,110a15,15,0,0,0,7.92,1.17" transform="translate(-25.65 -3.5)"/><path class="cls-18" d="M117.7,87.3s-2.73,3.58-9.38,4.12-8.58,3.31-8.58,3.31" transform="translate(-25.65 -3.5)"/><path class="cls-18" d="M102.72,87.58c-.62.12-1.47.34-1.76,1" transform="translate(-25.65 -3.5)"/><path class="cls-18" d="M118.52,84.52c-4,3-9.19,3.34-14.46,2.92" transform="translate(-25.65 -3.5)"/><path class="cls-18" d="M93.1,112a4.16,4.16,0,0,0-1.16,3" transform="translate(-25.65 -3.5)"/><path class="cls-18" d="M97.9,95.22a6.59,6.59,0,0,0-3.46,5.2c-.17,3.7,2.49,7-.27,10.29" transform="translate(-25.65 -3.5)"/><path class="cls-18" d="M97.13,107.31s2.06,2.17.72,4.39-2,4.46.72,6.09" transform="translate(-25.65 -3.5)"/><path class="cls-18" d="M112.14,95.88a11.2,11.2,0,0,1-1.36.75" transform="translate(-25.65 -3.5)"/><path class="cls-18" d="M117,90.4a11.71,11.71,0,0,1-3.64,4.66" transform="translate(-25.65 -3.5)"/><path class="cls-18" d="M118.52,90.7a9.73,9.73,0,0,1,3.86,4c1.07,2.5-.44,6,.26,7.25" transform="translate(-25.65 -3.5)"/><path class="cls-18" d="M122.85,115.17a4.41,4.41,0,0,0,1.25.52" transform="translate(-25.65 -3.5)"/><path class="cls-18" d="M120.65,111.7a5.94,5.94,0,0,0,1.13,2.49" transform="translate(-25.65 -3.5)"/><path class="cls-18" d="M119.55,113.69a6.6,6.6,0,0,0,1.55,4.71c1.8,1.87,1.27,3,1.27,3" transform="translate(-25.65 -3.5)"/><path class="cls-18" d="M116.56,116.92s1.08,2.87-.63,3.83" transform="translate(-25.65 -3.5)"/><path class="cls-18" d="M120.65,89.92s4.07.82,4.66,2.6a7.27,7.27,0,0,1,0,3.82" transform="translate(-25.65 -3.5)"/><path class="cls-7" d="M68.38,151.74c-3.44-1.92-2.78-8.8-.49-17.39,1.12-4.22,5-14.85,4.9-15.25a10,10,0,0,0-.85-2.06,9.18,9.18,0,0,1,1.58-1.34c2-.86,6-1.94,7.8-1.19a2.86,2.86,0,0,1,1.28,2.11c-.12.54-1.74,2.32-1.59,4s-1.33,7.35-1.28,9.6c0,.46,0,1,0,1.67,0,.4,0,7.43-2.71,11" transform="translate(-25.65 -3.5)"/><path class="cls-1" d="M79.59,98.37a80.88,80.88,0,0,1,2,10.54,10.06,10.06,0,0,0,2.62-1.41c.93-.81,2.86-.17,2.78.37s-1.85.45-3.36,2.47-1.81,4.26-3.81,5.34-5.11,1.46-6.31,0-2.55-9.07-2.08-9.86a5.9,5.9,0,0,1,1.48-1.5s.51-1.49,1.28-1.6,2.61-.16,2.61-.16a2.16,2.16,0,0,1,1.48-.4s-.6-5.73-1.13-7.65S79,92.62,79.59,98.37Z" transform="translate(-25.65 -3.5)"/><path class="cls-4" d="M78.29,102.18c1.58.71,2.28,3.71,2.28,3.93a27.81,27.81,0,0,1-1.14,3.13c-.39.86-1.24,0-1.24,0s-.26,1.13-.86.63c-.76-.63-.76-2.66-.76-2.66a8,8,0,0,1-.54,2.51c-.45.83-1.33.28-1.2-2.16,0,0-1.82-.45-1.89-.89" transform="translate(-25.65 -3.5)"/><path class="cls-4" d="M76.57,107.21a6.15,6.15,0,0,0-2.16-2.2" transform="translate(-25.65 -3.5)"/><path class="cls-4" d="M78.19,109.24s.89-2.58.65-3.13a12.74,12.74,0,0,0-1.77-2" transform="translate(-25.65 -3.5)"/><path class="cls-4" d="M81.6,108.91a3.68,3.68,0,0,0-2.43,2.51" transform="translate(-25.65 -3.5)"/><path class="cls-4" d="M72.79,119.1a5,5,0,0,0,5.63.36" transform="translate(-25.65 -3.5)"/><path class="cls-4" d="M75.08,125.72a7.2,7.2,0,0,1-1.67.7" transform="translate(-25.65 -3.5)"/><path class="cls-4" d="M81.6,118.4a21.8,21.8,0,0,1-5.2,6.41" transform="translate(-25.65 -3.5)"/><path class="cls-4" d="M91.81,126.37s5.3,5,8.4,6.34" transform="translate(-25.65 -3.5)"/><path class="cls-4" d="M86.54,131.75A8.56,8.56,0,0,1,87,133.8" transform="translate(-25.65 -3.5)"/><path class="cls-4" d="M84.7,127.54q.7,1.35,1.29,2.76" transform="translate(-25.65 -3.5)"/><path class="cls-4" d="M106.3,134.35s8.67.12,14.23-3.68" transform="translate(-25.65 -3.5)"/><path class="cls-4" d="M124.41,127.39a11,11,0,0,0-2,1.76" transform="translate(-25.65 -3.5)"/><path class="cls-4" d="M128.76,133.74a14.32,14.32,0,0,1-3,2.36" transform="translate(-25.65 -3.5)"/><path class="cls-4" d="M130.65,131.43a13.57,13.57,0,0,1-.92,1.23" transform="translate(-25.65 -3.5)"/><path class="cls-4" d="M84.93,144.44a10.8,10.8,0,0,0,2.07-6" transform="translate(-25.65 -3.5)"/><path class="cls-4" d="M129.9,149.26a13.44,13.44,0,0,1,3.41-9.54" transform="translate(-25.65 -3.5)"/><path class="cls-4" d="M134.09,142.76c.18.18-3.3,3.22-4.13,4.58" transform="translate(-25.65 -3.5)"/><path class="cls-4" d="M96,156.38s12.68,5,19.25,4.94" transform="translate(-25.65 -3.5)"/><rect class="cls-17" x="82.18" y="140.71" width="2.39" height="3.18" rx="0.44"/><path class="cls-5" d="M109.77,147.63h-1.5a.69.69,0,0,1-.68-.68v-2.3a.68.68,0,0,1,.68-.67h1.5a.67.67,0,0,1,.68.67V147A.68.68,0,0,1,109.77,147.63Zm-1.5-3.18a.21.21,0,0,0-.21.2V147a.22.22,0,0,0,.21.21h1.5A.21.21,0,0,0,110,147v-2.3a.2.2,0,0,0-.21-.2Z" transform="translate(-25.65 -3.5)"/><path class="cls-4" d="M113.8,125s6.73,1.38-4.78,18.87c0,0-13.4-17-6.85-19.45" transform="translate(-25.65 -3.5)"/><path class="cls-5" d="M109.26,143.69c0,.25-.11.46-.25.46s-.26-.21-.26-.46.11-.47.26-.47S109.26,143.43,109.26,143.69Z" transform="translate(-25.65 -3.5)"/></svg>