<svg id="Layer_2" data-name="Layer 2" xmlns="http://www.w3.org/2000/svg" xmlns:xlink="http://www.w3.org/1999/xlink" viewBox="0 0 407.76 408.03"><defs><style>.cls-1,.cls-3,.cls-9{fill:#fff;}.cls-1,.cls-11,.cls-4,.cls-6,.cls-7,.cls-8{stroke:#1a2e35;}.cls-1,.cls-11,.cls-14,.cls-18,.cls-4,.cls-6,.cls-7,.cls-8{stroke-linecap:round;stroke-linejoin:round;}.cls-13,.cls-2,.cls-7{fill:#5ae4a7;}.cls-3{opacity:0.7;}.cls-14,.cls-18,.cls-4{fill:none;}.cls-11,.cls-5{fill:#1a2e35;}.cls-6{fill:#999;}.cls-17,.cls-8{fill:#bfbfbf;}.cls-10{clip-path:url(#clip-path);}.cls-12{clip-path:url(#clip-path-2);}.cls-13{opacity:0.4;}.cls-14{stroke:#fff;}.cls-15{opacity:0.2;}.cls-16{fill:#757575;}.cls-18{stroke:#757575;}</style><clipPath id="clip-path" transform="translate(-6.12 -32.05)"><path class="cls-1" d="M377.7,152.61a9.64,9.64,0,0,0,3.77,3.53s8.44,0,10.94-9.8,7.3-11.91,7.3-11.91a2.42,2.42,0,0,0-2.2-.49l1.18-1.31a3.8,3.8,0,0,0-3.86.44l.29-1.93a8,8,0,0,1-4.58,3.55C387.56,135.39,374.59,140.76,377.7,152.61Z"/></clipPath><clipPath id="clip-path-2" transform="translate(-6.12 -32.05)"><path class="cls-1" d="M247.39,94.23c33.62,14,34.05,46.49,22.51,62.72-10.5,14.78-24.66,13.66-25.9,20.74s-40.79-3.24-42.63-8.29,6.37-4.38-8.82-24.66S206.11,77.07,247.39,94.23Z"/></clipPath></defs><path class="cls-2" d="M385.79,79.3c-54-59.72-155.16-50.55-202.18-38C151.27,50,132.61,78.47,110,82,41.86,92.47-3,127.2,7.68,186.48s67,77.91,94.62,163.77,95.91,100,168.37,70.91,85.47-51.67,102.67-132.54S447.65,147.71,385.79,79.3Z" transform="translate(-6.12 -32.05)"/><path class="cls-3" d="M385.79,79.3c-54-59.72-155.16-50.55-202.18-38C151.27,50,132.61,78.47,110,82,41.86,92.47-3,127.2,7.68,186.48s67,77.91,94.62,163.77,95.91,100,168.37,70.91,85.47-51.67,102.67-132.54S447.65,147.71,385.79,79.3Z" transform="translate(-6.12 -32.05)"/><path class="cls-2" d="M145.2,151.76c12.26-1.86,12-28-9.64-35.64s-10.54-24.58.25-20.83,10.91,28.77,27.07,31,19.56-30.1,10.68-40.51,9.24-6.11,11.4-9.23c3.5-5.06-8.12-29.3,4.55-27.16,6.29,1.07-.3,16.66,4.4,39.85s10.33,34.73,20.94,22.39-1-22,6.79-27.83,14.07-.52,13.33,6.84-1.06,14.61,4.1,12S252.74,87.65,257,78s9-9.07,9.41-1.85S247.58,99,247.06,109.78s7,30.25,24,17.29,20.93-17.68,26.86-10.75,1.51,18.27,11.15,18.14,21.64-25.8,27.7-23.85,17.51,7.54-3.32,19.07-27.9,11-27,23.58,49.73,14.05,44.81,22.38-59.53,7.33-65.23,27.85,23.84,17.38,18.66,28.86-17.12-4.92-28-14.61-11.09-2.47-20.59.61-11.61-2.37-17.73-3.91-2.39,11-11.59,9.67-2.86-3.22-9.09-5.62-11.62,21.38-25,17.67-21.55-14.53-29.93-6.89-2.26,23.88-14.22,22.75-7.72-12.27-2.66-13.57,18.73-19.64,16.36-26.64-25.17,11.69-30,2-9.08-17.93-20.74-15-13.45-13.36-4.32-13.1,30.32,1.84,32-5.8S135.43,163.74,121,156.5s-.27-21.8,9.86-13.74S135.5,153.24,145.2,151.76Z" transform="translate(-6.12 -32.05)"/><polygon class="cls-4" points="39.11 238.56 30.96 221.2 61 221.2 39.11 238.56"/><polygon class="cls-4" points="168.85 118.35 172.61 128.47 155.75 127.07 168.85 118.35"/><polyline class="cls-4" points="173.21 14.44 182.23 18.8 173.21 23.22 182.23 28.8 173.21 34.85 183.34 39.53 175.35 46.96"/><polygon class="cls-4" points="352.13 282.03 349.09 300.56 368.49 300.56 370.01 294.86 357.08 294.74 359.55 281.24 352.13 282.03"/><circle class="cls-4" cx="317.31" cy="367.65" r="8.18" transform="translate(-173.15 300.01) rotate(-45)"/><circle class="cls-4" cx="117.2" cy="66.69" r="8.18"/><line class="cls-4" x1="367.96" y1="205.35" x2="385.97" y2="215.65"/><line class="cls-4" x1="380.43" y1="204.9" x2="373.49" y2="218.56"/><line class="cls-4" x1="281.29" y1="142.97" x2="261.79" y2="150.05"/><line class="cls-4" x1="273.57" y1="152.78" x2="267.64" y2="138.65"/><path class="cls-4" d="M102.49,247.51c-.13.35,14.19-6.19,14.19-6.19l7,16-14.19,6.19Z" transform="translate(-6.12 -32.05)"/><path class="cls-4" d="M298.88,226c-.15,0,3.77,4.73,3.77,4.73L297.31,235l-3.77-4.73Z" transform="translate(-6.12 -32.05)"/><path class="cls-4" d="M37.08,181.58a3.65,3.65,0,1,1-3.65-3.64A3.64,3.64,0,0,1,37.08,181.58Z" transform="translate(-6.12 -32.05)"/><path class="cls-4" d="M258,50.13a3.65,3.65,0,1,1-3.64-3.64A3.64,3.64,0,0,1,258,50.13Z" transform="translate(-6.12 -32.05)"/><polyline class="cls-4" points="297.9 237.98 301.78 244.46 293.85 245.08 295.95 251.14 287.17 251.81 291.44 263.44"/><polyline class="cls-4" points="92.31 290.79 99.15 294.9 89.99 302.38 95.72 306 88.35 314.17"/><polyline class="cls-4" points="290.03 82.23 284.4 76.57 295.1 71.55 290.42 66.64 299.56 60.5"/><path class="cls-4" d="M75.69,117.43S116.5,177.49,174,187.52" transform="translate(-6.12 -32.05)"/><path class="cls-4" d="M65.34,130.18s58.45,61.11,105,64.56" transform="translate(-6.12 -32.05)"/><path class="cls-4" d="M60.64,149.43s59.55,50.64,104.88,53.46" transform="translate(-6.12 -32.05)"/><path class="cls-4" d="M60.64,170.42s49.23,37.8,101.29,38.43" transform="translate(-6.12 -32.05)"/><path class="cls-5" d="M111.05,144.64a10.57,10.57,0,0,1-2.76-5.59,10.74,10.74,0,0,1-.09-3.2v0l-13,23.57A11.28,11.28,0,0,0,91.5,154c-3.68-3.1-8.31-3.65-10.34-1.24s-.69,6.88,3,10,8.31,3.65,10.34,1.24a3.81,3.81,0,0,0,.7-1.26l10.26-18.56a13.84,13.84,0,0,0,4,4.26,7,7,0,0,1,2.82,7C112.38,155.1,115.24,149,111.05,144.64Z" transform="translate(-6.12 -32.05)"/><path class="cls-5" d="M118,186a9.42,9.42,0,0,1-2.4-7.43h0l-11,19.92a9.64,9.64,0,0,0-3.1-4.54c-3.11-2.61-7-3.08-8.74-1s-.59,5.81,2.52,8.43,7,3.09,8.75,1.05a3.4,3.4,0,0,0,.59-1.07l8.67-15.68a11.84,11.84,0,0,0,3.35,3.6,5.94,5.94,0,0,1,2.38,5.88C119.14,194.8,121.56,189.67,118,186Z" transform="translate(-6.12 -32.05)"/><path class="cls-5" d="M158.48,182.14a8.91,8.91,0,0,1-2.33-4.73,9.63,9.63,0,0,1-.08-2.71h0l-11,19.93a9.55,9.55,0,0,0-3.1-4.54c-3.11-2.62-7-3.09-8.75-1.05s-.58,5.82,2.53,8.44,7,3.08,8.74,1a3.07,3.07,0,0,0,.59-1.06l8.68-15.69a11.6,11.6,0,0,0,3.35,3.6,6,6,0,0,1,2.38,5.88C159.61,191,162,185.85,158.48,182.14Z" transform="translate(-6.12 -32.05)"/><path class="cls-6" d="M304.37,149.75c-11.27,26.93,3.33,55.54,35,59.75s47.58-18,34-25.05-11.91-17.36-15-39.75S315.63,122.86,304.37,149.75Zm50.91,22.94c-13.64,10.61-10.47-7.63-5.58-9.27S360.37,168.72,355.28,172.69Z" transform="translate(-6.12 -32.05)"/><path class="cls-7" d="M345.89,138.23c-3.32-.7-5.49,3.5-8.11,4.76a65.2,65.2,0,0,0,4.3,6.79A2.28,2.28,0,0,1,344,149a13.31,13.31,0,0,1,1.54.38,3.63,3.63,0,0,0,3.9-5.41c-.21-.34-.48-.72-.36-1.1s.62-.59.73-1a1.12,1.12,0,0,0-.2-.8A5.77,5.77,0,0,0,345.89,138.23Z" transform="translate(-6.12 -32.05)"/><path class="cls-7" d="M325.81,142.77c-1.83-.37-3.88-.28-5.34-1.44a2.65,2.65,0,0,0-1.07-.67,1.93,1.93,0,0,0-1.39.51,15.26,15.26,0,0,0-4.67,4.37c-1.09,1.84-1.28,4.41.15,6,.78.89,2.05,1.55,2.13,2.73s-2.33,4.23.61,4.48a4.72,4.72,0,0,0,2.63-.91c1.42-.82,3.41-.35,4.6-1.35,1-.86,0-2.66,1.68-3.23,1.05-.37,3.31.8,3.6-1,.19-1.25-1.59-1.7-2-2.69a2,2,0,0,1,.57-2.1,5.8,5.8,0,0,1,2-1.1C329.67,144.55,327.64,143.13,325.81,142.77Z" transform="translate(-6.12 -32.05)"/><path class="cls-7" d="M324.93,169.93c-.4-.32-2.57.45-3.5-.56-3.68-4-13.05,9.76-6.95,12a3.73,3.73,0,0,1,1.19.51c1.26,1-.32,3.49.86,4.64s2.8-.31,4.29-.24a11.28,11.28,0,0,0,1.71.22,3.15,3.15,0,0,0,1.85-1.34c1.53-1.82,3.29-4.14,3-6.67-.2-1.87-1.55-3.94-2.15-5.72C324.75,171.27,326.16,171.18,324.93,169.93Z" transform="translate(-6.12 -32.05)"/><path class="cls-7" d="M342.43,190.65a17,17,0,0,1-1.75-2.48c-.62-.79-1.81-1.37-2.63-.77-.38.28-.62.77-1.08.9a2.25,2.25,0,0,1-1.08-.17,2.76,2.76,0,0,0-3.17,3.93c1.17,2.25,2.19,8.74,4.28,8.31,1.62-.33,3,1.75,4.46,1.37,2.45-.62,4.17-8.21,2.47-10C343.5,191.31,342.9,191.06,342.43,190.65Z" transform="translate(-6.12 -32.05)"/><path class="cls-7" d="M362.66,192.19a17.24,17.24,0,0,0-3-1,5.56,5.56,0,0,0-2.91-.2,1.92,1.92,0,0,0-1.45,2.21c.13.42.46.75.6,1.17.55,1.57-2.36,4.37.22,5.27,2.19.77,6.26.36,8-1.32C367.16,195.35,365.19,193.37,362.66,192.19Z" transform="translate(-6.12 -32.05)"/><polygon class="cls-8" points="368.72 124.91 371.96 120.72 376.32 123.49 373.12 128.15 368.72 124.91"/><path class="cls-5" d="M374.52,155.76C356.64,182.17,346,201,341.2,210a.86.86,0,0,0,1.42,1c5.75-6.77,17.4-21.47,37.52-50.62C381.16,158.82,375.53,154.26,374.52,155.76Z" transform="translate(-6.12 -32.05)"/><path class="cls-9" d="M377.7,152.61a9.64,9.64,0,0,0,3.77,3.53s8.44,0,10.94-9.8,7.3-11.91,7.3-11.91a2.42,2.42,0,0,0-2.2-.49l1.18-1.31a3.8,3.8,0,0,0-3.86.44l.29-1.93a8,8,0,0,1-4.58,3.55C387.56,135.39,374.59,140.76,377.7,152.61Z" transform="translate(-6.12 -32.05)"/><g class="cls-10"><path class="cls-2" d="M392.4,146.33a15.5,15.5,0,0,1-1,2.75c.19-2.38,1.14-5.72,0-6.13-1.76-.65-2.16,2.92-2.44,1.72s1.25-3.36,1.06-4.79-2.33,1.1-3.66,1.44,2.24-3.73,1.77-4.76a1.76,1.76,0,0,0-1-.62,17.93,17.93,0,0,1,3.32-1.26,8,8,0,0,0,4.58-3.54l-.29,1.93a3.8,3.8,0,0,1,3.86-.44l-1.18,1.31a2.42,2.42,0,0,1,2.2.49S394.9,136.53,392.4,146.33Z" transform="translate(-6.12 -32.05)"/></g><path class="cls-4" d="M377.7,152.61a9.64,9.64,0,0,0,3.77,3.53s8.44,0,10.94-9.8,7.3-11.91,7.3-11.91a2.42,2.42,0,0,0-2.2-.49l1.18-1.31a3.8,3.8,0,0,0-3.86.44l.29-1.93a8,8,0,0,1-4.58,3.55C387.56,135.39,374.59,140.76,377.7,152.61Z" transform="translate(-6.12 -32.05)"/><path class="cls-11" d="M202.68,167.43s-5.88,1.36-1.13,7.77c0,0-5.38.88-1.62,7.44,0,0-3.25,2.76.8,7.66,0,0-1.89,4.72,7.55,11.25,0,0-.07,4,6.49,5.6,5.74,1.36,7.28-1,7.28-1s7.52-.91,11.66-7.13c0,0,6.63-2,4.72-6.09,0,0,5.37-4.2,2.51-6.91,0,0,6.17-6.23,3.06-8.29C238.53,174.05,202.68,167.43,202.68,167.43Z" transform="translate(-6.12 -32.05)"/><path class="cls-9" d="M247.39,94.23c33.62,14,34.05,46.49,22.51,62.72-10.5,14.78-24.66,13.66-25.9,20.74s-40.79-3.24-42.63-8.29,6.37-4.38-8.82-24.66S206.11,77.07,247.39,94.23Z" transform="translate(-6.12 -32.05)"/><g class="cls-12"><path class="cls-13" d="M244,177.68c-1.24,7.08-40.8-3.23-42.64-8.28s6.37-4.39-8.82-24.66,13.56-67.67,54.85-50.51a57.52,57.52,0,0,1,11.41,6.26c-16.89-3.71-39.84-4.36-52.49,18.91-13.77,25.34,7.65,48.39,18.43,50.18,0,0-8.92-6.5-11.89-17.43,0,0,15.22,22.58,39.07,18.81C247.69,173,244.56,174.52,244,177.68Z" transform="translate(-6.12 -32.05)"/></g><path class="cls-4" d="M247.39,94.23c33.62,14,34.05,46.49,22.51,62.72-10.5,14.78-24.66,13.66-25.9,20.74s-40.79-3.24-42.63-8.29,6.37-4.38-8.82-24.66S206.11,77.07,247.39,94.23Z" transform="translate(-6.12 -32.05)"/><path class="cls-14" d="M238.34,186.66S222.51,192,202.64,184" transform="translate(-6.12 -32.05)"/><path class="cls-14" d="M229.07,182a22.22,22.22,0,0,0,2.82-.38" transform="translate(-6.12 -32.05)"/><path class="cls-14" d="M203.86,176.73a68.15,68.15,0,0,0,20,5.16" transform="translate(-6.12 -32.05)"/><path class="cls-14" d="M214.69,194c6.59,1,13.58,1.24,20-.75" transform="translate(-6.12 -32.05)"/><path class="cls-14" d="M203.38,191.18a62.81,62.81,0,0,0,8,2.16" transform="translate(-6.12 -32.05)"/><path class="cls-14" d="M224.79,199.86a58.81,58.81,0,0,1-17.11-4.61" transform="translate(-6.12 -32.05)"/><path class="cls-14" d="M230.43,200.06c-.86,0-1.73,0-2.59,0" transform="translate(-6.12 -32.05)"/><path class="cls-14" d="M209.72,202.56a19.56,19.56,0,0,0,10.88,3.6" transform="translate(-6.12 -32.05)"/><path class="cls-4" d="M241.89,176.28s-16.9-10.86-36.68-9.81" transform="translate(-6.12 -32.05)"/><path class="cls-4" d="M230.06,173.21s9.69-21.12,23.22-22.56c0,0-8.2-6.58-11.39-7.58s-5.21,6-3,5.23,5.4-10.4,1.61-12.93-11.15,10-9,11.07,4.86-12.19-.43-13.68-9.23,9.89-6.74,10.13,3.34-4.73-2.32-6.62c-6.13-2.05-13.81,1-13.81,1s11.87,14.19,8,32.28" transform="translate(-6.12 -32.05)"/><path class="cls-2" d="M265.74,429.24c4.87-6,7.78-23.35,7.78-23.35a48.72,48.72,0,0,1,10.72,11,85.72,85.72,0,0,0,15.93-4,64.88,64.88,0,0,0,15.05-7.46c-10.36-15.27-27.9-41.23-38.69-49.39-4.18-3.16-17.11-6.23-17.11-6.23-2.93-2.65-9.31,0-9.31,0-34.54,8.79-66.14-2.6-66.14-2.6s-4.48-2.06-8.15,0a49.31,49.31,0,0,0-10.75,0c-7.9,1.09-16.55,10.13-20.11,14.23L114.6,396.58s-1,13.83,1.13,15.66c17.16,14.71,42.45-18.71,42.45-18.71.16.07.55,29.1,14.09,44.28,0,0,9.6,4.39,46.92,1C256.21,435.37,265.74,429.24,265.74,429.24Z" transform="translate(-6.12 -32.05)"/><path class="cls-15" d="M136.29,386.19c-5.74.51-8.72-.87-9.86-3.31h0c8.27-9.56,17.93-20.75,18.53-21.45.28-.33.61-.69.95-1.08C150.2,369.94,153.76,384.67,136.29,386.19Z" transform="translate(-6.12 -32.05)"/><path class="cls-15" d="M161.71,416.47a117.08,117.08,0,0,1-3.54-22.93s4.16-5.44,5.31-11.16C163.48,382.38,168.88,403.89,161.71,416.47Z" transform="translate(-6.12 -32.05)"/><path class="cls-15" d="M281.09,412.87a45.66,45.66,0,0,0-7.58-7s.41-13.66,4.23-17.79C280.8,384.77,284.07,402,281.09,412.87Z" transform="translate(-6.12 -32.05)"/><path class="cls-4" d="M265.74,429.24c4.87-6,7.78-23.35,7.78-23.35a48.72,48.72,0,0,1,10.72,11" transform="translate(-6.12 -32.05)"/><path class="cls-4" d="M315.22,405.41c-10.36-15.27-27.9-41.23-38.69-49.39-4.18-3.16-17.11-6.23-17.11-6.23-2.93-2.65-9.31,0-9.31,0-34.54,8.79-66.14-2.6-66.14-2.6s-4.48-2.06-8.15,0a49.31,49.31,0,0,0-10.75,0c-7.9,1.09-16.55,10.13-20.11,14.23L114.6,396.58s-1,13.83,1.13,15.66c17.16,14.71,42.45-18.71,42.45-18.71.16.07.55,29.1,14.09,44.28" transform="translate(-6.12 -32.05)"/><path class="cls-5" d="M251.38,341.41l-.45.18A2.23,2.23,0,0,0,251.38,341.41Z" transform="translate(-6.12 -32.05)"/><path class="cls-5" d="M261.65,315.69c3.62.53,4.51-2.13,4.51-2.13s-4.51,2.13-8.5-6.05c-2.27-4.65-1.15-13.21.23-19.72,2.79-4.6,6.84-11,7.38-18.51.92-13-5.14-19.53-12.16-17.61,0,0-.52-10.95-10.4-14.87s-11.46-.7-20.93-3.09-18.86-.3-22.27,5.87-4.57,17.36-10.4,21.69-16,14.77-12.79,26.45,1.4,15.66-2.87,21.18-1.67,16.38,6.48,19.75c0,0-3.44-1.83-1-4.91,0,0,1.89,7.32,8.26,6s14.43-1.77,18.55,2.73,19.16,5.74,22.55,2.29,6-.25,12.17,2.83,13,.38,13,.38-.58,2.66-2.05,3.46c1.25-.53,4.71-2.18,5.68-4.66s1.58-4.87.37-10.66c4.26-1.67,2.29-4.48,2.29-4.48,4,2.3,5.89-4.35,5.89-4.35C261.92,317.21,261.65,315.69,261.65,315.69Z" transform="translate(-6.12 -32.05)"/><path class="cls-1" d="M253.56,351s-26.9,12-35.53,12.45S180,348.28,180,348.28l22.41-6.11c3.05-5.82,3.13-12.66,2.4-20.68-.24-2.48-.53-4.83-.85-6.93-.77-5.08-1.61-8.63-1.61-8.63L234,307.24a57.43,57.43,0,0,0-1.63,6.15,75.8,75.8,0,0,0-1.49,13.06c-.36,11,1.33,17.19,1.33,17.19Z" transform="translate(-6.12 -32.05)"/><path class="cls-1" d="M188.08,352.4s17,3,21.17,2.48,7.52,3.67,7.52,3.67" transform="translate(-6.12 -32.05)"/><path class="cls-1" d="M247.69,353.5s-17.27,1.83-21.47,2-5.42,3.08-5.42,3.08" transform="translate(-6.12 -32.05)"/><path class="cls-5" d="M232.37,313.39a75.8,75.8,0,0,0-1.49,13.06,27.33,27.33,0,0,1-8.88,5.24c-5.32,1.76-12.4-4.74-17.21-10.2-.24-2.48-.53-4.83-.85-6.93Z" transform="translate(-6.12 -32.05)"/><path class="cls-1" d="M195,279.26s-2.61-4-4.94-3.2-2.33,11.69-2.14,14.51,5.87,9.15,8.25,7.42" transform="translate(-6.12 -32.05)"/><path class="cls-1" d="M252.32,287.71s3.65-3.08,5.65-1.64-1.14,11.86-2.13,14.51-8.26,7.07-10,4.72" transform="translate(-6.12 -32.05)"/><path class="cls-1" d="M216.89,329.33c-9.6-1.41-19.13-17.69-20.28-22.27-1.28-5.1-4.09-30.26,1.39-44,6.16-15.48,19.06-22,31.63-20.16s23,11.82,24.47,28.43c1.28,14.77-8.67,38-11.37,42.56C240.32,317.91,227,330.82,216.89,329.33Z" transform="translate(-6.12 -32.05)"/><path class="cls-5" d="M238.65,289c-.26,1.78-1.27,3.1-2.25,3s-1.56-1.71-1.3-3.49,1.27-3.1,2.25-2.95S238.91,287.21,238.65,289Z" transform="translate(-6.12 -32.05)"/><path class="cls-5" d="M207.31,284.37c-.26,1.78.32,3.34,1.3,3.48s2-1.18,2.25-3-.32-3.33-1.3-3.48S207.57,282.59,207.31,284.37Z" transform="translate(-6.12 -32.05)"/><path class="cls-16" d="M228.77,308.44s-5,9.75-11.32,8.16-6.3-10.45-6.3-10.74l.9.34a38.54,38.54,0,0,0,7.75,2,43.06,43.06,0,0,0,7.74.31Z" transform="translate(-6.12 -32.05)"/><path class="cls-1" d="M220.49,288.13c.25,6.13-5,7.17-4,9.29a5.79,5.79,0,0,0,3.37,2.8" transform="translate(-6.12 -32.05)"/><path class="cls-4" d="M211.15,305.84s-.05,9.17,6.3,10.76,11.32-8.16,11.32-8.16" transform="translate(-6.12 -32.05)"/><path class="cls-4" d="M201.64,276.29s5.73-7.22,14.59-4.93" transform="translate(-6.12 -32.05)"/><path class="cls-4" d="M245.56,282.76s-3.4-8.57-12.54-8.93" transform="translate(-6.12 -32.05)"/><polygon class="cls-7" points="266.25 244.94 264.48 246.91 263.1 248.43 247.22 257.65 247.87 253.21 260.88 245.64 263.69 245.28 266.25 244.94"/><path class="cls-1" d="M268.56,280.87c-2.35-.45-1.56-3.19-1.56-3.19l5.37-.69Z" transform="translate(-6.12 -32.05)"/><path class="cls-5" d="M272.37,277l-1.78,2a1.19,1.19,0,0,1-.78-1.63Z" transform="translate(-6.12 -32.05)"/><path class="cls-5" d="M239,256.11s-6,7.91-19.12,10.19c-16.4,2.86-25.45,17.05-25.23,23a50.44,50.44,0,0,1-2.81-26.1c3.26-21.76,23.56-28,38.33-26.47S252.1,253,252.1,253s11.09,8.63,9.48,19.51c-1.54,10.42-4.07,10.71-5.41,13.06-1.85,3.27.58,4.63-5.9,10,0,0,2.56-14.54-.62-25.38S239,256.11,239,256.11Z" transform="translate(-6.12 -32.05)"/><path class="cls-5" d="M243.1,252.42s-5.78,22.09-38.65,25.54c0,0,22.14-4,32.38-24.24Z" transform="translate(-6.12 -32.05)"/><path class="cls-17" d="M218.16,311.81s4.52-1.62,6.25,0c0,0-3,4.74-6.79,3.6s-4.63-5.72-4.63-5.72S215.06,308.73,218.16,311.81Z" transform="translate(-6.12 -32.05)"/><path class="cls-9" d="M228.17,308.51,226.88,310a26.66,26.66,0,0,1-14.83-2.37L211.6,306a41.43,41.43,0,0,0,8.2,2.19A50,50,0,0,0,228.17,308.51Z" transform="translate(-6.12 -32.05)"/><path class="cls-4" d="M209.73,305.25s10.33,4.82,20.32,3" transform="translate(-6.12 -32.05)"/><path class="cls-18" d="M242.23,247s-7,9.17-24.08,10.58-22,8.47-22,8.47" transform="translate(-6.12 -32.05)"/><path class="cls-18" d="M203.8,247.7c-1.59.3-3.77.87-4.52,2.48" transform="translate(-6.12 -32.05)"/><path class="cls-18" d="M244.33,239.84c-10.29,7.7-23.59,8.58-37.09,7.49" transform="translate(-6.12 -32.05)"/><path class="cls-18" d="M179.13,310.19a10.76,10.76,0,0,0-3,7.67" transform="translate(-6.12 -32.05)"/><path class="cls-18" d="M191.43,267.3c-4.78,2.71-8.62,7.7-8.87,13.32-.44,9.51,6.37,18.08-.69,26.41" transform="translate(-6.12 -32.05)"/><path class="cls-18" d="M189.46,298.29s5.28,5.58,1.85,11.26-5.2,11.44,1.83,15.63" transform="translate(-6.12 -32.05)"/><path class="cls-18" d="M228,269a33.84,33.84,0,0,1-3.49,1.92" transform="translate(-6.12 -32.05)"/><path class="cls-18" d="M240.3,254.92a30.26,30.26,0,0,1-9.35,12" transform="translate(-6.12 -32.05)"/><path class="cls-18" d="M244.33,255.7s7.14,3.89,9.88,10.32-1.12,15.48.68,18.61" transform="translate(-6.12 -32.05)"/><path class="cls-18" d="M255.44,318.45a10.55,10.55,0,0,0,3.19,1.34" transform="translate(-6.12 -32.05)"/><path class="cls-18" d="M249.78,309.55a15.12,15.12,0,0,0,2.9,6.39" transform="translate(-6.12 -32.05)"/><path class="cls-18" d="M247,314.67s-.66,7.26,4,12.06,3.27,7.8,3.27,7.8" transform="translate(-6.12 -32.05)"/><path class="cls-18" d="M239.29,323s2.76,7.36-1.62,9.81" transform="translate(-6.12 -32.05)"/><path class="cls-18" d="M249.78,253.69s10.43,2.1,12,6.66,0,9.82,0,9.82" transform="translate(-6.12 -32.05)"/><path class="cls-7" d="M115.73,412.24c-8.84-4.9-7.13-22.55-1.28-44.59,2.88-10.83,12.79-38.09,12.59-39.11a26.09,26.09,0,0,0-2.19-5.29s2.84-2.91,4.06-3.43c5.16-2.2,15.33-5,20-3,1.46.6,3.58,4,3.28,5.39s-4.47,6-4.07,10.35-3.41,18.85-3.3,24.61c0,1.19.07,2.68.14,4.29,0,1,0,19.06-6.94,28.27" transform="translate(-6.12 -32.05)"/><path class="cls-1" d="M144.48,275.36c.19,1.76,4,14.26,5.14,27a25.27,25.27,0,0,0,6.73-3.63c2.37-2.07,7.34-.41,7.13,1s-4.76,1.14-8.63,6.33-4.64,10.92-9.77,13.69-13.1,3.74-16.17.05-6.56-23.25-5.35-25.29a15.15,15.15,0,0,1,3.8-3.84s1.3-3.82,3.28-4.11,6.71-.4,6.71-.4a5.48,5.48,0,0,1,3.79-1s-1.54-14.68-2.9-19.61S142.93,260.63,144.48,275.36Z" transform="translate(-6.12 -32.05)"/><path class="cls-4" d="M141.14,285.13c4.05,1.83,5.84,9.53,5.84,10.08a71.25,71.25,0,0,1-2.92,8c-1,2.2-3.19,0-3.19,0s-.66,2.88-2.2,1.61c-2-1.61-2-6.82-2-6.82s-.23,4.33-1.37,6.45-3.42.71-3.09-5.56c0,0-4.66-1.14-4.83-2.28" transform="translate(-6.12 -32.05)"/><path class="cls-4" d="M136.71,298c-1.14-2.94-5.54-5.63-5.54-5.63" transform="translate(-6.12 -32.05)"/><path class="cls-4" d="M140.87,303.25s2.3-6.63,1.68-8-4.53-5.16-4.53-5.16" transform="translate(-6.12 -32.05)"/><path class="cls-4" d="M149.62,302.4s-4.3.93-6.22,6.43" transform="translate(-6.12 -32.05)"/><path class="cls-4" d="M127,328.54s7,5.73,14.44.91" transform="translate(-6.12 -32.05)"/><path class="cls-4" d="M132.89,345.51a17.83,17.83,0,0,1-4.27,1.8" transform="translate(-6.12 -32.05)"/><path class="cls-4" d="M149.62,326.73a55.7,55.7,0,0,1-13.33,16.44" transform="translate(-6.12 -32.05)"/><path class="cls-4" d="M175.82,347.19s13.58,12.75,21.53,16.25" transform="translate(-6.12 -32.05)"/><path class="cls-4" d="M162.28,361a22.06,22.06,0,0,1,1.2,5.26" transform="translate(-6.12 -32.05)"/><path class="cls-4" d="M157.57,350.19c1.22,2.3,2.32,4.67,3.32,7.07" transform="translate(-6.12 -32.05)"/><path class="cls-4" d="M213,367.65s22.23.3,36.49-9.43" transform="translate(-6.12 -32.05)"/><path class="cls-4" d="M259.42,349.79a29,29,0,0,0-5.21,4.53" transform="translate(-6.12 -32.05)"/><path class="cls-4" d="M270.58,366.08a35.38,35.38,0,0,1-7.73,6.05" transform="translate(-6.12 -32.05)"/><path class="cls-4" d="M275.42,360.17a35.63,35.63,0,0,1-2.35,3.14" transform="translate(-6.12 -32.05)"/><path class="cls-4" d="M158.18,393.53s5.42-7,5.3-15.44" transform="translate(-6.12 -32.05)"/><path class="cls-4" d="M273.52,405.89s-1.17-14.14,8.75-24.46" transform="translate(-6.12 -32.05)"/><path class="cls-4" d="M284.24,389.21c.48.48-8.46,8.27-10.58,11.76" transform="translate(-6.12 -32.05)"/><path class="cls-4" d="M186.59,424.15s32.52,12.93,49.36,12.66" transform="translate(-6.12 -32.05)"/><rect class="cls-17" x="210.78" y="360.89" width="6.13" height="8.16" rx="1.14"/><path class="cls-5" d="M221.89,401.71H218a1.74,1.74,0,0,1-1.74-1.74v-5.89a1.74,1.74,0,0,1,1.74-1.74h3.86a1.74,1.74,0,0,1,1.74,1.74V400A1.74,1.74,0,0,1,221.89,401.71ZM218,393.55a.53.53,0,0,0-.53.53V400a.53.53,0,0,0,.53.53h3.86a.53.53,0,0,0,.53-.53v-5.89a.53.53,0,0,0-.53-.53Z" transform="translate(-6.12 -32.05)"/><path class="cls-4" d="M232.21,343.64s17.27,3.55-12.25,48.41c0,0-34.38-43.56-17.57-49.88" transform="translate(-6.12 -32.05)"/><path class="cls-5" d="M220.57,391.59c0,.66-.29,1.2-.65,1.2s-.66-.54-.66-1.2.3-1.19.66-1.19S220.57,390.94,220.57,391.59Z" transform="translate(-6.12 -32.05)"/></svg>