<svg id="Component_61_8" data-name="Component 61 – 8" xmlns="http://www.w3.org/2000/svg" width="1242.764" height="862.645" viewBox="0 0 1242.764 862.645">
  <g id="Group_6697" data-name="Group 6697" transform="translate(0 38.228)">
    <path id="Path_34903" data-name="Path 34903" d="M95.868,201.749c-6.824-9.607-10.555-13.876-9.008-27.09.839-7.168,11.055-8.712,5.876-15.092S84.823,168.737,81.295,170s-6.655-34.781-11.033-40.036-8.687.506-3.862,10.368a54.255,54.255,0,0,1,5.376,18.34s-13.151-21.782-17.248-23.822-5.015,4.982-1.994,9.569,12.514,14.005,14.195,18.944c0,0-18.289-13.477-26.395-15.891s-6.632,5.1-3.048,7.694,20.286,6.6,25.417,13.072c0,0-18.221-6.551-23.984-3.061s-2.689,8.669,1.011,9.956,9.129-1.858,14.814-2.838,4.984.033,6.978,8.682,1.8,14.478,9.511,13.414c5.113-.7,9.792,1.38,12.779,14.925C87.849,206.844,91.809,204.2,95.868,201.749Z" transform="translate(-34.406 -127.977)" fill="#ffc0a4"/>
    <path id="Path_34904" data-name="Path 34904" d="M66.963,160.113C86.2,180.991,96.034,191.454,109.306,209.3s32.036,34.218,32.036,34.218l-26.511,20.251S86.758,229.979,76.959,218.2,62,190.229,54.906,167.678,66.963,160.113,66.963,160.113Z" transform="translate(-5.5 -86.341)" fill="#ffc0a4"/>
    <path id="Path_34905" data-name="Path 34905" d="M80.578,215.338l26.511-20.251s-3.589-3.134-8.74-8.151l-22.6,22.6Z" transform="translate(28.753 -37.914)" fill="#f69d7d"/>
    <path id="Path_34906" data-name="Path 34906" d="M73.276,226.233c12.858,11.4,66.155,55.6,66.155,55.6l11.227-71.19-15.911-4.747c-7.613-6.089-21.123-11.553-29.329-20.084Z" transform="translate(24.97 -39.635)" fill="#7770d0"/>
    <path id="Path_34907" data-name="Path 34907" d="M109.373,206.706s4.845-1.324,6.4-4.355-9.885-22.664-9.885-22.664,5.333-7.07,3.723-15.031-8.091-13.692-16.166-11.432-19.088,6.733-15.678,16.366c1.969,5.563,13.194,23.544,16.75,27.621S109.373,206.706,109.373,206.706Z" transform="translate(30.852 -90.17)" fill="#251b19"/>
    <g id="Group_6685" data-name="Group 6685" transform="translate(198.118 276.017)">
      <path id="Path_34908" data-name="Path 34908" d="M206.5,241.574c-1.678-2.725-2.881-4.393-2.881-4.393L112.79,268.093s.23,1.974.677,5.331c.639.5,1.15.862,1.15.862C160.591,278.926,190.312,270.17,206.5,241.574Z" transform="translate(-112.79 -237.181)" fill="#330e00"/>
    </g>
    <path id="Path_34909" data-name="Path 34909" d="M99.777,250.006l23.478,48.261,8.134,57.739s80.957,6.182,117.836-37.107L205.85,206.485Z" transform="translate(65.451 -8.053)" fill="#7770d0"/>
    <g id="Group_6687" data-name="Group 6687" transform="translate(146.037 158.626)">
      <g id="Group_6686" data-name="Group 6686">
        <path id="Path_34910" data-name="Path 34910" d="M194,193.173c10.967,1.228,19.566,4.039,23.448,37.369l19.128,80.241s8.649,12.094,6.546,15.822c-16.179,28.677-45.918,37.455-91.944,32.812,0,0-2.975-2.118-3.584-3.144-3.258-5.5-3.137-23.564-3.137-23.564l-33.909-58.4S81.6,237.51,96.392,224.825C136.112,190.749,139.16,187.033,194,193.173Z" transform="translate(-92.184 -190.736)" fill="#7770d0"/>
      </g>
    </g>
    <g id="Group_6689" data-name="Group 6689" transform="translate(151.182 125.862)">
      <g id="Group_6688" data-name="Group 6688">
        <path id="Path_34911" data-name="Path 34911" d="M148.918,218.241c-3.45,3.124-11.339,6.064-15.739,7.123-6.536,1.592-4.721-2.823-7.042-2.934L94.22,177.773l42.318,9.091.442,1.615Z" transform="translate(-94.22 -177.773)" fill="#ffc0a4"/>
      </g>
    </g>
    <g id="Group_6690" data-name="Group 6690" transform="translate(151.182 125.862)">
      <path id="Path_34912" data-name="Path 34912" d="M135.022,205.2a39.522,39.522,0,0,1-12.59-.9,82.556,82.556,0,0,1-11.753-3.5L94.22,177.773l42.318,9.091.442,1.615,6.309,15.726C140.532,204.517,137.787,204.936,135.022,205.2Z" transform="translate(-94.22 -177.773)" fill="#f69d7d"/>
    </g>
    <g id="Group_6692" data-name="Group 6692" transform="translate(168.655 149.211)">
      <g id="Group_6691" data-name="Group 6691">
        <path id="Path_34913" data-name="Path 34913" d="M107.49,197s18.706,11.515,22.543,10.014,1.466-19.983,1.466-19.983,7.36-.286,9.554,1.271c5.715,4.064,11.179,22.293,9.516,23.637-3.5,2.821-16.9-3.842-19.368-2.528-2.578,1.378-6.235,15.6-8.293,15.807s-21.418-12.114-21.762-18.1S107.49,197,107.49,197Z" transform="translate(-101.133 -187.011)" fill="#fff"/>
      </g>
    </g>
    <path id="Path_34914" data-name="Path 34914" d="M92.477,202.178S78.5,202,83.767,217.513s16.854,13.35,20.4,13.307c0,0,12.43,26.966,46.795,16.737s23.023-36.106,18.7-53.945c-5.126-21.14-8.816-49.476-32.183-46.853C113.905,149.406,80.878,158.1,92.477,202.178Z" transform="translate(39.183 -99.544)" fill="#ffc0a4"/>
    <path id="Path_34915" data-name="Path 34915" d="M148.672,161.233c-2.26-5.391-5.141-10-9.069-13.065-18.18.715-48.65,10.221-48.65,10.221v14.518S134.437,174.775,148.672,161.233Z" transform="translate(51.972 -97.134)" fill="#f69d7d"/>
    <path id="Path_34916" data-name="Path 34916" d="M97.305,208.236s3.425,1.016,8.07,6.822,6.273,1.557,3.281-9.385c0,0,6.592-7.744-.086-24.3,0,0,71.074-8.71,63.913-27.583s-73.409-10.454-86.373.581-3.094,24.388-3.094,24.388Z" transform="translate(34.355 -105.602)" fill="#251b19"/>
    <g id="Group_6693" data-name="Group 6693" transform="translate(154.438 88.47)">
      <path id="Path_34917" data-name="Path 34917" d="M112.5,165.107c-.134.326-1.211.144-2.854.063a16.37,16.37,0,0,0-11.672,3.705c-.65.518-1.178.94-1.554,1.244-.394.3-.675.45-.816.351s-.131-.4.038-.895a7.443,7.443,0,0,1,1.1-1.906,12.48,12.48,0,0,1,13.216-4.193C111.742,164.038,112.629,164.821,112.5,165.107Z" transform="translate(-95.508 -162.979)" fill="#251b19"/>
    </g>
    <g id="Group_6694" data-name="Group 6694" transform="translate(184.712 79.613)">
      <path id="Path_34918" data-name="Path 34918" d="M107.582,166.969c-.27-.162,0-1.312,1.137-2.8a12.47,12.47,0,0,1,13.214-4.2,7.289,7.289,0,0,1,2,.923c.422.3.6.554.546.71s-.374.2-.869.182c-.48-.03-1.155-.071-1.987-.121a16.369,16.369,0,0,0-11.67,3.705C108.654,166.388,107.881,167.156,107.582,166.969Z" transform="translate(-107.486 -159.475)" fill="#251b19"/>
    </g>
    <path id="Path_34919" data-name="Path 34919" d="M128.422,174.908a8.808,8.808,0,1,1-10.76-6.276A8.806,8.806,0,0,1,128.422,174.908Z" transform="translate(82.739 -66.32)" fill="#f9b092"/>
    <path id="Path_34920" data-name="Path 34920" d="M111.25,179.112a8.806,8.806,0,1,1-10.76-6.276A8.808,8.808,0,0,1,111.25,179.112Z" transform="translate(56.51 -59.9)" fill="#f9b092"/>
    <path id="Path_34921" data-name="Path 34921" d="M84.374,174.639c-.311,4.471,2.368,8.538,4.934,12.213a7.053,7.053,0,0,0,2.826,2.745c1.233.5,2.965.013,3.278-1.281.3-1.254-.781-2.358-1.645-3.311s-1.572-2.515-.662-3.425c.425-.425,1.077-.536,1.537-.923,1-.837.645-2.444.088-3.624a19.728,19.728,0,0,0-2.955-4.519c-1.163-1.335-2.818-2.6-4.544-2.2C85.425,170.734,84.5,172.792,84.374,174.639Z" transform="translate(41.884 -63.419)" fill="#f9b092"/>
    <g id="Group_6695" data-name="Group 6695" transform="translate(181.058 94.779)">
      <path id="Path_34922" data-name="Path 34922" d="M110.493,186.1c.066.19.5.313,1.147-.015a3.716,3.716,0,0,0,1.752-2.381,7.349,7.349,0,0,0-.336-4.158c-.46-1.352-.968-2.641-1.529-4.084-2.239-5.672-4.314-10.221-5.159-9.974s-.081,5.31,2.217,11.131c.559,1.436,1.213,2.851,1.754,3.978a7.408,7.408,0,0,1,.844,2.765C111.252,184.939,110.357,185.692,110.493,186.1Z" transform="translate(-106.04 -165.475)" fill="#f69d7d"/>
    </g>
    <g id="Group_6696" data-name="Group 6696" transform="translate(175.37 121.021)">
      <path id="Path_34923" data-name="Path 34923" d="M121.567,175.992c-.589-.687-4.039,1.456-8.771,1.9-4.719.569-8.546-.8-8.978,0-.192.364.581,1.264,2.252,2.065a13.988,13.988,0,0,0,13.735-1.468C121.268,177.35,121.832,176.308,121.567,175.992Z" transform="translate(-103.79 -175.858)" fill="#f69d7d"/>
    </g>
    <path id="Path_34924" data-name="Path 34924" d="M98.867,172.252a4.664,4.664,0,1,0,3.829-5.373A4.665,4.665,0,0,0,98.867,172.252Z" transform="translate(63.962 -68.652)" fill="#251b19"/>
    <path id="Path_34925" data-name="Path 34925" d="M108.464,170.188a4.664,4.664,0,1,0,3.827-5.374A4.665,4.665,0,0,0,108.464,170.188Z" transform="translate(78.621 -71.805)" fill="#251b19"/>
    <path id="Path_34926" data-name="Path 34926" d="M115.2,198.124a2.143,2.143,0,0,0-1.618,2.447,2.277,2.277,0,0,0,2.474,1.759,2.217,2.217,0,0,0,1.287-3.485A1.908,1.908,0,0,0,115.2,198.124Z" transform="translate(86.481 -20.951)" fill="#fff"/>
    <path id="Path_34927" data-name="Path 34927" d="M117.061,203.542a2.144,2.144,0,0,0-1.615,2.449,2.276,2.276,0,0,0,2.472,1.757,2.218,2.218,0,0,0,1.289-3.485A1.911,1.911,0,0,0,117.061,203.542Z" transform="translate(89.322 -12.675)" fill="#fff"/>
  </g>
  <g id="Group_6699" data-name="Group 6699" transform="translate(1144.917 184.308)">
    <path id="Path_34928" data-name="Path 34928" d="M449.232,249.627c19.308-19.106,11.708-30.024,15.6-33.154,28.958-23.266,10.133-25.083,20.177-30.583,4.944-2.707,6.417,41.932-2.886,47.679-7.35,4.542-26.382,47.985-32.916,58.644-6.046,9.857-11.927,20.892-24.014,24.085-5.722,1.511-13.214-.306-15.906-6.038-3.025-6.438,1.254-14.369,4.383-19.93C418.5,281.744,438.768,259.98,449.232,249.627Z" transform="translate(-408.256 -185.772)" fill="#ffc0a4"/>
    <g id="Group_6698" data-name="Group 6698" transform="translate(63.16 19.236)">
      <path id="Path_34929" data-name="Path 34929" d="M435.506,224.837c2.373-10.4,4.972-20.748,7.507-31.111,15.216-.412,22-.766,21.433,4.16-.632,5.452-8.96,7.08-8.96,7.08s3.918,7.762-2.414,9-1.544,1.3-6.579,9.114C442.545,229.207,439.649,225.757,435.506,224.837Z" transform="translate(-429.792 -193.193)" fill="#ffc0a4"/>
      <path id="Path_34930" data-name="Path 34930" d="M437.8,223.647a4.226,4.226,0,0,1-3.607-2.118,5.158,5.158,0,0,1-.328-4.236,6.609,6.609,0,0,1,2.737-3.321,4.127,4.127,0,0,1-3.336-3.367,6.249,6.249,0,0,1,1.643-4.464,18.563,18.563,0,0,1,3.753-3.1,3.769,3.769,0,0,1-3.091-3.607,5.178,5.178,0,0,1,2.573-4.347,6.065,6.065,0,0,1,8.826,3.084c.743,2.009.379,4.239-.02,6.344a50.519,50.519,0,0,1-2.975,10.76C442.483,218.693,440.908,221.592,437.8,223.647Z" transform="translate(-433.245 -192.106)" fill="#f9b092"/>
      <path id="Path_34931" data-name="Path 34931" d="M459.884,193.762c-15.532-1.863-32.984,3.392-19.042,10.221,0,0-16.366,7.256-.227,11.434,0,0-16.849,9.615,2.694,11.21Z" transform="translate(-432.855 -193.383)" fill="#ffc0a4"/>
    </g>
  </g>
  <g id="Group_6708" data-name="Group 6708" transform="translate(948.113 92.32)">
    <path id="Path_34932" data-name="Path 34932" d="M411.415,209.96s-4.719-1.989-5.882-5.26,13.032-21.588,13.032-21.588-4.441-7.861-1.749-15.691,9.3-10.006,17.162-6.637c4.464,1.913,8.9,7.524,11.9,12.016a4.611,4.611,0,0,1-3.245,7.118h0s-8.23,17.005-12.37,20.65S411.415,209.96,411.415,209.96Z" transform="translate(-215.714 -134.295)" fill="#251b19"/>
    <g id="Group_6700" data-name="Group 6700" transform="translate(28.705 230.738)">
      <path id="Path_34933" data-name="Path 34933" d="M341.749,244.975c1.868-2.677,3.187-4.307,3.187-4.307l90.688,36.723s-.349,2-1,5.389c-.68.47-1.221.811-1.221.811C386.332,285.655,356.581,275.025,341.749,244.975Z" transform="translate(-341.749 -240.668)" fill="#330e00"/>
    </g>
    <path id="Path_34934" data-name="Path 34934" d="M383.923,310.178c8.108,3.111,28.364-6.008,45.963-62.17l-35.269-7.34-4.646,10.436Z" transform="translate(-248.622 -9.928)" fill="#ffc0a4"/>
    <path id="Path_34935" data-name="Path 34935" d="M385.877,248.754l5.755-7.365,34.839,6.855c-.425,1.327-.847,2.649-1.271,3.923l-19.1.195-3.587,15.153Z" transform="translate(-245.637 -8.828)" fill="#f69d7d"/>
    <path id="Path_34936" data-name="Path 34936" d="M452.131,282.209c-3.693,14.109-6.789,27.6-9.655,40.814a243.266,243.266,0,0,1-111.039-23.279c7.1-24.4,12.023-41.709,14.4-50.118A476.774,476.774,0,0,1,452.131,282.209Z" transform="translate(-328.796 3.755)" fill="#ee4b4e"/>
    <path id="Path_34937" data-name="Path 34937" d="M467.036,205.71,440.28,193.57s-16.927,7.82-53.859,64.343-48.142,104.432-48.142,104.432,35.8,23.37,65.569,23.471Z" transform="translate(-318.344 -81.873)" fill="#fff"/>
    <path id="Path_34938" data-name="Path 34938" d="M405.563,400.606c2.5-23.349,15.4-114.355,69.952-191.7l-22.467-7.287s-66.906,66.173-103.9,176.876a83.181,83.181,0,0,1-18.754-17.761l57.372-131.99c-1.865-32.752,14.8-36.075,26.034-36.692,44.464-2.437,93.291,24.848,110.592,50.887,10.995,16.548-22.695,39.27-22.695,39.27l-11.349,14.776-26.825,38.426-13.846,69.479A228.35,228.35,0,0,1,405.563,400.606Z" transform="translate(-330.392 -84.423)" fill="#ff8700"/>
    <g id="Group_6702" data-name="Group 6702" transform="translate(122.138 83.624)">
      <g id="Group_6701" data-name="Group 6701">
        <path id="Path_34939" data-name="Path 34939" d="M401.7,223.323l38.252-40.86-44,3.516-.662,1.572-16.06,28.485s-2.78,7.663,4.544,11.227C392.962,231.735,401.7,223.323,401.7,223.323Z" transform="translate(-378.715 -182.463)" fill="#ffc0a4"/>
      </g>
    </g>
    <g id="Group_6703" data-name="Group 6703" transform="translate(130.231 83.624)">
      <path id="Path_34940" data-name="Path 34940" d="M390.139,204.715a40.326,40.326,0,0,0,12.847.773,84.757,84.757,0,0,0,12.35-1.956l19.725-21.069-44,3.516-.662,1.572L381.917,202.6C384.662,203.287,387.379,204.078,390.139,204.715Z" transform="translate(-381.917 -182.463)" fill="#f69d7d"/>
    </g>
    <path id="Path_34941" data-name="Path 34941" d="M463.981,212.137s14.152,1.7,6.748,16.672-18.828,11.235-22.406,10.717c0,0-16.184,25.589-49.547,10.641s-18.226-39.505-11.667-57.039,15.544-48.832,38.813-43.046C449.4,155.917,481.618,169.133,463.981,212.137Z" transform="translate(-257.755 -149.378)" fill="#ffc0a4"/>
    <path id="Path_34942" data-name="Path 34942" d="M446.566,193.666c.87.907,2.116,1.751,3.3,1.329,1.089-.387,1.557-1.643,1.891-2.753,1.178-3.923,2.366-8.086,1.35-12.054-.778-3.038-2.775-5.614-4.931-7.891-8.912-9.423-21.289-15.218-34.1-17.266a79.012,79.012,0,0,0-22.523-.179,85.614,85.614,0,0,0-7.59,14.877,49.964,49.964,0,0,0,20.625.8A20.933,20.933,0,0,1,395,174.927c7.155,4.335,14.912,7.838,23.137,9.372s16.96,1.021,24.608-2.373A14.441,14.441,0,0,0,446.566,193.666Z" transform="translate(-248.563 -142.109)" fill="#f69d7d"/>
    <path id="Path_34943" data-name="Path 34943" d="M405.52,176.777a4.756,4.756,0,1,1-3.314-5.854A4.756,4.756,0,0,1,405.52,176.777Z" transform="translate(-229.902 -116.733)" fill="#251b19"/>
    <path id="Path_34944" data-name="Path 34944" d="M396,173.667a4.756,4.756,0,1,1-3.314-5.854A4.753,4.753,0,0,1,396,173.667Z" transform="translate(-244.436 -121.483)" fill="#251b19"/>
    <path id="Path_34945" data-name="Path 34945" d="M380.279,175.742a8.981,8.981,0,1,0,11.718-4.9A8.983,8.983,0,0,0,380.279,175.742Z" transform="translate(-255.218 -117.623)" fill="#f9b092"/>
    <path id="Path_34946" data-name="Path 34946" d="M397.073,182.292a8.981,8.981,0,1,0,11.718-4.9A8.982,8.982,0,0,0,397.073,182.292Z" transform="translate(-229.564 -107.616)" fill="#f9b092"/>
    <path id="Path_34947" data-name="Path 34947" d="M421.547,180.918c-.286,4.562-3.541,8.313-6.627,11.685A7.177,7.177,0,0,1,411.694,195c-1.312.344-3-.382-3.139-1.734-.137-1.307,1.1-2.277,2.105-3.127s1.928-2.33,1.13-3.374c-.374-.483-1.019-.685-1.431-1.135-.9-.983-.324-2.56.4-3.678a20.155,20.155,0,0,1,3.592-4.173c1.355-1.193,3.2-2.249,4.888-1.613C421.006,176.829,421.663,179.033,421.547,180.918Z" transform="translate(-211.012 -108.754)" fill="#f9b092"/>
    <g id="Group_6704" data-name="Group 6704" transform="translate(145.987 48.139)">
      <path id="Path_34948" data-name="Path 34948" d="M391.207,191.62c.243-.384-.9-1.428-.718-3.372a3.848,3.848,0,0,1,.4-1.39,4.688,4.688,0,0,1,1.112-1.254c.991-.9,2.694-1.666,4.193-3.488a12.825,12.825,0,0,0,2.333-5.356,39.3,39.3,0,0,0,.594-4.309c.2-2.368.455-3.8.048-4.006-.387-.2-1.469,1.1-2.272,3.513-.862,2.335-1.37,5.755-3.225,8.151-.842,1.11-2.4,1.989-3.715,3.341a6.5,6.5,0,0,0-1.549,2.419,5.507,5.507,0,0,0-.2,2.512,4.419,4.419,0,0,0,1.719,2.977C390.621,191.819,391.106,191.8,391.207,191.62Z" transform="translate(-388.151 -168.424)" fill="#f69d7d"/>
    </g>
    <g id="Group_6705" data-name="Group 6705" transform="translate(144.874 34.511)">
      <path id="Path_34949" data-name="Path 34949" d="M387.712,164.142c.116.912,3.7,1.147,7.277,3.286,3.647,2.025,5.646,5.007,6.493,4.648.384-.172.384-1.261-.356-2.783a11.875,11.875,0,0,0-10.828-6.238C388.612,163.176,387.669,163.725,387.712,164.142Z" transform="translate(-387.71 -163.032)" fill="#251b19"/>
    </g>
    <g id="Group_6706" data-name="Group 6706" transform="translate(169.599 42.498)">
      <path id="Path_34950" data-name="Path 34950" d="M397.493,167.12c.071.912,3.561,1.342,6.8,3.809,3.324,2.353,4.78,5.558,5.672,5.351.4-.1.6-1.17.1-2.778a11.077,11.077,0,0,0-9.951-7.31C398.431,166.2,397.468,166.7,397.493,167.12Z" transform="translate(-397.493 -166.192)" fill="#251b19"/>
    </g>
    <path id="Path_34951" data-name="Path 34951" d="M439.69,214.49c.976,18.517-.372,39.816-8.985,76.387a96.219,96.219,0,0,1-43.466-9.488l29.142-45.824Z" transform="translate(-243.557 -49.917)" fill="#ff8700"/>
    <path id="Path_34952" data-name="Path 34952" d="M351.938,215.652s-17.748,25.758-19.545,32.256,29.855-14.695,29.855-14.695l4.982-12.089Z" transform="translate(-327.449 -48.142)" fill="#f9b092"/>
    <path id="Path_34953" data-name="Path 34953" d="M380.769,194.566c-13.057,10.863-40.688,53.3-40.688,53.3l19.338,16.874,22.429-54.7Z" transform="translate(-315.592 -80.352)" fill="#ff8700"/>
    <path id="Path_34954" data-name="Path 34954" d="M388.3,204.632l9.3-9.933s7.929,10.123,4.466,13.211-13.527,6.936-14.328,5.879S388.3,204.632,388.3,204.632Z" transform="translate(-243.18 -80.149)" fill="#bf6217"/>
    <path id="Path_34955" data-name="Path 34955" d="M386.235,203.865s-8.621,4.815-11.533,2.325,6.134-13.709,8.947-14.594,10.161-1.165,10.161-1.165Z" transform="translate(-263.579 -86.668)" fill="#bf6217"/>
    <g id="Group_6707" data-name="Group 6707" transform="translate(139.276 73.458)">
      <path id="Path_34956" data-name="Path 34956" d="M385.587,178.514c-.321.268.182,1.6,1.825,3.137a13.716,13.716,0,0,0,16.416,1.357c1.87-1.244,2.588-2.48,2.318-2.8-.546-.72-4.81,2.151-10.489,1.643C389.975,181.423,386.242,177.892,385.587,178.514Z" transform="translate(-385.496 -178.441)" fill="#f69d7d"/>
    </g>
  </g>
  <path id="Path_34957" data-name="Path 34957" d="M381.344,247.219s6.748,6.529,4.294,9.653-10.881-3.991-10.881-3.991Z" transform="translate(685.489 92.397)" fill="#f69d7d"/>
  <g id="Group_6726" data-name="Group 6726" transform="translate(116.2 248.369)">
    <path id="Path_34959" data-name="Path 34959" d="M101.327,223.289c1.782-6.349,7.891-10.952,14.412-11.94s13.247,1.259,18.605,5.1,9.481,9.177,12.931,14.8,6.3,11.586,9.62,17.283c1.84,3.157,3.89,6.3,6.822,8.485s6.941,3.24,10.32,1.848c4.469-1.843,6.357-7.054,7.545-11.738,2.113,8.432,5.326,16.629,6.415,25.252s-.293,18.115-6.233,24.461c-4.785,5.111-11.9,7.492-18.883,8.03a44.553,44.553,0,0,1-45.6-30.085c-2.651-7.795-3.106-16.083-4.668-24.118-.632-3.248-1.155-7.931-3.384-10.535-1.81-2.116-4.413-3.058-6.031-5.515A14.068,14.068,0,0,1,101.327,223.289Z" transform="translate(-49.105 -211.117)" fill="#251b19"/>
    <path id="Path_34960" data-name="Path 34960" d="M188.693,399.827c.081,10.181,2.8,21.155,2.477,25.877s8.985,31.028,10.176,43.236S209.08,590.3,209.08,590.3l-9.969,12.943-11.546-5.136s-2.654-45.177-12-69.613-15.249-62.483-15.795-92.421-20.112-59.667-20.453-84.781S188.693,399.827,188.693,399.827Z" transform="translate(9.643 -4.965)" fill="#ffc0a4"/>
    <g id="Group_6710" data-name="Group 6710" transform="translate(57.77 121.401)">
      <g id="Group_6709" data-name="Group 6709">
        <path id="Path_34961" data-name="Path 34961" d="M107.207,283.363c9.14-9.842,25.889-24.287,54.554-24.214a114.1,114.1,0,0,1,40.521,9.41s-25.538,47.892-53.058,57.481c-40.9,14.253-41.939-30.78-41.939-30.78S98.227,293.144,107.207,283.363Z" transform="translate(-103.236 -259.149)" fill="#ff7ea0"/>
      </g>
    </g>
    <g id="Group_6712" data-name="Group 6712" transform="translate(64.799 77.721)">
      <g id="Group_6711" data-name="Group 6711">
        <path id="Path_34962" data-name="Path 34962" d="M117.563,304.378c1.335,5.654,10.29,5.51,14.076,3.253,5.631-3.341,6.112-9.481,5.823-12.961l-8.182-52.8L106.017,277l.791,1.425Z" transform="translate(-106.017 -241.867)" fill="#ffc0a4"/>
      </g>
    </g>
    <g id="Group_6714" data-name="Group 6714" transform="translate(64.799 118.899)">
      <g id="Group_6713" data-name="Group 6713">
        <path id="Path_34963" data-name="Path 34963" d="M135.662,258.159s-4.865,23.847-8.71,25.331-13.831-14.715-13.831-14.715-6.367,5.725-6.93,8.356c-1.474,6.855,6.8,23.991,8.94,23.857,4.484-.278,9.872-14.245,12.579-14.94,2.833-.725,15.135,7.3,16.79,6.058s7.618-23.4,3.829-28.045S135.662,258.159,135.662,258.159Z" transform="translate(-106.017 -258.159)" fill="#fff"/>
      </g>
    </g>
    <path id="Path_34964" data-name="Path 34964" d="M115.892,271.763a2.145,2.145,0,0,1,2.846.713,2.276,2.276,0,0,1-.637,2.967,2.217,2.217,0,0,1-3.3-1.7A1.907,1.907,0,0,1,115.892,271.763Z" transform="translate(-27.83 -118.874)" fill="#fff"/>
    <path id="Path_34965" data-name="Path 34965" d="M118.179,277.015a2.143,2.143,0,0,1,2.846.715,2.273,2.273,0,0,1-.637,2.965,2.217,2.217,0,0,1-3.3-1.7A1.907,1.907,0,0,1,118.179,277.015Z" transform="translate(-24.336 -110.852)" fill="#fff"/>
    <g id="Group_6716" data-name="Group 6716" transform="translate(64.799 77.721)">
      <g id="Group_6715" data-name="Group 6715">
        <path id="Path_34966" data-name="Path 34966" d="M119.554,288.725a38.489,38.489,0,0,0,8.144-9.2,80.371,80.371,0,0,0,5.8-10.434l-4.218-27.227L106.017,277l.791,1.425,6.314,15.239C115.255,292,117.449,290.423,119.554,288.725Z" transform="translate(-106.017 -241.867)" fill="#f69d7d"/>
      </g>
    </g>
    <path id="Path_34967" data-name="Path 34967" d="M164.265,366.053s-8.819,12.706-6.342,35.638c5.047,46.734-4.893,80.011-6.678,92.636-3.03,21.451-7.446,40.117-7.59,61.153l-22.235-7.54c-1.117-22.351.586-44.954.263-67.328-.561-38.866-.963-78.171-3.344-117.037C117.955,357.3,164.265,366.053,164.265,366.053Z" transform="translate(-22.398 18.304)" fill="#ffc0a4"/>
    <path id="Path_34968" data-name="Path 34968" d="M141.958,442.687,143.3,456.7l-3.3,9.171-16.483-4.985-4.061-10.36.277-15.374Z" transform="translate(-20.701 131.097)" fill="#ffc0a4"/>
    <path id="Path_34969" data-name="Path 34969" d="M200.211,451.042l1.368,5.9-43.564.48-.3-5.912Z" transform="translate(37.758 155.373)" fill="#fefdfb"/>
    <path id="Path_34970" data-name="Path 34970" d="M200.784,469.829a26.521,26.521,0,0,0-7.1-11.647,61.288,61.288,0,0,1-7.775-8.419s3.817-9.054,1.375-10.451-19.917.22-19.917.22,2.025,16.8,1.107,17.41-10.509-4.026-11.015-3.309.834,16.664.834,16.664Z" transform="translate(37.186 136.587)" fill="#fff"/>
    <path id="Path_34971" data-name="Path 34971" d="M109.967,457.681c31.319-7.807,32.239-16.79,32.246-16.79a15.149,15.149,0,0,0,10.226,10.062c5.646,1.726,13.727-3.025,13.727-3.025l2.5,19.864-64.04.705S103.069,459.4,109.967,457.681Z" transform="translate(-43.572 139.868)" fill="#7770d0"/>
    <path id="Path_34972" data-name="Path 34972" d="M116.473,452.857a137.479,137.479,0,0,0,4.57-14.225c.521-2.421,9.5,2.611,9.552,4.873S129.826,458.66,116.473,452.857Z" transform="translate(-25.246 135.434)" fill="#7770d0"/>
    <path id="Path_34973" data-name="Path 34973" d="M116.142,320.276c-2.7,26.124,2.634,296.019,2.634,296.019s9.536,10.686,34.6,6.746l16.962-233.366,47.308,237.213s12.165,6.582,30.6-3.847L225.2,389.07s4.32-42.52-8.533-65.748S116.142,320.276,116.142,320.276Z" transform="translate(-26.919 -56.794)" fill="#97d2ff"/>
    <path id="Path_34974" data-name="Path 34974" d="M171.592,329.719a16.323,16.323,0,0,0,7.229-7.605c-1.987-2.861-4.145-5.78-6.45-8.647l-21.421,13.05A9.334,9.334,0,0,0,151,337.248C156.313,332.287,165.051,333.068,171.592,329.719Z" transform="translate(24.861 -54.776)" fill="#60aed2"/>
    <g id="Group_6717" data-name="Group 6717" transform="translate(88.72 255.351)">
      <path id="Path_34975" data-name="Path 34975" d="M115.481,326.652a127.672,127.672,0,0,0,60.436,13.654,121.347,121.347,0,0,0,43.921-9.559,52.355,52.355,0,0,0-3.331-7.426c-12.852-23.225-100.522-3.046-100.522-3.046C115.8,322.042,115.633,324.193,115.481,326.652Z" transform="translate(-115.481 -312.145)" fill="#60aed2"/>
      <path id="Path_34976" data-name="Path 34976" d="M130.267,333.666l11.712,14.965,4.685,50.255L147.6,356.8l-1.718-12.577Z" transform="translate(-92.894 -279.272)" fill="#60aed2"/>
    </g>
    <g id="Group_6719" data-name="Group 6719" transform="translate(55.71 150.437)">
      <g id="Group_6718" data-name="Group 6718">
        <path id="Path_34977" data-name="Path 34977" d="M107.294,290.915S90,323.285,120.569,330.666l12.66,34.344L192.1,345.457s1.254-61.846-.356-74.82Z" transform="translate(-102.421 -270.637)" fill="#ff7ea0"/>
      </g>
    </g>
    <g id="Group_6721" data-name="Group 6721" transform="translate(73.502 208.131)">
      <g id="Group_6720" data-name="Group 6720">
        <path id="Path_34978" data-name="Path 34978" d="M109.46,293.463,121.7,373.547s55.211,1.929,84.245-47.934l-29.011-25.477Z" transform="translate(-109.46 -293.463)" fill="#ff7ea0"/>
      </g>
    </g>
    <path id="Path_34979" data-name="Path 34979" d="M102.916,215.789c20.117.811,34.769,10.6,40.741,20.809,10.648,18.208,7.686,44.477-1.4,54.028s-28.773-45.172-28.773-45.172Z" transform="translate(-45.954 -203.981)" fill="#251b19"/>
    <path id="Path_34980" data-name="Path 34980" d="M159.995,244.946s10.317-10.085,17.21,4.3-2.641,20.764-5.138,23.147c0,0,9.7,27.226-21.178,43.5s-40.418-9.567-49.732-24.818-27.542-40.433-9.493-54.511C109.872,222.355,138.063,206.371,159.995,244.946Z" transform="translate(-74.864 -196.234)" fill="#ffc0a4"/>
    <path id="Path_34981" data-name="Path 34981" d="M141.624,227.911c-6.053-3.308-13.492-2.742-20.172-1.024a65.959,65.959,0,0,0-31.581,18.759,64.578,64.578,0,0,0-5.485,6.766c1.539,6.124,4.671,12.43,8.055,18.3a153.867,153.867,0,0,0,36.735-22.5c-.546-2.74-1.206-5.262-1.749-8a128.7,128.7,0,0,1,26.9,3.569C151.163,237.667,147.665,231.209,141.624,227.911Z" transform="translate(-74.259 -189.132)" fill="#f69d7d"/>
    <path id="Path_34982" data-name="Path 34982" d="M122.335,254.572a34.187,34.187,0,0,1,43.021,29.787c.174-8.614-4.188-16.5-7.183-24.58a8.305,8.305,0,0,1,.463-7.085,10.14,10.14,0,0,1,3.948-2.563s1.807-18.595-13.28-28.71S93.266,212.294,84.88,245.6Z" transform="translate(-73.505 -203.982)" fill="#251b19"/>
    <path id="Path_34983" data-name="Path 34983" d="M91.828,229.486C75.487,244.775,78.417,260.8,89.505,272.3c15.557-4.155,31.185-13.674,43.921-23.529a25.257,25.257,0,0,0-14.541-23.316C110.019,221.466,98.925,222.843,91.828,229.486Z" transform="translate(-80.379 -192.622)" fill="#251b19"/>
    <path id="Path_34984" data-name="Path 34984" d="M108.382,254.235a8.525,8.525,0,1,0,3.2-11.627A8.524,8.524,0,0,0,108.382,254.235Z" transform="translate(-39.311 -164.718)" fill="#f9b092"/>
    <g id="Group_6722" data-name="Group 6722" transform="translate(49.823 57.914)">
      <path id="Path_34985" data-name="Path 34985" d="M100.239,243.078c-.286-.114-.2-1.261.657-2.869a12.145,12.145,0,0,1,12.054-6.074,7.109,7.109,0,0,1,2.062.576c.452.227.665.44.634.6s-.329.253-.809.311l-1.926.192a15.915,15.915,0,0,0-10.643,5.366C101.179,242.352,100.555,243.212,100.239,243.078Z" transform="translate(-100.092 -234.031)" fill="#251b19"/>
    </g>
    <g id="Group_6723" data-name="Group 6723" transform="translate(22.724 72.353)">
      <path id="Path_34986" data-name="Path 34986" d="M104.927,241.024c-.078.336-1.142.326-2.732.5a15.938,15.938,0,0,0-10.646,5.363c-.546.6-.986,1.089-1.3,1.436-.331.351-.579.538-.73.465s-.19-.366-.1-.864a7.167,7.167,0,0,1,.763-2,12.147,12.147,0,0,1,12.051-6.076C104.032,240.114,105.005,240.728,104.927,241.024Z" transform="translate(-89.37 -239.743)" fill="#251b19"/>
    </g>
    <path id="Path_34987" data-name="Path 34987" d="M95.554,261.5a8.526,8.526,0,1,0,3.2-11.624A8.525,8.525,0,0,0,95.554,261.5Z" transform="translate(-58.904 -153.621)" fill="#f9b092"/>
    <path id="Path_34988" data-name="Path 34988" d="M104.011,244.92a4.675,4.675,0,1,0,1.752-6.374A4.673,4.673,0,0,0,104.011,244.92Z" transform="translate(-45.217 -170.154)" fill="#251b19"/>
    <path id="Path_34989" data-name="Path 34989" d="M94.846,250.132a4.676,4.676,0,1,0,1.754-6.377A4.676,4.676,0,0,0,94.846,250.132Z" transform="translate(-59.216 -162.195)" fill="#251b19"/>
    <path id="Path_34990" data-name="Path 34990" d="M122.138,232.015c3.26,2.9,4.163,7.555,4.878,11.859a6.822,6.822,0,0,1-.1,3.832c-.516,1.191-2.052,2.027-3.152,1.337-1.062-.665-1.062-2.169-1.11-3.422s-.617-2.821-1.87-2.833c-.584-.005-1.115.359-1.7.4-1.266.1-2.113-1.264-2.528-2.464a19.091,19.091,0,0,1-1.021-5.154c-.1-1.721.19-3.731,1.666-4.625C118.749,230.013,120.791,230.814,122.138,232.015Z" transform="translate(-26.695 -181.45)" fill="#f9b092"/>
    <g id="Group_6724" data-name="Group 6724" transform="translate(49.887 80.411)">
      <path id="Path_34991" data-name="Path 34991" d="M109.292,254.785c-.179-.126-.508,0-.935.268a4.5,4.5,0,0,1-1.514.743.893.893,0,0,1-.642-.083,1.468,1.468,0,0,1-.3-.493c-.265-.622-.589-2.116-1-3.354-1.605-5.184-3.587-9.18-4.418-8.922s-.2,4.673,1.4,9.857a19.644,19.644,0,0,0,1.491,3.87,3.392,3.392,0,0,0,2.194,1.585,3.181,3.181,0,0,0,2.2-.427,3.62,3.62,0,0,0,1.58-2.047C109.5,255.245,109.469,254.906,109.292,254.785Z" transform="translate(-100.117 -242.931)" fill="#f69d7d"/>
    </g>
    <g id="Group_6725" data-name="Group 6725" transform="translate(57.37 91.206)">
      <path id="Path_34992" data-name="Path 34992" d="M110.934,247.2c-.885.124-1.188,3.18-3.281,6.041-1.979,2.942-4.752,4.269-4.567,5.141.1.4,1.064.617,2.522.185a9.518,9.518,0,0,0,6.357-9.059C111.877,247.993,111.344,247.159,110.934,247.2Z" transform="translate(-103.078 -247.202)" fill="#f69d7d"/>
    </g>
    <path id="Path_34993" data-name="Path 34993" d="M122.934,267.4c-26.721,22.462-25.707,44.267-27.851,77.959l6.334,1.7s26.448,13.545,36,12.855Z" transform="translate(-57.92 -125.147)" fill="#ff7ea0"/>
    <path id="Path_34994" data-name="Path 34994" d="M179.142,376.991c-.92,4.213-5.793,4.946-10.4,5.472s-18.006,2.08-20.192,4.337-3.877,12.175-2.507,13.2,4.823-9.814,5.808-10.254S157.3,388.3,157.3,388.3s-5.96,6.938-6.6,9.635-1.319,9.076-.7,9.771,3.394-1.3,3.394-1.3-.488,3.635,1.051,3.2,6.627-10.13,7.835-11.349,8.364,5.813,17.2-.2,16.153-37.541,21.241-51.918,12.375-47.381,9.071-56.2S166,265.851,166,265.851l-11.47,23.9s28.291,9.9,29.65,10.669S181.078,368.12,179.142,376.991Z" transform="translate(19.174 -127.51)" fill="#ffc0a4"/>
    <path id="Path_34995" data-name="Path 34995" d="M169.242,269.319c-5.1-2.118-8.669-3.468-8.669-3.468l-11.47,23.9s7.052,2.467,14.283,5.035Q165.881,281.945,169.242,269.319Z" transform="translate(24.597 -127.51)" fill="#f69d7d"/>
    <path id="Path_34996" data-name="Path 34996" d="M168.574,451.534l1.368,5.9-65.111.717-.3-5.912Z" transform="translate(-43.481 156.125)" fill="#fefdfb"/>
  </g>
  <g id="Group_6742" data-name="Group 6742" transform="translate(960.81 261.33)">
    <path id="Path_34997" data-name="Path 34997" d="M375.123,302.254c1.393-9.744,4.742-19.427,11.093-26.941,5.71-6.751,13.532-11.43,19.419-18.024,6.273-7.029,10.13-15.992,16.654-22.788,13.421-13.975,31.106-22.692,56.088-15.908,17.655,4.792,33.394,21.208,37.991,38.914,3.367,12.969-.748,26.718-6.45,38.843s-13.062,23.587-16.752,36.467A49.5,49.5,0,0,0,493,360.425c2.528,8.7,9.089,15.014,15.936,20.574,7.11,5.773,14.832,11.44,18.82,19.684,4.757,9.832,3.139,22.045-2.763,31.238s-15.6,15.516-26,18.855c-22.889,7.35-49.676.121-66.08-17.455s-21.8-44.52-13.856-67.209c2.083-5.942,5.042-12.19,3.339-18.251-1.509-5.374-6.531-9.215-11.907-10.717s-11.093-1.029-16.621-.248c-3.748.528-7.575,1.19-11.29.462a11.493,11.493,0,0,1-6.526-3.614c-2.136-2.517-1.618-5.664-1.726-8.791A129.257,129.257,0,0,1,375.123,302.254Z" transform="translate(-276.205 -216.245)" fill="#251b19"/>
    <path id="Path_34998" data-name="Path 34998" d="M363.959,399.827c-.083,10.181-2.8,21.155-2.477,25.877s-8.985,31.028-10.176,43.236S343.572,590.3,343.572,590.3l9.969,12.943,11.546-5.136s2.654-45.177,12-69.613,15.249-62.483,15.8-92.421,20.109-59.667,20.453-84.781S363.959,399.827,363.959,399.827Z" transform="translate(-322.957 -17.926)" fill="#ffc0a4"/>
    <g id="Group_6728" data-name="Group 6728" transform="translate(82.522 108.44)">
      <g id="Group_6727" data-name="Group 6727">
        <path id="Path_34999" data-name="Path 34999" d="M463.14,283.363c-9.139-9.842-25.889-24.287-54.554-24.214a114.089,114.089,0,0,0-40.521,9.41s26.178,46.221,53.058,57.481,41.939-30.78,41.939-30.78S472.121,293.144,463.14,283.363Z" transform="translate(-368.065 -259.149)" fill="#fff"/>
      </g>
    </g>
    <path id="Path_35000" data-name="Path 35000" d="M442.827,284.639c-14.991-16.262-41.732-30.76-58.123-29.041l10.535,10.444s15.774,4.135,35.529,16.2l7.459,3.806Z" transform="translate(-260.127 -156.345)" fill="#ee4b4e"/>
    <g id="Group_6730" data-name="Group 6730" transform="translate(143.062 64.76)">
      <g id="Group_6729" data-name="Group 6729">
        <path id="Path_35001" data-name="Path 35001" d="M411.946,304.378c-1.335,5.654-8.963,2.065-12.749-.195-5.631-3.341-7.436-6.033-7.15-9.514l8.182-52.8L423.494,277l-.794,1.425Z" transform="translate(-392.018 -241.867)" fill="#ffc0a4"/>
      </g>
    </g>
    <g id="Group_6732" data-name="Group 6732" transform="translate(147.054 64.76)">
      <g id="Group_6731" data-name="Group 6731">
        <path id="Path_35002" data-name="Path 35002" d="M407.544,288.725a38.489,38.489,0,0,1-8.144-9.2,80.689,80.689,0,0,1-5.8-10.434l4.218-27.227L421.081,277l-.794,1.425-6.314,15.239C411.843,292,409.649,290.423,407.544,288.725Z" transform="translate(-393.597 -241.867)" fill="#f69d7d"/>
      </g>
    </g>
    <path id="Path_35003" data-name="Path 35003" d="M373.979,366.053s8.821,12.706,6.344,35.638c-5.05,46.734,4.893,80.011,6.678,92.636,3.03,21.451,7.446,40.117,7.59,61.153l22.232-7.54c1.117-22.351-.584-44.954-.26-67.328.559-38.866.963-78.171,3.344-117.037C420.291,357.3,373.979,366.053,373.979,366.053Z" transform="translate(-276.51 5.344)" fill="#ffc0a4"/>
    <path id="Path_35004" data-name="Path 35004" d="M382.942,442.687,381.6,456.7l3.3,9.171,16.483-4.985,4.061-10.36-.277-15.374Z" transform="translate(-264.862 118.136)" fill="#ffc0a4"/>
    <path id="Path_35005" data-name="Path 35005" d="M336.783,451.042l-1.368,5.9,43.564.48.3-5.912Z" transform="translate(-335.416 142.413)" fill="#fefdfb"/>
    <path id="Path_35006" data-name="Path 35006" d="M335.957,469.829a26.521,26.521,0,0,1,7.1-11.647,61.277,61.277,0,0,0,7.775-8.419s-3.819-9.054-1.375-10.451,19.917.22,19.917.22-2.027,16.8-1.107,17.41,10.509-4.026,11.012-3.309-.831,16.664-.831,16.664Z" transform="translate(-334.589 123.626)" fill="#ff644f"/>
    <path id="Path_35007" data-name="Path 35007" d="M439.313,457.681c-31.319-7.807-32.236-16.79-32.244-16.79a15.149,15.149,0,0,1-10.226,10.062c-5.649,1.726-13.73-3.025-13.73-3.025l-2.5,19.864,64.037.705S446.213,459.4,439.313,457.681Z" transform="translate(-266.371 126.907)" fill="#ff644f"/>
    <path id="Path_35008" data-name="Path 35008" d="M402.552,452.857a137.49,137.49,0,0,1-4.57-14.225c-.521-2.421-9.5,2.611-9.554,4.873S389.2,458.66,402.552,452.857Z" transform="translate(-254.441 122.473)" fill="#ff644f"/>
    <path id="Path_35009" data-name="Path 35009" d="M466.281,320.276c2.7,26.124,2.04,134.467,2.04,134.467s-29.64,7.952-54.708,4.011l-1.534-69.08-9.4,71.337s-36.222,3.561-54.655-6.867l9.205-65.074s-4.317-42.52,8.533-65.748S466.281,320.276,466.281,320.276Z" transform="translate(-316.166 -69.755)" fill="#ae980c"/>
    <path id="Path_35010" data-name="Path 35010" d="M356.749,329.719a16.3,16.3,0,0,1-7.226-7.605c1.987-2.861,4.145-5.78,6.448-8.647l21.421,13.05a9.334,9.334,0,0,1-.043,10.732C372.031,332.287,363.293,333.068,356.749,329.719Z" transform="translate(-313.867 -67.736)" fill="#60aed2"/>
    <g id="Group_6733" data-name="Group 6733" transform="translate(46.259 242.39)">
      <path id="Path_35011" data-name="Path 35011" d="M458.077,326.652a127.678,127.678,0,0,1-60.436,13.654,121.361,121.361,0,0,1-43.923-9.559,52.942,52.942,0,0,1,3.331-7.426c12.852-23.225,100.525-3.046,100.525-3.046C457.756,322.042,457.923,324.193,458.077,326.652Z" transform="translate(-353.718 -312.145)" fill="#6a6034"/>
    </g>
    <g id="Group_6735" data-name="Group 6735" transform="translate(93.487 137.477)">
      <g id="Group_6734" data-name="Group 6734">
        <path id="Path_35012" data-name="Path 35012" d="M457.668,290.915s17.3,32.37-13.272,39.75l-12.66,34.344-58.869-19.553s-1.251-61.846.356-74.82Z" transform="translate(-372.403 -270.637)" fill="#fff"/>
      </g>
    </g>
    <g id="Group_6737" data-name="Group 6737" transform="translate(69.348 195.17)">
      <g id="Group_6736" data-name="Group 6736">
        <path id="Path_35013" data-name="Path 35013" d="M459.341,293.463,447.1,373.547s-55.209,1.929-84.245-47.934l29.013-25.477Z" transform="translate(-362.853 -293.463)" fill="#fff"/>
      </g>
    </g>
    <path id="Path_35014" data-name="Path 35014" d="M408.313,244.946s-10.317-10.085-17.21,4.3,2.641,20.764,5.138,23.147c0,0-9.7,27.226,21.176,43.5s40.42-9.567,49.732-24.818,27.542-40.433,9.493-54.511C458.437,222.355,430.242,206.371,408.313,244.946Z" transform="translate(-254.106 -209.195)" fill="#ffc0a4"/>
    <path id="Path_35015" data-name="Path 35015" d="M462.881,264.766a109.847,109.847,0,0,0-6.508-20.021c-3.015-7.224-6.867-14.8-13.863-18.309-4.405-2.209-9.5-2.49-14.427-2.593-9.031-.184-18.271.172-26.764,3.139-.544.559-1.087,1.122-1.628,1.729l2.742,5.3a44.454,44.454,0,0,0,32.625,3.124c.3,10.214.988,20.561,4.309,30.224a44.617,44.617,0,0,0,11.51,18.249C454.555,279.648,459.383,272.319,462.881,264.766Z" transform="translate(-237.235 -204.7)" fill="#f69d7d"/>
    <path id="Path_35016" data-name="Path 35016" d="M412.414,254.235a8.526,8.526,0,1,1-3.2-11.627A8.525,8.525,0,0,1,412.414,254.235Z" transform="translate(-242.146 -177.679)" fill="#f9b092"/>
    <g id="Group_6738" data-name="Group 6738" transform="translate(173.957 44.953)">
      <path id="Path_35017" data-name="Path 35017" d="M419.652,243.078c.285-.114.2-1.261-.66-2.869a12.138,12.138,0,0,0-12.051-6.074,7.085,7.085,0,0,0-2.062.576c-.452.227-.665.44-.634.6s.326.253.806.311,1.122.111,1.928.192a15.93,15.93,0,0,1,10.643,5.366C418.711,242.352,419.333,243.212,419.652,243.078Z" transform="translate(-404.241 -234.031)" fill="#251b19"/>
    </g>
    <g id="Group_6739" data-name="Group 6739" transform="translate(201.053 59.392)">
      <path id="Path_35018" data-name="Path 35018" d="M414.966,241.024c.078.336,1.14.326,2.732.5a15.939,15.939,0,0,1,10.646,5.363c.543.6.986,1.089,1.3,1.436.331.351.579.538.728.465s.19-.366.1-.864a7.166,7.166,0,0,0-.763-2,12.148,12.148,0,0,0-12.054-6.076C415.858,240.114,414.885,240.728,414.966,241.024Z" transform="translate(-414.961 -239.743)" fill="#251b19"/>
    </g>
    <path id="Path_35019" data-name="Path 35019" d="M425.241,261.5a8.526,8.526,0,1,1-3.2-11.624A8.528,8.528,0,0,1,425.241,261.5Z" transform="translate(-222.553 -166.582)" fill="#f9b092"/>
    <path id="Path_35020" data-name="Path 35020" d="M412.129,244.92a4.675,4.675,0,1,1-1.754-6.374A4.673,4.673,0,0,1,412.129,244.92Z" transform="translate(-231.585 -183.115)" fill="#251b19"/>
    <path id="Path_35021" data-name="Path 35021" d="M421.292,250.132a4.675,4.675,0,1,1-1.751-6.377A4.674,4.674,0,0,1,421.292,250.132Z" transform="translate(-217.586 -175.156)" fill="#251b19"/>
    <path id="Path_35022" data-name="Path 35022" d="M395.43,232.015c-3.258,2.9-4.163,7.555-4.878,11.859a6.821,6.821,0,0,0,.1,3.832c.516,1.191,2.052,2.027,3.152,1.337,1.061-.665,1.059-2.169,1.109-3.422s.617-2.821,1.87-2.833c.584-.005,1.112.359,1.7.4,1.264.1,2.113-1.264,2.528-2.464a19.284,19.284,0,0,0,1.021-5.154c.1-1.721-.192-3.731-1.666-4.625C398.822,230.013,396.78,230.814,395.43,232.015Z" transform="translate(-251.537 -194.411)" fill="#f9b092"/>
    <g id="Group_6740" data-name="Group 6740" transform="translate(180.122 67.45)">
      <path id="Path_35023" data-name="Path 35023" d="M406.834,254.785c.18-.126.506,0,.935.268a4.5,4.5,0,0,0,1.514.743.884.884,0,0,0,.64-.083,1.42,1.42,0,0,0,.3-.493c.263-.622.586-2.116,1-3.354,1.607-5.184,3.587-9.18,4.421-8.922s.2,4.673-1.4,9.857a19.629,19.629,0,0,1-1.489,3.87,3.391,3.391,0,0,1-2.2,1.585,3.177,3.177,0,0,1-2.194-.427,3.6,3.6,0,0,1-1.58-2.047C406.624,255.245,406.657,254.906,406.834,254.785Z" transform="translate(-406.68 -242.931)" fill="#f69d7d"/>
    </g>
    <g id="Group_6741" data-name="Group 6741" transform="translate(173.068 78.245)">
      <path id="Path_35024" data-name="Path 35024" d="M404.933,247.2c.882.124,1.188,3.18,3.281,6.041,1.977,2.942,4.752,4.269,4.567,5.141-.1.4-1.064.617-2.523.185a9.509,9.509,0,0,1-6.357-9.059C403.99,247.993,404.523,247.159,404.933,247.2Z" transform="translate(-403.889 -247.202)" fill="#f69d7d"/>
    </g>
    <path id="Path_35025" data-name="Path 35025" d="M422.894,266.054,389.859,417.24l17.4,3.278L420.5,346.783s12.375-8.889,15.279-17.945-2.611-50.449-2.611-50.449Z" transform="translate(-252.252 -140.161)" fill="#ff644f"/>
    <path id="Path_35026" data-name="Path 35026" d="M416.413,269.108c26.721,22.462,22.432,39.945,24.575,73.637l-6.334,1.7s-26.448,13.545-36,12.855Z" transform="translate(-238.816 -135.496)" fill="#ff644f"/>
    <path id="Path_35027" data-name="Path 35027" d="M402.929,266.054s10.042-.076,12.059,2.4.93,20.738-1.79,20.994C411.849,289.575,402.929,266.054,402.929,266.054Z" transform="translate(-232.288 -140.161)" fill="#ee4b4e"/>
    <path id="Path_35028" data-name="Path 35028" d="M370.672,376.991c.92,4.213,5.791,4.946,10.4,5.472s18,2.08,20.192,4.337,3.877,12.175,2.507,13.2-4.825-9.814-5.811-10.254-5.447-1.448-5.447-1.448,5.957,6.938,6.6,9.635,1.319,9.076.7,9.771-3.394-1.3-3.394-1.3.488,3.635-1.049,3.2-6.627-10.13-7.838-11.349-8.363,5.813-17.2-.2-16.151-37.541-21.239-51.918-12.377-47.381-9.074-56.2,43.8-24.087,43.8-24.087l11.467,23.9s-28.291,9.9-29.648,10.669S368.733,368.12,370.672,376.991Z" transform="translate(-329.65 -140.471)" fill="#ffc0a4"/>
    <path id="Path_35029" data-name="Path 35029" d="M353.417,269.319c5.1-2.118,8.669-3.468,8.669-3.468l11.467,23.9s-7.049,2.467-14.28,5.035Q356.778,281.945,353.417,269.319Z" transform="translate(-307.919 -140.471)" fill="#f69d7d"/>
    <path id="Path_35030" data-name="Path 35030" d="M442.607,263.072s12.767,45.45-51.223,146.6l-28.791-29.332,30.957-29.537,2.937-51.521L366.865,315.3l-13.171-39.98s34.925-16.5,38.072-17.657,42.308,2.032,42.308,2.032Z" transform="translate(-307.495 -153.375)" fill="#ff644f"/>
    <path id="Path_35031" data-name="Path 35031" d="M401.729,265.994s-6.733-7.658-9.493-10.247-13.449,15.2-11.558,18.337S401.729,265.994,401.729,265.994Z" transform="translate(-266.618 -156.297)" fill="#ee4b4e"/>
    <path id="Path_35032" data-name="Path 35032" d="M381.442,451.534l-1.368,5.9,65.111.717.3-5.912Z" transform="translate(-267.198 143.164)" fill="#fefdfb"/>
    <path id="Path_35033" data-name="Path 35033" d="M397.8,240.918c3.018,4.56,3.48,10.461,2.305,15.8s-3.844,10.231-6.718,14.885a136.961,136.961,0,0,0,21.034-29.941,46.973,46.973,0,0,0,33.358-4.077,50.747,50.747,0,0,0,23.134,51.7c4.269-6.521,8.015-13.492,9.948-21.042s1.949-15.762-1.059-22.952c-3.458-8.268-10.621-14.543-18.557-18.706a53.786,53.786,0,0,0-34.5-5.553C415.08,223.218,404.446,231.081,397.8,240.918Z" transform="translate(-246.857 -210.191)" fill="#251b19"/>
  </g>
  <path id="Path_35034" data-name="Path 35034" d="M381.344,139.685s6.748,6.529,4.294,9.653-10.881-3.988-10.881-3.988Z" transform="translate(685.489 -71.863)" fill="#f69d7d"/>
  <path id="Path_35035" data-name="Path 35035" d="M129.317,135.552s-6.746,6.529-4.292,9.653,10.881-3.991,10.881-3.991Z" transform="translate(303.196 -78.176)" fill="#f69d7d"/>
  <rect id="Rectangle_1647" data-name="Rectangle 1647" width="861.849" height="809.302" rx="46" transform="translate(256.907 861.849) rotate(-90)" fill="#65cfe1"/>
  <path id="Path_35036" data-name="Path 35036" d="M109.67,354.537l30.04-42.455a66.738,66.738,0,0,0-1.741-13.348c-1.721-7.406-5.419-10.772-6.769-14.336s9.18-12.117,13.722-14.068c5.477-2.351,11.93-3.02,11.553,0s-4.539,8.068-4.539,8.068,5.447,1.388,6.086,5.053c.367,2.11-5.834,5.04-5.834,5.04s3.086.95,5.194,6.928c.973,2.758,2.7,6.7-.743,16.234-2.229,6.17-5.727,18.58-9.418,34.018C142,367.508,109.67,354.537,109.67,354.537Z" transform="translate(80.562 124.612)" fill="#ffc0a4"/>
  <path id="Path_35037" data-name="Path 35037" d="M128.124,307.783l-30.535-8.867s7.671,43.729,19.361,47.348c18.886,5.846,35.684-7.711,48.726-47.348Z" transform="translate(62.108 171.366)" fill="#ffc0a4"/>
  <path id="Path_35038" data-name="Path 35038" d="M423.251,307.783l30.8-8.867s-7.929,43.729-19.619,47.348C415.54,352.11,399,338.553,385.96,298.916Z" transform="translate(702.602 171.366)" fill="#ffc0a4"/>
  <g id="Group_6743" data-name="Group 6743" transform="translate(1054.233 309.315)">
    <path id="Path_35039" data-name="Path 35039" d="M379.448,235.608c-1.663,9.913-3.142,19.854-4.673,29.787,11.093,5.525,15.984,8.139,17.182,3.632,1.322-4.987-4.289-9.238-4.289-9.238s5.439-5.467,1.173-8.7-.713-1.658-1.863-10.214C386.078,234.17,382.807,236.21,379.448,235.608Z" transform="translate(-368.716 -234.654)" fill="#ffc0a4"/>
    <path id="Path_35040" data-name="Path 35040" d="M388.577,270.794c-12.071-3.642-23.225-14.164-10.7-15.413,0,0-9.693-11.907,3.584-10.087,0,0-9.274-14.136,5.667-8.9Z" transform="translate(-372.378 -235.231)" fill="#ffc0a4"/>
  </g>
  <g id="Group_6744" data-name="Group 6744" transform="translate(1054.233 37.521)">
    <path id="Path_35041" data-name="Path 35041" d="M379.448,128.075c-1.663,9.91-3.142,19.854-4.673,29.787,11.093,5.523,15.984,8.136,17.182,3.63,1.322-4.987-4.289-9.238-4.289-9.238s5.439-5.467,1.173-8.7-.713-1.658-1.863-10.214C386.078,126.637,382.807,128.674,379.448,128.075Z" transform="translate(-368.716 -127.118)" fill="#ffc0a4"/>
    <path id="Path_35042" data-name="Path 35042" d="M388.577,163.26c-12.071-3.64-23.225-14.164-10.7-15.413,0,0-9.693-11.9,3.584-10.087,0,0-9.274-14.136,5.667-8.9Z" transform="translate(-372.378 -127.697)" fill="#ffc0a4"/>
  </g>
  <g id="Group_6745" data-name="Group 6745" transform="translate(245.67 26.074)">
    <path id="Path_35043" data-name="Path 35043" d="M134.819,123.941c1.663,9.913,3.142,19.854,4.673,29.787-11.093,5.525-15.984,8.139-17.182,3.632-1.322-4.987,4.289-9.238,4.289-9.238s-5.439-5.467-1.173-8.7.713-1.661,1.863-10.214C128.189,122.5,131.459,124.543,134.819,123.941Z" transform="translate(-122.108 -122.987)" fill="#ffc0a4"/>
    <path id="Path_35044" data-name="Path 35044" d="M124.975,159.127c12.069-3.642,23.223-14.164,10.694-15.413,0,0,9.693-11.907-3.584-10.087,0,0,9.273-14.136-5.667-8.9Z" transform="translate(-117.729 -123.564)" fill="#ffc0a4"/>
  </g>
  <path id="Path_35045" data-name="Path 35045" d="M430.442,354.537,400.4,312.082a66.734,66.734,0,0,1,1.741-13.348c1.719-7.406,5.417-10.772,6.769-14.336s-9.18-12.117-13.722-14.068c-5.477-2.351-11.933-3.02-11.553,0s4.54,8.068,4.54,8.068-5.447,1.388-6.086,5.053c-.369,2.11,5.834,5.04,5.834,5.04s-3.089.95-5.194,6.928c-.973,2.758-2.7,6.7.74,16.234,2.232,6.17,5.727,18.58,9.418,34.018C398.11,367.508,430.442,354.537,430.442,354.537Z" transform="translate(695.674 124.612)" fill="#ffc0a4"/>
  <path id="Path_35046" data-name="Path 35046" d="M483.833,212.71s13.972-18.989-3.268-31.248-40.633-15.9-40.633-15.9l-7.34-29.115s-18.451,4.021-9.759,25.859l-25.02-31.8S374.333,162.1,406.187,178.2l-27.31-1.719s-2.618,9.769,14.1,11.111l-14.1,4.979s-.013,18.006,43.175,7.279l-18.509,8.237s22.745,18.58,50.075,8.237a18.521,18.521,0,0,0,.473,17.546S443.743,249.453,448,251.657s8.108-11.159,14.781-10.7S472.9,220.7,472.9,220.7Z" transform="translate(691.555 -85.878)" fill="#251b19"/>
</svg>
