<svg xmlns="http://www.w3.org/2000/svg" xmlns:xlink="http://www.w3.org/1999/xlink" width="344" height="344" viewBox="0 0 344 344">
  <defs>
    <filter id="Ellipse_479" x="0" y="0" width="344" height="344" filterUnits="userSpaceOnUse">
      <feOffset dx="4" dy="3" input="SourceAlpha"/>
      <feGaussianBlur stdDeviation="6" result="blur"/>
      <feFlood flood-opacity="0.502"/>
      <feComposite operator="in" in2="blur"/>
      <feComposite in="SourceGraphic"/>
    </filter>
    <linearGradient id="linear-gradient" x1="0.192" y1="0.175" x2="1.431" y2="1.485" gradientUnits="objectBoundingBox">
      <stop offset="0" stop-color="#fdf53f"/>
      <stop offset="0.779" stop-color="#e57a58"/>
      <stop offset="1" stop-color="#d93c65"/>
    </linearGradient>
    <linearGradient id="linear-gradient-2" x1="-0.625" y1="0.006" x2="0.576" y2="0.526" gradientUnits="objectBoundingBox">
      <stop offset="0" stop-color="#53d8ff"/>
      <stop offset="1" stop-color="#3840f7"/>
    </linearGradient>
    <linearGradient id="linear-gradient-3" x1="-4.613" y1="-2.23" x2="-0.602" y2="-0.045" xlink:href="#linear-gradient-2"/>
    <linearGradient id="linear-gradient-4" x1="0.432" y1="0.177" x2="1.182" y2="1.557" xlink:href="#linear-gradient-2"/>
    <linearGradient id="linear-gradient-5" x1="0.114" y1="-0.161" x2="1.729" y2="2.605" xlink:href="#linear-gradient-2"/>
    <linearGradient id="linear-gradient-6" x1="-0.607" y1="-0.889" x2="1.827" y2="2.002" gradientUnits="objectBoundingBox">
      <stop offset="0" stop-color="#ce1567"/>
      <stop offset="1" stop-color="#7a1dbc"/>
    </linearGradient>
    <linearGradient id="linear-gradient-7" x1="94.756" y1="-10.216" x2="100.828" y2="-6.516" gradientUnits="objectBoundingBox">
      <stop offset="0" stop-color="#f9b776"/>
      <stop offset="1" stop-color="#f47960"/>
    </linearGradient>
    <linearGradient id="linear-gradient-8" x1="66.893" y1="-11.864" x2="71.206" y2="-7.202" xlink:href="#linear-gradient-7"/>
    <linearGradient id="linear-gradient-9" x1="-0.314" y1="-0.3" x2="1.512" y2="1.478" xlink:href="#linear-gradient-6"/>
    <linearGradient id="linear-gradient-10" x1="-0.208" y1="-0.628" x2="3.089" y2="3.76" xlink:href="#linear-gradient-6"/>
    <linearGradient id="linear-gradient-11" x1="78.977" y1="9.464" x2="79.917" y2="12.414" xlink:href="#linear-gradient-7"/>
    <linearGradient id="linear-gradient-12" x1="-4.804" y1="-3.538" x2="-2.027" y2="-2.495" xlink:href="#linear-gradient-7"/>
    <linearGradient id="linear-gradient-13" x1="43.96" y1="-20.556" x2="42.871" y2="-20.556" gradientUnits="objectBoundingBox">
      <stop offset="0" stop-color="#2b3582"/>
      <stop offset="1" stop-color="#150e42"/>
    </linearGradient>
    <linearGradient id="linear-gradient-14" x1="-11.768" y1="-11.814" x2="-4.864" y2="-8.621" xlink:href="#linear-gradient-7"/>
    <linearGradient id="linear-gradient-15" x1="-4.703" y1="6.085" x2="-7.725" y2="7.857" xlink:href="#linear-gradient-7"/>
    <linearGradient id="linear-gradient-16" x1="-1.742" y1="5.738" x2="-3.387" y2="7.699" xlink:href="#linear-gradient-7"/>
    <linearGradient id="linear-gradient-17" x1="0.001" y1="-0.027" x2="3.501" y2="3.159" xlink:href="#linear-gradient-6"/>
  </defs>
  <g id="Component_65_9" data-name="Component 65 – 9" transform="translate(14 15)">
    <g transform="matrix(1, 0, 0, 1, -14, -15)" filter="url(#Ellipse_479)">
      <circle id="Ellipse_479-2" data-name="Ellipse 479" cx="154" cy="154" r="154" transform="translate(14 15)" fill="#fff"/>
    </g>
    <g id="Group_4411" data-name="Group 4411" transform="translate(6.679 25.727)">
      <g id="Group_4398" data-name="Group 4398" transform="translate(13.88 6.15)">
        <ellipse id="Ellipse_459" data-name="Ellipse 459" cx="110.841" cy="119.642" rx="110.841" ry="119.642" transform="matrix(0.044, -0.999, 0.999, 0.044, 0, 221.469)" fill="url(#linear-gradient)"/>
        <ellipse id="Ellipse_460" data-name="Ellipse 460" cx="93.882" cy="88.688" rx="93.882" ry="88.688" transform="translate(24.031 19.296)" fill="#fff" opacity="0.26"/>
        <g id="Group_4397" data-name="Group 4397" transform="translate(15.539 7.932)" opacity="0.68">
          <path id="Path_29277" data-name="Path 29277" d="M1461.869,403.953c-.01,9.783-.369,19.568-1.131,29.324-.782,9.754-1.981,19.48-3.717,29.117a170.479,170.479,0,0,1-7.439,28.414,66.678,66.678,0,0,1-6.461,13.256,26.561,26.561,0,0,1-4.857,5.652,13.889,13.889,0,0,1-3.189,2.05,9.583,9.583,0,0,1-3.734.875,9.451,9.451,0,0,1-3.775-.691,13.04,13.04,0,0,1-3.264-1.938,25.219,25.219,0,0,1-4.963-5.564,64.537,64.537,0,0,1-6.554-13.211,135.375,135.375,0,0,1-4.378-14.04c-1.223-4.745-2.25-9.537-3.136-14.352-1.767-9.632-2.975-19.357-3.794-29.108s-1.226-19.537-1.286-29.324c-.029-4.892.121-9.784.3-14.672s.468-9.773.835-14.651c.739-9.755,1.835-19.488,3.457-29.14.814-4.825,1.761-9.63,2.9-14.392a138.474,138.474,0,0,1,4.108-14.105,63.917,63.917,0,0,1,6.282-13.3,24.193,24.193,0,0,1,4.849-5.589,12.387,12.387,0,0,1,3.211-1.917,9.074,9.074,0,0,1,3.695-.651,9.823,9.823,0,0,1,3.649.85,14.224,14.224,0,0,1,3.168,1.971,26.957,26.957,0,0,1,4.952,5.49,66.1,66.1,0,0,1,6.79,13.045,163.3,163.3,0,0,1,8.049,28.222,277.159,277.159,0,0,1,4.127,29.058Q1461.852,389.256,1461.869,403.953Zm-1.861,0q.036-14.6-1.144-29.175a281.649,281.649,0,0,0-3.769-28.945,162.191,162.191,0,0,0-7.6-28.131,65.3,65.3,0,0,0-6.518-12.97,26.3,26.3,0,0,0-4.745-5.417,10.808,10.808,0,0,0-6.428-2.768,8.4,8.4,0,0,0-3.454.655,11.782,11.782,0,0,0-3.024,1.865,23.515,23.515,0,0,0-4.628,5.494,63.073,63.073,0,0,0-6.01,13.206,137.349,137.349,0,0,0-3.879,14.052c-1.064,4.747-1.939,9.537-2.681,14.348a377.011,377.011,0,0,0-3.809,58.243q-.056,14.6.99,29.182c.719,9.708,1.825,19.391,3.486,28.979.832,4.793,1.805,9.561,2.972,14.28a133.942,133.942,0,0,0,4.2,13.943,63.4,63.4,0,0,0,6.3,13.027,24.172,24.172,0,0,0,4.689,5.373,9.751,9.751,0,0,0,6.357,2.462,10.25,10.25,0,0,0,6.264-2.749,25.488,25.488,0,0,0,4.594-5.466,65.541,65.541,0,0,0,6.2-13.077,169.176,169.176,0,0,0,7.084-28.246c1.652-9.589,2.744-19.274,3.472-28.981S1460.014,413.691,1460.009,403.953Z" transform="translate(-1322.249 -295.368)" fill="#fff" style="mix-blend-mode: soft-light;isolation: isolate"/>
          <path id="Path_29278" data-name="Path 29278" d="M1262.746,401.175a142.742,142.742,0,0,1-5.081,37.383,120.258,120.258,0,0,1-15.683,34.263,90.927,90.927,0,0,1-26.685,26.436,70.893,70.893,0,0,1-17.164,7.839,64.434,64.434,0,0,1-37.319.021,70.936,70.936,0,0,1-17.181-7.823,91.01,91.01,0,0,1-26.741-26.421,120.485,120.485,0,0,1-15.736-34.28,135.4,135.4,0,0,1-3.812-18.538,138.734,138.734,0,0,1,.015-37.761,135.369,135.369,0,0,1,3.829-18.531,120.425,120.425,0,0,1,15.764-34.249,90.851,90.851,0,0,1,26.737-26.373,71.3,71.3,0,0,1,17.164-7.785,63.842,63.842,0,0,1,37.244.02,71.223,71.223,0,0,1,17.146,7.8,90.774,90.774,0,0,1,26.682,26.388,120.188,120.188,0,0,1,15.71,34.233A142.718,142.718,0,0,1,1262.746,401.175Zm-2.133,0a140.7,140.7,0,0,0-4.82-36.864,119.581,119.581,0,0,0-15.046-33.962,97.389,97.389,0,0,0-11.618-14.559,81.181,81.181,0,0,0-14.384-11.827,69.47,69.47,0,0,0-16.883-7.82,61.818,61.818,0,0,0-36.768.02A69.406,69.406,0,0,0,1144.229,304a81.1,81.1,0,0,0-14.357,11.838,97.285,97.285,0,0,0-11.589,14.563,119.345,119.345,0,0,0-14.993,33.946,136.622,136.622,0,0,0-3.6,18.257,142.684,142.684,0,0,0,.015,37.139,136.562,136.562,0,0,0,3.616,18.25,119.285,119.285,0,0,0,15.02,33.916,97.222,97.222,0,0,0,11.591,14.542,80.735,80.735,0,0,0,14.352,11.811,69.762,69.762,0,0,0,16.848,7.8,61.258,61.258,0,0,0,36.693.021,69.8,69.8,0,0,0,16.865-7.784,80.848,80.848,0,0,0,14.377-11.8,97.288,97.288,0,0,0,11.621-14.538,119.5,119.5,0,0,0,15.073-33.932A140.7,140.7,0,0,0,1260.613,401.175Z" transform="translate(-1073.778 -292.59)" fill="#fff" style="mix-blend-mode: soft-light;isolation: isolate"/>
          <path id="Path_29279" data-name="Path 29279" d="M1021.8,648.637c8.312-.12,16.624-.172,24.936-.259l24.936-.147c8.312-.062,16.624-.056,24.936-.075l24.936-.043,49.872.13,24.936.16c8.312.1,16.624.151,24.936.28a.094.094,0,0,1,0,.188c-8.312.129-16.624.185-24.936.28l-24.936.16-49.872.13-24.936-.043c-8.312-.019-16.624-.013-24.936-.075l-24.936-.147c-8.312-.087-16.624-.139-24.936-.259a.14.14,0,0,1,0-.281Z" transform="translate(-1012.997 -583.051)" fill="#fff" style="mix-blend-mode: soft-light;isolation: isolate"/>
          <path id="Path_29280" data-name="Path 29280" d="M1179.88,420.416c5.9-.12,11.8-.172,17.7-.259l17.7-.147c5.9-.063,11.8-.056,17.7-.075l17.7-.043,17.7.049c5.9.03,11.8.013,17.7.081l17.7.161c5.9.1,11.8.151,17.7.28a.094.094,0,0,1,0,.188c-5.9.129-11.8.184-17.7.28l-17.7.16c-5.9.068-11.8.051-17.7.081l-17.7.049-17.7-.043c-5.9-.019-11.8-.013-17.7-.075l-17.7-.147c-5.9-.087-11.8-.139-17.7-.259a.14.14,0,0,1,0-.281Z" transform="translate(-1142.148 -396.595)" fill="#fff" style="mix-blend-mode: soft-light;isolation: isolate"/>
          <path id="Path_29281" data-name="Path 29281" d="M974.447,876.859l27.1-.259,27.1-.147c9.034-.062,18.068-.056,27.1-.075l27.1-.043,54.2.13,27.1.16c9.034.095,18.068.151,27.1.279a.094.094,0,0,1,0,.189c-9.034.129-18.068.185-27.1.28l-27.1.16-54.2.13-27.1-.043c-9.034-.019-18.068-.013-27.1-.075l-27.1-.147-27.1-.259a.14.14,0,0,1,0-.28Z" transform="translate(-974.308 -769.507)" fill="#fff" style="mix-blend-mode: soft-light;isolation: isolate"/>
          <path id="Path_29282" data-name="Path 29282" d="M1021.8,1105.08c8.312-.12,16.624-.172,24.936-.259l24.936-.147c8.312-.063,16.624-.056,24.936-.075l24.936-.043,49.872.13,24.936.16c8.312.1,16.624.151,24.936.28a.094.094,0,0,1,0,.188c-8.312.129-16.624.185-24.936.28l-24.936.16-49.872.13-24.936-.043c-8.312-.019-16.624-.012-24.936-.075l-24.936-.147c-8.312-.087-16.624-.139-24.936-.259a.14.14,0,0,1,0-.281Z" transform="translate(-1012.997 -955.963)" fill="#fff" style="mix-blend-mode: soft-light;isolation: isolate"/>
          <path id="Path_29283" data-name="Path 29283" d="M1339.427,1334.705H1197.8a.492.492,0,0,1,0-.983h141.63a.492.492,0,1,1,0,.983Z" transform="translate(-1156.496 -1143.191)" fill="#fff" style="mix-blend-mode: soft-light;isolation: isolate"/>
        </g>
      </g>
      <g id="Group_4401" data-name="Group 4401" transform="translate(84.444 -1)">
        <g id="Group_4399" data-name="Group 4399" transform="translate(10.319 2.716)">
          <path id="Path_29284" data-name="Path 29284" d="M947.006,226.779c-10.86-.086-21.814,1.636-31.506,5.658-22.56,9.361-41.707,34.129-34.214,59.428,2.434,8.218,1.155,17.285,9.343,20.857,4.43,1.932,16.493,3.083,21.08,1.56,12.191-4.047,20.2-15.125,13.574-27.41-2.123-3.934-4.871-7.528-6.705-11.605s-2.669-8.917-.8-12.978c3.669-7.971,15.859-10.506,23.764-10.266a27.661,27.661,0,0,1,22.805,12.813c6.257,9.867,7.843,21.867,6.927,33.32-.98,12.255-6.147,21.613-13.891,31.014-6.667,8.094-14.009,15.863-18.44,25.367-4.068,8.725-5.4,18.393-5.581,27.938-.036,1.85-9.236,19.285-9.2,24.612.005.753,10.435,3.245,11.188,3.254l19.143.214a1.526,1.526,0,0,0,1.545-1.505c.291-25.914,8.262-50.621,28.44-68.025,7.342-6.333,15.249-11.49,20.958-19.483,8.137-11.393,12.151-22.605,10.993-36.666-1.058-12.842-5.286-25.69-13.657-35.654-9-10.709-22.164-17.4-35.85-20.282A100.967,100.967,0,0,0,947.006,226.779Z" transform="translate(-879.634 -226.775)" fill="url(#linear-gradient-2)"/>
          <path id="Path_29285" data-name="Path 29285" d="M1176.5,1297.308c0,11.917-6.605,22.459-18.522,22.459-2.574,0-11.33.024-13.619-.8-8.307-3-8.337-9.383-8.337-18.726,0-11.917,4.024-23.636,15.941-23.636S1176.5,1285.391,1176.5,1297.308Z" transform="translate(-1089.104 -1084.479)" fill="url(#linear-gradient-3)"/>
        </g>
        <g id="Group_4400" data-name="Group 4400" transform="translate(0 0)">
          <path id="Path_29286" data-name="Path 29286" d="M890.62,211.939c-10.86-.086-21.814,1.637-31.506,5.658-22.56,9.361-41.706,34.129-34.214,59.428,2.434,8.219,8.062,18.564,16.249,22.135a20.024,20.024,0,0,0,14.174.281c12.191-4.048,20.2-15.126,13.574-27.41-2.123-3.934-4.871-7.528-6.7-11.605s-2.669-8.917-.8-12.978c3.669-7.972,15.859-10.506,23.764-10.267A27.662,27.662,0,0,1,907.961,250c6.258,9.866,7.843,21.867,6.927,33.32-.98,12.255-6.147,21.613-13.891,31.014-6.667,8.094-14.009,15.863-18.44,25.367-4.068,8.725-5.4,18.392-5.581,27.938-.036,1.85.587,21.17.627,26.5a1.378,1.378,0,0,0,1.364,1.369l19.143.214a1.526,1.526,0,0,0,1.545-1.505c.292-25.915,8.263-50.621,28.441-68.025,7.342-6.333,15.249-11.49,20.958-19.483,8.137-11.393,12.152-22.605,10.993-36.666-1.058-12.842-5.287-25.691-13.657-35.654-9-10.709-22.165-17.4-35.85-20.282A100.978,100.978,0,0,0,890.62,211.939Z" transform="translate(-823.248 -211.936)" fill="url(#linear-gradient-4)"/>
          <circle id="Ellipse_461" data-name="Ellipse 461" cx="21.577" cy="21.577" r="21.577" transform="translate(37.983 215.759) rotate(-45)" fill="url(#linear-gradient-5)"/>
        </g>
        <path id="Path_29287" data-name="Path 29287" d="M866.783,304.342a.175.175,0,0,1-.171-.137c-1.508-6.809-1.729-17.473,5.782-29.606,7.335-11.849,17.624-19.778,30.582-23.565,13.857-4.051,30.314-3.182,48.912,2.581a.175.175,0,1,1-.1.335c-18.532-5.742-34.92-6.61-48.71-2.579-12.872,3.763-23.093,11.64-30.382,23.413-7.449,12.034-7.232,22.6-5.738,29.346a.175.175,0,0,1-.133.209A.169.169,0,0,1,866.783,304.342Z" transform="translate(-857.989 -241.833)" fill="#fff"/>
        <path id="Path_29288" data-name="Path 29288" d="M881.787,585.374a.176.176,0,0,1-.142-.072,28.269,28.269,0,0,1-3.053-6,.175.175,0,1,1,.328-.125,27.9,27.9,0,0,0,3.009,5.917.176.176,0,0,1-.142.279Z" transform="translate(-868.455 -511.88)" fill="#fff"/>
        <path id="Path_29289" data-name="Path 29289" d="M1203.978,1304.7a.174.174,0,0,1-.079-.019,15.642,15.642,0,0,0-7.141-1.7.175.175,0,0,1,0-.351,15.987,15.987,0,0,1,7.3,1.739.175.175,0,0,1-.079.332Z" transform="translate(-1128.261 -1103.03)" fill="#fff"/>
        <path id="Path_29290" data-name="Path 29290" d="M1116.473,1340.679a.176.176,0,0,1-.1-.03,16.162,16.162,0,0,1,1.4-27.639.175.175,0,0,1,.166.309,15.811,15.811,0,0,0-1.365,27.039.175.175,0,0,1-.1.321Z" transform="translate(-1056.912 -1111.492)" fill="#fff"/>
      </g>
      <g id="Group_4410" data-name="Group 4410" transform="translate(2.616 96.07)">
        <g id="Group_4409" data-name="Group 4409" transform="translate(0 0)">
          <g id="Group_4404" data-name="Group 4404" transform="translate(12.08 24.161)">
            <g id="Group_4403" data-name="Group 4403" transform="translate(60.656 0)">
              <g id="Group_4402" data-name="Group 4402" transform="translate(0 16.278)">
                <path id="Path_29291" data-name="Path 29291" d="M1228.657,711.4c-1.143,8.128-2.349,10-3.287,10.044-2.984.154-2.382-18.171-13.294-27.44-6.892-5.855-16.307-6.337-23.693-5.654l10.339,37.079c1.5,3.693,8.067,18.628,22.912,23.161,3.023.923,7.521,2.3,11.705.5,8.259-3.549,12.131-18.1,8.439-36.311C1240.042,712.133,1237.64,711.446,1228.657,711.4Z" transform="translate(-1188.383 -679.704)" fill="url(#linear-gradient-6)"/>
                <path id="Path_29292" data-name="Path 29292" d="M1200.664,614.459l1.366,7.724c2.195,9.448,2.4,17.322,1.265,23.971,1.886.078,3.865.211,5.928.414,2.544.251,4.946.582,7.194.964-1.187-9.608-7.581-25.564-7.581-25.564C1204.979,616.4,1204.52,620.025,1200.664,614.459Z" transform="translate(-1163.021 -614.459)" fill="url(#linear-gradient-7)"/>
              </g>
              <path id="Path_29293" data-name="Path 29293" d="M1197.764,471.867a5.1,5.1,0,0,0-4.028,1.807l-9.745,11.547s-1.774-.362-1.94-3.759-3.774-3.806-3.774-3.806.52,4.737,1.511,11.748a14.861,14.861,0,0,0,4.863,8.708l5.638-1.94a64.147,64.147,0,0,0,10.166-24.236Z" transform="translate(-1144.502 -471.865)" fill="url(#linear-gradient-8)"/>
            </g>
            <path id="Path_29294" data-name="Path 29294" d="M1399.405,679.084c.65-.17,5.088-4.757,5.756-4.884,10.94-2.085,38.247-9.44,56.524,4.044.046.389.074.7.093.958a10.231,10.231,0,0,1,.754,1.29,61.609,61.609,0,0,0,6.168,9.633,6.279,6.279,0,0,0-1.271,1.8c-4.392,9.408-21.039,46.977-18.114,69.952a2.17,2.17,0,0,1-1.841,2.444c-6.462.894-25.708,3.073-35.651-1.033a1.522,1.522,0,0,1-.94-1.432,168.86,168.86,0,0,0-7.464-48.731,27.131,27.131,0,0,1-.675-2.733c-.09.186-.175.369-.263.554Z" transform="translate(-1377.336 -647.666)" fill="url(#linear-gradient-9)"/>
            <path id="Path_29295" data-name="Path 29295" d="M1898.92,686.034c-20.4,1.492-24.666,13.151-38.765,6.022l2.5,21.833c5.228,5.774,13.122,9.706,23.069,11.18Z" transform="translate(-1860.155 -661.585)" fill="url(#linear-gradient-10)"/>
          </g>
          <g id="Group_4406" data-name="Group 4406" transform="translate(59.392 0)">
            <path id="Path_29296" data-name="Path 29296" d="M1637.361,513.062a53.515,53.515,0,0,0-5.393,20.674c.752.28,10.786,7.24,17.5.5-1.436-4.624-1.2-11.585-.833-18.725Z" transform="translate(-1631.968 -484.198)" fill="url(#linear-gradient-11)"/>
            <g id="Group_4405" data-name="Group 4405" transform="translate(0.123)">
              <path id="Path_29297" data-name="Path 29297" d="M1549.423,340.951c.192.311,5.206,23.958,5.206,23.958l-13.563,2.576-8.082-21.707S1546.205,335.744,1549.423,340.951Z" transform="translate(-1525.951 -330.407)" fill="url(#linear-gradient-12)"/>
              <path id="Path_29298" data-name="Path 29298" d="M1529.824,277.517a1.986,1.986,0,0,0-.307,1.721l3.311,11.59a1.936,1.936,0,0,0,.219.5c.535.855,2.457,3.439,5.047,1.317,2.208-1.809,4.262-3.44,6.1-3.847a1.982,1.982,0,0,1,2.356,1.544,74.054,74.054,0,0,1,1.491,10.822,1.974,1.974,0,0,1-1.737,2.04,55,55,0,0,1-12.4.27,1.982,1.982,0,0,1-1.6-1.256c-1.161-3.006-4.448-11.417-5.741-13.648-1.2-2.073-4.393-2.269-5.862-2.243a1.993,1.993,0,0,1-1.476-.611c-1.16-1.2-3.018-3.927.133-6.848a1.985,1.985,0,0,0,.106-2.763c-1.272-1.43-2.437-3.787-.012-6.447a6.186,6.186,0,0,1,7.319-1.432,2.059,2.059,0,0,0,2.4-.6,1.311,1.311,0,0,1,1.2-.513,1.925,1.925,0,0,0,2.09-1.78,5.079,5.079,0,0,1,4.247-4.886c5.945-1.459,9.239,4.4,9.342,8.628s-6.433,5.443-10.2,4.928C1533.076,273.62,1530.824,276.148,1529.824,277.517Z" transform="translate(-1517.613 -260.215)" fill="url(#linear-gradient-13)"/>
              <path id="Path_29299" data-name="Path 29299" d="M1696.73,484.175s-1.262-7.486-4.278-8.03-6.125,1.772-3.356,6.055C1692.542,487.528,1696.73,484.175,1696.73,484.175Z" transform="translate(-1685.75 -451.426)" fill="url(#linear-gradient-14)"/>
            </g>
          </g>
          <g id="Group_4408" data-name="Group 4408" transform="translate(0 5.811)">
            <path id="Path_29300" data-name="Path 29300" d="M1703.767,311.128a6.941,6.941,0,0,1,1.726.162c1.434.3,3.344,1.041,2.846,2.42-.747,2.071-4.623.136-6.686,3.475-1.818,2.942-.33,6.137-.887,9.307-.271,1.542-1.262,3.832-2.64,4.733-.616.4-5.482,1.174-5.748.31l-1.353-4.39c-1.216-3.948,3.458-10.527,5.868-13.186A9.392,9.392,0,0,1,1703.767,311.128Z" transform="translate(-1638.245 -311.123)" fill="url(#linear-gradient-15)"/>
            <g id="Group_4407" data-name="Group 4407" transform="translate(0 13.27)">
              <path id="Path_29301" data-name="Path 29301" d="M1805.6,429.942l-4.655,3.875c-8.926,3.8-15.41,8.269-20.109,13.109a26.514,26.514,0,0,0-8.848-9.788,98.768,98.768,0,0,1,15.694-6.273C1805.843,423.563,1805.6,429.942,1805.6,429.942Z" transform="translate(-1744.694 -427.362)" fill="url(#linear-gradient-16)"/>
              <path id="Path_29302" data-name="Path 29302" d="M2025.065,522.786c-14.674,15.111-10.386,7.432-10.5,20.312-.044,4.8-4.211,23.139-4.211,23.139-44.876-19.386-7.426-45.848,5.866-53.239A26.512,26.512,0,0,1,2025.065,522.786Z" transform="translate(-1988.92 -503.222)" fill="url(#linear-gradient-17)"/>
            </g>
          </g>
        </g>
      </g>
    </g>
  </g>
</svg>
