<svg xmlns="http://www.w3.org/2000/svg" xmlns:xlink="http://www.w3.org/1999/xlink" width="155" height="155" viewBox="0 0 155 155">
  <defs>
    <radialGradient id="radial-gradient" cx="0.5" cy="0.5" r="0.607" gradientUnits="objectBoundingBox">
      <stop offset="0" stop-color="#fff"/>
      <stop offset="0.662" stop-color="#2aac91"/>
      <stop offset="1" stop-color="#2574c4"/>
    </radialGradient>
    <filter id="Ellipse_44" x="0" y="0" width="155" height="155" filterUnits="userSpaceOnUse">
      <feOffset dx="3" dy="3" input="SourceAlpha"/>
      <feGaussianBlur stdDeviation="7.5" result="blur"/>
      <feFlood flood-opacity="0.239"/>
      <feComposite operator="in" in2="blur"/>
      <feComposite in="SourceGraphic"/>
    </filter>
    <filter id="Path_23833" x="35.567" y="39.065" width="77.099" height="77.101" filterUnits="userSpaceOnUse">
      <feOffset dy="3" input="SourceAlpha"/>
      <feGaussianBlur stdDeviation="3" result="blur-2"/>
      <feFlood flood-opacity="0.702"/>
      <feComposite operator="in" in2="blur-2"/>
      <feComposite in="SourceGraphic"/>
    </filter>
  </defs>
  <g id="Component_62_4" data-name="Component 62 – 4" transform="translate(19.5 19.5)">
    <g id="Group_5" data-name="Group 5" transform="translate(-0.35 -0.351)">
      <g transform="matrix(1, 0, 0, 1, -19.15, -19.15)" filter="url(#Ellipse_44)">
        <circle id="Ellipse_44-2" data-name="Ellipse 44" cx="55" cy="55" r="55" transform="translate(19.5 19.5)" fill="url(#radial-gradient)"/>
      </g>
    </g>
    <g id="Group_3760" data-name="Group 3760" transform="translate(4.47 4.854)">
      <g transform="matrix(1, 0, 0, 1, -23.97, -24.35)" filter="url(#Path_23833)">
        <path id="Path_23833-2" data-name="Path 23833" d="M2480.181,1160.072a29.547,29.547,0,1,1,9.083-40.789A29.548,29.548,0,0,1,2480.181,1160.072Z" transform="translate(-2390.21 -1060.52)" fill="#fff"/>
      </g>
      <g id="Group_3755" data-name="Group 3755" transform="translate(11.41 10.017)">
        <path id="Path_23834" data-name="Path 23834" d="M2557.187,1283.331a3.193,3.193,0,0,1,1.566-3.753,2.931,2.931,0,0,1,3.794,1.373,2.961,2.961,0,0,1-1.475,4.017A2.742,2.742,0,0,1,2557.187,1283.331Z" transform="translate(-2506.241 -1209.499)" fill="#004990"/>
        <path id="Path_23835" data-name="Path 23835" d="M2532.165,1290.036a2.936,2.936,0,0,1,5.768-.946,2.935,2.935,0,1,1-5.768.946Z" transform="translate(-2489.832 -1214.484)" fill="#004990"/>
        <path id="Path_23836" data-name="Path 23836" d="M2506.3,1290.251a2.978,2.978,0,0,1,3.153-2.559,3.236,3.236,0,0,1,2.691,3.08,2.711,2.711,0,0,1-3.155,2.765A2.907,2.907,0,0,1,2506.3,1290.251Z" transform="translate(-2472.749 -1215.014)" fill="#004990"/>
        <path id="Path_23837" data-name="Path 23837" d="M2481.043,1284.568a3.181,3.181,0,0,1,3.712-1.872,3.144,3.144,0,0,1,1.877,3.694,2.939,2.939,0,0,1-5.589-1.822Z" transform="translate(-2455.965 -1211.652)" fill="#004990"/>
        <path id="Path_23838" data-name="Path 23838" d="M2458.03,1273.12a3.191,3.191,0,0,1,3.975-.838,2.932,2.932,0,1,1-3.118,4.966A2.743,2.743,0,0,1,2458.03,1273.12Z" transform="translate(-2440.544 -1204.633)" fill="#004990"/>
        <path id="Path_23839" data-name="Path 23839" d="M2438.636,1256.1a2.941,2.941,0,0,1,4.053,4.219,2.939,2.939,0,1,1-4.053-4.219Z" transform="translate(-2427.445 -1193.734)" fill="#004990"/>
        <path id="Path_23840" data-name="Path 23840" d="M2423.744,1235.08a2.924,2.924,0,0,1,3.855,1.152,3.181,3.181,0,0,1-.96,3.943,2.763,2.763,0,0,1-4.112-.994A2.951,2.951,0,0,1,2423.744,1235.08Z" transform="translate(-2417.262 -1180.124)" fill="#004990"/>
        <path id="Path_23841" data-name="Path 23841" d="M2414.189,1211.158a3.085,3.085,0,0,1,3.582,2.013,3.256,3.256,0,0,1-2.034,3.662,2.7,2.7,0,0,1-3.593-2.013A2.819,2.819,0,0,1,2414.189,1211.158Z" transform="translate(-2410.578 -1164.501)" fill="#004990"/>
        <path id="Path_23842" data-name="Path 23842" d="M2410.6,1185.54a3.265,3.265,0,0,1,3.051,2.806,3.045,3.045,0,0,1-2.724,3.059,2.844,2.844,0,0,1-3.135-2.812A2.691,2.691,0,0,1,2410.6,1185.54Z" transform="translate(-2407.779 -1147.636)" fill="#004990"/>
        <path id="Path_23843" data-name="Path 23843" d="M2413.331,1159.872a2.987,2.987,0,0,1,2.1,3.406,2.865,2.865,0,0,1-3.232,2.344,3.006,3.006,0,0,1-2.51-3.506A2.889,2.889,0,0,1,2413.331,1159.872Z" transform="translate(-2409.017 -1130.63)" fill="#004990"/>
        <path id="Path_23844" data-name="Path 23844" d="M2421.944,1135.627a2.879,2.879,0,0,1,1.22,3.814,3.077,3.077,0,0,1-3.743,1.466,2.818,2.818,0,0,1-1.561-3.964A2.974,2.974,0,0,1,2421.944,1135.627Z" transform="translate(-2414.193 -1114.463)" fill="#004990"/>
        <path id="Path_23845" data-name="Path 23845" d="M2436.294,1114.12a3.079,3.079,0,0,1,.373,4.091,3.261,3.261,0,0,1-4.16.408,2.691,2.691,0,0,1-.392-4.1A2.823,2.823,0,0,1,2436.294,1114.12Z" transform="translate(-2423.329 -1100.027)" fill="#004990"/>
        <path id="Path_23846" data-name="Path 23846" d="M2455.373,1096.6a3.235,3.235,0,0,1-.542,4.155,3.08,3.08,0,0,1-4.076-.521,2.822,2.822,0,0,1,.543-4.157A2.7,2.7,0,0,1,2455.373,1096.6Z" transform="translate(-2435.677 -1088.166)" fill="#004990"/>
        <path id="Path_23847" data-name="Path 23847" d="M2478.1,1084.256a3.19,3.19,0,0,1-1.569,3.744,2.907,2.907,0,0,1-3.782-1.37,2.941,2.941,0,0,1,1.463-4.014A2.743,2.743,0,0,1,2478.1,1084.256Z" transform="translate(-2450.424 -1079.518)" fill="#004990"/>
        <path id="Path_23848" data-name="Path 23848" d="M2503.064,1077.772a2.941,2.941,0,0,1-5.777.952,2.94,2.94,0,1,1,5.777-.952Z" transform="translate(-2466.769 -1074.762)" fill="#004990"/>
        <path id="Path_23849" data-name="Path 23849" d="M2528.893,1077.495a2.981,2.981,0,0,1-3.153,2.559,3.245,3.245,0,0,1-2.688-3.08,2.708,2.708,0,0,1,3.153-2.767A2.905,2.905,0,0,1,2528.893,1077.495Z" transform="translate(-2483.824 -1074.164)" fill="#004990"/>
        <path id="Path_23850" data-name="Path 23850" d="M2554.124,1083.275a3.17,3.17,0,0,1-3.705,1.869,3.133,3.133,0,0,1-1.884-3.691,2.778,2.778,0,0,1,3.714-1.875A2.745,2.745,0,0,1,2554.124,1083.275Z" transform="translate(-2500.58 -1077.626)" fill="#004990"/>
        <path id="Path_23851" data-name="Path 23851" d="M2577.094,1094.934a3.2,3.2,0,0,1-3.978.837,2.932,2.932,0,1,1,3.12-4.966A2.743,2.743,0,0,1,2577.094,1094.934Z" transform="translate(-2515.954 -1084.854)" fill="#004990"/>
        <path id="Path_23852" data-name="Path 23852" d="M2596.621,1111.725a2.943,2.943,0,0,1-4.058-4.22,2.941,2.941,0,1,1,4.058,4.22Z" transform="translate(-2529.184 -1095.521)" fill="#004990"/>
        <path id="Path_23853" data-name="Path 23853" d="M2611.729,1132.645a2.912,2.912,0,0,1-3.852-1.154,3.178,3.178,0,0,1,.964-3.94,2.751,2.751,0,0,1,4.1,1A2.949,2.949,0,0,1,2611.729,1132.645Z" transform="translate(-2539.588 -1109.037)" fill="#004990"/>
        <path id="Path_23854" data-name="Path 23854" d="M2621.106,1156.563a3.074,3.074,0,0,1-3.585-2.016,3.249,3.249,0,0,1,2.034-3.655,2.7,2.7,0,0,1,3.594,2.013A2.822,2.822,0,0,1,2621.106,1156.563Z" transform="translate(-2546.089 -1124.656)" fill="#004990"/>
        <path id="Path_23855" data-name="Path 23855" d="M2624.611,1182.231a3.267,3.267,0,0,1-3.056-2.807,3.051,3.051,0,0,1,2.729-3.056,2.84,2.84,0,0,1,3.136,2.806A2.692,2.692,0,0,1,2624.611,1182.231Z" transform="translate(-2548.802 -1141.571)" fill="#004990"/>
        <path id="Path_23856" data-name="Path 23856" d="M2622.021,1207.936a2.988,2.988,0,0,1-2.1-3.409,2.859,2.859,0,0,1,3.235-2.339,3,3,0,0,1,2.51,3.5A2.9,2.9,0,0,1,2622.021,1207.936Z" transform="translate(-2547.708 -1158.61)" fill="#004990"/>
        <path id="Path_23857" data-name="Path 23857" d="M2613.063,1232.227a2.887,2.887,0,0,1-1.228-3.814,3.1,3.1,0,0,1,3.756-1.473,2.827,2.827,0,0,1,1.554,3.967A2.973,2.973,0,0,1,2613.063,1232.227Z" transform="translate(-2542.186 -1174.823)" fill="#004990"/>
        <path id="Path_23858" data-name="Path 23858" d="M2598.82,1253.819a3.062,3.062,0,0,1-.379-4.084,3.257,3.257,0,0,1,4.158-.411,2.7,2.7,0,0,1,.394,4.1A2.814,2.814,0,0,1,2598.82,1253.819Z" transform="translate(-2533.153 -1189.349)" fill="#004990"/>
        <path id="Path_23859" data-name="Path 23859" d="M2579.96,1271.123a3.255,3.255,0,0,1,.544-4.158,3.078,3.078,0,0,1,4.078.515,2.828,2.828,0,0,1-.546,4.166A2.705,2.705,0,0,1,2579.96,1271.123Z" transform="translate(-2521.034 -1200.987)" fill="#004990"/>
      </g>
      <g id="Group_3756" data-name="Group 3756" transform="translate(0 0)">
        <path id="Path_23860" data-name="Path 23860" d="M2573.071,1312.09a3.17,3.17,0,0,1,1.337-3.952,3.009,3.009,0,0,1,3.868,1.337,2.86,2.86,0,0,1-1.35,3.958A2.708,2.708,0,0,1,2573.071,1312.09Z" transform="translate(-2505.261 -1218.316)" fill="#ff5b00"/>
        <path id="Path_23861" data-name="Path 23861" d="M2548.807,1320.34a3.111,3.111,0,0,1,2.063-3.591,3.051,3.051,0,0,1,3.556,2.069,2.8,2.8,0,0,1-2.057,3.6A2.767,2.767,0,0,1,2548.807,1320.34Z" transform="translate(-2489.369 -1224.119)" fill="#ff5b00"/>
        <path id="Path_23862" data-name="Path 23862" d="M2523.45,1323.993a2.912,2.912,0,1,1,5.81-.4,2.768,2.768,0,0,1-2.689,3.127A2.8,2.8,0,0,1,2523.45,1323.993Z" transform="translate(-2472.677 -1226.894)" fill="#ff5b00"/>
        <path id="Path_23863" data-name="Path 23863" d="M2497.878,1322.948a3.04,3.04,0,0,1,3.211-2.555,3.135,3.135,0,0,1,2.566,3.274,2.749,2.749,0,0,1-3.218,2.553A2.819,2.819,0,0,1,2497.878,1322.948Z" transform="translate(-2455.777 -1226.57)" fill="#ff5b00"/>
        <path id="Path_23864" data-name="Path 23864" d="M2472.951,1317.259a3,3,0,0,1,3.616-1.907,3.167,3.167,0,0,1,1.917,3.708,2.727,2.727,0,0,1-3.624,1.9A2.836,2.836,0,0,1,2472.951,1317.259Z" transform="translate(-2439.241 -1223.174)" fill="#ff5b00"/>
        <path id="Path_23865" data-name="Path 23865" d="M2449.508,1307.112a2.981,2.981,0,0,1,3.9-1.187,3.2,3.2,0,0,1,1.19,4.014,2.7,2.7,0,0,1-3.9,1.184A2.864,2.864,0,0,1,2449.508,1307.112Z" transform="translate(-2423.63 -1216.824)" fill="#ff5b00"/>
        <path id="Path_23866" data-name="Path 23866" d="M2428.379,1292.825a2.938,2.938,0,0,1,4.026-.423,3.254,3.254,0,0,1,.42,4.184,2.665,2.665,0,0,1-4.034.43A2.9,2.9,0,0,1,2428.379,1292.825Z" transform="translate(-2409.488 -1207.712)" fill="#ff5b00"/>
        <path id="Path_23867" data-name="Path 23867" d="M2410.263,1274.864a2.886,2.886,0,0,1,4,.355,3.284,3.284,0,0,1-.315,4.141,2.647,2.647,0,0,1-4.093-.271A2.965,2.965,0,0,1,2410.263,1274.864Z" transform="translate(-2397.281 -1196.127)" fill="#ff5b00"/>
        <path id="Path_23868" data-name="Path 23868" d="M2395.66,1253.917a2.812,2.812,0,0,1,3.823,1.1,3.138,3.138,0,0,1-.967,3.94,2.743,2.743,0,0,1-4.073-.94A3.009,3.009,0,0,1,2395.66,1253.917Z" transform="translate(-2387.335 -1182.508)" fill="#ff5b00"/>
        <path id="Path_23869" data-name="Path 23869" d="M2385.008,1230.667a2.766,2.766,0,0,1,3.521,1.8,2.9,2.9,0,0,1-1.561,3.659,2.946,2.946,0,0,1-3.943-1.64A3.06,3.06,0,0,1,2385.008,1230.667Z" transform="translate(-2379.958 -1167.31)" fill="#ff5b00"/>
        <path id="Path_23870" data-name="Path 23870" d="M2378.807,1205.822a2.91,2.91,0,0,1,.955,5.719,2.914,2.914,0,1,1-.955-5.719Z" transform="translate(-2375.472 -1150.992)" fill="#ff5b00"/>
        <path id="Path_23871" data-name="Path 23871" d="M2377.471,1180.276a2.823,2.823,0,0,1,2.638,2.947,2.743,2.743,0,0,1-2.724,2.844,3.072,3.072,0,0,1-3.134-2.961A2.992,2.992,0,0,1,2377.471,1180.276Z" transform="translate(-2374.251 -1134.14)" fill="#ff5b00"/>
        <path id="Path_23872" data-name="Path 23872" d="M2380.965,1154.89a2.939,2.939,0,0,1,2.1,3.391,2.784,2.784,0,0,1-3.227,2.3,3.052,3.052,0,0,1-2.515-3.484A2.906,2.906,0,0,1,2380.965,1154.89Z" transform="translate(-2376.26 -1117.333)" fill="#ff5b00"/>
        <path id="Path_23873" data-name="Path 23873" d="M2388.993,1130.542a3.051,3.051,0,0,1,1.49,3.733,2.806,2.806,0,0,1-3.611,1.666,3.021,3.021,0,0,1-1.819-3.878C2385.5,1130.384,2387.622,1129.861,2388.993,1130.542Z" transform="translate(-2381.266 -1101.148)" fill="#ff5b00"/>
        <path id="Path_23874" data-name="Path 23874" d="M2401.32,1108.016a3.132,3.132,0,0,1,.823,3.969,2.838,2.838,0,0,1-3.882.955,2.994,2.994,0,0,1-1.045-4.131A2.741,2.741,0,0,1,2401.32,1108.016Z" transform="translate(-2389.123 -1086.091)" fill="#ff5b00"/>
        <path id="Path_23875" data-name="Path 23875" d="M2417.532,1088.1a3.266,3.266,0,0,1,.126,4.111,2.869,2.869,0,0,1-4.009.205,2.963,2.963,0,0,1-.247-4.24A2.66,2.66,0,0,1,2417.532,1088.1Z" transform="translate(-2399.57 -1072.719)" fill="#ff5b00"/>
        <path id="Path_23876" data-name="Path 23876" d="M2437.085,1071.684a3.254,3.254,0,0,1-.564,4.17,2.936,2.936,0,0,1-4.012-.576,2.9,2.9,0,0,1,.571-4.173A2.66,2.66,0,0,1,2437.085,1071.684Z" transform="translate(-2412.258 -1061.698)" fill="#ff5b00"/>
        <path id="Path_23877" data-name="Path 23877" d="M2459.363,1059.286a3.19,3.19,0,0,1-1.346,3.955,3,3,0,0,1-3.859-1.345,2.853,2.853,0,0,1,1.343-3.955A2.718,2.718,0,0,1,2459.363,1059.286Z" transform="translate(-2426.732 -1053.222)" fill="#ff5b00"/>
        <path id="Path_23878" data-name="Path 23878" d="M2483.531,1051.1a3.116,3.116,0,0,1-2.058,3.6,3.068,3.068,0,0,1-3.558-2.071,2.8,2.8,0,0,1,2.057-3.6A2.759,2.759,0,0,1,2483.531,1051.1Z" transform="translate(-2442.541 -1047.489)" fill="#ff5b00"/>
        <path id="Path_23879" data-name="Path 23879" d="M2508.857,1047.464a3.072,3.072,0,0,1-2.695,3.12,3.1,3.1,0,0,1-3.114-2.724,2.769,2.769,0,0,1,2.691-3.126A2.8,2.8,0,0,1,2508.857,1047.464Z" transform="translate(-2459.198 -1044.727)" fill="#ff5b00"/>
        <path id="Path_23880" data-name="Path 23880" d="M2534.464,1048.5a3.033,3.033,0,0,1-3.212,2.55,3.135,3.135,0,0,1-2.565-3.273,2.742,2.742,0,0,1,3.215-2.553A2.823,2.823,0,0,1,2534.464,1048.5Z" transform="translate(-2476.13 -1045.035)" fill="#ff5b00"/>
        <path id="Path_23881" data-name="Path 23881" d="M2559.444,1054.138a3.008,3.008,0,0,1-3.62,1.9,3.163,3.163,0,0,1-1.913-3.705,2.721,2.721,0,0,1,3.623-1.9A2.837,2.837,0,0,1,2559.444,1054.138Z" transform="translate(-2492.718 -1048.386)" fill="#ff5b00"/>
        <path id="Path_23882" data-name="Path 23882" d="M2582.946,1064.238a2.984,2.984,0,0,1-3.9,1.187,3.2,3.2,0,0,1-1.188-4.017,2.691,2.691,0,0,1,3.893-1.184A2.869,2.869,0,0,1,2582.946,1064.238Z" transform="translate(-2508.393 -1054.688)" fill="#ff5b00"/>
        <path id="Path_23883" data-name="Path 23883" d="M2604.147,1078.465a2.946,2.946,0,0,1-4.031.42,3.247,3.247,0,0,1-.417-4.179,2.668,2.668,0,0,1,4.041-.429A2.9,2.9,0,0,1,2604.147,1078.465Z" transform="translate(-2522.604 -1063.742)" fill="#ff5b00"/>
        <path id="Path_23884" data-name="Path 23884" d="M2622.33,1096.377a2.879,2.879,0,0,1-4-.353,3.284,3.284,0,0,1,.314-4.137,2.654,2.654,0,0,1,4.1.271A2.961,2.961,0,0,1,2622.33,1096.377Z" transform="translate(-2534.879 -1075.283)" fill="#ff5b00"/>
        <path id="Path_23885" data-name="Path 23885" d="M2636.925,1117.474a2.816,2.816,0,0,1-3.825-1.108,3.14,3.14,0,0,1,.961-3.938,2.746,2.746,0,0,1,4.078.947A3.013,3.013,0,0,1,2636.925,1117.474Z" transform="translate(-2544.812 -1089.045)" fill="#ff5b00"/>
        <path id="Path_23886" data-name="Path 23886" d="M2647.388,1140.874a2.753,2.753,0,0,1-3.508-1.8,2.886,2.886,0,0,1,1.555-3.653,2.948,2.948,0,0,1,3.952,1.634A3.064,3.064,0,0,1,2647.388,1140.874Z" transform="translate(-2552.016 -1104.397)" fill="#ff5b00"/>
        <path id="Path_23887" data-name="Path 23887" d="M2653.423,1165.741a2.91,2.91,0,0,1-.964-5.715,2.913,2.913,0,1,1,.964,5.715Z" transform="translate(-2556.323 -1120.737)" fill="#ff5b00"/>
        <path id="Path_23888" data-name="Path 23888" d="M2654.771,1191.3a2.84,2.84,0,0,1-2.65-2.947,2.76,2.76,0,0,1,2.736-2.844,3.07,3.07,0,0,1,3.132,2.959A3,3,0,0,1,2654.771,1191.3Z" transform="translate(-2557.557 -1137.595)" fill="#ff5b00"/>
        <path id="Path_23889" data-name="Path 23889" d="M2651.417,1216.653a2.937,2.937,0,0,1-2.11-3.387,2.788,2.788,0,0,1,3.232-2.3,3.043,3.043,0,0,1,2.513,3.482A2.9,2.9,0,0,1,2651.417,1216.653Z" transform="translate(-2555.683 -1154.377)" fill="#ff5b00"/>
        <path id="Path_23890" data-name="Path 23890" d="M2643.532,1240.955a3.041,3.041,0,0,1-1.487-3.734,2.8,2.8,0,0,1,3.611-1.661,3.026,3.026,0,0,1,1.815,3.879A2.814,2.814,0,0,1,2643.532,1240.955Z" transform="translate(-2550.824 -1170.516)" fill="#ff5b00"/>
        <path id="Path_23891" data-name="Path 23891" d="M2631.255,1263.378a3.137,3.137,0,0,1-.82-3.976,2.826,2.826,0,0,1,3.87-.958,3,3,0,0,1,1.052,4.138A2.748,2.748,0,0,1,2631.255,1263.378Z" transform="translate(-2543.014 -1185.461)" fill="#ff5b00"/>
        <path id="Path_23892" data-name="Path 23892" d="M2615.065,1283.146a3.28,3.28,0,0,1-.129-4.117,2.879,2.879,0,0,1,4.014-.2,2.964,2.964,0,0,1,.246,4.237A2.664,2.664,0,0,1,2615.065,1283.146Z" transform="translate(-2532.593 -1198.69)" fill="#ff5b00"/>
        <path id="Path_23893" data-name="Path 23893" d="M2595.455,1299.6a3.249,3.249,0,0,1,.567-4.169,2.93,2.93,0,0,1,3.443,4.742A2.666,2.666,0,0,1,2595.455,1299.6Z" transform="translate(-2519.846 -1209.744)" fill="#ff5b00"/>
      </g>
    </g>
    <text id="Submit" transform="translate(53 60)" fill="#4e3e3c" font-size="11" font-family="SegoeUI-Semibold, Segoe UI" font-weight="600"><tspan x="-17.813" y="0">Submit</tspan></text>
  </g>
</svg>
