<svg xmlns="http://www.w3.org/2000/svg" xmlns:xlink="http://www.w3.org/1999/xlink" width="456" height="123" viewBox="0 0 456 123">
  <defs>
    <filter id="Rectangle_1718" x="0" y="6" width="456" height="117" filterUnits="userSpaceOnUse">
      <feOffset dy="3" input="SourceAlpha"/>
      <feGaussianBlur stdDeviation="3" result="blur"/>
      <feFlood flood-opacity="0.361"/>
      <feComposite operator="in" in2="blur"/>
      <feComposite in="SourceGraphic"/>
    </filter>
  </defs>
  <g id="Component_65_8" data-name="Component 65 – 8" transform="translate(447 122) rotate(180)">
    <path id="Rectangle_1717" data-name="Rectangle 1717" d="M0,0H390a54,54,0,0,1,54,54V68a54,54,0,0,1-54,54H0a0,0,0,0,1,0,0V0A0,0,0,0,1,0,0Z" fill="#fff"/>
    <g transform="matrix(-1, 0, 0, -1, 447, 122)" filter="url(#Rectangle_1718)">
      <path id="Rectangle_1718-2" data-name="Rectangle 1718" d="M0,0H388.5A49.5,49.5,0,0,1,438,49.5v0A49.5,49.5,0,0,1,388.5,99H0a0,0,0,0,1,0,0V0A0,0,0,0,1,0,0Z" transform="translate(447 111) rotate(180)" fill="#479dff"/>
    </g>
  </g>
</svg>
