<svg xmlns="http://www.w3.org/2000/svg" xmlns:xlink="http://www.w3.org/1999/xlink" width="151" height="151" viewBox="0 0 151 151">
  <defs>
    <linearGradient id="linear-gradient" x1="0.552" y1="0.607" x2="0.801" y2="-1.951" gradientUnits="objectBoundingBox">
      <stop offset="0" stop-color="#fff"/>
      <stop offset="1" stop-color="gray"/>
      <stop offset="1"/>
    </linearGradient>
    <filter id="Ellipse_484" x="0" y="0" width="151" height="151" filterUnits="userSpaceOnUse">
      <feOffset dy="3" input="SourceAlpha"/>
      <feGaussianBlur stdDeviation="3" result="blur"/>
      <feFlood flood-opacity="0.231"/>
      <feComposite operator="in" in2="blur"/>
      <feComposite in="SourceGraphic"/>
    </filter>
  </defs>
  <g id="Group_13045" data-name="Group 13045" transform="translate(-1234 -57)">
    <g id="Component_62_2" data-name="Component 62 – 2" transform="translate(1243 63)">
      <g transform="matrix(1, 0, 0, 1, -9, -6)" filter="url(#Ellipse_484)">
        <circle id="Ellipse_484-2" data-name="Ellipse 484" cx="66.5" cy="66.5" r="66.5" transform="translate(9 6)" fill="url(#linear-gradient)"/>
      </g>
      <g id="Group_7074" data-name="Group 7074" transform="translate(11.154 33.585)">
        <path id="Path_53053" data-name="Path 53053" d="M72.06,39.534l-4.752-9.791a29.214,29.214,0,0,0-3.9-6.654,8,8,0,0,0-5.859-2.815,8.148,8.148,0,0,0,2.143-2.741,7.212,7.212,0,0,0,2.036.015l-.136-1.124a6.548,6.548,0,0,1-1.474.019,8.094,8.094,0,1,0-15.789-1.655,21.223,21.223,0,0,1-2.491.143v1.133a22.275,22.275,0,0,0,2.672-.157,8.107,8.107,0,0,0,2.717,4.366c-5.9.228-7.883,5.608-10.986,12-3.531-7.246-5.149-11.6-11-12.02a8.1,8.1,0,1,0-10.322,0c-5.944.026-8.467,6.8-9.759,9.47L.4,39.512a4.019,4.019,0,0,0,7.224,3.525L12,34.6V65.519a4.261,4.261,0,0,0,8.088,1.876,4.262,4.262,0,0,0,8.1-1.853V34.613l4.37,8.465a4.206,4.206,0,0,0,7.367-.005l2.823-5.444L39.3,54.746h5.007v10.8a4.262,4.262,0,0,0,8.083,1.887,4.261,4.261,0,0,0,8.082-1.887v-10.8h5.007l-3.441-17.1,2.8,5.411a4.019,4.019,0,0,0,7.223-3.527ZM56.291,8.5a.356.356,0,0,0-.038-.136c.015-.03.03-.062.045-.09a7.013,7.013,0,0,1,2.08,2.2.317.317,0,1,0,.156.274c.086.162.166.325.24.493a.326.326,0,0,0-.127.25.314.314,0,0,0,.347.32,6.977,6.977,0,0,1,.272,1.086.317.317,0,1,0,.015.1,6.921,6.921,0,0,1-.137,2.729.316.316,0,0,0-.5.254.334.334,0,0,0,.012.078,5.531,5.531,0,0,1-2.67-2.751.306.306,0,0,0,.3-.322.319.319,0,0,0-.541-.219,9.832,9.832,0,0,1-.5-1.7.307.307,0,0,0,.291-.322.315.315,0,0,0-.4-.3c-.012-.082-.022-.164-.033-.247a12.283,12.283,0,0,0,.9-1.378A.309.309,0,0,0,56.291,8.5ZM45.427,14.188a7.179,7.179,0,0,1,.033-.878.308.308,0,0,0,.358-.319.311.311,0,0,0-.267-.3,6.769,6.769,0,0,1,.548-1.654.317.317,0,1,0,.3-.557c.089-.149.184-.293.284-.435a.316.316,0,1,0,.264-.349,7.17,7.17,0,0,1,.507-.561.376.376,0,0,0-.028.12.318.318,0,1,0,.209-.292,6.832,6.832,0,0,1,.54-.452A.317.317,0,1,0,48.81,8.5a.312.312,0,0,0-.212-.291c.132-.086.266-.166.4-.243a.317.317,0,0,0,.558-.214.386.386,0,0,0-.013-.06,7.042,7.042,0,0,1,1.67-.515.315.315,0,0,0,.572-.076,6.9,6.9,0,0,1,.884-.022.316.316,0,0,0,.6.049,6.908,6.908,0,0,1,1.695.443.348.348,0,0,0-.063.183.311.311,0,0,0,.227.307,12.347,12.347,0,0,1-4.841,4.85.317.317,0,0,0-.622.079.332.332,0,0,0,.079.214c-.153.077-.309.154-.469.227a.309.309,0,0,0-.3.133c-.318.138-.649.268-1,.39a.329.329,0,0,0,.077-.218.318.318,0,0,0-.636,0,.312.312,0,0,0,.264.317q-.261.085-.533.164a.317.317,0,0,0-.439.121c-.292.075-.6.144-.907.207a.358.358,0,0,0,.007-.064A.318.318,0,0,0,45.427,14.188Zm.205,1.551a14.7,14.7,0,0,0,8.515-4.391c.7,3.309,2.43,5.188,4.423,5.9a6.966,6.966,0,0,1-12.938-1.512Zm10.646,5.649a4.105,4.105,0,0,1-7.868,0h.575a8.092,8.092,0,0,0,6.821,0ZM24.235,8.429a.443.443,0,0,0-.013.075.319.319,0,0,0,.461.291c.112.1.223.2.329.309a.365.365,0,0,0-.042.149.318.318,0,0,0,.447.3c.107.128.211.259.309.4a.337.337,0,0,0-.007.055.31.31,0,0,0,.256.315,6.907,6.907,0,0,1,.751,1.627.31.31,0,0,0-.258.3.317.317,0,0,0,.418.307c.013.06.027.12.038.18a3.229,3.229,0,0,1-1.322-.449c0-.014.005-.025.006-.04a.314.314,0,0,0-.429-.286,2.936,2.936,0,0,1-.333-.37.371.371,0,0,0,.014-.093.311.311,0,0,0-.273-.3,4.911,4.911,0,0,1-.533-1.746.345.345,0,0,0,.059-.195.325.325,0,0,0-.1-.223c-.019-.254-.026-.512-.022-.775C24.071,8.309,24.153,8.369,24.235,8.429ZM14.182,10.3a.309.309,0,0,0,.2-.3h0q.16-.227.336-.438a.312.312,0,0,0,.413-.309.362.362,0,0,0-.028-.118c.112-.114.229-.222.348-.327a.312.312,0,0,0,.428-.3.379.379,0,0,0-.008-.041,6.981,6.981,0,0,1,1.746-.954.325.325,0,0,0-.129.25.317.317,0,1,0,.3-.311q.288-.1.583-.173a.317.317,0,0,0,.457-.1,7.109,7.109,0,0,1,.912-.106.315.315,0,0,0,.622,0,7.01,7.01,0,0,1,.9.092.322.322,0,0,0,.486.1c.161.04.322.083.481.135,0,.02,0,.04,0,.059a.315.315,0,0,0-.1.579A4.35,4.35,0,0,1,19.614,10.7a.317.317,0,0,0-.628.047.33.33,0,0,0,.066.2,10.828,10.828,0,0,1-1.682.5.316.316,0,0,0-.628.047.413.413,0,0,0,.009.075q-.447.077-.942.136a.337.337,0,0,0,.072-.212.318.318,0,1,0-.512.259c-.588.055-1.223.089-1.912.1A7.032,7.032,0,0,1,14.182,10.3Zm-.993,2.682c3.921.015,8.157-.8,9.7-3.817.23,2.707,1.575,4.508,4.159,4.713a7.084,7.084,0,0,1-6.965,7.1A6.959,6.959,0,0,1,13.189,12.984Zm8.89,8.847-2,2-2-2A8.105,8.105,0,0,0,22.079,21.831ZM6.618,42.528a2.888,2.888,0,0,1-5.2-2.522L5.405,31.8l5.205,3.02Zm12.77,21.789a.313.313,0,0,0-.4.3.316.316,0,0,0,.4.311v.594c0,.1-.005.195-.014.29a.315.315,0,1,0-.12.618,3.139,3.139,0,0,1-1.891,2.021.384.384,0,0,0,.014-.1.318.318,0,0,0-.636,0,.323.323,0,0,0,.1.239,3.128,3.128,0,0,1-.586.056,3.182,3.182,0,0,1-.495-.039.322.322,0,0,0,.119-.258.318.318,0,0,0-.636,0,.356.356,0,0,0,.029.136,3.137,3.137,0,0,1-2.015-2.067.309.309,0,0,0,.377-.317.317.317,0,0,0-.493-.257,3.169,3.169,0,0,1-.017-.333v-.649a.318.318,0,1,0,0-.5v-.992a.316.316,0,0,0,.511-.259.336.336,0,0,0-.072-.193h1a.344.344,0,0,0-.071.2.318.318,0,1,0,.636,0,.336.336,0,0,0-.072-.193h1a.339.339,0,0,0-.071.2.317.317,0,1,0,.635,0,.336.336,0,0,0-.072-.193h1a.344.344,0,0,0-.071.2.318.318,0,1,0,.636,0,.336.336,0,0,0-.072-.193h1a.339.339,0,0,0-.07.2.317.317,0,0,0,.4.311v.889Zm7.665.133a.318.318,0,1,0,0,.342v.75a3.128,3.128,0,0,1-.022.371.318.318,0,1,0-.1.484A3.136,3.136,0,0,1,24.8,68.546a.345.345,0,0,0,.059-.195.318.318,0,1,0-.469.286,3.219,3.219,0,0,1-.468.035,3.1,3.1,0,0,1-.666-.072.324.324,0,0,0,.107-.249.317.317,0,0,0-.635,0,.405.405,0,0,0,.012.087,3.138,3.138,0,0,1-1.826-2.03.3.3,0,0,0,.2-.3A.312.312,0,0,0,20.8,65.8c-.007-.086-.012-.172-.012-.259v-.609a.306.306,0,0,0,.328-.322.313.313,0,0,0-.328-.307v-.867a.307.307,0,0,0,.328-.322.333.333,0,0,0-.074-.193H22.05a.339.339,0,0,0-.071.2.317.317,0,1,0,.635,0,.336.336,0,0,0-.072-.193h1a.339.339,0,0,0-.071.2.318.318,0,1,0,.636,0,.336.336,0,0,0-.072-.193h1a.345.345,0,0,0-.072.2.318.318,0,1,0,.636,0,.336.336,0,0,0-.072-.193h1a.344.344,0,0,0-.071.2.319.319,0,0,0,.586.178Zm0-1.5a.353.353,0,0,0-.022-.032h.022Zm0-1.164H20.79V47.29h-1.4v14.5H13.126v-18.7H27.051v18.7Zm1.9-28.152-.874-1.693a.317.317,0,1,0-.115-.25c0,.012,0,.022,0,.034l-.262-.508a.314.314,0,0,0,.146-.276.317.317,0,0,0-.436-.286l-.362-.7v.079a.318.318,0,1,0,0,.342v1.154a.318.318,0,1,0,0,.342V33.03a.318.318,0,1,0,0,.341v1.155a.318.318,0,1,0,0,.341v1.155a.318.318,0,1,0,0,.342V37.52a.318.318,0,1,0,0,.342v1.154a.318.318,0,1,0,0,.342v1.155a.318.318,0,1,0,0,.341v1.1h-.039a.323.323,0,0,0-.458,0H25.516a.323.323,0,0,0-.458,0H24.02a.323.323,0,0,0-.458,0H22.524a.323.323,0,0,0-.458,0H21.027a.323.323,0,0,0-.458,0H19.531a.323.323,0,0,0-.458,0H18.034a.322.322,0,0,0-.457,0H16.539a.323.323,0,0,0-.458,0H15.044a.323.323,0,0,0-.458,0H13.547a.325.325,0,0,0-.422-.033v-.991a.317.317,0,1,0,0-.5v-.993a.318.318,0,1,0,0-.5v-.992a.318.318,0,1,0,0-.5v-.992a.318.318,0,1,0,0-.5v-.992a.318.318,0,1,0,0-.5v-1a.318.318,0,1,0,0-.5v-.993a.318.318,0,1,0,0-.5v-.993A.318.318,0,1,0,13,30.2l-.254.491a.317.317,0,0,0-.494.257.31.31,0,0,0,.206.3l-1.249,2.412a.326.326,0,0,0-.3.019l-.388-.225a.317.317,0,1,0-.5-.291L7.639,31.784a.383.383,0,0,0,.014-.091.318.318,0,0,0-.542-.216l-.4-.231a.31.31,0,0,0,.193-.3.318.318,0,0,0-.636,0,.315.315,0,0,0,.005.046L5.9,30.777q.26-.537.509-1.057a.315.315,0,0,0,.494-.271.31.31,0,0,0-.222-.292c.414-.857.818-1.669,1.236-2.422a.316.316,0,1,0,.314-.549c.093-.159.188-.313.283-.465a.317.317,0,1,0,.188-.295A8.681,8.681,0,0,1,12.281,22.1a.317.317,0,0,0,.608-.135.375.375,0,0,0-.022-.1,8.2,8.2,0,0,1,1.728-.411.318.318,0,0,0,.485-.051c.3-.025.612-.04.938-.04l4.065,4.065,4.065-4.065c.3,0,.593.014.875.037a.321.321,0,0,0,.492.051,8.112,8.112,0,0,1,1.722.412.37.37,0,0,0-.023.107.318.318,0,0,0,.609.132,8.9,8.9,0,0,1,3.61,3.341.317.317,0,1,0,.156.266c0-.012,0-.022-.005-.033.105.163.208.329.31.5a.313.313,0,0,0-.192.284.32.32,0,0,0,.51.261c.082.146.164.293.244.442,0,.015-.005.029-.007.045a.31.31,0,0,0,.188.293c.278.527.553,1.077.83,1.646a.309.309,0,0,0-.27.305.319.319,0,0,0,.535.239c.076.159.153.317.23.478,0,.011,0,.02,0,.031a.313.313,0,0,0,.153.277l.156.322-.455.262a.37.37,0,0,0,.02-.114.318.318,0,0,0-.636,0,.312.312,0,0,0,.261.317l-.437.251a.316.316,0,0,0-.572.18.36.36,0,0,0,.028.133L30.09,33.2v-.012a.318.318,0,0,0-.636,0,.311.311,0,0,0,.162.28l-.394.227A.324.324,0,0,0,28.952,33.638Zm3.767,5.875a3.874,3.874,0,0,0-.3.846l-2.862-5.544,5.206-2.994.849,1.749Zm6.208,3.015a2.871,2.871,0,0,1-3.988,1.3,2.908,2.908,0,0,1-1.2-3.815l3.529-7.262,5.18,3ZM40.68,53.61l.026-.13a.308.308,0,0,0,.071.13ZM51.7,63.635a.318.318,0,1,0,0,.474v1.022a.318.318,0,1,0,0,.475,3.167,3.167,0,0,1-.166.946.311.311,0,0,0-.364.3.319.319,0,0,0,.112.249,3.082,3.082,0,0,1-.255.375.317.317,0,0,0-.606.125.31.31,0,0,0,.2.3,3.094,3.094,0,0,1-.371.278.317.317,0,0,0-.579.171.392.392,0,0,0,.02.11,3.121,3.121,0,0,1-1.123.208h-.02a.308.308,0,0,0,.262-.32.318.318,0,0,0-.636,0,.313.313,0,0,0,.254.315,3.109,3.109,0,0,1-1.122-.262.306.306,0,0,0,.009-.054.318.318,0,0,0-.524-.233,3.253,3.253,0,0,1-.333-.265.324.324,0,0,0,.108-.25.318.318,0,0,0-.533-.225,3.1,3.1,0,0,1-.242-.392.377.377,0,0,0,.027-.132.31.31,0,0,0-.208-.287,3.114,3.114,0,0,1-.17-.892.309.309,0,0,0,.378-.317.314.314,0,0,0-.38-.3v-.88a.309.309,0,0,0,.38-.316.314.314,0,0,0-.38-.3v-.04H51.7v.113Zm0-1.245H45.436V54.746H51.7Zm7.642,3.151a3.118,3.118,0,0,1-.187,1.067.316.316,0,0,0-.506.249.309.309,0,0,0,.238.31,3.171,3.171,0,0,1-.354.475c0-.013,0-.025,0-.038a.318.318,0,0,0-.636,0,.314.314,0,0,0,.338.321,3.128,3.128,0,0,1-.47.33.317.317,0,0,0-.616.1.342.342,0,0,0,.041.16,3.112,3.112,0,0,1-.983.159c-.055,0-.109,0-.165,0a.308.308,0,0,0,.246-.317.318.318,0,0,0-.636,0,.309.309,0,0,0,.2.3,3.093,3.093,0,0,1-1.059-.318.315.315,0,0,0-.434-.266,3.239,3.239,0,0,1-.351-.3.361.361,0,0,0,.04-.163.314.314,0,0,0-.417-.29,3.108,3.108,0,0,1-.548-1.646.315.315,0,0,0,0-.6v-.9a.314.314,0,0,0,0-.6v-.051h6.262v2.02Zm0-3.151H53.078V54.746H59.34Zm1.588-29.34-.212-.411a.339.339,0,0,0,.062-.2.312.312,0,0,0-.324-.307l-.844-1.63a.312.312,0,0,0,.42-.307.317.317,0,0,0-.62-.08l-.07-.136.286,1.417a.315.315,0,0,0,.124.616l.195.965a.317.317,0,1,0,.066.328l.368,1.829a.315.315,0,0,0,.124.617l.2.973a.317.317,0,1,0,.062.312l.37,1.838a.31.31,0,0,0-.238.3.314.314,0,0,0,.362.317l.2.98a.317.317,0,1,0,.06.3l.371,1.846a.315.315,0,0,0,.125.617l.2.988a.317.317,0,1,0,.057.281l.374,1.854a.309.309,0,0,0-.248.3.314.314,0,0,0,.372.316l.2,1a.317.317,0,1,0,.053.263l.375,1.862a.31.31,0,0,0-.253.3.314.314,0,0,0,.377.315l.2,1.01a.317.317,0,1,0,.048.238l.333,1.651h-.408a.329.329,0,0,0,.083-.225.318.318,0,0,0-.635,0,.33.33,0,0,0,.086.222h-1.03a.329.329,0,0,0,.083-.225.318.318,0,0,0-.636,0,.334.334,0,0,0,.086.222H60.7a.335.335,0,0,0,.083-.225.318.318,0,0,0-.636,0,.329.329,0,0,0,.086.222H59.2a.339.339,0,0,0,.083-.225.318.318,0,0,0-.636,0,.325.325,0,0,0,.086.222H57.7a.335.335,0,0,0,.083-.224.318.318,0,0,0-.636,0,.326.326,0,0,0,.085.222H56.207a.339.339,0,0,0,.083-.224.318.318,0,0,0-.636,0,.326.326,0,0,0,.085.222H54.71a.339.339,0,0,0,.082-.224.317.317,0,0,0-.635,0,.326.326,0,0,0,.085.222H53.214a.335.335,0,0,0,.082-.223.318.318,0,0,0-.636,0,.327.327,0,0,0,.085.221H51.718a.333.333,0,0,0,.081-.223.317.317,0,0,0-.635,0,.331.331,0,0,0,.084.221H50.221a.334.334,0,0,0,.081-.223.318.318,0,0,0-.636,0,.331.331,0,0,0,.085.221H48.725a.336.336,0,0,0,.081-.223.318.318,0,0,0-.636,0,.329.329,0,0,0,.085.221H47.228a.34.34,0,0,0,.081-.223.318.318,0,0,0-.636,0,.329.329,0,0,0,.085.221H45.732a.339.339,0,0,0,.081-.223.318.318,0,0,0-.636,0,.33.33,0,0,0,.083.22H44.24a.336.336,0,0,0,.081-.222.318.318,0,0,0-.636,0,.326.326,0,0,0,.083.22H42.744a.337.337,0,0,0,.08-.222.317.317,0,0,0-.635,0,.326.326,0,0,0,.083.22H41.247a.337.337,0,0,0,.08-.222.319.319,0,0,0-.565-.192l.2-.986a.314.314,0,0,0,.124-.615l.372-1.846a.317.317,0,1,0,.06-.3l.2-.979a.307.307,0,0,0,.362-.318.312.312,0,0,0-.238-.3l.37-1.838a.317.317,0,1,0,.064-.314l.2-.972a.308.308,0,0,0,.357-.319.313.313,0,0,0-.233-.3l.368-1.829a.317.317,0,1,0,.067-.33l.194-.964a.315.315,0,0,0,.124-.615l.367-1.822a.317.317,0,1,0,.07-.346l.193-.957a.314.314,0,0,0,.122-.614l.365-1.814a.318.318,0,1,0,.074-.363l.191-.95a.314.314,0,0,0,.123-.612l.364-1.808a.318.318,0,1,0,.076-.376l.147-.733-.73,1.408a.309.309,0,0,0-.272.307.341.341,0,0,0,.036.149l-.214.412a.318.318,0,0,0-.57.187.31.31,0,0,0,.307.319L43.146,34.4a.316.316,0,0,0-.208.291c0,.014,0,.026,0,.04l-2.395-1.387a.379.379,0,0,0,.034-.151.317.317,0,0,0-.58-.166l-.449-.26a.307.307,0,0,0,.28-.321.317.317,0,0,0-.635,0,.359.359,0,0,0,.026.13l-1.462-.847c.074-.156.146-.309.219-.462a.307.307,0,0,0,.356-.319.323.323,0,0,0-.1-.222l.219-.457a.317.317,0,1,0,.165-.343c.281-.581.554-1.133.822-1.657a.308.308,0,0,0,.388-.313.32.32,0,0,0-.107-.229c.077-.147.155-.291.231-.434a.317.317,0,1,0,.208-.378,19.937,19.937,0,0,1,1.53-2.385.309.309,0,0,0,.382-.315.354.354,0,0,0-.03-.122q.15-.177.3-.345a.314.314,0,0,0,.475-.282.345.345,0,0,0-.046-.156c.11-.105.223-.2.337-.3a.315.315,0,0,0,.457-.292.375.375,0,0,0-.009-.06,6.446,6.446,0,0,1,1.681-.872.344.344,0,0,0-.064.186.318.318,0,1,0,.636,0,.312.312,0,0,0-.221-.293,7.76,7.76,0,0,1,1.648-.27,5.19,5.19,0,0,0,.36,1.033.315.315,0,0,0-.179.28.319.319,0,0,0,.484.277c.086.137.179.27.277.4a.365.365,0,0,0-.013.073.314.314,0,0,0,.347.32,5.371,5.371,0,0,0,.408.393.185.185,0,0,0-.007.035.317.317,0,0,0,.438.3c.126.088.257.17.389.247a.333.333,0,0,0-.079.2.317.317,0,0,0,.628.071,5.179,5.179,0,0,0,1.771.409.319.319,0,1,0,.336.007,5.208,5.208,0,0,0,1.791-.338.317.317,0,0,0,.6-.152.354.354,0,0,0-.023-.106,5.274,5.274,0,0,0,1.981-1.815.307.307,0,0,0,.286-.322.37.37,0,0,0-.03-.122q.109-.213.2-.438a.317.317,0,1,0,.167-.481c.027-.091.051-.182.073-.275a7.609,7.609,0,0,1,2.7.617.317.317,0,0,0,.47.237c.129.073.257.151.38.233a.327.327,0,0,0-.106.232.318.318,0,0,0,.607.136c.124.1.246.205.367.317a.313.313,0,0,0-.227.3.317.317,0,0,0,.621.093c.111.117.222.238.331.365a.313.313,0,0,0-.2.29.319.319,0,0,0,.586.177q.129.167.26.347a.33.33,0,0,0-.1.224.319.319,0,0,0,.459.292,27.755,27.755,0,0,1,1.42,2.4.313.313,0,0,0-.382.3.318.318,0,0,0,.611.128c.072.137.143.278.217.42a.328.328,0,0,0-.079.2.314.314,0,0,0,.343.32q.382.761.788,1.62a.313.313,0,0,0-.381.3.318.318,0,0,0,.6.156c.066.14.133.283.2.428a.358.358,0,0,0-.05.166.33.33,0,0,0,.087.222l-.408.236a.312.312,0,0,0-.42.243l-1.654.955a.38.38,0,0,0,.04-.162.318.318,0,0,0-.636,0,.313.313,0,0,0,.314.322l-.472.272a.317.317,0,0,0-.59.154.338.338,0,0,0,.042.164l-1.312.757-.7-1.349a.31.31,0,0,0,.36-.32A.319.319,0,0,0,60.929,33.05Zm8.783,10.828a2.89,2.89,0,0,1-3.864-1.327l-3.461-6.685,5.184-2.993,3.473,7.155A2.876,2.876,0,0,1,69.712,43.878ZM56.4,9.252a.317.317,0,0,1,.635,0A.317.317,0,1,1,56.4,9.252ZM55.655,10a.318.318,0,0,1,.636,0A.318.318,0,1,1,55.655,10Zm1.5,0a.318.318,0,0,1,.636,0A.318.318,0,1,1,57.151,10Zm-.748.748a.317.317,0,0,1,.635,0A.317.317,0,1,1,56.4,10.748Zm-.748.749a.318.318,0,0,1,.636,0A.318.318,0,1,1,55.655,11.5Zm1.5,0a.318.318,0,0,1,.636,0A.318.318,0,1,1,57.151,11.5Zm-.748.748a.317.317,0,0,1,.635,0A.317.317,0,1,1,56.4,12.244Zm1.5,0a.318.318,0,0,1,.636,0A.318.318,0,1,1,57.9,12.244Zm-.748.749a.318.318,0,0,1,.636,0A.318.318,0,1,1,57.151,12.993Zm-.748.748a.317.317,0,0,1,.635,0A.317.317,0,1,1,56.4,13.74Zm1.5,0a.318.318,0,0,1,.636,0A.318.318,0,1,1,57.9,13.74Zm-.748.748a.318.318,0,0,1,.636,0A.318.318,0,1,1,57.151,14.488Zm1.5,0a.318.318,0,0,1,.636,0A.318.318,0,1,1,58.647,14.488Zm-.749.749a.318.318,0,0,1,.636,0A.318.318,0,1,1,57.9,15.237ZM50.418,7.756a.318.318,0,0,1,.636,0A.318.318,0,1,1,50.418,7.756Zm1.5,0a.318.318,0,0,1,.636,0A.318.318,0,1,1,51.915,7.756Zm1.5,0a.318.318,0,0,1,.636,0A.318.318,0,1,1,53.41,7.756ZM49.67,8.5a.318.318,0,0,1,.636,0A.318.318,0,1,1,49.67,8.5Zm1.5,0a.317.317,0,0,1,.635,0A.317.317,0,1,1,51.166,8.5Zm1.5,0a.318.318,0,0,1,.636,0A.318.318,0,1,1,52.662,8.5Zm1.5,0a.317.317,0,0,1,.635,0A.317.317,0,1,1,54.159,8.5Zm-5.236.749a.318.318,0,0,1,.636,0A.318.318,0,1,1,48.923,9.252Zm1.5,0a.318.318,0,0,1,.636,0A.318.318,0,1,1,50.418,9.252Zm1.5,0a.318.318,0,0,1,.636,0A.318.318,0,1,1,51.915,9.252Zm1.5,0a.318.318,0,0,1,.636,0A.318.318,0,1,1,53.41,9.252ZM48.174,10a.318.318,0,0,1,.636,0A.318.318,0,1,1,48.174,10Zm1.5,0a.318.318,0,0,1,.636,0A.318.318,0,1,1,49.67,10Zm1.5,0a.318.318,0,0,1,.635,0A.318.318,0,1,1,51.166,10Zm1.5,0a.318.318,0,0,1,.636,0A.318.318,0,1,1,52.662,10Zm-5.237.748a.318.318,0,0,1,.636,0A.318.318,0,1,1,47.425,10.748Zm1.5,0a.318.318,0,0,1,.636,0A.318.318,0,1,1,48.923,10.748Zm1.5,0a.318.318,0,0,1,.636,0A.318.318,0,1,1,50.418,10.748Zm1.5,0a.318.318,0,0,1,.636,0A.318.318,0,1,1,51.915,10.748Zm-5.237.749a.318.318,0,0,1,.635,0A.318.318,0,1,1,46.678,11.5Zm1.5,0a.318.318,0,0,1,.636,0A.318.318,0,1,1,48.174,11.5Zm1.5,0a.318.318,0,0,1,.636,0A.318.318,0,1,1,49.67,11.5Zm1.5,0a.317.317,0,0,1,.635,0A.317.317,0,1,1,51.166,11.5Zm-5.236.748a.318.318,0,0,1,.636,0A.318.318,0,1,1,45.93,12.244Zm1.5,0a.318.318,0,0,1,.636,0A.318.318,0,1,1,47.425,12.244Zm1.5,0a.318.318,0,0,1,.636,0A.318.318,0,1,1,48.923,12.244Zm1.5,0a.318.318,0,0,1,.636,0A.318.318,0,1,1,50.418,12.244Zm-3.741.749a.318.318,0,0,1,.635,0A.318.318,0,1,1,46.678,12.993Zm1.5,0a.318.318,0,0,1,.636,0A.318.318,0,1,1,48.174,12.993Zm-2.244.748a.318.318,0,0,1,.636,0A.318.318,0,1,1,45.93,13.74ZM24.222,10a.318.318,0,0,1,.636,0A.318.318,0,1,1,24.222,10Zm.748.748a.318.318,0,0,1,.636,0A.318.318,0,1,1,24.97,10.748Zm.749.749a.317.317,0,0,1,.635,0A.317.317,0,1,1,25.719,11.5ZM18.986,7.756a.317.317,0,0,1,.635,0A.317.317,0,1,1,18.986,7.756Zm1.5,0a.318.318,0,0,1,.636,0A.318.318,0,1,1,20.482,7.756Zm-3.74.748a.318.318,0,0,1,.636,0A.318.318,0,1,1,16.742,8.5Zm1.5,0a.318.318,0,0,1,.636,0A.318.318,0,1,1,18.237,8.5Zm1.5,0a.317.317,0,0,1,.635,0A.317.317,0,1,1,19.734,8.5Zm1.5,0a.318.318,0,0,1,.636,0A.318.318,0,1,1,21.229,8.5Zm-5.236.749a.318.318,0,0,1,.635,0A.318.318,0,1,1,15.993,9.252Zm1.5,0a.318.318,0,0,1,.636,0A.318.318,0,1,1,17.49,9.252Zm1.5,0a.318.318,0,0,1,.635,0A.318.318,0,1,1,18.986,9.252Zm1.5,0a.318.318,0,0,1,.636,0A.318.318,0,1,1,20.482,9.252ZM15.245,10a.318.318,0,0,1,.636,0A.318.318,0,1,1,15.245,10Zm1.5,0a.318.318,0,0,1,.636,0A.318.318,0,1,1,16.742,10Zm1.5,0a.318.318,0,0,1,.636,0A.318.318,0,1,1,18.237,10Zm1.5,0a.318.318,0,0,1,.635,0A.318.318,0,1,1,19.734,10Zm-4.6.746a.318.318,0,1,1-.636,0A.318.318,0,0,1,15.132,10.746Zm.861,0a.317.317,0,0,1,.635,0A.317.317,0,1,1,15.993,10.748Zm1.5,0a.318.318,0,0,1,.636,0A.318.318,0,1,1,17.49,10.748Zm-3.105.746a.318.318,0,1,1-.636,0A.318.318,0,0,1,14.384,11.494Zm0,52.37a.318.318,0,1,1-.636,0A.318.318,0,0,1,14.384,63.864Zm1.5,0a.318.318,0,1,1-.636,0A.318.318,0,0,1,15.881,63.864Zm1.5,0a.318.318,0,1,1-.636,0A.318.318,0,0,1,17.377,63.864Zm1.5,0a.318.318,0,1,1-.636,0A.318.318,0,0,1,18.873,63.864Zm-3.741.748a.318.318,0,1,1-.636,0A.318.318,0,0,1,15.132,64.611Zm1.5,0a.317.317,0,1,1-.635,0A.317.317,0,0,1,16.629,64.611Zm1.5,0a.318.318,0,1,1-.636,0A.318.318,0,0,1,18.125,64.611Zm-3.741.748a.318.318,0,1,1-.636,0A.318.318,0,0,1,14.384,65.359Zm1.5,0a.318.318,0,1,1-.636,0A.318.318,0,0,1,15.881,65.359Zm1.5,0a.318.318,0,1,1-.636,0A.318.318,0,0,1,17.377,65.359Zm1.5,0a.318.318,0,1,1-.636,0A.318.318,0,0,1,18.873,65.359Zm-3.741.749a.318.318,0,1,1-.636,0A.318.318,0,0,1,15.132,66.108Zm1.5,0a.317.317,0,1,1-.635,0A.317.317,0,0,1,16.629,66.108Zm1.5,0a.318.318,0,1,1-.636,0A.318.318,0,0,1,18.125,66.108Zm-3.741.747a.318.318,0,1,1-.636,0A.318.318,0,0,1,14.384,66.856Zm1.5,0a.318.318,0,1,1-.636,0A.318.318,0,0,1,15.881,66.856Zm1.5,0a.318.318,0,1,1-.636,0A.318.318,0,0,1,17.377,66.856Zm1.5,0a.318.318,0,1,1-.636,0A.318.318,0,0,1,18.873,66.856Zm-3.741.749a.318.318,0,1,1-.636,0A.318.318,0,0,1,15.132,67.6Zm1.5,0a.317.317,0,1,1-.635,0A.317.317,0,0,1,16.629,67.6Zm1.5,0a.318.318,0,1,1-.636,0A.318.318,0,0,1,18.125,67.6Zm3.74-3.741a.318.318,0,1,1-.636,0A.318.318,0,0,1,21.865,63.864Zm1.5,0a.317.317,0,1,1-.635,0A.317.317,0,0,1,23.361,63.864Zm1.5,0a.318.318,0,1,1-.636,0A.318.318,0,0,1,24.858,63.864Zm1.5,0a.317.317,0,1,1-.635,0A.317.317,0,0,1,26.353,63.864Zm-3.74.748a.317.317,0,1,1-.635,0A.317.317,0,0,1,22.614,64.611Zm1.5,0a.318.318,0,1,1-.636,0A.318.318,0,0,1,24.11,64.611Zm1.5,0a.318.318,0,1,1-.636,0A.318.318,0,0,1,25.606,64.611Zm-3.741.748a.318.318,0,1,1-.636,0A.318.318,0,0,1,21.865,65.359Zm1.5,0a.317.317,0,1,1-.635,0A.317.317,0,0,1,23.361,65.359Zm1.5,0a.318.318,0,1,1-.636,0A.318.318,0,0,1,24.858,65.359Zm1.5,0a.317.317,0,1,1-.635,0A.317.317,0,0,1,26.353,65.359Zm-3.74.749a.317.317,0,1,1-.635,0A.317.317,0,0,1,22.614,66.108Zm1.5,0a.318.318,0,1,1-.636,0A.318.318,0,0,1,24.11,66.108Zm1.5,0a.318.318,0,1,1-.636,0A.318.318,0,0,1,25.606,66.108Zm-3.741.747a.318.318,0,1,1-.636,0A.318.318,0,0,1,21.865,66.856Zm1.5,0a.317.317,0,1,1-.635,0A.317.317,0,0,1,23.361,66.856Zm1.5,0a.318.318,0,1,1-.636,0A.318.318,0,0,1,24.858,66.856Zm1.5,0a.317.317,0,1,1-.635,0A.317.317,0,0,1,26.353,66.856Zm-3.74.749a.317.317,0,1,1-.635,0A.317.317,0,0,1,22.614,67.6Zm1.5,0a.318.318,0,1,1-.636,0A.318.318,0,0,1,24.11,67.6Zm1.5,0a.318.318,0,1,1-.636,0A.318.318,0,0,1,25.606,67.6ZM14.384,21.968a.318.318,0,1,1-.636,0A.318.318,0,0,1,14.384,21.968Zm1.5,0a.318.318,0,1,1-.636,0A.318.318,0,0,1,15.881,21.968Zm8.977,0a.318.318,0,1,1-.636,0A.318.318,0,0,1,24.858,21.968Zm1.5,0a.317.317,0,1,1-.635,0A.317.317,0,0,1,26.353,21.968Zm-14.213.749a.318.318,0,1,1-.636,0A.318.318,0,0,1,12.14,22.717Zm1.5,0a.318.318,0,1,1-.636,0A.318.318,0,0,1,13.637,22.717Zm1.5,0a.318.318,0,1,1-.636,0A.318.318,0,0,1,15.132,22.717Zm1.5,0a.317.317,0,1,1-.635,0A.317.317,0,0,1,16.629,22.717Zm7.481,0a.318.318,0,1,1-.636,0A.318.318,0,0,1,24.11,22.717Zm1.5,0a.318.318,0,1,1-.636,0A.318.318,0,0,1,25.606,22.717Zm1.5,0a.318.318,0,1,1-.636,0A.318.318,0,0,1,27.1,22.717Zm1.5,0a.317.317,0,1,1-.635,0A.317.317,0,0,1,28.6,22.717Zm-17.205.748a.318.318,0,1,1-.636,0A.318.318,0,0,1,11.392,23.464Zm1.5,0a.318.318,0,1,1-.636,0A.318.318,0,0,1,12.888,23.464Zm1.5,0a.318.318,0,1,1-.636,0A.318.318,0,0,1,14.384,23.464Zm1.5,0a.318.318,0,1,1-.636,0A.318.318,0,0,1,15.881,23.464Zm1.5,0a.318.318,0,1,1-.636,0A.318.318,0,0,1,17.377,23.464Zm5.985,0a.317.317,0,1,1-.635,0A.317.317,0,0,1,23.361,23.464Zm1.5,0a.318.318,0,1,1-.636,0A.318.318,0,0,1,24.858,23.464Zm1.5,0a.317.317,0,1,1-.635,0A.317.317,0,0,1,26.353,23.464Zm1.5,0a.317.317,0,1,1-.635,0A.317.317,0,0,1,27.85,23.464Zm1.5,0a.317.317,0,1,1-.635,0A.317.317,0,0,1,29.346,23.464Zm-18.7.748a.318.318,0,1,1-.636,0A.318.318,0,0,1,10.644,24.212Zm1.5,0a.318.318,0,1,1-.636,0A.318.318,0,0,1,12.14,24.212Zm1.5,0a.318.318,0,1,1-.636,0A.318.318,0,0,1,13.637,24.212Zm1.5,0a.318.318,0,1,1-.636,0A.318.318,0,0,1,15.132,24.212Zm1.5,0a.317.317,0,1,1-.635,0A.317.317,0,0,1,16.629,24.212Zm1.5,0a.318.318,0,1,1-.636,0A.318.318,0,0,1,18.125,24.212Zm4.488,0a.317.317,0,1,1-.635,0A.317.317,0,0,1,22.614,24.212Zm1.5,0a.318.318,0,1,1-.636,0A.318.318,0,0,1,24.11,24.212Zm1.5,0a.318.318,0,1,1-.636,0A.318.318,0,0,1,25.606,24.212Zm1.5,0a.318.318,0,1,1-.636,0A.318.318,0,0,1,27.1,24.212Zm1.5,0a.317.317,0,1,1-.635,0A.317.317,0,0,1,28.6,24.212Zm.861,0a.318.318,0,0,1,.636,0A.318.318,0,1,1,29.459,24.214ZM9.9,24.96a.318.318,0,1,1-.636,0A.318.318,0,0,1,9.9,24.96Zm1.5,0a.318.318,0,1,1-.636,0A.318.318,0,0,1,11.392,24.96Zm1.5,0a.318.318,0,1,1-.636,0A.318.318,0,0,1,12.888,24.96Zm1.5,0a.318.318,0,1,1-.636,0A.318.318,0,0,1,14.384,24.96Zm1.5,0a.318.318,0,1,1-.636,0A.318.318,0,0,1,15.881,24.96Zm1.5,0a.318.318,0,1,1-.636,0A.318.318,0,0,1,17.377,24.96Zm1.5,0a.318.318,0,1,1-.636,0A.318.318,0,0,1,18.873,24.96Zm2.992,0a.318.318,0,1,1-.636,0A.318.318,0,0,1,21.865,24.96Zm1.5,0a.317.317,0,1,1-.635,0A.317.317,0,0,1,23.361,24.96Zm1.5,0a.318.318,0,1,1-.636,0A.318.318,0,0,1,24.858,24.96Zm1.5,0a.317.317,0,1,1-.635,0A.317.317,0,0,1,26.353,24.96Zm1.5,0a.317.317,0,1,1-.635,0A.317.317,0,0,1,27.85,24.96Zm1.5,0a.317.317,0,1,1-.635,0A.317.317,0,0,1,29.346,24.96Zm.861,0a.318.318,0,0,1,.636,0A.318.318,0,1,1,30.207,24.962Zm-19.563.747a.318.318,0,1,1-.636,0A.318.318,0,0,1,10.644,25.709Zm1.5,0a.318.318,0,1,1-.636,0A.318.318,0,0,1,12.14,25.709Zm1.5,0a.318.318,0,1,1-.636,0A.318.318,0,0,1,13.637,25.709Zm1.5,0a.318.318,0,1,1-.636,0A.318.318,0,0,1,15.132,25.709Zm1.5,0a.317.317,0,1,1-.635,0A.317.317,0,0,1,16.629,25.709Zm1.5,0a.318.318,0,1,1-.636,0A.318.318,0,0,1,18.125,25.709Zm1.5,0a.317.317,0,1,1-.635,0A.317.317,0,0,1,19.621,25.709Zm1.5,0a.318.318,0,1,1-.636,0A.318.318,0,0,1,21.117,25.709Zm1.5,0a.317.317,0,1,1-.635,0A.317.317,0,0,1,22.614,25.709Zm1.5,0a.318.318,0,1,1-.636,0A.318.318,0,0,1,24.11,25.709Zm1.5,0a.318.318,0,1,1-.636,0A.318.318,0,0,1,25.606,25.709Zm1.5,0a.318.318,0,1,1-.636,0A.318.318,0,0,1,27.1,25.709Zm1.5,0a.317.317,0,1,1-.635,0A.317.317,0,0,1,28.6,25.709Zm.861,0a.318.318,0,0,1,.636,0A.318.318,0,1,1,29.459,25.71ZM9.9,26.457a.318.318,0,1,1-.636,0A.318.318,0,0,1,9.9,26.457Zm1.5,0a.318.318,0,1,1-.636,0A.318.318,0,0,1,11.392,26.457Zm1.5,0a.318.318,0,1,1-.636,0A.318.318,0,0,1,12.888,26.457Zm1.5,0a.318.318,0,1,1-.636,0A.318.318,0,0,1,14.384,26.457Zm1.5,0a.318.318,0,1,1-.636,0A.318.318,0,0,1,15.881,26.457Zm1.5,0a.318.318,0,1,1-.636,0A.318.318,0,0,1,17.377,26.457Zm1.5,0a.318.318,0,1,1-.636,0A.318.318,0,0,1,18.873,26.457Zm1.5,0a.317.317,0,1,1-.635,0A.317.317,0,0,1,20.369,26.457Zm1.5,0a.318.318,0,1,1-.636,0A.318.318,0,0,1,21.865,26.457Zm1.5,0a.317.317,0,1,1-.635,0A.317.317,0,0,1,23.361,26.457Zm1.5,0a.318.318,0,1,1-.636,0A.318.318,0,0,1,24.858,26.457Zm1.5,0a.317.317,0,1,1-.635,0A.317.317,0,0,1,26.353,26.457Zm1.5,0a.317.317,0,1,1-.635,0A.317.317,0,0,1,27.85,26.457Zm1.5,0a.317.317,0,1,1-.635,0A.317.317,0,0,1,29.346,26.457Zm.861,0a.318.318,0,0,1,.636,0A.318.318,0,1,1,30.207,26.459Zm-21.059.746a.318.318,0,1,1-.636,0A.318.318,0,0,1,9.148,27.205Zm1.5,0a.318.318,0,1,1-.636,0A.318.318,0,0,1,10.644,27.205Zm1.5,0a.318.318,0,1,1-.636,0A.318.318,0,0,1,12.14,27.205Zm1.5,0a.318.318,0,1,1-.636,0A.318.318,0,0,1,13.637,27.205Zm1.5,0a.318.318,0,1,1-.636,0A.318.318,0,0,1,15.132,27.205Zm1.5,0a.317.317,0,1,1-.635,0A.317.317,0,0,1,16.629,27.205Zm1.5,0a.318.318,0,1,1-.636,0A.318.318,0,0,1,18.125,27.205Zm1.5,0a.317.317,0,1,1-.635,0A.317.317,0,0,1,19.621,27.205Zm1.5,0a.318.318,0,1,1-.636,0A.318.318,0,0,1,21.117,27.205Zm1.5,0a.317.317,0,1,1-.635,0A.317.317,0,0,1,22.614,27.205Zm1.5,0a.318.318,0,1,1-.636,0A.318.318,0,0,1,24.11,27.205Zm1.5,0a.318.318,0,1,1-.636,0A.318.318,0,0,1,25.606,27.205Zm1.5,0a.318.318,0,1,1-.636,0A.318.318,0,0,1,27.1,27.205Zm1.5,0a.317.317,0,1,1-.635,0A.317.317,0,0,1,28.6,27.205Zm.861,0a.318.318,0,0,1,.636,0A.318.318,0,1,1,29.459,27.207Zm1.5,0a.317.317,0,0,1,.635,0A.317.317,0,1,1,30.955,27.207ZM8.4,27.953a.318.318,0,1,1-.636,0A.318.318,0,0,1,8.4,27.953Zm1.5,0a.318.318,0,1,1-.636,0A.318.318,0,0,1,9.9,27.953Zm1.5,0a.318.318,0,1,1-.636,0A.318.318,0,0,1,11.392,27.953Zm1.5,0a.318.318,0,1,1-.636,0A.318.318,0,0,1,12.888,27.953Zm1.5,0a.318.318,0,1,1-.636,0A.318.318,0,0,1,14.384,27.953Zm1.5,0a.318.318,0,1,1-.636,0A.318.318,0,0,1,15.881,27.953Zm1.5,0a.318.318,0,1,1-.636,0A.318.318,0,0,1,17.377,27.953Zm1.5,0a.318.318,0,1,1-.636,0A.318.318,0,0,1,18.873,27.953Zm1.5,0a.317.317,0,1,1-.635,0A.317.317,0,0,1,20.369,27.953Zm1.5,0a.318.318,0,1,1-.636,0A.318.318,0,0,1,21.865,27.953Zm1.5,0a.317.317,0,1,1-.635,0A.317.317,0,0,1,23.361,27.953Zm1.5,0a.318.318,0,1,1-.636,0A.318.318,0,0,1,24.858,27.953Zm1.5,0a.317.317,0,1,1-.635,0A.317.317,0,0,1,26.353,27.953Zm1.5,0a.317.317,0,1,1-.635,0A.317.317,0,0,1,27.85,27.953Zm1.5,0a.317.317,0,1,1-.635,0A.317.317,0,0,1,29.346,27.953Zm.861,0a.318.318,0,0,1,.636,0A.318.318,0,1,1,30.207,27.955Zm1.5,0a.318.318,0,0,1,.635,0A.318.318,0,1,1,31.7,27.955ZM7.652,28.7a.318.318,0,1,1-.636,0A.318.318,0,0,1,7.652,28.7Zm1.5,0a.318.318,0,1,1-.636,0A.318.318,0,0,1,9.148,28.7Zm1.5,0a.318.318,0,1,1-.636,0A.318.318,0,0,1,10.644,28.7Zm1.5,0a.318.318,0,1,1-.636,0A.318.318,0,0,1,12.14,28.7Zm1.5,0a.318.318,0,1,1-.636,0A.318.318,0,0,1,13.637,28.7Zm1.5,0a.318.318,0,1,1-.636,0A.318.318,0,0,1,15.132,28.7Zm1.5,0a.317.317,0,1,1-.635,0A.317.317,0,0,1,16.629,28.7Zm1.5,0a.318.318,0,1,1-.636,0A.318.318,0,0,1,18.125,28.7Zm1.5,0a.317.317,0,1,1-.635,0A.317.317,0,0,1,19.621,28.7Zm1.5,0a.318.318,0,1,1-.636,0A.318.318,0,0,1,21.117,28.7Zm1.5,0a.317.317,0,1,1-.635,0A.317.317,0,0,1,22.614,28.7Zm1.5,0a.318.318,0,1,1-.636,0A.318.318,0,0,1,24.11,28.7Zm1.5,0a.318.318,0,1,1-.636,0A.318.318,0,0,1,25.606,28.7Zm1.5,0a.318.318,0,1,1-.636,0A.318.318,0,0,1,27.1,28.7Zm1.5,0a.317.317,0,1,1-.635,0A.317.317,0,0,1,28.6,28.7Zm.861,0a.318.318,0,0,1,.636,0A.318.318,0,1,1,29.459,28.7Zm1.5,0a.317.317,0,0,1,.635,0A.317.317,0,1,1,30.955,28.7Zm1.5,0a.317.317,0,0,1,.635,0A.317.317,0,1,1,32.451,28.7ZM8.4,29.449a.318.318,0,1,1-.636,0A.318.318,0,0,1,8.4,29.449Zm1.5,0a.318.318,0,1,1-.636,0A.318.318,0,0,1,9.9,29.449Zm1.5,0a.318.318,0,1,1-.636,0A.318.318,0,0,1,11.392,29.449Zm1.5,0a.318.318,0,1,1-.636,0A.318.318,0,0,1,12.888,29.449Zm1.5,0a.318.318,0,1,1-.636,0A.318.318,0,0,1,14.384,29.449Zm1.5,0a.318.318,0,1,1-.636,0A.318.318,0,0,1,15.881,29.449Zm1.5,0a.318.318,0,1,1-.636,0A.318.318,0,0,1,17.377,29.449Zm1.5,0a.318.318,0,1,1-.636,0A.318.318,0,0,1,18.873,29.449Zm1.5,0a.317.317,0,1,1-.635,0A.317.317,0,0,1,20.369,29.449Zm1.5,0a.318.318,0,1,1-.636,0A.318.318,0,0,1,21.865,29.449Zm1.5,0a.317.317,0,1,1-.635,0A.317.317,0,0,1,23.361,29.449Zm1.5,0a.318.318,0,1,1-.636,0A.318.318,0,0,1,24.858,29.449Zm1.5,0a.317.317,0,1,1-.635,0A.317.317,0,0,1,26.353,29.449Zm1.5,0a.317.317,0,1,1-.635,0A.317.317,0,0,1,27.85,29.449Zm1.5,0a.317.317,0,1,1-.635,0A.317.317,0,0,1,29.346,29.449Zm.861,0a.318.318,0,0,1,.636,0A.318.318,0,1,1,30.207,29.451Zm1.5,0a.318.318,0,0,1,.635,0A.318.318,0,1,1,31.7,29.451ZM7.652,30.2a.318.318,0,1,1-.636,0A.318.318,0,0,1,7.652,30.2Zm1.5,0a.318.318,0,1,1-.636,0A.318.318,0,0,1,9.148,30.2Zm1.5,0a.318.318,0,1,1-.636,0A.318.318,0,0,1,10.644,30.2Zm1.5,0a.318.318,0,1,1-.636,0A.318.318,0,0,1,12.14,30.2Zm2.992,0a.318.318,0,1,1-.636,0A.318.318,0,0,1,15.132,30.2Zm1.5,0a.317.317,0,1,1-.635,0A.317.317,0,0,1,16.629,30.2Zm1.5,0a.318.318,0,1,1-.636,0A.318.318,0,0,1,18.125,30.2Zm1.5,0a.317.317,0,1,1-.635,0A.317.317,0,0,1,19.621,30.2Zm1.5,0a.318.318,0,1,1-.636,0A.318.318,0,0,1,21.117,30.2Zm1.5,0a.317.317,0,1,1-.635,0A.317.317,0,0,1,22.614,30.2Zm1.5,0a.318.318,0,1,1-.636,0A.318.318,0,0,1,24.11,30.2Zm1.5,0a.318.318,0,1,1-.636,0A.318.318,0,0,1,25.606,30.2Zm2.992,0a.317.317,0,1,1-.635,0A.317.317,0,0,1,28.6,30.2Zm.861,0a.318.318,0,0,1,.636,0A.318.318,0,1,1,29.459,30.2Zm1.5,0a.318.318,0,0,1,.635,0A.318.318,0,1,1,30.955,30.2Zm1.5,0a.318.318,0,0,1,.635,0A.318.318,0,1,1,32.451,30.2ZM8.4,30.946a.318.318,0,1,1-.636,0A.318.318,0,0,1,8.4,30.946Zm1.5,0a.318.318,0,1,1-.636,0A.318.318,0,0,1,9.9,30.946Zm1.5,0a.318.318,0,1,1-.636,0A.318.318,0,0,1,11.392,30.946Zm2.992,0a.318.318,0,1,1-.636,0A.318.318,0,0,1,14.384,30.946Zm1.5,0a.318.318,0,1,1-.636,0A.318.318,0,0,1,15.881,30.946Zm1.5,0a.318.318,0,1,1-.636,0A.318.318,0,0,1,17.377,30.946Zm1.5,0a.318.318,0,1,1-.636,0A.318.318,0,0,1,18.873,30.946Zm1.5,0a.317.317,0,1,1-.635,0A.317.317,0,0,1,20.369,30.946Zm1.5,0a.318.318,0,1,1-.636,0A.318.318,0,0,1,21.865,30.946Zm1.5,0a.317.317,0,1,1-.635,0A.317.317,0,0,1,23.361,30.946Zm1.5,0a.318.318,0,1,1-.636,0A.318.318,0,0,1,24.858,30.946Zm1.5,0a.317.317,0,1,1-.635,0A.317.317,0,0,1,26.353,30.946Zm2.993,0a.317.317,0,1,1-.635,0A.317.317,0,0,1,29.346,30.946Zm.861,0a.318.318,0,0,1,.636,0A.318.318,0,1,1,30.207,30.947Zm1.5,0a.317.317,0,0,1,.635,0A.317.317,0,1,1,31.7,30.947Zm-22.555.746a.318.318,0,1,1-.636,0A.318.318,0,0,1,9.148,31.694Zm1.5,0a.318.318,0,1,1-.636,0A.318.318,0,0,1,10.644,31.694Zm1.5,0a.318.318,0,1,1-.636,0A.318.318,0,0,1,12.14,31.694Zm2.992,0a.318.318,0,1,1-.636,0A.318.318,0,0,1,15.132,31.694Zm1.5,0a.317.317,0,1,1-.635,0A.317.317,0,0,1,16.629,31.694Zm1.5,0a.318.318,0,1,1-.636,0A.318.318,0,0,1,18.125,31.694Zm1.5,0a.317.317,0,1,1-.635,0A.317.317,0,0,1,19.621,31.694Zm1.5,0a.318.318,0,1,1-.636,0A.318.318,0,0,1,21.117,31.694Zm1.5,0a.317.317,0,1,1-.635,0A.317.317,0,0,1,22.614,31.694Zm1.5,0a.318.318,0,1,1-.636,0A.318.318,0,0,1,24.11,31.694Zm1.5,0a.318.318,0,1,1-.636,0A.318.318,0,0,1,25.606,31.694Zm3.853,0a.318.318,0,0,1,.636,0A.318.318,0,1,1,29.459,31.7Zm1.5,0a.317.317,0,0,1,.635,0A.317.317,0,1,1,30.955,31.7ZM9.9,32.442a.318.318,0,1,1-.636,0A.318.318,0,0,1,9.9,32.442Zm1.5,0a.318.318,0,1,1-.636,0A.318.318,0,0,1,11.392,32.442Zm2.992,0a.318.318,0,1,1-.636,0A.318.318,0,0,1,14.384,32.442Zm1.5,0a.318.318,0,1,1-.636,0A.318.318,0,0,1,15.881,32.442Zm1.5,0a.318.318,0,1,1-.636,0A.318.318,0,0,1,17.377,32.442Zm1.5,0a.318.318,0,1,1-.636,0A.318.318,0,0,1,18.873,32.442Zm1.5,0a.317.317,0,1,1-.635,0A.317.317,0,0,1,20.369,32.442Zm1.5,0a.318.318,0,1,1-.636,0A.318.318,0,0,1,21.865,32.442Zm1.5,0a.317.317,0,1,1-.635,0A.317.317,0,0,1,23.361,32.442Zm1.5,0a.318.318,0,1,1-.636,0A.318.318,0,0,1,24.858,32.442Zm1.5,0a.317.317,0,1,1-.635,0A.317.317,0,0,1,26.353,32.442Zm2.993,0a.317.317,0,1,1-.635,0A.317.317,0,0,1,29.346,32.442Zm.861,0a.318.318,0,0,1,.636,0A.318.318,0,1,1,30.207,32.444Zm-15.075.746a.318.318,0,1,1-.636,0A.318.318,0,0,1,15.132,33.19Zm1.5,0a.317.317,0,1,1-.635,0A.317.317,0,0,1,16.629,33.19Zm1.5,0a.318.318,0,1,1-.636,0A.318.318,0,0,1,18.125,33.19Zm1.5,0a.317.317,0,1,1-.635,0A.317.317,0,0,1,19.621,33.19Zm1.5,0a.318.318,0,1,1-.636,0A.318.318,0,0,1,21.117,33.19Zm1.5,0a.317.317,0,1,1-.635,0A.317.317,0,0,1,22.614,33.19Zm1.5,0a.318.318,0,1,1-.636,0A.318.318,0,0,1,24.11,33.19Zm1.5,0a.318.318,0,1,1-.636,0A.318.318,0,0,1,25.606,33.19Zm-11.221.748a.318.318,0,1,1-.636,0A.318.318,0,0,1,14.384,33.938Zm1.5,0a.318.318,0,1,1-.636,0A.318.318,0,0,1,15.881,33.938Zm1.5,0a.318.318,0,1,1-.636,0A.318.318,0,0,1,17.377,33.938Zm1.5,0a.318.318,0,1,1-.636,0A.318.318,0,0,1,18.873,33.938Zm1.5,0a.317.317,0,1,1-.635,0A.317.317,0,0,1,20.369,33.938Zm1.5,0a.318.318,0,1,1-.636,0A.318.318,0,0,1,21.865,33.938Zm1.5,0a.317.317,0,1,1-.635,0A.317.317,0,0,1,23.361,33.938Zm1.5,0a.318.318,0,1,1-.636,0A.318.318,0,0,1,24.858,33.938Zm1.5,0a.317.317,0,1,1-.635,0A.317.317,0,0,1,26.353,33.938Zm-11.221.749a.318.318,0,1,1-.636,0A.318.318,0,0,1,15.132,34.686Zm1.5,0a.317.317,0,1,1-.635,0A.317.317,0,0,1,16.629,34.686Zm1.5,0a.318.318,0,1,1-.636,0A.318.318,0,0,1,18.125,34.686Zm1.5,0a.317.317,0,1,1-.635,0A.317.317,0,0,1,19.621,34.686Zm1.5,0a.318.318,0,1,1-.636,0A.318.318,0,0,1,21.117,34.686Zm1.5,0a.317.317,0,1,1-.635,0A.317.317,0,0,1,22.614,34.686Zm1.5,0a.318.318,0,1,1-.636,0A.318.318,0,0,1,24.11,34.686Zm1.5,0a.318.318,0,1,1-.636,0A.318.318,0,0,1,25.606,34.686Zm-11.221.748a.318.318,0,1,1-.636,0A.318.318,0,0,1,14.384,35.434Zm1.5,0a.318.318,0,1,1-.636,0A.318.318,0,0,1,15.881,35.434Zm1.5,0a.318.318,0,1,1-.636,0A.318.318,0,0,1,17.377,35.434Zm1.5,0a.318.318,0,1,1-.636,0A.318.318,0,0,1,18.873,35.434Zm1.5,0a.317.317,0,1,1-.635,0A.317.317,0,0,1,20.369,35.434Zm1.5,0a.318.318,0,1,1-.636,0A.318.318,0,0,1,21.865,35.434Zm1.5,0a.317.317,0,1,1-.635,0A.317.317,0,0,1,23.361,35.434Zm1.5,0a.318.318,0,1,1-.636,0A.318.318,0,0,1,24.858,35.434Zm1.5,0a.317.317,0,1,1-.635,0A.317.317,0,0,1,26.353,35.434Zm-11.221.749a.318.318,0,1,1-.636,0A.318.318,0,0,1,15.132,36.183Zm1.5,0a.317.317,0,1,1-.635,0A.317.317,0,0,1,16.629,36.183Zm1.5,0a.318.318,0,1,1-.636,0A.318.318,0,0,1,18.125,36.183Zm1.5,0a.317.317,0,1,1-.635,0A.317.317,0,0,1,19.621,36.183Zm1.5,0a.318.318,0,1,1-.636,0A.318.318,0,0,1,21.117,36.183Zm1.5,0a.317.317,0,1,1-.635,0A.317.317,0,0,1,22.614,36.183Zm1.5,0a.318.318,0,1,1-.636,0A.318.318,0,0,1,24.11,36.183Zm1.5,0a.318.318,0,1,1-.636,0A.318.318,0,0,1,25.606,36.183Zm-11.221.748a.318.318,0,1,1-.636,0A.318.318,0,0,1,14.384,36.931Zm1.5,0a.318.318,0,1,1-.636,0A.318.318,0,0,1,15.881,36.931Zm1.5,0a.318.318,0,1,1-.636,0A.318.318,0,0,1,17.377,36.931Zm1.5,0a.318.318,0,1,1-.636,0A.318.318,0,0,1,18.873,36.931Zm1.5,0a.317.317,0,1,1-.635,0A.317.317,0,0,1,20.369,36.931Zm1.5,0a.318.318,0,1,1-.636,0A.318.318,0,0,1,21.865,36.931Zm1.5,0a.317.317,0,1,1-.635,0A.317.317,0,0,1,23.361,36.931Zm1.5,0a.318.318,0,1,1-.636,0A.318.318,0,0,1,24.858,36.931Zm1.5,0a.317.317,0,1,1-.635,0A.317.317,0,0,1,26.353,36.931Zm-11.221.748a.318.318,0,1,1-.636,0A.318.318,0,0,1,15.132,37.678Zm1.5,0a.317.317,0,1,1-.635,0A.317.317,0,0,1,16.629,37.678Zm1.5,0a.318.318,0,1,1-.636,0A.318.318,0,0,1,18.125,37.678Zm1.5,0a.317.317,0,1,1-.635,0A.317.317,0,0,1,19.621,37.678Zm1.5,0a.318.318,0,1,1-.636,0A.318.318,0,0,1,21.117,37.678Zm1.5,0a.317.317,0,1,1-.635,0A.317.317,0,0,1,22.614,37.678Zm1.5,0a.318.318,0,1,1-.636,0A.318.318,0,0,1,24.11,37.678Zm1.5,0a.318.318,0,1,1-.636,0A.318.318,0,0,1,25.606,37.678Zm-11.221.749a.318.318,0,1,1-.636,0A.318.318,0,0,1,14.384,38.427Zm1.5,0a.318.318,0,1,1-.636,0A.318.318,0,0,1,15.881,38.427Zm1.5,0a.318.318,0,1,1-.636,0A.318.318,0,0,1,17.377,38.427Zm1.5,0a.318.318,0,1,1-.636,0A.318.318,0,0,1,18.873,38.427Zm1.5,0a.317.317,0,1,1-.635,0A.317.317,0,0,1,20.369,38.427Zm1.5,0a.318.318,0,1,1-.636,0A.318.318,0,0,1,21.865,38.427Zm1.5,0a.317.317,0,1,1-.635,0A.317.317,0,0,1,23.361,38.427Zm1.5,0a.318.318,0,1,1-.636,0A.318.318,0,0,1,24.858,38.427Zm1.5,0a.317.317,0,1,1-.635,0A.317.317,0,0,1,26.353,38.427Zm-11.221.749a.318.318,0,1,1-.636,0A.318.318,0,0,1,15.132,39.175Zm1.5,0a.317.317,0,1,1-.635,0A.317.317,0,0,1,16.629,39.175Zm1.5,0a.318.318,0,1,1-.636,0A.318.318,0,0,1,18.125,39.175Zm1.5,0a.317.317,0,1,1-.635,0A.317.317,0,0,1,19.621,39.175Zm1.5,0a.318.318,0,1,1-.636,0A.318.318,0,0,1,21.117,39.175Zm1.5,0a.317.317,0,1,1-.635,0A.317.317,0,0,1,22.614,39.175Zm1.5,0a.318.318,0,1,1-.636,0A.318.318,0,0,1,24.11,39.175Zm1.5,0a.318.318,0,1,1-.636,0A.318.318,0,0,1,25.606,39.175Zm-11.221.748a.318.318,0,1,1-.636,0A.318.318,0,0,1,14.384,39.923Zm1.5,0a.318.318,0,1,1-.636,0A.318.318,0,0,1,15.881,39.923Zm1.5,0a.318.318,0,1,1-.636,0A.318.318,0,0,1,17.377,39.923Zm1.5,0a.318.318,0,1,1-.636,0A.318.318,0,0,1,18.873,39.923Zm1.5,0a.317.317,0,1,1-.635,0A.317.317,0,0,1,20.369,39.923Zm1.5,0a.318.318,0,1,1-.636,0A.318.318,0,0,1,21.865,39.923Zm1.5,0a.317.317,0,1,1-.635,0A.317.317,0,0,1,23.361,39.923Zm1.5,0a.318.318,0,1,1-.636,0A.318.318,0,0,1,24.858,39.923Zm1.5,0a.317.317,0,1,1-.635,0A.317.317,0,0,1,26.353,39.923Zm-11.221.748a.318.318,0,1,1-.636,0A.318.318,0,0,1,15.132,40.671Zm1.5,0a.317.317,0,1,1-.635,0A.317.317,0,0,1,16.629,40.671Zm1.5,0a.318.318,0,1,1-.636,0A.318.318,0,0,1,18.125,40.671Zm1.5,0a.317.317,0,1,1-.635,0A.317.317,0,0,1,19.621,40.671Zm1.5,0a.318.318,0,1,1-.636,0A.318.318,0,0,1,21.117,40.671Zm1.5,0a.317.317,0,1,1-.635,0A.317.317,0,0,1,22.614,40.671Zm1.5,0a.318.318,0,1,1-.636,0A.318.318,0,0,1,24.11,40.671Zm1.5,0a.318.318,0,1,1-.636,0A.318.318,0,0,1,25.606,40.671Zm-11.221.748a.318.318,0,1,1-.636,0A.318.318,0,0,1,14.384,41.419Zm1.5,0a.318.318,0,1,1-.636,0A.318.318,0,0,1,15.881,41.419Zm1.5,0a.318.318,0,1,1-.636,0A.318.318,0,0,1,17.377,41.419Zm1.5,0a.318.318,0,1,1-.636,0A.318.318,0,0,1,18.873,41.419Zm1.5,0a.317.317,0,1,1-.635,0A.317.317,0,0,1,20.369,41.419Zm1.5,0a.318.318,0,1,1-.636,0A.318.318,0,0,1,21.865,41.419Zm1.5,0a.317.317,0,1,1-.635,0A.317.317,0,0,1,23.361,41.419Zm1.5,0a.318.318,0,1,1-.636,0A.318.318,0,0,1,24.858,41.419Zm1.5,0a.317.317,0,1,1-.635,0A.317.317,0,0,1,26.353,41.419ZM46.678,63.865a.318.318,0,0,1,.635,0A.318.318,0,1,1,46.678,63.865Zm1.5,0a.318.318,0,0,1,.636,0A.318.318,0,1,1,48.174,63.865Zm1.5,0a.318.318,0,0,1,.636,0A.318.318,0,1,1,49.67,63.865Zm-3.74.749a.318.318,0,0,1,.636,0A.318.318,0,1,1,45.93,64.614Zm1.5,0a.318.318,0,0,1,.636,0A.318.318,0,1,1,47.425,64.614Zm1.5,0a.318.318,0,0,1,.636,0A.318.318,0,1,1,48.923,64.614Zm1.5,0a.318.318,0,0,1,.636,0A.318.318,0,1,1,50.418,64.614Zm-3.741.748a.318.318,0,0,1,.635,0A.318.318,0,1,1,46.678,65.361Zm1.5,0a.318.318,0,0,1,.636,0A.318.318,0,1,1,48.174,65.361Zm1.5,0a.318.318,0,0,1,.636,0A.318.318,0,1,1,49.67,65.361Zm-3.74.748a.318.318,0,0,1,.636,0A.318.318,0,1,1,45.93,66.109Zm1.5,0a.318.318,0,0,1,.636,0A.318.318,0,1,1,47.425,66.109Zm1.5,0a.318.318,0,0,1,.636,0A.318.318,0,1,1,48.923,66.109Zm1.5,0a.318.318,0,0,1,.636,0A.318.318,0,1,1,50.418,66.109Zm-3.741.749a.318.318,0,0,1,.635,0A.318.318,0,1,1,46.678,66.858Zm1.5,0a.318.318,0,0,1,.636,0A.318.318,0,1,1,48.174,66.858Zm1.5,0a.318.318,0,0,1,.636,0A.318.318,0,1,1,49.67,66.858Zm-2.244.748a.318.318,0,0,1,.636,0A.318.318,0,1,1,47.425,67.606Zm1.5,0a.318.318,0,0,1,.636,0A.318.318,0,1,1,48.923,67.606Zm5.236-3.741a.317.317,0,0,1,.635,0A.317.317,0,1,1,54.159,63.865Zm1.5,0a.318.318,0,0,1,.636,0A.318.318,0,1,1,55.655,63.865Zm1.5,0a.318.318,0,0,1,.636,0A.318.318,0,1,1,57.151,63.865Zm1.5,0a.318.318,0,0,1,.636,0A.318.318,0,1,1,58.647,63.865Zm-5.237.749a.318.318,0,0,1,.636,0A.318.318,0,1,1,53.41,64.614Zm1.5,0a.318.318,0,0,1,.636,0A.318.318,0,1,1,54.907,64.614Zm1.5,0a.317.317,0,0,1,.635,0A.317.317,0,1,1,56.4,64.614Zm1.5,0a.318.318,0,0,1,.636,0A.318.318,0,1,1,57.9,64.614Zm-3.74.748a.318.318,0,0,1,.635,0A.318.318,0,1,1,54.159,65.361Zm1.5,0a.318.318,0,0,1,.636,0A.318.318,0,1,1,55.655,65.361Zm1.5,0a.318.318,0,0,1,.636,0A.318.318,0,1,1,57.151,65.361Zm1.5,0a.318.318,0,0,1,.636,0A.318.318,0,1,1,58.647,65.361Zm-5.237.748a.318.318,0,0,1,.636,0A.318.318,0,1,1,53.41,66.109Zm1.5,0a.318.318,0,0,1,.636,0A.318.318,0,1,1,54.907,66.109Zm1.5,0a.317.317,0,0,1,.635,0A.317.317,0,1,1,56.4,66.109Zm1.5,0a.318.318,0,0,1,.636,0A.318.318,0,1,1,57.9,66.109Zm-3.74.749a.318.318,0,0,1,.635,0A.318.318,0,1,1,54.159,66.858Zm1.5,0a.318.318,0,0,1,.636,0A.318.318,0,1,1,55.655,66.858Zm1.5,0a.318.318,0,0,1,.636,0A.318.318,0,1,1,57.151,66.858Zm-2.244.748a.318.318,0,0,1,.636,0A.318.318,0,1,1,54.907,67.606Zm1.5,0a.317.317,0,0,1,.635,0A.317.317,0,1,1,56.4,67.606Zm-9.09-45.638a.318.318,0,1,1-.635,0A.318.318,0,0,1,47.313,21.968Zm11.97,0a.318.318,0,1,1-.636,0A.318.318,0,0,1,59.283,21.968Zm-14.215.749a.317.317,0,1,1-.635,0A.317.317,0,0,1,45.068,22.717Zm1.5,0a.318.318,0,1,1-.636,0A.318.318,0,0,1,46.565,22.717Zm11.969,0a.318.318,0,1,1-.636,0A.318.318,0,0,1,58.534,22.717Zm1.5,0a.317.317,0,1,1-.635,0A.317.317,0,0,1,60.031,22.717Zm-15.71.748a.318.318,0,1,1-.636,0A.318.318,0,0,1,44.321,23.464Zm1.5,0a.318.318,0,1,1-.636,0A.318.318,0,0,1,45.817,23.464Zm1.5,0a.318.318,0,1,1-.635,0A.318.318,0,0,1,47.313,23.464Zm10.473,0a.318.318,0,1,1-.636,0A.318.318,0,0,1,57.786,23.464Zm1.5,0a.318.318,0,1,1-.636,0A.318.318,0,0,1,59.283,23.464Zm1.5,0a.318.318,0,1,1-.636,0A.318.318,0,0,1,60.779,23.464Zm-17.206.748a.318.318,0,1,1-.636,0A.318.318,0,0,1,43.573,24.212Zm1.5,0a.317.317,0,1,1-.635,0A.317.317,0,0,1,45.068,24.212Zm1.5,0a.318.318,0,1,1-.636,0A.318.318,0,0,1,46.565,24.212Zm1.5,0a.318.318,0,1,1-.636,0A.318.318,0,0,1,48.061,24.212Zm8.977,0a.317.317,0,1,1-.635,0A.317.317,0,0,1,57.038,24.212Zm1.5,0a.318.318,0,1,1-.636,0A.318.318,0,0,1,58.534,24.212Zm1.5,0a.317.317,0,1,1-.635,0A.317.317,0,0,1,60.031,24.212Zm.861,0a.318.318,0,0,1,.636,0A.318.318,0,1,1,60.892,24.214Zm-18.067.746a.317.317,0,1,1-.635,0A.317.317,0,0,1,42.825,24.96Zm1.5,0a.318.318,0,1,1-.636,0A.318.318,0,0,1,44.321,24.96Zm1.5,0a.318.318,0,1,1-.636,0A.318.318,0,0,1,45.817,24.96Zm1.5,0a.318.318,0,1,1-.635,0A.318.318,0,0,1,47.313,24.96Zm1.5,0a.318.318,0,1,1-.636,0A.318.318,0,0,1,48.809,24.96Zm7.482,0a.318.318,0,1,1-.636,0A.318.318,0,0,1,56.291,24.96Zm1.5,0a.318.318,0,1,1-.636,0A.318.318,0,0,1,57.786,24.96Zm1.5,0a.318.318,0,1,1-.636,0A.318.318,0,0,1,59.283,24.96Zm1.5,0a.318.318,0,1,1-.636,0A.318.318,0,0,1,60.779,24.96Zm.861,0a.318.318,0,0,1,.636,0A.318.318,0,1,1,61.639,24.962Zm-19.563.747a.318.318,0,1,1-.636,0A.318.318,0,0,1,42.076,25.709Zm1.5,0a.318.318,0,1,1-.636,0A.318.318,0,0,1,43.573,25.709Zm1.5,0a.317.317,0,1,1-.635,0A.317.317,0,0,1,45.068,25.709Zm1.5,0a.318.318,0,1,1-.636,0A.318.318,0,0,1,46.565,25.709Zm1.5,0a.318.318,0,1,1-.636,0A.318.318,0,0,1,48.061,25.709Zm1.5,0a.318.318,0,1,1-.636,0A.318.318,0,0,1,49.558,25.709Zm1.5,0a.318.318,0,1,1-.636,0A.318.318,0,0,1,51.054,25.709Zm2.992,0a.318.318,0,1,1-.636,0A.318.318,0,0,1,54.046,25.709Zm1.5,0a.318.318,0,1,1-.636,0A.318.318,0,0,1,55.542,25.709Zm1.5,0a.317.317,0,1,1-.635,0A.317.317,0,0,1,57.038,25.709Zm1.5,0a.318.318,0,1,1-.636,0A.318.318,0,0,1,58.534,25.709Zm1.5,0a.317.317,0,1,1-.635,0A.317.317,0,0,1,60.031,25.709Zm.861,0a.318.318,0,0,1,.636,0A.318.318,0,1,1,60.892,25.71Zm1.5,0a.318.318,0,0,1,.636,0A.318.318,0,1,1,62.388,25.71Zm-21.06.747a.318.318,0,1,1-.636,0A.318.318,0,0,1,41.328,26.457Zm1.5,0a.317.317,0,1,1-.635,0A.317.317,0,0,1,42.825,26.457Zm1.5,0a.318.318,0,1,1-.636,0A.318.318,0,0,1,44.321,26.457Zm1.5,0a.318.318,0,1,1-.636,0A.318.318,0,0,1,45.817,26.457Zm1.5,0a.318.318,0,1,1-.635,0A.318.318,0,0,1,47.313,26.457Zm1.5,0a.318.318,0,1,1-.636,0A.318.318,0,0,1,48.809,26.457Zm1.5,0a.318.318,0,1,1-.636,0A.318.318,0,0,1,50.305,26.457Zm1.5,0a.317.317,0,1,1-.635,0A.317.317,0,0,1,51.8,26.457Zm1.5,0a.318.318,0,1,1-.636,0A.318.318,0,0,1,53.3,26.457Zm1.5,0a.317.317,0,1,1-.635,0A.317.317,0,0,1,54.794,26.457Zm1.5,0a.318.318,0,1,1-.636,0A.318.318,0,0,1,56.291,26.457Zm1.5,0a.318.318,0,1,1-.636,0A.318.318,0,0,1,57.786,26.457Zm1.5,0a.318.318,0,1,1-.636,0A.318.318,0,0,1,59.283,26.457Zm1.5,0a.318.318,0,1,1-.636,0A.318.318,0,0,1,60.779,26.457Zm.861,0a.318.318,0,0,1,.636,0A.318.318,0,1,1,61.639,26.459Zm1.5,0a.317.317,0,0,1,.635,0A.317.317,0,1,1,63.136,26.459Zm-21.06.746a.318.318,0,1,1-.636,0A.318.318,0,0,1,42.076,27.205Zm1.5,0a.318.318,0,1,1-.636,0A.318.318,0,0,1,43.573,27.205Zm1.5,0a.317.317,0,1,1-.635,0A.317.317,0,0,1,45.068,27.205Zm1.5,0a.318.318,0,1,1-.636,0A.318.318,0,0,1,46.565,27.205Zm1.5,0a.318.318,0,1,1-.636,0A.318.318,0,0,1,48.061,27.205Zm1.5,0a.318.318,0,1,1-.636,0A.318.318,0,0,1,49.558,27.205Zm1.5,0a.318.318,0,1,1-.636,0A.318.318,0,0,1,51.054,27.205Zm1.5,0a.318.318,0,1,1-.636,0A.318.318,0,0,1,52.55,27.205Zm1.5,0a.318.318,0,1,1-.636,0A.318.318,0,0,1,54.046,27.205Zm1.5,0a.318.318,0,1,1-.636,0A.318.318,0,0,1,55.542,27.205Zm1.5,0a.317.317,0,1,1-.635,0A.317.317,0,0,1,57.038,27.205Zm1.5,0a.318.318,0,1,1-.636,0A.318.318,0,0,1,58.534,27.205Zm1.5,0a.317.317,0,1,1-.635,0A.317.317,0,0,1,60.031,27.205Zm.861,0a.318.318,0,0,1,.636,0A.318.318,0,1,1,60.892,27.207Zm1.5,0a.318.318,0,0,1,.636,0A.318.318,0,1,1,62.388,27.207Zm1.5,0a.318.318,0,0,1,.636,0A.318.318,0,1,1,63.884,27.207Zm-22.555.746a.318.318,0,1,1-.636,0A.318.318,0,0,1,41.328,27.953Zm1.5,0a.317.317,0,1,1-.635,0A.317.317,0,0,1,42.825,27.953Zm1.5,0a.318.318,0,1,1-.636,0A.318.318,0,0,1,44.321,27.953Zm1.5,0a.318.318,0,1,1-.636,0A.318.318,0,0,1,45.817,27.953Zm1.5,0a.318.318,0,1,1-.635,0A.318.318,0,0,1,47.313,27.953Zm1.5,0a.318.318,0,1,1-.636,0A.318.318,0,0,1,48.809,27.953Zm1.5,0a.318.318,0,1,1-.636,0A.318.318,0,0,1,50.305,27.953Zm1.5,0a.317.317,0,1,1-.635,0A.317.317,0,0,1,51.8,27.953Zm1.5,0a.318.318,0,1,1-.636,0A.318.318,0,0,1,53.3,27.953Zm1.5,0a.317.317,0,1,1-.635,0A.317.317,0,0,1,54.794,27.953Zm1.5,0a.318.318,0,1,1-.636,0A.318.318,0,0,1,56.291,27.953Zm1.5,0a.318.318,0,1,1-.636,0A.318.318,0,0,1,57.786,27.953Zm1.5,0a.318.318,0,1,1-.636,0A.318.318,0,0,1,59.283,27.953Zm1.5,0a.318.318,0,1,1-.636,0A.318.318,0,0,1,60.779,27.953Zm.861,0a.318.318,0,0,1,.636,0A.318.318,0,1,1,61.639,27.955Zm1.5,0a.317.317,0,0,1,.635,0A.317.317,0,1,1,63.136,27.955ZM40.58,28.7a.318.318,0,1,1-.636,0A.318.318,0,0,1,40.58,28.7Zm1.5,0a.318.318,0,1,1-.636,0A.318.318,0,0,1,42.076,28.7Zm1.5,0a.318.318,0,1,1-.636,0A.318.318,0,0,1,43.573,28.7Zm1.5,0a.317.317,0,1,1-.635,0A.317.317,0,0,1,45.068,28.7Zm1.5,0a.318.318,0,1,1-.636,0A.318.318,0,0,1,46.565,28.7Zm1.5,0a.318.318,0,1,1-.636,0A.318.318,0,0,1,48.061,28.7Zm1.5,0a.318.318,0,1,1-.636,0A.318.318,0,0,1,49.558,28.7Zm1.5,0a.318.318,0,1,1-.636,0A.318.318,0,0,1,51.054,28.7Zm1.5,0a.318.318,0,1,1-.636,0A.318.318,0,0,1,52.55,28.7Zm1.5,0a.318.318,0,1,1-.636,0A.318.318,0,0,1,54.046,28.7Zm1.5,0a.318.318,0,1,1-.636,0A.318.318,0,0,1,55.542,28.7Zm1.5,0a.317.317,0,1,1-.635,0A.317.317,0,0,1,57.038,28.7Zm1.5,0a.318.318,0,1,1-.636,0A.318.318,0,0,1,58.534,28.7Zm1.5,0a.317.317,0,1,1-.635,0A.317.317,0,0,1,60.031,28.7Zm.861,0a.318.318,0,0,1,.636,0A.318.318,0,1,1,60.892,28.7Zm1.5,0a.318.318,0,0,1,.636,0A.318.318,0,1,1,62.388,28.7Zm1.5,0a.318.318,0,0,1,.636,0A.318.318,0,1,1,63.884,28.7Zm-24.052.746a.317.317,0,1,1-.635,0A.317.317,0,0,1,39.832,29.449Zm1.5,0a.318.318,0,1,1-.636,0A.318.318,0,0,1,41.328,29.449Zm1.5,0a.317.317,0,1,1-.635,0A.317.317,0,0,1,42.825,29.449Zm1.5,0a.318.318,0,1,1-.636,0A.318.318,0,0,1,44.321,29.449Zm1.5,0a.318.318,0,1,1-.636,0A.318.318,0,0,1,45.817,29.449Zm1.5,0a.318.318,0,1,1-.635,0A.318.318,0,0,1,47.313,29.449Zm1.5,0a.318.318,0,1,1-.636,0A.318.318,0,0,1,48.809,29.449Zm1.5,0a.318.318,0,1,1-.636,0A.318.318,0,0,1,50.305,29.449Zm1.5,0a.317.317,0,1,1-.635,0A.317.317,0,0,1,51.8,29.449Zm1.5,0a.318.318,0,1,1-.636,0A.318.318,0,0,1,53.3,29.449Zm1.5,0a.317.317,0,1,1-.635,0A.317.317,0,0,1,54.794,29.449Zm1.5,0a.318.318,0,1,1-.636,0A.318.318,0,0,1,56.291,29.449Zm1.5,0a.318.318,0,1,1-.636,0A.318.318,0,0,1,57.786,29.449Zm1.5,0a.318.318,0,1,1-.636,0A.318.318,0,0,1,59.283,29.449Zm1.5,0a.318.318,0,1,1-.636,0A.318.318,0,0,1,60.779,29.449Zm.861,0a.318.318,0,0,1,.636,0A.318.318,0,1,1,61.639,29.451Zm1.5,0a.318.318,0,0,1,.635,0A.318.318,0,1,1,63.136,29.451Zm1.5,0a.318.318,0,0,1,.636,0A.318.318,0,1,1,64.631,29.451ZM40.58,30.2a.318.318,0,1,1-.636,0A.318.318,0,0,1,40.58,30.2Zm1.5,0a.318.318,0,1,1-.636,0A.318.318,0,0,1,42.076,30.2Zm1.5,0a.318.318,0,1,1-.636,0A.318.318,0,0,1,43.573,30.2Zm1.5,0a.317.317,0,1,1-.635,0A.317.317,0,0,1,45.068,30.2Zm1.5,0a.318.318,0,1,1-.636,0A.318.318,0,0,1,46.565,30.2Zm1.5,0a.318.318,0,1,1-.636,0A.318.318,0,0,1,48.061,30.2Zm1.5,0a.318.318,0,1,1-.636,0A.318.318,0,0,1,49.558,30.2Zm1.5,0a.318.318,0,1,1-.636,0A.318.318,0,0,1,51.054,30.2Zm1.5,0a.318.318,0,1,1-.636,0A.318.318,0,0,1,52.55,30.2Zm1.5,0a.318.318,0,1,1-.636,0A.318.318,0,0,1,54.046,30.2Zm1.5,0a.318.318,0,1,1-.636,0A.318.318,0,0,1,55.542,30.2Zm1.5,0a.317.317,0,1,1-.635,0A.317.317,0,0,1,57.038,30.2Zm1.5,0a.318.318,0,1,1-.636,0A.318.318,0,0,1,58.534,30.2Zm2.357,0a.318.318,0,0,1,.636,0A.318.318,0,1,1,60.892,30.2Zm1.5,0a.318.318,0,0,1,.636,0A.318.318,0,1,1,62.388,30.2Zm1.5,0a.318.318,0,0,1,.636,0A.318.318,0,1,1,63.884,30.2Zm1.5,0a.318.318,0,0,1,.636,0A.318.318,0,1,1,65.38,30.2Zm-25.548.746a.317.317,0,1,1-.635,0A.317.317,0,0,1,39.832,30.946Zm1.5,0a.318.318,0,1,1-.636,0A.318.318,0,0,1,41.328,30.946Zm1.5,0a.317.317,0,1,1-.635,0A.317.317,0,0,1,42.825,30.946Zm1.5,0a.318.318,0,1,1-.636,0A.318.318,0,0,1,44.321,30.946Zm2.992,0a.318.318,0,1,1-.635,0A.318.318,0,0,1,47.313,30.946Zm1.5,0a.318.318,0,1,1-.636,0A.318.318,0,0,1,48.809,30.946Zm1.5,0a.318.318,0,1,1-.636,0A.318.318,0,0,1,50.305,30.946Zm1.5,0a.317.317,0,1,1-.635,0A.317.317,0,0,1,51.8,30.946Zm1.5,0a.318.318,0,1,1-.636,0A.318.318,0,0,1,53.3,30.946Zm1.5,0a.317.317,0,1,1-.635,0A.317.317,0,0,1,54.794,30.946Zm1.5,0a.318.318,0,1,1-.636,0A.318.318,0,0,1,56.291,30.946Zm1.5,0a.318.318,0,1,1-.636,0A.318.318,0,0,1,57.786,30.946Zm1.5,0a.318.318,0,1,1-.636,0A.318.318,0,0,1,59.283,30.946Zm1.5,0a.318.318,0,1,1-.636,0A.318.318,0,0,1,60.779,30.946Zm.861,0a.318.318,0,0,1,.636,0A.318.318,0,1,1,61.639,30.947Zm1.5,0a.317.317,0,0,1,.635,0A.317.317,0,1,1,63.136,30.947Zm1.5,0a.318.318,0,0,1,.636,0A.318.318,0,1,1,64.631,30.947Zm-25.547.746a.318.318,0,1,1-.636,0A.318.318,0,0,1,39.085,31.694Zm1.5,0a.318.318,0,1,1-.636,0A.318.318,0,0,1,40.58,31.694Zm1.5,0a.318.318,0,1,1-.636,0A.318.318,0,0,1,42.076,31.694Zm1.5,0a.318.318,0,1,1-.636,0A.318.318,0,0,1,43.573,31.694Zm2.993,0a.318.318,0,1,1-.636,0A.318.318,0,0,1,46.565,31.694Zm1.5,0a.318.318,0,1,1-.636,0A.318.318,0,0,1,48.061,31.694Zm1.5,0a.318.318,0,1,1-.636,0A.318.318,0,0,1,49.558,31.694Zm1.5,0a.318.318,0,1,1-.636,0A.318.318,0,0,1,51.054,31.694Zm1.5,0a.318.318,0,1,1-.636,0A.318.318,0,0,1,52.55,31.694Zm1.5,0a.318.318,0,1,1-.636,0A.318.318,0,0,1,54.046,31.694Zm1.5,0a.318.318,0,1,1-.636,0A.318.318,0,0,1,55.542,31.694Zm1.5,0a.317.317,0,1,1-.635,0A.317.317,0,0,1,57.038,31.694Zm1.5,0a.318.318,0,1,1-.636,0A.318.318,0,0,1,58.534,31.694Zm2.993,0a.318.318,0,1,1-.636,0A.318.318,0,0,1,61.527,31.694Zm.861,0a.318.318,0,0,1,.636,0A.318.318,0,1,1,62.388,31.7Zm1.5,0a.318.318,0,0,1,.636,0A.318.318,0,1,1,63.884,31.7Zm1.5,0a.318.318,0,0,1,.636,0A.318.318,0,1,1,65.38,31.7Zm-24.052.746a.318.318,0,1,1-.636,0A.318.318,0,0,1,41.328,32.442Zm1.5,0a.317.317,0,1,1-.635,0A.317.317,0,0,1,42.825,32.442Zm2.993,0a.318.318,0,1,1-.636,0A.318.318,0,0,1,45.817,32.442Zm1.5,0a.318.318,0,1,1-.635,0A.318.318,0,0,1,47.313,32.442Zm1.5,0a.318.318,0,1,1-.636,0A.318.318,0,0,1,48.809,32.442Zm1.5,0a.318.318,0,1,1-.636,0A.318.318,0,0,1,50.305,32.442Zm1.5,0a.317.317,0,1,1-.635,0A.317.317,0,0,1,51.8,32.442Zm1.5,0a.318.318,0,1,1-.636,0A.318.318,0,0,1,53.3,32.442Zm1.5,0a.317.317,0,1,1-.635,0A.317.317,0,0,1,54.794,32.442Zm1.5,0a.318.318,0,1,1-.636,0A.318.318,0,0,1,56.291,32.442Zm1.5,0a.318.318,0,1,1-.636,0A.318.318,0,0,1,57.786,32.442Zm1.5,0a.318.318,0,1,1-.636,0A.318.318,0,0,1,59.283,32.442Zm2.357,0a.318.318,0,0,1,.636,0A.318.318,0,1,1,61.639,32.444Zm1.5,0a.317.317,0,0,1,.635,0A.317.317,0,1,1,63.136,32.444Zm1.5,0a.318.318,0,0,1,.636,0A.318.318,0,1,1,64.631,32.444Zm-22.555.746a.318.318,0,1,1-.636,0A.318.318,0,0,1,42.076,33.19Zm1.5,0a.318.318,0,1,1-.636,0A.318.318,0,0,1,43.573,33.19Zm2.993,0a.318.318,0,1,1-.636,0A.318.318,0,0,1,46.565,33.19Zm1.5,0a.318.318,0,1,1-.636,0A.318.318,0,0,1,48.061,33.19Zm1.5,0a.318.318,0,1,1-.636,0A.318.318,0,0,1,49.558,33.19Zm1.5,0a.318.318,0,1,1-.636,0A.318.318,0,0,1,51.054,33.19Zm1.5,0a.318.318,0,1,1-.636,0A.318.318,0,0,1,52.55,33.19Zm1.5,0a.318.318,0,1,1-.636,0A.318.318,0,0,1,54.046,33.19Zm1.5,0a.318.318,0,1,1-.636,0A.318.318,0,0,1,55.542,33.19Zm1.5,0a.317.317,0,1,1-.635,0A.317.317,0,0,1,57.038,33.19Zm1.5,0a.318.318,0,1,1-.636,0A.318.318,0,0,1,58.534,33.19Zm3.854,0a.318.318,0,0,1,.636,0A.318.318,0,1,1,62.388,33.192Zm-19.563.746a.317.317,0,1,1-.635,0A.317.317,0,0,1,42.825,33.938Zm2.993,0a.318.318,0,1,1-.636,0A.318.318,0,0,1,45.817,33.938Zm1.5,0a.318.318,0,1,1-.635,0A.318.318,0,0,1,47.313,33.938Zm1.5,0a.318.318,0,1,1-.636,0A.318.318,0,0,1,48.809,33.938Zm1.5,0a.318.318,0,1,1-.636,0A.318.318,0,0,1,50.305,33.938Zm1.5,0a.317.317,0,1,1-.635,0A.317.317,0,0,1,51.8,33.938Zm1.5,0a.318.318,0,1,1-.636,0A.318.318,0,0,1,53.3,33.938Zm1.5,0a.317.317,0,1,1-.635,0A.317.317,0,0,1,54.794,33.938Zm1.5,0a.318.318,0,1,1-.636,0A.318.318,0,0,1,56.291,33.938Zm1.5,0a.318.318,0,1,1-.636,0A.318.318,0,0,1,57.786,33.938Zm1.5,0a.318.318,0,1,1-.636,0A.318.318,0,0,1,59.283,33.938Zm2.357,0a.318.318,0,0,1,.636,0A.318.318,0,1,1,61.639,33.94Zm-15.074.746a.318.318,0,1,1-.636,0A.318.318,0,0,1,46.565,34.686Zm1.5,0a.318.318,0,1,1-.636,0A.318.318,0,0,1,48.061,34.686Zm1.5,0a.318.318,0,1,1-.636,0A.318.318,0,0,1,49.558,34.686Zm1.5,0a.318.318,0,1,1-.636,0A.318.318,0,0,1,51.054,34.686Zm1.5,0a.318.318,0,1,1-.636,0A.318.318,0,0,1,52.55,34.686Zm1.5,0a.318.318,0,1,1-.636,0A.318.318,0,0,1,54.046,34.686Zm1.5,0a.318.318,0,1,1-.636,0A.318.318,0,0,1,55.542,34.686Zm1.5,0a.317.317,0,1,1-.635,0A.317.317,0,0,1,57.038,34.686Zm1.5,0a.318.318,0,1,1-.636,0A.318.318,0,0,1,58.534,34.686Zm.862,0a.318.318,0,0,1,.635,0A.318.318,0,1,1,59.4,34.688Zm-13.578.746a.318.318,0,1,1-.636,0A.318.318,0,0,1,45.817,35.434Zm1.5,0a.318.318,0,1,1-.635,0A.318.318,0,0,1,47.313,35.434Zm1.5,0a.318.318,0,1,1-.636,0A.318.318,0,0,1,48.809,35.434Zm1.5,0a.318.318,0,1,1-.636,0A.318.318,0,0,1,50.305,35.434Zm1.5,0a.317.317,0,1,1-.635,0A.317.317,0,0,1,51.8,35.434Zm1.5,0a.318.318,0,1,1-.636,0A.318.318,0,0,1,53.3,35.434Zm1.5,0a.317.317,0,1,1-.635,0A.317.317,0,0,1,54.794,35.434Zm1.5,0a.318.318,0,1,1-.636,0A.318.318,0,0,1,56.291,35.434Zm1.5,0a.318.318,0,1,1-.636,0A.318.318,0,0,1,57.786,35.434Zm1.5,0a.318.318,0,1,1-.636,0A.318.318,0,0,1,59.283,35.434Zm-14.215.749a.317.317,0,1,1-.635,0A.317.317,0,0,1,45.068,36.183Zm1.5,0a.318.318,0,1,1-.636,0A.318.318,0,0,1,46.565,36.183Zm1.5,0a.318.318,0,1,1-.636,0A.318.318,0,0,1,48.061,36.183Zm1.5,0a.318.318,0,1,1-.636,0A.318.318,0,0,1,49.558,36.183Zm1.5,0a.318.318,0,1,1-.636,0A.318.318,0,0,1,51.054,36.183Zm1.5,0a.318.318,0,1,1-.636,0A.318.318,0,0,1,52.55,36.183Zm1.5,0a.318.318,0,1,1-.636,0A.318.318,0,0,1,54.046,36.183Zm1.5,0a.318.318,0,1,1-.636,0A.318.318,0,0,1,55.542,36.183Zm1.5,0a.317.317,0,1,1-.635,0A.317.317,0,0,1,57.038,36.183Zm1.5,0a.318.318,0,1,1-.636,0A.318.318,0,0,1,58.534,36.183Zm.862,0a.318.318,0,0,1,.635,0A.318.318,0,1,1,59.4,36.185Zm-13.578.746a.318.318,0,1,1-.636,0A.318.318,0,0,1,45.817,36.931Zm1.5,0a.318.318,0,1,1-.635,0A.318.318,0,0,1,47.313,36.931Zm1.5,0a.318.318,0,1,1-.636,0A.318.318,0,0,1,48.809,36.931Zm1.5,0a.318.318,0,1,1-.636,0A.318.318,0,0,1,50.305,36.931Zm1.5,0a.317.317,0,1,1-.635,0A.317.317,0,0,1,51.8,36.931Zm1.5,0a.318.318,0,1,1-.636,0A.318.318,0,0,1,53.3,36.931Zm1.5,0a.317.317,0,1,1-.635,0A.317.317,0,0,1,54.794,36.931Zm1.5,0a.318.318,0,1,1-.636,0A.318.318,0,0,1,56.291,36.931Zm1.5,0a.318.318,0,1,1-.636,0A.318.318,0,0,1,57.786,36.931Zm1.5,0a.318.318,0,1,1-.636,0A.318.318,0,0,1,59.283,36.931Zm-14.215.748a.317.317,0,1,1-.635,0A.317.317,0,0,1,45.068,37.678Zm1.5,0a.318.318,0,1,1-.636,0A.318.318,0,0,1,46.565,37.678Zm1.5,0a.318.318,0,1,1-.636,0A.318.318,0,0,1,48.061,37.678Zm1.5,0a.318.318,0,1,1-.636,0A.318.318,0,0,1,49.558,37.678Zm1.5,0a.318.318,0,1,1-.636,0A.318.318,0,0,1,51.054,37.678Zm1.5,0a.318.318,0,1,1-.636,0A.318.318,0,0,1,52.55,37.678Zm1.5,0a.318.318,0,1,1-.636,0A.318.318,0,0,1,54.046,37.678Zm1.5,0a.318.318,0,1,1-.636,0A.318.318,0,0,1,55.542,37.678Zm1.5,0a.317.317,0,1,1-.635,0A.317.317,0,0,1,57.038,37.678Zm1.5,0a.318.318,0,1,1-.636,0A.318.318,0,0,1,58.534,37.678Zm.862,0a.318.318,0,0,1,.635,0A.318.318,0,1,1,59.4,37.681Zm-13.578.746a.318.318,0,1,1-.636,0A.318.318,0,0,1,45.817,38.427Zm1.5,0a.318.318,0,1,1-.635,0A.318.318,0,0,1,47.313,38.427Zm1.5,0a.318.318,0,1,1-.636,0A.318.318,0,0,1,48.809,38.427Zm1.5,0a.318.318,0,1,1-.636,0A.318.318,0,0,1,50.305,38.427Zm1.5,0a.317.317,0,1,1-.635,0A.317.317,0,0,1,51.8,38.427Zm1.5,0a.318.318,0,1,1-.636,0A.318.318,0,0,1,53.3,38.427Zm1.5,0a.317.317,0,1,1-.635,0A.317.317,0,0,1,54.794,38.427Zm1.5,0a.318.318,0,1,1-.636,0A.318.318,0,0,1,56.291,38.427Zm1.5,0a.318.318,0,1,1-.636,0A.318.318,0,0,1,57.786,38.427Zm1.5,0a.318.318,0,1,1-.636,0A.318.318,0,0,1,59.283,38.427Zm.86,0a.318.318,0,0,1,.636,0A.318.318,0,1,1,60.143,38.428Zm-15.075.747a.317.317,0,1,1-.635,0A.317.317,0,0,1,45.068,39.175Zm1.5,0a.318.318,0,1,1-.636,0A.318.318,0,0,1,46.565,39.175Zm1.5,0a.318.318,0,1,1-.636,0A.318.318,0,0,1,48.061,39.175Zm1.5,0a.318.318,0,1,1-.636,0A.318.318,0,0,1,49.558,39.175Zm1.5,0a.318.318,0,1,1-.636,0A.318.318,0,0,1,51.054,39.175Zm1.5,0a.318.318,0,1,1-.636,0A.318.318,0,0,1,52.55,39.175Zm1.5,0a.318.318,0,1,1-.636,0A.318.318,0,0,1,54.046,39.175Zm1.5,0a.318.318,0,1,1-.636,0A.318.318,0,0,1,55.542,39.175Zm1.5,0a.317.317,0,1,1-.635,0A.317.317,0,0,1,57.038,39.175Zm1.5,0a.318.318,0,1,1-.636,0A.318.318,0,0,1,58.534,39.175Zm.862,0a.317.317,0,0,1,.635,0A.317.317,0,1,1,59.4,39.177Zm-15.075.746a.318.318,0,1,1-.636,0A.318.318,0,0,1,44.321,39.923Zm1.5,0a.318.318,0,1,1-.636,0A.318.318,0,0,1,45.817,39.923Zm1.5,0a.318.318,0,1,1-.635,0A.318.318,0,0,1,47.313,39.923Zm1.5,0a.318.318,0,1,1-.636,0A.318.318,0,0,1,48.809,39.923Zm1.5,0a.318.318,0,1,1-.636,0A.318.318,0,0,1,50.305,39.923Zm1.5,0a.317.317,0,1,1-.635,0A.317.317,0,0,1,51.8,39.923Zm1.5,0a.318.318,0,1,1-.636,0A.318.318,0,0,1,53.3,39.923Zm1.5,0a.317.317,0,1,1-.635,0A.317.317,0,0,1,54.794,39.923Zm1.5,0a.318.318,0,1,1-.636,0A.318.318,0,0,1,56.291,39.923Zm1.5,0a.318.318,0,1,1-.636,0A.318.318,0,0,1,57.786,39.923Zm1.5,0a.318.318,0,1,1-.636,0A.318.318,0,0,1,59.283,39.923Zm.86,0a.318.318,0,0,1,.636,0A.318.318,0,1,1,60.143,39.926Zm-15.075.746a.317.317,0,1,1-.635,0A.317.317,0,0,1,45.068,40.671Zm1.5,0a.318.318,0,1,1-.636,0A.318.318,0,0,1,46.565,40.671Zm1.5,0a.318.318,0,1,1-.636,0A.318.318,0,0,1,48.061,40.671Zm1.5,0a.318.318,0,1,1-.636,0A.318.318,0,0,1,49.558,40.671Zm1.5,0a.318.318,0,1,1-.636,0A.318.318,0,0,1,51.054,40.671Zm1.5,0a.318.318,0,1,1-.636,0A.318.318,0,0,1,52.55,40.671Zm1.5,0a.318.318,0,1,1-.636,0A.318.318,0,0,1,54.046,40.671Zm1.5,0a.318.318,0,1,1-.636,0A.318.318,0,0,1,55.542,40.671Zm1.5,0a.317.317,0,1,1-.635,0A.317.317,0,0,1,57.038,40.671Zm1.5,0a.318.318,0,1,1-.636,0A.318.318,0,0,1,58.534,40.671Zm.862,0a.318.318,0,0,1,.635,0A.318.318,0,1,1,59.4,40.673Zm-15.075.746a.318.318,0,1,1-.636,0A.318.318,0,0,1,44.321,41.419Zm1.5,0a.318.318,0,1,1-.636,0A.318.318,0,0,1,45.817,41.419Zm1.5,0a.318.318,0,1,1-.635,0A.318.318,0,0,1,47.313,41.419Zm1.5,0a.318.318,0,1,1-.636,0A.318.318,0,0,1,48.809,41.419Zm1.5,0a.318.318,0,1,1-.636,0A.318.318,0,0,1,50.305,41.419Zm1.5,0a.317.317,0,1,1-.635,0A.317.317,0,0,1,51.8,41.419Zm1.5,0a.318.318,0,1,1-.636,0A.318.318,0,0,1,53.3,41.419Zm1.5,0a.317.317,0,1,1-.635,0A.317.317,0,0,1,54.794,41.419Zm1.5,0a.318.318,0,1,1-.636,0A.318.318,0,0,1,56.291,41.419Zm1.5,0a.318.318,0,1,1-.636,0A.318.318,0,0,1,57.786,41.419Zm1.5,0a.318.318,0,1,1-.636,0A.318.318,0,0,1,59.283,41.419Zm.86,0a.318.318,0,0,1,.636,0A.318.318,0,1,1,60.143,41.421Zm-15.075.746a.317.317,0,1,1-.635,0A.317.317,0,0,1,45.068,42.168Zm1.5,0a.318.318,0,1,1-.636,0A.318.318,0,0,1,46.565,42.168Zm1.5,0a.318.318,0,1,1-.636,0A.318.318,0,0,1,48.061,42.168Zm1.5,0a.318.318,0,1,1-.636,0A.318.318,0,0,1,49.558,42.168Zm1.5,0a.318.318,0,1,1-.636,0A.318.318,0,0,1,51.054,42.168Zm1.5,0a.318.318,0,1,1-.636,0A.318.318,0,0,1,52.55,42.168Zm1.5,0a.318.318,0,1,1-.636,0A.318.318,0,0,1,54.046,42.168Zm1.5,0a.318.318,0,1,1-.636,0A.318.318,0,0,1,55.542,42.168Zm1.5,0a.317.317,0,1,1-.635,0A.317.317,0,0,1,57.038,42.168Zm1.5,0a.318.318,0,1,1-.636,0A.318.318,0,0,1,58.534,42.168Zm.862,0a.318.318,0,0,1,.635,0A.318.318,0,1,1,59.4,42.169Zm1.5,0a.318.318,0,0,1,.636,0A.318.318,0,1,1,60.892,42.169Zm-16.571.746a.318.318,0,1,1-.636,0A.318.318,0,0,1,44.321,42.915Zm1.5,0a.318.318,0,1,1-.636,0A.318.318,0,0,1,45.817,42.915Zm1.5,0a.318.318,0,1,1-.635,0A.318.318,0,0,1,47.313,42.915Zm1.5,0a.318.318,0,1,1-.636,0A.318.318,0,0,1,48.809,42.915Zm1.5,0a.318.318,0,1,1-.636,0A.318.318,0,0,1,50.305,42.915Zm1.5,0a.317.317,0,1,1-.635,0A.317.317,0,0,1,51.8,42.915Zm1.5,0a.318.318,0,1,1-.636,0A.318.318,0,0,1,53.3,42.915Zm1.5,0a.317.317,0,1,1-.635,0A.317.317,0,0,1,54.794,42.915Zm1.5,0a.318.318,0,1,1-.636,0A.318.318,0,0,1,56.291,42.915Zm1.5,0a.318.318,0,1,1-.636,0A.318.318,0,0,1,57.786,42.915Zm1.5,0a.318.318,0,1,1-.636,0A.318.318,0,0,1,59.283,42.915Zm.86,0a.318.318,0,0,1,.636,0A.318.318,0,1,1,60.143,42.918Zm-16.571.746a.318.318,0,1,1-.636,0A.318.318,0,0,1,43.573,43.664Zm1.5,0a.317.317,0,1,1-.635,0A.317.317,0,0,1,45.068,43.664Zm1.5,0a.318.318,0,1,1-.636,0A.318.318,0,0,1,46.565,43.664Zm1.5,0a.318.318,0,1,1-.636,0A.318.318,0,0,1,48.061,43.664Zm1.5,0a.318.318,0,1,1-.636,0A.318.318,0,0,1,49.558,43.664Zm1.5,0a.318.318,0,1,1-.636,0A.318.318,0,0,1,51.054,43.664Zm1.5,0a.318.318,0,1,1-.636,0A.318.318,0,0,1,52.55,43.664Zm1.5,0a.318.318,0,1,1-.636,0A.318.318,0,0,1,54.046,43.664Zm1.5,0a.318.318,0,1,1-.636,0A.318.318,0,0,1,55.542,43.664Zm1.5,0a.317.317,0,1,1-.635,0A.317.317,0,0,1,57.038,43.664Zm1.5,0a.318.318,0,1,1-.636,0A.318.318,0,0,1,58.534,43.664Zm.862,0a.318.318,0,0,1,.635,0A.318.318,0,1,1,59.4,43.665Zm1.5,0a.318.318,0,0,1,.636,0A.318.318,0,1,1,60.892,43.665Zm-16.571.746a.318.318,0,1,1-.636,0A.318.318,0,0,1,44.321,44.412Zm1.5,0a.318.318,0,1,1-.636,0A.318.318,0,0,1,45.817,44.412Zm1.5,0a.318.318,0,1,1-.635,0A.318.318,0,0,1,47.313,44.412Zm1.5,0a.318.318,0,1,1-.636,0A.318.318,0,0,1,48.809,44.412Zm1.5,0a.318.318,0,1,1-.636,0A.318.318,0,0,1,50.305,44.412Zm1.5,0a.317.317,0,1,1-.635,0A.317.317,0,0,1,51.8,44.412Zm1.5,0a.318.318,0,1,1-.636,0A.318.318,0,0,1,53.3,44.412Zm1.5,0a.317.317,0,1,1-.635,0A.317.317,0,0,1,54.794,44.412Zm1.5,0a.318.318,0,1,1-.636,0A.318.318,0,0,1,56.291,44.412Zm1.5,0a.318.318,0,1,1-.636,0A.318.318,0,0,1,57.786,44.412Zm1.5,0a.318.318,0,1,1-.636,0A.318.318,0,0,1,59.283,44.412Zm.86,0a.318.318,0,0,1,.636,0A.318.318,0,1,1,60.143,44.414Zm-16.571.746a.318.318,0,1,1-.636,0A.318.318,0,0,1,43.573,45.16Zm1.5,0a.317.317,0,1,1-.635,0A.317.317,0,0,1,45.068,45.16Zm1.5,0a.318.318,0,1,1-.636,0A.318.318,0,0,1,46.565,45.16Zm1.5,0a.318.318,0,1,1-.636,0A.318.318,0,0,1,48.061,45.16Zm1.5,0a.318.318,0,1,1-.636,0A.318.318,0,0,1,49.558,45.16Zm1.5,0a.318.318,0,1,1-.636,0A.318.318,0,0,1,51.054,45.16Zm1.5,0a.318.318,0,1,1-.636,0A.318.318,0,0,1,52.55,45.16Zm1.5,0a.318.318,0,1,1-.636,0A.318.318,0,0,1,54.046,45.16Zm1.5,0a.318.318,0,1,1-.636,0A.318.318,0,0,1,55.542,45.16Zm1.5,0a.317.317,0,1,1-.635,0A.317.317,0,0,1,57.038,45.16Zm1.5,0a.318.318,0,1,1-.636,0A.318.318,0,0,1,58.534,45.16Zm.862,0a.318.318,0,0,1,.635,0A.318.318,0,1,1,59.4,45.162Zm1.5,0a.318.318,0,0,1,.636,0A.318.318,0,1,1,60.892,45.162Zm-16.571.746a.318.318,0,1,1-.636,0A.318.318,0,0,1,44.321,45.908Zm1.5,0a.318.318,0,1,1-.636,0A.318.318,0,0,1,45.817,45.908Zm1.5,0a.318.318,0,1,1-.635,0A.318.318,0,0,1,47.313,45.908Zm1.5,0a.318.318,0,1,1-.636,0A.318.318,0,0,1,48.809,45.908Zm1.5,0a.318.318,0,1,1-.636,0A.318.318,0,0,1,50.305,45.908Zm1.5,0a.317.317,0,1,1-.635,0A.317.317,0,0,1,51.8,45.908Zm1.5,0a.318.318,0,1,1-.636,0A.318.318,0,0,1,53.3,45.908Zm1.5,0a.317.317,0,1,1-.635,0A.317.317,0,0,1,54.794,45.908Zm1.5,0a.318.318,0,1,1-.636,0A.318.318,0,0,1,56.291,45.908Zm1.5,0a.318.318,0,1,1-.636,0A.318.318,0,0,1,57.786,45.908Zm1.5,0a.318.318,0,1,1-.636,0A.318.318,0,0,1,59.283,45.908Zm.86,0a.318.318,0,0,1,.636,0A.318.318,0,1,1,60.143,45.91Zm1.5,0a.318.318,0,0,1,.636,0A.318.318,0,1,1,61.639,45.91Zm-18.067.746a.318.318,0,1,1-.636,0A.318.318,0,0,1,43.573,46.656Zm1.5,0a.317.317,0,1,1-.635,0A.317.317,0,0,1,45.068,46.656Zm1.5,0a.318.318,0,1,1-.636,0A.318.318,0,0,1,46.565,46.656Zm1.5,0a.318.318,0,1,1-.636,0A.318.318,0,0,1,48.061,46.656Zm1.5,0a.318.318,0,1,1-.636,0A.318.318,0,0,1,49.558,46.656Zm1.5,0a.318.318,0,1,1-.636,0A.318.318,0,0,1,51.054,46.656Zm1.5,0a.318.318,0,1,1-.636,0A.318.318,0,0,1,52.55,46.656Zm1.5,0a.318.318,0,1,1-.636,0A.318.318,0,0,1,54.046,46.656Zm1.5,0a.318.318,0,1,1-.636,0A.318.318,0,0,1,55.542,46.656Zm1.5,0a.317.317,0,1,1-.635,0A.317.317,0,0,1,57.038,46.656Zm1.5,0a.318.318,0,1,1-.636,0A.318.318,0,0,1,58.534,46.656Zm.862,0a.318.318,0,0,1,.635,0A.318.318,0,1,1,59.4,46.658Zm1.5,0a.318.318,0,0,1,.636,0A.318.318,0,1,1,60.892,46.658ZM42.825,47.4a.317.317,0,1,1-.635,0A.317.317,0,0,1,42.825,47.4Zm1.5,0a.318.318,0,1,1-.636,0A.318.318,0,0,1,44.321,47.4Zm1.5,0a.318.318,0,1,1-.636,0A.318.318,0,0,1,45.817,47.4Zm1.5,0a.318.318,0,1,1-.635,0A.318.318,0,0,1,47.313,47.4Zm1.5,0a.318.318,0,1,1-.636,0A.318.318,0,0,1,48.809,47.4Zm1.5,0a.318.318,0,1,1-.636,0A.318.318,0,0,1,50.305,47.4Zm1.5,0a.317.317,0,1,1-.635,0A.317.317,0,0,1,51.8,47.4Zm1.5,0a.318.318,0,1,1-.636,0A.318.318,0,0,1,53.3,47.4Zm1.5,0a.317.317,0,1,1-.635,0A.317.317,0,0,1,54.794,47.4Zm1.5,0a.318.318,0,1,1-.636,0A.318.318,0,0,1,56.291,47.4Zm1.5,0a.318.318,0,1,1-.636,0A.318.318,0,0,1,57.786,47.4Zm1.5,0a.318.318,0,1,1-.636,0A.318.318,0,0,1,59.283,47.4Zm.86,0a.318.318,0,0,1,.636,0A.318.318,0,1,1,60.143,47.406Zm1.5,0a.318.318,0,0,1,.636,0A.318.318,0,1,1,61.639,47.406Zm-18.067.746a.318.318,0,1,1-.636,0A.318.318,0,0,1,43.573,48.152Zm1.5,0a.317.317,0,1,1-.635,0A.317.317,0,0,1,45.068,48.152Zm1.5,0a.318.318,0,1,1-.636,0A.318.318,0,0,1,46.565,48.152Zm1.5,0a.318.318,0,1,1-.636,0A.318.318,0,0,1,48.061,48.152Zm1.5,0a.318.318,0,1,1-.636,0A.318.318,0,0,1,49.558,48.152Zm1.5,0a.318.318,0,1,1-.636,0A.318.318,0,0,1,51.054,48.152Zm1.5,0a.318.318,0,1,1-.636,0A.318.318,0,0,1,52.55,48.152Zm1.5,0a.318.318,0,1,1-.636,0A.318.318,0,0,1,54.046,48.152Zm1.5,0a.318.318,0,1,1-.636,0A.318.318,0,0,1,55.542,48.152Zm1.5,0a.317.317,0,1,1-.635,0A.317.317,0,0,1,57.038,48.152Zm1.5,0a.318.318,0,1,1-.636,0A.318.318,0,0,1,58.534,48.152Zm.862,0a.317.317,0,0,1,.635,0A.317.317,0,1,1,59.4,48.155Zm1.5,0a.318.318,0,0,1,.636,0A.318.318,0,1,1,60.892,48.155ZM42.825,48.9a.317.317,0,1,1-.635,0A.317.317,0,0,1,42.825,48.9Zm1.5,0a.318.318,0,1,1-.636,0A.318.318,0,0,1,44.321,48.9Zm1.5,0a.318.318,0,1,1-.636,0A.318.318,0,0,1,45.817,48.9Zm1.5,0a.318.318,0,1,1-.635,0A.318.318,0,0,1,47.313,48.9Zm1.5,0a.318.318,0,1,1-.636,0A.318.318,0,0,1,48.809,48.9Zm1.5,0a.318.318,0,1,1-.636,0A.318.318,0,0,1,50.305,48.9Zm1.5,0a.317.317,0,1,1-.635,0A.317.317,0,0,1,51.8,48.9Zm1.5,0a.318.318,0,1,1-.636,0A.318.318,0,0,1,53.3,48.9Zm1.5,0a.317.317,0,1,1-.635,0A.317.317,0,0,1,54.794,48.9Zm1.5,0a.318.318,0,1,1-.636,0A.318.318,0,0,1,56.291,48.9Zm1.5,0a.318.318,0,1,1-.636,0A.318.318,0,0,1,57.786,48.9Zm1.5,0a.318.318,0,1,1-.636,0A.318.318,0,0,1,59.283,48.9Zm.86,0a.318.318,0,0,1,.636,0A.318.318,0,1,1,60.143,48.9Zm1.5,0a.318.318,0,0,1,.636,0A.318.318,0,1,1,61.639,48.9Zm-18.067.746a.318.318,0,1,1-.636,0A.318.318,0,0,1,43.573,49.649Zm1.5,0a.317.317,0,1,1-.635,0A.317.317,0,0,1,45.068,49.649Zm1.5,0a.318.318,0,1,1-.636,0A.318.318,0,0,1,46.565,49.649Zm1.5,0a.318.318,0,1,1-.636,0A.318.318,0,0,1,48.061,49.649Zm1.5,0a.318.318,0,1,1-.636,0A.318.318,0,0,1,49.558,49.649Zm1.5,0a.318.318,0,1,1-.636,0A.318.318,0,0,1,51.054,49.649Zm1.5,0a.318.318,0,1,1-.636,0A.318.318,0,0,1,52.55,49.649Zm1.5,0a.318.318,0,1,1-.636,0A.318.318,0,0,1,54.046,49.649Zm1.5,0a.318.318,0,1,1-.636,0A.318.318,0,0,1,55.542,49.649Zm1.5,0a.317.317,0,1,1-.635,0A.317.317,0,0,1,57.038,49.649Zm1.5,0a.318.318,0,1,1-.636,0A.318.318,0,0,1,58.534,49.649Zm.862,0a.318.318,0,0,1,.635,0A.318.318,0,1,1,59.4,49.651Zm1.5,0a.318.318,0,0,1,.636,0A.318.318,0,1,1,60.892,49.651Zm1.5,0a.318.318,0,0,1,.636,0A.318.318,0,1,1,62.388,49.651ZM42.825,50.4a.317.317,0,1,1-.635,0A.317.317,0,0,1,42.825,50.4Zm1.5,0a.318.318,0,1,1-.636,0A.318.318,0,0,1,44.321,50.4Zm1.5,0a.318.318,0,1,1-.636,0A.318.318,0,0,1,45.817,50.4Zm1.5,0a.318.318,0,1,1-.635,0A.318.318,0,0,1,47.313,50.4Zm1.5,0a.318.318,0,1,1-.636,0A.318.318,0,0,1,48.809,50.4Zm1.5,0a.318.318,0,1,1-.636,0A.318.318,0,0,1,50.305,50.4Zm1.5,0a.317.317,0,1,1-.635,0A.317.317,0,0,1,51.8,50.4Zm1.5,0a.318.318,0,1,1-.636,0A.318.318,0,0,1,53.3,50.4Zm1.5,0a.317.317,0,1,1-.635,0A.317.317,0,0,1,54.794,50.4Zm1.5,0a.318.318,0,1,1-.636,0A.318.318,0,0,1,56.291,50.4Zm1.5,0a.318.318,0,1,1-.636,0A.318.318,0,0,1,57.786,50.4Zm1.5,0a.318.318,0,1,1-.636,0A.318.318,0,0,1,59.283,50.4Zm.86,0a.318.318,0,0,1,.636,0A.318.318,0,1,1,60.143,50.4Zm1.5,0a.318.318,0,0,1,.636,0A.318.318,0,1,1,61.639,50.4Zm-19.563.746a.318.318,0,1,1-.636,0A.318.318,0,0,1,42.076,51.145Zm1.5,0a.318.318,0,1,1-.636,0A.318.318,0,0,1,43.573,51.145Zm1.5,0a.317.317,0,1,1-.635,0A.317.317,0,0,1,45.068,51.145Zm1.5,0a.318.318,0,1,1-.636,0A.318.318,0,0,1,46.565,51.145Zm1.5,0a.318.318,0,1,1-.636,0A.318.318,0,0,1,48.061,51.145Zm1.5,0a.318.318,0,1,1-.636,0A.318.318,0,0,1,49.558,51.145Zm1.5,0a.318.318,0,1,1-.636,0A.318.318,0,0,1,51.054,51.145Zm1.5,0a.318.318,0,1,1-.636,0A.318.318,0,0,1,52.55,51.145Zm1.5,0a.318.318,0,1,1-.636,0A.318.318,0,0,1,54.046,51.145Zm1.5,0a.318.318,0,1,1-.636,0A.318.318,0,0,1,55.542,51.145Zm1.5,0a.317.317,0,1,1-.635,0A.317.317,0,0,1,57.038,51.145Zm1.5,0a.318.318,0,1,1-.636,0A.318.318,0,0,1,58.534,51.145Zm.862,0a.318.318,0,0,1,.635,0A.318.318,0,1,1,59.4,51.147Zm1.5,0a.318.318,0,0,1,.636,0A.318.318,0,1,1,60.892,51.147Zm1.5,0a.318.318,0,0,1,.636,0A.318.318,0,1,1,62.388,51.147Zm-19.563.746a.317.317,0,1,1-.635,0A.317.317,0,0,1,42.825,51.893Zm1.5,0a.318.318,0,1,1-.636,0A.318.318,0,0,1,44.321,51.893Zm1.5,0a.318.318,0,1,1-.636,0A.318.318,0,0,1,45.817,51.893Zm1.5,0a.318.318,0,1,1-.635,0A.318.318,0,0,1,47.313,51.893Zm1.5,0a.318.318,0,1,1-.636,0A.318.318,0,0,1,48.809,51.893Zm1.5,0a.318.318,0,1,1-.636,0A.318.318,0,0,1,50.305,51.893Zm1.5,0a.317.317,0,1,1-.635,0A.317.317,0,0,1,51.8,51.893Zm1.5,0a.318.318,0,1,1-.636,0A.318.318,0,0,1,53.3,51.893Zm1.5,0a.317.317,0,1,1-.635,0A.317.317,0,0,1,54.794,51.893Zm1.5,0a.318.318,0,1,1-.636,0A.318.318,0,0,1,56.291,51.893Zm1.5,0a.318.318,0,1,1-.636,0A.318.318,0,0,1,57.786,51.893Zm1.5,0a.318.318,0,1,1-.636,0A.318.318,0,0,1,59.283,51.893Zm.86,0a.318.318,0,0,1,.636,0A.318.318,0,1,1,60.143,51.9Zm1.5,0a.318.318,0,0,1,.636,0A.318.318,0,1,1,61.639,51.9Zm-19.563.746a.318.318,0,1,1-.636,0A.318.318,0,0,1,42.076,52.642Zm1.5,0a.318.318,0,1,1-.636,0A.318.318,0,0,1,43.573,52.642Zm1.5,0a.317.317,0,1,1-.635,0A.317.317,0,0,1,45.068,52.642Zm1.5,0a.318.318,0,1,1-.636,0A.318.318,0,0,1,46.565,52.642Zm1.5,0a.318.318,0,1,1-.636,0A.318.318,0,0,1,48.061,52.642Zm1.5,0a.318.318,0,1,1-.636,0A.318.318,0,0,1,49.558,52.642Zm1.5,0a.318.318,0,1,1-.636,0A.318.318,0,0,1,51.054,52.642Zm1.5,0a.318.318,0,1,1-.636,0A.318.318,0,0,1,52.55,52.642Zm1.5,0a.318.318,0,1,1-.636,0A.318.318,0,0,1,54.046,52.642Zm1.5,0a.318.318,0,1,1-.636,0A.318.318,0,0,1,55.542,52.642Zm1.5,0a.317.317,0,1,1-.635,0A.317.317,0,0,1,57.038,52.642Zm1.5,0a.318.318,0,1,1-.636,0A.318.318,0,0,1,58.534,52.642Zm.862,0a.318.318,0,0,1,.635,0A.318.318,0,1,1,59.4,52.643Zm1.5,0a.318.318,0,0,1,.636,0A.318.318,0,1,1,60.892,52.643Zm1.5,0a.318.318,0,0,1,.636,0A.318.318,0,1,1,62.388,52.643Z" transform="translate(-0.001 -5.92)" fill="#11aac4"/>
      </g>
    </g>
  </g>
</svg>
