<svg xmlns="http://www.w3.org/2000/svg" xmlns:xlink="http://www.w3.org/1999/xlink" width="151" height="151" viewBox="0 0 151 151">
  <defs>
    <linearGradient id="linear-gradient" x1="0.552" y1="0.607" x2="0.801" y2="-1.951" gradientUnits="objectBoundingBox">
      <stop offset="0" stop-color="#fff"/>
      <stop offset="1" stop-color="gray"/>
      <stop offset="1"/>
    </linearGradient>
    <filter id="Ellipse_724" x="0" y="0" width="151" height="151" filterUnits="userSpaceOnUse">
      <feOffset dy="3" input="SourceAlpha"/>
      <feGaussianBlur stdDeviation="3" result="blur"/>
      <feFlood flood-opacity="0.231"/>
      <feComposite operator="in" in2="blur"/>
      <feComposite in="SourceGraphic"/>
    </filter>
  </defs>
  <g id="Component_63_1" data-name="Component 63 – 1" transform="translate(9 6)">
    <g transform="matrix(1, 0, 0, 1, -9, -6)" filter="url(#Ellipse_724)">
      <circle id="Ellipse_724-2" data-name="Ellipse 724" cx="66.5" cy="66.5" r="66.5" transform="translate(9 6)" fill="url(#linear-gradient)"/>
    </g>
    <path id="Path_52984" data-name="Path 52984" d="M50.126,24.142a6.378,6.378,0,0,1,6.091-4.7A3.849,3.849,0,0,1,60.252,24.2a6.375,6.375,0,0,1-6.09,4.7A3.849,3.849,0,0,1,50.126,24.142ZM59.683,66.8c-5,2.879-9.42,3.352-8.349-1.575l5.63-25.9c1.125-5.174-4.945-6.483-10.385-3.719A34.43,34.43,0,0,0,36.355,43.85a.5.5,0,0,0,.629.764c5-2.88,9.42-3.353,8.349,1.575l-5.63,25.9c-1.125,5.174,4.945,6.483,10.385,3.719a34.43,34.43,0,0,0,10.225-8.242.5.5,0,0,0-.629-.764ZM91.667,48.333A43.333,43.333,0,1,1,48.333,5,43.333,43.333,0,0,1,91.667,48.333Zm-4.815,0A38.519,38.519,0,1,0,48.333,86.852,38.519,38.519,0,0,0,86.852,48.333Z" transform="translate(17.667 18.667)" fill="#11aac4"/>
  </g>
</svg>
