<svg xmlns="http://www.w3.org/2000/svg" width="44.584" height="39.674" viewBox="0 0 44.584 39.674">
  <g id="Group_7263" data-name="Group 7263" transform="translate(-9.749 -26.328)">
    <path id="Path_53438" data-name="Path 53438" d="M28.386,50.544c-.234-.592-1.051-2.307-3.407-1.246v-.789A8.687,8.687,0,0,0,26,42.494c.892-4.121-1.371-9.26-1.371-9.26l-2.675,4.047a17.259,17.259,0,0,0-2.5,0l-2.674-4.047a19.94,19.94,0,0,0-1.543,7.387c-.5-3.178-2.729-4.663-3.667-4.663-.8,0-1.522.811-1.753,1.973-.238,1.2.1,2.966,1.242,3.455a.8.8,0,0,1,.514.506c.122.382.147,1.272-.423,3.335-2.025,7.335.2,10.8,2.036,11.947.178.737.371,1.425.541,1.994a4.41,4.41,0,0,0-.994,3.049c0,1.742.861,3.546,2.3,3.546a1.354,1.354,0,0,0,.991-.447A2.1,2.1,0,0,0,17.5,66a3.243,3.243,0,0,0,3.16-1.793A3.419,3.419,0,0,0,23.811,66a2.1,2.1,0,0,0,1.469-.687,1.354,1.354,0,0,0,.991.447c1.44,0,2.3-1.8,2.3-3.546a4.412,4.412,0,0,0-.994-3.048C29,54.24,28.938,51.941,28.386,50.544ZM16.928,35.628l2.121,3.209a14.518,14.518,0,0,1,3.315,0l2.122-3.209a13.041,13.041,0,0,1,.568,6.882,7.09,7.09,0,0,1,.193,1.65c0,3.158-2.033,5.717-4.54,5.717s-4.54-2.56-4.54-5.717a7.061,7.061,0,0,1,.193-1.65A13.029,13.029,0,0,1,16.928,35.628Zm-1.657,8.586a8.585,8.585,0,0,0,1.061,4.121V49.3a2.229,2.229,0,0,0-2.2-.165C14.219,48.615,15.118,45.152,15.271,44.214ZM14.977,61.8a6.733,6.733,0,0,0-.041.738,4.672,4.672,0,0,0,.025.476.5.5,0,0,0-.064.238.376.376,0,0,0,.164.351,4.553,4.553,0,0,0,.231.716.819.819,0,0,1-.524.016.565.565,0,0,0,.043-.22c-.019-.444-.414-.477-.477-.076a1.829,1.829,0,0,1-.276-.427c.1-.034.179-.151.182-.362-.015-.348-.259-.442-.395-.276a2.975,2.975,0,0,1-.067-.61,3.947,3.947,0,0,1,.042-.587c.131.214.415.136.42-.258-.011-.249-.139-.368-.261-.354a1.96,1.96,0,0,1,.356-.59.741.741,0,0,0-.008.081c.007.489.479.506.485,0a.36.36,0,0,0-.177-.342,1.521,1.521,0,0,1,.392-.192c.142.111.352.007.356-.332-.016-.358-.275-.448-.408-.261-.2-.623-.536-1.7-.824-2.9a.472.472,0,0,0,.088-.3c-.012-.269-.161-.385-.291-.346a3.514,3.514,0,0,1-.382-.209.446.446,0,0,0,.1-.31c-.02-.472-.464-.48-.486,0,0,.011,0,.019,0,.03a4.728,4.728,0,0,1-1.431-2.259c.1-.025.2-.145.2-.368-.014-.331-.236-.434-.375-.3a12.332,12.332,0,0,1,.014-4.564c.142.118.357.016.361-.327-.01-.232-.122-.351-.237-.355q.152-.753.375-1.565c.03-.108.06-.22.09-.334.142.095.339-.013.343-.341a.361.361,0,0,0-.174-.34,11.959,11.959,0,0,0,.311-2.021c.123.244.43.176.435-.233-.016-.375-.3-.457-.426-.231a2.54,2.54,0,0,0-1.315-2.513c-.052-.168-.173-.234-.278-.193a1.6,1.6,0,0,1-.3-1.342c.088-.444.4-.831.694-.869.028.384.356.439.454.138a3.962,3.962,0,0,1,2.2,2.972c-.139-.122-.352-.022-.367.309.006.418.35.489.455.185a11.121,11.121,0,0,1-.053,3.008c-.134-.178-.386-.095-.4.267,0,.287.168.41.3.361q-.167.955-.451,2c-.126-.221-.408-.149-.425.234,0,.261.138.385.265.369a17.843,17.843,0,0,0-.4,2.017c-.119-.252-.421-.188-.439.209,0,.344.239.453.381.312a8.9,8.9,0,0,0-.036,1.094c-.138-.094-.331.011-.344.325,0,.358.257.462.4.295a2.813,2.813,0,0,0,.591,1.483,4.188,4.188,0,0,1,.214-1.536c.127.23.423.159.428-.243a.443.443,0,0,0-.1-.287,1.078,1.078,0,0,1,.337-.231.188.188,0,0,0,.262-.075,2.532,2.532,0,0,1,1.418.289.427.427,0,0,0-.115.307c0,.3.188.426.328.351v1.044c-.137-.076-.315.033-.328.334,0,.305.188.426.328.351v1.045c-.137-.076-.315.033-.328.334,0,.3.188.425.328.35V56c-.137-.076-.315.033-.328.334,0,.3.188.425.328.351v1.044c-.137-.076-.315.033-.328.335,0,.3.188.425.328.35v.6a3.623,3.623,0,0,0-1.288,2.16c-.094.034-.175.147-.184.347A.475.475,0,0,0,14.977,61.8Zm8.9,2.774a2.545,2.545,0,0,1-2.75-2.88V58.1a3.224,3.224,0,0,0,1.638-3.131c-.118,1.607-1.032,2.5-2.126,2.5s-2.008-.891-2.125-2.5c0,1.545.719,2.835,1.679,3.146V61.7c0,1.879-.964,2.88-2.75,2.88-.861,0-1.576-1.08-1.576-2.087,0-2.182,1.442-2.372,1.442-2.372V49.579a4.558,4.558,0,0,0,6.7.106V60.118s1.442.19,1.442,2.372C25.449,63.5,24.734,64.579,23.872,64.579Zm3.86-11.332c-.02.331-.056.676-.105,1.029a.384.384,0,0,0-.151.331.511.511,0,0,0,.06.25c-.115.673-.266,1.353-.426,1.992-.1.021-.2.137-.207.354a.507.507,0,0,0,.054.235c-.05.188-.1.369-.15.542-.067-.385-.456-.364-.476.088,0,.323.212.438.354.334-.288.976-.522,1.637-.522,1.637a1.485,1.485,0,0,1,.779.432.562.562,0,0,0-.039.192c0,.351.248.458.388.3a3.1,3.1,0,0,1,.276,1.379,2.921,2.921,0,0,1-.367,1.431c-.131-.044-.284.068-.3.347v.012a.889.889,0,0,1-.709.223.537.537,0,0,0,.05-.236.5.5,0,0,0-.058-.226,4.611,4.611,0,0,0,.145-.629c.012.481.479.5.485-.01-.018-.422-.375-.473-.465-.132a4.706,4.706,0,0,0,.04-.6,6.018,6.018,0,0,0-.205-1.614.51.51,0,0,0,.058-.247c-.011-.255-.145-.372-.27-.352a3.8,3.8,0,0,0-.31-.573c-.024-.183-.117-.281-.215-.293a3.111,3.111,0,0,0-.365-.375.676.676,0,0,0,.017-.137.37.37,0,0,0-.161-.333V57.553a.448.448,0,0,0,0-.687V55.822a.374.374,0,0,0,.161-.354.37.37,0,0,0-.161-.333V54.092a.375.375,0,0,0,.161-.354.37.37,0,0,0-.161-.333V52.362a.375.375,0,0,0,.161-.354.371.371,0,0,0-.161-.333v-.9a4.534,4.534,0,0,1,.839-.339c.086.315.418.3.46-.083.041,0,.082-.006.121-.006a1.161,1.161,0,0,1,1.119.743c0,.018,0,.038-.006.059a.389.389,0,0,0,.145.339,4.6,4.6,0,0,1,.127,1.037c-.125-.023-.26.091-.272.354S27.608,53.255,27.732,53.247ZM53.868,45.23s-1.537,5.785-3.708,5.014c-.4-1.88-1.406-3.814-4.433-2.546V42.989c.008-.018.017-.034.024-.052a12.206,12.206,0,0,0,.984-3.41c.752.4,2.484-.1,2.484-4.2a12.267,12.267,0,0,0-1.707-6.018c-1.248-2.156-2.912-4.157-4.736-2.008a10.143,10.143,0,0,0-3.482,0c-1.335-1.956-3.1-.787-4.721,2.008a12.279,12.279,0,0,0-1.707,6.018c0,4.1,1.651,4.543,2.477,4.208a8.2,8.2,0,0,0,1.016,3.49V47.7a2.652,2.652,0,0,0-4.08,1.4c-.672,1.549-.9,4.454.288,9.5a4.773,4.773,0,0,0-1.21,3.487c0,2.087,1.307,3.917,2.8,3.917a3.042,3.042,0,0,0,1.876-.747A2.267,2.267,0,0,0,37.625,66a3.7,3.7,0,0,0,3.413-1.942A3.689,3.689,0,0,0,44.462,66a2.27,2.27,0,0,0,1.594-.747A3.043,3.043,0,0,0,47.931,66c1.49,0,2.8-1.83,2.8-3.917a4.91,4.91,0,0,0-1.21-3.539C56.43,55.208,53.868,45.23,53.868,45.23ZM44.089,27.947c.085.294.389.287.451-.047,1.007.233,2.511,2.365,3.258,4.73-.132-.049-.289.065-.3.347.006.42.353.49.456.183a8.612,8.612,0,0,1,.3,2.066c-.093.034-.174.148-.183.347a.371.371,0,0,0,.169.353c-.079,1.489-.446,2.046-.857,2.046a.835.835,0,0,1-.575-.321l-.253-.847c.132.037.284-.084.287-.369-.017-.4-.342-.467-.45-.178l-.15-.5a.6.6,0,0,0,.029-.184c-.009-.2-.092-.312-.187-.344l-.564-1.89c.1-.035.176-.153.178-.361-.014-.332-.236-.434-.375-.3l-.6-2.014c.137.183.4.1.4-.283-.02-.472-.465-.48-.486,0V30.4l-.175-.586a.463.463,0,0,0,.088-.295c-.011-.262-.152-.378-.28-.35l-.331-1.109A.612.612,0,0,1,44.089,27.947Zm-7.98,6.981-.153.511c-.089-.336-.446-.3-.465.133,0,.3.181.42.32.355l-.508,1.7a.854.854,0,0,1-.594.343c-.32,0-.612-.334-.764-1.181.138.065.312-.048.316-.356-.015-.346-.258-.442-.394-.277-.02-.256-.032-.538-.032-.856,0-.111,0-.221.008-.333.132.208.412.128.418-.262-.014-.326-.23-.431-.369-.305a9.493,9.493,0,0,1,.187-1.063c.1-.034.179-.153.182-.363a.566.566,0,0,0-.038-.189c.048-.165.1-.329.155-.492.1.3.449.25.455-.184-.011-.248-.138-.367-.259-.355a9.094,9.094,0,0,1,2.146-3.378.471.471,0,0,0-.085.275c.007.489.479.506.486,0-.013-.29-.184-.4-.32-.339a2.48,2.48,0,0,1,.453-.3c.11.233.382.2.43-.128a.727.727,0,0,1,.492.122l-.091.306c-.134-.054-.294.057-.307.344a.431.431,0,0,0,.111.313l-.857,2.873c-.135-.169-.381-.082-.4.275,0,.22.1.342.205.367l-.558,1.872c-.108.015-.209.132-.219.357A.544.544,0,0,0,36.109,34.928Zm.156,3.3c0-.019,2.716-9.16,2.716-9.16a8.118,8.118,0,0,1,4.144.018s2.7,9.106,2.7,9.142c0,1.4-.811,6.642-4.779,6.642a4.351,4.351,0,0,1-3.942-2.9A10.019,10.019,0,0,1,36.264,38.228Zm7.284,7.961a5.248,5.248,0,0,1-.157.512c-.082-.352-.45-.321-.47.118,0,.254.132.38.256.371a3.854,3.854,0,0,1-.348.566c0-.023,0-.049.006-.075-.02-.472-.465-.481-.486,0,0,.234.114.359.228.37a2.578,2.578,0,0,1-.351.31c-.11-.28-.43-.226-.449.184a.531.531,0,0,0,.007.068,1.847,1.847,0,0,1-.7.144.568.568,0,0,0,.04-.215c-.02-.472-.465-.481-.486,0a.618.618,0,0,0,.023.158,2.365,2.365,0,0,1-1.272-.876.6.6,0,0,0,.019-.15c-.013-.3-.2-.415-.338-.328a4.35,4.35,0,0,1-.236-.492c0-.015,0-.029,0-.046a.4.4,0,0,0-.138-.321,5.543,5.543,0,0,1-.222-1.033,4.818,4.818,0,0,0,.493.282.563.563,0,0,0-.047.209c.007.489.479.506.486,0l0-.014a4.537,4.537,0,0,0,.691.2c.08.227.3.252.4.062a4.928,4.928,0,0,0,.549.034c.081,0,.16-.006.239-.009a.2.2,0,0,0,.357-.03,4.524,4.524,0,0,0,.721-.144c.062.393.471.375.477-.1,0-.023-.006-.042-.008-.062a4.542,4.542,0,0,0,.86-.469c-.007.066-.018.13-.028.194a.369.369,0,0,0-.166.339A.518.518,0,0,0,43.549,46.189ZM36.39,49.306l.017.008v.643a.185.185,0,0,0-.092-.032C36.344,49.72,36.369,49.515,36.39,49.306Zm-1-.409c-.18,2.375-1.176,4.339-2.5,4.975C32.646,51.28,32.84,48.194,35.392,48.9Zm-.287,11.418c-.1.031-.178.145-.188.347a.549.549,0,0,0,.044.217,6.879,6.879,0,0,0-.125,1.337,5.109,5.109,0,0,0,.248,1.567.37.37,0,0,0-.168.34.549.549,0,0,0,.029.177,1.922,1.922,0,0,1-.8.187c-.02,0-.041,0-.061-.005.092-.039.171-.157.173-.361-.02-.472-.464-.48-.486,0a.4.4,0,0,0,.136.334,1.575,1.575,0,0,1-.832-.523.283.283,0,0,0-.117-.146,2.712,2.712,0,0,1-.528-1.574c0-.136.006-.264.016-.386a.454.454,0,0,0,.095-.3.567.567,0,0,0-.03-.163,2.942,2.942,0,0,1,.15-.51c.107.292.447.24.452-.192a.37.37,0,0,0-.162-.334,2,2,0,0,1,.292-.313c.117.262.436.2.441-.217a.469.469,0,0,0-.008-.058,1.3,1.3,0,0,1,.323-.1s-.039-.136-.1-.375c.142.113.354.009.358-.331-.018-.432-.392-.474-.471-.107-.042-.165-.087-.352-.135-.556a.592.592,0,0,0,.034-.2.379.379,0,0,0-.156-.332c-.075-.335-.152-.7-.227-1.092.141.148.379.053.383-.308-.018-.422-.376-.472-.466-.13-.038-.215-.076-.435-.112-.657,0-.024.006-.05.006-.078a.611.611,0,0,0-.009-.08,3.917,3.917,0,0,0,1.262-.93.6.6,0,0,0-.024.148c.007.489.479.506.485,0-.012-.261-.151-.378-.277-.353a6.014,6.014,0,0,0,.366-.487c.022.466.477.474.483-.025-.01-.236-.127-.357-.243-.357a9.343,9.343,0,0,0,1.031-2.772.178.178,0,0,0,.214.008v1.068c-.138-.095-.331.011-.344.324,0,.317.2.435.344.34v1.065c-.138-.094-.331.011-.344.325,0,.316.2.434.344.34v1.065c-.138-.094-.331.011-.344.325,0,.317.2.434.344.34v1.065c-.138-.095-.331.01-.344.324,0,.317.2.434.344.34v.818A3.806,3.806,0,0,0,35.106,60.315Zm9.42,4.171c-1.934,0-2.977-1.083-2.977-3.116V53.607c-.02-.286-.119-.7-.5-.7-.4,0-.5.389-.512.73V61.37c0,1.986-1.043,3.116-2.977,3.116-.932,0-1.705-1.169-1.705-2.258,0-2.361,1.561-2.568,1.561-2.568V45.1c.118,2.921,1.725,5.21,3.661,5.21,2.321,0,3.592-2.6,3.592-5.21V59.659s1.56.206,1.56,2.568C46.231,63.317,45.458,64.486,44.526,64.486Zm5.067-2.65c.008.111.013.225.013.346a2.572,2.572,0,0,1-.11.725c-.128-.034-.272.08-.285.35a.544.544,0,0,0,.045.217,2.414,2.414,0,0,1-.239.352c-.138-.139-.363-.045-.378.3,0,.021,0,.039.006.058a1.285,1.285,0,0,1-.744.26l-.028,0a.436.436,0,0,0,.109-.318c-.02-.472-.465-.48-.486,0a.466.466,0,0,0,.086.287,2.219,2.219,0,0,1-.748-.3,5.18,5.18,0,0,0,.189-.548c.141.153.381.057.386-.305-.011-.238-.128-.358-.245-.356a4.994,4.994,0,0,0,.052-.716c0-.1,0-.194-.007-.289.1-.023.2-.144.2-.368-.011-.251-.141-.369-.264-.354a4.852,4.852,0,0,0-.664-1.909c.143.111.352.006.357-.332-.02-.472-.465-.481-.486,0a.576.576,0,0,0,.028.174,3.253,3.253,0,0,0-.724-.756V49.357c.049-.025.1-.048.143-.07a.643.643,0,0,0-.019.127c.007.489.479.506.486,0a.445.445,0,0,0-.1-.287,2.148,2.148,0,0,1,2.05-.041.39.39,0,0,0-.148.331c.007.489.479.506.486,0a.1.1,0,0,0,0-.019,2.2,2.2,0,0,1,.308.533c-.108.014-.21.129-.219.354,0,.009,0,.018,0,.026-.1.125-.225.289-.361.485-.1.017-.191.122-.209.319-.1.165-.208.348-.311.543-.123-.018-.254.1-.265.356a.591.591,0,0,0,.022.153c-.064.147-.125.3-.181.458-.131-.2-.4-.116-.413.255,0,.234.112.359.227.37a5.6,5.6,0,0,0-.159,1.113.505.505,0,0,0-.068.248.5.5,0,0,0,.067.259,6.754,6.754,0,0,0,.133,1.12c-.1.025-.191.14-.2.351,0,.336.229.448.371.32a6.305,6.305,0,0,0,1,2c-.147.6-.251.965-.251.965s.02,0,.055.011a.593.593,0,0,0-.033.168c.007.483.465.5.485.018a2.107,2.107,0,0,1,.937,1.361c-.127-.028-.266.085-.279.351C49.217,61.872,49.452,61.98,49.592,61.836Zm-.848-4.725a4.651,4.651,0,0,1-.73-2.634,5.139,5.139,0,0,1,1.194-2.883c3.173,1.514,4.288-2.758,4.288-2.758C53.264,54.689,49.619,56.71,48.744,57.111ZM11.381,38.166c-.007.508-.479.491-.486,0C10.917,37.685,11.361,37.694,11.381,38.166Zm1.144,0c-.007.508-.479.491-.485,0C12.06,37.685,12.5,37.694,12.525,38.166Zm-.572.865c-.007.508-.479.492-.485,0C11.488,38.55,11.933,38.559,11.953,39.031Zm.658,0c.022-.484.465-.474.486,0C13.09,39.54,12.618,39.523,12.611,39.034Zm-.086.863c-.007.508-.479.492-.485,0C12.06,39.415,12.5,39.425,12.525,39.9Zm.658,0c.022-.483.465-.473.486,0C13.661,40.4,13.189,40.388,13.183,39.9Zm-.086.863c-.007.508-.479.492-.486,0C12.632,40.281,13.076,40.29,13.1,40.761Zm.086.867c.022-.483.465-.473.486,0C13.661,42.135,13.189,42.118,13.183,41.629Zm.572.865c.021-.483.465-.473.485,0C14.233,43,13.761,42.983,13.754,42.494Zm-.572.866c.022-.484.465-.474.486,0C13.661,43.865,13.189,43.849,13.183,43.359Zm-.572.866c.022-.484.465-.473.486,0C13.09,44.73,12.618,44.713,12.611,44.225Zm.572.865c.022-.483.465-.473.486,0C13.661,45.595,13.189,45.579,13.183,45.09Zm-.572.865c.022-.483.465-.473.486,0C13.09,46.461,12.618,46.444,12.611,45.954Zm-.086.863c-.007.508-.479.491-.485,0C12.06,46.337,12.5,46.346,12.525,46.818Zm.086.867c.022-.484.465-.474.486,0C13.09,48.191,12.618,48.174,12.611,47.685Zm-.086.863c-.007.508-.479.491-.485,0C12.06,48.067,12.5,48.075,12.525,48.548Zm-.572.865c-.007.508-.479.492-.485,0C11.488,48.933,11.933,48.941,11.953,49.413Zm.572.865c-.007.509-.479.492-.485,0C12.06,49.8,12.5,49.807,12.525,50.278Zm-.572.866c-.007.508-.479.491-.485,0C11.488,50.662,11.933,50.671,11.953,51.143Zm2.945,0c.022-.483.465-.473.486,0C15.377,51.652,14.9,51.634,14.9,51.145Zm-2.373.863c-.007.509-.479.493-.485,0C12.06,51.527,12.5,51.536,12.525,52.008Zm2.287,0c-.007.509-.479.493-.485,0C14.347,51.527,14.791,51.536,14.811,52.008Zm.658,0c.022-.483.465-.473.486,0C15.948,52.517,15.476,52.5,15.469,52.011Zm-2.373.863c-.007.508-.479.491-.486,0C12.632,52.393,13.076,52.4,13.1,52.874Zm1.144,0c-.007.508-.479.491-.485,0C13.776,52.393,14.219,52.4,14.24,52.874Zm.658,0c.022-.483.465-.473.486,0C15.377,53.381,14.9,53.365,14.9,52.875Zm-2.373.863c-.007.508-.479.492-.485,0C12.06,53.257,12.5,53.267,12.525,53.738Zm1.144,0c-.007.508-.479.492-.486,0C13.2,53.257,13.648,53.267,13.668,53.738Zm1.143,0c-.007.508-.479.492-.485,0C14.347,53.257,14.791,53.267,14.811,53.738Zm.658,0c.022-.484.465-.474.486,0C15.948,54.247,15.476,54.23,15.469,53.741ZM13.1,54.6c-.007.508-.479.492-.486,0C12.632,54.122,13.076,54.132,13.1,54.6Zm1.144,0c-.007.508-.479.492-.485,0C13.776,54.122,14.219,54.132,14.24,54.6Zm.658,0c.022-.484.465-.473.486,0C15.377,55.112,14.9,55.1,14.9,54.606Zm-.086.863c-.007.508-.479.492-.485,0C14.347,54.988,14.791,55,14.811,55.469Zm.658,0c.022-.483.465-.473.486,0C15.948,55.977,15.476,55.96,15.469,55.471Zm-.572.866c.022-.483.465-.473.486,0C15.377,56.842,14.9,56.826,14.9,56.336Zm-.086.863c-.007.508-.479.491-.485,0C14.347,56.718,14.791,56.727,14.811,57.2Zm.658,0c.022-.483.465-.473.486,0C15.948,57.707,15.476,57.69,15.469,57.2Zm-.086.863c-.007.508-.479.492-.486,0C14.919,57.583,15.363,57.592,15.383,58.064Zm.086.867c.022-.484.465-.473.486,0C15.948,59.438,15.476,59.421,15.469,58.931Zm-.658,3.458c-.007.508-.479.492-.485,0C14.347,61.909,14.791,61.918,14.811,62.39ZM25.675,51.143c-.007.508-.479.491-.485,0C25.21,50.662,25.654,50.671,25.675,51.143Zm1.144,0c-.007.508-.479.491-.486,0C26.354,50.662,26.8,50.671,26.818,51.143Zm-.572.865c-.007.509-.479.493-.485,0C25.782,51.527,26.226,51.536,26.246,52.008Zm1.144,0c-.007.509-.479.493-.486,0C26.926,51.527,27.369,51.536,27.39,52.008Zm-1.715.866c-.007.508-.479.491-.485,0C25.21,52.393,25.654,52.4,25.675,52.874Zm1.144,0c-.007.508-.479.491-.486,0C26.354,52.393,26.8,52.4,26.818,52.874Zm-.572.865c-.007.508-.479.492-.485,0C25.782,53.257,26.226,53.267,26.246,53.738Zm1.144,0c-.007.508-.479.492-.486,0C26.926,53.257,27.369,53.267,27.39,53.738Zm-1.715.865c-.007.508-.479.492-.485,0C25.21,54.122,25.654,54.132,25.675,54.6Zm1.144,0c-.007.508-.479.492-.486,0C26.354,54.122,26.8,54.132,26.818,54.6Zm-.572.866c-.007.508-.479.492-.485,0C25.782,54.988,26.226,55,26.246,55.469Zm1.144,0c-.007.508-.479.492-.486,0C26.926,54.988,27.369,55,27.39,55.469Zm-1.715.865c-.007.509-.479.492-.485,0C25.21,55.853,25.654,55.862,25.675,56.334Zm1.144,0c-.007.509-.479.492-.486,0C26.354,55.853,26.8,55.862,26.818,56.334Zm-.572.866c-.007.508-.479.491-.485,0C25.782,56.718,26.226,56.727,26.246,57.2Zm-.572.865c-.007.508-.479.492-.485,0C25.21,57.583,25.654,57.592,25.675,58.064Zm.572.865c-.007.508-.479.492-.485,0C25.782,58.448,26.226,58.458,26.246,58.929Zm.086,2.6c.022-.483.465-.473.486,0C26.812,62.034,26.339,62.016,26.332,61.527Zm.572.866c.022-.484.465-.474.486,0C27.383,62.9,26.911,62.882,26.9,62.392Zm17.734-33.74c.021-.484.465-.474.486,0C45.116,29.158,44.645,29.141,44.638,28.653Zm.572.864c.021-.483.465-.473.485,0C45.689,30.023,45.216,30.006,45.21,29.517Zm.572.866c.022-.483.465-.474.486,0C46.261,30.888,45.788,30.872,45.782,30.382Zm-.572.865c.021-.484.465-.473.485,0C45.689,31.754,45.216,31.736,45.21,31.247Zm1.144,0c.021-.484.466-.473.486,0C46.832,31.754,46.36,31.736,46.353,31.247Zm-.572.865c.022-.483.465-.473.486,0C46.261,32.618,45.788,32.6,45.782,32.112Zm1.143,0c.022-.483.465-.473.486,0C47.4,32.618,46.931,32.6,46.925,32.112Zm-.572.866c.021-.483.466-.473.486,0C46.832,33.484,46.36,33.467,46.353,32.977Zm-.572.865c.022-.483.465-.473.486,0C46.261,34.348,45.788,34.332,45.782,33.842Zm1.143,0c.022-.483.465-.473.486,0C47.4,34.348,46.931,34.332,46.925,33.842Zm-.572.866c.021-.483.466-.474.486,0C46.832,35.214,46.36,35.2,46.353,34.708Zm1.143,0c.021-.483.466-.474.486,0C47.975,35.214,47.5,35.2,47.5,34.708Zm-.572.865c.022-.484.465-.473.486,0C47.4,36.08,46.931,36.062,46.925,35.573Zm.572.866c.021-.483.466-.473.486,0C47.975,36.944,47.5,36.928,47.5,36.438Zm-.572.865c.022-.483.465-.473.486,0C47.4,37.809,46.931,37.792,46.925,37.3ZM36.062,29.517c.021-.483.465-.473.485,0C36.541,30.023,36.069,30.006,36.062,29.517Zm1.143,0c.021-.483.466-.473.486,0C37.684,30.023,37.212,30.006,37.205,29.517Zm-1.229.863c-.007.508-.479.492-.486,0C35.512,29.9,35.955,29.908,35.976,30.38Zm.658,0c.021-.483.465-.474.486,0C37.113,30.888,36.64,30.872,36.634,30.382Zm-1.23.862c-.007.509-.479.492-.486,0C34.939,30.763,35.384,30.774,35.4,31.244Zm.658,0c.021-.484.465-.473.485,0C36.541,31.754,36.069,31.736,36.062,31.247Zm-.086.864c-.007.507-.479.491-.486,0C35.512,31.629,35.955,31.638,35.976,32.111Zm-.572.865c-.007.508-.479.491-.486,0C34.939,32.495,35.384,32.5,35.4,32.976Zm.658,0c.021-.483.465-.473.485,0C36.541,33.484,36.069,33.467,36.062,32.977Zm-1.23.863c-.007.508-.479.491-.485,0C34.368,33.36,34.812,33.368,34.832,33.841Zm1.144,0c-.007.508-.479.491-.486,0C35.512,33.36,35.955,33.368,35.976,33.841Zm-.572.865c-.007.508-.479.492-.486,0C34.939,34.225,35.384,34.234,35.4,34.705Zm-.572.865c-.007.509-.479.492-.485,0C34.368,35.089,34.812,35.1,34.832,35.57Zm.572.866c-.007.508-.479.492-.486,0C34.939,35.955,35.384,35.964,35.4,36.436Zm-.572.865c-.007.509-.479.492-.485,0C34.368,36.82,34.812,36.829,34.832,37.3Zm5.146,9.517c-.007.508-.479.491-.485,0C39.513,46.337,39.958,46.346,39.978,46.818Zm1.144,0c-.007.508-.479.491-.486,0C40.657,46.337,41.1,46.346,41.121,46.818Zm1.144,0c-.007.508-.479.491-.486,0C41.8,46.337,42.244,46.346,42.265,46.818Zm-1.716.866c-.007.508-.479.492-.486,0C40.085,47.2,40.529,47.211,40.549,47.683Zm1.144,0c-.007.508-.479.492-.486,0C41.229,47.2,41.673,47.211,41.693,47.683Zm-5.718,5.19c-.007.508-.479.491-.486,0C35.512,52.393,35.955,52.4,35.976,52.874Zm0,1.73c-.007.508-.479.492-.486,0C35.512,54.122,35.955,54.132,35.976,54.6Zm-1.715.866c-.007.508-.479.492-.486,0C33.8,54.988,34.24,55,34.26,55.469Zm1.143,0c-.007.508-.479.492-.486,0C34.939,54.988,35.384,55,35.4,55.469Zm-.572.865c-.007.509-.479.492-.485,0C34.368,55.853,34.812,55.862,34.832,56.334Zm1.144,0c-.007.509-.479.492-.486,0C35.512,55.853,35.955,55.862,35.976,56.334ZM34.26,57.2c-.007.508-.479.491-.486,0C33.8,56.718,34.24,56.727,34.26,57.2Zm1.143,0c-.007.508-.479.491-.486,0C34.939,56.718,35.384,56.727,35.4,57.2Zm-.572.865c-.007.508-.479.492-.485,0C34.368,57.583,34.812,57.592,34.832,58.064Zm1.144,0c-.007.508-.479.492-.486,0C35.512,57.583,35.955,57.592,35.976,58.064Zm-.572.865c-.007.508-.479.492-.486,0C34.939,58.448,35.384,58.458,35.4,58.929Zm-.572.866c-.007.508-.479.492-.485,0C34.368,59.314,34.812,59.323,34.832,59.795Zm-.572.865c-.007.509-.479.492-.486,0C33.8,60.179,34.24,60.188,34.26,60.659Zm-.572.866c-.007.508-.479.491-.485,0C33.224,61.044,33.668,61.053,33.689,61.525Zm1.143,0c-.007.508-.479.491-.485,0C34.368,61.044,34.812,61.053,34.832,61.525Zm-1.715.865c-.007.508-.479.492-.486,0C32.653,61.909,33.1,61.918,33.117,62.39Zm1.144,0c-.007.508-.479.492-.486,0C33.8,61.909,34.24,61.918,34.26,62.39Zm-.572.866c-.007.508-.479.492-.485,0C33.224,62.774,33.668,62.784,33.689,63.255Zm1.143,0c-.007.508-.479.492-.485,0C34.368,62.774,34.812,62.784,34.832,63.255Zm12.093-13.84c.022-.483.465-.474.486,0C47.4,49.921,46.931,49.9,46.925,49.415Zm-.086.862c-.007.509-.478.492-.486,0C46.374,49.8,46.819,49.807,46.839,50.278Zm.657,0c.021-.483.466-.473.486,0C47.975,50.787,47.5,50.769,47.5,50.28Zm-1.229.863c-.007.508-.479.491-.486,0C45.8,50.662,46.246,50.671,46.267,51.143Zm.657,0c.022-.483.465-.473.486,0C47.4,51.652,46.931,51.634,46.925,51.145Zm-.086.863c-.007.509-.478.493-.486,0C46.374,51.527,46.819,51.536,46.839,52.008Zm-.572.866c-.007.508-.479.491-.486,0C45.8,52.393,46.246,52.4,46.267,52.874Zm.572.865c-.007.508-.478.492-.486,0C46.374,53.257,46.819,53.267,46.839,53.738Zm-.572.865c-.007.508-.479.492-.486,0C45.8,54.122,46.246,54.132,46.267,54.6Zm.572.866c-.007.508-.478.492-.486,0C46.374,54.988,46.819,55,46.839,55.469Zm-.572.865c-.007.509-.479.492-.486,0C45.8,55.853,46.246,55.862,46.267,56.334Zm.572.866c-.007.508-.478.491-.486,0C46.374,56.718,46.819,56.727,46.839,57.2Zm-.572.865c-.007.508-.479.492-.486,0C45.8,57.583,46.246,57.592,46.267,58.064Zm1.143,0c-.007.508-.479.492-.486,0C46.946,57.583,47.39,57.592,47.41,58.064Zm.572.865c-.007.508-.479.492-.486,0C47.517,58.448,47.962,58.458,47.982,58.929Zm-.572.866c-.007.508-.479.492-.486,0C46.946,59.314,47.39,59.323,47.41,59.795Zm.572.865c-.007.509-.479.492-.486,0C47.517,60.179,47.962,60.188,47.982,60.659Zm1.144,0c-.007.509-.479.492-.486,0C48.661,60.179,49.106,60.188,49.126,60.659Zm-.573.866c-.007.508-.479.491-.486,0C48.09,61.044,48.534,61.053,48.553,61.525Zm-.572.865c-.007.508-.479.492-.486,0C47.517,61.909,47.962,61.918,47.982,62.39Zm1.144,0c-.007.508-.479.492-.486,0C48.661,61.909,49.106,61.918,49.126,62.39Zm-.573.866c-.007.508-.479.492-.486,0C48.09,62.774,48.534,62.784,48.553,63.255Z" transform="translate(0 0)" fill="#11aac4"/>
  </g>
</svg>
