<svg xmlns="http://www.w3.org/2000/svg" xmlns:xlink="http://www.w3.org/1999/xlink" width="88" height="88" viewBox="0 0 88 88">
  <defs>
    <linearGradient id="linear-gradient" x1="0.552" y1="0.607" x2="0.801" y2="-1.951" gradientUnits="objectBoundingBox">
      <stop offset="0" stop-color="#fff"/>
      <stop offset="1" stop-color="gray"/>
      <stop offset="1"/>
    </linearGradient>
    <filter id="Ellipse_480" x="0" y="0" width="88" height="88" filterUnits="userSpaceOnUse">
      <feOffset dy="3" input="SourceAlpha"/>
      <feGaussianBlur stdDeviation="3" result="blur"/>
      <feFlood flood-opacity="0.231"/>
      <feComposite operator="in" in2="blur"/>
      <feComposite in="SourceGraphic"/>
    </filter>
  </defs>
  <g id="Component_59_1" data-name="Component 59 – 1" transform="translate(9 6)">
    <g transform="matrix(1, 0, 0, 1, -9, -6)" filter="url(#Ellipse_480)">
      <circle id="Ellipse_480-2" data-name="Ellipse 480" cx="35" cy="35" r="35" transform="translate(9 6)" fill="url(#linear-gradient)"/>
    </g>
    <g id="Group_7014" data-name="Group 7014" transform="translate(14 15.637)">
      <g id="Group_7012" data-name="Group 7012" transform="translate(0 0)">
        <path id="Path_52973" data-name="Path 52973" d="M16,19a8,8,0,0,0-8,8V42a8,8,0,0,0,8,8H42a8,8,0,0,0,8-8V27a8,8,0,0,0-8-8Zm0,2H42a5.965,5.965,0,0,1,6,6V42a5.965,5.965,0,0,1-6,6H16a5.965,5.965,0,0,1-6-6V27a5.965,5.965,0,0,1,6-6Zm8.922,6A1,1,0,0,0,24,28V41a1,1,0,0,0,1.516.875l11-6.5a1,1,0,0,0,0-1.735l-11-6.5A1,1,0,0,0,24.922,27ZM26,29.766,34.016,34.5,26,39.25Z" transform="translate(-8 -19)" fill="#11aac4"/>
      </g>
      <g id="Group_7013" data-name="Group 7013" transform="translate(22.908 25.527)">
        <path id="Path_52974" data-name="Path 52974" d="M66.534,78.207a1.861,1.861,0,0,0-.874.22,1.856,1.856,0,0,0-1.671-1.055h-.031a1.845,1.845,0,0,0-.978.281,1.851,1.851,0,0,0-1.567-.867h-.031a1.82,1.82,0,0,0-.692.135V71.9a1.847,1.847,0,0,0-2.67-1.655.628.628,0,0,1-.191.11A1.845,1.845,0,0,0,57,71.9v1.266a1.5,1.5,0,0,1,.038.278,1.144,1.144,0,0,1-.038.349v4.767a2.1,2.1,0,0,0-.967-.234,2.123,2.123,0,0,0-2.121,2.121v2.794a.641.641,0,0,1,.027.155.5.5,0,0,1-.027.182v.13a.6.6,0,0,1,.012.1.5.5,0,0,1-.011.126,7.237,7.237,0,0,0,14.473-.076v-3.8A1.849,1.849,0,0,0,66.534,78.207Zm.693,5.643a6.082,6.082,0,0,1-12.164,0V80.444a.969.969,0,0,1,.966-.966.981.981,0,0,1,.974.966v.974h1.155V71.9a.693.693,0,1,1,1.386,0v7.757H60.7V78.631a.7.7,0,0,1,.693-.693h.031a.7.7,0,0,1,.693.693v1.39H63.27v-.8a.7.7,0,0,1,.692-.693h.031a.7.7,0,0,1,.693.693V80.9h1.155v-.851a.693.693,0,0,1,1.386,0Z" transform="translate(-53.862 -70.054)" fill="#788198"/>
        <path id="Path_52975" data-name="Path 52975" d="M61.146,70.3l-.029.017a.615.615,0,0,1-.347.188.584.584,0,0,1-.083.067.624.624,0,0,1-.075.071.639.639,0,0,1-.062.065.6.6,0,0,1-.135.145.594.594,0,0,1-.179.24l.038.024a1.848,1.848,0,0,0-.239.909v.743l-.047.03a.638.638,0,0,1,.027.158c0,.008,0,.017,0,.025v0a.488.488,0,0,1-.021.164,1.488,1.488,0,0,1,.08.418,1.152,1.152,0,0,1-.053.4.634.634,0,0,1,.009.082.494.494,0,0,1-.006.1l1.166-.752V72.021a.705.705,0,0,1,.293-.566l.693-.493Z" transform="translate(-56.902 -70.177)" fill="#788198"/>
        <rect id="Rectangle_1672" data-name="Rectangle 1672" width="0.058" height="1.155" transform="translate(13.885 9.039)" fill="#788198"/>
        <rect id="Rectangle_1673" data-name="Rectangle 1673" width="0.058" height="1.155" transform="translate(11.398 9.039)" fill="#788198"/>
        <rect id="Rectangle_1674" data-name="Rectangle 1674" width="0.208" height="1.155" transform="translate(3.503 9.039)" fill="#788198"/>
        <path id="Path_52976" data-name="Path 52976" d="M54.092,88.9a.591.591,0,0,1-.147.2.513.513,0,0,1-.058.2l0,.018a.5.5,0,0,1-.044.228v.005a.483.483,0,0,1-.024.174.615.615,0,0,1,.024.146.5.5,0,0,1-.029.189h.677V88.9Z" transform="translate(-53.816 -79.477)" fill="#788198"/>
        <path id="Path_52977" data-name="Path 52977" d="M68.378,83.989c0-.014,0-.026,0-.04a.5.5,0,0,1,.019-.157c0-.015,0-.031,0-.046a.488.488,0,0,1,.005-.09c0-.019,0-.037-.005-.056a.485.485,0,0,1,0-.072.653.653,0,0,1-.017-.117.479.479,0,0,1,.008-.114.622.622,0,0,1-.008-.076.5.5,0,0,1,.011-.126h-.027V80.051a1.787,1.787,0,0,0-.085-.554A1.838,1.838,0,0,0,66.51,78.2a1.872,1.872,0,0,0-.874.219,1.849,1.849,0,0,0-1.667-1.051h-.03a1.845,1.845,0,0,0-.978.281,1.851,1.851,0,0,0-1.567-.867h-.031a1.82,1.82,0,0,0-.693.135V71.9a1.851,1.851,0,0,0-1.848-1.848,1.831,1.831,0,0,0-.815.188.623.623,0,0,1-.205.118l-.053.037a1.85,1.85,0,0,0-.774,1.505v1.266a1.5,1.5,0,0,1,.039.278,1.144,1.144,0,0,1-.039.349v4.767a2.12,2.12,0,0,0-3.088,1.887V83.1h-.015a.682.682,0,0,1,.012.1.328.328,0,0,1,0,.038.625.625,0,0,1,.03.165.5.5,0,0,1-.047.233.653.653,0,0,1,.033.175.509.509,0,0,1-.03.192.606.606,0,0,1,.016.113.465.465,0,0,1-.014.138h1.175v-3.8a.966.966,0,0,1,1.8-.485.977.977,0,0,1,.131.485h1.155V71.9a.7.7,0,0,1,.293-.566.722.722,0,0,1,.4-.127.7.7,0,0,1,.693.693v6.733h1.155a.7.7,0,0,1,.693-.693H61.4a.7.7,0,0,1,.693.693v.589H63.25a.7.7,0,0,1,.692-.693h.031a.7.7,0,0,1,.693.693v.835h1.155a.65.65,0,0,1,.031-.208.694.694,0,0,1,1.324,0,.724.724,0,0,1,.031.208v4.2h1.154v-.01a.484.484,0,0,1,.016-.145v-.008c0-.007,0-.014,0-.021A.489.489,0,0,1,68.378,83.989Z" transform="translate(-53.842 -70.054)" fill="#788198"/>
      </g>
    </g>
  </g>
</svg>
