<svg xmlns="http://www.w3.org/2000/svg" xmlns:xlink="http://www.w3.org/1999/xlink" width="605.002" height="539.399" viewBox="0 0 605.002 539.399">
  <defs>
    <linearGradient id="linear-gradient" x1="15.206" y1="25.322" x2="14.252" y2="25.726" gradientUnits="objectBoundingBox">
      <stop offset="0" stop-color="#ff8849"/>
      <stop offset="1" stop-color="#ff7e43"/>
    </linearGradient>
    <linearGradient id="linear-gradient-2" x1="0.593" y1="0.759" x2="0.038" y2="-1.048" gradientUnits="objectBoundingBox">
      <stop offset="0" stop-color="#ff825b"/>
      <stop offset="1" stop-color="#e56e4b"/>
    </linearGradient>
    <linearGradient id="linear-gradient-3" x1="0" y1="0.5" x2="1" y2="0.5" xlink:href="#linear-gradient-2"/>
    <linearGradient id="linear-gradient-4" y1="0.5" x2="1" y2="0.5" gradientUnits="objectBoundingBox">
      <stop offset="0" stop-color="#ffc76f"/>
      <stop offset="1" stop-color="#f8b666"/>
    </linearGradient>
    <linearGradient id="linear-gradient-7" x1="0.107" y1="0.091" x2="0.997" y2="0.877" xlink:href="#linear-gradient-4"/>
    <linearGradient id="linear-gradient-9" x1="0.676" y1="0.44" x2="0.275" y2="0.735" xlink:href="#linear-gradient-4"/>
    <linearGradient id="linear-gradient-10" x1="0.307" y1="0.5" x2="1.307" y2="0.5" xlink:href="#linear-gradient-4"/>
    <linearGradient id="linear-gradient-11" x1="0.499" y1="0.545" x2="0.464" y2="2.781" xlink:href="#linear-gradient-4"/>
  </defs>
  <g id="Group_3512" data-name="Group 3512" transform="translate(-221.035 -373.747)">
    <path id="Path_22915" data-name="Path 22915" d="M820.58,643.439c0,145.937-133,264.25-297.045,264.25S226.493,789.375,226.493,643.439,359.49,379.2,523.535,379.2,820.58,497.505,820.58,643.439Z" transform="translate(0 0)" fill="#fff" opacity="0.1"/>
    <g id="Group_3511" data-name="Group 3511" transform="translate(293.344 438.944)">
      <path id="Path_22916" data-name="Path 22916" d="M314.553,455.489c89.685-78.606,234.008-77.644,322.369,2.133s87.282,208.172-2.4,286.765-234.008,77.641-322.365-2.137S224.868,534.082,314.553,455.489Z" transform="translate(-246.58 -397.152)" fill="url(#linear-gradient)"/>
      <path id="Path_22917" data-name="Path 22917" d="M251.671,490.721c-4.027-11.249,23.267-13.342,34.446-14.264,15.752-1.3,36.293,2.233,49.629,9.951,4.423,2.566,8.866,5.178,13.209,7.744,4.543,2.679,7.768,6.786,11.582,10.2,8.636,7.718,16.411,15.645,27.33,20.88,10.906,5.218,24.681,7.382,36.7,9.2,5.711.865,11.918,1.255,17.785,1.771,6.613.573,13.612,1.87,20.281,1.844,12.8-.043,25.566-.1,38.3,1.171,11.469,1.132,24.082.892,35.151,4.13,10.56,3.072,19.08,9.449,26.086,17.21a75.479,75.479,0,0,1,9.791,14.1c2.816,4.969,7.215,10.284,7.122,16.231,0,0-96.032,57.113-214.059,7.9C365.023,598.791,278.116,564.638,251.671,490.721Z" transform="translate(-235.663 -213.146)" fill="url(#linear-gradient-2)"/>
      <g id="Group_3509" data-name="Group 3509" transform="translate(7.905)">
        <path id="Path_22918" data-name="Path 22918" d="M448.194,398.017c-97.536,7.954-175.038,69.451-199.239,148.879,55.692-30.259,127.293,4.187,132.814,9.225,7.039,6.393,46.171,35.564,109.887,41.971s83.179-55.243,137.563-84.244a151.857,151.857,0,0,1,37.92-14.154C624.244,432.7,540.129,390.509,448.194,398.017Z" transform="translate(-248.955 -397.155)" fill="url(#linear-gradient-3)"/>
      </g>
      <g id="Group_3510" data-name="Group 3510" transform="translate(0.01 3.584)">
        <path id="Path_22919" data-name="Path 22919" d="M491.632,500.4c-7.924-4.636-16.571-7.971-24.744-12.114-3.774-1.927-7.185-5-11.109-6.436-4.07-1.508-8.047-1.115-12.317-.766-12.181.989-24.531,1.2-36.619,2.722-3.827.473-9.642,1.757-12.74,3.977-3.122,2.233-3.022,5.148-7.4,6.28-4.293,1.1-9.625.835-14.081,1.2a117.931,117.931,0,0,1-19.959-.463,65.32,65.32,0,0,1-19.785-4.48c-2.642-1.088-16.774-6.866-18.341-3.461-.9,1.967,5.295,6.783,6.786,8.067a71.154,71.154,0,0,0,14.77,9.685c7.941,3.964,17.346,5.235,26.219,6.184,15.6,1.674,31.208,2.972,46.9,4.649,12.5,1.338,25.18,2.26,36.872,6.8,5.648,2.19,11.648,3.168,17.273,5.751,6.433,2.972,13.276,11.013,18.97,16.4a209.125,209.125,0,0,0,28.595-33.161c-3.4-2.05-7.352-4.506-9.289-5.721C498.454,503.514,494.88,502.3,491.632,500.4Z" transform="translate(-88.583 -206.089)" opacity="0.3" fill="url(#linear-gradient-4)"/>
        <path id="Path_22920" data-name="Path 22920" d="M461.492,467.7c-10.181,2.373-19.7,7.968-29.786,9.252-18.371,2.316-36.143-1.338-54.341-2.819-7.651-.626-13.3-.669-20.751-2.636-6.872-1.817-19.746-8.5-26.392-6.673,2.519,1.2,5.012,2.736,7.335,4.034,11.682,6.533,23.26,12.3,37.9,12.158a80.8,80.8,0,0,1,36.26,8.067c6.127,3.042,8.393,7.269,13.415,11.529,4.406,3.711,11.452,5.834,16.937,8.19,6.912,2.975,14.284,5.458,21.29,8.879,4.613,2.26,14.171,11.542,20.957,15.043a185.187,185.187,0,0,0,21.965-66.322C492.906,464.143,470.844,465.511,461.492,467.7Z" transform="translate(-51.863 -243.917)" opacity="0.3" fill="url(#linear-gradient-4)"/>
        <path id="Path_22921" data-name="Path 22921" d="M250.78,516.264c7.808.333,17.589-2.526,24.911-2.247,8.676.32,17.319.223,26,1.185,14.108,1.578,28.948,9.2,40.8,15.885,20.225,11.415,37.391,28.974,61.167,35.018a76.529,76.529,0,0,0,21.682,1.98c4.074-.153,12.058.935,14.311-3.295,3.381-6.363-4.376-17.935-8.184-22.455-3.694-4.37-6.9-9.059-11.469-12.577A101.525,101.525,0,0,0,406,521.079c-7.358-3.91-18.458-8.32-27.071-7.328-.379.043-1.508-.167-2.04-.153,5.012,4.606,13.2,5.931,16.231,12.38,2.163,4.633.879,7.032-5.531,7.382-6.693.349-16.3-3.182-22.594-5.5a88.721,88.721,0,0,1-17.542-8.723c-6.07-3.994-12.85-7.189-19.127-10.8-8.157-4.732-16.174-10.007-24.8-14.181-16.647-8.067-29.427-19.4-42.41-31.544-2.919-2.722-5.861-5.415-8.716-8.151a41.8,41.8,0,0,1-3.688-4.676,181.076,181.076,0,0,0-1.191,46.144A183.035,183.035,0,0,0,250.78,516.264Z" transform="translate(-246.583 -278.212)" opacity="0.3" fill="url(#linear-gradient-4)"/>
        <path id="Path_22922" data-name="Path 22922" d="M285.318,482.977a141.827,141.827,0,0,0,29.028,9.212c21.12,4.466,48.324-.11,67,11.266,7.858,4.8,13.3,12.168,21.7,16.511,8.22,4.257,16.913,8.527,26.3,10.34,1.075.223,5.188,1.341,5.917.266.563-.839-1.012-3.348-1.388-4.1a71.77,71.77,0,0,0-3.954-6.966c-3.4-5.4-7.422-10.8-10-16.427-2.586-5.681-2.769-12.337-5.325-17.905-3.012-6.56-16.827-14.224-24.155-15.8-11.249-2.416-24.491,2.217-34.972,4.759-6.48,1.561-15.709,2.789-22.282,1.687-7.422-1.258-15.063-6.253-21.879-9.142-6.427-2.736-13.173-5.4-18.993-9.086-5.994-3.811-10.347-9.252-15.958-13.329-6.51-4.719-15.532-2.945-13.792,5.358,1.255,6.044,4.207,11.572,7.2,16.973C273.676,473.6,276.958,479.183,285.318,482.977Z" transform="translate(-209.879 -297.057)" opacity="0.3" fill="url(#linear-gradient-7)"/>
        <path id="Path_22923" data-name="Path 22923" d="M282.786,449.449c13.376-1.1,25.56-2.43,38.652.922,14.334,3.658,27.051,8.107,39.681,14.876,11.871,6.35,22.1,14.574,34.323,20.8,14.277,7.285,27.919,14.78,44.011,17.725,15.988,2.932,34.965,6.56,51.023,5.947,31.414-1.175,63.956-9.185,94.974-4.217,35,5.6,76.716,14.544,102.808,37.278a180.842,180.842,0,0,0-.948-20.222,183.963,183.963,0,0,0-14.088-53.888c-10.7-3.881-34.339,16.3-48.137,19.077-7.415,1.481-20.444,2.975-27.224-.053-1.867-.852-5.238-3.058-5.225-5.205.023-4.427,3.877-2.193,6.426-5.139,6.087-7.032-17.306-22.2-24.275-24.814-15.146-5.681-32.808-12.883-49.242-14.64-11.925-1.271-27.317,1.368-38.636,4.353-13.675,3.614-32.642,4.982-46.583,3.684-10.8-.992-17.935-1.967-26.854-7.172a86.87,86.87,0,0,0-17.509-7.468c-13.808-4.44-31.57-6.656-46.364-4.147-15.12,2.569-30.079,4.816-44.893-1.032-9.931-3.921-19.07-4.047-29.47-3.335a198.928,198.928,0,0,0-22.541,34.612C257.855,458.382,274.559,450.118,282.786,449.449Z" transform="translate(-232.358 -341.869)" opacity="0.3" fill="url(#linear-gradient-4)"/>
        <path id="Path_22924" data-name="Path 22924" d="M303.119,451.478c15.283,7.591,31.9,8.68,48.623,13.036,13.682,3.571,34.173,4.939,47.7-.463,4.463-1.784,7.289-3.934,12.381-4.519,7.328-.839,14.1-.156,21.426.446,8.573.7,16.551,3.4,24.861,5.248,9.688,2.15,19.469,3.278,28.931,5.861,5.844,1.6,16.324,3.212,22.571,1.132,4.59-1.521,2.955-6.03.892-9.269A74.256,74.256,0,0,0,496.94,447.6c-5.821-4.842-17.133-6.267-19.975-13.705-2.07-5.445.2-8.7,6.347-8.307a121.509,121.509,0,0,1,21.05,3.295c8.487,2.11,17.047,4.147,25.387,6.45,5.332,1.478,15.03,1.98,22.96,3.684a241.4,241.4,0,0,0-99.669-40.782c-4.127,2.08-8.67,6.154-11.369,7.382-4.966,2.263-10.377,3.994-11.515,9.3a12.327,12.327,0,0,0,5.105,13.189c2.5,1.857,10.45,5.764,9.745,9.465-1.428,7.382-31.411,1.032-36.819.193-15.486-2.37-31.347-5.541-45.428-11.961-5.225-2.386-11.675-5.468-15.675-9.279-2.117-2.01-7.578-7.232-10.231-10.973a237.439,237.439,0,0,0-62.774,29.437C277.865,440.788,296,447.947,303.119,451.478Z" transform="translate(-182.572 -398.232)" opacity="0.3" fill="url(#linear-gradient-9)"/>
        <path id="Path_22925" data-name="Path 22925" d="M341.566,515.522c-.007-.013-.023-.013-.037-.03-1.624.519-3.3.965-4.942,1.438C339.709,516.078,341.566,515.522,341.566,515.522Z" transform="translate(-37.045 -125.24)" fill="#ffc76f"/>
        <path id="Path_22926" data-name="Path 22926" d="M341.487,509.848c-.389,3.238,2.473,7.788-.988,10.23-3.089,2.19-7.325-1.285-10.377-2.623-2.842-1.245-9.768-3.658-12.374-.769-1.378,1.508-.25,9.086.393,11.192,2.15,7.049,3.122,21.859,11.236,21.549,19.6-.739,42.3-6.613,52.214-9.335,1.651-.476,3.7-1.241,5.322-1.761-7.322-8.457-16.947-16.161-25.7-23.35C357.665,512.068,342.8,499.158,341.487,509.848Z" transform="translate(-82.428 -148.081)" opacity="0.3" fill="url(#linear-gradient-10)"/>
        <path id="Path_22927" data-name="Path 22927" d="M364.848,513.611c-.22,3.418,2.2,6.14,2.033,9.532-4.559.616-8.1,1.075-12.207-.616-6.533-2.692-13.455-5.3-19.676-8.636-10.094-5.388-19.08-12.158-28.485-18.577-4.666-3.182-9.382-4.02-15.186-3.771-5,.21-8.976,2.276-13.965,2.543-6.553.349-6.44-4.02-11.628-5.624-5.977-1.814-4.187,3.418-2.18,6.32,4.949,7.119,12.567,7.372,20.757,10.008a23.655,23.655,0,0,1,6.936,3.867,63.643,63.643,0,0,0,5.837,3.5,93.389,93.389,0,0,0,9.758,4.939c2.4,1.088,4.566,2.263,6.9,3.461,2.919,1.481,5.664,3.155,8.537,4.789,6.566,3.711,14.554,6.407,22.045,8.443,9.6,2.609,18.434,3.448,28.225,4.759,5.7.769,16.86,3.544,21.426-.825.792-5.917-9.172-12.031-13.306-15.755C376.742,518.44,370.812,513.8,364.848,513.611Z" transform="translate(-211.509 -189.04)" opacity="0.3" fill="url(#linear-gradient-11)"/>
      </g>
      <path id="Path_22928" data-name="Path 22928" d="M675.1,439.6c1.4,6.533-5.225-18.381-4.536-11.638C682.062,539.5,589.741,638.184,464.379,648.4c-95.852,7.818-175.51-6.809-216.509-78.816C269.689,670.8,374.727,742.71,492.518,733.108,617.89,722.877,710.2,624.186,698.71,512.656A185.675,185.675,0,0,0,675.1,439.6Z" transform="translate(-243.576 -328.147)" fill="#230753" opacity="0.15" style="mix-blend-mode: multiply;isolation: isolate"/>
    </g>
  </g>
</svg>
