<svg xmlns="http://www.w3.org/2000/svg" width="81.007" height="78.935" viewBox="0 0 81.007 78.935">
  <g id="Group_3524" data-name="Group 3524" transform="translate(-750.175 -544.55)">
    <g id="Path_22957" data-name="Path 22957" transform="translate(0 0)" fill="none" stroke-miterlimit="10">
      <path d="M814.419,578.239s15.366,12.466,12.372,20.046a6.173,6.173,0,0,1-4.117,3.349c-.159.052-.324.1-.491.152-.251.073-.508.138-.767.2-.165.038-.336.074-.5.108-.246.05-.5.1-.761.136-.092.014-.184.028-.28.045a35.314,35.314,0,0,1-6.753.219c-.2-.008-.405-.021-.6-.035-.138-.008-.274-.018-.412-.029-.209-.011-.419-.027-.628-.043-.15-.013-.306-.026-.456-.042l0,0a73.589,73.589,0,0,1-8.664-1.3l-.2.4c-.049.093-.1.188-.151.286-1.765,3.392-9.752,18.068-15.714,17.742-.075,0-.153-.008-.225-.015a3.724,3.724,0,0,1-1.528-.55c-.082-.052-.163-.1-.24-.155a4.79,4.79,0,0,1-.407-.316c-.067-.057-.135-.116-.2-.179s-.149-.138-.222-.211c-.056-.057-.114-.118-.165-.175-.067-.069-.128-.139-.194-.211-.125-.146-.25-.3-.373-.454-4.07-5.3-5.8-18.091-5.957-19.3,0-.064-.009-.095-.009-.095s-20.407-1.632-22.446-8.654a3.268,3.268,0,0,1-.075-.319C752.9,581.869,773,573.03,773,573.03s-4.206-14.425-.239-21.169a7.047,7.047,0,0,1,.9-1.224c.068-.083.144-.161.22-.239a.683.683,0,0,1,.058-.053,2.472,2.472,0,0,1,.221-.208c.054-.051.111-.1.171-.149a1.2,1.2,0,0,1,.145-.112,1.805,1.805,0,0,1,.2-.147,5.511,5.511,0,0,1,.753-.468,6.2,6.2,0,0,1,1.579-.565c.1-.016.187-.036.284-.052s.221-.031.334-.047c2.735-.322,5.771,1.007,8.585,2.9.4.278.812.562,1.211.859a54.42,54.42,0,0,1,8.333,7.939c.134.16.264.321.387.468.09.1.137.164.137.164a79.28,79.28,0,0,1,9.631-4.829l.005,0c.17-.068.335-.137.506-.206.571-.223,1.143-.442,1.719-.65.1-.033.2-.07.3-.1a32.05,32.05,0,0,1,4.7-1.3c.263-.05.529-.091.791-.128a15.846,15.846,0,0,1,1.873-.154c.235-.005.472,0,.7.012s.457.03.676.059a5.377,5.377,0,0,1,3.042,1.268C825.806,560,814.419,578.239,814.419,578.239Z" stroke="none"/>
      <path d="M 778.4622192382812 548.5504760742188 C 778.1807250976562 548.5504760742188 777.9013671875 548.566162109375 777.62548828125 548.5986938476562 C 777.5123291015625 548.61474609375 777.3994140625 548.6317749023438 777.2913818359375 548.6456909179688 C 777.194580078125 548.660888671875 777.10400390625 548.6810302734375 777.007568359375 548.6972045898438 C 776.4659423828125 548.8137817382812 775.9365234375 548.9962768554688 775.428466796875 549.26220703125 C 775.1630859375 549.4002075195312 774.9124755859375 549.5535278320312 774.6756591796875 549.7297973632812 C 774.6092529296875 549.7727661132812 774.540283203125 549.8225708007812 774.4775390625 549.8768310546875 C 774.4287109375 549.9091796875 774.3779296875 549.9472045898438 774.332763671875 549.9884643554688 C 774.272705078125 550.0350341796875 774.2152099609375 550.0870361328125 774.1614990234375 550.1377563476562 C 774.0816650390625 550.202392578125 774.009033203125 550.2745971679688 773.9407958984375 550.3453369140625 C 773.920166015625 550.3624267578125 773.898193359375 550.3816528320312 773.8829345703125 550.3978881835938 C 773.8072509765625 550.4762573242188 773.7310791015625 550.5546875 773.662841796875 550.63720703125 C 773.3221435546875 551.0031127929688 773.0257568359375 551.4200439453125 772.765380859375 551.8612060546875 C 768.7987060546875 558.6049194335938 773.0042724609375 573.0297241210938 773.0042724609375 573.0297241210938 C 773.0042724609375 573.0297241210938 752.90283203125 581.8685302734375 754.2401123046875 588.849853515625 C 754.259033203125 588.9566040039062 754.28466796875 589.0615234375 754.3150634765625 589.1691284179688 C 756.353759765625 596.1907348632812 776.760986328125 597.8228149414062 776.760986328125 597.8228149414062 C 776.760986328125 597.8228149414062 776.7659912109375 597.853759765625 776.7703857421875 597.9173583984375 C 776.9259033203125 599.1229858398438 778.657958984375 611.9180908203125 782.7275390625 617.2140502929688 C 782.85009765625 617.3721923828125 782.9752197265625 617.52197265625 783.100341796875 617.6681518554688 C 783.1666259765625 617.7398681640625 783.2271728515625 617.8094482421875 783.2943115234375 617.87890625 C 783.3453369140625 617.936279296875 783.4033203125 617.9976806640625 783.459716796875 618.05419921875 C 783.5323486328125 618.1278076171875 783.6051025390625 618.1990356445312 783.6812744140625 618.2653198242188 C 783.7498779296875 618.328125 783.818115234375 618.3865356445312 783.88525390625 618.4439086914062 C 784.014892578125 618.5568237304688 784.152099609375 618.6626586914062 784.2923583984375 618.7603759765625 C 784.3690185546875 618.8146362304688 784.4503173828125 618.863037109375 784.5318603515625 618.9154663085938 C 785.012939453125 619.2127685546875 785.522705078125 619.4019775390625 786.059814453125 619.465576171875 C 786.132080078125 619.472412109375 786.2095947265625 619.4795532226562 786.284912109375 619.48046875 C 786.3504028320312 619.4840087890625 786.4155883789062 619.4857788085938 786.4815673828125 619.4857788085938 C 792.4215698242188 619.4857788085938 800.25341796875 605.0927734375 801.999267578125 601.7382202148438 C 802.0521240234375 601.6404418945312 802.1009521484375 601.5449829101562 802.150146484375 601.4522094726562 C 802.282958984375 601.1885375976562 802.3533935546875 601.04736328125 802.3533935546875 601.04736328125 C 802.3533935546875 601.04736328125 806.287841796875 601.9305419921875 811.017333984375 602.3448486328125 L 811.0213623046875 602.3426513671875 C 811.1712646484375 602.3577880859375 811.3267822265625 602.3707885742188 811.4769287109375 602.3842163085938 C 811.6854248046875 602.400390625 811.895751953125 602.4160766601562 812.1046142578125 602.4273681640625 C 812.24267578125 602.4385986328125 812.3790283203125 602.4483642578125 812.5166015625 602.4564208984375 C 812.71484375 602.4708862304688 812.91748046875 602.4838256835938 813.1201171875 602.4918823242188 C 815.40087890625 602.6107788085938 817.7614135742188 602.5807495117188 819.8731689453125 602.2730712890625 C 819.9691162109375 602.256103515625 820.0615234375 602.2420654296875 820.1534423828125 602.2278442382812 C 820.4144287109375 602.1888427734375 820.6685791015625 602.1422729492188 820.914306640625 602.0919799804688 C 821.0797119140625 602.0579223632812 821.25048828125 602.0215454101562 821.4158935546875 601.9840087890625 C 821.675537109375 601.9237060546875 821.9324951171875 601.8583984375 822.1832275390625 601.7857055664062 C 822.349853515625 601.7365112304688 822.5147705078125 601.685791015625 822.6741943359375 601.6336669921875 C 824.6395263671875 600.9818115234375 826.144775390625 599.9187622070312 826.7916259765625 598.2849731445312 C 829.7857666015625 590.7051391601562 814.41943359375 578.2387084960938 814.41943359375 578.2387084960938 C 814.41943359375 578.2387084960938 825.8062744140625 559.9979248046875 820.2216796875 554.8975219726562 C 819.432861328125 554.1774291992188 818.3896484375 553.7783813476562 817.179931640625 553.629150390625 C 816.9610595703125 553.5999145507812 816.7352294921875 553.5838012695312 816.50390625 553.5699462890625 C 816.2730712890625 553.5560302734375 816.0362548828125 553.5526733398438 815.80126953125 553.557861328125 C 815.2022705078125 553.569091796875 814.575439453125 553.622314453125 813.9285888671875 553.7120361328125 C 813.6666259765625 553.749267578125 813.400390625 553.7896728515625 813.1376953125 553.8399047851562 C 811.6240234375 554.1201171875 810.025146484375 554.5783081054688 808.4376220703125 555.1355590820312 C 808.3358154296875 555.1694946289062 808.2410888671875 555.2068481445312 808.139404296875 555.239990234375 C 807.5640869140625 555.4476928710938 806.9920654296875 555.6663818359375 806.4208984375 555.8896484375 C 806.25048828125 555.9583740234375 806.0855712890625 556.0277099609375 805.9151611328125 556.095458984375 L 805.91015625 556.0986328125 C 800.7276611328125 558.2332763671875 796.279052734375 560.9277954101562 796.279052734375 560.9277954101562 C 796.279052734375 560.9277954101562 796.2320556640625 560.8685913085938 796.1424560546875 560.7637939453125 C 796.0191650390625 560.6175537109375 795.8895263671875 560.45654296875 795.75537109375 560.296142578125 C 794.5264892578125 558.8528442382812 791.26611328125 555.2068481445312 787.42236328125 552.3571166992188 C 787.0224609375 552.0606689453125 786.6153564453125 551.7764892578125 786.2109375 551.49853515625 C 783.6806640625 549.7969360351562 780.9710083007812 548.5503540039062 778.4622192382812 548.5504760742188 M 778.4620361328125 544.5504760742188 C 778.462158203125 544.5504760742188 778.4622192382812 544.5504760742188 778.4622192382812 544.5504760742188 C 781.504150390625 544.55029296875 784.8622436523438 545.771240234375 788.4430541992188 548.1792602539062 L 788.4766235351562 548.2020874023438 C 788.8671875 548.4705200195312 789.3303833007812 548.7922973632812 789.8045043945312 549.143798828125 C 792.7774047851562 551.347900390625 795.4066162109375 553.9646606445312 797.1497802734375 555.84716796875 C 798.9383544921875 554.8880615234375 801.3862915039062 553.654541015625 804.0560302734375 552.5374145507812 L 804.0869750976562 552.5177612304688 L 804.4376220703125 552.3783569335938 C 804.5215454101562 552.344970703125 804.6038208007812 552.3111572265625 804.6863403320312 552.2772827148438 C 804.7652587890625 552.2448120117188 804.8444213867188 552.21240234375 804.9246215820312 552.1800537109375 L 804.9646606445312 552.1641235351562 C 805.6655883789062 551.89013671875 806.2427368164062 551.6720581054688 806.7811279296875 551.4776611328125 L 806.8915405273438 551.4396362304688 C 806.9075927734375 551.4340209960938 806.92333984375 551.42822265625 806.9391479492188 551.4225463867188 C 807.0045166015625 551.39892578125 807.0701293945312 551.3755493164062 807.1372680664062 551.3527221679688 C 809.0196533203125 550.6931762695312 810.7896118164062 550.2073974609375 812.3983154296875 549.9088134765625 C 812.7570190429688 549.840576171875 813.1033935546875 549.7891235351562 813.3659057617188 549.7518310546875 L 813.3790283203125 549.7499389648438 C 814.1910400390625 549.6373291015625 814.9776611328125 549.572998046875 815.71728515625 549.5587158203125 C 816.064208984375 549.5513305664062 816.4139404296875 549.557373046875 816.744140625 549.5771484375 C 817.0319213867188 549.5944213867188 817.3458862304688 549.6166381835938 817.6878051757812 549.6614990234375 C 819.7871704101562 549.9236450195312 821.546875 550.6912841796875 822.91845703125 551.9432983398438 C 824.2002563476562 553.1139526367188 825.0609130859375 554.6410522460938 825.477294921875 556.4827880859375 C 825.7886352539062 557.860107421875 825.8448486328125 559.4331665039062 825.6443481445312 561.158203125 C 825.35205078125 563.6722412109375 824.4998779296875 566.6500244140625 823.1113891601562 570.0088500976562 C 821.9353637695312 572.8538818359375 820.5748901367188 575.4976196289062 819.5263671875 577.4017333984375 C 821.0078125 578.77197265625 822.93212890625 580.6674194335938 824.7713623046875 582.8232421875 C 827.0257568359375 585.4656372070312 828.7044677734375 587.9794311523438 829.7607421875 590.294677734375 C 831.3568115234375 593.79296875 831.6095581054688 596.9757080078125 830.5119018554688 599.7545166015625 C 829.7848510742188 601.5909423828125 828.0545043945312 604.0634765625 823.9334106445312 605.4302978515625 L 823.91748046875 605.435546875 C 823.7296752929688 605.4969482421875 823.53271484375 605.5579833984375 823.3154296875 605.6221313476562 L 823.2971801757812 605.62744140625 C 822.9933471679688 605.715576171875 822.6740112304688 605.7982788085938 822.3211059570312 605.8802490234375 L 822.3007202148438 605.8849487304688 C 822.1239013671875 605.925048828125 821.9342651367188 605.9658813476562 821.7210083007812 606.0098266601562 C 821.3795166015625 606.0797119140625 821.0645751953125 606.1359252929688 820.7540893554688 606.1824951171875 L 820.7374267578125 606.18505859375 C 820.6826171875 606.1935424804688 820.6273193359375 606.2017822265625 820.5701293945312 606.2119140625 L 820.4497680664062 606.2313232421875 C 818.9686889648438 606.4470825195312 817.3067016601562 606.5564575195312 815.510009765625 606.5564575195312 C 814.68408203125 606.5564575195312 813.8177490234375 606.5333251953125 812.934814453125 606.4876708984375 C 812.7288208007812 606.4791259765625 812.5109252929688 606.4664306640625 812.2537841796875 606.4478759765625 C 812.1371459960938 606.4408569335938 812.019287109375 606.4328002929688 811.8967895507812 606.4234008789062 L 811.8790283203125 606.43310546875 L 810.6682739257812 606.32958984375 C 808.3054809570312 606.1226196289062 806.139404296875 605.8068237304688 804.5035400390625 605.5294799804688 C 803.2590942382812 607.783935546875 801.3067626953125 611.1137084960938 799.0493774414062 614.220947265625 C 797.2313232421875 616.7235107421875 795.467041015625 618.73193359375 793.8054809570312 620.1905517578125 C 791.279541015625 622.4078979492188 788.8838500976562 623.4857788085938 786.4815673828125 623.4857788085938 C 786.3677368164062 623.4857788085938 786.2531127929688 623.4832153320312 786.1398315429688 623.4781494140625 C 785.9407348632812 623.47216796875 785.77685546875 623.4566650390625 785.682861328125 623.44775390625 L 785.5894775390625 623.4378051757812 C 784.4825439453125 623.3067626953125 783.419189453125 622.9300537109375 782.4290771484375 622.318115234375 L 782.3290405273438 622.2550659179688 C 782.2498168945312 622.2052612304688 782.1311645507812 622.1306762695312 781.9932861328125 622.0336303710938 C 781.7411499023438 621.8573608398438 781.4996337890625 621.66943359375 781.2747192382812 621.4746704101562 C 781.205322265625 621.4153442382812 781.1153564453125 621.338134765625 781.01416015625 621.2465209960938 C 780.8511962890625 621.102294921875 780.7147216796875 620.9671020507812 780.62158203125 620.8728637695312 C 780.5328979492188 620.7838134765625 780.4435424804688 620.6898193359375 780.3596801757812 620.5975341796875 C 780.2976684570312 620.5318603515625 780.2457275390625 620.4744262695312 780.2052001953125 620.4296875 C 780.19140625 620.4144287109375 780.177490234375 620.3989868164062 780.1630859375 620.3833618164062 L 780.1112060546875 620.3272705078125 L 780.0615234375 620.2692260742188 C 779.9292602539062 620.11474609375 779.7534790039062 619.9063720703125 779.56591796875 619.6643676757812 L 779.5558471679688 619.6513061523438 C 777.5072631835938 616.9854125976562 775.7696533203125 612.716796875 774.3912963867188 606.9638671875 C 773.8972778320312 604.902099609375 773.5265502929688 602.9703979492188 773.2667846679688 601.4577026367188 C 771.1919555664062 601.1838989257812 768.3280639648438 600.7288818359375 765.3689575195312 600.0186157226562 C 756.639404296875 597.92333984375 751.7671508789062 594.7392578125 750.4736938476562 590.2844848632812 L 750.4656982421875 590.2564697265625 C 750.3989868164062 590.020263671875 750.346923828125 589.7978515625 750.3068237304688 589.5775756835938 C 749.99365234375 587.9132690429688 750.238037109375 586.1995849609375 751.0332641601562 584.4837036132812 C 751.6206665039062 583.2163696289062 752.4893798828125 581.9779052734375 753.6890869140625 580.6976318359375 C 755.4203491210938 578.85009765625 757.8726196289062 576.9143676757812 760.977783203125 574.9442749023438 C 763.657470703125 573.2440795898438 766.36181640625 571.8065185546875 768.3442993164062 570.8165283203125 C 768.0270385742188 569.3448486328125 767.6804809570312 567.4906616210938 767.4281616210938 565.469970703125 C 766.5789794921875 558.6693115234375 767.2146606445312 553.4083862304688 769.317626953125 549.8331909179688 L 769.3206176757812 549.8280639648438 C 769.7264404296875 549.1404418945312 770.178955078125 548.5213012695312 770.6664428710938 547.9862670898438 C 770.7967529296875 547.8355102539062 770.9143676757812 547.7136840820312 770.9971923828125 547.6278686523438 L 770.9996337890625 547.6253662109375 C 771.0579833984375 547.5645751953125 771.1183471679688 547.5053100585938 771.181396484375 547.44677734375 C 771.2718505859375 547.3568115234375 771.38232421875 547.2516479492188 771.51025390625 547.1412353515625 C 771.5985717773438 547.060546875 771.6834716796875 546.9869995117188 771.7689208984375 546.9171752929688 C 771.8612060546875 546.8387451171875 771.957275390625 546.762939453125 772.0565185546875 546.6900634765625 C 772.160400390625 546.6082763671875 772.2684936523438 546.529052734375 772.3800659179688 546.4529418945312 C 772.753662109375 546.18212890625 773.1475219726562 545.93994140625 773.5806274414062 545.714599609375 C 774.3829956054688 545.2954711914062 775.2527465820312 544.9832763671875 776.1658325195312 544.7867431640625 L 776.2557983398438 544.7673950195312 L 776.3419189453125 544.7529907226562 C 776.3558959960938 544.7504272460938 776.36962890625 544.7476806640625 776.3833618164062 544.7450561523438 C 776.4505004882812 544.7322387695312 776.552001953125 544.7127685546875 776.6716918945312 544.6939697265625 L 776.7802124023438 544.6785278320312 C 776.8359985351562 544.6713256835938 776.8935546875 544.662841796875 776.95166015625 544.6544189453125 L 777.1572875976562 544.626220703125 C 777.5836181640625 544.575927734375 778.0225830078125 544.5504760742188 778.4620361328125 544.5504760742188 L 778.4620361328125 544.5504760742188 Z" stroke="none" fill="#fcffff"/>
    </g>
    <path id="Path_22958" data-name="Path 22958" d="M814.419,578.239s15.366,12.466,12.372,20.046a6.173,6.173,0,0,1-4.117,3.349c-.159.052-.324.1-.491.152-.251.073-.508.138-.767.2-.165.038-.336.074-.5.108-.246.05-.5.1-.761.136-.092.014-.184.028-.28.045a35.314,35.314,0,0,1-6.753.219c-.2-.008-.405-.021-.6-.035-.138-.008-.274-.018-.412-.029-.209-.011-.419-.027-.628-.043-.15-.013-.306-.026-.456-.042l0,0a73.589,73.589,0,0,1-8.664-1.3l-.2.4c-.049.093-.1.188-.151.286-1.765,3.392-9.752,18.068-15.714,17.742-.075,0-.153-.008-.225-.015a3.724,3.724,0,0,1-1.528-.55c-.082-.052-.163-.1-.24-.155a4.79,4.79,0,0,1-.407-.316c-.067-.057-.135-.116-.2-.179s-.149-.138-.222-.211c-.056-.057-.114-.118-.165-.175-.067-.069-.128-.139-.194-.211-.125-.146-.25-.3-.373-.454-4.07-5.3-5.8-18.091-5.957-19.3,0-.064-.009-.095-.009-.095s-20.407-1.632-22.446-8.654a3.268,3.268,0,0,1-.075-.319C752.9,581.869,773,573.03,773,573.03s-4.206-14.425-.239-21.169a7.047,7.047,0,0,1,.9-1.224c.068-.083.144-.161.22-.239a.683.683,0,0,1,.058-.053,2.472,2.472,0,0,1,.221-.208c.054-.051.111-.1.171-.149a1.2,1.2,0,0,1,.145-.112,1.805,1.805,0,0,1,.2-.147,5.511,5.511,0,0,1,.753-.468,6.2,6.2,0,0,1,1.579-.565c.1-.016.187-.036.284-.052s.221-.031.334-.047c2.735-.322,5.771,1.007,8.585,2.9.4.278.812.562,1.211.859a54.42,54.42,0,0,1,8.333,7.939c.134.16.264.321.387.468.09.1.137.164.137.164a79.28,79.28,0,0,1,9.631-4.829l.005,0c.17-.068.335-.137.506-.206.571-.223,1.143-.442,1.719-.65.1-.033.2-.07.3-.1a32.05,32.05,0,0,1,4.7-1.3c.263-.05.529-.091.791-.128a15.846,15.846,0,0,1,1.873-.154c.235-.005.472,0,.7.012s.457.03.676.059a5.377,5.377,0,0,1,3.042,1.268C825.806,560,814.419,578.239,814.419,578.239Z" transform="translate(0 0)" fill="#ffc51c"/>
    <path id="Path_22959" data-name="Path 22959" d="M803.913,622.031a4.079,4.079,0,0,1-2.33.486c-1.054-.173-2.1-.688-2.162-1.879a2.521,2.521,0,0,1,1.859-2.258c1.1-1.251,3.529-2.1,4.658-.605C807.233,619.493,805.471,621.326,803.913,622.031Zm25.9-17.5a2.229,2.229,0,0,0-1.946-.057,3.264,3.264,0,0,0-2.365.64,3.2,3.2,0,0,0-1.4,3.3,1.251,1.251,0,0,0,1.476.956,7.66,7.66,0,0,0,4.63-3.123A1.247,1.247,0,0,0,829.808,604.534Z" transform="translate(-24.957 -30.741)" fill="#f98073"/>
    <g id="Group_3523" data-name="Group 3523" transform="translate(785.675 581.207)">
      <path id="Path_22960" data-name="Path 22960" d="M833.156,621.495a.834.834,0,0,0-.449,1.083c1.411,2.8,1.013,4.788-1.182,5.891s-4.023.242-5.434-2.564a.9.9,0,0,0-1.588.8c1.789,3.555,4.6,4.7,7.709,3.131s3.872-4.5,2.084-8.055A.835.835,0,0,0,833.156,621.495Z" transform="translate(-824.43 -621.387)" fill="#fb4128"/>
    </g>
    <path id="Path_22961" data-name="Path 22961" d="M775.819,595.742c-2.8-1-12.451-.667-20.873-6.732a.9.9,0,0,0-.626-.152c.019.107.044.212.075.319,2.039,7.022,22.446,8.654,22.446,8.654s0,.031.009.095A1.752,1.752,0,0,0,775.819,595.742ZM820.3,554.9a5.377,5.377,0,0,0-3.042-1.268c-.219-.029-.447-.049-.676-.059s-.468-.017-.7-.012a14.3,14.3,0,0,0-1.873.154c-.262.037-.528.078-.791.128a30.793,30.793,0,0,0-4.7,1.3c-.1.034-.2.071-.3.1-.577.2-1.15.422-1.719.65-.17.069-.335.138-.506.206,2.889-.571,8.166-1.2,9.706.123,7.285,6.256-5.393,13.627-4.1,21.527s13.708,13.068,10.574,20.387c-1.015,2.373-7.614,3.711-11.076,4.211.15.015.305.028.456.042.208.016.419.032.628.043.138.011.274.021.412.029.2.014.4.027.6.035a35.326,35.326,0,0,0,6.753-.219c.1-.017.188-.031.28-.045.261-.039.515-.086.761-.136.165-.034.336-.07.5-.108.26-.06.516-.125.767-.2.167-.049.332-.1.491-.152a6.173,6.173,0,0,0,4.118-3.349c2.994-7.58-12.372-20.046-12.372-20.046S825.885,560.005,820.3,554.9Zm-24.079,5.866c-.123-.146-.253-.307-.387-.468a50.93,50.93,0,0,0-8.333-7.939c-.4-.3-.807-.581-1.212-.859-2.866-1.9-5.895-3.2-8.585-2.9-.113.016-.226.033-.334.047s-.187.035-.284.052a6.2,6.2,0,0,0-1.579.565,5.53,5.53,0,0,0-.753.468,1.821,1.821,0,0,0-.2.147,1.188,1.188,0,0,0-.145.112c-.06.047-.117.1-.171.149a2.418,2.418,0,0,0-.221.208.644.644,0,0,0-.058.052c-.076.078-.152.157-.22.24a7.048,7.048,0,0,0-.9,1.224c8.482-6.286,19.863,10.786,23.491,9.049C796.3,560.87,796.26,560.824,796.221,560.771Zm6.211,40.284c-7.01-3.207-11.6,19.646-19.626,16.167.122.158.247.308.372.454.066.072.127.141.194.211.051.057.109.119.166.175.073.073.145.145.221.211s.137.121.2.178a4.749,4.749,0,0,0,.407.316c.077.054.158.1.239.155a3.724,3.724,0,0,0,1.528.55c.072.007.15.014.225.015,5.355.26,12.987-12.727,15.714-17.742.053-.1.1-.193.151-.286.078-.138.15-.275.217-.4A.027.027,0,0,0,802.432,601.055Z" transform="translate(-0.078 -0.007)" fill="#ffc51c" style="mix-blend-mode: multiply;isolation: isolate"/>
    <path id="Path_22962" data-name="Path 22962" d="M848.883,602.267a.693.693,0,0,1-.8-.272,23.138,23.138,0,0,1-1.036-2.793,13.384,13.384,0,0,0-2.333-3.179,32.759,32.759,0,0,1-4.556-5.637.977.977,0,0,1,1.621-1.088C843.322,591.189,855.03,599.61,848.883,602.267Zm-6.8-36.327c-.777,1.473-.964,3.2-1.7,4.721s-1.5,2.973-2.151,4.52a1.186,1.186,0,0,0,2.121,1.059c1.721-2.825,5.083-6.551,4-10.14A1.244,1.244,0,0,0,842.082,565.94Zm-18.738,40.332c-2.106.625-2.883,3.321-3.8,5.075-1.348,2.588-2.918,5.45-5.71,6.693a1.056,1.056,0,0,0,.669,2c2.745-.733,4.43-2.811,5.948-5.092a43.857,43.857,0,0,0,2.35-4.311c.642-1.249,1.433-2.425,1.247-3.885A.546.546,0,0,0,823.344,606.272Zm-7.2-44.073a29.794,29.794,0,0,0-6.988-3.568c-.928-.272-1.329.956-.766,1.534,1.739,1.787,4.111,3.009,6.161,4.406,1.818,1.24,3.55,2.862,5.821,3.069a.537.537,0,0,0,.609-.684C820.319,564.618,818.1,563.405,816.144,562.2Z" transform="translate(-29.764 -5.54)" fill="#ffc51c" style="mix-blend-mode: multiply;isolation: isolate"/>
    <path id="Path_22963" data-name="Path 22963" d="M775.2,584.562c0,.117,0,.235,0,.352a2.07,2.07,0,0,1-.921,1.845c-2.447,1.281-5.159,1.964-7.545,3.355-2.156,1.259-4.143,3.229-6.51,4.023a1.349,1.349,0,0,1-1.617-1.862c1.137-3,5.087-5.3,7.857-6.6,1.51-.709,3.1-1.222,4.612-1.93,1.262-.593,1.956-1.061,3.3-.427A1.467,1.467,0,0,1,775.2,584.562Zm.321-23.332c-1.282,2.207-.965,5.9-.626,8.324.323,2.33,1.138,4.923,3.272,6.177a.862.862,0,0,0,1.194-1.037,17.58,17.58,0,0,1-1.35-6.041c-.083-2.236.7-4.651.375-6.827A1.525,1.525,0,0,0,775.518,561.23ZM782,605.684c-1.846,1.944-.989,6.989.925,8.63a1.177,1.177,0,0,0,1.907-.637c.3-1.3-.236-2.605-.542-3.861s-.2-2.577-.58-3.789A1.016,1.016,0,0,0,782,605.684Z" transform="translate(-2.39 -6.547)" fill="#ffc51c" style="mix-blend-mode: screen;isolation: isolate"/>
    <path id="Path_22964" data-name="Path 22964" d="M824.415,596.776a3.3,3.3,0,0,1-2.34.285c-.581-.059-1.174-.109-1.752-.221a.894.894,0,0,1-1.633-.673,11.219,11.219,0,0,1,2.456-5.01c.757-.744,2.139.224,1.516,1.151a20.75,20.75,0,0,0-1.654,2.9c.571.032,1.143.1,1.706.17a2.537,2.537,0,0,1,1.776.788A.394.394,0,0,1,824.415,596.776ZM805.6,606.7c.828-.235,1.251-.956,1.7-1.634.322-.487.657-.979.936-1.5a.893.893,0,0,0,.51-1.69,11.2,11.2,0,0,0-5.435-1.261c-1.056.117-1.178,1.8-.065,1.9a20.8,20.8,0,0,1,3.3.551c-.336.463-.642.953-.947,1.43a2.543,2.543,0,0,0-.511,1.875A.393.393,0,0,0,805.6,606.7Z" transform="translate(-26.637 -23.358)" fill="#210903"/>
  </g>
</svg>
