<svg xmlns="http://www.w3.org/2000/svg" width="592.366" height="316.129" viewBox="0 0 592.366 316.129">
  <g id="Group_3522" data-name="Group 3522" transform="translate(-750.169 -336.155)">
    <g id="Group_3513" data-name="Group 3513" transform="translate(752.648 341.113)" opacity="0.4" style="mix-blend-mode: multiply;isolation: isolate">
      <path id="Path_22929" data-name="Path 22929" d="M1345.709,502.752c-4.042,30.352-86.913,25.037-108.228,36.114-3.6,1.906-5.43,4.229-4.869,7.293,3.9,20.7,104.512,69.369,98.111,97.737a10.8,10.8,0,0,1-.676,2.076c-12.12,27.987-295.721-79.982-446.635-11.125l-29.849-38.522-18.929-24.435-46.325-59.77c140.05-195.2,490.119-188.108,514.649-130.316,14.558,34.287-44.259,35.886-56.283,62.25,5.508,3.065,14.86,6.444,25.647,10.233C1304.135,465.576,1348.641,480.706,1345.709,502.752Z" transform="translate(-759.27 -342.85)" fill="#10183a"/>
      <path id="Path_22930" data-name="Path 22930" d="M1169.582,345.46c70.45,0,123.487,14.394,132.509,35.65,14.558,34.287-44.259,35.886-56.282,62.25,5.508,3.065,14.859,6.444,25.647,10.233,31.813,11.288,76.318,26.419,73.387,48.464-4.042,30.352-86.914,25.037-108.229,36.114-3.6,1.906-5.43,4.229-4.869,7.293,3.9,20.7,104.512,69.369,98.111,97.737a10.8,10.8,0,0,1-.676,2.076c-1.445,3.338-6.76,4.742-15.243,4.742-44.862,0-178.565-39.238-299.665-39.243-48,0-94,6.16-131.727,23.375L852.7,595.631,833.767,571.2l-46.325-59.77c88.54-123.408,261.042-165.961,382.14-165.966m.023-3.305v3.305l0-3.305c-68.539,0-141.144,13.114-204.462,36.918-36.893,13.87-70.389,31.248-99.559,51.651-32.374,22.643-59.567,49.148-80.824,78.775l-1.438,2,1.511,1.949,46.326,59.771,18.929,24.433,29.849,38.522,1.6,2.069,2.382-1.087c33.56-15.312,77.41-23.077,130.333-23.077,74.989,0,156.191,15.365,215.483,26.583,37.388,7.073,66.919,12.66,84.2,12.66,6.594,0,15.662-.7,18.277-6.735a14.161,14.161,0,0,0,.874-2.69c4.13-18.463-27.367-41.3-57.826-63.389-10.451-7.579-20.323-14.737-27.8-21.095-9.568-8.133-12.061-12.409-12.467-14.565-.1-.556-.348-1.9,3.167-3.76,6.838-3.552,21.652-5.429,37.335-7.416,32.645-4.134,69.646-8.821,72.624-31.184,3.207-24.111-39.032-39.075-72.972-51.1l-2.587-.916c-8.879-3.119-16.777-5.954-22.22-8.519,5.324-8.231,16.345-13.969,27.04-19.534,9.331-4.857,18.144-9.444,23.944-15.778,6.988-7.633,8.234-16.408,3.81-26.828-4.844-11.413-20.542-20.99-45.394-27.695-24.175-6.522-55.344-9.969-90.135-9.969Z" transform="translate(-758.404 -342.155)" fill="#10183a"/>
      <path id="Path_22931" data-name="Path 22931" d="M1246.675,444.055c-47.849-12.362-286.241-34.22-412.042,127.836l-46.325-59.77c140.05-195.2,490.119-188.108,514.649-130.316C1317.516,416.092,1258.7,417.69,1246.675,444.055Z" transform="translate(-759.27 -342.85)" fill="#10183a" style="mix-blend-mode: screen;isolation: isolate"/>
      <path id="Path_22932" data-name="Path 22932" d="M1344.435,681.448a10.807,10.807,0,0,1-.676,2.076c-12.12,27.987-295.721-79.982-446.635-11.125l-29.849-38.522c158-95.71,312.743-76.133,379.048-50.166C1250.227,604.411,1350.836,653.08,1344.435,681.448Z" transform="translate(-772.982 -380.401)" fill="#10183a" style="mix-blend-mode: multiply;isolation: isolate"/>
      <path id="Path_22933" data-name="Path 22933" d="M1313.611,393.446c-10.371-2.431-19.976-7.5-30.485-9.882a262.259,262.259,0,0,0-34.069-5.461,578.719,578.719,0,0,0-63.428-2.709c-7.873.157-7.71-11.7.06-12.15,24.121-1.363,48.652-2.341,72.713.271,19.9,2.166,46.534,3.891,62.275,17.629C1326.493,386.218,1320.387,395.039,1313.611,393.446Zm-167.234-27.191c-4.2.09-8.374,1.2-12.413,2.262-7.81,2.063-4.515,14.232,3.273,12.09a46.558,46.558,0,0,1,11.306-2c2.835-.085,7.668-2.438,7.668-5.774C1156.217,368.24,1149.961,366.188,1146.377,366.255Z" transform="translate(-818.515 -345.58)" fill="#10183a" style="mix-blend-mode: screen;isolation: isolate"/>
      <path id="Path_22934" data-name="Path 22934" d="M1257.714,556.635c-23.735,3.439-49.625-5.593-73.274-8.272-26-2.95-52.133-5.037-78.2-7.331-5.15-.458-5.291-8.174.035-8.15,27.9.163,55.9-.609,83.71,2.184,22.847,2.286,50.076,2.932,68.8,17.473A2.448,2.448,0,0,1,1257.714,556.635Zm-184.259-14.9c-22.462-9.985-57.955,2.365-78.181,13.592-4.293,2.383-2.422,9.473,2.526,9.328,13.209-.386,26.177-4.519,38.977-7.565,12.434-2.957,25.192-3.717,36.714-9.617C1075.585,546.4,1075.705,542.74,1073.455,541.739Z" transform="translate(-794.792 -375.273)" fill="#10183a" style="mix-blend-mode: multiply;isolation: isolate"/>
      <path id="Path_22935" data-name="Path 22935" d="M801.242,553.855c4.624,0,9.618,2.3,14.282,5.434.745.512,1.5,1.036,2.233,1.582A100.317,100.317,0,0,1,833.115,575.5c.247.3.486.593.713.862.165.193.252.3.252.3a146.107,146.107,0,0,1,17.751-8.9l.009-.006c.314-.125.618-.253.932-.379,1.053-.411,2.107-.815,3.167-1.2.188-.061.362-.13.55-.193a59.046,59.046,0,0,1,8.663-2.388c.484-.093.975-.167,1.458-.236a29.243,29.243,0,0,1,3.452-.284c.128,0,.257,0,.385,0,.306,0,.611.008.91.026.426.026.843.055,1.246.109a9.912,9.912,0,0,1,5.606,2.338c10.293,9.4-10.694,43.02-10.694,43.02s28.322,22.977,22.8,36.947c-1.192,3.011-3.967,4.971-7.589,6.172-.293.1-.6.189-.9.28-.462.134-.935.254-1.414.366-.3.068-.62.135-.925.2-.453.093-.921.179-1.4.25-.169.026-.34.052-.516.083a56.457,56.457,0,0,1-8.043.522c-1.469,0-2.945-.043-4.4-.119-.373-.015-.747-.039-1.112-.065-.254-.015-.505-.033-.759-.054-.385-.021-.773-.05-1.157-.079-.277-.025-.563-.049-.84-.077l-.007,0a135.6,135.6,0,0,1-15.969-2.391s-.13.26-.374.746c-.091.171-.181.347-.279.527-3.217,6.183-17.653,32.711-28.6,32.711-.121,0-.241,0-.363-.01-.139,0-.281-.015-.415-.027a6.865,6.865,0,0,1-2.816-1.014c-.151-.1-.3-.186-.441-.286a8.615,8.615,0,0,1-.75-.583c-.124-.106-.25-.213-.376-.329s-.274-.254-.408-.389c-.1-.1-.211-.217-.305-.323-.124-.128-.235-.256-.358-.388-.231-.269-.461-.545-.687-.837-7.5-9.761-10.693-33.344-10.98-35.566-.008-.117-.017-.174-.017-.174s-37.613-3.008-41.37-15.95a5.958,5.958,0,0,1-.138-.588c-2.465-12.867,34.584-29.158,34.584-29.158s-7.751-26.586-.44-39.016A12.987,12.987,0,0,1,792.4,557.7c.126-.152.266-.3.406-.441a1.262,1.262,0,0,1,.107-.1,4.47,4.47,0,0,1,.406-.383c.1-.093.205-.189.316-.275a2.233,2.233,0,0,1,.267-.206,3.357,3.357,0,0,1,.365-.271,10.159,10.159,0,0,1,1.387-.862,11.427,11.427,0,0,1,2.91-1.041c.178-.03.345-.067.523-.095.2-.026.407-.057.616-.087a13.1,13.1,0,0,1,1.542-.089m0-3.305a16.455,16.455,0,0,0-1.929.112l-.04,0-.04.006-.2.029c-.127.018-.254.037-.376.053l-.04.005-.04.006c-.137.022-.27.046-.4.071l-.159.03-.076.012-.075.017a14.81,14.81,0,0,0-3.747,1.344,13.407,13.407,0,0,0-1.749,1.081c-.166.112-.323.226-.469.344-.135.1-.265.2-.388.305-.142.115-.268.226-.378.328-.191.162-.357.322-.5.461-.08.073-.154.145-.224.217-.144.149-.317.329-.5.539a16.415,16.415,0,0,0-2.021,2.762c-6.555,11.144-2.445,31.448-.618,38.857a156.8,156.8,0,0,0-16.083,8.8c-13.315,8.448-19.153,15.9-17.848,22.8.052.287.121.58.21.893,1.945,6.7,9.958,11.645,24.5,15.136a144.672,144.672,0,0,0,17.128,2.939c1.108,7.408,4.448,25.811,11.3,34.722.236.3.487.611.8.974l.041.049.044.046.107.118c.083.091.164.18.25.27.125.139.262.283.4.418s.323.323.541.516c.141.127.281.248.42.366a12.145,12.145,0,0,0,1.016.789c.129.092.283.19.439.288l.108.068.024.016.025.016a10.165,10.165,0,0,0,4.165,1.484l.034,0,.034,0c.177.017.383.035.617.041.16.008.32.011.481.011,5.845,0,12.345-5.036,19.873-15.4a160.233,160.233,0,0,0,11.167-18.153c2.913.558,8.06,1.436,13.894,1.947l.948.083,0,0c.388.031.754.058,1.119.078.257.02.511.039.767.054.392.028.793.054,1.194.069,1.531.08,3.071.121,4.535.121a59.839,59.839,0,0,0,8.519-.556l.052-.007.051-.01c.15-.026.293-.048.437-.07.5-.076,1.019-.168,1.566-.279.331-.069.665-.14.988-.213.6-.138,1.114-.273,1.606-.415.358-.106.695-.209,1.019-.316,4.909-1.628,8.145-4.35,9.629-8.094,2.774-7.023-.555-16.131-9.891-27.075a119.612,119.612,0,0,0-11.716-11.795,139.8,139.8,0,0,0,7.992-16.017c5.842-14.134,6.065-23.8.662-28.738a13.126,13.126,0,0,0-7.432-3.177c-.477-.064-.981-.1-1.449-.129-.354-.021-.728-.032-1.111-.032q-.228,0-.456,0a32.666,32.666,0,0,0-3.834.315c-.488.069-1.05.153-1.625.263a62.177,62.177,0,0,0-9.119,2.51c-.1.035-.2.07-.3.106-.066.024-.132.048-.2.07l-.047.016-.047.017c-.971.35-2,.74-3.251,1.229l-.447.182c-.166.068-.33.135-.5.2l-.245.1-.03.017a148.97,148.97,0,0,0-15.527,7.616,102.238,102.238,0,0,0-15.094-14.2c-.822-.61-1.639-1.177-2.329-1.651-5.945-4-11.371-6.016-16.155-6.016Z" transform="translate(-753.169 -378.341)" fill="#10183a"/>
      <path id="Path_22936" data-name="Path 22936" d="M868.211,609.269s28.322,22.977,22.8,36.947c-1.193,3.011-3.967,4.971-7.589,6.172-.293.1-.6.189-.9.28-.462.134-.935.255-1.414.365-.3.069-.62.136-.925.2-.453.093-.922.178-1.4.25-.169.026-.34.052-.517.083a65.111,65.111,0,0,1-12.447.4c-.374-.015-.747-.039-1.112-.065-.254-.015-.5-.033-.76-.054-.385-.021-.773-.05-1.157-.079-.277-.025-.564-.049-.839-.077l-.008,0a135.6,135.6,0,0,1-15.969-2.392s-.13.26-.374.746c-.091.171-.181.347-.278.527-3.253,6.251-17.973,33.3-28.963,32.7-.139,0-.282-.015-.415-.027a6.866,6.866,0,0,1-2.816-1.014c-.15-.1-.3-.186-.441-.286a8.772,8.772,0,0,1-.75-.583c-.124-.106-.25-.213-.376-.329s-.275-.254-.408-.389c-.1-.1-.211-.217-.3-.323-.124-.128-.235-.256-.358-.388-.231-.269-.461-.545-.687-.837-7.5-9.761-10.693-33.344-10.98-35.566-.008-.117-.017-.174-.017-.174s-37.612-3.008-41.37-15.95a5.961,5.961,0,0,1-.138-.588c-2.465-12.867,34.584-29.158,34.584-29.158s-7.751-26.586-.44-39.016a12.993,12.993,0,0,1,1.654-2.256c.126-.152.266-.3.406-.441a1.277,1.277,0,0,1,.106-.1,4.5,4.5,0,0,1,.407-.383c.1-.093.2-.189.316-.275a2.221,2.221,0,0,1,.267-.206,3.379,3.379,0,0,1,.365-.271,10.172,10.172,0,0,1,1.387-.862,11.424,11.424,0,0,1,2.911-1.041c.178-.03.345-.067.523-.1.2-.026.407-.057.616-.087,5.041-.594,10.637,1.857,15.824,5.345.745.512,1.5,1.036,2.233,1.583A100.314,100.314,0,0,1,833.811,576.2c.247.3.486.593.713.862.165.193.252.3.252.3a146.1,146.1,0,0,1,17.751-8.9l.009-.006c.314-.125.618-.253.932-.379,1.053-.411,2.107-.815,3.167-1.2.188-.061.362-.13.549-.193a59.08,59.08,0,0,1,8.663-2.388c.484-.093.975-.167,1.458-.236a29.243,29.243,0,0,1,3.452-.284c.433-.009.869,0,1.295.022s.843.055,1.246.109a9.911,9.911,0,0,1,5.606,2.338C889.2,575.65,868.211,609.269,868.211,609.269Z" transform="translate(-753.865 -379.035)" fill="#10183a"/>
      <path id="Path_22937" data-name="Path 22937" d="M810.7,643a7.519,7.519,0,0,1-4.294.9c-1.944-.319-3.865-1.268-3.986-3.463-.107-1.935,1.556-3.434,3.427-4.162,2.036-2.306,6.5-3.876,8.586-1.116C816.822,638.323,813.574,641.7,810.7,643Zm47.728-32.25a4.107,4.107,0,0,0-3.586-.1,6.017,6.017,0,0,0-4.358,1.179,5.9,5.9,0,0,0-2.588,6.089,2.306,2.306,0,0,0,2.721,1.763c3.443-.973,6.581-2.662,8.534-5.756A2.3,2.3,0,0,0,858.43,610.75Z" transform="translate(-761.72 -388.711)" fill="#10183a"/>
      <path id="Path_22938" data-name="Path 22938" d="M843.513,627.585a1.537,1.537,0,0,0-.828,2c2.6,5.169,1.867,8.825-2.179,10.858s-7.416.445-10.016-4.725a1.657,1.657,0,0,0-2.927,1.473c3.3,6.552,8.475,8.656,14.208,5.771s7.136-8.3,3.84-14.846A1.539,1.539,0,0,0,843.513,627.585Z" transform="translate(-766.063 -391.682)" fill="#10183a"/>
      <path id="Path_22939" data-name="Path 22939" d="M796.945,641.518c-5.165-1.849-22.949-1.229-38.472-12.409a1.66,1.66,0,0,0-1.154-.28,5.933,5.933,0,0,0,.138.588c3.758,12.942,41.37,15.95,41.37,15.95s.009.057.017.174A3.23,3.23,0,0,0,796.945,641.518Zm81.984-75.267a9.912,9.912,0,0,0-5.606-2.338c-.4-.054-.823-.091-1.246-.109s-.862-.031-1.295-.022a26.36,26.36,0,0,0-3.452.284c-.483.069-.973.143-1.458.236a56.68,56.68,0,0,0-8.663,2.388c-.188.063-.362.131-.55.193-1.063.375-2.119.778-3.167,1.2-.314.126-.618.255-.932.379,5.324-1.053,15.051-2.208,17.89.226,13.427,11.53-9.939,25.116-7.554,39.676s25.266,24.086,19.489,37.575c-1.87,4.373-14.033,6.841-20.414,7.761.276.028.563.052.839.077.384.03.772.059,1.157.079.255.021.506.039.759.054.365.026.739.05,1.112.065a65.1,65.1,0,0,0,12.447-.4c.177-.031.347-.057.516-.083.481-.072.949-.158,1.4-.25.3-.063.62-.13.925-.2.478-.111.952-.232,1.414-.365.307-.091.612-.184.9-.28,3.623-1.2,6.4-3.161,7.589-6.172,5.518-13.97-22.8-36.947-22.8-36.947S889.223,575.652,878.93,566.251Zm-44.381,10.812c-.227-.269-.466-.566-.713-.862a93.854,93.854,0,0,0-15.359-14.632c-.737-.546-1.487-1.07-2.233-1.582-5.283-3.505-10.864-5.891-15.824-5.345-.208.03-.417.061-.616.087-.178.028-.345.065-.523.095a11.423,11.423,0,0,0-2.91,1.041,10.171,10.171,0,0,0-1.387.862,3.369,3.369,0,0,0-.365.271,2.233,2.233,0,0,0-.267.206c-.111.086-.217.182-.316.275a4.49,4.49,0,0,0-.407.383,1.24,1.24,0,0,0-.107.1c-.14.145-.28.289-.406.441a12.992,12.992,0,0,0-1.654,2.256c15.633-11.586,36.61,19.881,43.3,16.678C834.69,577.245,834.622,577.16,834.549,577.063ZM846,651.31c-12.92-5.91-21.389,36.21-36.172,29.8.226.292.456.568.687.837.122.132.234.26.358.388.094.106.2.219.3.323.134.135.268.267.408.389s.252.223.376.329a8.767,8.767,0,0,0,.75.583c.141.1.291.189.441.286a6.868,6.868,0,0,0,2.816,1.014c.133.012.276.026.415.027,9.869.479,23.936-23.458,28.963-32.7.1-.18.188-.356.278-.527.143-.254.276-.506.4-.737A.049.049,0,0,0,846,651.31Z" transform="translate(-753.889 -379.038)" fill="#10183a" style="mix-blend-mode: multiply;isolation: isolate"/>
      <path id="Path_22940" data-name="Path 22940" d="M886.241,645.09a1.278,1.278,0,0,1-1.474-.5c-1.029-1.677-1.107-3.4-1.909-5.147a24.67,24.67,0,0,0-4.3-5.86c-2.971-3.358-6.215-6.436-8.4-10.39a1.8,1.8,0,0,1,2.987-2.006C875.992,624.671,897.571,640.192,886.241,645.09Zm-12.534-66.955c-1.432,2.715-1.777,5.9-3.128,8.7-1.339,2.781-2.768,5.48-3.965,8.331a2.186,2.186,0,0,0,3.91,1.952c3.172-5.206,9.368-12.075,7.373-18.688A2.293,2.293,0,0,0,873.707,578.134ZM839.17,652.47c-3.882,1.151-5.313,6.122-7,9.354-2.485,4.771-5.378,10.045-10.524,12.337a1.946,1.946,0,0,0,1.233,3.689c5.059-1.351,8.165-5.181,10.963-9.386a80.736,80.736,0,0,0,4.332-7.945c1.184-2.3,2.641-4.469,2.3-7.161A1.007,1.007,0,0,0,839.17,652.47ZM825.9,571.24c-4.045-2.5-8.294-5.233-12.88-6.576-1.71-.5-2.45,1.762-1.412,2.828,3.205,3.294,7.576,5.546,11.355,8.121,3.35,2.286,6.543,5.276,10.729,5.656a.989.989,0,0,0,1.122-1.261C833.595,575.7,829.5,573.463,825.9,571.24Z" transform="translate(-763.233 -380.779)" fill="#10183a" style="mix-blend-mode: multiply;isolation: isolate"/>
      <path id="Path_22941" data-name="Path 22941" d="M792.269,610.918c0,.215,0,.432.006.65a3.815,3.815,0,0,1-1.7,3.4c-4.51,2.362-9.508,3.62-13.906,6.185-3.975,2.321-7.636,5.951-12,7.414-2.19.734-3.707-1.513-2.98-3.431,2.1-5.529,9.375-9.774,14.48-12.173,2.783-1.307,5.721-2.252,8.5-3.557,2.326-1.093,3.6-1.955,6.085-.787A2.7,2.7,0,0,1,792.269,610.918Zm.591-43c-2.364,4.068-1.778,10.872-1.154,15.342.6,4.295,2.1,9.073,6.03,11.385a1.589,1.589,0,0,0,2.2-1.912,32.4,32.4,0,0,1-2.488-11.135c-.153-4.122,1.285-8.573.691-12.583A2.811,2.811,0,0,0,792.859,567.915Zm11.95,81.934c-3.4,3.583-1.824,12.882,1.706,15.907a2.169,2.169,0,0,0,3.515-1.173c.548-2.393-.436-4.8-1-7.117-.559-2.3-.369-4.75-1.069-6.984A1.872,1.872,0,0,0,804.809,649.848Z" transform="translate(-754.617 -381.096)" fill="#10183a" style="mix-blend-mode: screen;isolation: isolate"/>
      <path id="Path_22942" data-name="Path 22942" d="M845.922,607.736c-1.3.906-2.822.674-4.313.526-1.071-.108-2.164-.2-3.229-.407a1.647,1.647,0,0,1-3.01-1.24c.858-3.167,2.134-6.872,4.527-9.234,1.4-1.372,3.942.412,2.793,2.122a38.269,38.269,0,0,0-3.048,5.35c1.053.059,2.107.193,3.144.313a4.677,4.677,0,0,1,3.274,1.452A.727.727,0,0,1,845.922,607.736Zm-34.676,18.286c1.525-.434,2.3-1.762,3.132-3.011.593-.9,1.211-1.8,1.725-2.759,1.745.226,2.772-2.3.939-3.115-3-1.337-6.675-2.689-10.017-2.325-1.946.215-2.171,3.316-.12,3.505a38.341,38.341,0,0,1,6.074,1.016c-.62.854-1.182,1.756-1.744,2.636a4.685,4.685,0,0,0-.942,3.456A.724.724,0,0,0,811.246,626.022Z" transform="translate(-762.249 -386.388)" fill="#10183a"/>
    </g>
    <g id="Group_3521" data-name="Group 3521" transform="translate(750.169 336.155)">
      <g id="Group_3520" data-name="Group 3520">
        <g id="Group_3516" data-name="Group 3516" transform="translate(24.915)">
          <g id="Group_3515" data-name="Group 3515">
            <path id="Path_22943" data-name="Path 22943" d="M1342.709,496.752c-4.042,30.352-86.913,25.037-108.228,36.114-3.6,1.906-5.43,4.229-4.869,7.293,3.9,20.7,104.512,69.369,98.111,97.737a10.8,10.8,0,0,1-.676,2.076c-12.12,27.987-295.721-79.982-446.635-11.125l-29.849-38.522-18.929-24.435-46.325-59.77c140.05-195.2,490.119-188.108,514.649-130.316,14.558,34.286-44.259,35.886-56.283,62.25,5.508,3.065,14.86,6.444,25.647,10.233C1301.135,459.576,1345.641,474.706,1342.709,496.752Z" transform="translate(-781.185 -336.85)" fill="#ffc51c"/>
            <g id="Group_3514" data-name="Group 3514">
              <path id="Path_22944" data-name="Path 22944" d="M1166.582,339.46c70.45,0,123.487,14.394,132.509,35.65,14.558,34.287-44.259,35.886-56.282,62.25,5.508,3.065,14.859,6.444,25.647,10.233,31.812,11.288,76.318,26.419,73.387,48.464-4.042,30.352-86.914,25.037-108.229,36.114-3.6,1.906-5.43,4.229-4.869,7.293,3.9,20.7,104.512,69.369,98.111,97.737a10.8,10.8,0,0,1-.676,2.076c-1.445,3.338-6.76,4.742-15.243,4.742-44.862,0-178.566-39.238-299.665-39.243-48,0-94,6.161-131.727,23.375L849.7,589.631,830.767,565.2l-46.325-59.77c88.539-123.408,261.042-165.96,382.14-165.966m.023-3.305v3.305l0-3.305c-68.539,0-141.144,13.114-204.462,36.918-36.893,13.871-70.389,31.248-99.559,51.651-32.374,22.643-59.567,49.148-80.824,78.775l-1.438,2,1.51,1.949,46.326,59.771,18.929,24.433,29.849,38.522,1.6,2.069,2.382-1.087c33.56-15.312,77.41-23.077,130.333-23.077,74.989,0,156.191,15.365,215.483,26.583,37.388,7.073,66.919,12.66,84.2,12.66,6.594,0,15.662-.7,18.277-6.735a14.163,14.163,0,0,0,.874-2.69c4.13-18.463-27.367-41.3-57.826-63.389-10.451-7.579-20.323-14.737-27.8-21.095-9.568-8.133-12.061-12.409-12.467-14.565-.1-.556-.348-1.9,3.167-3.76,6.838-3.552,21.652-5.429,37.335-7.416,32.645-4.134,69.646-8.821,72.624-31.184,3.207-24.111-39.032-39.075-72.972-51.1l-2.587-.916c-8.879-3.119-16.777-5.954-22.22-8.519,5.323-8.231,16.345-13.969,27.04-19.534,9.331-4.856,18.144-9.444,23.944-15.778,6.988-7.633,8.234-16.408,3.81-26.828-4.844-11.413-20.542-20.99-45.394-27.695-24.175-6.522-55.344-9.969-90.135-9.969Z" transform="translate(-780.319 -336.155)" fill="#fcffff"/>
            </g>
            <path id="Path_22945" data-name="Path 22945" d="M1243.675,438.055c-47.849-12.362-286.241-34.22-412.041,127.836l-46.325-59.77c140.05-195.2,490.119-188.108,514.649-130.316C1314.516,410.091,1255.7,411.691,1243.675,438.055Z" transform="translate(-781.185 -336.85)" fill="#ffc51c" style="mix-blend-mode: screen;isolation: isolate"/>
            <path id="Path_22946" data-name="Path 22946" d="M1341.435,675.448a10.807,10.807,0,0,1-.676,2.076c-12.12,27.987-295.721-79.982-446.635-11.125l-29.849-38.522c158-95.71,312.743-76.133,379.048-50.166C1247.227,598.411,1347.835,647.08,1341.435,675.448Z" transform="translate(-794.897 -374.401)" fill="#ffc51c" style="mix-blend-mode: multiply;isolation: isolate"/>
          </g>
          <path id="Path_22947" data-name="Path 22947" d="M1310.611,387.446c-10.371-2.431-19.975-7.5-30.485-9.882a262.259,262.259,0,0,0-34.069-5.461,578.725,578.725,0,0,0-63.428-2.709c-7.873.157-7.71-11.7.06-12.15,24.121-1.363,48.652-2.341,72.713.271,19.9,2.166,46.534,3.891,62.274,17.629C1323.493,380.218,1317.387,389.039,1310.611,387.446Zm-167.234-27.191c-4.2.09-8.374,1.2-12.413,2.262-7.81,2.063-4.515,14.232,3.273,12.091a46.557,46.557,0,0,1,11.306-2c2.835-.085,7.668-2.438,7.668-5.774C1153.217,362.24,1146.961,360.188,1143.377,360.255Z" transform="translate(-840.43 -339.58)" fill="#ffc51c" style="mix-blend-mode: screen;isolation: isolate"/>
          <path id="Path_22948" data-name="Path 22948" d="M1254.714,550.635c-23.735,3.439-49.625-5.593-73.274-8.272-26-2.95-52.132-5.037-78.195-7.331-5.15-.458-5.291-8.174.035-8.15,27.9.163,55.9-.609,83.711,2.184,22.847,2.286,50.076,2.932,68.8,17.472A2.448,2.448,0,0,1,1254.714,550.635Zm-184.26-14.9c-22.462-9.985-57.955,2.365-78.181,13.592-4.293,2.383-2.422,9.473,2.525,9.328,13.209-.386,26.177-4.519,38.977-7.565,12.434-2.957,25.192-3.717,36.714-9.617C1072.585,540.4,1072.705,536.74,1070.455,535.739Z" transform="translate(-816.707 -369.273)" fill="#ffc51c" style="mix-blend-mode: multiply;isolation: isolate"/>
        </g>
        <g id="Group_3519" data-name="Group 3519" transform="translate(0 172.209)">
          <g id="Group_3517" data-name="Group 3517">
            <path id="Path_22949" data-name="Path 22949" d="M798.242,547.855c4.624,0,9.618,2.3,14.282,5.434.745.512,1.5,1.036,2.233,1.582A100.308,100.308,0,0,1,830.115,569.5c.247.3.486.593.713.862.165.193.252.3.252.3a146.082,146.082,0,0,1,17.751-8.9l.009-.006c.314-.125.618-.253.932-.379,1.053-.412,2.107-.815,3.167-1.2.188-.061.362-.13.55-.193a59.078,59.078,0,0,1,8.663-2.388c.484-.093.975-.167,1.458-.236a29.245,29.245,0,0,1,3.452-.284c.128,0,.257,0,.385,0,.306,0,.611.008.91.026.426.026.843.055,1.246.109a9.912,9.912,0,0,1,5.606,2.338c10.293,9.4-10.694,43.02-10.694,43.02s28.322,22.977,22.8,36.947c-1.193,3.011-3.967,4.971-7.589,6.172-.293.1-.6.189-.9.28-.462.134-.935.254-1.414.366-.3.068-.62.135-.925.2-.453.093-.921.178-1.4.25-.169.027-.34.052-.516.083a56.456,56.456,0,0,1-8.043.522c-1.469,0-2.945-.043-4.4-.119-.373-.015-.747-.039-1.112-.065-.254-.015-.5-.033-.759-.054-.385-.021-.773-.05-1.157-.079-.277-.025-.563-.049-.839-.077l-.007,0a135.6,135.6,0,0,1-15.969-2.391s-.13.26-.374.746c-.091.171-.181.347-.279.527-3.217,6.183-17.653,32.711-28.6,32.711-.121,0-.241,0-.363-.01-.139,0-.281-.015-.415-.027a6.869,6.869,0,0,1-2.816-1.014c-.15-.1-.3-.186-.441-.286a8.64,8.64,0,0,1-.75-.583c-.124-.106-.25-.213-.376-.329s-.274-.254-.408-.389c-.1-.1-.211-.217-.3-.323-.124-.128-.235-.256-.358-.388-.231-.269-.461-.545-.687-.837-7.5-9.761-10.693-33.344-10.98-35.566-.008-.117-.017-.174-.017-.174s-37.613-3.008-41.37-15.95a5.95,5.95,0,0,1-.138-.588c-2.465-12.867,34.584-29.158,34.584-29.158s-7.751-26.586-.44-39.016A12.991,12.991,0,0,1,789.4,551.7c.126-.152.266-.3.406-.441a1.25,1.25,0,0,1,.107-.1,4.487,4.487,0,0,1,.406-.383c.1-.093.205-.189.316-.275a2.219,2.219,0,0,1,.267-.206,3.35,3.35,0,0,1,.365-.271,10.17,10.17,0,0,1,1.387-.862,11.427,11.427,0,0,1,2.91-1.041c.178-.03.345-.067.523-.1.2-.026.407-.057.616-.087a13.1,13.1,0,0,1,1.542-.089m0-3.305a16.468,16.468,0,0,0-1.929.112l-.04.005-.04.006-.2.029c-.127.018-.254.037-.376.053l-.04,0-.04.007c-.137.021-.27.045-.4.071l-.159.03-.076.013-.075.017a14.81,14.81,0,0,0-3.747,1.344,13.414,13.414,0,0,0-1.749,1.081c-.166.112-.323.227-.469.345-.136.1-.265.2-.388.3-.142.115-.268.226-.378.328-.191.162-.357.322-.5.461-.08.073-.154.145-.224.217-.144.149-.316.329-.5.539a16.414,16.414,0,0,0-2.021,2.763c-6.555,11.143-2.445,31.448-.618,38.857a156.769,156.769,0,0,0-16.083,8.8c-13.315,8.448-19.153,15.9-17.848,22.8.052.288.121.58.21.893,1.945,6.7,9.958,11.645,24.5,15.136a144.663,144.663,0,0,0,17.128,2.939c1.108,7.408,4.448,25.811,11.3,34.722.236.3.488.612.8.974l.041.049.044.046.107.118c.083.091.165.18.25.27.125.139.262.283.4.418s.323.323.541.516c.141.127.281.248.42.366a12.152,12.152,0,0,0,1.016.789c.129.092.283.19.439.288l.108.068.024.016.025.016a10.165,10.165,0,0,0,4.165,1.484l.034,0,.034,0c.177.017.383.035.617.041.16.008.32.012.481.012,5.845,0,12.345-5.037,19.873-15.4a160.274,160.274,0,0,0,11.167-18.153c2.913.558,8.06,1.436,13.894,1.947l.948.083,0,0c.388.031.755.058,1.119.078.257.02.511.039.767.054.393.028.793.054,1.194.069,1.531.08,3.071.122,4.535.122a59.857,59.857,0,0,0,8.519-.556l.052-.008.051-.01c.15-.026.293-.048.437-.07.5-.076,1.019-.168,1.566-.279.331-.069.665-.14.988-.213.6-.138,1.114-.273,1.606-.415.358-.106.695-.209,1.019-.316,4.909-1.628,8.146-4.35,9.629-8.094,2.774-7.023-.555-16.131-9.891-27.075a119.621,119.621,0,0,0-11.716-11.795,139.821,139.821,0,0,0,7.992-16.017c5.842-14.134,6.065-23.8.662-28.738a13.126,13.126,0,0,0-7.432-3.177c-.477-.065-.981-.1-1.449-.129-.354-.021-.728-.032-1.111-.032q-.228,0-.456,0a32.642,32.642,0,0,0-3.834.315c-.488.07-1.05.153-1.625.263a62.173,62.173,0,0,0-9.119,2.51c-.1.035-.2.07-.3.106-.066.024-.132.048-.2.07l-.047.016-.047.017c-.971.35-2,.74-3.251,1.229l-.447.182c-.166.068-.331.136-.5.2l-.245.1-.03.017a149.023,149.023,0,0,0-15.527,7.616,102.249,102.249,0,0,0-15.094-14.2c-.822-.61-1.639-1.177-2.329-1.651-5.945-4-11.371-6.016-16.155-6.016Z" transform="translate(-750.169 -544.55)" fill="#fcffff"/>
          </g>
          <path id="Path_22950" data-name="Path 22950" d="M865.211,603.269s28.322,22.977,22.8,36.947c-1.193,3.011-3.967,4.971-7.589,6.172-.293.1-.6.189-.9.28-.462.134-.935.255-1.414.365-.3.069-.62.136-.925.2-.453.093-.921.179-1.4.25-.169.026-.34.052-.516.083a65.124,65.124,0,0,1-12.447.4c-.373-.015-.747-.039-1.112-.065-.254-.015-.5-.033-.759-.054-.385-.021-.773-.05-1.157-.079-.277-.025-.563-.049-.839-.077l-.007,0a135.6,135.6,0,0,1-15.969-2.392s-.13.26-.374.746c-.091.171-.181.347-.279.527-3.253,6.251-17.973,33.3-28.963,32.7-.139,0-.282-.015-.415-.027a6.868,6.868,0,0,1-2.816-1.014c-.15-.1-.3-.186-.441-.286a8.758,8.758,0,0,1-.75-.583c-.124-.106-.25-.213-.376-.329s-.274-.254-.408-.389c-.1-.1-.211-.217-.3-.323-.124-.128-.235-.256-.358-.388-.231-.269-.461-.545-.687-.837-7.5-9.761-10.693-33.344-10.98-35.566-.008-.117-.017-.174-.017-.174s-37.613-3.008-41.37-15.95a5.936,5.936,0,0,1-.138-.588c-2.465-12.867,34.584-29.158,34.584-29.158s-7.751-26.586-.44-39.016a13,13,0,0,1,1.654-2.256c.126-.152.266-.3.406-.441a1.271,1.271,0,0,1,.107-.1,4.49,4.49,0,0,1,.407-.383c.1-.093.2-.189.316-.275a2.214,2.214,0,0,1,.267-.206,3.371,3.371,0,0,1,.365-.271,10.18,10.18,0,0,1,1.387-.862,11.424,11.424,0,0,1,2.911-1.041c.178-.03.345-.067.523-.1.2-.026.407-.057.616-.087,5.041-.594,10.637,1.857,15.824,5.345.745.512,1.5,1.036,2.233,1.583A100.314,100.314,0,0,1,830.811,570.2c.247.3.486.592.713.862.165.193.252.3.252.3a146.1,146.1,0,0,1,17.751-8.9l.009-.006c.314-.125.618-.253.932-.379,1.053-.411,2.107-.815,3.167-1.2.188-.061.362-.13.55-.193a59.071,59.071,0,0,1,8.663-2.388c.484-.093.975-.167,1.458-.235a29.22,29.22,0,0,1,3.452-.284c.433-.009.869,0,1.295.022s.843.055,1.246.109a9.911,9.911,0,0,1,5.606,2.338C886.2,569.65,865.211,603.269,865.211,603.269Z" transform="translate(-750.865 -545.245)" fill="#ffc51c"/>
          <path id="Path_22951" data-name="Path 22951" d="M807.7,637a7.519,7.519,0,0,1-4.294.9c-1.944-.319-3.865-1.268-3.986-3.463-.107-1.935,1.556-3.434,3.427-4.162,2.036-2.306,6.5-3.876,8.586-1.116C813.822,632.323,810.574,635.7,807.7,637Zm47.728-32.25a4.107,4.107,0,0,0-3.586-.1,6.017,6.017,0,0,0-4.358,1.179,5.9,5.9,0,0,0-2.588,6.089,2.306,2.306,0,0,0,2.721,1.763c3.443-.973,6.581-2.662,8.534-5.756A2.3,2.3,0,0,0,855.43,604.75Z" transform="translate(-758.72 -554.921)" fill="#f98073"/>
          <g id="Group_3518" data-name="Group 3518" transform="translate(61.367 63.495)">
            <path id="Path_22952" data-name="Path 22952" d="M840.513,621.585a1.537,1.537,0,0,0-.828,2c2.6,5.169,1.867,8.825-2.179,10.858s-7.416.445-10.016-4.725a1.657,1.657,0,0,0-2.927,1.473c3.3,6.552,8.475,8.656,14.208,5.771s7.136-8.3,3.84-14.846A1.539,1.539,0,0,0,840.513,621.585Z" transform="translate(-824.43 -621.387)" fill="#fb4128"/>
          </g>
          <path id="Path_22953" data-name="Path 22953" d="M793.945,635.518c-5.165-1.849-22.949-1.229-38.472-12.409a1.66,1.66,0,0,0-1.154-.28,5.938,5.938,0,0,0,.138.588c3.757,12.942,41.37,15.95,41.37,15.95s.009.057.017.174A3.23,3.23,0,0,0,793.945,635.518Zm81.984-75.267a9.912,9.912,0,0,0-5.606-2.338c-.4-.054-.823-.091-1.246-.109s-.862-.031-1.295-.022a26.327,26.327,0,0,0-3.452.284c-.483.069-.974.143-1.458.235a56.712,56.712,0,0,0-8.663,2.388c-.188.063-.362.131-.55.193-1.064.375-2.119.778-3.167,1.2-.314.126-.618.255-.932.379,5.324-1.053,15.051-2.208,17.89.226,13.427,11.53-9.939,25.116-7.554,39.676s25.266,24.086,19.489,37.575c-1.87,4.373-14.033,6.841-20.414,7.761.276.028.563.052.84.077.384.03.772.059,1.157.079.254.021.506.039.759.054.365.026.739.05,1.112.065a65.1,65.1,0,0,0,12.447-.4c.177-.031.347-.057.516-.083.481-.072.949-.158,1.4-.25.3-.063.62-.13.925-.2.479-.111.952-.231,1.414-.365.307-.091.612-.184.9-.28,3.623-1.2,6.4-3.161,7.589-6.172,5.518-13.97-22.8-36.947-22.8-36.947S886.223,569.652,875.93,560.251Zm-44.38,10.812c-.227-.269-.466-.566-.713-.862a93.854,93.854,0,0,0-15.359-14.632c-.737-.546-1.487-1.07-2.233-1.582-5.283-3.505-10.864-5.891-15.824-5.345-.208.03-.416.061-.615.087-.179.028-.345.065-.523.1a11.43,11.43,0,0,0-2.91,1.041,10.165,10.165,0,0,0-1.387.862,3.352,3.352,0,0,0-.365.271,2.22,2.22,0,0,0-.267.206c-.111.086-.217.182-.316.275a4.505,4.505,0,0,0-.407.383,1.28,1.28,0,0,0-.107.1c-.14.145-.28.289-.406.441a12.991,12.991,0,0,0-1.654,2.256c15.633-11.586,36.61,19.881,43.3,16.678C831.69,571.245,831.622,571.16,831.549,571.063ZM843,645.31c-12.92-5.91-21.389,36.21-36.172,29.8.226.292.456.568.687.837.122.132.234.26.358.388.094.106.2.219.3.323.134.136.268.267.408.389s.252.223.376.329a8.773,8.773,0,0,0,.75.583c.141.1.291.189.441.286a6.867,6.867,0,0,0,2.816,1.014c.133.012.276.026.415.027,9.869.479,23.936-23.458,28.963-32.7.1-.18.188-.356.279-.527.143-.255.276-.507.4-.737A.049.049,0,0,0,843,645.31Z" transform="translate(-750.889 -545.247)" fill="#ffc51c" style="mix-blend-mode: multiply;isolation: isolate"/>
          <path id="Path_22954" data-name="Path 22954" d="M883.241,639.09a1.278,1.278,0,0,1-1.474-.5c-1.029-1.677-1.107-3.4-1.909-5.147a24.669,24.669,0,0,0-4.3-5.86c-2.971-3.358-6.215-6.436-8.4-10.39a1.8,1.8,0,0,1,2.987-2.006C872.992,618.671,894.571,634.192,883.241,639.09Zm-12.534-66.955c-1.432,2.715-1.778,5.9-3.128,8.7-1.339,2.781-2.768,5.48-3.965,8.331a2.186,2.186,0,0,0,3.91,1.952c3.172-5.206,9.368-12.075,7.373-18.688A2.292,2.292,0,0,0,870.707,572.134ZM836.17,646.471c-3.882,1.151-5.313,6.122-7,9.354-2.485,4.771-5.378,10.045-10.524,12.337a1.946,1.946,0,0,0,1.233,3.689c5.059-1.351,8.165-5.18,10.963-9.386a80.782,80.782,0,0,0,4.332-7.945c1.184-2.3,2.641-4.469,2.3-7.161A1.007,1.007,0,0,0,836.17,646.471ZM822.9,565.24c-4.045-2.5-8.294-5.233-12.88-6.576-1.71-.5-2.45,1.762-1.412,2.828,3.205,3.294,7.576,5.546,11.355,8.121,3.35,2.286,6.543,5.275,10.729,5.656a.989.989,0,0,0,1.122-1.261C830.595,569.7,826.5,567.463,822.9,565.24Z" transform="translate(-760.233 -546.988)" fill="#ffc51c" style="mix-blend-mode: multiply;isolation: isolate"/>
          <path id="Path_22955" data-name="Path 22955" d="M789.268,604.918c0,.215,0,.432.006.65a3.815,3.815,0,0,1-1.7,3.4c-4.51,2.362-9.508,3.62-13.906,6.184-3.975,2.321-7.636,5.951-12,7.414-2.19.734-3.707-1.513-2.98-3.431,2.1-5.529,9.375-9.774,14.48-12.173,2.783-1.307,5.721-2.252,8.5-3.557,2.326-1.093,3.6-1.955,6.085-.787A2.7,2.7,0,0,1,789.268,604.918Zm.591-43c-2.363,4.068-1.778,10.872-1.154,15.342.6,4.295,2.1,9.073,6.03,11.385a1.589,1.589,0,0,0,2.2-1.912,32.391,32.391,0,0,1-2.488-11.134c-.153-4.122,1.285-8.573.691-12.583A2.811,2.811,0,0,0,789.859,561.915Zm11.95,81.934c-3.4,3.583-1.824,12.882,1.706,15.907a2.169,2.169,0,0,0,3.515-1.173c.548-2.393-.435-4.8-1-7.117-.559-2.3-.369-4.75-1.069-6.984A1.872,1.872,0,0,0,801.809,643.848Z" transform="translate(-751.617 -547.305)" fill="#ffc51c" style="mix-blend-mode: screen;isolation: isolate"/>
          <path id="Path_22956" data-name="Path 22956" d="M842.922,601.736c-1.3.906-2.822.674-4.313.526-1.071-.108-2.164-.2-3.229-.407a1.647,1.647,0,0,1-3.01-1.24c.859-3.167,2.134-6.872,4.527-9.234,1.4-1.372,3.942.412,2.793,2.122a38.285,38.285,0,0,0-3.048,5.35c1.053.059,2.107.193,3.144.313a4.677,4.677,0,0,1,3.274,1.452A.727.727,0,0,1,842.922,601.736Zm-34.677,18.287c1.525-.434,2.3-1.762,3.132-3.011.593-.9,1.211-1.8,1.725-2.759,1.745.226,2.772-2.3.94-3.115-3-1.337-6.675-2.689-10.017-2.325-1.946.215-2.171,3.316-.12,3.505a38.36,38.36,0,0,1,6.074,1.016c-.62.854-1.182,1.756-1.744,2.636a4.684,4.684,0,0,0-.942,3.456A.724.724,0,0,0,808.246,620.022Z" transform="translate(-759.249 -552.597)" fill="#210903"/>
        </g>
      </g>
    </g>
  </g>
</svg>
