<svg xmlns="http://www.w3.org/2000/svg" width="54.935" height="64.175" viewBox="0 0 54.935 64.175">
  <g id="Group_2365" data-name="Group 2365" transform="translate(-9.537 -4.835)">
    <path id="Path_9523" data-name="Path 9523" d="M32.76,70.147l12.629-7.292L32.76,55.563Zm1.332-12.278,8.636,4.986-8.636,4.986Z" transform="translate(-6.401 -12.131)" fill="#343232" stroke="#343232" stroke-width="0.35"/>
    <path id="Path_9524" data-name="Path 9524" d="M35.672,60.608v7.3l6.318-3.648ZM37,62.913l2.325,1.343L37,65.6Z" transform="translate(-7.21 -13.625)" fill="#343232" stroke="#343232" stroke-width="0.35"/>
    <path id="Path_9525" data-name="Path 9525" d="M52.949,46.621A5.527,5.527,0,0,0,47.428,41.1h-32.2a5.525,5.525,0,0,0-5.52,5.518v24.27a5.527,5.527,0,0,0,5.52,5.521h32.2a5.528,5.528,0,0,0,5.522-5.521V68.813l7.7,5.136V43.563l-7.7,5.136Zm.651,3.244,5.723-3.815V71.463L53.6,67.648ZM51.618,70.891a4.2,4.2,0,0,1-4.19,4.19h-32.2a4.2,4.2,0,0,1-4.19-4.19V46.621a4.194,4.194,0,0,1,4.19-4.188h32.2a4.193,4.193,0,0,1,4.19,4.188Z" transform="translate(0 -7.577)" fill="#343232" stroke="#343232" stroke-width="0.35"/>
    <path id="Path_9526" data-name="Path 9526" d="M34.519,48.626a12.3,12.3,0,1,0,12.3,12.3A12.317,12.317,0,0,0,34.519,48.626Zm0,23.273A10.971,10.971,0,1,1,45.49,60.928,10.983,10.983,0,0,1,34.519,71.9Z" transform="translate(-3.473 -9.666)" fill="#343232" stroke="#343232" stroke-width="0.35"/>
    <path id="Path_9527" data-name="Path 9527" d="M20.236,32.393a8.866,8.866,0,1,0-8.864-8.867A8.876,8.876,0,0,0,20.236,32.393Zm0-16.4A7.535,7.535,0,1,1,12.7,23.525,7.543,7.543,0,0,1,20.236,15.991Z" transform="translate(-0.461 -2.68)" fill="#343232" stroke="#343232" stroke-width="0.35"/>
    <path id="Path_9528" data-name="Path 9528" d="M48.13,29.712A12.351,12.351,0,1,0,35.781,17.361,12.364,12.364,0,0,0,48.13,29.712Zm0-23.37a11.02,11.02,0,1,1-11.019,11.02A11.033,11.033,0,0,1,48.13,6.342Z" transform="translate(-7.24)" fill="#343232" stroke="#343232" stroke-width="0.35"/>
    <path id="Path_9529" data-name="Path 9529" d="M81.941,44.243h-.666V74.908h.666a2.293,2.293,0,0,0,2.232-2.344V46.585A2.292,2.292,0,0,0,81.941,44.243Z" transform="translate(-19.876 -8.449)" fill="#343232" stroke="#343232" stroke-width="0.35"/>
  </g>
</svg>
