<svg xmlns="http://www.w3.org/2000/svg" xmlns:xlink="http://www.w3.org/1999/xlink" width="101.614" height="127.381" viewBox="0 0 101.614 127.381">
  <defs>
    <linearGradient id="linear-gradient" x1="0.663" y1="0.856" x2="0.441" y2="0.571" gradientUnits="objectBoundingBox">
      <stop offset="0.022" stop-color="#f6c9ad"/>
      <stop offset="0.397" stop-color="#f4c5aa"/>
      <stop offset="0.72" stop-color="#eebba1"/>
      <stop offset="1" stop-color="#e5ab95"/>
    </linearGradient>
    <linearGradient id="linear-gradient-2" x1="0.83" y1="0.836" x2="0.539" y2="0.541" gradientUnits="objectBoundingBox">
      <stop offset="0" stop-color="#fff"/>
      <stop offset="0.394" stop-color="#fcfcfc"/>
      <stop offset="0.627" stop-color="#f4f4f4"/>
      <stop offset="0.818" stop-color="#e6e7e7"/>
      <stop offset="0.986" stop-color="#d2d4d4"/>
      <stop offset="1" stop-color="#d0d2d3"/>
    </linearGradient>
    <linearGradient id="linear-gradient-3" x1="1.281" y1="0.365" x2="0.421" y2="0.513" gradientUnits="objectBoundingBox">
      <stop offset="0.031" stop-color="#f04956"/>
      <stop offset="0.267" stop-color="#ea4551"/>
      <stop offset="0.574" stop-color="#da3a46"/>
      <stop offset="0.919" stop-color="#bf2933"/>
      <stop offset="1" stop-color="#b8252e"/>
    </linearGradient>
    <linearGradient id="linear-gradient-4" x1="0.152" y1="0.46" x2="0.727" y2="0.583" gradientUnits="objectBoundingBox">
      <stop offset="0" stop-color="#4e1790"/>
      <stop offset="0.233" stop-color="#521a91"/>
      <stop offset="0.501" stop-color="#602495"/>
      <stop offset="0.785" stop-color="#77349c"/>
      <stop offset="0.981" stop-color="#8c43a2"/>
    </linearGradient>
    <linearGradient id="linear-gradient-5" x1="0.497" y1="0.761" x2="0.5" y2="0.558" xlink:href="#linear-gradient"/>
    <linearGradient id="linear-gradient-6" x1="0.865" y1="0.488" x2="0.161" y2="0.517" gradientUnits="objectBoundingBox">
      <stop offset="0.019" stop-color="#8c43a2"/>
      <stop offset="0.215" stop-color="#77349c"/>
      <stop offset="0.499" stop-color="#602495"/>
      <stop offset="0.767" stop-color="#521a91"/>
      <stop offset="1" stop-color="#4e1790"/>
    </linearGradient>
    <linearGradient id="linear-gradient-7" x1="0.541" y1="0.459" x2="0.554" y2="0.358" xlink:href="#linear-gradient"/>
    <linearGradient id="linear-gradient-8" x1="0.796" y1="0.091" x2="0.616" y2="0.425" xlink:href="#linear-gradient-6"/>
    <radialGradient id="radial-gradient" cx="1.042" cy="0.338" r="0.827" gradientTransform="matrix(-1.41, 0.252, -0.286, -0.753, 2.608, 0.33)" gradientUnits="objectBoundingBox">
      <stop offset="0.031" stop-color="#f04956"/>
      <stop offset="0.271" stop-color="#e84450"/>
      <stop offset="0.632" stop-color="#d33641"/>
      <stop offset="1" stop-color="#b8252e"/>
    </radialGradient>
    <linearGradient id="linear-gradient-9" x1="0.491" y1="0.235" x2="0.524" y2="1.002" gradientUnits="objectBoundingBox">
      <stop offset="0.021" stop-color="#c692f4"/>
      <stop offset="0.233" stop-color="#c489f2"/>
      <stop offset="0.571" stop-color="#bf72ee"/>
      <stop offset="0.99" stop-color="#b74de7"/>
      <stop offset="1" stop-color="#b74ce7"/>
    </linearGradient>
    <linearGradient id="linear-gradient-10" x1="0.443" y1="0.415" x2="0.653" y2="0.733" gradientUnits="objectBoundingBox">
      <stop offset="0" stop-color="#b74ce7"/>
      <stop offset="0.27" stop-color="#bb63eb"/>
      <stop offset="0.729" stop-color="#c385f1"/>
      <stop offset="0.979" stop-color="#c692f4"/>
    </linearGradient>
    <linearGradient id="linear-gradient-11" x1="0.462" y1="0.619" x2="0.638" y2="0.141" gradientUnits="objectBoundingBox">
      <stop offset="0.022" stop-color="#f6c9ad"/>
      <stop offset="0.035" stop-color="#f5c8ac"/>
      <stop offset="0.62" stop-color="#e9b29b"/>
      <stop offset="1" stop-color="#e5ab95"/>
    </linearGradient>
    <linearGradient id="linear-gradient-12" x1="0.04" y1="0.449" x2="0.382" y2="0.548" xlink:href="#linear-gradient"/>
    <linearGradient id="linear-gradient-13" x1="0.022" y1="0.528" x2="0.981" y2="0.421" gradientUnits="objectBoundingBox">
      <stop offset="0" stop-color="#fff"/>
      <stop offset="0.273" stop-color="#f9f9fa"/>
      <stop offset="0.612" stop-color="#eaebeb"/>
      <stop offset="0.984" stop-color="#d1d3d4"/>
      <stop offset="1" stop-color="#d0d2d3"/>
    </linearGradient>
    <linearGradient id="linear-gradient-14" x1="0.224" y1="-0.242" x2="0.638" y2="0.957" xlink:href="#linear-gradient-3"/>
    <linearGradient id="linear-gradient-15" x1="0.529" y1="0.508" x2="0.348" y2="0.755" xlink:href="#linear-gradient"/>
    <linearGradient id="linear-gradient-16" x1="-0.013" y1="0.849" x2="0.594" y2="0.285" gradientUnits="objectBoundingBox">
      <stop offset="0" stop-color="#4e1790"/>
      <stop offset="0.981" stop-color="#8c43a2"/>
    </linearGradient>
    <linearGradient id="linear-gradient-17" x1="0.489" y1="0.763" x2="0.496" y2="0.56" xlink:href="#linear-gradient-2"/>
    <linearGradient id="linear-gradient-18" x1="0.491" y1="0.761" x2="0.499" y2="0.56" xlink:href="#linear-gradient-2"/>
  </defs>
  <g id="Group_7163" data-name="Group 7163" transform="translate(-168.963 -291.122)">
    <g id="Group_7157" data-name="Group 7157" transform="translate(168.963 291.122)">
      <path id="Path_53241" data-name="Path 53241" d="M242.035,283.872c1.153-.084,2.09-.729,1.9-.733a10.425,10.425,0,0,1-2.509.137c-1.729-.081-2.194-.5-1.775-.774s1.244-1.547.941-1.493-1.049.889-1.849.993a4.216,4.216,0,0,0-1.592.659c-.966-.139-1.928-.307-2.89-.473s-1.925-.329-2.884-.516q-2.88-.543-5.75-1.155c-1.915-.4-3.824-.837-5.734-1.266-.109-.027-.262-.054-.334-.081l-.208-.077a4.318,4.318,0,0,1-.427-.191,4.257,4.257,0,0,1-.762-.5,4,4,0,0,1-1.063-1.351l-.171-.215c-2.275-3.175-3.918-5.757-6.14-8.977-1.112-1.61-2.244-3.2-3.33-4.834l-.112-.167a5.011,5.011,0,1,0-7.489,6.544l.15.133c1.472,1.3,2.9,2.631,4.344,3.948,2.418,2.2,4.913,4.373,7.225,6.678a13.475,13.475,0,0,0,5.524,3.586c2.515.753,5.417.443,8.018.578q2.94.13,5.868.34c.978.063,1.951.146,2.925.232s1.949.164,2.919.275c.552.06,1.869.5,3.33.826,2,.267,3.991-1.22,3.566-1.416S242.5,284.1,242.035,283.872Z" transform="translate(-142.341 -234.595)" fill="url(#linear-gradient)"/>
      <path id="Path_53242" data-name="Path 53242" d="M216.273,285.811s-.115,1,.425,1.107.754-.755.754-.755.566.808,1.132.458a1.015,1.015,0,0,0,.4-1.051s.836.539,1.24.135,0-1.186,0-1.186.808.539,1.213,0a.907.907,0,0,0-.108-1.105s.889.3,1.078-.242-.452-1-.452-1a.612.612,0,0,0,.372-.59c-.054-.4-.667-.358-.917-.3A15.335,15.335,0,0,1,216.273,285.811Z" transform="translate(-148.774 -241.919)" fill="url(#linear-gradient-2)"/>
      <path id="Path_53243" data-name="Path 53243" d="M198.739,258.64a4.374,4.374,0,0,1,3.931-2.4,9.167,9.167,0,0,1,7.649,4.206,24.493,24.493,0,0,1,4.307,12.258s-.584,3.528-5.156,4.215c-2.452-.116-11.331-6.227-12.2-10.83A12.253,12.253,0,0,1,198.739,258.64Z" transform="translate(-141.97 -233.026)" fill="url(#linear-gradient-3)"/>
      <path id="Path_53244" data-name="Path 53244" d="M119.267,376.364s-.1-.353-1.088-.948-2.865-1.325-3.5.023a52.481,52.481,0,0,0-2.788,7.469c-.8,2.876-.133,3.826.713,3.029s3.837-4.942,4.9-5.244a4.12,4.12,0,0,0,1.592-.707S119.707,377.43,119.267,376.364Z" transform="translate(-111.527 -275.145)" fill="url(#linear-gradient-4)"/>
      <path id="Path_53245" data-name="Path 53245" d="M161.476,324.647a7.69,7.69,0,0,0-8.446,6.362,80.2,80.2,0,0,0-1.208,8.84c-.155,2.71-.325,5.415-.531,8.072-.1,1.322-.22,2.65-.353,3.869l-.119,1.023c-1.078-.452-6.72.185-9.29.274-2.536.087-13.581,4.592-13.868,4.71-1.657.259-3.32.49-4.987.661a.93.93,0,0,0-.621.321,2.094,2.094,0,0,0-.383,1.433,2.779,2.779,0,0,0,.391,1.647.9.9,0,0,0,.6.311c5.388.529,10.816.968,16.327,1.146,2.816.085,5.648.112,8.585-.046a44.444,44.444,0,0,0,4.553-.456l1.219-.223c.428-.1.847-.193,1.289-.313l.688-.21.344-.108.378-.148.757-.309c.286-.142.575-.3.858-.452a7.121,7.121,0,0,0,.946-.631l.485-.38c.18-.163.38-.371.56-.565s.359-.406.527-.617a7.07,7.07,0,0,0,.555-.9,7.984,7.984,0,0,0,.457-.995l.1-.268c.158-.427.331-.9.467-1.3l.357-1.1c.461-1.451.854-2.811,1.241-4.18.767-2.727,1.48-5.422,2.178-8.117q1.062-4.127,2.077-8.238A7.425,7.425,0,0,0,161.476,324.647Z" transform="translate(-115.134 -257.328)" fill="url(#linear-gradient-5)"/>
      <path id="Path_53246" data-name="Path 53246" d="M155.843,398.786s-.281-.233-1.435-.148-3.105.568-2.849,2.037a45.8,45.8,0,0,0,1.447,7.656c.875,2.855,2.675,3.258,2.907,2.12s.148-6.214.791-7.308a18.555,18.555,0,0,0,.886-1.663A6.809,6.809,0,0,0,155.843,398.786Z" transform="translate(-125.755 -283.66)" fill="url(#linear-gradient-6)"/>
      <path id="Path_53247" data-name="Path 53247" d="M193.537,357.732c-.01-.454-.021-.955-.043-1.376l-.072-1.157c-.105-1.519-.239-2.928-.381-4.344-.289-2.818-.615-5.585-.956-8.349q-.53-4.229-1.094-8.425a7.429,7.429,0,1,0-14.629,2.545,83.333,83.333,0,0,0,2.176,8.914c.852,2.577,1.688,5.155,2.472,7.7.389,1.268.769,2.546,1.093,3.728l.265.995c-1.169-.024-6.182,2.641-8.54,3.667-2.327,1.013-10.943,9.26-11.168,9.475-1.541.905-3.1,1.783-4.687,2.6a2.5,2.5,0,0,0-.078,2.267c.53,1.4,1.418,1.125,1.418,1.125,5.308-1.512,10.619-3.124,15.913-5.018,2.65-.955,5.294-1.971,7.968-3.2a44.332,44.332,0,0,0,4.067-2.1l1.052-.655c.361-.251.717-.49,1.084-.764l.563-.448.28-.227.3-.276.59-.566c.213-.237.425-.486.632-.736a7.22,7.22,0,0,0,.648-.935l.311-.531c.108-.218.216-.484.313-.731s.186-.509.264-.767a7.064,7.064,0,0,0,.187-1.041,7.926,7.926,0,0,0,.06-1.085Z" transform="translate(-127.939 -258.424)" fill="url(#linear-gradient-7)"/>
      <path id="Path_53248" data-name="Path 53248" d="M176.292,231.2c.231-3.561.172-7.872-3.471-9.622-3.8-1.825-10.793-2.314-13.377,1.765-2.426,3.828,1.225,8.5-.961,12.477-3.154,5.735-12.192,6.167-10.662,14.547.4,2.172,1.319,4.212,1.849,6.354.852,3.446.186,6.127-2.561,8.349-2.547,2.061-6.066,3.385-7.439,6.582a11.572,11.572,0,0,0,3.077,13.37c5.573,4.452,16.547,2.1,22.67-.359,3.13-1.257,6.435-3.555,5.993-7.349-.474-4.067-.471-12.682,3.789-14.907a13.85,13.85,0,0,0,6.225-7.091,7.441,7.441,0,0,0,.378-4.747c-.529-1.738-2.045-2.854-2.887-4.419a21.453,21.453,0,0,1-1.692-4.235,26.894,26.894,0,0,1-1.03-9.363C176.227,232.116,176.262,231.663,176.292,231.2Z" transform="translate(-121.204 -220.216)" fill="url(#linear-gradient-8)"/>
      <path id="Path_53249" data-name="Path 53249" d="M166.659,278.6c-.2-3.544-1.708-6.872-2.366-10.354-.418-2.216-1.518-4.793-.606-7.008,1.559-3.787,6-4.794,9.621-5.31,5.585-.8,13.337-.863,17.149,4.018,0,0,4.364,4.812,3.393,9.253s-5.936,6.663-5.936,10.133,2.221,13.882,3.919,16.936,4.7,8.329,6.01,11.383-2.352,11.521-7.708,13.049-9.538-2.637-15.417,0a12.788,12.788,0,0,1-15.025-2.776c-3.4-3.748-4.312-4.72-6.533-5.414s1.7-4.3,4.834-7.5S167.617,295.492,166.659,278.6Z" transform="translate(-126.101 -232.77)" fill="url(#radial-gradient)"/>
      <path id="Path_53250" data-name="Path 53250" d="M161.857,366.255a.771.771,0,0,1,1.052-.735c.082-.282.166-.567.247-.848-.639-.717-1.583-.266-2.032.461-.6-1.627-2.476-1.149-3.076-.545-1.425-1.42-2.325-.6-3.375,0-1.5-2.4-3.627,0-3.627,0h0c-.035.357-.071.71-.108,1.052l-.119,1.023c-1.078-.452-6.72.185-9.29.274-2.536.087-13.581,4.592-13.868,4.71-1.657.259-3.32.49-4.987.661a.93.93,0,0,0-.621.321,2.094,2.094,0,0,0-.383,1.433,2.779,2.779,0,0,0,.391,1.647.9.9,0,0,0,.6.311c5.388.529,10.816.968,16.327,1.146,2.816.085,5.648.112,8.585-.046a44.436,44.436,0,0,0,4.553-.456l1.219-.223c.428-.1.847-.193,1.289-.313l.688-.21.344-.108.378-.148.757-.309c.286-.142.575-.3.858-.452a7.123,7.123,0,0,0,.946-.632l.485-.38c.18-.163.38-.37.56-.565s.359-.406.527-.617a7.068,7.068,0,0,0,.555-.9,7.984,7.984,0,0,0,.457-.995l.1-.268c.158-.427.331-.9.467-1.3l.357-1.1c.124-.39.236-.765.351-1.143A.777.777,0,0,1,161.857,366.255Zm-9.039-.148a.788.788,0,1,1,.788-.788A.788.788,0,0,1,152.818,366.107Zm3.513.381a.788.788,0,1,1,.788-.788A.788.788,0,0,1,156.331,366.488Zm3.216.407a.788.788,0,1,1,.788-.788A.788.788,0,0,1,159.547,366.9Z" transform="translate(-115.134 -271.18)" fill="url(#linear-gradient-9)"/>
      <path id="Path_53251" data-name="Path 53251" d="M193.537,369.625c-.01-.454-.021-.955-.043-1.376l-.072-1.157c-.105-1.519-.239-2.928-.381-4.344-.04-.392-.086-.777-.128-1.166-1.309-1.413-2.384.728-2.384.728s-.822-1-1.762-.646a2.265,2.265,0,0,0-1.234,1.41,2.129,2.129,0,0,0-1.88-.764c-1.058.235-1.234,1.64-1.234,1.64s-1.058-1.1-2.057-.811-1.469,1.621-1.469,1.621v0c.039.125.08.251.119.376.389,1.267.769,2.546,1.093,3.728l.265.995c-1.169-.024-6.182,2.641-8.54,3.667-2.327,1.013-10.943,9.26-11.168,9.475-1.482.871-2.981,1.713-4.506,2.5h0c-.061.031-.12.066-.18.1a2.5,2.5,0,0,0-.078,2.267c.53,1.4,1.418,1.125,1.418,1.125,1.017-.29,2.036-.588,3.054-.886h0c4.29-1.258,8.581-2.6,12.859-4.132,2.65-.955,5.294-1.971,7.968-3.2a44.339,44.339,0,0,0,4.067-2.1l1.052-.655c.361-.251.717-.49,1.084-.764l.563-.448.28-.227.3-.276.59-.566c.213-.237.425-.486.632-.736a7.223,7.223,0,0,0,.648-.935l.311-.531c.108-.218.216-.484.313-.731s.186-.509.264-.767a7.063,7.063,0,0,0,.187-1.041,7.925,7.925,0,0,0,.06-1.084ZM182.8,365.569a.746.746,0,1,1,.746-.746A.746.746,0,0,1,182.8,365.569Zm3.2-.874a.746.746,0,1,1,.746-.746A.746.746,0,0,1,186.007,364.7Zm3.2-.746a.746.746,0,1,1,.746-.746A.746.746,0,0,1,189.212,363.949Zm2.967-.423a.746.746,0,1,1,.746-.746A.746.746,0,0,1,192.178,363.525Z" transform="translate(-127.939 -270.317)" fill="url(#linear-gradient-10)"/>
      <path id="Path_53252" data-name="Path 53252" d="M193.887,255.454c-.477-1.78-2.765-2.623-2.765-2.623-.4-1.3-1.016-5.551-1.016-5.551-.8-.5-4.636-.483-4.636-.483a55.286,55.286,0,0,0-.3,6c0,.008-.011.014-.015.023-2.215,4.583,1.88,6.768,4.572,6.792C192.927,259.637,194.364,257.235,193.887,255.454Z" transform="translate(-137.484 -229.669)" fill="url(#linear-gradient-11)"/>
      <circle id="Ellipse_684" data-name="Ellipse 684" cx="1.511" cy="1.511" r="1.511" transform="translate(54.323 33.552)" fill="#bf2134"/>
      <path id="Path_53253" data-name="Path 53253" d="M199.915,282.964a1.511,1.511,0,1,1-1.511-1.512A1.511,1.511,0,0,1,199.915,282.964Z" transform="translate(-141.885 -241.993)" fill="#bf2134"/>
      <path id="Path_53254" data-name="Path 53254" d="M165.336,249.673h0a4.955,4.955,0,0,0-7.123-1.129c-2.169,1.676-4.541,3.469-5.4,4.02l-1.217.768-1.192.7-.569.3-.286.153-.249.113-.193.092a13.917,13.917,0,0,1-1.06-1.748,41.932,41.932,0,0,1-2.244-5.4c-.655-1.9-1.215-3.852-1.719-5.824s-.946-3.967-1.273-5.971a38.506,38.506,0,0,1-.581-5.781,35.547,35.547,0,0,0,.85-3.788c.075-.948-.724-.633-.887-1.614s-.433-3.516-.692-3.195-.338,1.8-.664,2.6c-.523.055-2.087.809-2.1,1.751a22.961,22.961,0,0,0,.844,3.888,40.36,40.36,0,0,0-.229,6.477c.077,2.137.208,4.268.429,6.394s.512,4.249.888,6.383a47.839,47.839,0,0,0,1.551,6.48,18.538,18.538,0,0,0,1.493,3.463,8.262,8.262,0,0,0,1.579,2.009,5.5,5.5,0,0,0,1.661,1.059,4.968,4.968,0,0,0,1.273.333,4.227,4.227,0,0,0,.716.037c.118,0,.251-.008.356-.016l.153-.018c.408-.05.819-.105,1.228-.172.357-.073.666-.155,1-.236l.494-.126.439-.137.879-.279c.561-.195,1.1-.4,1.647-.6l1.57-.637c2.315-.985,4.517-2.012,6.7-3.085A4.963,4.963,0,0,0,165.336,249.673Z" transform="translate(-121.204 -220.614)" fill="url(#linear-gradient-12)"/>
      <path id="Path_53255" data-name="Path 53255" d="M154.428,271.988s-.508-.463-.71.328.71,1.187.71,1.187a1.465,1.465,0,0,0-.449,1.275c.144.747.994.351.994.351s-.758.879-.642,1.407,1,.769,1,.769-.949.258-.787.918a1.248,1.248,0,0,0,.917.818,1.071,1.071,0,0,0-.692,1.1c.065.837,1.228-.187,1.228-.187a6.445,6.445,0,0,0,.921-3.748C156.593,274.513,154.428,271.988,154.428,271.988Z" transform="translate(-126.521 -238.579)" fill="url(#linear-gradient-13)"/>
      <path id="Path_53256" data-name="Path 53256" d="M169.173,260.305a7.893,7.893,0,0,0-6.134.529,18.934,18.934,0,0,0-7.618,6.778,1.461,1.461,0,0,0-.025,1.488c.747,1.307,2.119,4.225,1.139,6.644,1.106.883,9.842-.063,14.3-2.769C174.629,270.674,175.169,262.4,169.173,260.305Z" transform="translate(-127.06 -234.332)" fill="url(#linear-gradient-14)"/>
      <path id="Path_53257" data-name="Path 53257" d="M174.929,229.981s.51-3.871,5.63-4.3,11.4,9.8,10.4,13.4-9.543,2.994-11.154,2.279S172.715,233.9,174.929,229.981Z" transform="translate(-133.89 -222.153)" fill="url(#linear-gradient-15)"/>
      <path id="Path_53258" data-name="Path 53258" d="M184.955,224.933a2.889,2.889,0,0,1-1.8,3.583c-2.581.879-5.219.742-5.513,3.244s1.835,3.174,2.184,4.264-2.179-1.157-3.129-.122,2.138,2.57,1.389,4.205c-3.9.872-5.318-3.9-5.846-7.92s1.411-8.548,5.15-8.99S183.677,223.587,184.955,224.933Z" transform="translate(-133.085 -221.234)" fill="url(#linear-gradient-16)"/>
      <path id="Path_53259" data-name="Path 53259" d="M115.836,374.684a1.284,1.284,0,0,0-1.159.757,52.478,52.478,0,0,0-2.788,7.469,5.22,5.22,0,0,0-.24,2.941C112.054,381.587,115.043,376.081,115.836,374.684Z" transform="translate(-111.528 -275.148)" fill="url(#linear-gradient-17)"/>
      <path id="Path_53260" data-name="Path 53260" d="M155.8,411.132c-2.982,1.173-3.6-8.909-3.7-11.358a1.29,1.29,0,0,0-.544,1.311,45.8,45.8,0,0,0,1.447,7.656C153.8,411.331,155.35,411.9,155.8,411.132Z" transform="translate(-125.755 -284.071)" fill="url(#linear-gradient-18)"/>
    </g>
  </g>
</svg>
