<svg id="Group_7156" data-name="Group 7156" xmlns="http://www.w3.org/2000/svg" xmlns:xlink="http://www.w3.org/1999/xlink" width="189.373" height="154.641" viewBox="0 0 189.373 154.641">
  <defs>
    <linearGradient id="linear-gradient" x1="0.677" y1="0.692" x2="0.298" y2="0.372" gradientUnits="objectBoundingBox">
      <stop offset="0.029" stop-color="#00b481"/>
      <stop offset="0.977" stop-color="#008366"/>
    </linearGradient>
    <linearGradient id="linear-gradient-2" x1="0.865" y1="0.66" x2="0.136" y2="0.286" gradientUnits="objectBoundingBox">
      <stop offset="0" stop-color="#e5ab95"/>
      <stop offset="0.978" stop-color="#f6c9ad"/>
    </linearGradient>
    <linearGradient id="linear-gradient-3" x1="0.495" y1="0.524" x2="0.522" y2="0.756" gradientUnits="objectBoundingBox">
      <stop offset="0" stop-color="#687ed5"/>
      <stop offset="0.98" stop-color="#4c499f"/>
    </linearGradient>
    <linearGradient id="linear-gradient-4" x1="0.529" y1="0.955" x2="0.496" y2="0.277" xlink:href="#linear-gradient-3"/>
    <linearGradient id="linear-gradient-5" y1="0.5" x2="1" y2="0.5" gradientUnits="objectBoundingBox">
      <stop offset="0.023" stop-color="#008366"/>
      <stop offset="0.136" stop-color="#008d6b"/>
      <stop offset="0.426" stop-color="#00a277"/>
      <stop offset="0.708" stop-color="#00af7e"/>
      <stop offset="0.971" stop-color="#00b481"/>
    </linearGradient>
    <linearGradient id="linear-gradient-6" y1="0.5" x2="0.649" y2="0.5" gradientUnits="objectBoundingBox">
      <stop offset="0.022" stop-color="#f6c9ad"/>
      <stop offset="1" stop-color="#e5ab95"/>
    </linearGradient>
    <linearGradient id="linear-gradient-7" x1="0.488" y1="0.593" x2="0.563" y2="0.822" xlink:href="#linear-gradient-3"/>
    <linearGradient id="linear-gradient-8" x1="0.507" y1="0.963" x2="0.493" y2="0.037" xlink:href="#linear-gradient-3"/>
    <linearGradient id="linear-gradient-9" x1="0.488" y1="0.425" x2="0.565" y2="0.553" gradientUnits="objectBoundingBox">
      <stop offset="0.022" stop-color="#f6c9ad"/>
      <stop offset="0.397" stop-color="#f4c5aa"/>
      <stop offset="0.72" stop-color="#eebba1"/>
      <stop offset="1" stop-color="#e5ab95"/>
    </linearGradient>
    <linearGradient id="linear-gradient-10" x1="0.094" y1="0.695" x2="0.546" y2="0.491" gradientUnits="objectBoundingBox">
      <stop offset="0.023" stop-color="#008366"/>
      <stop offset="0.971" stop-color="#00b481"/>
    </linearGradient>
    <linearGradient id="linear-gradient-11" x1="0.611" y1="1.021" x2="0.491" y2="0.394" xlink:href="#linear-gradient-10"/>
    <linearGradient id="linear-gradient-12" x1="0" y1="0.5" x2="1" y2="0.5" xlink:href="#linear-gradient-10"/>
    <linearGradient id="linear-gradient-13" x1="0.124" y1="0.665" x2="0.43" y2="0.515" gradientUnits="objectBoundingBox">
      <stop offset="0.022" stop-color="#f6c9ad"/>
      <stop offset="0.463" stop-color="#f4c6aa"/>
      <stop offset="0.728" stop-color="#efbea4"/>
      <stop offset="0.946" stop-color="#e7af98"/>
      <stop offset="1" stop-color="#e5ab95"/>
    </linearGradient>
    <linearGradient id="linear-gradient-14" x1="0.54" y1="0.774" x2="0.461" y2="0.153" xlink:href="#linear-gradient-10"/>
    <linearGradient id="linear-gradient-16" x1="0.14" y1="0.32" x2="0.669" y2="0.546" xlink:href="#linear-gradient-9"/>
    <linearGradient id="linear-gradient-17" x1="0.798" y1="0.164" x2="0.318" y2="0.816" xlink:href="#linear-gradient-9"/>
    <linearGradient id="linear-gradient-18" x1="0.526" y1="1.045" x2="0.493" y2="0.263" gradientUnits="objectBoundingBox">
      <stop offset="0.016" stop-color="#901823"/>
      <stop offset="0.978" stop-color="#ef4351"/>
    </linearGradient>
    <linearGradient id="linear-gradient-19" x1="0.516" y1="0.993" x2="0.475" y2="0.008" gradientUnits="objectBoundingBox">
      <stop offset="0" stop-color="#d0d2d3"/>
      <stop offset="0.014" stop-color="#d2d4d4"/>
      <stop offset="0.182" stop-color="#e6e7e7"/>
      <stop offset="0.373" stop-color="#f4f4f4"/>
      <stop offset="0.606" stop-color="#fcfcfc"/>
      <stop offset="1" stop-color="#fff"/>
    </linearGradient>
    <linearGradient id="linear-gradient-20" x1="0.578" y1="1.001" x2="0.481" y2="-0.005" xlink:href="#linear-gradient-19"/>
  </defs>
  <path id="Path_53221" data-name="Path 53221" d="M28.015,219.689a3.085,3.085,0,0,0-.751-2.039c-.823-.967-2.066-2.185-3.84-1.637s-8.533,8.957-11.139,12.554c-2.4,3.316-.77,5.846,2.362,3.958s8.339-7.237,10.853-6.872C27.144,225.289,28.015,219.689,28.015,219.689Z" transform="translate(-11.134 -105.147)" fill="url(#linear-gradient)"/>
  <path id="Path_53222" data-name="Path 53222" d="M35.125,222.2s-4.492-1.464-5.992-2.205c0,0-4.209,2.942-2.516,5.965,2.652.855,6.893,2.467,6.893,2.467Z" transform="translate(-12.252 -105.452)" fill="url(#linear-gradient-2)"/>
  <path id="Path_53223" data-name="Path 53223" d="M129.507,207.5c-.522.429-.928.734-1.382,1.087l-1.321,1-2.622,1.972q-2.622,1.948-5.289,3.812c-3.554,2.492-7.153,4.921-10.857,7.244s-7.5,4.541-11.477,6.6c-1.986,1.027-4.022,2-6.136,2.9a65.244,65.244,0,0,1-6.573,2.478,40.531,40.531,0,0,1-7.327,1.643l-.981.119c-.324.035-.618.037-.927.056l-1.834.085c-1.241.09-2.376-.013-3.556-.03a92.113,92.113,0,0,1-13.3-1.692c-4.28-.814-8.451-1.83-12.577-2.938,0,0-10.858-4.452-11.954-4.812l2.957-8.894c1.8.584,3.789,1.155,5.715,1.661,1.947.5,3.9.976,5.863,1.393a117.384,117.384,0,0,0,11.779,1.934,67.83,67.83,0,0,0,11.431.37c.887-.09,1.829-.094,2.647-.265l1.259-.2c.2-.035.43-.054.617-.1l.549-.147a27.222,27.222,0,0,0,4.618-1.693,60.046,60.046,0,0,0,9.529-5.621,113.857,113.857,0,0,0,9.177-7.2c1.5-1.277,2.961-2.6,4.409-3.954s2.887-2.716,4.282-4.131,2.784-2.834,4.139-4.276c.675-.723,1.355-1.44,2-2.174l.966-1.1c.3-.353.656-.753.882-1.04Z" transform="translate(-12.636 -103.347)" fill="url(#linear-gradient-3)"/>
  <g id="Group_7152" data-name="Group 7152" transform="translate(20.539 102.937)" opacity="0.3" style="mix-blend-mode: multiply;isolation: isolate">
    <path id="Path_53224" data-name="Path 53224" d="M68.332,233.8q-.387,0-.772-.006a.219.219,0,0,1,0-.439h0q.872.011,1.75,0a.219.219,0,0,1,.006.439Q68.826,233.8,68.332,233.8Zm-2.522-.05H65.8q-.886-.033-1.761-.091a.22.22,0,0,1-.206-.233.207.207,0,0,1,.233-.2q.871.056,1.749.09a.219.219,0,0,1-.007.439Zm5.263-.011a.22.22,0,0,1-.01-.439q.872-.04,1.746-.106a.212.212,0,0,1,.236.2.219.219,0,0,1-.2.235q-.88.067-1.759.107Zm-8.77-.214h-.02q-.882-.076-1.753-.176a.219.219,0,1,1,.048-.436q.867.1,1.743.175a.219.219,0,0,1-.019.438Zm12.27-.055a.219.219,0,0,1-.024-.437q.868-.1,1.735-.218a.219.219,0,1,1,.063.433q-.875.126-1.75.22A.109.109,0,0,1,74.574,233.474Zm-15.762-.337-.031,0q-.879-.121-1.742-.256a.219.219,0,1,1,.068-.433q.86.135,1.734.254a.22.22,0,0,1-.029.437Zm19.237-.161a.219.219,0,0,1-.038-.435c.361-.066.721-.134,1.081-.209.21-.043.421-.086.632-.133a.219.219,0,0,1,.094.429c-.213.047-.427.093-.639.135-.363.075-.728.145-1.092.21A.193.193,0,0,1,78.05,232.976Zm-22.709-.384a.184.184,0,0,1-.039,0q-.876-.156-1.731-.327A.219.219,0,0,1,53.4,232a.224.224,0,0,1,.258-.173q.85.171,1.722.326a.219.219,0,0,1-.038.435Zm26.14-.366a.22.22,0,0,1-.055-.432q.844-.218,1.687-.466a.22.22,0,0,1,.123.422c-.566.165-1.133.322-1.7.468A.229.229,0,0,1,81.481,232.226Zm-29.587-.32a.269.269,0,0,1-.047,0q-.874-.192-1.717-.393a.219.219,0,0,1,.1-.427q.84.2,1.709.392a.219.219,0,0,1-.046.433Zm32.958-.669a.219.219,0,0,1-.069-.428q.826-.272,1.65-.569a.222.222,0,0,1,.281.131.219.219,0,0,1-.131.281q-.83.3-1.663.573A.221.221,0,0,1,84.852,231.237Zm-36.377-.145a.284.284,0,0,1-.055-.006q-.869-.225-1.7-.456a.22.22,0,1,1,.118-.423q.828.229,1.693.454a.219.219,0,0,1-.055.431Zm-3.388-.94a.18.18,0,0,1-.062-.009q-.868-.256-1.684-.514a.219.219,0,0,1,.131-.418q.814.256,1.678.512a.219.219,0,0,1-.062.43Zm43.062-.1a.219.219,0,0,1-.081-.423q.814-.321,1.62-.66a.22.22,0,0,1,.171.4q-.812.342-1.63.664A.225.225,0,0,1,88.149,230.047Zm-46.415-.95a.237.237,0,0,1-.069-.011q-.871-.292-1.666-.573a.219.219,0,1,1,.146-.414q.79.279,1.659.57a.219.219,0,0,1-.07.428Zm49.651-.417a.219.219,0,0,1-.09-.419q.8-.361,1.591-.739a.218.218,0,0,1,.293.1.22.22,0,0,1-.1.293q-.8.38-1.6.742A.218.218,0,0,1,91.385,228.68Zm-52.966-.756a.2.2,0,0,1-.076-.014q-.9-.336-1.646-.633a.22.22,0,1,1,.162-.408c.5.2,1.043.408,1.637.631a.219.219,0,0,1-.077.425Zm56.142-.761a.22.22,0,0,1-.1-.416q.783-.4,1.557-.805a.219.219,0,1,1,.206.387q-.778.414-1.566.811A.231.231,0,0,1,94.561,227.163Zm-59.411-.536a.213.213,0,0,1-.085-.018c-1.036-.437-1.617-.713-1.622-.716a.219.219,0,0,1,.188-.4c.006,0,.579.275,1.6.707a.22.22,0,0,1,.118.288A.222.222,0,0,1,35.15,226.627Zm62.517-1.11a.219.219,0,0,1-.106-.411q.769-.426,1.526-.864a.219.219,0,0,1,.3.081.221.221,0,0,1-.081.3q-.76.436-1.532.867A.222.222,0,0,1,97.668,225.517Zm3.044-1.756a.219.219,0,0,1-.114-.407q.757-.456,1.5-.916a.22.22,0,0,1,.231.374c-.5.306-1,.614-1.5.917A.214.214,0,0,1,100.712,223.76ZM103.7,221.9a.217.217,0,0,1-.184-.1.22.22,0,0,1,.066-.3q.743-.479,1.467-.961a.219.219,0,1,1,.243.366q-.726.483-1.473.965A.213.213,0,0,1,103.7,221.9Zm2.927-1.948a.22.22,0,0,1-.124-.4q.732-.5,1.441-1a.22.22,0,0,1,.254.359q-.711.5-1.445,1.006A.223.223,0,0,1,106.622,219.955Zm2.872-2.029a.219.219,0,0,1-.129-.4q.721-.524,1.413-1.041a.22.22,0,0,1,.263.352q-.694.518-1.417,1.044A.225.225,0,0,1,109.494,217.926Zm2.817-2.1a.219.219,0,0,1-.133-.393q.714-.546,1.387-1.077a.219.219,0,0,1,.271.344q-.675.532-1.391,1.08A.214.214,0,0,1,112.312,215.821Zm2.765-2.175a.22.22,0,0,1-.138-.391q.71-.572,1.36-1.112a.22.22,0,0,1,.281.338q-.653.542-1.365,1.116A.221.221,0,0,1,115.076,213.646Zm2.71-2.244a.219.219,0,0,1-.142-.387c.474-.4.919-.787,1.33-1.146a.22.22,0,0,1,.29.331q-.621.542-1.337,1.15A.221.221,0,0,1,117.786,211.4Zm2.653-2.316a.219.219,0,0,1-.146-.382c.518-.465.953-.863,1.3-1.185a.219.219,0,1,1,.3.32c-.348.324-.784.725-1.3,1.192A.223.223,0,0,1,120.439,209.087Z" transform="translate(-33.317 -207.46)" fill="url(#linear-gradient-4)"/>
  </g>
  <path id="Path_53225" data-name="Path 53225" d="M30.462,241.467a8.033,8.033,0,0,0-4.4-1.006c-2.357.223-4.227,3.342-4.095,7.145s-1.021,11.5-.123,13.2,2.365.54,3.48-1.808,2.6-11.077,5.419-11.419C32.174,246.8,31.932,242.106,30.462,241.467Z" transform="translate(-11.902 -106.968)" fill="url(#linear-gradient-5)"/>
  <path id="Path_53226" data-name="Path 53226" d="M37.5,240.865s-4.682.637-6.353.634c0,0-1.222,3.647.281,6.109,2.76-.382,7.278-.788,7.278-.788Z" transform="translate(-12.583 -107)" fill="url(#linear-gradient-6)"/>
  <path id="Path_53227" data-name="Path 53227" d="M129.514,206.747c-3.318,2.754-6.512,5.384-9.815,8.019q-4.907,3.964-9.936,7.832c-3.381,2.567-6.777,5.138-10.378,7.633l-2.758,1.862-2.942,1.841-1.658.928-.829.456c-.149.078-.252.145-.439.231l-.536.248q-1.075.493-2.156.942c-.661.226-1.278.393-1.917.585-2.448.672-4.52,1.047-6.662,1.446-2.114.37-4.2.72-6.278,1.025-4.155.635-8.277,1.168-12.391,1.72s-8.223,1.042-12.329,1.537L36.169,244.52l-1.431-8.071c7.949-1.938,15.9-4.034,23.774-6.24,3.937-1.092,7.856-2.247,11.708-3.454,1.934-.594,3.834-1.223,5.7-1.855,1.832-.636,3.736-1.316,5.173-1.979.323-.164.684-.318.974-.476a7.3,7.3,0,0,1,.586-.464l.149-.1c.044-.027.145-.118.216-.173l.465-.381.929-.746,2.028-1.8,2.072-1.965c2.766-2.7,5.54-5.558,8.249-8.506s5.393-5.974,8.048-9.024c2.622-3.057,5.289-6.186,7.763-9.258Z" transform="translate(-12.884 -103.23)" fill="url(#linear-gradient-7)"/>
  <g id="Group_7153" data-name="Group 7153" transform="translate(22.916 100.51)" opacity="0.3" style="mix-blend-mode: multiply;isolation: isolate">
    <path id="Path_53228" data-name="Path 53228" d="M36.1,243.149a.219.219,0,0,1-.031-.436c.328-.049-.064-.01.757-.136a.22.22,0,1,1,.067.434c-.822.126-.431.087-.759.136Zm2.5-.4a.219.219,0,0,1-.033-.436c.533-.082,1.115-.174,1.74-.274a.22.22,0,1,1,.069.434c-.625.1-1.207.191-1.742.273Zm3.48-.55a.219.219,0,0,1-.035-.436l1.738-.283a.224.224,0,0,1,.252.181.22.22,0,0,1-.181.253l-1.739.283Zm3.474-.569a.22.22,0,0,1-.035-.436l1.735-.289a.216.216,0,0,1,.253.18.219.219,0,0,1-.18.253l-1.736.29Zm3.471-.583a.22.22,0,0,1-.037-.436l1.733-.3a.215.215,0,0,1,.254.179.22.22,0,0,1-.178.254l-1.735.3A.173.173,0,0,1,49.03,241.042Zm3.466-.6a.22.22,0,0,1-.037-.436c.57-.1,1.147-.2,1.731-.307a.22.22,0,1,1,.077.432q-.876.157-1.733.307A.178.178,0,0,1,52.5,240.439Zm3.463-.618a.22.22,0,0,1-.04-.436l1.73-.318a.219.219,0,1,1,.08.431l-1.73.318A.193.193,0,0,1,55.959,239.821Zm3.459-.642a.22.22,0,0,1-.041-.436q.862-.161,1.728-.327a.216.216,0,0,1,.257.174.22.22,0,0,1-.175.256c-.578.11-1.155.221-1.729.329A.194.194,0,0,1,59.418,239.179Zm3.454-.664a.219.219,0,0,1-.042-.434l1.728-.343a.219.219,0,0,1,.085.431q-.862.172-1.729.342A.222.222,0,0,1,62.872,238.516Zm3.451-.691a.22.22,0,0,1-.044-.435q.864-.176,1.721-.356a.22.22,0,0,1,.09.43q-.858.179-1.724.356A.232.232,0,0,1,66.323,237.825Zm3.443-.721a.22.22,0,0,1-.046-.434q.865-.185,1.717-.375a.22.22,0,1,1,.094.43q-.851.189-1.72.374A.191.191,0,0,1,69.766,237.1Zm3.435-.761a.219.219,0,0,1-.049-.433q.867-.2,1.712-.4a.217.217,0,0,1,.264.163.219.219,0,0,1-.163.264q-.847.2-1.715.4A.3.3,0,0,1,73.2,236.343Zm3.423-.808a.22.22,0,0,1-.052-.433q.867-.214,1.7-.428a.223.223,0,0,1,.267.158.219.219,0,0,1-.158.267q-.837.215-1.708.43A.2.2,0,0,1,76.624,235.534Zm3.409-.877a.219.219,0,0,1-.057-.431c.579-.157,1.144-.313,1.692-.47a.22.22,0,0,1,.12.422c-.55.156-1.117.315-1.7.471A.208.208,0,0,1,80.033,234.658Zm3.383-.97a.22.22,0,0,1-.065-.43q.874-.268,1.67-.536a.22.22,0,0,1,.14.417q-.8.269-1.681.54A.254.254,0,0,1,83.416,233.687Zm3.334-1.128a.219.219,0,0,1-.078-.424c.518-.2,1.059-.423,1.607-.672a.219.219,0,1,1,.181.4c-.556.254-1.106.484-1.634.682A.206.206,0,0,1,86.75,232.56Zm3.2-1.448a.219.219,0,0,1-.1-.414q.76-.394,1.536-.837a.22.22,0,1,1,.218.381q-.783.447-1.552.844A.209.209,0,0,1,89.95,231.112Zm3.057-1.739a.217.217,0,0,1-.187-.1.219.219,0,0,1,.071-.3q.736-.453,1.479-.939a.219.219,0,1,1,.24.368q-.749.49-1.489.944A.218.218,0,0,1,93.008,229.373Zm2.943-1.921a.22.22,0,0,1-.125-.4q.717-.494,1.434-1.011a.222.222,0,0,1,.306.049.22.22,0,0,1-.05.307q-.722.519-1.441,1.016A.223.223,0,0,1,95.951,227.452Zm2.855-2.054a.219.219,0,0,1-.131-.4q.7-.522,1.4-1.062a.217.217,0,0,1,.308.038.22.22,0,0,1-.04.308q-.7.542-1.4,1.068A.221.221,0,0,1,98.806,225.4Zm2.781-2.152a.219.219,0,0,1-.137-.391q.687-.549,1.367-1.106a.22.22,0,0,1,.279.34q-.683.56-1.371,1.109A.216.216,0,0,1,101.587,223.246Zm2.722-2.229a.216.216,0,0,1-.168-.078.219.219,0,0,1,.026-.309q.675-.568,1.338-1.138a.22.22,0,1,1,.287.332q-.665.572-1.342,1.142A.22.22,0,0,1,104.309,221.016Zm2.667-2.291a.219.219,0,0,1-.144-.384q.665-.586,1.315-1.167a.22.22,0,1,1,.293.328q-.65.582-1.317,1.167A.218.218,0,0,1,106.977,218.725Zm2.622-2.347a.216.216,0,0,1-.162-.072.218.218,0,0,1,.014-.309q.66-.6,1.293-1.19a.22.22,0,0,1,.3.322q-.636.589-1.3,1.192A.223.223,0,0,1,109.6,216.378Zm2.579-2.392a.219.219,0,0,1-.15-.379q.654-.618,1.274-1.211a.219.219,0,1,1,.3.317q-.619.593-1.276,1.213A.216.216,0,0,1,112.178,213.985Zm2.541-2.434a.222.222,0,0,1-.157-.066.219.219,0,0,1,0-.31q.655-.639,1.255-1.232a.219.219,0,1,1,.308.312q-.6.593-1.258,1.234A.215.215,0,0,1,114.719,211.551Zm2.5-2.475a.22.22,0,0,1-.156-.375c.449-.449.862-.868,1.237-1.251a.219.219,0,0,1,.314.306q-.564.576-1.24,1.255A.22.22,0,0,1,117.223,209.077Zm2.466-2.517a.218.218,0,0,1-.157-.371c.781-.814,1.215-1.28,1.216-1.28a.221.221,0,0,1,.31-.012.219.219,0,0,1,.011.31s-.435.468-1.221,1.285A.215.215,0,0,1,119.688,206.559Z" transform="translate(-35.885 -204.839)" fill="url(#linear-gradient-8)"/>
  </g>
  <path id="Path_53229" data-name="Path 53229" d="M208.5,100.28a25.861,25.861,0,0,1,1.123-3.315c.349-.841.166-1.054-1.364.184s-2.693,3.75-3.7,6.29a15.768,15.768,0,0,1-1.627,3.33l-19.4,21.8L155.389,147.7l7.447,9.517,25.507-22.877.5-.446.1-.135,16.8-24.881,1.047-1.345a8.935,8.935,0,0,0,4.122-2.764C212.281,102.838,208.5,100.28,208.5,100.28Z" transform="translate(-21.831 -96.278)" fill="url(#linear-gradient-9)"/>
  <path id="Path_53230" data-name="Path 53230" d="M186.559,124.119a25.942,25.942,0,0,1,7.646,6c-.522,2.08-12.049,20.91-30.477,30.245-9.947,1.931-14.756-8.989-4.66-14.9S184.5,128.216,186.559,124.119Z" transform="translate(-21.69 -98.342)" fill="url(#linear-gradient-10)"/>
  <path id="Path_53231" data-name="Path 53231" d="M162.292,157.563c-.785-2.18-4.027-9.682-12.234-12.291-9.645-3.066-18.173,24.1-24.336,28.825-5.032,3.854-11.724,8.553-16.737,10.769a4.014,4.014,0,0,0-2,5.33c1.568,3.5,5.017,7.4,11.686,10.36,5.946,2.635,8.692,5.719,10.1,8.209a3.987,3.987,0,0,0,5.522,1.415c9.7-5.818,30.209-21.092,28.231-51.493A4.118,4.118,0,0,0,162.292,157.563Z" transform="translate(-18.216 -99.893)" fill="url(#linear-gradient-11)"/>
  <path id="Path_53232" data-name="Path 53232" d="M152.367,145.478c-3.664-1.7-7.521-4.185-11.4-5.213-5.118-1.355-9.8,3.028-9.778,8.016.017,3.833-2.6,8.189-4.863,11.326s.871,9.932,5.75,7.841,12.491-6.1,15.568-9.234c3.425-.7,13.2-3.257,11.567-6.682S152.367,145.478,152.367,145.478Z" transform="translate(-19.62 -99.521)" fill="url(#linear-gradient-12)"/>
  <path id="Path_53233" data-name="Path 53233" d="M143.009,160.039a6.094,6.094,0,0,0-7.871-4.516l-21.984,7.257a7.6,7.6,0,0,0-1.125.463c-.223.113-.268.146-.344.191l-.228.135-.912.54-1.823,1.081-3.647,2.162-7.293,4.323-14.5,10.044s-2.724-.184-3.45.7a24.667,24.667,0,0,1-4.236-.1c-.693-.051,1.771,1.451,2.675,1.708s.744,3.52-2.493,5.854c-1.233.88-2.056,2.494.92,1.854s4.949-3.205,6.092-5.588a20.273,20.273,0,0,1,1.881-1.624l16.1-7,7.771-3.39,3.886-1.7,1.942-.848.971-.424.243-.106c.081-.036.192-.085.128-.047a1.041,1.041,0,0,1-.137.087c-.013.01-.076.03-.05.03l.263-.039.524-.079,1.048-.156,2.1-.313,4.192-.626,8.386-1.252,6.324-1.4a6.094,6.094,0,0,0,4.648-7.223Z" transform="translate(-15.845 -100.648)" fill="url(#linear-gradient-13)"/>
  <path id="Path_53234" data-name="Path 53234" d="M106.366,165.487s.975,7.9,4.431,10.528c1.493-.7,4.449-2.178,6.536-3.23a13.459,13.459,0,0,1,4.834-1.381c8.284-.758,34.08-3.88,30.465-13.125a11.306,11.306,0,0,0-3.287-5.117c-2.314-1.758-5.491-1.734-8.241-1.415a71.142,71.142,0,0,0-17.251,4.476c-5.313,2.043-10.9,4.315-15.5,7.7C108.145,164.07,106.331,165.206,106.366,165.487Z" transform="translate(-18.196 -100.379)" fill="url(#linear-gradient-14)"/>
  <path id="Path_53235" data-name="Path 53235" d="M151.31,146.245s-7.056-4.006-8.773-3.493,2.54,4.514,5.3,5.97,7.712,3.128,8.725,1.7C155.407,148.974,151.31,146.245,151.31,146.245Z" transform="translate(-20.849 -99.721)" opacity="0.5" fill="url(#linear-gradient-12)" style="mix-blend-mode: multiply;isolation: isolate"/>
  <path id="Path_53236" data-name="Path 53236" d="M155.6,140.793a9.6,9.6,0,0,1-2.31,3.315,13.358,13.358,0,0,1-2.9,2.836c-.118.064-2.722,1.242-2.341,1.454.073.041.145.083.219.123,2.759,1.454,7.712,3.128,8.725,1.7.411-3.208,4.791-6.985,4.791-6.985C161.975,141.742,156.338,138.546,155.6,140.793Z" transform="translate(-21.285 -99.521)" fill="url(#linear-gradient-16)"/>
  <path id="Path_53237" data-name="Path 53237" d="M152.056,127.152s1.653-4.451,7.839-3.577,10.858,14.7,8.7,18.7-12.123.967-13.839-.318S148.371,131.2,152.056,127.152Z" transform="translate(-21.482 -98.294)" fill="url(#linear-gradient-17)"/>
  <path id="Path_53238" data-name="Path 53238" d="M160.88,126.01s5.51-3.559,3.248-9.031-8.29-5.644-10.173-1.588a16.9,16.9,0,0,1-8.049,7.932c-2.447,1.016-6.716,9.131.484,15.367,5.608,3.8,7.877,3.638,9.335,2.385s-.181-2.712-.88-3.377-2.76-4.72-.354-5.73c1.113-.455,2.7,1.155,3.047,3.161s2.858,2.578,2.53.721S157.116,128.42,160.88,126.01Z" transform="translate(-20.868 -97.487)" fill="url(#linear-gradient-18)"/>
  <g id="Group_7154" data-name="Group 7154" transform="translate(123.075 53.778)">
    <path id="Path_53239" data-name="Path 53239" d="M148.219,176.311a9.649,9.649,0,0,1-3.894-.95.439.439,0,0,1,.36-.8c1.268.57,5.535,2.153,7.16-1.4.2-.44.367-.917.528-1.378a10.338,10.338,0,0,1,1.055-2.355,10.647,10.647,0,0,1,3.323-2.878c1.516-.981,2.947-1.907,3.536-3.633a6.871,6.871,0,0,0-2.764-7.74.439.439,0,1,1,.469-.743,7.68,7.68,0,0,1,3.126,8.765c-.688,2.015-2.316,3.068-3.89,4.088a9.875,9.875,0,0,0-3.068,2.626,9.521,9.521,0,0,0-.957,2.16c-.168.48-.341.975-.558,1.452A4.577,4.577,0,0,1,148.219,176.311Z" transform="translate(-144.066 -154.363)" fill="url(#linear-gradient-19)"/>
  </g>
  <g id="Group_7155" data-name="Group 7155" transform="translate(139.149 51.572)">
    <path id="Path_53240" data-name="Path 53240" d="M167.454,178.341a.439.439,0,0,1-.173-.843,3.752,3.752,0,0,0,1.875-1.983,4.028,4.028,0,0,0-.515-3.262c-1.276-2.347-.623-4.353.069-6.475.122-.377.247-.761.365-1.157,2.128-7.171-4.444-10.635-7.369-11.793a.439.439,0,1,1,.323-.816c6.657,2.633,9.532,7.32,7.888,12.859-.12.4-.248.8-.373,1.18-.658,2.021-1.227,3.768-.131,5.784a4.852,4.852,0,0,1,.568,3.978,4.579,4.579,0,0,1-2.356,2.493A.43.43,0,0,1,167.454,178.341Z" transform="translate(-161.429 -151.98)" fill="url(#linear-gradient-20)"/>
  </g>
</svg>
