<svg id="Group_7151" data-name="Group 7151" xmlns="http://www.w3.org/2000/svg" xmlns:xlink="http://www.w3.org/1999/xlink" width="165.837" height="285.605" viewBox="0 0 165.837 285.605">
  <defs>
    <linearGradient id="linear-gradient" x1="0.631" y1="-0.163" x2="0.347" y2="0.651" gradientUnits="objectBoundingBox">
      <stop offset="0" stop-color="#687ed5"/>
      <stop offset="0.98" stop-color="#4c499f"/>
    </linearGradient>
    <linearGradient id="linear-gradient-2" y1="0.5" x2="1" y2="0.5" gradientUnits="objectBoundingBox">
      <stop offset="0.022" stop-color="#f6c9ad"/>
      <stop offset="0.397" stop-color="#f4c5aa"/>
      <stop offset="0.72" stop-color="#eebba1"/>
      <stop offset="1" stop-color="#e5ab95"/>
    </linearGradient>
    <linearGradient id="linear-gradient-3" x1="0.585" y1="0.457" x2="0.253" y2="0.572" gradientUnits="objectBoundingBox">
      <stop offset="0.013" stop-color="#008162"/>
      <stop offset="0.997" stop-color="#00b481"/>
    </linearGradient>
    <linearGradient id="linear-gradient-4" x1="0.452" y1="1.553" x2="0.824" y2="1.902" xlink:href="#linear-gradient-2"/>
    <linearGradient id="linear-gradient-5" x1="0.518" y1="0.538" x2="0.296" y2="-0.046" gradientUnits="objectBoundingBox">
      <stop offset="0" stop-color="#4e1790"/>
      <stop offset="0.981" stop-color="#8c43a2"/>
    </linearGradient>
    <linearGradient id="linear-gradient-6" x1="0.233" y1="-0.032" x2="0.766" y2="0.627" xlink:href="#linear-gradient"/>
    <linearGradient id="linear-gradient-8" x1="0.132" y1="0.018" x2="0.594" y2="0.716" gradientUnits="objectBoundingBox">
      <stop offset="0" stop-color="#008162"/>
      <stop offset="0.997" stop-color="#00b481"/>
    </linearGradient>
    <linearGradient id="linear-gradient-9" x1="0.495" y1="0.058" x2="0.515" y2="1.005" gradientUnits="objectBoundingBox">
      <stop offset="0.019" stop-color="#8c43a2"/>
      <stop offset="1" stop-color="#4e1790"/>
    </linearGradient>
    <linearGradient id="linear-gradient-10" y1="0.5" x2="1" y2="0.5" gradientUnits="objectBoundingBox">
      <stop offset="0" stop-color="#f9ed32"/>
      <stop offset="0.661" stop-color="#fac220"/>
      <stop offset="0.974" stop-color="#fbad18"/>
    </linearGradient>
    <linearGradient id="linear-gradient-12" x1="0.5" y1="0.793" x2="0.5" y2="0.338" xlink:href="#linear-gradient-2"/>
    <linearGradient id="linear-gradient-13" x1="0.761" y1="0.316" x2="0.195" y2="0.678" xlink:href="#linear-gradient-9"/>
    <linearGradient id="linear-gradient-14" x1="0.503" y1="0.805" x2="0.477" y2="0.161" gradientUnits="objectBoundingBox">
      <stop offset="0.022" stop-color="#f6c9ad"/>
      <stop offset="0.42" stop-color="#f1c0a5"/>
      <stop offset="1" stop-color="#e5ab95"/>
    </linearGradient>
    <linearGradient id="linear-gradient-15" x1="-0.046" y1="0.334" x2="0.645" y2="0.549" gradientUnits="objectBoundingBox">
      <stop offset="0.022" stop-color="#f6c9ad"/>
      <stop offset="0.582" stop-color="#f4c7ab"/>
      <stop offset="0.784" stop-color="#f1c0a6"/>
      <stop offset="0.927" stop-color="#eab49c"/>
      <stop offset="1" stop-color="#e5ab95"/>
    </linearGradient>
    <linearGradient id="linear-gradient-16" x1="0.457" y1="-0.007" x2="0.552" y2="0.877" xlink:href="#linear-gradient"/>
  </defs>
  <path id="Path_53205" data-name="Path 53205" d="M356.193,393.795a11.532,11.532,0,0,1,2.846.855c2.326.867,6.345,2.367,5.253,5.374s-5.607,9.315-7.177,15.525-5.633,5.977-5.694,3.486,2.8-13.623,1.079-15.732a4.589,4.589,0,0,1-1.247-3.845S353.9,394.733,356.193,393.795Z" transform="translate(-249.339 -135.068)" fill="url(#linear-gradient)"/>
  <path id="Path_53206" data-name="Path 53206" d="M350.35,389.728l6.2,5.278a1.422,1.422,0,0,1,.451,1.468,4.97,4.97,0,0,1-3.427,3.678,1.339,1.339,0,0,1-1.031-.17c-2.229-1.351-7.443-5.307-7.443-5.307Z" transform="translate(-250.305 -135.712)" fill="url(#linear-gradient-2)"/>
  <path id="Path_53207" data-name="Path 53207" d="M301.06,302.7l.078-2.589.058-1.323c.027-.474.041-.854.093-1.469l33.063,4.671a6.324,6.324,0,0,0-.241.783l-.255.987-.5,2.053c-.322,1.391-.627,2.807-.916,4.23-.582,2.849-1.095,5.733-1.541,8.625a167.319,167.319,0,0,0-1.793,17.36,109.943,109.943,0,0,0,.38,16.967,59.048,59.048,0,0,0,3.574,15.461l-.44-.682a104.488,104.488,0,0,0,5.9,9.756c2.188,3.3,4.537,6.58,6.932,9.843s4.864,6.51,7.373,9.73,5.39,5.846,8.478,9.233a6.083,6.083,0,0,1-2.174,4.3,7.475,7.475,0,0,1-4.3,2c-3.256-2.625-6.421-5.257-9.592-7.944s-6.3-5.4-9.41-8.193-6.192-5.621-9.224-8.6a127.923,127.923,0,0,1-8.967-9.569l-.355-.549a76.855,76.855,0,0,1-9.24-19.467,130.9,130.9,0,0,1-4.708-20.158,192.731,192.731,0,0,1-2.052-20.218q-.254-5.057-.272-10.13C301.01,306.109,301.022,304.41,301.06,302.7Z" transform="translate(-257.292 -150.358)" fill="url(#linear-gradient-3)"/>
  <path id="Path_53208" data-name="Path 53208" d="M266.572,175.706c.294-1.639-.154-4.459.206-5.17s1.892,3.967,2.595,5.754,2.086.87,2.326,2.69a40.871,40.871,0,0,1-.387,6.63c.108.759.328,1.755.557,2.69.235.953.5,1.918.768,2.885.548,1.931,1.147,3.867,1.769,5.795q1.877,5.787,4.033,11.483c1.431,3.789,2.242,5.4,3.855,9.057a109.408,109.408,0,0,0,5.217,10.492c.78,1.33,1.614,2.688,2.494,3.943.769,1.1,1.961,1.323,3.215,1.638,1.448.364,2.874.809,4.328,1.156,1.871.455,3.8.879,5.746,1.285,4.444.916,8.992,1.755,13.549,2.527a9.72,9.72,0,1,1-4.824,18.759c-4.545-1.591-9.063-3.248-13.627-5.03-1.987-.781-3.976-1.587-5.992-2.459s-4.049-1.8-6.248-2.955l-1.745-.988c-.079-.042-.439-.258-.721-.445a8.319,8.319,0,0,1-.784-.563,13.318,13.318,0,0,1-1.22-1.089,19.428,19.428,0,0,1-2.8-3.757,45.27,45.27,0,0,1-3.046-6.529,121.443,121.443,0,0,1-3.87-12.405c-1.072-4.1-1.3-6.057-2.139-10.161s-1.582-8.216-2.223-12.353c-.319-2.07-.613-4.144-.857-6.243-.123-1.05-.234-2.1-.322-3.179a32.381,32.381,0,0,1-.131-3.429s-2.64-4.087-2.988-5.872S265.607,176.023,266.572,175.706Z" transform="translate(-263.273 -170.463)" fill="url(#linear-gradient-4)"/>
  <path id="Path_53209" data-name="Path 53209" d="M291.027,223.747l22.456,2.841a12.886,12.886,0,0,1,11.024,10.5c1.329,8.582-6.594,16.4-14.008,15.614-6.878,1.848-24.742-10.1-27.768-12.548C283.754,230.923,291.027,223.747,291.027,223.747Z" transform="translate(-260.189 -162.018)" fill="url(#linear-gradient-5)"/>
  <path id="Path_53210" data-name="Path 53210" d="M396.922,366.857s.394-.645,2.711-1.256,6.462-.975,6.95,2.074-.365,10.486,1.22,16.46-1.951,7.682-3.171,5.609-4.023-12.8-6.462-13.779-2.989-1.8-2.989-1.8S395.431,368.721,396.922,366.857Z" transform="translate(-242.368 -139.602)" fill="url(#linear-gradient-6)"/>
  <path id="Path_53211" data-name="Path 53211" d="M390.3,364.735l8,2.5a1.024,1.024,0,0,1,.671.645c.4,1.169,1.077,4.144-1.461,6.067a1.029,1.029,0,0,1-.867.164c-2.765-.7-8.859-1.472-8.859-1.472Z" transform="translate(-243.541 -139.673)" fill="url(#linear-gradient-2)"/>
  <path id="Path_53212" data-name="Path 53212" d="M344.243,295.126c1.15,4.6,2.444,9.4,3.747,14.084q1.964,7.062,4.088,14.054c1.423,4.649,2.9,9.27,4.467,13.8,1.574,4.511,3.234,9,5.053,13.09a54.767,54.767,0,0,0,2.74,5.453l.311.527.241.372a3.9,3.9,0,0,0,.637.766c.259.265.439.542.754.833l1.075.886a23.966,23.966,0,0,0,2.446,1.785c.823.614,1.854,1.145,2.789,1.723s1.987,1.1,2.995,1.64,2.068,1.052,3.129,1.561A208.382,208.382,0,0,0,405.74,376s1.324,1.819.513,5.246-2.551,4.332-2.551,4.332a218.685,218.685,0,0,1-30.454-5.545c-1.281-.344-2.564-.682-3.86-1.105s-2.585-.773-3.9-1.285-2.617-.9-3.978-1.547a40.1,40.1,0,0,1-4.109-1.971l-2.111-1.187c-.722-.446-1.5-1.048-2.235-1.588a18.675,18.675,0,0,1-2.223-1.833c-.36-.348-.753-.724-1.076-1.062l-.887-.971a72.8,72.8,0,0,1-5.546-7.207c-3.157-4.615-5.832-9.129-8.437-13.674-2.582-4.537-5.024-9.078-7.405-13.633s-4.678-9.123-6.929-13.713c-2.263-4.62-4.437-9.128-6.639-13.946Z" transform="translate(-255.248 -150.705)" fill="url(#linear-gradient-8)"/>
  <path id="Path_53213" data-name="Path 53213" d="M299.837,238.927c12.128-14.618,28.189-11.485,28.254-11.478a37.644,37.644,0,0,1,15.4,4.724c4.247,2.5,10.774,5.071,12.08,9.822,1.637,5.953-1.278,10.571-2.863,16.068-1.655,5.741-2.295,11.722-2.965,17.639-.8,7.07-1.862,14.546-.253,21.572,1.529,6.679,3.487,13.243,5.576,19.765a2.265,2.265,0,0,1-2.388,2.946,52.454,52.454,0,0,0-20.744,2.327c-13.707,4.362-35.2-.312-34.58-3.738s-.326-13.6-.948-22.95S287.687,253.568,299.837,238.927Z" transform="translate(-258.532 -161.477)" fill="url(#linear-gradient-9)"/>
  <g id="Group_7150" data-name="Group 7150" transform="translate(34.66 89.761)">
    <path id="Path_53214" data-name="Path 53214" d="M351.675,258.975c-.929,4.427-1.421,8.948-1.929,13.434-.057.507-.116,1.021-.175,1.532-1.163.037-2.506.065-4.054.065-11.322,0-32.23-1.408-52.274-10.17a67.5,67.5,0,0,1,1.128-15.891c.022.01.045.019.067.03C318.19,260.208,346.14,259.3,351.675,258.975Z" transform="translate(-293.191 -247.944)" fill="url(#linear-gradient-10)"/>
    <path id="Path_53215" data-name="Path 53215" d="M293.528,266.644c22.065,10.314,46.883,10.008,55.436,9.524a58.422,58.422,0,0,0-.195,10.326c-.787.043-1.659.081-2.625.112-10.509.335-31.108-.291-51.253-8.188C294.388,274.867,293.87,270.846,293.528,266.644Z" transform="translate(-293.138 -244.98)" fill="url(#linear-gradient-10)"/>
  </g>
  <path id="Path_53216" data-name="Path 53216" d="M344.839,250.127a9.41,9.41,0,0,1,2.246-2.279c5.33-3.8,10.439.884,13.7,5.031,3.939,5,8.039,10.687,10.553,16.536.544,1.271.886,2.431,1.328,3.645.386,1.189.689,2.344,1.033,3.511.612,2.317,1.177,4.607,1.644,6.884.973,4.554,1.083,6.488,1.772,11s1.311,9.018,1.843,13.529c.526,4.537,1.03,8.961,1.355,13.63a18.055,18.055,0,0,1,2.843,5.971c.593,2.939-2.845,3.6-5.912,3.818a2.323,2.323,0,0,1-2.662-2.748,5.9,5.9,0,0,1-1.162-3.424c.168-1.6,1.806-4.02,1.857-4.124-.927-3.67-2.154-8.033-3.222-11.716q-1.877-6.433-3.975-12.768c-1.388-4.219-2.186-5.812-3.789-9.858-.787-2.036-1.644-4-2.51-5.926-.456-.928-.89-1.894-1.355-2.781-.483-.829-.94-1.776-1.426-2.5a15.027,15.027,0,0,0-1.493-2.01l-.794-.916-1.017-1-1.015-1-1.135-1.017c-.74-.678-1.5-1.353-2.331-2.023-3.494-2.829-6.848-3.472-7.718-8.3a16.054,16.054,0,0,1-.288-5.052A9.51,9.51,0,0,1,344.839,250.127Z" transform="translate(-250.619 -158.42)" fill="url(#linear-gradient-12)"/>
  <path id="Path_53217" data-name="Path 53217" d="M370.895,263.217a23.411,23.411,0,0,1-14.422,9.929c-3.369-2.451-16.888-11.51-23.127-16.384-7.015-5.483.865-18.821,7.747-20.228,8.246-1.687,16.053,7.4,20.825,12.982C365.381,253.566,368.132,258.653,370.895,263.217Z" transform="translate(-252.602 -160.024)" fill="url(#linear-gradient-13)"/>
  <path id="Path_53218" data-name="Path 53218" d="M315.525,234.363a6.767,6.767,0,0,1,4.479-4.1c.915-3.539,2.042-9.646,2.042-9.646,1.687-.971,9.6-.622,9.6-.622.092,1.43.153,2.861.2,4.293.065,1.938-.125,3.985-.115,5.965.009,1.857.936,4.176.361,5.953a5.6,5.6,0,0,1-2.1,2.718,10.142,10.142,0,0,1-6.891,1.823C319.895,240.387,314.386,238.635,315.525,234.363Z" transform="translate(-255.016 -162.622)" fill="url(#linear-gradient-14)"/>
  <path id="Path_53219" data-name="Path 53219" d="M342.664,207.577s-.634-6.877-9.651-7.992-20.816,16.526-19.305,22.958,16.657,5.951,19.553,4.8S346.307,214.656,342.664,207.577Z" transform="translate(-255.301 -165.856)" fill="url(#linear-gradient-15)"/>
  <path id="Path_53220" data-name="Path 53220" d="M328.316,203.744s-5.64-1.556-5-6.225,5.621-7.782,8.266-3.423c1.245-1.712,7.937-4.669,9.337,0,.622,3.734,0,4.2,0,4.2s5.758-1.233,6.691,2.5-1.4,5.44-1.4,5.44,6.069,10.426-.312,18.207c-3.59,3.591-9.549,6.908-13.385,6.231a2.279,2.279,0,0,1-1.661-3.119c.71-1.775,2.06-2.98,3.262-4.4a3.716,3.716,0,0,1,1.3-1.206,18.969,18.969,0,0,0,2.479-1.121,4.059,4.059,0,0,0,1.858-3.245c0-1.44-1.388-3.314-2.977-2.758a8.869,8.869,0,0,0-3.46,2.232c-.58.606-1,1.506-1.966,1.423-2.552-.219-1-3.261.078-4.15,3.58-2.956,7.937-7,5.6-7.78S330.406,204.676,328.316,203.744Z" transform="translate(-253.765 -167.115)" fill="url(#linear-gradient-16)"/>
</svg>
