<svg id="Group_7162" data-name="Group 7162" xmlns="http://www.w3.org/2000/svg" xmlns:xlink="http://www.w3.org/1999/xlink" width="314.475" height="253.988" viewBox="0 0 314.475 253.988">
  <defs>
    <linearGradient id="linear-gradient" x1="0.354" y1="0.504" x2="0.262" y2="0.904" gradientUnits="objectBoundingBox">
      <stop offset="0.022" stop-color="#f6c9ad"/>
      <stop offset="0.571" stop-color="#f4c7ab"/>
      <stop offset="0.778" stop-color="#f1c0a5"/>
      <stop offset="0.927" stop-color="#eab49c"/>
      <stop offset="1" stop-color="#e5ab95"/>
    </linearGradient>
    <linearGradient id="linear-gradient-2" x1="0.287" y1="0.556" x2="0.526" y2="0.341" gradientUnits="objectBoundingBox">
      <stop offset="0" stop-color="#4e1790"/>
      <stop offset="0.981" stop-color="#8c43a2"/>
    </linearGradient>
    <linearGradient id="linear-gradient-3" x1="0.916" y1="1.334" x2="-0.262" y2="0.602" gradientUnits="objectBoundingBox">
      <stop offset="0.016" stop-color="#901823"/>
      <stop offset="0.978" stop-color="#ef4351"/>
    </linearGradient>
    <linearGradient id="linear-gradient-4" x1="-0.384" y1="0.938" x2="0.456" y2="0.938" gradientUnits="objectBoundingBox">
      <stop offset="0.026" stop-color="#fbad18"/>
      <stop offset="0.266" stop-color="#faa818"/>
      <stop offset="0.512" stop-color="#f89c1b"/>
      <stop offset="0.76" stop-color="#f5881e"/>
      <stop offset="1" stop-color="#f26d24"/>
    </linearGradient>
    <linearGradient id="linear-gradient-5" x1="-0.02" y1="0.495" x2="0.959" y2="0.495" xlink:href="#linear-gradient-2"/>
    <linearGradient id="linear-gradient-6" x1="0.239" y1="0.552" x2="-0.217" y2="0.782" xlink:href="#linear-gradient"/>
    <linearGradient id="linear-gradient-7" x1="0.426" y1="1.286" x2="-1.27" y2="0.373" xlink:href="#linear-gradient-3"/>
    <linearGradient id="linear-gradient-8" x1="0.604" y1="0.254" x2="0.347" y2="0.753" xlink:href="#linear-gradient-2"/>
    <linearGradient id="linear-gradient-9" x1="-2.967" y1="0.764" x2="-2.505" y2="0.764" xlink:href="#linear-gradient-4"/>
    <linearGradient id="linear-gradient-10" x1="-2.983" y1="-1.514" x2="-2.072" y2="-1.514" xlink:href="#linear-gradient-2"/>
    <linearGradient id="linear-gradient-11" x1="-0.039" y1="0.511" x2="0.896" y2="0.511" xlink:href="#linear-gradient-2"/>
    <linearGradient id="linear-gradient-12" x1="0.984" y1="1.309" x2="0.606" y2="0.715" xlink:href="#linear-gradient"/>
    <linearGradient id="linear-gradient-13" x1="0.896" y1="-0.231" x2="0.533" y2="0.321" xlink:href="#linear-gradient-4"/>
    <radialGradient id="radial-gradient" cx="0.432" cy="0.312" r="0.53" gradientTransform="matrix(-0.371, 0.946, -1.794, -0.541, 1.063, -0.022)" xlink:href="#linear-gradient-4"/>
    <linearGradient id="linear-gradient-14" x1="0.728" y1="0.746" x2="0.715" y2="-0.009" gradientUnits="objectBoundingBox">
      <stop offset="0.022" stop-color="#f6c9ad"/>
      <stop offset="0.397" stop-color="#f4c5aa"/>
      <stop offset="0.72" stop-color="#eebba1"/>
      <stop offset="1" stop-color="#e5ab95"/>
    </linearGradient>
    <linearGradient id="linear-gradient-15" x1="0.489" y1="0.116" x2="0.586" y2="0.611" xlink:href="#linear-gradient-14"/>
    <linearGradient id="linear-gradient-16" x1="0.486" y1="-0.308" x2="0.555" y2="0.811" xlink:href="#linear-gradient-4"/>
    <linearGradient id="linear-gradient-17" x1="0.73" y1="0.14" x2="0.532" y2="0.727" xlink:href="#linear-gradient-14"/>
    <linearGradient id="linear-gradient-18" x1="0.866" y1="0.955" x2="0.651" y2="0.073" xlink:href="#linear-gradient-3"/>
    <linearGradient id="linear-gradient-19" x1="1.381" y1="-0.234" x2="0.594" y2="0.357" gradientUnits="objectBoundingBox">
      <stop offset="0.019" stop-color="#8c43a2"/>
      <stop offset="1" stop-color="#4e1790"/>
    </linearGradient>
    <linearGradient id="linear-gradient-20" x1="0.212" y1="0.718" x2="0.61" y2="0.323" xlink:href="#linear-gradient-3"/>
  </defs>
  <path id="Path_53261" data-name="Path 53261" d="M478.845,206.288s5.079-2.974,6.51-5.708,5.644-2.441,6.938.792,8.455,15.825,10.142,19.694-4.278,2.728-7.475-1.173-8.263-6.664-11.542-5.389C480.076,215.8,478.273,207.749,478.845,206.288Z" transform="translate(-188.254 -48.894)" fill="url(#linear-gradient)"/>
  <path id="Path_53262" data-name="Path 53262" d="M396.111,181.608s22.146,2.853,32.67,13.055,14.363,22.964,17.9,28.2a182.555,182.555,0,0,0,17.359,11.281c.72.42,1.387.737,2.072,1.1.7.379,1.335.662,1.965.95,1.3.627,2.344.954,2.957,1.228.11-.016-.277.244.6.14.6-.025,1.2-.038,1.819-.036,0,0,13.083-7.3,23.138-10.892,7.433-2.655,15.35-4.146,23.072-5.688q3.162-.63,6.334-1.22c4.811-.895,9.092-2.954,13.591-4.848,0,0,3.4,2.273,4.572,5.021a7.109,7.109,0,0,1,.38,4.9c-6.485,3.875-12.973,7.552-19.544,11.228s-13.193,7.258-19.981,10.7a205.861,205.861,0,0,1-21.4,9.529c-.921.374-1.982.684-3.018,1l-3.133.948-3.694.736a21.369,21.369,0,0,1-4.947.294,42.208,42.208,0,0,1-7.854-1.35c-1.133-.294-2.262-.6-3.272-.939-1.036-.332-2.113-.659-3.077-1.022-4.012-1.4-7.7-2.959-11.33-4.57s-7.139-3.3-10.627-5.02c-6.936-3.46-13.7-7.073-20.362-10.789s-13.234-7.538-19.776-11.4c-6.573-3.886-12.968-7.741-19.584-11.917Z" transform="translate(-248.783 -58.684)" fill="url(#linear-gradient-2)"/>
  <path id="Path_53263" data-name="Path 53263" d="M483.663,200.58c1.429-2.734,5.642-2.441,6.938.792s8.455,15.825,10.142,19.694-4.278,2.728-7.475-1.173a18.689,18.689,0,0,0-2.66-2.641h0a6.031,6.031,0,0,0-3.161-4.883,2.375,2.375,0,0,1-1.168-1.943c-.247-3.715-4.578-7.479-4.578-7.479A9.481,9.481,0,0,0,483.663,200.58Z" transform="translate(-186.561 -48.894)" fill="url(#linear-gradient-3)"/>
  <path id="Path_53264" data-name="Path 53264" d="M488.409,201.32a4.083,4.083,0,0,0-2.879-2.508l12.844,24.314c.5-.346.651-1.025.176-2.113C496.863,217.144,489.7,204.553,488.409,201.32Z" transform="translate(-184.37 -48.841)" fill="url(#linear-gradient-4)"/>
  <g id="Group_7158" data-name="Group 7158" transform="translate(144.293 132.768)" opacity="0.3" style="mix-blend-mode: multiply;isolation: isolate">
    <path id="Path_53265" data-name="Path 53265" d="M466.982,248.014h-.013a27.3,27.3,0,0,1-3.187-.011.393.393,0,0,1,.047-.784,26.432,26.432,0,0,0,3.1.011.393.393,0,0,1,.057.784Zm3.119-.358a.394.394,0,0,1-.1-.78c.976-.168,1.967-.39,3.029-.679a.393.393,0,0,1,.208.758c-1.088.3-2.1.523-3.1.7Zm-9.381,0a.34.34,0,0,1-.1,0c-1-.159-2.015-.357-3.11-.61a.393.393,0,0,1-.294-.472.389.389,0,0,1,.472-.294c1.075.247,2.075.445,3.056.6a.392.392,0,0,1-.027.778Zm15.446-1.626a.392.392,0,0,1-.164-.761c.92-.321,1.877-.676,2.929-1.093a.394.394,0,0,1,.289.733c-1.063.418-2.031.778-2.96,1.1A.29.29,0,0,1,476.166,246.032Zm-21.572.241a.362.362,0,0,1-.142-.013q-1.446-.4-3.025-.9a.394.394,0,0,1,.234-.751c1.049.327,2.045.624,3,.893a.392.392,0,0,1-.069.769Zm27.424-2.536a.393.393,0,0,1-.189-.753q1.375-.587,2.874-1.256a.393.393,0,0,1,.321.718c-1,.45-1.965.868-2.886,1.262A.413.413,0,0,1,482.017,243.737Zm5.746-2.552a.393.393,0,0,1-.2-.748l2.858-1.313a.393.393,0,0,1,.33.714l-2.861,1.313A.384.384,0,0,1,487.763,241.185Zm-39.174,3.221a.4.4,0,0,1-.159-.019q-1.429-.474-2.981-1.014a.393.393,0,1,1,.259-.742q1.545.538,2.97,1.011a.393.393,0,0,1-.09.764Zm44.885-5.87a.393.393,0,0,1-.2-.747q1.4-.665,2.839-1.357a.393.393,0,1,1,.341.709q-1.438.691-2.844,1.357A.372.372,0,0,1,493.475,238.536Zm-50.826,3.817a.409.409,0,0,1-.167-.02l-.442-.159c-.817-.291-1.663-.634-2.509-1.017a.393.393,0,1,1,.324-.717c.827.376,1.652.709,2.451.994l.44.157a.394.394,0,0,1-.1.762Zm56.5-6.548a.393.393,0,0,1-.208-.744q1.405-.686,2.825-1.387a.394.394,0,1,1,.349.706q-1.422.7-2.828,1.387A.394.394,0,0,1,499.149,235.805Zm-62.233,3.979a.389.389,0,0,1-.223-.047c-.879-.478-1.8-1.017-2.735-1.6a.393.393,0,0,1,.417-.667c.924.577,1.83,1.107,2.695,1.578a.394.394,0,0,1-.152.737Zm67.876-6.763a.393.393,0,0,1-.211-.742l2.816-1.41a.393.393,0,0,1,.352.7l-2.816,1.41A.413.413,0,0,1,504.791,233.021Zm5.628-2.827a.394.394,0,0,1-.214-.744l2.806-1.427a.4.4,0,0,1,.528.173.394.394,0,0,1-.171.53l-2.806,1.427A.448.448,0,0,1,510.419,230.195Zm-78.847,6.268a.382.382,0,0,1-.259-.068q-1.278-.884-2.566-1.85a.392.392,0,1,1,.472-.627q1.276.953,2.542,1.831a.393.393,0,0,1,.1.547A.387.387,0,0,1,431.572,236.463Zm84.455-9.132a.393.393,0,0,1-.214-.742l2.8-1.442a.393.393,0,0,1,.362.7l-2.8,1.443A.413.413,0,0,1,516.027,227.33Zm5.6-2.891a.393.393,0,0,1-.217-.74l2.792-1.456a.394.394,0,0,1,.365.7l-2.794,1.456A.419.419,0,0,1,521.622,224.439Zm-95.094,8.254a.391.391,0,0,1-.278-.085q-1.221-.974-2.441-2.008a.393.393,0,0,1,.508-.6q1.21,1.026,2.423,1.993a.394.394,0,0,1-.211.7ZM527.2,221.521a.393.393,0,0,1-.218-.739l2.786-1.467a.393.393,0,0,1,.368.695l-2.789,1.467A.357.357,0,0,1,527.2,221.521ZM421.719,228.63a.388.388,0,0,1-.3-.1q-1.174-1.04-2.339-2.119a.393.393,0,1,1,.534-.577q1.158,1.071,2.327,2.11a.394.394,0,0,1-.226.685Zm111.055-10.05a.393.393,0,0,1-.22-.739l2.781-1.479a.394.394,0,0,1,.371.695l-2.783,1.479A.372.372,0,0,1,532.774,218.58ZM417.1,224.351a.4.4,0,0,1-.308-.108q-1.134-1.089-2.258-2.2a.394.394,0,0,1,.555-.56q1.115,1.111,2.247,2.2a.392.392,0,0,1-.236.674Zm-4.473-4.438a.389.389,0,0,1-.316-.116q-1.1-1.127-2.185-2.265a.393.393,0,1,1,.569-.541c.718.755,1.445,1.509,2.177,2.256a.392.392,0,0,1-.245.667Zm-4.337-4.558a.4.4,0,0,1-.324-.123q-1.08-1.167-2.13-2.327a.393.393,0,0,1,.583-.527q1.045,1.155,2.124,2.317a.394.394,0,0,1-.02.557A.382.382,0,0,1,408.286,215.355Zm-4.229-4.666a.4.4,0,0,1-.33-.132q-1.059-1.2-2.078-2.371a.393.393,0,1,1,.593-.516q1.016,1.17,2.074,2.366a.393.393,0,0,1-.258.652Zm-4.132-4.757a.39.39,0,0,1-.333-.137q-1.047-1.231-2.034-2.413a.393.393,0,0,1,.6-.5q.986,1.181,2.028,2.408a.391.391,0,0,1-.044.553A.4.4,0,0,1,399.925,205.932Zm-4.037-4.837a.4.4,0,0,1-.34-.141q-1.04-1.269-1.989-2.451a.392.392,0,1,1,.612-.492c.63.783,1.294,1.6,1.984,2.443a.394.394,0,0,1-.053.555A.386.386,0,0,1,395.888,201.095Zm-3.954-4.913a.391.391,0,0,1-.343-.148q-1.059-1.342-1.945-2.487a.393.393,0,1,1,.621-.481c.588.759,1.237,1.589,1.94,2.481a.393.393,0,0,1-.064.552A.379.379,0,0,1,391.934,196.182Zm-3.863-4.99a.4.4,0,0,1-.347-.154c-1.225-1.616-1.9-2.545-1.9-2.545a.393.393,0,1,1,.637-.461s.673.924,1.89,2.531a.393.393,0,0,1-.278.629Z" transform="translate(-385.748 -187.87)" fill="url(#linear-gradient-5)"/>
  </g>
  <path id="Path_53266" data-name="Path 53266" d="M460.181,250.223s5.579-.4,7.949-2.38,6.148-.093,6.106,3.391,1.744,17.856,1.82,22.076-5,.88-6.457-3.948-5.112-9.321-8.6-8.824S459.093,251.354,460.181,250.223Z" transform="translate(-199.625 -21.249)" fill="url(#linear-gradient-6)"/>
  <path id="Path_53267" data-name="Path 53267" d="M463.121,249.162a8.213,8.213,0,0,0,2.574-1.319c2.369-1.978,6.148-.093,6.106,3.389s1.744,17.858,1.82,22.077-5,.88-6.457-3.948a18.106,18.106,0,0,0-1.454-3.459l0,0c1.406-2.723-.008-5.708-1.184-7.8a3.047,3.047,0,0,1-.2-2.415C465.369,252.361,463.121,249.162,463.121,249.162Z" transform="translate(-197.19 -21.249)" fill="url(#linear-gradient-7)"/>
  <path id="Path_53268" data-name="Path 53268" d="M512,282.97c-3.96-.671-8-1.133-11.7-2.757-7.738-3.4-15.581-7.065-23.871-8.922-11.753-2.632-25.086-2.534-33.1-12.431a72.433,72.433,0,0,1-13.74-25.606c-2.64-8.554-5.27-17.285-9.057-25.416C415.4,196.812,403,187.67,403,187.67l-32.944,19.3c4.248,5.927,8.417,11.5,12.72,17.163,4.286,5.634,8.574,11.263,13.006,16.822s8.953,11.08,13.636,16.565a211.005,211.005,0,0,0,15.249,16.221c1.448,1.339,2.941,2.674,4.613,4.018.773.66,1.783,1.368,2.668,2.031.948.667,2.125,1.442,3.152,2.02a58.691,58.691,0,0,0,11.8,4.746,161.521,161.521,0,0,0,21.651,4.482c7.076,1.061,14.1,1.86,21.115,2.5,7.029.665,13.96,1.187,21.065,1.6a9.465,9.465,0,0,0,2.448-5.122A14.009,14.009,0,0,0,512,282.97Z" transform="translate(-250.434 -55.216)" fill="url(#linear-gradient-8)"/>
  <path id="Path_53269" data-name="Path 53269" d="M467.27,247.324l2.484,27.716c.887.143,1.52-.387,1.493-1.893-.077-4.22-1.864-18.593-1.82-22.077A4.11,4.11,0,0,0,467.27,247.324Z" transform="translate(-194.816 -21.087)" fill="url(#linear-gradient-9)"/>
  <g id="Group_7161" data-name="Group 7161" transform="translate(137.398 147.91)" opacity="0.3" style="mix-blend-mode: multiply;isolation: isolate">
    <g id="Group_7159" data-name="Group 7159">
      <path id="Path_53270" data-name="Path 53270" d="M382.449,199.705a.4.4,0,0,1-.391-.226c-.432-.921-.66-1.423-.66-1.423a.393.393,0,0,1,.715-.327s.228.5.657,1.418a.4.4,0,0,1-.321.558Z" transform="translate(-381.363 -197.501)" fill="url(#linear-gradient-10)"/>
    </g>
    <g id="Group_7160" data-name="Group 7160" transform="translate(1.98 4.213)">
      <path id="Path_53271" data-name="Path 53271" d="M503.443,283.637a.412.412,0,0,1-.088,0c-.907-.121-1.938-.259-3.078-.415a.393.393,0,0,1,.105-.78c1.14.154,2.169.294,3.077.413a.393.393,0,0,1-.016.781Zm-6.153-.841a.3.3,0,0,1-.091,0l-3.073-.439a.394.394,0,0,1-.333-.445.389.389,0,0,1,.445-.333l3.073.44a.393.393,0,0,1-.02.78Zm-6.145-.891a.465.465,0,0,1-.093,0c-.994-.146-2.019-.3-3.07-.461a.394.394,0,0,1,.118-.778q1.575.241,3.067.461a.394.394,0,0,1-.022.781Zm-6.136-.937a.327.327,0,0,1-.1,0q-1.507-.233-3.066-.486a.393.393,0,0,1,.124-.777c1.038.168,2.061.33,3.064.487a.392.392,0,0,1-.027.778Zm-6.127-.984a.421.421,0,0,1-.1,0c-1.011-.168-2.033-.338-3.062-.516a.392.392,0,1,1,.132-.773c1.028.174,2.05.344,3.059.514a.393.393,0,0,1-.03.778Zm-6.117-1.042a.384.384,0,0,1-.1,0q-1.521-.266-3.056-.544a.393.393,0,1,1,.14-.773q1.533.276,3.053.544a.393.393,0,0,1-.033.778Zm-6.106-1.1a.414.414,0,0,1-.107-.006c-1.017-.19-2.037-.384-3.055-.58a.393.393,0,0,1,.151-.772q1.523.295,3.048.58a.393.393,0,0,1-.038.778Zm-6.092-1.179a.384.384,0,0,1-.112-.006q-1.53-.309-3.044-.623a.392.392,0,0,1-.3-.464.4.4,0,0,1,.465-.3q1.512.316,3.037.621a.393.393,0,0,1-.042.777Zm-6.075-1.269a.373.373,0,0,1-.118-.008q-1.533-.33-3.034-.674a.392.392,0,1,1,.176-.764q1.5.34,3.023.671a.393.393,0,0,1-.047.775Zm-6.049-1.379a.391.391,0,0,1-.127-.009q-1.533-.37-3.017-.747a.392.392,0,0,1-.285-.476.4.4,0,0,1,.478-.286q1.478.377,3.007.744a.394.394,0,0,1-.057.775Zm-6.013-1.533a.417.417,0,0,1-.138-.013q-1.538-.42-2.993-.844a.393.393,0,0,1,.22-.755q1.448.424,2.979.84a.394.394,0,0,1-.068.772Zm-5.954-1.754a.405.405,0,0,1-.156-.016c-1.028-.329-2.014-.665-2.951-1a.393.393,0,1,1,.266-.739c.928.335,1.905.665,2.924.99a.393.393,0,0,1-.083.766Zm-5.833-2.113a.382.382,0,0,1-.19-.03,21.14,21.14,0,0,1-2.787-1.47.393.393,0,0,1,.413-.668,20.527,20.527,0,0,0,2.684,1.416.392.392,0,0,1-.119.751Zm-5.276-3.215a.4.4,0,0,1-.275-.08c-.786-.608-1.593-1.283-2.4-2.008a.392.392,0,1,1,.525-.583c.792.711,1.585,1.372,2.355,1.968a.393.393,0,0,1-.206.7Zm-4.622-4.127a.393.393,0,0,1-.314-.113c-.706-.709-1.429-1.47-2.151-2.261a.393.393,0,0,1,.582-.53c.714.783,1.429,1.534,2.127,2.234a.394.394,0,0,1-.244.67Zm-4.185-4.578a.4.4,0,0,1-.335-.135c-.662-.778-1.322-1.583-1.981-2.407a.393.393,0,0,1,.615-.489q.981,1.226,1.965,2.385a.4.4,0,0,1-.046.555A.384.384,0,0,1,416.561,256.691Zm-3.88-4.845a.39.39,0,0,1-.347-.152q-.929-1.226-1.855-2.5a.393.393,0,1,1,.637-.461q.92,1.264,1.844,2.482a.394.394,0,0,1-.075.552A.4.4,0,0,1,412.681,251.845Zm-3.649-5.015a.388.388,0,0,1-.357-.167q-.887-1.266-1.759-2.563a.393.393,0,0,1,.651-.442q.873,1.292,1.751,2.555a.393.393,0,0,1-.286.616Zm-3.47-5.144a.394.394,0,0,1-.365-.176q-.847-1.3-1.681-2.616a.393.393,0,1,1,.663-.42q.83,1.311,1.676,2.607a.39.39,0,0,1-.115.542A.385.385,0,0,1,405.562,241.686Zm-3.327-5.245a.394.394,0,0,1-.371-.186c-.542-.88-1.083-1.765-1.615-2.651a.392.392,0,0,1,.673-.4q.8,1.321,1.611,2.643a.392.392,0,0,1-.3.6Zm-3.2-5.311a.4.4,0,0,1-.374-.192q-.79-1.347-1.563-2.687a.393.393,0,0,1,.682-.391q.769,1.335,1.558,2.677a.393.393,0,0,1-.14.539A.418.418,0,0,1,399.033,231.131Zm-3.1-5.38a.4.4,0,0,1-.377-.2q-.769-1.363-1.514-2.71a.392.392,0,1,1,.687-.379q.743,1.339,1.512,2.7a.392.392,0,0,1-.149.535A.369.369,0,0,1,395.935,225.752Zm-3-5.43a.391.391,0,0,1-.38-.2q-.755-1.389-1.471-2.735a.392.392,0,1,1,.692-.369q.717,1.344,1.47,2.729a.393.393,0,0,1-.157.533A.388.388,0,0,1,392.934,220.321Zm-2.921-5.474a.394.394,0,0,1-.384-.211q-.74-1.415-1.432-2.758a.394.394,0,0,1,.17-.53.39.39,0,0,1,.528.171q.691,1.339,1.431,2.753a.391.391,0,0,1-.167.528A.36.36,0,0,1,390.013,214.847Zm-2.842-5.52a.394.394,0,0,1-.387-.214q-.736-1.453-1.393-2.779a.392.392,0,0,1,.7-.349c.439.879.9,1.806,1.393,2.773a.394.394,0,0,1-.174.528A.427.427,0,0,1,387.17,209.328Zm-2.767-5.565a.394.394,0,0,1-.388-.22c-.5-1.03-.956-1.968-1.355-2.8a.4.4,0,0,1,.186-.525.392.392,0,0,1,.525.184c.4.828.849,1.764,1.35,2.8a.391.391,0,0,1-.181.525A.356.356,0,0,1,384.4,203.762Z" transform="translate(-382.622 -200.181)" fill="url(#linear-gradient-11)"/>
    </g>
  </g>
  <path id="Path_53272" data-name="Path 53272" d="M358.435,152.989h0a10.74,10.74,0,0,1,13.938-7.614l13.861,4.785,12.484,4.314,6.237,2.155,3.117,1.077,1.558.538.78.27a13.729,13.729,0,0,1,1.516.585,13.261,13.261,0,0,1,2.328,1.283l.564.388c.193.138.382.28.442.338l.648.494,2.607,1.981,5.216,3.962,10.442,7.93,20.915,15.881s4.4-.836,6.931,2.5,2.643,7.115,7.284,6.7,10.006-.228,7.109,2.259-12.946,5.68-16.142,4.29-7.9-9.266-7.911-11.467l-23.322-12.325-11.678-6.175-5.844-3.089-2.923-1.545-.733-.39a.745.745,0,0,0-.24-.118l-.134-.041a3.3,3.3,0,0,0-.539-.1c-.05,0-.277-.039-.124.028l-.813-.118-1.629-.237-3.256-.472-6.507-.946-13.006-1.887-14.284-2.072A10.737,10.737,0,0,1,358.435,152.989Z" transform="translate(-257.258 -79.751)" fill="url(#linear-gradient-12)"/>
  <path id="Path_53273" data-name="Path 53273" d="M397.5,175.51s-11.594-2.2-21.266-4.15c-17.617-.759-26.974-12.616-17.364-24.374s42.247,5.946,46.794,8.285C405.506,165.667,397.5,175.51,397.5,175.51Z" transform="translate(-259.036 -80.778)" fill="url(#linear-gradient-13)"/>
  <path id="Path_53274" data-name="Path 53274" d="M376.412,146.41q-.557-.491-1.132-.967a23.813,23.813,0,0,0-7.515-4.52c-18.174-6.018-22.722,25.685-25.267,36.817-3.152,13.781,5.79,24.8,14.555,24.685s9.332.846,14.463,9.159,14.531,32.1,18.969,36.426,24.66-6.98,29.57-16.194,12.454-7.865,15.872-14.918c2.7-5.567,1.028-10.128-3.226-11.824-5.671-2.261-19.191-10.054-23.47-14.429C396.3,177.418,390.218,158.567,376.412,146.41Z" transform="translate(-266.569 -82.391)" fill="url(#radial-gradient)"/>
  <path id="Path_53275" data-name="Path 53275" d="M345.388,137.669s5.891,12.591,5.811,17.927c.706,4.7,6.436,3.63,10.266-.92s3.729-7.172-.714-12.189-9.09-9.929-9.09-9.929Z" transform="translate(-264.546 -86.746)" fill="url(#linear-gradient-14)"/>
  <path id="Path_53276" data-name="Path 53276" d="M294.094,116.486c.772-2.949,5.645-2.871,4.641-5.07s-4.521-6.666-4.243-7.865,7.806,5.972,9.681,9.914c1.866,3.919,1.8,13.621,1.8,13.723,5.864,8.136,12.012,16.158,18.411,23.784,3.294,3.907,6.67,7.724,10.159,11.233,1.743,1.742,3.52,3.416,5.289,4.872a17.523,17.523,0,0,0,4.682,3.012c1.747.579,4.086,1.225,6.449,1.756,2.374.55,4.836,1.034,7.3,1.517,4.969.923,10.011,1.748,15.073,2.525,6.318.95,12.7,1.836,19.065,2.654a10.922,10.922,0,1,1-4.314,21.357c-6.336-1.756-12.632-3.575-18.956-5.474-5.057-1.538-10.112-3.13-15.182-4.848-2.544-.887-5.086-1.778-7.666-2.781a75.854,75.854,0,0,1-8.147-3.628,19.762,19.762,0,0,1-2.438-1.585,24.265,24.265,0,0,1-1.964-1.608,44.067,44.067,0,0,1-3.231-3.228c-1.959-2.157-3.674-4.331-5.315-6.521-3.257-4.385-6.172-8.835-8.977-13.328-5.469-8.824-10.477-17.76-15.248-26.9C296.02,128.049,293.33,119.4,294.094,116.486Z" transform="translate(-293.965 -103.417)" fill="url(#linear-gradient-15)"/>
  <path id="Path_53277" data-name="Path 53277" d="M338.883,147.324s12.231,1.437,22.44,2.748c18.391-.511,29.007,11.138,19.871,24.086s-44.407-3.067-49.312-5.168C331.274,158.161,338.883,147.324,338.883,147.324Z" transform="translate(-272.292 -78.298)" fill="url(#linear-gradient-16)"/>
  <path id="Path_53278" data-name="Path 53278" d="M372.377,121.465s-2.86-9.063-15.311-7.934-23.173,28.3-19.265,36.507c4.253,8.933,18.29,4.991,24.816,1.418a19.337,19.337,0,0,0,9.165-10.31C375.03,133.528,374.711,128.866,372.377,121.465Z" transform="translate(-269.354 -97.687)" fill="url(#linear-gradient-17)"/>
  <path id="Path_53279" data-name="Path 53279" d="M344.71,119.923s5.385-11.874,18.049-10.26,23.67,19.238,19.456,29.386-10.83,17.485-18.916,19.239c-5.69.976-8.9-3.2-7.773-6.268s7.886-6.584,6.77-10.959-5.847-5.757-9.216-1.179-3.117-1.371.316-8.016S353.682,116.371,344.71,119.923Z" transform="translate(-264.934 -99.93)" fill="url(#linear-gradient-18)"/>
  <path id="Path_53280" data-name="Path 53280" d="M364.807,134.615c-2.589,5.081-2.086,10.524,1.121,12.157s7.906-1.159,10.5-6.238,2.086-10.524-1.122-12.157S367.394,129.536,364.807,134.615Z" transform="translate(-254.384 -89.405)" fill="url(#linear-gradient-19)"/>
  <path id="Path_53281" data-name="Path 53281" d="M376.1,131.871c6.4-1.6,15.314-2.808,20.816,1.819,6.427,5.4,3.342,16.174,10.662,20.736,3.272,2.037,6.787,1.13,10.354,1.025a33.472,33.472,0,0,1,12.874,2.228c18.417,7.313,9.032,30.28-4.685,37.166-18.5,9.288-40.493-4.888-40.009-25.366a14.725,14.725,0,0,0-8.609-13.743,26.266,26.266,0,0,1-7.648-4.877,10.658,10.658,0,0,1-3.193-5.694,10.409,10.409,0,0,1,1.953-7.552C370.359,135.116,373.092,132.624,376.1,131.871Z" transform="translate(-252.442 -87.958)" fill="url(#linear-gradient-20)"/>
</svg>
