<svg xmlns="http://www.w3.org/2000/svg" xmlns:xlink="http://www.w3.org/1999/xlink" width="200.793" height="256.2" viewBox="0 0 200.793 256.2">
  <defs>
    <radialGradient id="radial-gradient" cx="0.5" cy="0.5" r="0.5" gradientTransform="matrix(0.267, 0.964, -0.964, 0.267, 2.835, 4.839)" gradientUnits="objectBoundingBox">
      <stop offset="0.139"/>
      <stop offset="0.232" stop-color="#131313"/>
      <stop offset="0.421" stop-color="#464646"/>
      <stop offset="0.69" stop-color="#989898"/>
      <stop offset="1" stop-color="#fff"/>
    </radialGradient>
    <linearGradient id="linear-gradient" x1="-87.906" y1="31.34" x2="-86.812" y2="31.34" gradientUnits="objectBoundingBox">
      <stop offset="0" stop-color="#3fc416"/>
      <stop offset="0.132" stop-color="#35a835"/>
      <stop offset="0.56" stop-color="#195497"/>
      <stop offset="0.859" stop-color="#071ed5"/>
      <stop offset="1" stop-color="#000aee"/>
    </linearGradient>
    <linearGradient id="linear-gradient-2" x1="-39.203" y1="23.011" x2="-38.289" y2="23.011" gradientUnits="objectBoundingBox">
      <stop offset="0" stop-color="#00a6fd"/>
      <stop offset="0.29" stop-color="#0085fd"/>
      <stop offset="0.925" stop-color="#0032fe"/>
      <stop offset="1" stop-color="#0028ff"/>
    </linearGradient>
    <linearGradient id="linear-gradient-3" x1="-44.728" y1="25.864" x2="-43.667" y2="25.864" gradientUnits="objectBoundingBox">
      <stop offset="0" stop-color="#fb8000"/>
      <stop offset="0.304" stop-color="#fc5500"/>
      <stop offset="0.775" stop-color="#fe1800"/>
      <stop offset="1" stop-color="red"/>
    </linearGradient>
    <linearGradient id="linear-gradient-4" x1="-72.243" y1="32.543" x2="-71.342" y2="32.543" xlink:href="#linear-gradient"/>
    <linearGradient id="linear-gradient-5" x1="-47.385" y1="23.368" x2="-46.282" y2="23.368" xlink:href="#linear-gradient-2"/>
    <linearGradient id="linear-gradient-6" x1="-39.742" y1="26.97" x2="-38.796" y2="26.97" xlink:href="#linear-gradient-3"/>
    <linearGradient id="linear-gradient-7" x1="-18.315" y1="8.192" x2="-17.224" y2="8.192" xlink:href="#linear-gradient-2"/>
    <linearGradient id="linear-gradient-8" x1="-12.229" y1="7.669" x2="-11.334" y2="7.669" xlink:href="#linear-gradient-3"/>
    <linearGradient id="linear-gradient-9" x1="-18.566" y1="7.372" x2="-17.673" y2="7.372" xlink:href="#linear-gradient"/>
    <linearGradient id="linear-gradient-10" x1="-3.439" y1="6.305" x2="-2.553" y2="7.392" gradientUnits="objectBoundingBox">
      <stop offset="0" stop-color="#4dc6f1"/>
      <stop offset="0.964" stop-color="#0272d6"/>
      <stop offset="1" stop-color="#006fd5"/>
    </linearGradient>
    <linearGradient id="linear-gradient-11" x1="-3.923" y1="7.094" x2="-2.9" y2="7.094" xlink:href="#linear-gradient-10"/>
    <linearGradient id="linear-gradient-12" x1="-40.512" y1="4.388" x2="-40.394" y2="5.271" gradientUnits="objectBoundingBox">
      <stop offset="0" stop-color="#cc8122"/>
      <stop offset="0.318" stop-color="#9e5d16"/>
      <stop offset="0.78" stop-color="#612e06"/>
      <stop offset="1" stop-color="#491c00"/>
    </linearGradient>
    <linearGradient id="linear-gradient-13" x1="-2.596" y1="22.571" x2="-1.594" y2="22.571" xlink:href="#linear-gradient-12"/>
    <linearGradient id="linear-gradient-14" x1="-13.851" y1="53.32" x2="-13.851" y2="55.114" xlink:href="#linear-gradient-10"/>
  </defs>
  <g id="Group_7219" data-name="Group 7219" transform="translate(0 0)">
    <circle id="Ellipse_693" data-name="Ellipse 693" cx="84.627" cy="84.627" r="84.627" transform="translate(0 165.543) rotate(-77.979)" fill="url(#radial-gradient)" style="mix-blend-mode: color-burn;isolation: isolate"/>
    <g id="Group_7218" data-name="Group 7218" transform="translate(29.118 9.975)">
      <path id="Path_53386" data-name="Path 53386" d="M75.1,131.378l-.211.943c-.122.6-.291,1.457-.417,2.467a16.136,16.136,0,0,0-.105,1.613,8.133,8.133,0,0,0,.152,1.714,4.762,4.762,0,0,0,.24.813l.4.872a20.943,20.943,0,0,1,.8,2,13.742,13.742,0,0,1,.547,2.131,8.107,8.107,0,0,1,.08,2.211,5.916,5.916,0,0,1-.6,2.021,7.011,7.011,0,0,1-1.048,1.491,11.339,11.339,0,0,1-1.053,1.032c-.32.291-.615.522-.855.72-.48.387-.766.6-.766.6s.177-.307.522-.821.859-1.234,1.381-2.1a7.926,7.926,0,0,0,.661-1.415,5.314,5.314,0,0,0,.27-1.634,8.292,8.292,0,0,0-.2-1.806,17.512,17.512,0,0,0-.543-1.886c-.215-.636-.467-1.259-.712-1.878-.135-.324-.265-.6-.4-1.006a5.68,5.68,0,0,1-.236-1.116,7.681,7.681,0,0,1,.063-2.055,10,10,0,0,1,.425-1.722,11.16,11.16,0,0,1,.543-1.368c.181-.4.362-.733.518-1A8,8,0,0,1,75.1,131.378Z" transform="translate(-70.351 -53.372)" fill="url(#linear-gradient)"/>
      <path id="Path_53387" data-name="Path 53387" d="M76.647,131.637a10.9,10.9,0,0,0-1.023.947,12.893,12.893,0,0,0-1.027,1.2,8.328,8.328,0,0,0-.994,1.726,5.27,5.27,0,0,0-.434,2.181,5.162,5.162,0,0,0,.657,2.337,9.4,9.4,0,0,0,1.684,2.152c.173.164.333.341.526.5l.581.505c.387.341.775.686,1.162,1.027.379.375.749.817,1.124,1.221.358.421.653.88.977,1.314.291.459.543.947.787,1.419l.295.749a4.755,4.755,0,0,1,.253.749,8.042,8.042,0,0,1,.3,1.516c.017.253.067.5.059.745l-.013.733a4.32,4.32,0,0,1-.067.7l-.1.678c-.126.43-.211.855-.366,1.234a8.539,8.539,0,0,1-.467,1.082,7.665,7.665,0,0,1-.535.905,6.089,6.089,0,0,1-.539.745,6.865,6.865,0,0,1-.514.585l-.438.442-.358.291-.295.24a.162.162,0,0,1-.232-.021.171.171,0,0,1,0-.211l.013-.013.232-.282.274-.337.341-.484a7.25,7.25,0,0,0,.379-.619,7.379,7.379,0,0,0,.4-.754,6.617,6.617,0,0,0,.366-.888,8.075,8.075,0,0,0,.312-1.006c.1-.349.135-.733.206-1.112l.034-.594a3.24,3.24,0,0,0,.013-.606l-.038-.623a5.394,5.394,0,0,0-.1-.627,5.494,5.494,0,0,0-.131-.636l-.194-.636a3.575,3.575,0,0,0-.244-.627l-.278-.627c-.109-.2-.24-.4-.358-.6s-.223-.413-.366-.6c-.295-.375-.56-.783-.876-1.141-.333-.345-.627-.7-.989-1.048L75.5,144.421l-.577-.514c-.206-.173-.392-.375-.585-.564a9.937,9.937,0,0,1-1.878-2.623,6.128,6.128,0,0,1-.636-3.048,5.951,5.951,0,0,1,.248-1.427,6.935,6.935,0,0,1,.531-1.213,7.819,7.819,0,0,1,1.347-1.794,9.962,9.962,0,0,1,1.28-1.1,8.976,8.976,0,0,1,.905-.594c.211-.122.337-.181.337-.181a.158.158,0,0,1,.219.072A.164.164,0,0,1,76.647,131.637Z" transform="translate(-71.814 -53.492)" fill="url(#linear-gradient-2)"/>
      <path id="Path_53388" data-name="Path 53388" d="M76.483,131.632a2.734,2.734,0,0,0-.215.227,4.659,4.659,0,0,0-.51.749,4.959,4.959,0,0,0-.467,1.288,5.427,5.427,0,0,0-.059,1.752,8.244,8.244,0,0,0,.543,2.029,14.708,14.708,0,0,0,1.1,2.131c.232.354.467.712.728,1.061l.808,1.082a11.325,11.325,0,0,1,1.482,2.632,8.22,8.22,0,0,1,.547,3.057,7.5,7.5,0,0,1-.691,2.926,9.031,9.031,0,0,1-1.512,2.286,11.229,11.229,0,0,1-1.773,1.6,11.78,11.78,0,0,1-3.107,1.659,5.163,5.163,0,0,1-1.318.3l0,0a.168.168,0,0,1-.055-.328,2.787,2.787,0,0,0,.3-.109,7.941,7.941,0,0,0,.83-.408,14.258,14.258,0,0,0,2.648-1.962,13.173,13.173,0,0,0,1.444-1.6,8.962,8.962,0,0,0,1.145-2.034,6.372,6.372,0,0,0,.446-2.354,6.555,6.555,0,0,0-.48-2.43,10.03,10.03,0,0,0-1.238-2.261,21.737,21.737,0,0,1-1.533-2.341,12.654,12.654,0,0,1-1.061-2.463,7.889,7.889,0,0,1-.379-2.417,5.613,5.613,0,0,1,.358-2.055,4.724,4.724,0,0,1,.792-1.385,4.131,4.131,0,0,1,.728-.7,2.664,2.664,0,0,1,.3-.2.161.161,0,0,1,.223.063A.171.171,0,0,1,76.483,131.632Z" transform="translate(-71.642 -53.492)" fill="url(#linear-gradient-3)"/>
      <g id="Group_7214" data-name="Group 7214" transform="translate(146.999 69.065)">
        <path id="Path_53389" data-name="Path 53389" d="M107.331,129.292a7.314,7.314,0,0,1,.623.754,10.246,10.246,0,0,1,.636.931,10.941,10.941,0,0,1,.707,1.293,10.659,10.659,0,0,1,.632,1.659,7.8,7.8,0,0,1,.312,2.03,5.952,5.952,0,0,1-.1,1.141c-.088.417-.185.707-.278,1.044-.168.644-.341,1.293-.48,1.95a16.869,16.869,0,0,0-.307,1.941,8.136,8.136,0,0,0,.017,1.815,5.425,5.425,0,0,0,.467,1.587,7.761,7.761,0,0,0,.829,1.326c.619.8,1.225,1.444,1.621,1.916s.619.75.619.75-.307-.173-.834-.5c-.261-.164-.581-.358-.935-.611a10.921,10.921,0,0,1-1.171-.9,7.288,7.288,0,0,1-1.221-1.352,5.908,5.908,0,0,1-.834-1.937,7.89,7.89,0,0,1-.189-2.2,13.382,13.382,0,0,1,.286-2.181,20.731,20.731,0,0,1,.556-2.084l.295-.918a5.382,5.382,0,0,0,.143-.834,8.068,8.068,0,0,0-.063-1.718,15.321,15.321,0,0,0-.295-1.592c-.248-.985-.518-1.815-.716-2.4Z" transform="translate(-104.783 -129.134)" fill="url(#linear-gradient-4)"/>
        <path id="Path_53390" data-name="Path 53390" d="M109.342,129.264s.131.042.358.143a8.83,8.83,0,0,1,.968.476,9.612,9.612,0,0,1,1.4.943,7.836,7.836,0,0,1,1.558,1.613,6.955,6.955,0,0,1,.67,1.141,5.831,5.831,0,0,1,.421,1.385,6.094,6.094,0,0,1-.265,3.1,9.826,9.826,0,0,1-1.545,2.834c-.168.211-.328.434-.514.632l-.509.577c-.333.392-.669.787-1.006,1.179-.32.392-.568.779-.855,1.162s-.488.83-.733,1.238c-.122.206-.189.434-.291.644s-.2.425-.282.64l-.2.657a3.526,3.526,0,0,0-.164.653l-.114.653a5.624,5.624,0,0,0-.055.644c0,.215-.042.43-.025.64l.038.619a3.573,3.573,0,0,0,.084.6l.105.585c.122.366.2.745.341,1.082a9.167,9.167,0,0,0,.43.96,6.537,6.537,0,0,0,.476.834,6.316,6.316,0,0,0,.484.7,5.715,5.715,0,0,0,.455.568l.392.442.316.3.265.253.013.013a.165.165,0,0,1,0,.232.161.161,0,0,1-.206.025l-.324-.2-.387-.248-.493-.387a7.5,7.5,0,0,1-.577-.518,6.154,6.154,0,0,1-.627-.674,7.268,7.268,0,0,1-.636-.838,7.994,7.994,0,0,1-.6-1.011c-.2-.362-.333-.775-.514-1.183l-.181-.661a4.2,4.2,0,0,1-.152-.691l-.1-.724a6.308,6.308,0,0,1-.029-.75,7.67,7.67,0,0,1,.114-1.541,4.445,4.445,0,0,1,.16-.775l.2-.779c.185-.5.375-1.011.611-1.5.27-.472.5-.964.808-1.423s.636-.935.968-1.347l1.027-1.166.518-.568c.173-.177.312-.371.463-.556a9.444,9.444,0,0,0,1.411-2.341,5.107,5.107,0,0,0,.371-2.4,5.247,5.247,0,0,0-.695-2.114,8.313,8.313,0,0,0-1.2-1.592,13.064,13.064,0,0,0-1.166-1.07,10.8,10.8,0,0,0-1.128-.821.161.161,0,0,1-.059-.223A.165.165,0,0,1,109.342,129.264Z" transform="translate(-106.726 -129.254)" fill="url(#linear-gradient-5)"/>
        <path id="Path_53391" data-name="Path 53391" d="M109.05,129.265a2.583,2.583,0,0,1,.324.168,4.188,4.188,0,0,1,.813.611,4.791,4.791,0,0,1,.952,1.28,5.641,5.641,0,0,1,.6,2,8.044,8.044,0,0,1-.084,2.446,12.743,12.743,0,0,1-.758,2.573,21.35,21.35,0,0,1-1.238,2.509,10.067,10.067,0,0,0-.956,2.392,6.58,6.58,0,0,0-.185,2.472,6.5,6.5,0,0,0,.728,2.282,9.144,9.144,0,0,0,1.385,1.878,13.064,13.064,0,0,0,1.625,1.419,14.3,14.3,0,0,0,2.867,1.625,7.885,7.885,0,0,0,.872.307,2.9,2.9,0,0,0,.316.076.164.164,0,0,1,.139.189.17.17,0,0,1-.152.139h-.008a5.251,5.251,0,0,1-1.339-.139,11.766,11.766,0,0,1-3.288-1.272,11.114,11.114,0,0,1-1.954-1.381,8.943,8.943,0,0,1-1.777-2.084,7.475,7.475,0,0,1-1.04-2.821,8.253,8.253,0,0,1,.173-3.1,11.154,11.154,0,0,1,1.158-2.792l.674-1.175c.215-.379.4-.762.589-1.141a14.953,14.953,0,0,0,.842-2.249,8.374,8.374,0,0,0,.291-2.08,5.529,5.529,0,0,0-.27-1.731,4.812,4.812,0,0,0-.623-1.225,5,5,0,0,0-.589-.682,2.319,2.319,0,0,0-.244-.2.168.168,0,0,1,.156-.295Z" transform="translate(-106.426 -129.255)" fill="url(#linear-gradient-6)"/>
      </g>
      <path id="Path_53392" data-name="Path 53392" d="M90.658,232.435l.067-.261c.051-.173.109-.429.211-.762a25.659,25.659,0,0,1,1.036-2.863,32.521,32.521,0,0,1,2.16-4.206,55.012,55.012,0,0,1,3.457-5.04c1.331-1.785,2.884-3.613,4.434-5.571a51.032,51.032,0,0,0,4.459-6.24,19.328,19.328,0,0,0,1.587-3.486,14.528,14.528,0,0,0,.451-1.832,12.526,12.526,0,0,0,.164-1.865,14.781,14.781,0,0,0-2.253-7.415,38.2,38.2,0,0,0-5.078-6.632l-.745-.8c-.244-.257-.505-.56-.754-.838-.493-.568-.96-1.137-1.406-1.726a35.932,35.932,0,0,1-2.408-3.634,33.26,33.26,0,0,1-3.23-7.558,35.9,35.9,0,0,1-1.3-7.192,39.414,39.414,0,0,1,.03-6.135,40.128,40.128,0,0,1,.682-4.657c.269-1.276.547-2.261.754-2.926.105-.337.194-.59.257-.762l.1-.261a.328.328,0,0,1,.627.189l0,.017-.059.253c-.038.168-.093.421-.156.754-.135.665-.3,1.651-.438,2.91a39.36,39.36,0,0,0-.253,4.547,38.523,38.523,0,0,0,.408,5.857,35.471,35.471,0,0,0,1.625,6.682,32.884,32.884,0,0,0,5.668,10.1c.434.518.876,1.044,1.339,1.545.232.248.442.484.7.745l.749.758a36.922,36.922,0,0,1,5.756,7.07,20.406,20.406,0,0,1,2,4.32,15.633,15.633,0,0,1,.573,2.366,15.872,15.872,0,0,1,.185,2.446,16.6,16.6,0,0,1-.232,2.425,17.234,17.234,0,0,1-.611,2.3,21.341,21.341,0,0,1-.888,2.131c-.341.674-.7,1.326-1.091,1.945a47.422,47.422,0,0,1-5.019,6.451c-1.7,1.857-3.3,3.617-4.783,5.238-1.457,1.617-2.72,3.145-3.781,4.539a40.832,40.832,0,0,0-2.543,3.76c-.64,1.086-1.091,1.971-1.381,2.577l-.442.96a.336.336,0,0,1-.442.16A.332.332,0,0,1,90.658,232.435Z" transform="translate(-11.348 4.985)" fill="url(#linear-gradient-7)"/>
      <path id="Path_53393" data-name="Path 53393" d="M97.392,149.795s-.152.35-.421,1.019-.644,1.663-1.082,2.939-.926,2.83-1.4,4.636a60.222,60.222,0,0,0-1.276,6.105,46.474,46.474,0,0,0-.552,7.272c.017,1.288.08,2.6.223,3.933a30.562,30.562,0,0,0,.712,4.017,29.446,29.446,0,0,0,1.288,3.983c.261.648.56,1.309.872,1.928l.253.505.253.467c.16.3.345.615.526.926a34.676,34.676,0,0,0,5.524,6.859c2.143,2.122,4.514,4.11,6.775,6.244a46.892,46.892,0,0,1,6.19,6.9,32.466,32.466,0,0,1,4,7.773,38.015,38.015,0,0,1,1.785,7.537,51.274,51.274,0,0,1,.446,6.455c.025,1.92-.072,3.583-.156,4.952-.042.682-.1,1.293-.152,1.823s-.1.977-.139,1.339l-.135,1.116a.329.329,0,0,1-.657-.038v0l-.008-1.116c0-.724-.021-1.79-.067-3.141s-.135-2.985-.3-4.846a57.623,57.623,0,0,0-.914-6.181,38.668,38.668,0,0,0-2.105-6.977,29.79,29.79,0,0,0-3.987-6.939A43.865,43.865,0,0,0,106.921,203c-2.244-2-4.657-3.987-6.956-6.215a43.173,43.173,0,0,1-3.284-3.554A32.5,32.5,0,0,1,93.9,189.24c-.2-.349-.4-.695-.6-1.065l-.286-.543-.253-.509c-.362-.741-.674-1.461-.956-2.206a28.51,28.51,0,0,1-1.331-4.484,34.743,34.743,0,0,1-.682-8.724,43.358,43.358,0,0,1,1.078-7.668,50.167,50.167,0,0,1,1.878-6.206,49.166,49.166,0,0,1,1.966-4.568c.6-1.238,1.133-2.181,1.5-2.817s.6-.968.6-.968a.33.33,0,0,1,.577.316Z" transform="translate(-14.225 4.272)" fill="url(#linear-gradient-8)"/>
      <path id="Path_53394" data-name="Path 53394" d="M92.262,149.546l-.013.072-.025.215c-.017.194-.038.488-.046.872a18.11,18.11,0,0,0,.274,3.305,23.552,23.552,0,0,0,1.427,4.926,29.754,29.754,0,0,0,3.238,5.794,40.62,40.62,0,0,0,5.213,5.895c1.015.939,2.177,1.9,3.31,3.074a23.32,23.32,0,0,1,3.053,3.882,17.83,17.83,0,0,1,2.118,4.792,15.786,15.786,0,0,1,.484,5.411,21.063,21.063,0,0,1-1.15,5.284,34.858,34.858,0,0,1-2.152,4.83c-1.659,3.061-3.579,5.87-5.318,8.632-.867,1.385-1.705,2.745-2.421,4.114-.358.682-.682,1.364-.96,2.051q-.208.512-.379,1.023l-.042.126c0,.017.013-.042,0,0l-.013.038-.021.072-.08.282-.168.569-.16.564-.126.526c-.08.354-.181.7-.24,1.061l-.2,1.074-.152,1.061a18.193,18.193,0,0,0-.025,4.114,15.591,15.591,0,0,0,2.632,6.994,30.841,30.841,0,0,0,4.375,5c1.469,1.385,2.813,2.564,3.912,3.55s1.945,1.781,2.522,2.329l.867.855a.33.33,0,0,1-.434.5l0,0-.956-.733c-.623-.48-1.562-1.145-2.745-2.013s-2.657-1.895-4.274-3.2a29.465,29.465,0,0,1-5.057-4.981,18.9,18.9,0,0,1-2.181-3.575,16.691,16.691,0,0,1-1.305-4.337,20.752,20.752,0,0,1-.2-4.754l.114-1.208c.051-.4.122-.8.185-1.2s.156-.817.24-1.225l.131-.615.147-.577.152-.573.076-.286.046-.181.046-.156c.126-.417.265-.829.417-1.23.3-.813.648-1.6,1.019-2.358a48.942,48.942,0,0,1,2.476-4.417c1.76-2.851,3.609-5.621,5.129-8.493a23.17,23.17,0,0,0,3-8.788,13.9,13.9,0,0,0-.307-4.35,14.911,14.911,0,0,0-1.638-4,22.205,22.205,0,0,0-2.573-3.482c-.922-1.057-2.008-2.051-3.065-3.124-1.027-1.074-2-2.152-2.863-3.255a35.676,35.676,0,0,1-2.32-3.339,29.785,29.785,0,0,1-1.773-3.293,28.678,28.678,0,0,1-1.208-3.154,22.447,22.447,0,0,1-1.015-5.373,16.808,16.808,0,0,1,.122-3.507,9.451,9.451,0,0,1,.244-1.238.328.328,0,0,1,.413-.219.332.332,0,0,1,.232.362Z" transform="translate(-9.541 3.734)" fill="url(#linear-gradient-9)"/>
      <rect id="Rectangle_1685" data-name="Rectangle 1685" width="104.294" height="104.294" transform="matrix(0.663, -0.749, 0.749, 0.663, 3.713, 78.078)" fill="url(#linear-gradient-10)"/>
      <g id="Group_7215" data-name="Group 7215" transform="translate(3.713)" opacity="0.3" style="mix-blend-mode: screen;isolation: isolate">
        <path id="Path_53395" data-name="Path 53395" d="M170.012,148.487a57.807,57.807,0,0,1-22.455,49.353c-.354.274-.707.543-1.065.8a57.937,57.937,0,0,1-58.38,5.941L72.7,190.93l69.147-78.078,26,23.028A57.967,57.967,0,0,1,170.012,148.487Z" transform="translate(-72.696 -112.852)" fill="url(#linear-gradient-11)"/>
      </g>
      <g id="Group_7217" data-name="Group 7217" transform="translate(3.713)" opacity="0.5" style="mix-blend-mode: multiply;isolation: isolate">
        <path id="Path_53396" data-name="Path 53396" d="M94.313,186.66c.219,3.739.438,7.478.657,11.179.32,5.44.632,10.8.935,15.954.484,8.665.935,16.75,1.318,23.676.362,6.935.665,12.712.876,16.754.131,2.737.223,4.674.274,5.646.021.467.034.707.034.707l-.379.025-.055-.712c-.063-.973-.206-2.905-.4-5.634-.282-4.042-.682-9.811-1.158-16.737-.455-6.922-.985-15-1.558-23.664-.3-4.918-.627-10.03-.947-15.213-.248-3.941-.493-7.929-.745-11.916-.543-9.242-1.086-18.48-1.6-27.137-.48-8.661-.931-16.75-1.318-23.681-.362-6.931-.661-12.708-.872-16.75-.16-3.263-.261-5.4-.3-6.1l.181-.206.206.185c.051.7.206,2.834.442,6.089.278,4.042.674,9.811,1.158,16.737.455,6.922.981,15.007,1.55,23.664C93.155,168.184,93.732,177.418,94.313,186.66Z" transform="translate(-20.109 -112.852)" fill="url(#linear-gradient-12)"/>
        <g id="Group_7216" data-name="Group 7216" transform="translate(0 50.126)">
          <path id="Path_53397" data-name="Path 53397" d="M219.92,143.782l-.943,1.065c-45.369-26.241-103.324-22.712-145.174,8.842l-1.107-.981,3.819-4.312a136.238,136.238,0,0,1,138.93-8.581Z" transform="translate(-72.696 -124.757)" fill="url(#linear-gradient-13)"/>
        </g>
      </g>
      <path id="Path_53398" data-name="Path 53398" d="M88.185,159.444l12.808-12.022,14.168,10.386Z" transform="translate(-19.255 -1.859)" fill="url(#linear-gradient-14)"/>
    </g>
  </g>
</svg>
