<svg xmlns="http://www.w3.org/2000/svg" xmlns:xlink="http://www.w3.org/1999/xlink" width="579.766" height="497.459" viewBox="0 0 579.766 497.459">
  <defs>
    <radialGradient id="radial-gradient" cx="0.5" cy="0.5" r="0.5" gradientTransform="matrix(0.707, 0.707, -0.707, 0.707, -92.158, 42.404)" gradientUnits="objectBoundingBox">
      <stop offset="0.139"/>
      <stop offset="0.232" stop-color="#131313"/>
      <stop offset="0.421" stop-color="#464646"/>
      <stop offset="0.69" stop-color="#989898"/>
      <stop offset="1" stop-color="#fff"/>
    </radialGradient>
    <linearGradient id="linear-gradient" x1="-2765.736" y1="-589.945" x2="-2765.217" y2="-589.945" gradientUnits="objectBoundingBox">
      <stop offset="0" stop-color="#5fce3d"/>
      <stop offset="0.483" stop-color="#317d9b"/>
      <stop offset="0.834" stop-color="#1347d8"/>
      <stop offset="1" stop-color="#0833f1"/>
    </linearGradient>
    <linearGradient id="linear-gradient-2" x1="-1133.519" y1="-440.867" x2="-1133.121" y2="-440.867" gradientUnits="objectBoundingBox">
      <stop offset="0" stop-color="#02b5fd"/>
      <stop offset="0.342" stop-color="#0694fd"/>
      <stop offset="1" stop-color="#0f4cff"/>
    </linearGradient>
    <linearGradient id="linear-gradient-3" x1="-1664.42" y1="-482.912" x2="-1663.824" y2="-482.912" gradientUnits="objectBoundingBox">
      <stop offset="0" stop-color="#fc9512"/>
      <stop offset="0.209" stop-color="#fc7b10"/>
      <stop offset="0.745" stop-color="#fe3e0e"/>
      <stop offset="1" stop-color="#ff260d"/>
    </linearGradient>
    <linearGradient id="linear-gradient-4" x1="-1681.817" y1="-636.376" x2="-1681.502" y2="-636.376" xlink:href="#linear-gradient"/>
    <linearGradient id="linear-gradient-5" x1="-2028.22" y1="-442.68" x2="-2027.512" y2="-442.68" xlink:href="#linear-gradient-2"/>
    <linearGradient id="linear-gradient-6" x1="-1237.356" y1="-526.975" x2="-1236.915" y2="-526.975" xlink:href="#linear-gradient-3"/>
    <linearGradient id="linear-gradient-7" x1="-511.013" y1="-148.229" x2="-510.545" y2="-148.229" xlink:href="#linear-gradient-2"/>
    <linearGradient id="linear-gradient-8" x1="-333.671" y1="-143.572" x2="-333.299" y2="-143.572" xlink:href="#linear-gradient-3"/>
    <linearGradient id="linear-gradient-9" x1="-407.315" y1="-136.687" x2="-407.017" y2="-136.687" xlink:href="#linear-gradient"/>
    <linearGradient id="linear-gradient-10" x1="-126.967" y1="-117.377" x2="-126.506" y2="-116.81" gradientUnits="objectBoundingBox">
      <stop offset="0" stop-color="#fdbf05"/>
      <stop offset="0.31" stop-color="#fda712"/>
      <stop offset="0.963" stop-color="#fe6933"/>
      <stop offset="1" stop-color="#ff6636"/>
    </linearGradient>
    <linearGradient id="linear-gradient-11" x1="-144.068" y1="-121.471" x2="-143.502" y2="-121.471" xlink:href="#linear-gradient-10"/>
    <linearGradient id="linear-gradient-12" x1="-461.393" y1="-84.227" x2="-461.373" y2="-83.759" gradientUnits="objectBoundingBox">
      <stop offset="0" stop-color="#d59647"/>
      <stop offset="0.196" stop-color="#bd833d"/>
      <stop offset="0.741" stop-color="#805426"/>
      <stop offset="1" stop-color="#68421d"/>
    </linearGradient>
    <linearGradient id="linear-gradient-13" x1="-91.503" y1="-303.219" x2="-90.973" y2="-303.219" xlink:href="#linear-gradient-12"/>
  </defs>
  <g id="Group_7224" data-name="Group 7224" transform="translate(-75.009 177.457) rotate(-34)">
    <circle id="Ellipse_694" data-name="Ellipse 694" cx="167.541" cy="167.541" r="167.541" transform="matrix(0.558, -0.83, 0.83, 0.558, 0, 314.563)" fill="url(#radial-gradient)" style="mix-blend-mode: color-burn;isolation: isolate"/>
    <g id="Group_7223" data-name="Group 7223" transform="translate(83.356)">
      <path id="Path_53399" data-name="Path 53399" d="M155.247,114.12l-.206,2.387c-.109,1.507-.236,3.651-.219,6.164a39.607,39.607,0,0,0,.274,3.983,19.876,19.876,0,0,0,.922,4.135,12.235,12.235,0,0,0,.859,1.912q.625.992,1.272,2c.935,1.482,1.815,3.036,2.619,4.632a33.9,33.9,0,0,1,2.034,5.04,19.634,19.634,0,0,1,.914,5.377,14.428,14.428,0,0,1-.8,5.141,17.731,17.731,0,0,1-2.076,3.992,29.1,29.1,0,0,1-2.236,2.867c-.691.813-1.339,1.478-1.857,2.034-1.053,1.1-1.684,1.714-1.684,1.714s.337-.813,1.011-2.181c.657-1.368,1.705-3.293,2.695-5.575a19.5,19.5,0,0,0,1.158-3.684,13.266,13.266,0,0,0,.126-4.076,20.047,20.047,0,0,0-1.078-4.354,42.225,42.225,0,0,0-1.937-4.438c-.733-1.486-1.554-2.931-2.358-4.362-.43-.754-.842-1.385-1.305-2.328a14.449,14.449,0,0,1-.947-2.657,19.447,19.447,0,0,1-.518-5.04,25.944,25.944,0,0,1,.488-4.354,27.406,27.406,0,0,1,.88-3.524,26.587,26.587,0,0,1,.943-2.619A19.218,19.218,0,0,1,155.247,114.12Z" transform="translate(-145.625 98.891)" fill="url(#linear-gradient)"/>
      <path id="Path_53400" data-name="Path 53400" d="M160.3,114.728a27.139,27.139,0,0,0-2.194,2.653,30.6,30.6,0,0,0-2.118,3.284,20.284,20.284,0,0,0-1.874,4.543,13,13,0,0,0-.35,5.478,12.654,12.654,0,0,0,2.375,5.5,23.109,23.109,0,0,0,4.817,4.716c.48.349.931.724,1.448,1.04l1.592,1.044q1.585,1.067,3.175,2.139c1.049.787,2.105,1.752,3.145,2.623,1.019.909,1.882,1.937,2.817,2.9.867,1.023,1.638,2.131,2.392,3.208q.486.872.964,1.735a11.083,11.083,0,0,1,.863,1.752,19.345,19.345,0,0,1,1.225,3.613,17.475,17.475,0,0,1,.392,1.8l.2,1.794a10.124,10.124,0,0,1,.072,1.743c-.008.573-.017,1.133-.025,1.688-.173,1.095-.24,2.16-.493,3.145a20.956,20.956,0,0,1-.8,2.792,18.545,18.545,0,0,1-1.006,2.4,15.218,15.218,0,0,1-1.078,2,17.491,17.491,0,0,1-1.061,1.6c-.35.459-.661.867-.935,1.221l-.771.834c-.421.451-.644.686-.644.686a.406.406,0,0,1-.573.021.411.411,0,0,1-.072-.514l.021-.029.48-.771c.152-.253.341-.56.564-.922.194-.375.417-.808.665-1.293a16.076,16.076,0,0,0,.737-1.642,17.691,17.691,0,0,0,.724-1.971,16.873,16.873,0,0,0,.611-2.286,21.121,21.121,0,0,0,.434-2.564c.135-.893.084-1.836.139-2.792l-.109-1.461a7.865,7.865,0,0,0-.173-1.491c-.1-.5-.189-1-.286-1.507a15.38,15.38,0,0,0-.459-1.5,12.612,12.612,0,0,0-.526-1.512c-.223-.493-.451-.99-.678-1.491a8.691,8.691,0,0,0-.8-1.457q-.436-.714-.884-1.44c-.337-.459-.716-.9-1.069-1.356-.371-.442-.678-.935-1.091-1.356-.842-.821-1.625-1.739-2.518-2.505-.926-.737-1.76-1.512-2.762-2.24q-1.566-1.1-3.137-2.194l-1.579-1.065c-.556-.358-1.074-.792-1.609-1.2a24.3,24.3,0,0,1-5.453-5.806,15.007,15.007,0,0,1-2.552-7.242,14.331,14.331,0,0,1,.147-3.575,17.3,17.3,0,0,1,.9-3.141,19.592,19.592,0,0,1,2.712-4.821,25.034,25.034,0,0,1,2.771-3.124,23.069,23.069,0,0,1,2.017-1.735c.484-.375.762-.564.762-.564a.41.41,0,0,1,.522.627Z" transform="translate(-150.413 98.599)" fill="url(#linear-gradient-2)"/>
      <path id="Path_53401" data-name="Path 53401" d="M156.285,114.707a6.239,6.239,0,0,0-.455.636,11.379,11.379,0,0,0-1.718,5.3,13.564,13.564,0,0,0,.425,4.3,20.487,20.487,0,0,0,1.987,4.787,37.09,37.09,0,0,0,3.4,4.846c.678.792,1.373,1.592,2.122,2.362.771.787,1.545,1.583,2.333,2.383a27.861,27.861,0,0,1,4.489,5.954,20.366,20.366,0,0,1,2.333,7.3,18.574,18.574,0,0,1-.728,7.385,22.338,22.338,0,0,1-2.952,6.076,27.426,27.426,0,0,1-3.819,4.514,29.036,29.036,0,0,1-7.061,5.07,12.8,12.8,0,0,1-3.12,1.162l-.017,0a.41.41,0,0,1-.236-.779s.253-.109.707-.366a21.044,21.044,0,0,0,1.895-1.276,35.277,35.277,0,0,0,5.836-5.659,31.354,31.354,0,0,0,3.011-4.4,22.237,22.237,0,0,0,2.143-5.343,15.989,15.989,0,0,0,.324-5.908,16.28,16.28,0,0,0-1.971-5.785,24.831,24.831,0,0,0-3.764-5.12,52.8,52.8,0,0,1-4.51-5.23,30.66,30.66,0,0,1-3.4-5.676,19.68,19.68,0,0,1-1.722-5.785,13.963,13.963,0,0,1,.206-5.15,11.954,11.954,0,0,1,1.482-3.646,10.405,10.405,0,0,1,1.558-1.958,6.81,6.81,0,0,1,.674-.6.409.409,0,0,1,.552.6Z" transform="translate(-146.385 98.603)" fill="url(#linear-gradient-3)"/>
      <g id="Group_7220" data-name="Group 7220" transform="translate(360.532 143.898)">
        <path id="Path_53402" data-name="Path 53402" d="M236.133,97.8a18.819,18.819,0,0,1,1.781,1.642,27.232,27.232,0,0,1,1.857,2.067,27.742,27.742,0,0,1,2.147,2.935,25.873,25.873,0,0,1,2.088,3.849,19.417,19.417,0,0,1,1.419,4.867,14.1,14.1,0,0,1,.122,2.817c-.072,1.044-.215,1.79-.328,2.649-.206,1.625-.421,3.276-.543,4.926a42.682,42.682,0,0,0-.118,4.842,20,20,0,0,0,.64,4.438,13.129,13.129,0,0,0,1.655,3.731,19.475,19.475,0,0,0,2.459,2.977c1.777,1.735,3.47,3.124,4.594,4.147,1.141,1.015,1.76,1.638,1.76,1.638s-.817-.324-2.206-.952c-.691-.32-1.541-.695-2.484-1.187a29.352,29.352,0,0,1-3.154-1.811,17.727,17.727,0,0,1-3.423-2.918,14.447,14.447,0,0,1-2.682-4.463,19.776,19.776,0,0,1-1.179-5.322,33.909,33.909,0,0,1-.013-5.432c.143-1.785.371-3.558.682-5.28.139-.783.282-1.562.421-2.333a12.349,12.349,0,0,0,.076-2.093,19.866,19.866,0,0,0-.707-4.181,38.941,38.941,0,0,0-1.246-3.794c-.931-2.333-1.857-4.274-2.526-5.625Z" transform="translate(-235.73 -97.404)" fill="url(#linear-gradient-4)"/>
        <path id="Path_53403" data-name="Path 53403" d="M236.542,97.714s.328.072.918.236a23.043,23.043,0,0,1,2.522.846,25.1,25.1,0,0,1,3.743,1.848,19.715,19.715,0,0,1,4.329,3.444,17.316,17.316,0,0,1,2.017,2.573,14.522,14.522,0,0,1,1.482,3.255,15.055,15.055,0,0,1,.362,7.672,24.28,24.28,0,0,1-2.863,7.436c-.341.568-.657,1.171-1.04,1.71l-1.057,1.583q-1.042,1.6-2.084,3.213c-.653,1.053-1.128,2.084-1.714,3.12-.535,1.044-.914,2.185-1.385,3.263-.223.547-.324,1.12-.5,1.672-.156.556-.341,1.1-.48,1.659l-.274,1.667a8.541,8.541,0,0,0-.2,1.651c-.021.552-.042,1.095-.063,1.634a12.6,12.6,0,0,0,.076,1.6,14.833,14.833,0,0,0,.147,1.566c.1.505.2,1.011.3,1.5a7.9,7.9,0,0,0,.4,1.448l.451,1.394c.413.863.72,1.76,1.183,2.535a21.461,21.461,0,0,0,1.364,2.211,16.881,16.881,0,0,0,1.432,1.886,17.368,17.368,0,0,0,1.415,1.554,16.534,16.534,0,0,0,1.3,1.242l1.107.947c.341.253.632.467.867.64l.733.531.029.025a.407.407,0,0,1-.408.7l-.851-.4c-.282-.131-.627-.29-1.032-.48l-1.326-.779a16.425,16.425,0,0,1-1.583-1.082,14.5,14.5,0,0,1-1.752-1.44,18.934,18.934,0,0,1-1.836-1.84,20.8,20.8,0,0,1-1.79-2.286c-.606-.817-1.074-1.777-1.642-2.728l-.661-1.554a10.565,10.565,0,0,1-.594-1.642c-.16-.568-.32-1.15-.484-1.735a16.891,16.891,0,0,1-.316-1.819,19.3,19.3,0,0,1-.227-3.806,11.215,11.215,0,0,1,.139-1.95q.12-.979.24-1.971c.291-1.284.59-2.6,1-3.874.505-1.238.918-2.518,1.52-3.743.636-1.2,1.251-2.488,1.929-3.613q1.067-1.592,2.131-3.179l1.082-1.571c.362-.484.64-1,.952-1.507a23.068,23.068,0,0,0,2.682-6.181,12.576,12.576,0,0,0,.126-5.987,12.977,12.977,0,0,0-2.383-4.947,20.612,20.612,0,0,0-3.448-3.5,31.467,31.467,0,0,0-3.2-2.244,27.339,27.339,0,0,0-3.032-1.634.4.4,0,0,1-.215-.535A.414.414,0,0,1,236.542,97.714Z" transform="translate(-236.012 -97.706)" fill="url(#linear-gradient-5)"/>
        <path id="Path_53404" data-name="Path 53404" d="M236.584,97.72a6.57,6.57,0,0,1,.85.3,10.136,10.136,0,0,1,2.177,1.225,11.971,11.971,0,0,1,2.75,2.821,13.891,13.891,0,0,1,2.131,4.691,19.711,19.711,0,0,1,.585,6.009,30.826,30.826,0,0,1-1.011,6.539,52.437,52.437,0,0,1-2.211,6.543,24.722,24.722,0,0,0-1.554,6.16,16.182,16.182,0,0,0,.354,6.105,15.861,15.861,0,0,0,2.522,5.347,22.393,22.393,0,0,0,4,4.143,31.138,31.138,0,0,0,4.446,2.939,35.2,35.2,0,0,0,7.537,3.044,20.355,20.355,0,0,0,2.236.467c.518.067.792.076.792.076a.4.4,0,0,1,.4.417.41.41,0,0,1-.32.392l-.021,0a12.8,12.8,0,0,1-3.326.1A29.037,29.037,0,0,1,250.47,153a27.59,27.59,0,0,1-5.234-2.737,22.341,22.341,0,0,1-5.027-4.518,18.583,18.583,0,0,1-3.457-6.569,20.246,20.246,0,0,1-.589-7.634,27.694,27.694,0,0,1,1.916-7.209l1.263-3.086c.4-1,.745-2,1.074-2.99a36.662,36.662,0,0,0,1.322-5.769,20.4,20.4,0,0,0,.038-5.183,13.565,13.565,0,0,0-1.229-4.147,11.407,11.407,0,0,0-3.588-4.265,6.286,6.286,0,0,0-.661-.413.409.409,0,0,1,.286-.762Z" transform="translate(-236.037 -97.703)" fill="url(#linear-gradient-6)"/>
      </g>
      <path id="Path_53405" data-name="Path 53405" d="M225.222,356.271l.08-.665c.059-.438.122-1.078.261-1.928a64.826,64.826,0,0,1,1.6-7.343,80.89,80.89,0,0,1,3.92-10.994,135.044,135.044,0,0,1,6.809-13.449c2.674-4.8,5.882-9.781,9.032-15.078s6.472-10.8,8.868-16.716a47.988,47.988,0,0,0,2.745-9.049,34.977,34.977,0,0,0,.505-4.619,30.764,30.764,0,0,0-.206-4.619c-.787-6.139-3.785-12.08-7.933-17.407a93.9,93.9,0,0,0-14.586-14.56l-2.084-1.71c-.678-.552-1.415-1.213-2.118-1.811-1.385-1.229-2.72-2.467-4-3.764a89.622,89.622,0,0,1-7.082-8.1,82.355,82.355,0,0,1-10.354-17.428,88.979,88.979,0,0,1-5.524-17.175,98,98,0,0,1-1.933-15.015,99.186,99.186,0,0,1,.152-11.613c.248-3.209.611-5.705.9-7.407.147-.851.278-1.5.371-1.937l.152-.678a.814.814,0,0,1,1.6.261l0,.038-.063.636c-.042.43-.093,1.07-.139,1.9-.105,1.672-.194,4.131-.118,7.259a96.394,96.394,0,0,0,.863,11.209,94.88,94.88,0,0,0,2.91,14.186A87.7,87.7,0,0,0,216,204.516a80.662,80.662,0,0,0,17.158,22.851c1.229,1.133,2.484,2.269,3.773,3.343.657.531,1.242,1.044,1.958,1.592l2.084,1.617a90.94,90.94,0,0,1,16.379,15.419,49.789,49.789,0,0,1,6.3,9.916,36.583,36.583,0,0,1,3.423,11.52,39.806,39.806,0,0,1,.232,6,43.448,43.448,0,0,1-.745,5.832,51.21,51.21,0,0,1-1.482,5.5c-.606,1.76-1.284,3.474-2.03,5.108a116.748,116.748,0,0,1-10.173,17.419c-3.545,5.1-6.893,9.924-9.988,14.375-3.04,4.425-5.625,8.577-7.773,12.333a102.06,102.06,0,0,0-4.99,10.025c-1.208,2.863-2.03,5.183-2.543,6.758l-.766,2.489a.817.817,0,0,1-1.592-.341Z" transform="translate(18.793 222.344)" fill="url(#linear-gradient-7)"/>
      <path id="Path_53406" data-name="Path 53406" d="M213.149,153.023s-.257.905-.7,2.632-1.032,4.278-1.688,7.533c-.632,3.263-1.339,7.23-1.907,11.8a148.718,148.718,0,0,0-1.124,15.352,114.8,114.8,0,0,0,1.015,17.971c.467,3.137,1.044,6.337,1.836,9.55a76.013,76.013,0,0,0,3.053,9.592,73.839,73.839,0,0,0,4.442,9.318c.851,1.507,1.806,3.019,2.762,4.43l.792,1.158.762,1.057c.488.69,1.053,1.394,1.592,2.1a85.175,85.175,0,0,0,15.756,14.969c5.924,4.5,12.375,8.581,18.607,13.066A115.526,115.526,0,0,1,275.732,288.4a80.089,80.089,0,0,1,12.325,17.7,94.3,94.3,0,0,1,6.821,17.853,126.128,126.128,0,0,1,3.2,15.642c.695,4.686,1,8.792,1.234,12.164.122,1.684.185,3.192.227,4.505s.084,2.425.1,3.326c.021,1.806.034,2.771.034,2.771a.815.815,0,0,1-1.621.126v-.017l-.387-2.72c-.236-1.777-.627-4.375-1.179-7.663s-1.305-7.263-2.333-11.76a141,141,0,0,0-4.249-14.826,94.7,94.7,0,0,0-7.428-16.367,73.483,73.483,0,0,0-12.017-15.685,107.6,107.6,0,0,0-16.645-13.411c-6.139-4.16-12.691-8.232-19.036-12.935a106.839,106.839,0,0,1-9.188-7.621,79.029,79.029,0,0,1-8.118-8.842c-.606-.8-1.217-1.566-1.811-2.413l-.876-1.23-.787-1.166c-1.124-1.7-2.114-3.356-3.057-5.086a69.568,69.568,0,0,1-4.707-10.539,85.07,85.07,0,0,1-4.518-21.112,105.681,105.681,0,0,1,.135-19.1,121.383,121.383,0,0,1,2.573-15.794,120.114,120.114,0,0,1,3.314-11.819c1.061-3.23,2.059-5.705,2.762-7.385s1.141-2.56,1.141-2.56a.816.816,0,0,1,1.516.585Z" transform="translate(13.105 220.455)" fill="url(#linear-gradient-8)"/>
      <path id="Path_53407" data-name="Path 53407" d="M205.213,152.444l0,.181.013.531c.017.484.059,1.2.168,2.143a45.236,45.236,0,0,0,1.743,8,58.519,58.519,0,0,0,5.1,11.588A73.958,73.958,0,0,0,222.039,188a100.626,100.626,0,0,0,14.682,12.716c2.787,1.966,5.933,3.933,9.091,6.438a57.4,57.4,0,0,1,8.737,8.493,44.317,44.317,0,0,1,6.745,11.04,39.092,39.092,0,0,1,2.947,13.07,51.316,51.316,0,0,1-1.095,13.3,84.762,84.762,0,0,1-3.68,12.514c-3.061,8.03-6.838,15.529-10.194,22.855-1.663,3.667-3.276,7.272-4.581,10.846-.648,1.79-1.221,3.566-1.676,5.331q-.347,1.32-.59,2.623l-.067.328c-.008.042.017-.105,0,0l-.013.093-.03.181-.109.724L241.989,310l-.21,1.427-.139,1.335c-.084.893-.215,1.764-.24,2.67-.046.9-.1,1.8-.143,2.691q-.013,1.326-.025,2.648a44.678,44.678,0,0,0,1.28,10.072,38.558,38.558,0,0,0,8.712,16.249,76.54,76.54,0,0,0,12.337,10.8c4.046,2.905,7.718,5.348,10.724,7.4,3.023,2.025,5.343,3.726,6.927,4.88l2.4,1.8a.814.814,0,0,1-.9,1.356l-.017-.008-2.573-1.482c-1.68-.964-4.194-2.291-7.377-4.03s-7.112-3.768-11.495-6.442a72.72,72.72,0,0,1-13.992-10.531,45.95,45.95,0,0,1-6.5-8.03,41.285,41.285,0,0,1-4.619-10.186,51.656,51.656,0,0,1-2.03-11.562l-.114-2.994c-.013-1,.034-2,.055-3.011,0-1,.122-2.038.189-3.07l.122-1.55.173-1.457.181-1.448.088-.728.059-.455.067-.4c.168-1.061.371-2.114.611-3.15.476-2.076,1.065-4.105,1.726-6.1a122.4,122.4,0,0,1,4.611-11.609c3.377-7.545,7-14.927,9.773-22.443,2.809-7.461,4.834-15.129,4.472-22.476a34.359,34.359,0,0,0-2.173-10.535,36.464,36.464,0,0,0-5.314-9.251,53.6,53.6,0,0,0-7.428-7.676c-2.6-2.291-5.579-4.366-8.514-6.644-2.867-2.295-5.587-4.615-8.072-7.036a90.906,90.906,0,0,1-6.762-7.4,75.383,75.383,0,0,1-5.411-7.482,72.162,72.162,0,0,1-3.983-7.314,55.482,55.482,0,0,1-4.236-12.809,41.186,41.186,0,0,1-.846-8.623,22.527,22.527,0,0,1,.2-3.1.816.816,0,0,1,1.621.135Z" transform="translate(19.69 219.253)" fill="url(#linear-gradient-9)"/>
      <rect id="Rectangle_1686" data-name="Rectangle 1686" width="257.359" height="257.359" transform="matrix(0.558, -0.83, 0.83, 0.558, 7.122, 213.53)" fill="url(#linear-gradient-10)"/>
      <g id="Group_7221" data-name="Group 7221" transform="translate(7.121)" opacity="0.3" style="mix-blend-mode: screen;isolation: isolate">
        <path id="Path_53408" data-name="Path 53408" d="M376.29,141.5A142.631,142.631,0,0,1,337.468,269.54c-.779.783-1.558,1.558-2.35,2.312a142.937,142.937,0,0,1-140.854,33.576L152.1,277.06,295.766,63.531l71.109,47.841A143.072,143.072,0,0,1,376.29,141.5Z" transform="translate(-152.104 -63.531)" fill="url(#linear-gradient-11)"/>
      </g>
      <path id="Path_53409" data-name="Path 53409" d="M222.952,242.407c1.76,9.082,3.512,18.156,5.259,27.133,2.556,13.2,5.07,26.215,7.487,38.717,4.008,21.04,7.752,40.666,10.956,57.488,3.137,16.842,5.764,30.868,7.6,40.691,1.213,6.649,2.076,11.36,2.505,13.718.215,1.133.32,1.722.32,1.722l-.918.181s-.122-.59-.362-1.722c-.48-2.354-1.457-7.04-2.834-13.647-2-9.794-4.863-23.769-8.295-40.557-3.368-16.792-7.3-36.38-11.52-57.374-2.354-11.937-4.809-24.325-7.289-36.906-1.891-9.562-3.79-19.226-5.71-28.9-4.341-22.43-8.687-44.847-12.758-65.863-4-21.032-7.739-40.666-10.943-57.488-3.15-16.842-5.769-30.868-7.6-40.691-1.453-7.92-2.4-13.112-2.716-14.821l.375-.56.56.375c.354,1.705,1.432,6.872,3.07,14.754,2,9.794,4.855,23.773,8.291,40.557C201.8,136,205.73,155.6,209.945,176.59,214.1,197.593,218.518,219.994,222.952,242.407Z" transform="translate(-35.725 -63.531)" fill="url(#linear-gradient-12)"/>
      <g id="Group_7222" data-name="Group 7222" transform="translate(7.121 115.828)">
        <path id="Path_53410" data-name="Path 53410" d="M509.3,118.874l-1.958,2.914C387.8,72.41,247.2,99.943,155.131,190.779l-3.027-2.038,7.937-11.794c44.342-40.3,99.236-67.682,159.76-79.518,60.279-11.79,121.182-7.2,177.255,13.209Z" transform="translate(-152.104 -91.039)" fill="url(#linear-gradient-13)"/>
      </g>
      <path id="Path_53411" data-name="Path 53411" d="M196.149,180.984,223.557,147.4,261.6,168.182Z" transform="translate(-3.57 205.744)" fill="#ffd23f"/>
    </g>
  </g>
</svg>
