<svg xmlns="http://www.w3.org/2000/svg" xmlns:xlink="http://www.w3.org/1999/xlink" width="340.176" height="403.921" viewBox="0 0 340.176 403.921">
  <defs>
    <radialGradient id="radial-gradient" cx="0.5" cy="0.5" r="0.5" gradientTransform="matrix(0.834, 0.552, -0.552, 0.834, -85.588, 54.081)" gradientUnits="objectBoundingBox">
      <stop offset="0.139"/>
      <stop offset="0.232" stop-color="#131313"/>
      <stop offset="0.421" stop-color="#464646"/>
      <stop offset="0.69" stop-color="#989898"/>
      <stop offset="1" stop-color="#fff"/>
    </radialGradient>
    <linearGradient id="linear-gradient" x1="-2681.129" y1="-767.185" x2="-2680.607" y2="-767.185" gradientUnits="objectBoundingBox">
      <stop offset="0" stop-color="#5fce3d"/>
      <stop offset="0.483" stop-color="#317d9b"/>
      <stop offset="0.834" stop-color="#1347d8"/>
      <stop offset="1" stop-color="#0833f1"/>
    </linearGradient>
    <linearGradient id="linear-gradient-2" x1="-1241.889" y1="-593.71" x2="-1241.437" y2="-593.71" gradientUnits="objectBoundingBox">
      <stop offset="0" stop-color="#02b5fd"/>
      <stop offset="0.342" stop-color="#0694fd"/>
      <stop offset="1" stop-color="#0f4cff"/>
    </linearGradient>
    <linearGradient id="linear-gradient-3" x1="-1731.613" y1="-623.409" x2="-1730.969" y2="-623.409" gradientUnits="objectBoundingBox">
      <stop offset="0" stop-color="#fc9512"/>
      <stop offset="0.209" stop-color="#fc7b10"/>
      <stop offset="0.745" stop-color="#fe3e0e"/>
      <stop offset="1" stop-color="#ff260d"/>
    </linearGradient>
    <linearGradient id="linear-gradient-4" x1="-1583.923" y1="-898.231" x2="-1583.615" y2="-898.231" xlink:href="#linear-gradient"/>
    <linearGradient id="linear-gradient-5" x1="-1611.859" y1="-599.502" x2="-1611.274" y2="-599.502" xlink:href="#linear-gradient-2"/>
    <linearGradient id="linear-gradient-6" x1="-1215.131" y1="-739.06" x2="-1214.681" y2="-739.06" xlink:href="#linear-gradient-3"/>
    <linearGradient id="linear-gradient-7" x1="-524.563" y1="-196.099" x2="-524.065" y2="-196.099" xlink:href="#linear-gradient-2"/>
    <linearGradient id="linear-gradient-8" x1="-345.657" y1="-202.217" x2="-345.257" y2="-202.217" xlink:href="#linear-gradient-3"/>
    <linearGradient id="linear-gradient-9" x1="-370.356" y1="-190.355" x2="-370.074" y2="-190.355" xlink:href="#linear-gradient"/>
    <linearGradient id="linear-gradient-10" x1="-172.899" y1="-150.071" x2="-172.247" y2="-149.27" gradientUnits="objectBoundingBox">
      <stop offset="0" stop-color="#fdbf05"/>
      <stop offset="0.31" stop-color="#fda712"/>
      <stop offset="0.963" stop-color="#fe6933"/>
      <stop offset="1" stop-color="#ff6636"/>
    </linearGradient>
    <linearGradient id="linear-gradient-11" x1="-217.346" y1="-149.738" x2="-216.462" y2="-149.738" xlink:href="#linear-gradient-10"/>
    <linearGradient id="linear-gradient-12" x1="-324.195" y1="-114.011" x2="-324.181" y2="-113.311" gradientUnits="objectBoundingBox">
      <stop offset="0" stop-color="#d59647"/>
      <stop offset="0.196" stop-color="#bd833d"/>
      <stop offset="0.741" stop-color="#805426"/>
      <stop offset="1" stop-color="#68421d"/>
    </linearGradient>
    <linearGradient id="linear-gradient-13" x1="-131.948" y1="-262.081" x2="-131.154" y2="-262.081" xlink:href="#linear-gradient-12"/>
  </defs>
  <g id="Group_7187" data-name="Group 7187" transform="translate(0 0)">
    <circle id="Ellipse_688" data-name="Ellipse 688" cx="122.311" cy="122.311" r="122.311" transform="translate(0 224.581) rotate(-55.48)" fill="url(#radial-gradient)" style="mix-blend-mode: color-burn;isolation: isolate"/>
    <g id="Group_7186" data-name="Group 7186" transform="translate(57.358 0)">
      <path id="Path_53321" data-name="Path 53321" d="M9.165,115.078l.181,1.735c.131,1.1.333,2.653.695,4.451a27.052,27.052,0,0,0,.745,2.821,14.555,14.555,0,0,0,1.234,2.838,8.745,8.745,0,0,0,.876,1.251l1.187,1.259c.876.935,1.722,1.928,2.518,2.96a24.723,24.723,0,0,1,2.152,3.331,14.364,14.364,0,0,1,1.4,3.731,10.562,10.562,0,0,1,.135,3.8,12.8,12.8,0,0,1-.935,3.145,20.7,20.7,0,0,1-1.208,2.362c-.383.678-.754,1.246-1.053,1.718-.6.935-.968,1.461-.968,1.461s.131-.632.425-1.705.766-2.594,1.162-4.366a14.359,14.359,0,0,0,.32-2.8,9.656,9.656,0,0,0-.472-2.943,14.636,14.636,0,0,0-1.377-2.968,30.926,30.926,0,0,0-2-2.918c-.733-.96-1.52-1.886-2.295-2.8-.413-.48-.792-.876-1.255-1.486a10.415,10.415,0,0,1-1.044-1.777,14.037,14.037,0,0,1-1.07-3.541,19.3,19.3,0,0,1-.253-3.187,20.164,20.164,0,0,1,.147-2.648c.08-.783.2-1.457.312-2.008A13.932,13.932,0,0,1,9.165,115.078Z" transform="translate(-4.213 57.104)" fill="url(#linear-gradient)"/>
      <path id="Path_53322" data-name="Path 53322" d="M12.487,115.476a19.819,19.819,0,0,0-1.208,2.206,22.934,22.934,0,0,0-1.065,2.648,14.849,14.849,0,0,0-.716,3.512A9.535,9.535,0,0,0,10,127.821a9.275,9.275,0,0,0,2.459,3.613,16.806,16.806,0,0,0,4.105,2.716c.392.185.766.392,1.179.547l1.288.526,2.568,1.1c.863.417,1.752.964,2.619,1.444.855.51,1.617,1.128,2.421,1.688.762.615,1.465,1.3,2.156,1.971.312.371.623.741.931,1.112a8.052,8.052,0,0,1,.859,1.137,14.138,14.138,0,0,1,1.377,2.417c.177.421.4.817.531,1.242s.265.842.392,1.255a7.269,7.269,0,0,1,.291,1.242l.215,1.213c.029.808.126,1.583.084,2.324a15.051,15.051,0,0,1-.189,2.11,13.47,13.47,0,0,1-.392,1.857,10.556,10.556,0,0,1-.5,1.579,12.917,12.917,0,0,1-.539,1.293l-.5,1-.442.707-.366.581a.3.3,0,0,1-.526-.265l.008-.025.236-.619.278-.737.3-1.023a11.469,11.469,0,0,0,.3-1.276,13.327,13.327,0,0,0,.248-1.512,12.385,12.385,0,0,0,.122-1.726,16.067,16.067,0,0,0-.042-1.895c-.025-.657-.194-1.331-.286-2.021l-.278-1.036a5.854,5.854,0,0,0-.333-1.04l-.413-1.044a11.139,11.139,0,0,0-.535-1.015,9.419,9.419,0,0,0-.589-1.011c-.227-.32-.455-.644-.691-.973a6.476,6.476,0,0,0-.775-.935l-.834-.909c-.3-.286-.636-.547-.956-.825s-.615-.577-.968-.821c-.716-.476-1.4-1.023-2.147-1.448-.771-.4-1.474-.842-2.291-1.225-.851-.383-1.705-.762-2.552-1.141l-1.28-.547c-.451-.177-.88-.417-1.318-.632a17.724,17.724,0,0,1-4.707-3.411,10.966,10.966,0,0,1-2.834-4.842A10.74,10.74,0,0,1,7.3,125.96a12.586,12.586,0,0,1,.211-2.375,14.347,14.347,0,0,1,1.28-3.832,18.222,18.222,0,0,1,1.554-2.619,16.546,16.546,0,0,1,1.208-1.524c.295-.337.472-.509.472-.509a.3.3,0,0,1,.421,0A.307.307,0,0,1,12.487,115.476Z" transform="translate(-7.304 56.892)" fill="url(#linear-gradient-2)"/>
      <path id="Path_53323" data-name="Path 53323" d="M10.286,115.464a4.925,4.925,0,0,0-.24.514,8.556,8.556,0,0,0-.434,1.566,8.692,8.692,0,0,0-.067,2.472,9.969,9.969,0,0,0,.9,3.027A14.908,14.908,0,0,0,12.53,126.2a26.806,26.806,0,0,0,3.107,3.006c.594.476,1.2.947,1.844,1.4.661.455,1.331.918,2,1.385a20.262,20.262,0,0,1,4.042,3.646,14.877,14.877,0,0,1,2.678,4.91,13.637,13.637,0,0,1,.5,5.394,16.258,16.258,0,0,1-1.28,4.766,19.755,19.755,0,0,1-2.114,3.76,21.253,21.253,0,0,1-4.362,4.611,9.39,9.39,0,0,1-2.076,1.263l-.013,0a.3.3,0,0,1-.274-.526,5.1,5.1,0,0,0,.455-.362,13.576,13.576,0,0,0,1.183-1.175,25.5,25.5,0,0,0,3.4-4.863,22.914,22.914,0,0,0,1.554-3.566,16.435,16.435,0,0,0,.8-4.126,11.612,11.612,0,0,0-.581-4.278,11.878,11.878,0,0,0-2.211-3.878,18.242,18.242,0,0,0-3.406-3.154,38.12,38.12,0,0,1-3.954-3.124,22.561,22.561,0,0,1-3.225-3.6,14.475,14.475,0,0,1-2.03-3.912A10.219,10.219,0,0,1,8,120.066a8.745,8.745,0,0,1,.56-2.817,7.689,7.689,0,0,1,.846-1.621,5.069,5.069,0,0,1,.4-.518.3.3,0,0,1,.425-.017A.307.307,0,0,1,10.286,115.464Z" transform="translate(-5.095 56.895)" fill="url(#linear-gradient-3)"/>
      <g id="Group_7183" data-name="Group 7183" transform="translate(247.048 74.15)">
        <path id="Path_53324" data-name="Path 53324" d="M66.041,91.866a14.235,14.235,0,0,1,1.5.931c.459.32,1.019.72,1.617,1.23A19.947,19.947,0,0,1,71.1,95.832a18.9,18.9,0,0,1,2.03,2.472,14.027,14.027,0,0,1,1.688,3.289,10.4,10.4,0,0,1,.48,2c.088.762.093,1.314.126,1.945.08,1.2.152,2.4.291,3.6a31.268,31.268,0,0,0,.585,3.491,14.793,14.793,0,0,0,1.07,3.095,9.73,9.73,0,0,0,1.7,2.442,14.606,14.606,0,0,0,2.173,1.8c1.516,1,2.922,1.76,3.87,2.337s1.486.931,1.486.931-.632-.118-1.714-.379c-.539-.131-1.2-.282-1.945-.505a21.058,21.058,0,0,1-2.51-.863,12.97,12.97,0,0,1-2.859-1.617,10.57,10.57,0,0,1-2.535-2.83,14.375,14.375,0,0,1-1.579-3.655A24.866,24.866,0,0,1,72.7,109.5c-.143-1.3-.223-2.6-.24-3.878,0-.581-.013-1.158-.017-1.731a9.023,9.023,0,0,0-.24-1.512,14.5,14.5,0,0,0-1.078-2.9A28.725,28.725,0,0,0,69.7,96.931c-.989-1.545-1.92-2.808-2.59-3.684Z" transform="translate(-65.769 -91.571)" fill="url(#linear-gradient-4)"/>
        <path id="Path_53325" data-name="Path 53325" d="M66.282,91.8s.248,0,.691.042A16.614,16.614,0,0,1,68.9,92.1a18.021,18.021,0,0,1,2.935.808,14.259,14.259,0,0,1,3.583,1.87,12.766,12.766,0,0,1,1.8,1.566,10.632,10.632,0,0,1,1.512,2.131,11.011,11.011,0,0,1,1.322,5.449,17.9,17.9,0,0,1-1.027,5.726c-.168.455-.312.926-.514,1.368l-.539,1.28-1.048,2.589c-.324.846-.522,1.651-.8,2.472-.24.825-.354,1.7-.543,2.535-.084.421-.076.846-.126,1.267s-.093.838-.114,1.255l.03,1.234a6.454,6.454,0,0,0,.088,1.213l.177,1.179a10.108,10.108,0,0,0,.278,1.133c.114.371.173.754.32,1.1l.425,1.04a6.25,6.25,0,0,0,.484.981l.514.935c.417.564.762,1.162,1.2,1.655a15.379,15.379,0,0,0,1.284,1.4,12.308,12.308,0,0,0,1.284,1.154,12.727,12.727,0,0,0,1.23.918,10.636,10.636,0,0,0,1.1.712l.926.526c.278.135.518.248.712.341l.6.278.025.013a.3.3,0,0,1,.143.4.306.306,0,0,1-.341.164l-.665-.164-.8-.206-1.061-.375A12.494,12.494,0,0,1,82,137.486a10.9,10.9,0,0,1-1.453-.792,13.625,13.625,0,0,1-1.571-1.065,14.878,14.878,0,0,1-1.6-1.389c-.547-.505-1.015-1.128-1.558-1.731l-.686-1.023a7.645,7.645,0,0,1-.648-1.095l-.589-1.179a13.173,13.173,0,0,1-.48-1.259,14.164,14.164,0,0,1-.686-2.7,8.376,8.376,0,0,1-.168-1.415l-.1-1.444c.034-.964.063-1.945.185-2.918.194-.956.312-1.933.573-2.893.291-.947.556-1.958.884-2.855.362-.859.728-1.718,1.091-2.577l.56-1.272c.189-.4.316-.808.472-1.213a16.838,16.838,0,0,0,1.074-4.8,9.282,9.282,0,0,0-.737-4.307,9.574,9.574,0,0,0-2.392-3.217,15.113,15.113,0,0,0-2.956-2.034,22.909,22.909,0,0,0-2.606-1.166,20.249,20.249,0,0,0-2.4-.754.3.3,0,0,1-.232-.354A.31.31,0,0,1,66.282,91.8Z" transform="translate(-65.976 -91.796)" fill="url(#linear-gradient-5)"/>
        <path id="Path_53326" data-name="Path 53326" d="M66.3,91.8a4.841,4.841,0,0,1,.648.1,7.652,7.652,0,0,1,1.735.577,8.877,8.877,0,0,1,2.358,1.642,10.223,10.223,0,0,1,2.173,3.07,14.474,14.474,0,0,1,1.251,4.227,22.566,22.566,0,0,1,.177,4.825,38.335,38.335,0,0,1-.682,5,18.24,18.24,0,0,0-.265,4.632,11.845,11.845,0,0,0,1.095,4.324,11.617,11.617,0,0,0,2.552,3.486,16.069,16.069,0,0,0,3.436,2.417,22.623,22.623,0,0,0,3.592,1.495,25.67,25.67,0,0,0,5.823,1.145,15.6,15.6,0,0,0,1.667.025,5.742,5.742,0,0,0,.581-.055.3.3,0,0,1,.164.568l-.013,0a9.292,9.292,0,0,1-2.371.531,21.153,21.153,0,0,1-6.337-.295,20.04,20.04,0,0,1-4.135-1.242,16.4,16.4,0,0,1-4.223-2.543,13.6,13.6,0,0,1-3.385-4.232,14.778,14.778,0,0,1-1.474-5.394,20.231,20.231,0,0,1,.375-5.432l.48-2.383c.152-.775.261-1.537.358-2.291a26.6,26.6,0,0,0,.152-4.324,15,15,0,0,0-.686-3.718,9.975,9.975,0,0,0-1.453-2.8,8.694,8.694,0,0,0-1.76-1.735,8.579,8.579,0,0,0-1.4-.825,4.715,4.715,0,0,0-.531-.206.3.3,0,0,1,.1-.585Z" transform="translate(-65.973 -91.793)" fill="url(#linear-gradient-6)"/>
      </g>
      <path id="Path_53327" data-name="Path 53327" d="M92.915,278.933l-.034-.488c-.017-.32-.063-.792-.08-1.419a46.981,46.981,0,0,1,.135-5.486,58.506,58.506,0,0,1,1.293-8.421,98.226,98.226,0,0,1,3.023-10.577c1.255-3.815,2.867-7.828,4.4-12.059a91.882,91.882,0,0,0,4.051-13.2,35.227,35.227,0,0,0,.72-6.867,25.846,25.846,0,0,0-.278-3.381,22.173,22.173,0,0,0-.783-3.284,26.7,26.7,0,0,0-8.089-11.381A68.549,68.549,0,0,0,84.8,193.937L83.075,193c-.564-.3-1.183-.674-1.768-1.006-1.162-.69-2.291-1.394-3.39-2.147a65.39,65.39,0,0,1-6.194-4.83A60.145,60.145,0,0,1,61.9,173.954,64.93,64.93,0,0,1,55.567,162.4a71.326,71.326,0,0,1-3.457-10.5,72.483,72.483,0,0,1-1.495-8.345c-.265-2.333-.349-4.173-.379-5.432-.013-.632-.008-1.116,0-1.44l.013-.505a.6.6,0,0,1,.615-.577.591.591,0,0,1,.573.539l0,.03.038.467c.034.312.084.775.164,1.381.156,1.213.434,2.99.918,5.217a70.247,70.247,0,0,0,2.164,7.916,69.388,69.388,0,0,0,4.046,9.769,63.872,63.872,0,0,0,6.594,10.493,58.86,58.86,0,0,0,15.453,14.013c1.04.64,2.093,1.284,3.166,1.878.543.291,1.036.577,1.625.872l1.714.872a66.214,66.214,0,0,1,13.87,8.792,36.2,36.2,0,0,1,5.886,6.236,28.865,28.865,0,0,1,2.333,3.718,28.3,28.3,0,0,1,1.71,4.072,29.169,29.169,0,0,1,.994,4.27,31.4,31.4,0,0,1,.269,4.282,36.125,36.125,0,0,1-.3,4.147c-.189,1.347-.442,2.665-.749,3.941a85.692,85.692,0,0,1-4.889,13.895c-1.84,4.143-3.575,8.063-5.179,11.68-1.566,3.592-2.846,6.922-3.87,9.912a75.079,75.079,0,0,0-2.194,7.878c-.472,2.219-.737,4-.893,5.2l-.206,1.886a.6.6,0,0,1-1.187-.021Z" transform="translate(130.509 123.002)" fill="url(#linear-gradient-7)"/>
      <path id="Path_53328" data-name="Path 53328" d="M53.218,135.794s-.059.682-.139,1.983-.147,3.208-.173,5.634c0,2.425.038,5.369.261,8.72a108.225,108.225,0,0,0,1.314,11.158,83.444,83.444,0,0,0,3.208,12.746c.766,2.185,1.621,4.4,2.627,6.594a55.707,55.707,0,0,0,3.516,6.451,53.579,53.579,0,0,0,4.472,6.072c.817.96,1.71,1.912,2.59,2.792l.728.72.691.653c.446.43.947.855,1.432,1.284a62.4,62.4,0,0,0,13.36,8.56c4.868,2.4,10.055,4.442,15.141,6.8a84.512,84.512,0,0,1,14.514,8.253A58.333,58.333,0,0,1,128.036,235.2a68.632,68.632,0,0,1,7.352,11.853,91.854,91.854,0,0,1,4.455,10.775c1.141,3.263,1.924,6.164,2.56,8.548.32,1.192.573,2.265.783,3.2s.4,1.726.531,2.375l.408,1.979a.6.6,0,0,1-.463.7.592.592,0,0,1-.682-.392l0-.008-.653-1.9c-.413-1.242-1.053-3.049-1.9-5.331s-1.941-5.027-3.3-8.11a102.327,102.327,0,0,0-5.091-10.038,69.08,69.08,0,0,0-7.583-10.712,53.721,53.721,0,0,0-10.775-9.583,78.788,78.788,0,0,0-13.786-7.318c-4.973-2.135-10.232-4.152-15.432-6.649a77.645,77.645,0,0,1-7.638-4.194,57.753,57.753,0,0,1-7.036-5.221c-.547-.484-1.091-.952-1.634-1.478l-.8-.762-.72-.724c-1.04-1.061-1.983-2.118-2.9-3.225a50.757,50.757,0,0,1-4.83-6.91,62.227,62.227,0,0,1-6.152-14.51,77.5,77.5,0,0,1-2.539-13.714,92.8,92.8,0,0,1,.408-20.607c.32-2.459.691-4.375.964-5.676s.463-1.992.463-1.992a.6.6,0,0,1,.737-.417A.6.6,0,0,1,53.218,135.794Z" transform="translate(129.174 121.531)" fill="url(#linear-gradient-8)"/>
      <path id="Path_53329" data-name="Path 53329" d="M51.234,135.419l.025.131.08.379c.076.345.211.855.417,1.512a32.5,32.5,0,0,0,2.354,5.495,42.568,42.568,0,0,0,5.255,7.6A53.816,53.816,0,0,0,68.2,158.59a73.617,73.617,0,0,0,12.278,7.087c2.274,1.027,4.8,2,7.406,3.364a41.779,41.779,0,0,1,7.436,4.884,32.2,32.2,0,0,1,6.358,6.981,28.512,28.512,0,0,1,3.916,8.964,37.632,37.632,0,0,1,1.053,9.684,61.78,61.78,0,0,1-.914,9.478c-1.086,6.177-2.762,12.072-4.156,17.79-.682,2.859-1.343,5.663-1.785,8.409-.219,1.369-.383,2.724-.467,4.051-.042.661-.063,1.318-.059,1.962v.244c0,.034-.008-.076,0,0l0,.067,0,.135.021.535.042,1.065.046,1.053.084.977c.063.653.088,1.293.2,1.95l.269,1.945c.114.636.232,1.272.345,1.9a32.661,32.661,0,0,0,2.307,7.044,28.141,28.141,0,0,0,8.489,10.442,55.637,55.637,0,0,0,10.333,6.042c3.3,1.528,6.274,2.771,8.708,3.823,2.446,1.036,4.345,1.933,5.638,2.543l1.975.96a.6.6,0,0,1-.455,1.1l-.017,0-2.046-.712c-1.339-.459-3.322-1.061-5.844-1.87s-5.617-1.718-9.133-3.032a53.062,53.062,0,0,1-11.478-5.617,33.692,33.692,0,0,1-5.769-4.859,30.227,30.227,0,0,1-4.716-6.665,37.748,37.748,0,0,1-3.049-8.009l-.493-2.131c-.152-.716-.257-1.44-.379-2.169-.139-.716-.194-1.478-.286-2.223l-.126-1.129-.08-1.069-.072-1.065-.034-.535-.021-.333-.008-.291c-.025-.787-.025-1.566,0-2.345.055-1.554.2-3.091.4-4.611a88.68,88.68,0,0,1,1.7-8.956c1.377-5.874,2.956-11.668,3.907-17.436.985-5.735,1.377-11.512.105-16.729a25.075,25.075,0,0,0-3.011-7.255,26.559,26.559,0,0,0-5.086-5.895,38.869,38.869,0,0,0-6.383-4.48c-2.181-1.28-4.6-2.362-7.019-3.592-2.371-1.246-4.644-2.535-6.758-3.929a66.431,66.431,0,0,1-5.87-4.371,55.357,55.357,0,0,1-4.91-4.619,51.788,51.788,0,0,1-3.865-4.695,40.473,40.473,0,0,1-4.8-8.6,30.564,30.564,0,0,1-1.8-6.063,16.884,16.884,0,0,1-.286-2.253.6.6,0,0,1,1.183-.126Z" transform="translate(129.94 120.816)" fill="url(#linear-gradient-9)"/>
      <rect id="Rectangle_1680" data-name="Rectangle 1680" width="187.882" height="187.882" transform="translate(3.23 172.897) rotate(-66.962)" fill="url(#linear-gradient-10)"/>
      <g id="Group_7184" data-name="Group 7184" transform="translate(3.23 0.001)" opacity="0.3" style="mix-blend-mode: screen;isolation: isolate">
        <path id="Path_53330" data-name="Path 53330" d="M150.083,118.97a104.133,104.133,0,0,1-10.164,97.143c-.451.67-.9,1.331-1.364,1.983a104.377,104.377,0,0,1-96.343,43.5L8.071,247.083,81.6,74.186l57.58,24.485A104.6,104.6,0,0,1,150.083,118.97Z" transform="translate(-8.071 -74.186)" fill="url(#linear-gradient-11)"/>
      </g>
      <path id="Path_53331" data-name="Path 53331" d="M76.483,197.385C79,203.658,81.506,209.92,84,216.114c3.651,9.116,7.251,18.093,10.708,26.725,5.777,14.527,11.167,28.081,15.786,39.7,4.573,11.642,8.392,21.331,11.061,28.123,1.79,4.6,3.057,7.857,3.693,9.491.307.779.463,1.187.463,1.187l-.632.257-.5-1.183c-.665-1.621-2.013-4.846-3.912-9.394-2.787-6.741-6.766-16.367-11.541-27.929-4.733-11.571-10.253-25.07-16.177-39.542-3.335-8.228-6.8-16.775-10.312-25.449-2.678-6.594-5.373-13.263-8.084-19.929-6.2-15.482-12.413-30.952-18.232-45.454-5.769-14.527-11.158-28.085-15.777-39.7C35.96,101.37,32.149,91.677,29.48,84.889c-2.135-5.478-3.528-9.07-3.992-10.253l.189-.451.455.19c.488,1.175,1.971,4.729,4.236,10.152,2.787,6.745,6.758,16.375,11.537,27.933C46.642,124.031,52.162,137.539,58.078,152,63.956,166.483,70.213,181.932,76.483,197.385Z" transform="translate(51.078 -74.185)" fill="url(#linear-gradient-12)"/>
      <g id="Group_7185" data-name="Group 7185" transform="translate(3.23 66.335)">
        <path id="Path_53332" data-name="Path 53332" d="M254.494,97.132l-1,2.362c-92.5-18.91-189.5,20.228-242.97,98.049L8.071,196.5l4.059-9.55c26.232-35.011,61.8-62.212,103.56-79.05,41.584-16.771,85.88-21.878,128.891-14.986Z" transform="translate(-8.071 -89.94)" fill="url(#linear-gradient-13)"/>
      </g>
      <path id="Path_53333" data-name="Path 53333" d="M45.321,159.9l15.014-27.857,30.138,9.649Z" transform="translate(114.756 111.571)" fill="#ffd23f"/>
    </g>
  </g>
</svg>
