<svg xmlns="http://www.w3.org/2000/svg" xmlns:xlink="http://www.w3.org/1999/xlink" width="306.79" height="374.883" viewBox="0 0 306.79 374.883">
  <defs>
    <radialGradient id="radial-gradient" cx="0.5" cy="0.5" r="0.5" gradientTransform="translate(-81.762 37.944) rotate(45.002)" gradientUnits="objectBoundingBox">
      <stop offset="0.139"/>
      <stop offset="0.232" stop-color="#131313"/>
      <stop offset="0.421" stop-color="#464646"/>
      <stop offset="0.69" stop-color="#989898"/>
      <stop offset="1" stop-color="#fff"/>
    </radialGradient>
    <linearGradient id="linear-gradient" x1="-2175.597" y1="-688.93" x2="-2174.675" y2="-688.93" gradientUnits="objectBoundingBox">
      <stop offset="0" stop-color="#3fc416"/>
      <stop offset="0.132" stop-color="#35a835"/>
      <stop offset="0.56" stop-color="#195497"/>
      <stop offset="0.859" stop-color="#071ed5"/>
      <stop offset="1" stop-color="#000aee"/>
    </linearGradient>
    <linearGradient id="linear-gradient-2" x1="-2081.952" y1="-484.616" x2="-2080.303" y2="-484.616" gradientUnits="objectBoundingBox">
      <stop offset="0" stop-color="#00a6fd"/>
      <stop offset="0.29" stop-color="#0085fd"/>
      <stop offset="0.925" stop-color="#0032fe"/>
      <stop offset="1" stop-color="#0028ff"/>
    </linearGradient>
    <linearGradient id="linear-gradient-3" x1="-1438.607" y1="-570.027" x2="-1437.444" y2="-570.027" gradientUnits="objectBoundingBox">
      <stop offset="0" stop-color="#fb8000"/>
      <stop offset="0.304" stop-color="#fc5500"/>
      <stop offset="0.775" stop-color="#fe1800"/>
      <stop offset="1" stop-color="red"/>
    </linearGradient>
    <linearGradient id="linear-gradient-4" x1="-3447.718" y1="-653.406" x2="-3446.251" y2="-653.406" xlink:href="#linear-gradient"/>
    <linearGradient id="linear-gradient-5" x1="-1358.5" y1="-483.184" x2="-1357.421" y2="-483.184" xlink:href="#linear-gradient-2"/>
    <linearGradient id="linear-gradient-6" x1="-1859.454" y1="-535.94" x2="-1857.945" y2="-535.94" xlink:href="#linear-gradient-3"/>
    <linearGradient id="linear-gradient-7" x1="-534.481" y1="-166.307" x2="-533.37" y2="-166.307" xlink:href="#linear-gradient-2"/>
    <linearGradient id="linear-gradient-8" x1="-675.642" y1="-146.15" x2="-673.931" y2="-146.15" xlink:href="#linear-gradient-3"/>
    <linearGradient id="linear-gradient-9" x1="-625.886" y1="-141.444" x2="-624.846" y2="-141.444" xlink:href="#linear-gradient"/>
    <linearGradient id="linear-gradient-10" x1="-141.662" y1="-130.576" x2="-140.5" y2="-129.149" gradientUnits="objectBoundingBox">
      <stop offset="0.005" stop-color="#ff7880"/>
      <stop offset="0.331" stop-color="#ff576b"/>
      <stop offset="1" stop-color="#ff0a3b"/>
    </linearGradient>
    <linearGradient id="linear-gradient-11" x1="-141.764" y1="-149.681" x2="-140.509" y2="-149.681" gradientUnits="objectBoundingBox">
      <stop offset="0" stop-color="#ff0a3b"/>
      <stop offset="0.669" stop-color="#ff576b"/>
      <stop offset="0.995" stop-color="#ff7880"/>
    </linearGradient>
    <linearGradient id="linear-gradient-12" x1="-725.226" y1="-92.699" x2="-725.155" y2="-91.531" gradientUnits="objectBoundingBox">
      <stop offset="0" stop-color="#cc8122"/>
      <stop offset="0.318" stop-color="#9e5d16"/>
      <stop offset="0.78" stop-color="#612e06"/>
      <stop offset="1" stop-color="#491c00"/>
    </linearGradient>
    <linearGradient id="linear-gradient-13" x1="-101.13" y1="-386.164" x2="-99.806" y2="-386.164" xlink:href="#linear-gradient-12"/>
    <linearGradient id="linear-gradient-14" x1="-550.121" y1="-1047.457" x2="-550.121" y2="-1045.27" xlink:href="#linear-gradient-11"/>
  </defs>
  <g id="Group_7194" data-name="Group 7194" transform="matrix(0.788, 0.616, -0.616, 0.788, 136.045, -89.496)">
    <g id="Group_7193" data-name="Group 7193" transform="translate(0 0)">
      <circle id="Ellipse_689" data-name="Ellipse 689" cx="131.746" cy="131.746" r="131.746" transform="translate(0 159.458) rotate(-37.241)" fill="url(#radial-gradient)" style="mix-blend-mode: color-burn;isolation: isolate"/>
      <g id="Group_7192" data-name="Group 7192" transform="translate(72.367 47.02)">
        <path id="Path_53334" data-name="Path 53334" d="M250.883,91.918s-.223.5-.608,1.383-.889,2.131-1.387,3.638a24.287,24.287,0,0,0-.649,2.433,12.475,12.475,0,0,0-.292,2.657,7.588,7.588,0,0,0,.124,1.318l.35,1.455c.257,1.074.467,2.179.621,3.3a21.4,21.4,0,0,1,.189,3.422,12.381,12.381,0,0,1-.549,3.4,9.09,9.09,0,0,1-1.524,2.907,11.106,11.106,0,0,1-2.052,1.96,17.566,17.566,0,0,1-1.919,1.256c-.577.347-1.1.611-1.524.837-.851.446-1.356.68-1.356.68s.371-.415,1.05-1.095,1.689-1.62,2.742-2.78a12.429,12.429,0,0,0,1.441-1.963,8.375,8.375,0,0,0,.906-2.409,12.459,12.459,0,0,0,.24-2.818,25.987,25.987,0,0,0-.251-3.048c-.137-1.036-.333-2.066-.518-3.082-.106-.539-.223-1-.305-1.658a8.83,8.83,0,0,1-.027-1.778,12.159,12.159,0,0,1,.721-3.116,15.81,15.81,0,0,1,1.174-2.5,20.071,20.071,0,0,1,2.341-3.3A12.388,12.388,0,0,1,250.883,91.918Z" transform="translate(-236.468 6.54)" fill="url(#linear-gradient)"/>
        <path id="Path_53335" data-name="Path 53335" d="M250.14,92.334a16.792,16.792,0,0,0-1.853,1.139A19.983,19.983,0,0,0,246.354,95a13,13,0,0,0-2.046,2.33,8.266,8.266,0,0,0-1.321,3.2,7.987,7.987,0,0,0,.3,3.769,14.468,14.468,0,0,0,1.915,3.8c.216.305.408.621.652.913l.741.951c.484.638.971,1.28,1.455,1.925.47.683.9,1.472,1.345,2.2.426.752.731,1.541,1.095,2.3.309.789.542,1.606.776,2.4l.22,1.232a6.734,6.734,0,0,1,.158,1.222,12.248,12.248,0,0,1,0,2.406c-.048.391-.051.783-.134,1.16l-.244,1.109a6.708,6.708,0,0,1-.312,1.057l-.36,1c-.326.618-.583,1.242-.934,1.778a12.864,12.864,0,0,1-1.047,1.5,11.788,11.788,0,0,1-1.088,1.229,10,10,0,0,1-1.05.971,11.689,11.689,0,0,1-.958.738l-.81.539-.628.34-.525.278a.255.255,0,0,1-.347-.1.258.258,0,0,1,.065-.319l.017-.017.443-.364.525-.432.659-.638a9.3,9.3,0,0,0,.772-.831,10.666,10.666,0,0,0,.834-1.026,10.165,10.165,0,0,0,.834-1.242,13.869,13.869,0,0,0,.779-1.441c.264-.5.422-1.081.652-1.641l.233-.9a5.131,5.131,0,0,0,.2-.923l.134-.961a8.568,8.568,0,0,0,.034-.988,8.233,8.233,0,0,0-.007-1.009c-.034-.34-.069-.683-.1-1.03a5.787,5.787,0,0,0-.185-1.033l-.233-1.04c-.11-.343-.244-.683-.364-1.026s-.216-.7-.378-1.033c-.333-.662-.614-1.369-.992-2.008-.4-.632-.745-1.26-1.191-1.9-.477-.649-.954-1.3-1.428-1.946l-.724-.961c-.264-.326-.484-.69-.721-1.04a15.426,15.426,0,0,1-2.073-4.575,9.477,9.477,0,0,1-.048-4.846,9.026,9.026,0,0,1,.813-2.1,10.878,10.878,0,0,1,1.177-1.7,12.366,12.366,0,0,1,2.6-2.327,15.743,15.743,0,0,1,2.289-1.3,14.356,14.356,0,0,1,1.558-.628c.364-.124.57-.178.57-.178a.259.259,0,0,1,.319.175A.266.266,0,0,1,250.14,92.334Z" transform="translate(-235.632 6.365)" fill="url(#linear-gradient-2)"/>
        <path id="Path_53336" data-name="Path 53336" d="M253.708,92.329a3.783,3.783,0,0,0-.4.285,7.258,7.258,0,0,0-1,.988,7.614,7.614,0,0,0-1.105,1.826,8.582,8.582,0,0,0-.621,2.656,12.867,12.867,0,0,0,.213,3.264,22.826,22.826,0,0,0,1.043,3.587c.24.611.494,1.229.783,1.843s.6,1.26.91,1.9A17.511,17.511,0,0,1,255,113.145a12.917,12.917,0,0,1-.093,4.829,11.769,11.769,0,0,1-1.939,4.263,14.137,14.137,0,0,1-3,3.031,17.25,17.25,0,0,1-3.2,1.915,18.347,18.347,0,0,1-5.251,1.589,8.013,8.013,0,0,1-2.1.062l-.014,0a.251.251,0,0,1-.213-.292.255.255,0,0,1,.233-.22s.172-.014.5-.076a12.338,12.338,0,0,0,1.39-.377,22.053,22.053,0,0,0,4.637-2.19,19.914,19.914,0,0,0,2.694-2.015,13.934,13.934,0,0,0,2.365-2.756,9.952,9.952,0,0,0,1.4-3.46,10.182,10.182,0,0,0,0-3.854,15.731,15.731,0,0,0-1.2-3.827,32.9,32.9,0,0,1-1.63-4.04,19.253,19.253,0,0,1-.875-4.081,12.336,12.336,0,0,1,.151-3.806,8.759,8.759,0,0,1,1.167-3.031,7.578,7.578,0,0,1,1.63-1.877,6.517,6.517,0,0,1,1.328-.851,4.338,4.338,0,0,1,.522-.22.259.259,0,0,1,.209.47Z" transform="translate(-239.19 6.366)" fill="url(#linear-gradient-3)"/>
        <g id="Group_7188" data-name="Group 7188" transform="translate(227.941 128.707)">
          <path id="Path_53337" data-name="Path 53337" d="M311.454,100.8a11.951,11.951,0,0,1,.728,1.339c.209.439.457.978.69,1.617a17.725,17.725,0,0,1,.683,2.19,16.16,16.16,0,0,1,.463,2.722,12.146,12.146,0,0,1-.144,3.2,9.037,9.037,0,0,1-.5,1.706c-.257.611-.494,1.026-.738,1.514-.453.93-.917,1.871-1.325,2.832a26.011,26.011,0,0,0-1.057,2.869,12.6,12.6,0,0,0-.525,2.78,8.41,8.41,0,0,0,.23,2.564,12.519,12.519,0,0,0,.861,2.279c.711,1.4,1.438,2.574,1.9,3.412s.717,1.339.717,1.339-.422-.364-1.122-1.019c-.347-.333-.779-.728-1.246-1.215a18.357,18.357,0,0,1-1.514-1.723,11.147,11.147,0,0,1-1.448-2.44,9.077,9.077,0,0,1-.693-3.209,12.357,12.357,0,0,1,.381-3.418,21.745,21.745,0,0,1,1.095-3.247c.45-1.037.947-2.049,1.483-3.013.247-.439.487-.879.728-1.308a7.519,7.519,0,0,0,.47-1.236,12.418,12.418,0,0,0,.429-2.639,23.938,23.938,0,0,0,.027-2.519c-.079-1.582-.237-2.928-.36-3.875Z" transform="translate(-301.21 -100.56)" fill="url(#linear-gradient-4)"/>
          <path id="Path_53338" data-name="Path 53338" d="M316,100.768s.185.106.5.326a14.148,14.148,0,0,1,1.335,1.019,15.823,15.823,0,0,1,1.857,1.864,12.375,12.375,0,0,1,1.884,2.941,10.716,10.716,0,0,1,.68,1.946,9.034,9.034,0,0,1,.223,2.245,9.461,9.461,0,0,1-1.345,4.654,15.232,15.232,0,0,1-3.223,3.858c-.319.271-.628.566-.968.81l-.954.728-1.9,1.5c-.6.5-1.1,1.012-1.658,1.514-.535.515-1,1.119-1.493,1.668-.247.278-.422.6-.638.9s-.429.59-.625.892l-.5.94a5.17,5.17,0,0,0-.453.944c-.127.326-.251.645-.374.964a9.077,9.077,0,0,0-.278.968c-.072.326-.192.642-.23.964l-.127.961a5.184,5.184,0,0,0-.055.944l-.017.927c.072.6.072,1.194.189,1.754a14.984,14.984,0,0,0,.367,1.6,10.388,10.388,0,0,0,.47,1.417,10.953,10.953,0,0,0,.528,1.215,9.7,9.7,0,0,0,.522,1.006c.175.3.333.559.467.789.154.223.285.408.391.559l.326.467.014.021a.256.256,0,0,1-.385.333l-.429-.408-.518-.494-.635-.738a10.309,10.309,0,0,1-.724-.968,9.581,9.581,0,0,1-.752-1.215,11.557,11.557,0,0,1-.721-1.476,12.7,12.7,0,0,1-.6-1.726c-.2-.611-.278-1.28-.426-1.963l-.079-1.064a6.519,6.519,0,0,1-.021-1.1c.021-.371.045-.752.065-1.133a10.535,10.535,0,0,1,.182-1.153,12.224,12.224,0,0,1,.638-2.32,6.964,6.964,0,0,1,.481-1.133l.542-1.129c.436-.707.882-1.431,1.39-2.107.553-.638,1.06-1.318,1.668-1.925.625-.587,1.256-1.232,1.888-1.768.642-.487,1.28-.978,1.919-1.466l.968-.714c.312-.216.583-.47.872-.707a14.419,14.419,0,0,0,2.862-3.144,7.955,7.955,0,0,0,1.294-3.552,8.236,8.236,0,0,0-.415-3.439,13.093,13.093,0,0,0-1.345-2.79,19.159,19.159,0,0,0-1.455-1.991,16.718,16.718,0,0,0-1.479-1.592.259.259,0,0,1-.021-.364A.262.262,0,0,1,316,100.768Z" transform="translate(-305.603 -100.731)" fill="url(#linear-gradient-5)"/>
          <path id="Path_53339" data-name="Path 53339" d="M314.557,100.774a4.387,4.387,0,0,1,.446.35,6.5,6.5,0,0,1,1.05,1.177,7.559,7.559,0,0,1,1.071,2.245,8.824,8.824,0,0,1,.312,3.233,12.3,12.3,0,0,1-.872,3.707,19.256,19.256,0,0,1-1.936,3.7,33.324,33.324,0,0,1-2.65,3.46,15.475,15.475,0,0,0-2.183,3.364,10.22,10.22,0,0,0-1.033,3.717,10.054,10.054,0,0,0,.419,3.707,14.094,14.094,0,0,0,1.544,3.288,20.149,20.149,0,0,0,2.056,2.66,22.386,22.386,0,0,0,3.882,3.353,13.585,13.585,0,0,0,1.239.734c.3.148.46.206.46.206a.257.257,0,0,1,.154.329.261.261,0,0,1-.274.168h-.01a8.143,8.143,0,0,1-2-.621,18.2,18.2,0,0,1-4.633-2.935,17.371,17.371,0,0,1-2.571-2.7,14.117,14.117,0,0,1-2.08-3.724,11.677,11.677,0,0,1-.728-4.623,12.76,12.76,0,0,1,1.2-4.681,17.4,17.4,0,0,1,2.609-3.913q.7-.8,1.383-1.586c.443-.515.851-1.04,1.249-1.565a22.866,22.866,0,0,0,1.963-3.178,12.709,12.709,0,0,0,1.078-3.086,8.472,8.472,0,0,0,.113-2.729,7.654,7.654,0,0,0-.577-2.056,7.443,7.443,0,0,0-.7-1.218,3.581,3.581,0,0,0-.309-.381.263.263,0,0,1,0-.367A.26.26,0,0,1,314.557,100.774Z" transform="translate(-304.152 -100.731)" fill="url(#linear-gradient-6)"/>
        </g>
        <path id="Path_53340" data-name="Path 53340" d="M262.521,258.475l.182-.378c.124-.251.292-.621.549-1.1a41.171,41.171,0,0,1,2.447-4.057,51.238,51.238,0,0,1,4.579-5.769,84.909,84.909,0,0,1,6.8-6.641c2.578-2.327,5.505-4.644,8.464-7.166a79.134,79.134,0,0,0,8.7-8.175,30.191,30.191,0,0,0,3.48-4.843,22.522,22.522,0,0,0,1.242-2.66,19.688,19.688,0,0,0,.817-2.8,23.038,23.038,0,0,0-1.194-12.006,58.986,58.986,0,0,0-5.745-11.666l-.9-1.445c-.292-.467-.6-1.013-.892-1.514-.58-1.016-1.126-2.025-1.623-3.061a56.355,56.355,0,0,1-2.581-6.277,51.947,51.947,0,0,1-2.636-12.517,56.026,56.026,0,0,1,.2-11.378,60.049,60.049,0,0,1,4.359-16.265c.8-1.864,1.524-3.281,2.042-4.239.261-.477.47-.837.614-1.081l.23-.374a.513.513,0,0,1,.9.484l-.01.021-.165.367c-.113.247-.271.618-.47,1.109-.405.975-.958,2.427-1.548,4.307a60.981,60.981,0,0,0-1.768,6.868,59.934,59.934,0,0,0-1.15,9.064,55.6,55.6,0,0,0,.453,10.7,51.2,51.2,0,0,0,5.594,17.14c.5.923,1.023,1.857,1.572,2.763.285.45.532.875.848,1.349l.913,1.39a57.54,57.54,0,0,1,6.645,12.541,31.262,31.262,0,0,1,1.74,7.2,23.317,23.317,0,0,1-.3,7.578,25.165,25.165,0,0,1-1.088,3.631,26.969,26.969,0,0,1-1.63,3.329,32.28,32.28,0,0,1-2,2.983c-.721.93-1.472,1.812-2.251,2.636a73.8,73.8,0,0,1-9.62,8.333l-8.889,6.549c-2.718,2.025-5.107,3.975-7.153,5.783a63.431,63.431,0,0,0-5.021,4.97c-1.3,1.462-2.269,2.68-2.9,3.518L263.4,259a.514.514,0,0,1-.879-.529Z" transform="translate(-182.575 106.013)" fill="url(#linear-gradient-7)"/>
        <path id="Path_53341" data-name="Path 53341" d="M285.628,133.258s-.336.487-.954,1.431-1.486,2.344-2.54,4.153-2.272,4.047-3.542,6.658a92.974,92.974,0,0,0-3.8,8.934,72.248,72.248,0,0,0-3.051,10.938c-.36,1.97-.669,4-.851,6.078a47.581,47.581,0,0,0-.127,6.349,46.277,46.277,0,0,0,.755,6.466c.2,1.074.463,2.173.748,3.209l.237.851.24.786c.148.511.343,1.047.522,1.575a53.916,53.916,0,0,0,6.36,12.15c2.626,3.889,5.643,7.64,8.45,11.59a72.544,72.544,0,0,1,7.359,12.411,50.562,50.562,0,0,1,3.755,13.08,59.435,59.435,0,0,1,.439,12.047,79.614,79.614,0,0,1-1.277,9.995c-.539,2.938-1.195,5.45-1.74,7.513-.268,1.033-.539,1.946-.783,2.735s-.443,1.466-.618,2.008c-.354,1.085-.542,1.661-.542,1.661a.515.515,0,0,1-1-.254l0-.01.323-1.706c.22-1.109.515-2.739.855-4.815s.7-4.6,1-7.5a88.788,88.788,0,0,0,.481-9.713,59.5,59.5,0,0,0-1.1-11.288,46.416,46.416,0,0,0-3.981-11.81,68.178,68.178,0,0,0-7.211-11.4c-2.818-3.734-5.9-7.5-8.735-11.6a67,67,0,0,1-3.933-6.422,49.945,49.945,0,0,1-3.048-6.93c-.2-.6-.4-1.184-.587-1.809l-.275-.916-.233-.855c-.326-1.242-.58-2.437-.789-3.659a44.008,44.008,0,0,1-.666-7.252,53.771,53.771,0,0,1,1.6-13.526,66.793,66.793,0,0,1,3.971-11.381,76.923,76.923,0,0,1,4.75-8.91,75.918,75.918,0,0,1,4.386-6.38c1.29-1.709,2.392-2.986,3.151-3.847s1.2-1.3,1.2-1.3a.515.515,0,0,1,.786.659Z" transform="translate(-174.525 105.122)" fill="url(#linear-gradient-8)"/>
        <path id="Path_53342" data-name="Path 53342" d="M284.343,132.786l-.038.106-.1.323c-.089.288-.209.731-.336,1.311a28.263,28.263,0,0,0-.587,5.131,36.741,36.741,0,0,0,.686,7.959,46.475,46.475,0,0,0,3.185,9.826,63.407,63.407,0,0,0,6.178,10.585c1.263,1.74,2.742,3.556,4.115,5.694a36.071,36.071,0,0,1,3.49,6.851,28,28,0,0,1,1.781,7.966,24.757,24.757,0,0,1-.9,8.405,32.422,32.422,0,0,1-3.36,7.719,53.275,53.275,0,0,1-4.747,6.724c-3.46,4.17-7.245,7.877-10.739,11.57-1.74,1.853-3.436,3.676-4.942,5.543-.752.937-1.459,1.881-2.087,2.842q-.479.716-.889,1.448l-.1.182c-.014.024.027-.062,0,0l-.024.052-.055.1-.213.408-.426.82-.419.81-.353.769c-.23.515-.484,1.006-.686,1.544l-.631,1.575-.553,1.579a27.993,27.993,0,0,0-1.287,6.274,24.338,24.338,0,0,0,1.895,11.477,48.362,48.362,0,0,0,5.165,8.958c1.826,2.56,3.521,4.767,4.9,6.6,1.393,1.826,2.433,3.312,3.144,4.321s1.067,1.568,1.067,1.568a.513.513,0,0,1-.81.628l-.01-.01-1.232-1.411c-.807-.916-2.039-2.221-3.587-3.906s-3.477-3.7-5.553-6.188a45.866,45.866,0,0,1-6.209-9.136,28.984,28.984,0,0,1-2.248-6.116,26.093,26.093,0,0,1-.68-7.022,32.575,32.575,0,0,1,1.139-7.317c.182-.6.36-1.2.542-1.812s.429-1.187.645-1.785.487-1.194.738-1.8l.388-.9.4-.834.4-.827.2-.419.127-.257.12-.223q.474-.9,1.006-1.757c.707-1.143,1.472-2.234,2.276-3.288a76.818,76.818,0,0,1,5.114-5.993c3.552-3.82,7.218-7.492,10.4-11.412,3.2-3.885,5.968-8.052,7.245-12.514a21.7,21.7,0,0,0,.851-6.73,23.115,23.115,0,0,0-1.29-6.6,34.035,34.035,0,0,0-2.873-6.1c-1.088-1.9-2.444-3.744-3.731-5.7-1.246-1.953-2.4-3.9-3.388-5.845a57.1,57.1,0,0,1-2.533-5.8,47.157,47.157,0,0,1-1.706-5.57,44.641,44.641,0,0,1-.889-5.179,34.968,34.968,0,0,1,.076-8.508,26.148,26.148,0,0,1,1.253-5.323,14.237,14.237,0,0,1,.748-1.812.515.515,0,0,1,.94.412Z" transform="translate(-173.687 104.255)" fill="url(#linear-gradient-9)"/>
        <rect id="Rectangle_1681" data-name="Rectangle 1681" width="162.363" height="162.363" transform="matrix(0.796, -0.605, 0.605, 0.796, 12.815, 98.259)" fill="url(#linear-gradient-10)"/>
        <g id="Group_7189" data-name="Group 7189" transform="translate(12.816)" opacity="0.2" style="mix-blend-mode: screen;isolation: isolate">
          <path id="Path_53343" data-name="Path 53343" d="M404.39,126.184a89.992,89.992,0,0,1-49.248,68.554c-.625.309-1.246.611-1.874.9a90.2,90.2,0,0,1-90.945-8.628l-19.4-25.522L372.179,63.231,404.9,106.277A90.433,90.433,0,0,1,404.39,126.184Z" transform="translate(-242.924 -63.231)" fill="url(#linear-gradient-11)"/>
        </g>
        <g id="Group_7191" data-name="Group 7191" transform="translate(12.816)" opacity="0.5" style="mix-blend-mode: multiply;isolation: isolate">
          <path id="Path_53344" data-name="Path 53344" d="M288.178,177.463c-.8,5.78-1.6,11.556-2.382,17.274-1.163,8.405-2.31,16.684-3.411,24.643-1.891,13.379-3.652,25.858-5.165,36.556-1.551,10.7-2.838,19.6-3.745,25.848-.628,4.215-1.074,7.2-1.294,8.7-.1.721-.161,1.095-.161,1.095l-.583-.082.134-1.1c.189-1.5.563-4.5,1.085-8.725.8-6.257,1.936-15.184,3.305-25.906,1.4-10.712,3.048-23.208,4.8-36.607,1.026-7.6,2.083-15.5,3.164-23.517.817-6.1,1.651-12.256,2.471-18.42,1.977-14.278,3.947-28.545,5.793-41.927,1.895-13.368,3.655-25.858,5.169-36.552,1.548-10.7,2.838-19.608,3.744-25.848.745-5.025,1.236-8.316,1.4-9.4l.337-.257.257.34c-.137,1.091-.542,4.393-1.17,9.435-.8,6.253-1.939,15.184-3.305,25.906-1.4,10.712-3.048,23.215-4.805,36.6C292.015,148.9,290.1,163.179,288.178,177.463Z" transform="translate(-173.578 -63.231)" fill="url(#linear-gradient-12)"/>
          <g id="Group_7190" data-name="Group 7190" transform="translate(0 75.879)">
            <path id="Path_53345" data-name="Path 53345" d="M470.438,138.719l-1.764,1.342c-61.326-53.823-150.888-66.007-224.357-30.508l-1.394-1.833,7.139-5.426a212.063,212.063,0,0,1,214.743,29.015Z" transform="translate(-242.924 -85.339)" fill="url(#linear-gradient-13)"/>
          </g>
        </g>
        <path id="Path_53346" data-name="Path 53346" d="M264.916,143.251l23.2-14.474L306.6,148.93Z" transform="translate(-176.62 96.187)" fill="url(#linear-gradient-14)"/>
      </g>
    </g>
  </g>
</svg>
