<svg xmlns="http://www.w3.org/2000/svg" xmlns:xlink="http://www.w3.org/1999/xlink" width="388.361" height="542.482" viewBox="0 0 388.361 542.482">
  <defs>
    <radialGradient id="radial-gradient" cx="0.5" cy="0.5" r="0.5" gradientTransform="matrix(-0.22, 0.976, -0.976, -0.22, -180.347, -21.105)" gradientUnits="objectBoundingBox">
      <stop offset="0.139"/>
      <stop offset="0.232" stop-color="#131313"/>
      <stop offset="0.421" stop-color="#464646"/>
      <stop offset="0.69" stop-color="#989898"/>
      <stop offset="1" stop-color="#fff"/>
    </radialGradient>
    <linearGradient id="linear-gradient" x1="-1510.43" y1="-752.04" x2="-1510.151" y2="-752.04" gradientUnits="objectBoundingBox">
      <stop offset="0" stop-color="#3fc416"/>
      <stop offset="0.132" stop-color="#35a835"/>
      <stop offset="0.56" stop-color="#195497"/>
      <stop offset="0.859" stop-color="#071ed5"/>
      <stop offset="1" stop-color="#000aee"/>
    </linearGradient>
    <linearGradient id="linear-gradient-2" x1="-1740.605" y1="-515.975" x2="-1740.004" y2="-515.975" gradientUnits="objectBoundingBox">
      <stop offset="0" stop-color="#00a6fd"/>
      <stop offset="0.29" stop-color="#0085fd"/>
      <stop offset="0.925" stop-color="#0032fe"/>
      <stop offset="1" stop-color="#0028ff"/>
    </linearGradient>
    <linearGradient id="linear-gradient-3" x1="-1132.453" y1="-622.492" x2="-1132.054" y2="-622.492" gradientUnits="objectBoundingBox">
      <stop offset="0" stop-color="#fb8000"/>
      <stop offset="0.304" stop-color="#fc5500"/>
      <stop offset="0.775" stop-color="#fe1800"/>
      <stop offset="1" stop-color="red"/>
    </linearGradient>
    <linearGradient id="linear-gradient-4" x1="-2566.827" y1="-677.979" x2="-2566.355" y2="-677.979" xlink:href="#linear-gradient"/>
    <linearGradient id="linear-gradient-5" x1="-1098.831" y1="-512.88" x2="-1098.453" y2="-512.88" xlink:href="#linear-gradient-2"/>
    <linearGradient id="linear-gradient-6" x1="-1582.468" y1="-553.579" x2="-1581.912" y2="-553.579" xlink:href="#linear-gradient-3"/>
    <linearGradient id="linear-gradient-7" x1="-443.68" y1="-180.078" x2="-443.279" y2="-180.078" xlink:href="#linear-gradient-2"/>
    <linearGradient id="linear-gradient-8" x1="-840.783" y1="-152.501" x2="-839.858" y2="-152.501" xlink:href="#linear-gradient-3"/>
    <linearGradient id="linear-gradient-9" x1="-491.946" y1="-148.484" x2="-491.591" y2="-148.484" xlink:href="#linear-gradient"/>
    <linearGradient id="linear-gradient-10" x1="-133.298" y1="-134.797" x2="-132.822" y2="-134.213" gradientUnits="objectBoundingBox">
      <stop offset="0.005" stop-color="#894a8f"/>
      <stop offset="1" stop-color="#7b2f99"/>
    </linearGradient>
    <linearGradient id="linear-gradient-11" x1="-129.053" y1="-163.623" x2="-128.556" y2="-163.623" gradientUnits="objectBoundingBox">
      <stop offset="0" stop-color="#ff0a3b"/>
      <stop offset="0.669" stop-color="#ff576b"/>
      <stop offset="0.995" stop-color="#ff7880"/>
    </linearGradient>
    <linearGradient id="linear-gradient-12" x1="-361.765" y1="-98.134" x2="-361.749" y2="-97.643" gradientUnits="objectBoundingBox">
      <stop offset="0" stop-color="#cc8122"/>
      <stop offset="0.318" stop-color="#9e5d16"/>
      <stop offset="0.78" stop-color="#612e06"/>
      <stop offset="1" stop-color="#491c00"/>
    </linearGradient>
    <linearGradient id="linear-gradient-13" x1="-97.487" y1="-299.941" x2="-96.931" y2="-299.941" xlink:href="#linear-gradient-12"/>
    <linearGradient id="linear-gradient-14" x1="-531.936" y1="-984.643" x2="-531.936" y2="-983.833" xlink:href="#linear-gradient-10"/>
  </defs>
  <g id="Group_7200" data-name="Group 7200" transform="translate(0 0)">
    <circle id="Ellipse_690" data-name="Ellipse 690" cx="187" cy="187" r="187" transform="translate(0 373.714) rotate(-87.756)" fill="url(#radial-gradient)" style="mix-blend-mode: color-burn;isolation: isolate"/>
    <g id="Group_7199" data-name="Group 7199" transform="translate(36.571 5.693)">
      <path id="Path_53347" data-name="Path 53347" d="M122.469,40.947l-1.1,1.84c-.678,1.171-1.625,2.846-2.594,4.876a35.229,35.229,0,0,0-1.343,3.314,17.358,17.358,0,0,0-.88,3.693,10.766,10.766,0,0,0-.063,1.874l.24,2.11c.173,1.558.27,3.154.291,4.758a30.843,30.843,0,0,1-.341,4.851,17.553,17.553,0,0,1-1.377,4.686,12.876,12.876,0,0,1-2.661,3.827,15.634,15.634,0,0,1-3.234,2.4,25.952,25.952,0,0,1-2.926,1.432c-.876.383-1.659.665-2.295.909-1.28.476-2.03.72-2.03.72s.594-.522,1.672-1.36,2.665-1.983,4.358-3.427a17.353,17.353,0,0,0,2.375-2.514,11.927,11.927,0,0,0,1.705-3.23,18.231,18.231,0,0,0,.838-3.929,38.455,38.455,0,0,0,.185-4.333c-.008-1.486-.1-2.968-.189-4.438-.051-.775-.131-1.444-.135-2.383a12.683,12.683,0,0,1,.282-2.51,17.129,17.129,0,0,1,1.562-4.261,23.131,23.131,0,0,1,2.1-3.314A24.986,24.986,0,0,1,119,44.042c.653-.707,1.272-1.28,1.785-1.739A17.3,17.3,0,0,1,122.469,40.947Z" transform="translate(-95.705 75.106)" fill="url(#linear-gradient)"/>
      <path id="Path_53348" data-name="Path 53348" d="M120.258,41.573a24.689,24.689,0,0,0-2.808,1.276,27.665,27.665,0,0,0-2.994,1.811,18.426,18.426,0,0,0-3.293,2.922,11.746,11.746,0,0,0-2.43,4.274,11.334,11.334,0,0,0-.248,5.356A20.7,20.7,0,0,0,110.51,62.9c.253.467.467.947.758,1.4l.876,1.465c.568.99,1.141,1.979,1.709,2.973.539,1.044,1.011,2.232,1.507,3.343.463,1.128.754,2.3,1.133,3.436.295,1.166.48,2.358.661,3.524.034.594.067,1.183.1,1.773a10.094,10.094,0,0,1,0,1.747,17.282,17.282,0,0,1-.43,3.39,16.206,16.206,0,0,1-.392,1.6c-.181.514-.362,1.023-.539,1.524a9.265,9.265,0,0,1-.627,1.432c-.232.455-.459.905-.686,1.347-.564.813-1.04,1.646-1.63,2.337a17.832,17.832,0,0,1-1.739,1.933,16.678,16.678,0,0,1-1.747,1.533,13.611,13.611,0,0,1-1.655,1.187,15.141,15.141,0,0,1-1.478.867c-.463.232-.876.438-1.234.615l-.947.371-.787.3a.364.364,0,0,1-.324-.648l.029-.017.686-.434c.223-.139.493-.316.817-.518l1.044-.783a14.344,14.344,0,0,0,1.234-1.027,16.092,16.092,0,0,0,1.356-1.3,15.191,15.191,0,0,0,1.394-1.6,19.064,19.064,0,0,0,1.352-1.891c.459-.665.787-1.448,1.213-2.194.156-.4.32-.808.484-1.221a7.512,7.512,0,0,0,.442-1.267l.362-1.326a13.46,13.46,0,0,0,.223-1.39,12.163,12.163,0,0,0,.168-1.423q.019-.726.038-1.465a7.7,7.7,0,0,0-.076-1.486c-.046-.5-.1-1-.147-1.507-.088-.5-.219-1.006-.328-1.512s-.177-1.019-.345-1.52c-.354-.989-.623-2.034-1.04-3-.459-.96-.825-1.907-1.343-2.888-.556-1-1.116-2-1.667-3l-.851-1.478c-.312-.505-.556-1.057-.829-1.587a21.922,21.922,0,0,1-2.11-6.817,13.5,13.5,0,0,1,.787-6.834,13.143,13.143,0,0,1,1.52-2.817,15.425,15.425,0,0,1,1.958-2.177,17.571,17.571,0,0,1,4.076-2.817,22.685,22.685,0,0,1,5.76-2.034c.535-.109.834-.152.834-.152a.367.367,0,0,1,.417.307A.372.372,0,0,1,120.258,41.573Z" transform="translate(-93.406 74.833)" fill="url(#linear-gradient-2)"/>
      <path id="Path_53349" data-name="Path 53349" d="M127.491,41.567a5.412,5.412,0,0,0-.615.333,10.771,10.771,0,0,0-1.583,1.213,10.625,10.625,0,0,0-1.878,2.379,12.043,12.043,0,0,0-1.347,3.63,18.063,18.063,0,0,0-.278,4.632,32.369,32.369,0,0,0,.834,5.238c.232.9.476,1.819.779,2.737.307.935.623,1.878.939,2.83a24.665,24.665,0,0,1,1.28,6.556,18.272,18.272,0,0,1-.985,6.788,16.76,16.76,0,0,1-3.486,5.659,20.094,20.094,0,0,1-4.762,3.735,24.765,24.765,0,0,1-4.842,2.131,25.92,25.92,0,0,1-7.676,1.31,11.411,11.411,0,0,1-2.964-.286l-.017-.008a.365.365,0,0,1,.118-.716,6.944,6.944,0,0,0,.712-.017,17.614,17.614,0,0,0,2.025-.286,31.124,31.124,0,0,0,6.918-2.265,28.014,28.014,0,0,0,4.152-2.358,19.837,19.837,0,0,0,3.819-3.461,14.166,14.166,0,0,0,2.577-4.623,14.532,14.532,0,0,0,.686-5.432,22.119,22.119,0,0,0-1.019-5.6A47.861,47.861,0,0,1,119.3,59.7a27.691,27.691,0,0,1-.509-5.9,17.653,17.653,0,0,1,.888-5.335,12.478,12.478,0,0,1,2.181-4.059,10.658,10.658,0,0,1,2.627-2.354,9.368,9.368,0,0,1,2.021-.968,6.718,6.718,0,0,1,.775-.215.372.372,0,0,1,.429.295A.368.368,0,0,1,127.491,41.567Z" transform="translate(-100.622 74.836)" fill="url(#linear-gradient-3)"/>
      <g id="Group_7195" data-name="Group 7195" transform="translate(316.139 198.276)">
        <path id="Path_53350" data-name="Path 53350" d="M187.988,60.555a17.116,17.116,0,0,1,.787,2.017c.219.657.472,1.457.686,2.4a25.229,25.229,0,0,1,.573,3.2,22.873,22.873,0,0,1,.173,3.916,17.277,17.277,0,0,1-.766,4.476,12.74,12.74,0,0,1-1.006,2.316c-.472.813-.876,1.356-1.305,2-.8,1.234-1.625,2.476-2.371,3.756a38.1,38.1,0,0,0-2,3.853,18.031,18.031,0,0,0-1.23,3.819,12.031,12.031,0,0,0-.13,3.651,17.387,17.387,0,0,0,.813,3.364c.75,2.1,1.566,3.878,2.072,5.141s.771,2.008.771,2.008-.526-.581-1.4-1.63c-.434-.531-.973-1.166-1.537-1.933a25.222,25.222,0,0,1-1.827-2.695,15.64,15.64,0,0,1-1.613-3.693,12.954,12.954,0,0,1-.4-4.64,17.506,17.506,0,0,1,1.141-4.75,29.992,29.992,0,0,1,2.118-4.379c.817-1.377,1.693-2.716,2.619-3.979.425-.577.842-1.15,1.259-1.714a11.281,11.281,0,0,0,.88-1.655,17.775,17.775,0,0,0,1.074-3.642,35.711,35.711,0,0,0,.484-3.541c.168-2.244.181-4.169.173-5.524C188,61.334,187.988,60.555,187.988,60.555Z" transform="translate(-167.626 -60.216)" fill="url(#linear-gradient-4)"/>
        <path id="Path_53351" data-name="Path 53351" d="M196.318,60.552s.236.185.649.547a20.09,20.09,0,0,1,1.7,1.676,22.323,22.323,0,0,1,2.286,2.952,17.677,17.677,0,0,1,2.135,4.472,15.572,15.572,0,0,1,.611,2.863,13.017,13.017,0,0,1-.084,3.2,13.478,13.478,0,0,1-2.716,6.32,21.742,21.742,0,0,1-5.225,4.859c-.5.328-.985.686-1.507.968l-1.474.859-2.935,1.768c-.939.594-1.731,1.234-2.6,1.836-.846.632-1.6,1.4-2.4,2.088-.4.349-.7.771-1.057,1.145s-.712.758-1.036,1.145c-.295.417-.589.829-.88,1.238a7.789,7.789,0,0,0-.8,1.251q-.354.651-.695,1.288a11.935,11.935,0,0,0-.564,1.318,13.551,13.551,0,0,0-.5,1.318l-.35,1.331a7.19,7.19,0,0,0-.244,1.318l-.185,1.3c-.008.859-.109,1.7-.046,2.505a18.891,18.891,0,0,0,.236,2.316,21.635,21.635,0,0,0,.939,3.882,14.636,14.636,0,0,0,.556,1.512l.518,1.2.451.855.379.72.017.029a.363.363,0,0,1-.6.4s-.185-.227-.535-.653l-.64-.792c-.223-.333-.476-.716-.762-1.145a15.283,15.283,0,0,1-.851-1.491,13.456,13.456,0,0,1-.842-1.848,16.836,16.836,0,0,1-.758-2.2,18.412,18.412,0,0,1-.543-2.543c-.168-.893-.164-1.853-.253-2.838.025-.5.055-1,.08-1.512a8.9,8.9,0,0,1,.168-1.554l.29-1.587a14.732,14.732,0,0,1,.459-1.587,17.124,17.124,0,0,1,1.314-3.154,10.237,10.237,0,0,1,.872-1.516l.968-1.491c.737-.918,1.495-1.861,2.329-2.724.893-.8,1.726-1.667,2.695-2.417.981-.716,1.979-1.512,2.969-2.152.985-.577,1.975-1.15,2.96-1.722l1.491-.838c.48-.248.905-.56,1.356-.838a20.87,20.87,0,0,0,4.585-3.924,11.347,11.347,0,0,0,2.451-4.771,11.67,11.67,0,0,0,.021-4.918,18.45,18.45,0,0,0-1.4-4.173,28.572,28.572,0,0,0-1.7-3.057,24.167,24.167,0,0,0-1.8-2.505.366.366,0,0,1,.505-.526Z" transform="translate(-175.703 -60.475)" fill="url(#linear-gradient-5)"/>
        <path id="Path_53352" data-name="Path 53352" d="M193.093,60.562a6.429,6.429,0,0,1,.564.573,9.115,9.115,0,0,1,1.272,1.844,10.6,10.6,0,0,1,1.107,3.347,12.547,12.547,0,0,1-.126,4.611A17.637,17.637,0,0,1,194.023,76a27.7,27.7,0,0,1-3.381,4.867,48.161,48.161,0,0,1-4.345,4.4,22.018,22.018,0,0,0-3.672,4.35,14.575,14.575,0,0,0-2.11,5.049,14.283,14.283,0,0,0-.067,5.3,20.069,20.069,0,0,0,1.592,4.9,28.468,28.468,0,0,0,2.425,4.114,31.539,31.539,0,0,0,4.876,5.411,17.711,17.711,0,0,0,1.613,1.251,6.433,6.433,0,0,0,.611.371.364.364,0,0,1,.156.493.358.358,0,0,1-.413.189l-.017,0a11.422,11.422,0,0,1-2.712-1.225,25.927,25.927,0,0,1-6-4.956,24.775,24.775,0,0,1-3.141-4.261,20.1,20.1,0,0,1-2.274-5.609,16.723,16.723,0,0,1-.206-6.644,18.254,18.254,0,0,1,2.526-6.375,24.559,24.559,0,0,1,4.371-5.049c.75-.669,1.491-1.335,2.227-1.987.716-.648,1.385-1.318,2.034-1.987a32.45,32.45,0,0,0,3.331-4.126,18.165,18.165,0,0,0,2.063-4.156,12.166,12.166,0,0,0,.64-3.819,10.129,10.129,0,0,0-1.217-4.838,5.207,5.207,0,0,0-.366-.594.367.367,0,0,1,.531-.5Z" transform="translate(-172.465 -60.472)" fill="url(#linear-gradient-6)"/>
      </g>
      <path id="Path_53353" data-name="Path 53353" d="M117.8,263.631l.324-.5c.219-.328.522-.821.968-1.453a57.456,57.456,0,0,1,4.164-5.284,72.889,72.889,0,0,1,7.47-7.31,120.569,120.569,0,0,1,10.758-8.152c4.038-2.817,8.573-5.566,13.188-8.594a112.223,112.223,0,0,0,13.7-9.975,42.83,42.83,0,0,0,5.764-6.2,32.109,32.109,0,0,0,2.219-3.524,27.879,27.879,0,0,0,1.646-3.8c1.773-5.251,1.693-11.209.442-17.12a83.792,83.792,0,0,0-6.025-17.445l-1-2.2c-.333-.707-.665-1.528-.994-2.286-.632-1.533-1.225-3.053-1.743-4.6a79.8,79.8,0,0,1-2.522-9.3,73.65,73.65,0,0,1-1.495-18.089,79.6,79.6,0,0,1,2.295-15.992,87.576,87.576,0,0,1,4.337-12.847,89.037,89.037,0,0,1,4.678-9.289c1.457-2.48,2.729-4.354,3.63-5.608.451-.623.813-1.095,1.057-1.415l.387-.484a.731.731,0,0,1,1.192.842l-.021.029-.3.484c-.2.328-.493.825-.859,1.478-.741,1.3-1.777,3.251-2.943,5.794a86.6,86.6,0,0,0-3.705,9.36,85,85,0,0,0-3.221,12.56,78.52,78.52,0,0,0-1.259,15.15,74.388,74.388,0,0,0,2.168,16.678,73.442,73.442,0,0,0,2.674,8.451c.552,1.39,1.112,2.8,1.726,4.173.32.682.594,1.326.952,2.046l1.044,2.122a81.361,81.361,0,0,1,7.133,18.834,44.374,44.374,0,0,1,1.179,10.455,32.865,32.865,0,0,1-1.764,10.615,35.277,35.277,0,0,1-2.173,4.922,38.636,38.636,0,0,1-2.884,4.4,45.658,45.658,0,0,1-3.352,3.844c-1.179,1.183-2.4,2.295-3.642,3.318a104.736,104.736,0,0,1-15.024,10.025c-4.851,2.716-9.44,5.28-13.676,7.651-4.185,2.371-7.895,4.695-11.1,6.876a92.149,92.149,0,0,0-7.95,6.11c-2.1,1.832-3.667,3.377-4.7,4.442l-1.6,1.7a.73.73,0,0,1-1.145-.9Z" transform="translate(-45.855 238.68)" fill="url(#linear-gradient-7)"/>
      <path id="Path_53354" data-name="Path 53354" d="M161.1,92.745s-.564.623-1.6,1.84-2.51,3.04-4.316,5.4c-1.79,2.379-3.916,5.293-6.169,8.745a132.3,132.3,0,0,0-6.926,11.916,102.5,102.5,0,0,0-6.236,14.863c-.855,2.712-1.646,5.512-2.274,8.4a69.229,69.229,0,0,0-1.305,8.918,66.355,66.355,0,0,0-.08,9.247c.093,1.545.269,3.137.484,4.649l.181,1.242.2,1.15c.122.749.3,1.537.455,2.312a76.513,76.513,0,0,0,6.809,18.236c3.006,5.941,6.594,11.76,9.849,17.819a103.139,103.139,0,0,1,8.16,18.779,71.466,71.466,0,0,1,2.973,19.087A84.4,84.4,0,0,1,159.8,262.4a112.432,112.432,0,0,1-3.566,13.845c-1.28,4.042-2.648,7.47-3.781,10.274-.564,1.406-1.1,2.644-1.587,3.718s-.88,1.983-1.229,2.716c-.691,1.465-1.057,2.244-1.057,2.244a.73.73,0,0,1-1.356-.535l0-.013.762-2.345c.505-1.52,1.208-3.769,2.055-6.632s1.8-6.354,2.741-10.379a126.788,126.788,0,0,0,2.4-13.6,84.745,84.745,0,0,0,.446-16.089,66.094,66.094,0,0,0-3.516-17.339,97.027,97.027,0,0,0-8.135-17.327c-3.31-5.756-6.985-11.6-10.249-17.883a95.865,95.865,0,0,1-4.4-9.739,70.722,70.722,0,0,1-3.061-10.3c-.177-.88-.366-1.739-.509-2.653l-.223-1.335-.177-1.246c-.24-1.806-.387-3.533-.463-5.293a62.311,62.311,0,0,1,.345-10.333,76.2,76.2,0,0,1,4.649-18.767,94.988,94.988,0,0,1,7.6-15.322,113.043,113.043,0,0,1,15.575-19.916c2.122-2.177,3.9-3.781,5.12-4.859s1.924-1.613,1.924-1.613a.733.733,0,0,1,.994,1.07Z" transform="translate(-22.946 237.486)" fill="url(#linear-gradient-8)"/>
      <path id="Path_53355" data-name="Path 53355" d="M168.649,92.16l-.072.143-.2.434c-.177.392-.421.994-.7,1.789a40.75,40.75,0,0,0-1.739,7.124,52.417,52.417,0,0,0-.438,11.327,65.736,65.736,0,0,0,2.745,14.4,89.921,89.921,0,0,0,6.825,16c1.474,2.678,3.234,5.495,4.788,8.75a51.233,51.233,0,0,1,3.7,10.266,39.717,39.717,0,0,1,1.1,11.533,35.044,35.044,0,0,1-2.762,11.68,46,46,0,0,1-6.1,10.274,75.82,75.82,0,0,1-7.874,8.628c-5.613,5.259-11.6,9.811-17.175,14.4-2.779,2.3-5.486,4.564-7.941,6.931-1.225,1.183-2.383,2.392-3.444,3.63q-.8.928-1.5,1.882l-.181.24c-.021.029.055-.08,0,0l-.046.067-.1.135-.371.539-.745,1.078-.728,1.065-.636,1.023c-.417.682-.863,1.331-1.242,2.051l-1.166,2.11c-.358.712-.707,1.419-1.061,2.122a39.986,39.986,0,0,0-2.922,8.611,34.523,34.523,0,0,0,.636,16.5,68.644,68.644,0,0,0,5.689,13.533c2.118,3.929,4.114,7.335,5.731,10.164,1.634,2.817,2.838,5.095,3.659,6.644.8,1.562,1.225,2.4,1.225,2.4a.728.728,0,0,1-1.251.741l-.013-.013-1.486-2.206c-.977-1.432-2.476-3.486-4.358-6.135s-4.244-5.828-6.724-9.7a65,65,0,0,1-7.129-13.967,41.443,41.443,0,0,1-2.08-9.015,36.959,36.959,0,0,1,.282-10.009,46.1,46.1,0,0,1,2.905-10.105q.537-1.219,1.082-2.451c.379-.813.813-1.6,1.225-2.4.4-.8.9-1.6,1.356-2.4l.707-1.2.712-1.1.712-1.1.358-.547.227-.345.206-.291q.834-1.187,1.731-2.295c1.2-1.486,2.467-2.888,3.785-4.232a108.621,108.621,0,0,1,8.265-7.533c5.676-4.75,11.487-9.272,16.674-14.232,5.187-4.9,9.823-10.278,12.417-16.333a30.782,30.782,0,0,0,2.387-9.335,32.66,32.66,0,0,0-.648-9.529,48.055,48.055,0,0,0-2.964-9.095c-1.2-2.863-2.779-5.705-4.244-8.691-1.411-2.968-2.691-5.908-3.735-8.83a79.192,79.192,0,0,1-2.539-8.611,66.915,66.915,0,0,1-1.419-8.148,63.807,63.807,0,0,1-.337-7.449,49.742,49.742,0,0,1,1.617-11.971,36.974,36.974,0,0,1,2.7-7.276A21.314,21.314,0,0,1,167.4,91.4a.731.731,0,0,1,1.251.75Z" transform="translate(-30.885 236.105)" fill="url(#linear-gradient-9)"/>
      <rect id="Rectangle_1682" data-name="Rectangle 1682" width="230.458" height="230.458" transform="matrix(0.865, -0.501, 0.501, 0.865, 24.547, 115.488)" fill="url(#linear-gradient-10)"/>
      <g id="Group_7196" data-name="Group 7196" transform="translate(24.549)" opacity="0.2" style="mix-blend-mode: screen;isolation: isolate">
        <path id="Path_53356" data-name="Path 53356" d="M340.1,107.741a127.719,127.719,0,0,1-81.5,87.825c-.931.324-1.861.64-2.8.939a128.011,128.011,0,0,1-126.55-28.253l-22.8-39.378L305.884,13.385,344.344,79.8A128.077,128.077,0,0,1,340.1,107.741Z" transform="translate(-106.452 -13.385)" fill="url(#linear-gradient-11)"/>
      </g>
      <g id="Group_7198" data-name="Group 7198" transform="translate(24.549)" opacity="0.5" style="mix-blend-mode: multiply;isolation: isolate">
        <path id="Path_53357" data-name="Path 53357" d="M177.488,171.662c-2.147,8-4.3,15.992-6.417,23.9-3.124,11.63-6.206,23.091-9.167,34.1-5.032,18.506-9.722,35.773-13.743,50.57-4.084,14.788-7.474,27.108-9.853,35.736-1.634,5.827-2.787,9.958-3.364,12.026-.274.994-.421,1.512-.421,1.512l-.808-.215.383-1.533c.535-2.08,1.592-6.236,3.074-12.093,2.232-8.67,5.415-21.04,9.242-35.9,3.874-14.834,8.4-32.144,13.242-50.7,2.787-10.531,5.676-21.466,8.619-32.565,2.232-8.438,4.493-16.965,6.741-25.5,5.314-19.752,10.611-39.5,15.584-58.018,5.036-18.493,9.727-35.769,13.752-50.565,4.072-14.792,7.47-27.108,9.849-35.736,1.941-6.943,3.217-11.491,3.634-12.994l.522-.3.3.522c-.383,1.512-1.541,6.089-3.318,13.078-2.232,8.67-5.423,21.04-9.242,35.9-3.874,14.834-8.4,32.152-13.251,50.7C187.951,132.116,182.717,151.885,177.488,171.662Z" transform="translate(-18.924 -13.385)" fill="url(#linear-gradient-12)"/>
        <g id="Group_7197" data-name="Group 7197" transform="translate(0 97.475)">
          <path id="Path_53358" data-name="Path 53358" d="M421.373,138.492l-2.724,1.579c-76.835-86.659-200.8-119.674-310.563-82.7l-1.634-2.825,11.015-6.379c51.509-15.036,106.436-15.529,159.8-1.305,53.142,14.165,100.36,41.765,137.485,80.2Z" transform="translate(-106.452 -36.535)" fill="url(#linear-gradient-13)"/>
        </g>
      </g>
      <path id="Path_53359" data-name="Path 53359" d="M125.76,103.616,161,87.341,183.463,119Z" transform="translate(-19.912 224.061)" fill="url(#linear-gradient-14)"/>
    </g>
  </g>
</svg>
